<svg xmlns="http://www.w3.org/2000/svg" xmlns:xlink="http://www.w3.org/1999/xlink" width="110.057" height="110.057" viewBox="0 0 110.057 110.057">
  <defs>
    <filter id="Trazado_874925" x="0" y="0" width="110.057" height="110.057" filterUnits="userSpaceOnUse">
      <feOffset dy="3" input="SourceAlpha"/>
      <feGaussianBlur stdDeviation="3" result="blur"/>
      <feFlood flood-opacity="0.161"/>
      <feComposite operator="in" in2="blur"/>
      <feComposite in="SourceGraphic"/>
    </filter>
    <clipPath id="clip-path">
      <rect id="Rectángulo_415560" data-name="Rectángulo 415560" width="57.373" height="57.433" fill="none"/>
    </clipPath>
  </defs>
  <g id="Grupo_1175167" data-name="Grupo 1175167" transform="translate(9 6)">
    <g id="Grupo_1109819" data-name="Grupo 1109819" transform="translate(0 0)">
      <g transform="matrix(1, 0, 0, 1, -9, -6)" filter="url(#Trazado_874925)">
        <g id="Trazado_874925-2" data-name="Trazado 874925" transform="translate(9 6)" fill="#efdb59" opacity="0.859">
          <path d="M 46.02833557128906 90.55719757080078 C 40.01638793945312 90.55719757080078 34.1850700378418 89.38008880615234 28.69636154174805 87.05855560302734 C 23.39413642883301 84.81590270996094 18.63193511962891 81.60504150390625 14.54205513000488 77.51514434814453 C 10.45216178894043 73.42526245117188 7.241295337677002 68.66306304931641 4.998642444610596 63.36083984375 C 2.677109003067017 57.87213134765625 1.500002264976501 52.04081344604492 1.500002264976501 46.02886581420898 C 1.500002264976501 40.01638412475586 2.677109003067017 34.18506622314453 4.998642444610596 28.69635963439941 C 7.241295337677002 23.39413261413574 10.45216178894043 18.63193130493164 14.54205513000488 14.54205226898193 C 18.63193511962891 10.45215892791748 23.39413642883301 7.241291999816895 28.69636154174805 4.99863862991333 C 34.1850700378418 2.67710542678833 40.01638793945312 1.499998807907104 46.02833557128906 1.499998807907104 C 52.040283203125 1.499998807907104 57.87160110473633 2.67710542678833 63.36030960083008 4.99863862991333 C 68.66253662109375 7.241291999816895 73.42473602294922 10.45215892791748 77.51461791992188 14.54205226898193 C 81.60450744628906 18.63193130493164 84.81537628173828 23.39413261413574 87.05802917480469 28.69635963439941 C 89.37956237792969 34.18506622314453 90.55667114257812 40.01638412475586 90.55667114257812 46.0283317565918 C 90.55667114257812 52.04081344604492 89.37956237792969 57.87213134765625 87.05802917480469 63.36083984375 C 84.81537628173828 68.66306304931641 81.60450744628906 73.42526245117188 77.51461791992188 77.51514434814453 C 73.42473602294922 81.60504150390625 68.66253662109375 84.81590270996094 63.36030960083008 87.05855560302734 C 57.87160110473633 89.38008880615234 52.040283203125 90.55719757080078 46.02833557128906 90.55719757080078 Z" stroke="none"/>
          <path d="M 46.02833557128906 3 C 40.21821975708008 3 34.5835075378418 4.137245178222656 29.28069305419922 6.380142211914062 C 24.15726470947266 8.547172546386719 19.55532073974609 11.65008544921875 15.60270690917969 15.60271453857422 C 11.65009307861328 19.55532836914062 8.547164916992188 24.15725708007812 6.380134582519531 29.28068542480469 C 4.137237548828125 34.58349990844727 2.999992370605469 40.21822738647461 2.999992370605469 46.02886962890625 C 2.999992370605469 51.83898544311523 4.137237548828125 57.47369766235352 6.380134582519531 62.77651214599609 C 8.547164916992188 67.89994049072266 11.65009307861328 72.50186920166016 15.60270690917969 76.45449829101562 C 19.55532073974609 80.40711212158203 24.15726470947266 83.51002502441406 29.28069305419922 85.67705535888672 C 34.5835075378418 87.91995239257812 40.21821975708008 89.05719757080078 46.02833557128906 89.05719757080078 C 51.83845138549805 89.05719757080078 57.47316360473633 87.91995239257812 62.77597808837891 85.67705535888672 C 67.89940643310547 83.51002502441406 72.50135040283203 80.40711212158203 76.45396423339844 76.45449829101562 C 80.40657806396484 72.50188446044922 83.50949096679688 67.89994049072266 85.67652130126953 62.77651214599609 C 87.91941833496094 57.47369766235352 89.05666351318359 51.83898544311523 89.05666351318359 46.02834320068359 C 89.05666351318359 40.21822738647461 87.91941833496094 34.58349990844727 85.67652130126953 29.28068542480469 C 83.50949096679688 24.15725708007812 80.40657806396484 19.55532836914062 76.45396423339844 15.60271453857422 C 72.50133514404297 11.65008544921875 67.89940643310547 8.547172546386719 62.77597808837891 6.380142211914062 C 57.47316360473633 4.137245178222656 51.83845138549805 3 46.02833557128906 3 M 46.02833557128906 0 C 71.44908142089844 0 92.05666351318359 20.60758209228516 92.05666351318359 46.02834320068359 L 92.05666351318359 46.02886962890625 C 92.05666351318359 71.44961547851562 71.44908142089844 92.05719757080078 46.02833557128906 92.05719757080078 C 20.60758972167969 92.05719757080078 -7.62939453125e-06 71.44961547851562 -7.62939453125e-06 46.02886962890625 L -7.62939453125e-06 46.02834320068359 C -7.62939453125e-06 20.60758209228516 20.60758972167969 0 46.02833557128906 0 Z" stroke="none" fill="#fff"/>
        </g>
      </g>
      <g id="Trazado_874923" data-name="Trazado 874923" transform="translate(0 0)" fill="none">
        <path d="M46.028,0A46.028,46.028,0,0,1,92.057,46.028h0A46.028,46.028,0,0,1,0,46.029H0A46.028,46.028,0,0,1,46.028,0Z" stroke="none"/>
        <path d="M 46.02833557128906 3 C 40.21821975708008 3 34.5835075378418 4.137245178222656 29.28069305419922 6.380142211914062 C 24.15726470947266 8.547172546386719 19.55532073974609 11.65008544921875 15.60270690917969 15.60271453857422 C 11.65009307861328 19.55532836914062 8.547164916992188 24.15725708007812 6.380134582519531 29.28068542480469 C 4.137237548828125 34.58349990844727 2.999992370605469 40.21822738647461 2.999992370605469 46.02886962890625 C 2.999992370605469 51.83898544311523 4.137237548828125 57.47369766235352 6.380134582519531 62.77651214599609 C 8.547164916992188 67.89994049072266 11.65009307861328 72.50186920166016 15.60270690917969 76.45449829101562 C 19.55532073974609 80.40711212158203 24.15726470947266 83.51002502441406 29.28069305419922 85.67705535888672 C 34.5835075378418 87.91995239257812 40.21821975708008 89.05719757080078 46.02833557128906 89.05719757080078 C 51.83845138549805 89.05719757080078 57.47316360473633 87.91995239257812 62.77597808837891 85.67705535888672 C 67.89940643310547 83.51002502441406 72.50135040283203 80.40711212158203 76.45396423339844 76.45449829101562 C 80.40657806396484 72.50188446044922 83.50949096679688 67.89994049072266 85.67652130126953 62.77651214599609 C 87.91941833496094 57.47369766235352 89.05666351318359 51.83898544311523 89.05666351318359 46.02834320068359 C 89.05666351318359 40.21822738647461 87.91941833496094 34.58349990844727 85.67652130126953 29.28068542480469 C 83.50949096679688 24.15725708007812 80.40657806396484 19.55532836914062 76.45396423339844 15.60271453857422 C 72.50133514404297 11.65008544921875 67.89940643310547 8.547172546386719 62.77597808837891 6.380142211914062 C 57.47316360473633 4.137245178222656 51.83845138549805 3 46.02833557128906 3 M 46.02833557128906 0 C 71.44908142089844 0 92.05666351318359 20.60758209228516 92.05666351318359 46.02834320068359 L 92.05666351318359 46.02886962890625 C 92.05666351318359 71.44961547851562 71.44908142089844 92.05719757080078 46.02833557128906 92.05719757080078 C 20.60758972167969 92.05719757080078 -7.62939453125e-06 71.44961547851562 -7.62939453125e-06 46.02886962890625 L -7.62939453125e-06 46.02834320068359 C -7.62939453125e-06 20.60758209228516 20.60758972167969 0 46.02833557128906 0 Z" stroke="none" fill="#fff"/>
      </g>
    </g>
    <g id="Grupo_1175655" data-name="Grupo 1175655" transform="translate(17.342 17.312)">
      <rect id="Rectángulo_415552" data-name="Rectángulo 415552" width="11.34" height="22.733" transform="translate(45.192 33.86)" fill="#fc435f"/>
      <rect id="Rectángulo_415553" data-name="Rectángulo 415553" width="11.34" height="15.584" transform="translate(45.192 22.515)" fill="#ffdeb0"/>
      <rect id="Rectángulo_415554" data-name="Rectángulo 415554" width="16.435" height="48.63" transform="translate(2.064 7.963)" fill="#ffdeb0"/>
      <rect id="Rectángulo_415555" data-name="Rectángulo 415555" width="4.482" height="48.63" transform="translate(14.016 7.963)" fill="#fcd59f"/>
      <path id="Trazado_1031125" data-name="Trazado 1031125" d="M102.721,123.425H64.332V95.232l8.557-10.4,10.638-6.242,10.637,6.242,8.557,10.4Z" transform="translate(-54.71 -66.832)" fill="#fc435f"/>
      <path id="Trazado_1031126" data-name="Trazado 1031126" d="M190.562,84.828l-10.637-6.242L177.684,79.9l8.4,4.927,8.557,10.4v28.194h4.482V95.232Z" transform="translate(-151.109 -66.832)" fill="#eb2f4b"/>
      <g id="Grupo_1175654" data-name="Grupo 1175654">
        <g id="Grupo_1175653" data-name="Grupo 1175653" clip-path="url(#clip-path)">
          <path id="Trazado_1031127" data-name="Trazado 1031127" d="M33.2,91.965a1.561,1.561,0,0,1-1.2-2.551L43.878,74.962a1.572,1.572,0,0,1,.416-.355l10.637-6.242a1.56,1.56,0,0,1,1.58,0l10.637,6.242a1.575,1.575,0,0,1,.416.355l8.557,10.4.033.042,3.069,4.005a1.56,1.56,0,0,1-2.477,1.9l-3.053-3.984L65.33,77.159l-9.609-5.638-9.608,5.638L34.4,91.4a1.557,1.557,0,0,1-1.206.569" transform="translate(-26.905 -57.958)" fill="#fff1ec"/>
          <path id="Trazado_1031128" data-name="Trazado 1031128" d="M30.232,12.74H13.8A7.123,7.123,0,0,1,20.92,5.617h2.189a7.123,7.123,0,0,1,7.123,7.123" transform="translate(-11.733 -4.777)" fill="#fff1ec"/>
          <path id="Trazado_1031129" data-name="Trazado 1031129" d="M57.089,5.617H54.9a7.136,7.136,0,0,0-1.147.093,7.124,7.124,0,0,1,5.976,7.03h4.482a7.123,7.123,0,0,0-7.123-7.123" transform="translate(-45.714 -4.777)" fill="#fce2c5"/>
          <rect id="Rectángulo_415556" data-name="Rectángulo 415556" width="38.389" height="9.247" transform="translate(9.622 47.345)" fill="#fff1ec"/>
          <rect id="Rectángulo_415557" data-name="Rectángulo 415557" width="4.482" height="9.247" transform="translate(43.529 47.345)" fill="#fce2c5"/>
          <rect id="Rectángulo_415558" data-name="Rectángulo 415558" width="23.797" height="14.501" transform="translate(16.787 38.099)" fill="#ff8093"/>
          <rect id="Rectángulo_415559" data-name="Rectángulo 415559" width="8.591" height="11.657" transform="translate(24.521 21.798)" fill="#eb2f4b"/>
          <path id="Trazado_1031130" data-name="Trazado 1031130" d="M48.851,38.94h7.681a.84.84,0,0,0,0-1.681H48.851V33.443l.322.421c1.885,2.46,5.7-.461,3.812-2.921l-3.069-4.006c-.017-.022-.034-.044-.051-.065l-2.893-3.518h9.56a.84.84,0,0,0,0-1.681H45.589l-4.281-5.2a2.4,2.4,0,0,0-.639-.546l-2.278-1.336a.841.841,0,0,0-.851,1.449l2.278,1.337a.723.723,0,0,1,.192.164l4.534,5.512h0l4.024,4.892,3.084,4.024a.721.721,0,0,1-1.143.876l-3.053-3.984-.018-.023L39.074,18.667a.837.837,0,0,0-.224-.191l-9.609-5.638a.84.84,0,0,0-.851,0l-9.608,5.638a.828.828,0,0,0-.224.191L6.848,32.9a.72.72,0,0,1-1.112-.915L17.622,17.538a.717.717,0,0,1,.192-.164l10.637-6.242a.72.72,0,0,1,.729,0l4.491,2.635a.841.841,0,0,0,.851-1.45L30.032,9.683a2.4,2.4,0,0,0-2.43,0l-8.262,4.849V8.8h.242a.84.84,0,1,0,0-1.681h-.287A7.974,7.974,0,0,0,11.375,0H9.187A7.974,7.974,0,0,0,1.268,7.122H.98A.84.84,0,1,0,.98,8.8h.243V55.752H.84a.84.84,0,0,0,0,1.681H56.532a.84.84,0,1,0,0-1.681H48.851ZM19.762,19.851l9.055-5.314,9.055,5.314,9.3,11.4V46.505H41.425V38.1a.851.851,0,0,0-.841-.841h-23.8a.851.851,0,0,0-.841.841v2.729a.84.84,0,0,0,1.681,0V39.6l9.444,5.754L17.628,51.1v-5.8a.84.84,0,1,0-1.681,0v1.2H10.463V31.157ZM30.3,45.35,39.745,39.6V51.1Zm7.289,6.41H19.782l8.9-5.426Zm-8.9-7.394-8.9-5.426H37.59ZM17.657,13.077H2.9V8.8H17.657ZM9.048,25.317H2.9v-4.44h9.8Zm-.266,18.36H2.9V39.239H8.782ZM2.9,45.359H8.782V49.8H2.9ZM6.292,34.848a2.393,2.393,0,0,0,1.855-.876l.634-.772v4.357H2.9v-4.44H3.988a2.42,2.42,0,0,0,2.3,1.73M4.438,30.922a2.434,2.434,0,0,0-.322.515H2.9V27H7.666Zm12.526-15a2.408,2.408,0,0,0-.64.546L14.082,19.2H2.9V14.758H17.657v.759ZM9.187,1.681h2.189A6.293,6.293,0,0,1,17.6,7.122H2.96A6.292,6.292,0,0,1,9.187,1.681M2.9,51.479H8.782v4.273H2.9Zm7.558,4.273V48.186h5.484V52.6a.851.851,0,0,0,.843.841H40.582a.851.851,0,0,0,.843-.841V48.186H47.17v7.566Z" fill="#060606"/>
          <path id="Trazado_1031131" data-name="Trazado 1031131" d="M159.169,153.467h8.591a.841.841,0,0,0,.841-.841V140.969a.84.84,0,0,0-.841-.84h-8.591a.84.84,0,0,0-.841.84v11.657a.841.841,0,0,0,.841.841m7.751-5.543h-6.91v-2.252h6.91Zm-6.91,1.681h6.91v2.182h-6.91Zm6.91-5.614h-6.91V141.81h6.91Z" transform="translate(-134.648 -119.171)" fill="#060606"/>
        </g>
      </g>
    </g>
  </g>
</svg>
