<svg xmlns="http://www.w3.org/2000/svg" xmlns:xlink="http://www.w3.org/1999/xlink" width="122.299" height="122.299" viewBox="0 0 122.299 122.299">
  <defs>
    <filter id="Trazado_896985" x="0" y="0" width="122.299" height="122.299" filterUnits="userSpaceOnUse">
      <feOffset dy="3" input="SourceAlpha"/>
      <feGaussianBlur stdDeviation="3" result="blur"/>
      <feFlood flood-opacity="0.161"/>
      <feComposite operator="in" in2="blur"/>
      <feComposite in="SourceGraphic"/>
    </filter>
    <clipPath id="clip-path">
      <rect id="Rectángulo_415499" data-name="Rectángulo 415499" width="58" height="58" fill="none"/>
    </clipPath>
  </defs>
  <g id="Grupo_1175662" data-name="Grupo 1175662" transform="translate(-738.851 -7851.567)">
    <g id="Grupo_1175660" data-name="Grupo 1175660" transform="translate(747.851 7857.567)">
      <g id="Grupo_1175188" data-name="Grupo 1175188" transform="translate(0 0)">
        <g id="Grupo_1098742" data-name="Grupo 1098742" transform="translate(0 0)">
          <g transform="matrix(1, 0, 0, 1, -9, -6)" filter="url(#Trazado_896985)">
            <g id="Trazado_896985-2" data-name="Trazado 896985" transform="translate(9 6)" fill="#84a065" opacity="0.859">
              <path d="M 52.14946365356445 102.7990875244141 C 45.31116485595703 102.7990875244141 38.67822265625 101.4601287841797 32.43486404418945 98.81941223144531 C 26.40374946594238 96.26847076416016 20.98693466186523 92.61624145507812 16.33489227294922 87.96420288085938 C 11.68284893035889 83.31215667724609 8.030620574951172 77.89533996582031 5.479678153991699 71.86421203613281 C 2.838963747024536 65.62085723876953 1.500006556510925 58.9879150390625 1.500006556510925 52.14961624145508 C 1.500006556510925 45.31117248535156 2.838963747024536 38.67823028564453 5.479678153991699 32.43487167358398 C 8.030620574951172 26.40374374389648 11.68284893035889 20.98692893981934 16.33489227294922 16.33488655090332 C 20.98693466186523 11.6828441619873 26.40374946594238 8.030614852905273 32.43486404418945 5.479672431945801 C 38.67822265625 2.838958024978638 45.31116485595703 1.500000953674316 52.14946365356445 1.500000953674316 C 58.98776245117188 1.500000953674316 65.62070465087891 2.838958024978638 71.86406707763672 5.479672431945801 C 77.89519500732422 8.030614852905273 83.31200408935547 11.6828441619873 87.96405029296875 16.33488655090332 C 92.6160888671875 20.98692893981934 96.26831817626953 26.40374374389648 98.81926727294922 32.43487167358398 C 101.4599761962891 38.67823028564453 102.7989349365234 45.31117248535156 102.7989349365234 52.14947128295898 C 102.7989349365234 58.9879150390625 101.4599761962891 65.62085723876953 98.81926727294922 71.86421203613281 C 96.26831817626953 77.89533996582031 92.6160888671875 83.31215667724609 87.96405029296875 87.96420288085938 C 83.31200408935547 92.61624145507812 77.89519500732422 96.26847076416016 71.86406707763672 98.81941223144531 C 65.62070465087891 101.4601287841797 58.98776245117188 102.7990875244141 52.14946365356445 102.7990875244141 Z" stroke="none"/>
              <path d="M 52.14946365356445 2.999992370605469 C 45.51301193237305 2.999992370605469 39.07666015625 4.299079895019531 33.01919555664062 6.861175537109375 C 27.16686248779297 9.336494445800781 21.91031646728516 12.88077545166016 17.39554595947266 17.39554595947266 C 12.88078308105469 21.91030883789062 9.336494445800781 27.16687774658203 6.861183166503906 33.01919555664062 C 4.299079895019531 39.07666015625 3 45.51301193237305 3 52.14960861206055 C 3 58.78607559204102 4.299079895019531 65.22242736816406 6.861183166503906 71.27989196777344 C 9.336494445800781 77.13220977783203 12.88078308105469 82.38877868652344 17.39554595947266 86.90354156494141 C 21.91031646728516 91.41831207275391 27.16686248779297 94.96259307861328 33.01919555664062 97.43791198730469 C 39.07666015625 100.0000076293945 45.51301193237305 101.2990951538086 52.14946365356445 101.2990951538086 C 58.78591537475586 101.2990951538086 65.22225952148438 100.0000076293945 71.27973175048828 97.43791198730469 C 77.13206481933594 94.96259307861328 82.38861083984375 91.41831207275391 86.90338134765625 86.90354156494141 C 91.41814422607422 82.38877868652344 94.96243286132812 77.13220977783203 97.437744140625 71.27989196777344 C 99.99984741210938 65.22242736816406 101.2989273071289 58.78607559204102 101.2989273071289 52.14947891235352 C 101.2989273071289 45.51301193237305 99.99984741210938 39.07666015625 97.437744140625 33.01919555664062 C 94.96243286132812 27.16687774658203 91.41814422607422 21.91030883789062 86.90338134765625 17.39554595947266 C 82.38861083984375 12.88077545166016 77.13206481933594 9.336494445800781 71.27973175048828 6.861175537109375 C 65.22225952148438 4.299079895019531 58.78591537475586 2.999992370605469 52.14946365356445 2.999992370605469 M 52.14946365356445 -7.62939453125e-06 C 80.95081329345703 -7.62939453125e-06 104.2989273071289 23.34811401367188 104.2989273071289 52.14947891235352 L 104.2989273071289 52.14960861206055 C 104.2989273071289 80.95097351074219 80.95081329345703 104.2990951538086 52.14946365356445 104.2990951538086 C 23.34811401367188 104.2990951538086 0 80.95097351074219 0 52.14960861206055 L 0 52.14947891235352 C 0 23.34811401367188 23.34811401367188 -7.62939453125e-06 52.14946365356445 -7.62939453125e-06 Z" stroke="none" fill="#fff"/>
            </g>
          </g>
          <g id="Rectángulo_400907" data-name="Rectángulo 400907" transform="translate(0 0)" fill="none" stroke="#fff" stroke-width="3">
            <rect width="104.299" height="104.299" rx="52.149" stroke="none"/>
            <rect x="1.5" y="1.5" width="101.299" height="101.299" rx="50.649" fill="none"/>
          </g>
        </g>
      </g>
      <g id="Grupo_1175664" data-name="Grupo 1175664" transform="translate(23.149 23.15)">
        <g id="Grupo_1175589" data-name="Grupo 1175589" clip-path="url(#clip-path)">
          <path id="Trazado_1030858" data-name="Trazado 1030858" d="M0,58V0M16.281,56.059h1.837V50.726c.617.688,1.172,1.3,1.721,1.917a4.622,4.622,0,0,0,3.638,1.627c.848-.006,1.7-.018,2.543.013a.7.7,0,0,1,.491.3,2.782,2.782,0,0,0,2.543,1.49c.81,0,1.62,0,2.43,0q7.263,0,14.526,0A2.7,2.7,0,0,0,48.8,53.789c.069-.442,0-.906.048-1.353a4.4,4.4,0,0,1,.286-1.29c1.632-3.589,3.294-7.165,4.94-10.748.425-.924.044-1.5-.979-1.5-4.352,0-8.7,0-13.056-.008a1.142,1.142,0,0,0-1.176.758C37.948,41.68,37,43.705,36.059,45.73c-.083.178-.2.438-.346.475a21,21,0,0,1-3.62.793c-1.95.13-3.916.026-5.875.042a.857.857,0,0,1-.757-.356c-1.813-2.239-3.652-4.457-5.462-6.7a7.415,7.415,0,0,0-4.286-2.736c-.44-.1-.891-.142-1.359-.214l1.224-.875,2.493.019c.014.293.027.586.042.9H53.072a2.737,2.737,0,0,0,3.006-3.016q0-14.61,0-29.219a2.742,2.742,0,0,0-3.039-3.039q-20.94,0-41.879,0a2.738,2.738,0,0,0-3.019,3q0,8.168,0,16.333v.583h.9V23.5c-.056.006-.112.015-.168.017a5.149,5.149,0,0,0-4.4,8c.557.936,1.123,1.867,1.671,2.808a1.272,1.272,0,0,1,.18.57c.021.695.029,1.393-.007,2.088a.632.632,0,0,1-.32.458A6.373,6.373,0,0,0,1.81,43.66q0,5.928,0,11.856v.543H16.281Z" fill="#fefefe"/>
          <path id="Trazado_1030859" data-name="Trazado 1030859" d="M18.071,36.181l-2.493-.02a3.61,3.61,0,0,0,.713-2.372c-.037-1.523-.018-3.047,0-4.571a.714.714,0,0,1,.254-.526,2.729,2.729,0,0,0-1.409-5.176q-3.048-.008-6.094-.018V21.726l.906-.045v-.66q0-8.026,0-16.053c0-1.113.238-1.35,1.36-1.35h41.6c1.118,0,1.357.239,1.357,1.355V33.914c0,1.12-.239,1.361-1.352,1.361H18.071Zm33.44-2.739v-1.8H49.747v-.667q0-9.464,0-18.928c0-.893-.3-1.193-1.176-1.194q-2.43,0-4.859,0c-.914,0-1.2.292-1.2,1.226,0,.785,0,1.569,0,2.391-1.434,0-2.805,0-4.176,0-.97,0-1.249.276-1.251,1.233,0,1.085,0,2.171,0,3.289H32.959c-1.043,0-1.3.258-1.3,1.3v3.228c-1.48,0-2.89,0-4.3,0-.811,0-1.122.315-1.126,1.129s0,1.642,0,2.488c-1.484,0-2.9,0-4.305,0-.808,0-1.114.318-1.121,1.135,0,.226,0,.452,0,.678v2.739H19.021v1.754ZM47.918,7.236c-1.739,0-3.431-.007-5.123.006a.575.575,0,0,1-.607-.351,2.674,2.674,0,0,0-3.26-1.323A2.767,2.767,0,0,0,37.106,8.6a.686.686,0,0,1-.209.54q-1.82,1.385-3.683,2.71a.78.78,0,0,1-.6.077,2.734,2.734,0,0,0-3.68,2.672.907.907,0,0,1-.308.632c-1.378,1.048-2.783,2.06-4.169,3.1a.532.532,0,0,1-.647.055,2.634,2.634,0,0,0-3.574,1.15.613.613,0,0,1-.654.369C18.5,19.89,17.41,19.9,16.313,19.9v1.81c1.1,0,2.173.013,3.242-.008a.649.649,0,0,1,.693.4,2.668,2.668,0,0,0,3.232,1.275A2.7,2.7,0,0,0,25.287,20.4a.555.555,0,0,1,.263-.645q2.012-1.457,4-2.947a.509.509,0,0,1,.684-.047,2.7,2.7,0,0,0,4.039-2.948.528.528,0,0,1,.23-.659q1.742-1.253,3.454-2.545a.532.532,0,0,1,.647-.051,2.545,2.545,0,0,0,3.347-.832A1.371,1.371,0,0,1,43.4,9.036c1.336.029,2.674.01,4.011.008.163,0,.327-.013.509-.021Zm1.851,1.78h1.758V7.264H49.769ZM12.693,21.678h1.749V19.92H12.693Zm-.928-15.35a.9.9,0,1,0-.907-.88.91.91,0,0,0,.907.88m3.608-.877a.9.9,0,1,0-.912.877.911.911,0,0,0,.912-.877m2.713,0a.9.9,0,1,0-.915.874.911.911,0,0,0,.915-.874" fill="#5489fe"/>
          <path id="Trazado_1030860" data-name="Trazado 1030860" d="M9.044,23.5q3.047.009,6.094.018a2.73,2.73,0,0,1,1.409,5.176.712.712,0,0,0-.254.526c-.02,1.523-.039,3.048,0,4.571a3.61,3.61,0,0,1-.713,2.372l-1.224.875c.468.073.919.119,1.359.214A7.415,7.415,0,0,1,20,39.986c1.81,2.241,3.649,4.459,5.462,6.7a.857.857,0,0,0,.757.357c1.959-.016,3.925.088,5.875-.043a21,21,0,0,0,3.62-.793c.147-.037.263-.3.346-.475.944-2.025,1.889-4.05,2.808-6.086a1.143,1.143,0,0,1,1.176-.759c4.352.014,8.7.006,13.056.009,1.023,0,1.4.58.979,1.5-1.646,3.582-3.308,7.158-4.94,10.748a4.352,4.352,0,0,0-.286,1.29c-.053.446.021.91-.049,1.352a2.7,2.7,0,0,1-2.793,2.287q-7.263.008-14.526,0c-.81,0-1.62,0-2.43,0a2.784,2.784,0,0,1-2.543-1.49.7.7,0,0,0-.491-.305c-.847-.031-1.695-.019-2.543-.013a4.618,4.618,0,0,1-3.638-1.626c-.549-.618-1.1-1.23-1.722-1.917v5.332H16.281c0-2.3.011-4.6-.015-6.894a1.412,1.412,0,0,0-.327-.834c-.983-1.14-2-2.251-3.042-3.409l1.342-1.2c.147.158.25.267.35.378q3.289,3.654,6.576,7.311a3,3,0,0,0,2.391,1.052c1.883-.019,3.767-.005,5.651-.005h.607V48.842c-1.407,0-2.779-.017-4.151.009a1.443,1.443,0,0,1-1.255-.6c-1.978-2.445-3.977-4.873-5.972-7.305A5.379,5.379,0,0,0,14.1,38.9c-1.9-.007-3.806,0-5.708,0a4.529,4.529,0,0,0-4.777,4.788q0,6.189,0,12.377H1.809v-.543q0-5.928,0-11.856a6.376,6.376,0,0,1,4.186-6.218.631.631,0,0,0,.321-.458c.036-.695.028-1.392.007-2.088a1.276,1.276,0,0,0-.18-.57c-.548-.941-1.114-1.872-1.671-2.807a5.149,5.149,0,0,1,4.4-8c.056,0,.112-.011.168-.017m42.87,17.277c-.076-.038-.106-.066-.136-.066q-5.561-.006-11.123,0a.5.5,0,0,0-.378.227c-.908,1.934-1.8,3.876-2.714,5.863.874.527,1.706,1.07,2.576,1.542A2.262,2.262,0,0,1,41.6,50.651c1.8,0,3.55-.013,5.3.01a.619.619,0,0,0,.665-.437c1.033-2.273,2.082-4.538,3.126-6.806q.609-1.322,1.22-2.643M9.9,33.436a11.753,11.753,0,0,1,.2-3.043,12.319,12.319,0,0,1,1.648-2.61c.01-.016.022-.03.031-.047a1.131,1.131,0,0,1,1.118-.608c.77.024,1.542.011,2.314,0,.666-.006,1.067-.35,1.068-.9s-.4-.9-1.063-.9c-2.163,0-4.327-.022-6.491.005A3.321,3.321,0,0,0,5.8,30.174c.3.586.653,1.142.995,1.7.321.527.548,1.255,1.022,1.5a4.507,4.507,0,0,0,1.885.081,1.763,1.763,0,0,0,.2-.027M31.682,52.6a6.564,6.564,0,0,0,1.027-.483c.918-.655,1.818-1.335,2.71-2.025a1.3,1.3,0,0,1,1.2-.274c.8.2,1.618.335,2.429.491.235.045.474.069.711.1a.4.4,0,0,0-.179-.282c-1.077-.649-2.149-1.309-3.243-1.929a1.135,1.135,0,0,0-.733-.069c-1.295.272-2.583.576-3.924.88ZM14.468,29.025a1.456,1.456,0,0,0-1.989.907c-.116.252-.336.457-.455.709a2.281,2.281,0,0,0-.254.827c-.035.731-.022,1.466,0,2.2a.847.847,0,0,0,.177.494,3.449,3.449,0,0,0,.841.822,1.335,1.335,0,0,0,1.018.175,1.223,1.223,0,0,0,.636-.87c.06-1.761.029-3.525.029-5.262M47.021,52.508H38.9c0,.3-.012.561,0,.822a.88.88,0,0,0,.928.922q3.129.02,6.257,0a.881.881,0,0,0,.927-.925c.014-.26,0-.522,0-.819M8.154,37.031h4.28c-.535-.469-1.09-.961-1.651-1.445-.136-.117-.291-.289-.444-.3-.723-.031-1.449-.014-2.185-.014ZM32.772,54.212h4.382c-.037-.611-.071-1.165-.106-1.752a6.215,6.215,0,0,1-.7,0,2.351,2.351,0,0,0-1.9.606,16.4,16.4,0,0,1-1.672,1.15" fill="#020101"/>
          <path id="Trazado_1030861" data-name="Trazado 1030861" d="M3.618,56.059q0-6.189,0-12.377A4.53,4.53,0,0,1,8.4,38.893c1.9,0,3.805-.005,5.708,0a5.38,5.38,0,0,1,4.332,2.056c1.995,2.432,3.994,4.86,5.972,7.305a1.442,1.442,0,0,0,1.255.6c1.372-.026,2.744-.009,4.151-.009v3.617h-.607c-1.884,0-3.768-.013-5.652.006a2.994,2.994,0,0,1-2.391-1.053q-3.276-3.664-6.575-7.31c-.1-.111-.2-.22-.35-.379l-1.342,1.2c1.041,1.159,2.059,2.269,3.042,3.41a1.409,1.409,0,0,1,.327.833c.026,2.3.015,4.6.015,6.895H3.618" fill="#feb301"/>
          <path id="Trazado_1030862" data-name="Trazado 1030862" d="M18.071,36.181v-.906H52.917c1.112,0,1.352-.241,1.352-1.361V4.973c0-1.117-.24-1.355-1.357-1.355H11.31c-1.122,0-1.361.236-1.361,1.351V21.681l-.906.046h-.9v-.583q0-8.166,0-16.333a2.737,2.737,0,0,1,3.019-3q20.938,0,41.879,0a2.741,2.741,0,0,1,3.038,3.038q0,14.61,0,29.22a2.737,2.737,0,0,1-3.005,3.016H18.112c-.014-.317-.028-.61-.041-.9"/>
          <path id="Trazado_1030863" data-name="Trazado 1030863" d="M51.51,33.442H19.021V31.688H20.8V28.949c0-.226,0-.452,0-.678.008-.817.314-1.133,1.122-1.135,1.41,0,2.821,0,4.305,0,0-.846,0-1.667,0-2.488s.315-1.127,1.126-1.129c1.41,0,2.82,0,4.3,0,0-1.1,0-2.162,0-3.228,0-1.037.259-1.294,1.3-1.3h4.125c0-1.119,0-2.2,0-3.289,0-.957.28-1.232,1.251-1.233,1.371,0,2.742,0,4.176,0,0-.822,0-1.606,0-2.391,0-.934.286-1.226,1.2-1.227q2.429,0,4.859,0c.88,0,1.176.3,1.176,1.194q0,9.464,0,18.928v.667H51.51ZM47.9,12.7H44.353V31.642H47.9Zm-5.425,3.616H38.924V31.639h3.555Zm-5.414,4.523H33.5V31.623h3.567ZM28.075,31.62h3.546V25.343H28.075Zm-5.425-.006H26.2V28.97H22.65Z"/>
          <path id="Trazado_1030864" data-name="Trazado 1030864" d="M47.918,7.235V9.023c-.182.008-.346.021-.509.021-1.337,0-2.675.021-4.011-.008a1.372,1.372,0,0,0-1.447.691,2.544,2.544,0,0,1-3.347.833.531.531,0,0,0-.648.051Q36.243,11.9,34.5,13.156a.528.528,0,0,0-.229.658,2.7,2.7,0,0,1-4.039,2.949.508.508,0,0,0-.684.047q-1.986,1.491-4,2.947a.554.554,0,0,0-.263.644,2.7,2.7,0,0,1-1.807,2.974A2.667,2.667,0,0,1,20.248,22.1a.648.648,0,0,0-.693-.4c-1.069.021-2.14.008-3.242.008V19.9c1.1,0,2.183-.009,3.269.006a.612.612,0,0,0,.654-.37,2.634,2.634,0,0,1,3.574-1.149.531.531,0,0,0,.647-.056c1.386-1.037,2.791-2.049,4.169-3.1a.9.9,0,0,0,.307-.632,2.735,2.735,0,0,1,3.681-2.673.776.776,0,0,0,.6-.076q1.863-1.326,3.683-2.71a.686.686,0,0,0,.209-.54,2.766,2.766,0,0,1,1.822-3.033,2.672,2.672,0,0,1,3.26,1.323.575.575,0,0,0,.607.351c1.692-.013,3.384-.007,5.123-.007m-8.076,0a.907.907,0,1,0,.861.936.911.911,0,0,0-.861-.936m-7.279,7.22a.907.907,0,1,0-.874.924.908.908,0,0,0,.874-.924m-9.045,6.393a.907.907,0,1,0-.936.862.911.911,0,0,0,.936-.862" fill="#020101"/>
          <rect id="Rectángulo_415492" data-name="Rectángulo 415492" width="1.758" height="1.752" transform="translate(49.769 7.265)"/>
          <rect id="Rectángulo_415493" data-name="Rectángulo 415493" width="1.749" height="1.758" transform="translate(12.693 19.919)"/>
          <path id="Trazado_1030865" data-name="Trazado 1030865" d="M11.765,6.328a.9.9,0,1,1,.894-.895.909.909,0,0,1-.894.895" fill="#020101"/>
          <path id="Trazado_1030866" data-name="Trazado 1030866" d="M15.372,5.451a.9.9,0,1,1-.863-.925.911.911,0,0,1,.863.925" fill="#020101"/>
          <path id="Trazado_1030867" data-name="Trazado 1030867" d="M18.086,5.454a.9.9,0,1,1-.86-.928.911.911,0,0,1,.86.928" fill="#020101"/>
          <path id="Trazado_1030868" data-name="Trazado 1030868" d="M51.914,40.775q-.611,1.321-1.22,2.643c-1.044,2.268-2.093,4.533-3.126,6.806a.618.618,0,0,1-.665.437c-1.748-.023-3.5-.01-5.3-.01a2.261,2.261,0,0,0-1.466-2.307c-.87-.473-1.7-1.015-2.576-1.542.916-1.987,1.806-3.929,2.714-5.863a.5.5,0,0,1,.378-.227q5.562-.017,11.123,0c.03,0,.06.028.136.066" fill="#8adee6"/>
          <path id="Trazado_1030869" data-name="Trazado 1030869" d="M9.9,33.436a1.75,1.75,0,0,1-.2.027,4.511,4.511,0,0,1-1.886-.081c-.473-.25-.7-.978-1.021-1.5-.343-.561-.7-1.117-1-1.7a3.321,3.321,0,0,1,2.922-4.841c2.163-.027,4.327-.009,6.491-.005.663,0,1.065.353,1.063.905s-.4.894-1.069.9c-.771.006-1.543.019-2.314,0a1.13,1.13,0,0,0-1.117.608.487.487,0,0,1-.032.047,12.274,12.274,0,0,0-1.647,2.61,11.708,11.708,0,0,0-.2,3.043" fill="#c27120"/>
          <path id="Trazado_1030870" data-name="Trazado 1030870" d="M31.682,52.6V49.006c1.341-.305,2.629-.608,3.924-.88a1.135,1.135,0,0,1,.733.069c1.094.62,2.166,1.28,3.243,1.929a.4.4,0,0,1,.179.281c-.237-.033-.476-.056-.711-.1-.811-.156-1.627-.3-2.429-.491a1.306,1.306,0,0,0-1.2.273c-.892.69-1.792,1.371-2.71,2.026a6.751,6.751,0,0,1-1.027.483" fill="#fdccb4"/>
          <path id="Trazado_1030871" data-name="Trazado 1030871" d="M14.468,29.025c0,1.737.031,3.5-.029,5.262a1.227,1.227,0,0,1-.637.87,1.332,1.332,0,0,1-1.017-.174,3.471,3.471,0,0,1-.841-.823.845.845,0,0,1-.178-.493c-.019-.733-.031-1.467,0-2.2a2.279,2.279,0,0,1,.253-.827c.119-.252.34-.456.455-.709a1.458,1.458,0,0,1,1.99-.907" fill="#fdccb4"/>
          <path id="Trazado_1030872" data-name="Trazado 1030872" d="M47.021,52.508c0,.3.012.559,0,.82a.881.881,0,0,1-.927.924q-3.127.02-6.257,0a.88.88,0,0,1-.928-.922c-.014-.261,0-.523,0-.822Z" fill="#5489fe"/>
          <path id="Trazado_1030873" data-name="Trazado 1030873" d="M8.154,37.031V35.276c.736,0,1.462-.017,2.185.014.153.006.308.179.444.3.561.484,1.116.976,1.651,1.445Z" fill="#fdccb4"/>
          <path id="Trazado_1030874" data-name="Trazado 1030874" d="M32.772,54.212a16.4,16.4,0,0,0,1.672-1.15,2.351,2.351,0,0,1,1.9-.606,6.215,6.215,0,0,0,.7,0c.035.587.069,1.141.106,1.752Z" fill="#5489fe"/>
          <rect id="Rectángulo_415494" data-name="Rectángulo 415494" width="3.551" height="18.944" transform="translate(44.353 12.698)" fill="#fed773"/>
          <rect id="Rectángulo_415495" data-name="Rectángulo 415495" width="3.555" height="15.325" transform="translate(38.924 16.315)" fill="#fecb4d"/>
          <rect id="Rectángulo_415496" data-name="Rectángulo 415496" width="3.567" height="10.786" transform="translate(33.498 20.837)" fill="#fecb4d"/>
          <rect id="Rectángulo_415497" data-name="Rectángulo 415497" width="3.546" height="6.277" transform="translate(28.075 25.343)" fill="#feb301"/>
          <rect id="Rectángulo_415498" data-name="Rectángulo 415498" width="3.552" height="2.644" transform="translate(22.65 28.97)" fill="#feb301"/>
          <path id="Trazado_1030875" data-name="Trazado 1030875" d="M39.842,7.234a.907.907,0,1,1-.949.848.908.908,0,0,1,.949-.848" fill="#8adee6"/>
          <path id="Trazado_1030876" data-name="Trazado 1030876" d="M32.563,14.454a.906.906,0,1,1-.909-.888.91.91,0,0,1,.909.888" fill="#8adee6"/>
          <path id="Trazado_1030877" data-name="Trazado 1030877" d="M23.518,20.847a.907.907,0,1,1-.847-.949.912.912,0,0,1,.847.949" fill="#8adee6"/>
        </g>
      </g>
    </g>
    <g id="Grupo_1175659" data-name="Grupo 1175659" transform="translate(432.099)">
      <g id="Grupo_1175656" data-name="Grupo 1175656" transform="translate(-540.131 1820.631)">
        <rect id="Rectángulo_400898" data-name="Rectángulo 400898" width="35.406" height="35.406" rx="17.703" transform="translate(855.883 6115.006)" fill="#efdb59"/>
      </g>
      <path id="Trazado_1031549" data-name="Trazado 1031549" d="M5,0H-4.922V-2.148l4.57-4.8Q1.338-8.877,1.338-10.01a2.126,2.126,0,0,0-.4-1.4,1.43,1.43,0,0,0-1.162-.479,1.447,1.447,0,0,0-1.221.64,2.629,2.629,0,0,0-.469,1.6h-3.3a4.67,4.67,0,0,1,.654-2.417A4.588,4.588,0,0,1-2.744-13.8a5.4,5.4,0,0,1,2.6-.625A5.308,5.308,0,0,1,3.4-13.359,3.8,3.8,0,0,1,4.648-10.3a4.439,4.439,0,0,1-.312,1.636A7.173,7.173,0,0,1,3.364-7,24.477,24.477,0,0,1,1.24-4.658L-.6-2.539H5Z" transform="translate(333.051 7961)" fill="#12263f"/>
    </g>
  </g>
</svg>
