<svg xmlns="http://www.w3.org/2000/svg" xmlns:xlink="http://www.w3.org/1999/xlink" width="104.825" height="104.825" viewBox="0 0 104.825 104.825">
  <defs>
    <filter id="Trazado_982547" x="0" y="0" width="104.825" height="104.825" filterUnits="userSpaceOnUse">
      <feOffset dy="3" input="SourceAlpha"/>
      <feGaussianBlur stdDeviation="3" result="blur"/>
      <feFlood flood-opacity="0.161"/>
      <feComposite operator="in" in2="blur"/>
      <feComposite in="SourceGraphic"/>
    </filter>
    <clipPath id="clip-path">
      <rect id="Rectángulo_415613" data-name="Rectángulo 415613" width="43.906" height="45.84" fill="none"/>
    </clipPath>
  </defs>
  <g id="Grupo_1175573" data-name="Grupo 1175573" transform="translate(-586.25 -914.212)">
    <g id="Grupo_1175745" data-name="Grupo 1175745">
      <g id="Grupo_1175060" data-name="Grupo 1175060" transform="translate(595.25 920.212)">
        <g id="Grupo_1174859" data-name="Grupo 1174859" transform="translate(0)">
          <g id="Grupo_1167343" data-name="Grupo 1167343" transform="translate(0)">
            <g id="Grupo_1166777" data-name="Grupo 1166777">
              <g id="Grupo_1164305" data-name="Grupo 1164305">
                <g id="Grupo_1163948" data-name="Grupo 1163948">
                  <g id="Grupo_1158168" data-name="Grupo 1158168">
                    <g id="Grupo_1152576" data-name="Grupo 1152576">
                      <g id="Grupo_1148633" data-name="Grupo 1148633">
                        <g id="Grupo_1148525" data-name="Grupo 1148525">
                          <g transform="matrix(1, 0, 0, 1, -9, -6)" filter="url(#Trazado_982547)">
                            <g id="Trazado_982547-2" data-name="Trazado 982547" transform="translate(9 6)" fill="#efdb59">
                              <path d="M 43.41258239746094 85.32517242431641 C 37.75375747680664 85.32517242431641 32.26500701904297 84.21721649169922 27.09878158569336 82.03209686279297 C 22.1080322265625 79.92118072509766 17.62558174133301 76.89891815185547 13.77591991424561 73.04925537109375 C 9.926257133483887 69.19959259033203 6.903995037078857 64.71714782714844 4.793095111846924 59.72639465332031 C 2.607957363128662 54.5601692199707 1.500007390975952 49.07140731811523 1.500007390975952 43.41258239746094 C 1.500007390975952 37.75375747680664 2.607957363128662 32.26500701904297 4.793095111846924 27.09878158569336 C 6.903995037078857 22.1080322265625 9.926257133483887 17.62558174133301 13.77591991424561 13.77591991424561 C 17.62558174133301 9.926257133483887 22.1080322265625 6.903995037078857 27.09878158569336 4.793095111846924 C 32.26500701904297 2.607957363128662 37.75375747680664 1.500007390975952 43.41258239746094 1.500007390975952 C 49.07140731811523 1.500007390975952 54.5601692199707 2.607957363128662 59.72639465332031 4.793095111846924 C 64.71714782714844 6.903995037078857 69.19959259033203 9.926257133483887 73.04925537109375 13.77591991424561 C 76.89891815185547 17.62558174133301 79.92118072509766 22.1080322265625 82.03209686279297 27.09878158569336 C 84.21721649169922 32.26500701904297 85.32517242431641 37.75375747680664 85.32517242431641 43.41258239746094 C 85.32517242431641 49.07140731811523 84.21721649169922 54.5601692199707 82.03209686279297 59.72639465332031 C 79.92118072509766 64.71714782714844 76.89891815185547 69.19959259033203 73.04925537109375 73.04925537109375 C 69.19959259033203 76.89891815185547 64.71714782714844 79.92118072509766 59.72639465332031 82.03209686279297 C 54.5601692199707 84.21721649169922 49.07140731811523 85.32517242431641 43.41258239746094 85.32517242431641 Z" stroke="none"/>
                              <path d="M 43.41258239746094 3 C 37.95559692382812 3 32.6634407043457 4.068084716796875 27.68310928344727 6.174583435058594 C 22.87116622924805 8.209869384765625 18.54896545410156 11.12418365478516 14.83657073974609 14.83657073974609 C 11.12418365478516 18.54896545410156 8.209869384765625 22.87116622924805 6.174583435058594 27.68310928344727 C 4.068084716796875 32.6634407043457 3 37.95559692382812 3 43.41258239746094 C 3 48.86956787109375 4.068084716796875 54.16172409057617 6.174583435058594 59.14206695556641 C 8.209869384765625 63.95401000976562 11.12418365478516 68.27621459960938 14.83657073974609 71.98859405517578 C 18.54896545410156 75.70098114013672 22.87115478515625 78.61529541015625 27.68310928344727 80.65058135986328 C 32.6634407043457 82.757080078125 37.95559692382812 83.82516479492188 43.41258239746094 83.82516479492188 C 48.86956787109375 83.82516479492188 54.16173934936523 82.757080078125 59.14206695556641 80.65058135986328 C 63.95401000976562 78.61529541015625 68.27621459960938 75.70098114013672 71.98859405517578 71.98859405517578 C 75.70098114013672 68.27621459960938 78.61529541015625 63.95401000976562 80.65058135986328 59.14206695556641 C 82.757080078125 54.16173934936523 83.82516479492188 48.86956787109375 83.82516479492188 43.41258239746094 C 83.82516479492188 37.95559692382812 82.757080078125 32.6634407043457 80.65058135986328 27.68310928344727 C 78.61529541015625 22.87115478515625 75.70098114013672 18.54896545410156 71.98859405517578 14.83657073974609 C 68.27621459960938 11.12418365478516 63.95401000976562 8.209869384765625 59.14206695556641 6.174583435058594 C 54.16172409057617 4.068084716796875 48.86956787109375 3 43.41258239746094 3 M 43.41258239746094 0 C 67.38869476318359 0 86.82516479492188 19.43648529052734 86.82516479492188 43.41258239746094 C 86.82516479492188 67.38869476318359 67.38869476318359 86.82516479492188 43.41258239746094 86.82516479492188 C 19.43648529052734 86.82516479492188 0 67.38869476318359 0 43.41258239746094 C 0 19.43648529052734 19.43648529052734 0 43.41258239746094 0 Z" stroke="none" fill="#fbfbf8"/>
                            </g>
                          </g>
                        </g>
                      </g>
                    </g>
                  </g>
                </g>
              </g>
            </g>
          </g>
        </g>
      </g>
      <g id="Grupo_1175744" data-name="Grupo 1175744" transform="translate(617.485 941.102)">
        <g id="Grupo_1175743" data-name="Grupo 1175743" transform="translate(-2 1)" clip-path="url(#clip-path)">
          <path id="Trazado_1031536" data-name="Trazado 1031536" d="M72.809,27.583q0-.472,0-.943c.613-.179.708-.3.709-.955q0-3.765,0-7.53v-.545c.2,0,.349,0,.5,0l5.222.06c1.008.011,1.479-.44,1.475-1.419q-.008-2.587-.021-5.174c0-.161,0-.323,0-.506H105.5c.731,0,.731,0,.731.719V53.1c0,.711,0,.712-.739.712H74.249c-.718,0-.731-.012-.731-.725q0-5.2,0-10.394c0-.669-.111-.811-.71-.939q0-.488,0-.976A15.873,15.873,0,0,0,75.7,40.7a6.574,6.574,0,0,0,5.318-5.876.8.8,0,0,1,.469-.706c.864-.463,1.714-.954,2.561-1.449a1.285,1.285,0,0,0,.525-1.926q-1.054-1.822-2.136-3.628a1.334,1.334,0,0,0-2-.5c-.707.393-1.434.76-2.106,1.207a1.354,1.354,0,0,1-1.648.113,2.146,2.146,0,0,0-.528-.183,7.8,7.8,0,0,0-3.346-.169M89.888,46.714H99.953c.157,0,.352.051.462-.02a1.328,1.328,0,0,0,.541-.536.527.527,0,0,0-.4-.681,1.459,1.459,0,0,0-.46-.06q-10.206,0-20.411,0a1.605,1.605,0,0,0-.462.051.588.588,0,0,0-.449.671.6.6,0,0,0,.58.567c.156.014.313.009.47.009H89.888m-.009-22.853H79.814a4.283,4.283,0,0,0-.47.01.6.6,0,0,0-.572.576.593.593,0,0,0,.458.667,1.827,1.827,0,0,0,.51.044q10.135,0,20.271,0a1.828,1.828,0,0,0,.511-.042.637.637,0,0,0-.108-1.244,3.674,3.674,0,0,0-.47-.01H89.879m-.023,16.175H79.792c-.141,0-.283-.007-.423.007a.64.64,0,0,0-.073,1.269,2.056,2.056,0,0,0,.468.021H99.987a2.009,2.009,0,0,0,.468-.018.611.611,0,0,0,.524-.666.6.6,0,0,0-.588-.606,3.6,3.6,0,0,0-.423-.007H89.856m1.714-5.4q-4.235,0-8.469,0c-.172,0-.389-.045-.506.038-.206.147-.475.37-.487.574s.225.465.418.625c.118.1.36.068.546.068q8.469,0,16.938,0a1.977,1.977,0,0,0,.511-.051.526.526,0,0,0,.441-.655,1.257,1.257,0,0,0-.509-.565c-.119-.082-.335-.034-.507-.034H91.57m1.607-4.1h6.815c.141,0,.319.049.415-.017a1.4,1.4,0,0,0,.546-.532.524.524,0,0,0-.391-.685,1.607,1.607,0,0,0-.507-.058q-6.863,0-13.725,0a1.75,1.75,0,0,0-.421.02.61.61,0,0,0-.518.67.6.6,0,0,0,.593.6,3.666,3.666,0,0,0,.376.005h6.815M89.889,17.664q-3.2,0-6.392,0c-.589,0-.9.224-.894.643s.324.651.9.657h.141q6.251,0,12.5,0a2.036,2.036,0,0,0,.555-.054.582.582,0,0,0,.446-.671.6.6,0,0,0-.58-.565c-.14-.013-.282-.008-.423-.008H89.889" transform="translate(-63.653 -9.266)" fill="#f2f4f6"/>
          <path id="Trazado_1031537" data-name="Trazado 1031537" d="M68.459,32.484c.6.128.71.27.71.939q0,5.2,0,10.394c0,.713.013.725.731.725h31.248c.738,0,.739,0,.739-.712V2.023c0-.718,0-.719-.731-.719H76.347c0,.183,0,.344,0,.506q.011,2.587.021,5.174c0,.979-.467,1.43-1.476,1.419q-2.611-.029-5.222-.06c-.153,0-.305,0-.5,0v.545q0,3.765,0,7.53c0,.653-.1.776-.709.956-.363,0-.49-.262-.581-.535a1.471,1.471,0,0,1-.037-.457c0-2.787,0-5.574-.008-8.361A1.3,1.3,0,0,1,68.26,7Q71.636,3.717,74.982.4a1.3,1.3,0,0,1,1-.4q12.682.013,25.363.007a1.641,1.641,0,0,1,1.87,1.848q0,21.063,0,42.127c0,1.256-.619,1.857-1.909,1.857H69.774c-1.309,0-1.933-.609-1.933-1.89q0-5.266,0-10.532c0-.462.1-.826.623-.933M75.026,2.347l-4.82,4.708h4.82Z" transform="translate(-59.305 0)" fill="#040404"/>
          <path id="Trazado_1031538" data-name="Trazado 1031538" d="M9.155,139.756a7.8,7.8,0,0,1,3.346.169,2.15,2.15,0,0,1,.528.183A1.354,1.354,0,0,0,14.677,140c.672-.446,1.4-.813,2.106-1.207a1.333,1.333,0,0,1,2,.5q1.081,1.807,2.136,3.628a1.285,1.285,0,0,1-.525,1.926c-.847.495-1.7.985-2.561,1.449a.8.8,0,0,0-.469.706,6.574,6.574,0,0,1-5.318,5.876,15.861,15.861,0,0,1-2.888.07c-.553-.2-1.1-.42-1.664-.6a.673.673,0,0,0-.464.082c-.886.487-1.76,1-2.643,1.49a1.346,1.346,0,0,1-2.025-.528q-1.067-1.787-2.116-3.586a1.294,1.294,0,0,1,.546-1.953c.889-.514,1.789-1.009,2.673-1.532a.645.645,0,0,0,.3-.4,6.665,6.665,0,0,1,5.276-6.095.59.59,0,0,0,.122-.068m1.377,12a5.407,5.407,0,1,0-5.454-5.447,5.477,5.477,0,0,0,5.454,5.447m-4.42-.32a6.921,6.921,0,0,1-2.255-3.827l-2.532,1.435,2.254,3.83,2.534-1.439m11.179-6.333,2.537-1.442-2.251-3.826-2.535,1.433a6.9,6.9,0,0,1,2.25,3.835" transform="translate(0 -121.439)" fill="#040303"/>
          <path id="Trazado_1031539" data-name="Trazado 1031539" d="M131.335,294.166H121.27c-.157,0-.314.005-.47-.009a.6.6,0,0,1-.58-.567.588.588,0,0,1,.449-.671,1.61,1.61,0,0,1,.462-.051q10.206,0,20.412,0a1.454,1.454,0,0,1,.46.06.527.527,0,0,1,.4.681,1.326,1.326,0,0,1-.541.536c-.11.072-.305.021-.462.021H131.335" transform="translate(-105.1 -256.718)" fill="#040404"/>
          <path id="Trazado_1031540" data-name="Trazado 1031540" d="M131.329,118.232h10.065a3.675,3.675,0,0,1,.47.01.637.637,0,0,1,.108,1.244,1.833,1.833,0,0,1-.511.042q-10.135,0-20.271,0a1.827,1.827,0,0,1-.51-.044.593.593,0,0,1-.458-.667.6.6,0,0,1,.572-.576,4.279,4.279,0,0,1,.47-.01h10.065" transform="translate(-105.104 -103.638)" fill="#030303"/>
          <path id="Trazado_1031541" data-name="Trazado 1031541" d="M131.314,249.277h10.112a3.624,3.624,0,0,1,.423.007.6.6,0,0,1,.588.606.612.612,0,0,1-.524.666,2.016,2.016,0,0,1-.468.018H121.221a2.053,2.053,0,0,1-.468-.021.64.64,0,0,1,.073-1.269c.14-.014.282-.007.423-.007h10.065" transform="translate(-105.111 -218.507)" fill="#020202"/>
          <path id="Trazado_1031542" data-name="Trazado 1031542" d="M156.248,205.492q4.187,0,8.375,0c.172,0,.387-.048.507.034a1.256,1.256,0,0,1,.509.565.525.525,0,0,1-.44.655,1.979,1.979,0,0,1-.511.051q-8.469,0-16.938,0c-.186,0-.428.03-.546-.068-.193-.16-.429-.42-.418-.625s.281-.427.487-.574c.117-.083.334-.038.506-.038q4.234,0,8.469,0" transform="translate(-128.331 -180.117)" fill="#070707"/>
          <path id="Trazado_1031543" data-name="Trazado 1031543" d="M180.694,163.132h-6.815a3.66,3.66,0,0,1-.376-.006.6.6,0,0,1-.593-.6.609.609,0,0,1,.518-.669,1.751,1.751,0,0,1,.421-.02q6.862,0,13.725,0a1.607,1.607,0,0,1,.507.058.524.524,0,0,1,.391.685,1.4,1.4,0,0,1-.546.532c-.1.066-.274.017-.415.017h-6.815" transform="translate(-151.169 -141.86)" fill="#040404"/>
          <path id="Trazado_1031544" data-name="Trazado 1031544" d="M158.013,68.038h6.251c.141,0,.283,0,.423.008a.6.6,0,0,1,.58.565.582.582,0,0,1-.446.671,2.036,2.036,0,0,1-.555.054q-6.251,0-12.5,0h-.141c-.572-.006-.894-.243-.9-.657s.3-.642.894-.643q3.2,0,6.392,0" transform="translate(-131.777 -59.64)" fill="#040404"/>
          <path id="Trazado_1031545" data-name="Trazado 1031545" d="M91.52,19.019v4.708H86.7l4.82-4.708" transform="translate(-75.8 -16.672)" fill="#dfe2e5"/>
          <path id="Trazado_1031546" data-name="Trazado 1031546" d="M45.85,168.869a5.407,5.407,0,1,1,5.559-5.359,5.445,5.445,0,0,1-5.559,5.359m.956-5.4c.681-.662,1.31-1.263,1.926-1.876a.612.612,0,0,0,.042-.911.639.639,0,0,0-.959-.013c-.257.225-.491.475-.736.714l-1.2,1.176c-.647-.644-1.235-1.242-1.837-1.825-.371-.36-.8-.365-1.055-.015a.659.659,0,0,0,.134.947c.61.591,1.218,1.186,1.886,1.838-.192.156-.36.273-.5.413-.492.475-.986.948-1.46,1.44a.614.614,0,0,0-.011.913.646.646,0,0,0,.926.008c.131-.109.248-.235.37-.355l1.575-1.552c.625.623,1.2,1.207,1.792,1.783.382.375.771.412,1.065.117s.252-.661-.141-1.046c-.587-.576-1.181-1.144-1.812-1.755" transform="translate(-35.317 -138.547)" fill="#f46b80"/>
          <path id="Trazado_1031547" data-name="Trazado 1031547" d="M121.893,154.352a6.9,6.9,0,0,0-2.25-3.835l2.535-1.433,2.251,3.826-2.537,1.442" transform="translate(-104.601 -130.683)" fill="#f9c955"/>
        </g>
      </g>
    </g>
  </g>
</svg>
