<svg xmlns="http://www.w3.org/2000/svg" xmlns:xlink="http://www.w3.org/1999/xlink" width="110.057" height="110.058" viewBox="0 0 110.057 110.058">
  <defs>
    <filter id="Trazado_874925" x="0" y="0" width="110.057" height="110.058" filterUnits="userSpaceOnUse">
      <feOffset dy="3" input="SourceAlpha"/>
      <feGaussianBlur stdDeviation="3" result="blur"/>
      <feFlood flood-opacity="0.161"/>
      <feComposite operator="in" in2="blur"/>
      <feComposite in="SourceGraphic"/>
    </filter>
    <clipPath id="clip-path">
      <rect id="Rectángulo_415533" data-name="Rectángulo 415533" width="59" height="58" transform="translate(0.013 0)" fill="none"/>
    </clipPath>
  </defs>
  <g id="Grupo_1175623" data-name="Grupo 1175623" transform="translate(9 6)">
    <g id="Grupo_1109819" data-name="Grupo 1109819" transform="translate(0 0)">
      <g transform="matrix(1, 0, 0, 1, -9, -6)" filter="url(#Trazado_874925)">
        <g id="Trazado_874925-2" data-name="Trazado 874925" transform="translate(9 6)" fill="#efdb59" opacity="0.859">
          <path d="M 46.02833557128906 90.55719757080078 C 40.01638793945312 90.55719757080078 34.1850700378418 89.38008880615234 28.69636154174805 87.05855560302734 C 23.39413642883301 84.81590270996094 18.63193511962891 81.60504150390625 14.54205513000488 77.51514434814453 C 10.45216178894043 73.42526245117188 7.241295337677002 68.66306304931641 4.998642444610596 63.36083984375 C 2.677109003067017 57.87213134765625 1.500002264976501 52.04081344604492 1.500002264976501 46.02886581420898 C 1.500002264976501 40.01638412475586 2.677109003067017 34.18506622314453 4.998642444610596 28.69635963439941 C 7.241295337677002 23.39413261413574 10.45216178894043 18.63193130493164 14.54205513000488 14.54205226898193 C 18.63193511962891 10.45215892791748 23.39413642883301 7.241291999816895 28.69636154174805 4.99863862991333 C 34.1850700378418 2.67710542678833 40.01638793945312 1.499998807907104 46.02833557128906 1.499998807907104 C 52.040283203125 1.499998807907104 57.87160110473633 2.67710542678833 63.36030960083008 4.99863862991333 C 68.66253662109375 7.241291999816895 73.42473602294922 10.45215892791748 77.51461791992188 14.54205226898193 C 81.60450744628906 18.63193130493164 84.81537628173828 23.39413261413574 87.05802917480469 28.69635963439941 C 89.37956237792969 34.18506622314453 90.55667114257812 40.01638412475586 90.55667114257812 46.0283317565918 C 90.55667114257812 52.04081344604492 89.37956237792969 57.87213134765625 87.05802917480469 63.36083984375 C 84.81537628173828 68.66306304931641 81.60450744628906 73.42526245117188 77.51461791992188 77.51514434814453 C 73.42473602294922 81.60504150390625 68.66253662109375 84.81590270996094 63.36030960083008 87.05855560302734 C 57.87160110473633 89.38008880615234 52.040283203125 90.55719757080078 46.02833557128906 90.55719757080078 Z" stroke="none"/>
          <path d="M 46.02833557128906 3 C 40.21821975708008 3 34.5835075378418 4.137245178222656 29.28069305419922 6.380142211914062 C 24.15726470947266 8.547172546386719 19.55532073974609 11.65008544921875 15.60270690917969 15.60271453857422 C 11.65009307861328 19.55532836914062 8.547164916992188 24.15725708007812 6.380134582519531 29.28068542480469 C 4.137237548828125 34.58349990844727 2.999992370605469 40.21822738647461 2.999992370605469 46.02886962890625 C 2.999992370605469 51.83898544311523 4.137237548828125 57.47369766235352 6.380134582519531 62.77651214599609 C 8.547164916992188 67.89994049072266 11.65009307861328 72.50186920166016 15.60270690917969 76.45449829101562 C 19.55532073974609 80.40711212158203 24.15726470947266 83.51002502441406 29.28069305419922 85.67705535888672 C 34.5835075378418 87.91995239257812 40.21821975708008 89.05719757080078 46.02833557128906 89.05719757080078 C 51.83845138549805 89.05719757080078 57.47316360473633 87.91995239257812 62.77597808837891 85.67705535888672 C 67.89940643310547 83.51002502441406 72.50135040283203 80.40711212158203 76.45396423339844 76.45449829101562 C 80.40657806396484 72.50188446044922 83.50949096679688 67.89994049072266 85.67652130126953 62.77651214599609 C 87.91941833496094 57.47369766235352 89.05666351318359 51.83898544311523 89.05666351318359 46.02834320068359 C 89.05666351318359 40.21822738647461 87.91941833496094 34.58349990844727 85.67652130126953 29.28068542480469 C 83.50949096679688 24.15725708007812 80.40657806396484 19.55532836914062 76.45396423339844 15.60271453857422 C 72.50133514404297 11.65008544921875 67.89940643310547 8.547172546386719 62.77597808837891 6.380142211914062 C 57.47316360473633 4.137245178222656 51.83845138549805 3 46.02833557128906 3 M 46.02833557128906 0 C 71.44908142089844 0 92.05666351318359 20.60758209228516 92.05666351318359 46.02834320068359 L 92.05666351318359 46.02886962890625 C 92.05666351318359 71.44961547851562 71.44908142089844 92.05719757080078 46.02833557128906 92.05719757080078 C 20.60758972167969 92.05719757080078 -7.62939453125e-06 71.44961547851562 -7.62939453125e-06 46.02886962890625 L -7.62939453125e-06 46.02834320068359 C -7.62939453125e-06 20.60758209228516 20.60758972167969 0 46.02833557128906 0 Z" stroke="none" fill="#fff"/>
        </g>
      </g>
      <g id="Trazado_874923" data-name="Trazado 874923" transform="translate(0 0)" fill="none">
        <path d="M46.028,0A46.028,46.028,0,0,1,92.057,46.028h0A46.028,46.028,0,0,1,0,46.029H0A46.028,46.028,0,0,1,46.028,0Z" stroke="none"/>
        <path d="M 46.02833557128906 3 C 40.21821975708008 3 34.5835075378418 4.137245178222656 29.28069305419922 6.380142211914062 C 24.15726470947266 8.547172546386719 19.55532073974609 11.65008544921875 15.60270690917969 15.60271453857422 C 11.65009307861328 19.55532836914062 8.547164916992188 24.15725708007812 6.380134582519531 29.28068542480469 C 4.137237548828125 34.58349990844727 2.999992370605469 40.21822738647461 2.999992370605469 46.02886962890625 C 2.999992370605469 51.83898544311523 4.137237548828125 57.47369766235352 6.380134582519531 62.77651214599609 C 8.547164916992188 67.89994049072266 11.65009307861328 72.50186920166016 15.60270690917969 76.45449829101562 C 19.55532073974609 80.40711212158203 24.15726470947266 83.51002502441406 29.28069305419922 85.67705535888672 C 34.5835075378418 87.91995239257812 40.21821975708008 89.05719757080078 46.02833557128906 89.05719757080078 C 51.83845138549805 89.05719757080078 57.47316360473633 87.91995239257812 62.77597808837891 85.67705535888672 C 67.89940643310547 83.51002502441406 72.50135040283203 80.40711212158203 76.45396423339844 76.45449829101562 C 80.40657806396484 72.50188446044922 83.50949096679688 67.89994049072266 85.67652130126953 62.77651214599609 C 87.91941833496094 57.47369766235352 89.05666351318359 51.83898544311523 89.05666351318359 46.02834320068359 C 89.05666351318359 40.21822738647461 87.91941833496094 34.58349990844727 85.67652130126953 29.28068542480469 C 83.50949096679688 24.15725708007812 80.40657806396484 19.55532836914062 76.45396423339844 15.60271453857422 C 72.50133514404297 11.65008544921875 67.89940643310547 8.547172546386719 62.77597808837891 6.380142211914062 C 57.47316360473633 4.137245178222656 51.83845138549805 3 46.02833557128906 3 M 46.02833557128906 0 C 71.44908142089844 0 92.05666351318359 20.60758209228516 92.05666351318359 46.02834320068359 L 92.05666351318359 46.02886962890625 C 92.05666351318359 71.44961547851562 71.44908142089844 92.05719757080078 46.02833557128906 92.05719757080078 C 20.60758972167969 92.05719757080078 -7.62939453125e-06 71.44961547851562 -7.62939453125e-06 46.02886962890625 L -7.62939453125e-06 46.02834320068359 C -7.62939453125e-06 20.60758209228516 20.60758972167969 0 46.02833557128906 0 Z" stroke="none" fill="#fff"/>
      </g>
    </g>
    <g id="Grupo_1175630" data-name="Grupo 1175630" transform="translate(17.211 16.281)">
      <g id="Grupo_1175625" data-name="Grupo 1175625" transform="translate(-0.224 0.387)">
        <g id="Grupo_1175624" data-name="Grupo 1175624" clip-path="url(#clip-path)">
          <path id="Trazado_1031028" data-name="Trazado 1031028" d="M63.418,132.009c-2.187,2.14-5.96,1.841-5.96,1.841s-.226-3.768,1.961-5.908S65.38,126.1,65.38,126.1s.226,3.768-1.961,5.908" transform="translate(-48.442 -107.106)" fill="#f7c000"/>
          <path id="Trazado_1031029" data-name="Trazado 1031029" d="M7.633,131.935c2.184,2.143,5.958,1.851,5.958,1.851s.233-3.767-1.952-5.911-5.957-1.851-5.957-1.851-.233,3.767,1.951,5.911" transform="translate(-4.589 -107.042)" fill="#fed23a"/>
          <path id="Trazado_1031030" data-name="Trazado 1031030" d="M62.1,83.859c-1.689,1.652-4.6,1.422-4.6,1.422s-.175-2.909,1.514-4.561,4.6-1.422,4.6-1.422.175,2.909-1.513,4.561" transform="translate(-48.477 -67.472)" fill="#fed23a"/>
          <path id="Trazado_1031031" data-name="Trazado 1031031" d="M43.139,47.284c.025-2.361,2.248-4.257,2.248-4.257s2.182,1.933,2.157,4.294-2.248,4.257-2.248,4.257-2.182-1.934-2.156-4.3" transform="translate(-36.32 -36.764)" fill="#fed23a"/>
          <path id="Trazado_1031032" data-name="Trazado 1031032" d="M19.03,83.8c1.686,1.655,4.6,1.429,4.6,1.429s.179-2.909-1.506-4.563-4.6-1.429-4.6-1.429-.179,2.909,1.507,4.563" transform="translate(-14.62 -67.42)" fill="#f7c000"/>
          <path id="Trazado_1031033" data-name="Trazado 1031033" d="M63.376,190.614c-2.188,2.14-5.961,1.842-5.961,1.842s-.226-3.768,1.961-5.908,5.96-1.842,5.96-1.842.226,3.768-1.961,5.907" transform="translate(-48.406 -156.738)" fill="#fed23a"/>
          <path id="Trazado_1031034" data-name="Trazado 1031034" d="M7.59,190.536c2.184,2.143,5.958,1.851,5.958,1.851s.233-3.768-1.952-5.911-5.957-1.851-5.957-1.851-.233,3.768,1.951,5.911" transform="translate(-4.553 -156.67)" fill="#f7c000"/>
          <path id="Trazado_1031035" data-name="Trazado 1031035" d="M197.954,132.009c-2.187,2.14-5.96,1.841-5.96,1.841s-.226-3.768,1.961-5.908,5.961-1.842,5.961-1.842.226,3.768-1.961,5.908" transform="translate(-162.39 -107.106)" fill="#f7c000"/>
          <path id="Trazado_1031036" data-name="Trazado 1031036" d="M142.165,131.935c2.184,2.143,5.957,1.851,5.957,1.851s.233-3.767-1.951-5.911-5.958-1.851-5.958-1.851-.233,3.767,1.952,5.911" transform="translate(-118.533 -107.042)" fill="#fed23a"/>
          <path id="Trazado_1031037" data-name="Trazado 1031037" d="M196.635,83.859c-1.689,1.652-4.6,1.422-4.6,1.422s-.175-2.909,1.513-4.561,4.6-1.422,4.6-1.422.175,2.909-1.514,4.561" transform="translate(-162.425 -67.472)" fill="#fed23a"/>
          <path id="Trazado_1031038" data-name="Trazado 1031038" d="M177.674,47.284c.025-2.361,2.248-4.257,2.248-4.257s2.182,1.933,2.157,4.294-2.248,4.257-2.248,4.257-2.182-1.934-2.156-4.3" transform="translate(-150.267 -36.764)" fill="#fed23a"/>
          <path id="Trazado_1031039" data-name="Trazado 1031039" d="M153.565,83.8c1.686,1.655,4.6,1.429,4.6,1.429s.179-2.909-1.506-4.563-4.6-1.429-4.6-1.429-.179,2.909,1.506,4.563" transform="translate(-128.567 -67.42)" fill="#f7c000"/>
          <path id="Trazado_1031040" data-name="Trazado 1031040" d="M197.911,190.614c-2.188,2.14-5.961,1.842-5.961,1.842s-.226-3.768,1.961-5.908,5.96-1.842,5.96-1.842.226,3.768-1.961,5.907" transform="translate(-162.353 -156.738)" fill="#fed23a"/>
          <path id="Trazado_1031041" data-name="Trazado 1031041" d="M142.125,190.536c2.184,2.143,5.958,1.851,5.958,1.851s.232-3.768-1.952-5.911-5.957-1.851-5.957-1.851-.233,3.768,1.951,5.911" transform="translate(-118.5 -156.67)" fill="#f7c000"/>
          <path id="Trazado_1031042" data-name="Trazado 1031042" d="M332.489,132.009c-2.187,2.14-5.96,1.841-5.96,1.841s-.226-3.768,1.961-5.908,5.961-1.842,5.961-1.842.227,3.768-1.961,5.908" transform="translate(-276.337 -107.106)" fill="#f7c000"/>
          <path id="Trazado_1031043" data-name="Trazado 1031043" d="M276.7,131.935c2.184,2.143,5.957,1.851,5.957,1.851s.233-3.767-1.951-5.911-5.958-1.851-5.958-1.851-.232,3.767,1.952,5.911" transform="translate(-232.481 -107.042)" fill="#fed23a"/>
          <path id="Trazado_1031044" data-name="Trazado 1031044" d="M331.17,83.859c-1.689,1.652-4.6,1.422-4.6,1.422s-.175-2.909,1.513-4.561,4.6-1.422,4.6-1.422.175,2.909-1.514,4.561" transform="translate(-276.373 -67.472)" fill="#fed23a"/>
          <path id="Trazado_1031045" data-name="Trazado 1031045" d="M312.2,47.284c.026-2.361,2.248-4.257,2.248-4.257s2.182,1.933,2.157,4.294-2.248,4.257-2.248,4.257-2.182-1.934-2.157-4.3" transform="translate(-264.211 -36.764)" fill="#fed23a"/>
          <path id="Trazado_1031046" data-name="Trazado 1031046" d="M288.1,83.8c1.686,1.655,4.6,1.429,4.6,1.429s.179-2.909-1.506-4.563-4.6-1.429-4.6-1.429-.179,2.909,1.507,4.563" transform="translate(-242.515 -67.42)" fill="#f7c000"/>
          <path id="Trazado_1031047" data-name="Trazado 1031047" d="M332.447,190.614c-2.188,2.14-5.961,1.842-5.961,1.842s-.227-3.768,1.961-5.908,5.96-1.842,5.96-1.842.227,3.768-1.961,5.907" transform="translate(-276.302 -156.738)" fill="#fed23a"/>
          <path id="Trazado_1031048" data-name="Trazado 1031048" d="M276.66,190.536c2.184,2.143,5.958,1.851,5.958,1.851s.232-3.768-1.952-5.911-5.957-1.851-5.957-1.851-.232,3.768,1.951,5.911" transform="translate(-232.448 -156.67)" fill="#f7c000"/>
          <path id="Trazado_1031049" data-name="Trazado 1031049" d="M66.539,322.781a3.025,3.025,0,0,0-3.026-3.024H55.817a2.889,2.889,0,0,0-3.672-3.923c0-.067.008-.134.008-.2a2.889,2.889,0,0,0-5.777-.013,2.89,2.89,0,0,0-3.64,4.138H35.194a4.256,4.256,0,1,0-8.288-1.817,2.693,2.693,0,0,0-5.08,1.249,2.733,2.733,0,0,0,.06.568H14.24a3.025,3.025,0,0,0-3.026,3.024" transform="translate(-9.28 -265.182)" fill="#8f5a46"/>
          <path id="Trazado_1031050" data-name="Trazado 1031050" d="M245.455,315.633c0,.068,0,.135-.008.2a2.89,2.89,0,0,1,3.672,3.923h4.591a2.889,2.889,0,0,0-3.672-3.923c0-.067.008-.134.008-.2a2.888,2.888,0,0,0-5.184-1.754,2.876,2.876,0,0,1,.593,1.754" transform="translate(-207.174 -265.182)" fill="#7d4f3d"/>
          <path id="Trazado_1031051" data-name="Trazado 1031051" d="M128.264,326.946a4.254,4.254,0,0,1-.183,1.235h4.591a4.255,4.255,0,0,0-6.369-4.819,4.255,4.255,0,0,1,1.96,3.585" transform="translate(-106.759 -273.605)" fill="#7d4f3d"/>
        </g>
      </g>
      <g id="Grupo_1175627" data-name="Grupo 1175627" transform="translate(-0.224 0.387)">
        <g id="Grupo_1175626" data-name="Grupo 1175626" transform="translate(0)" clip-path="url(#clip-path)">
          <path id="Trazado_1031052" data-name="Trazado 1031052" d="M327.559,358.562h-4.591a3.025,3.025,0,0,1,3.026,3.024h4.591a3.025,3.025,0,0,0-3.026-3.024" transform="translate(-273.327 -303.986)" fill="#7d4f3d"/>
          <path id="Trazado_1031053" data-name="Trazado 1031053" d="M56.09,34.187a.861.861,0,0,0,1.2-.222A10.1,10.1,0,0,0,58.746,28.3a.861.861,0,0,0-.791-.807c-.17-.013-4.191-.3-6.63,2.084a5.922,5.922,0,0,0-.5.559V28a8.733,8.733,0,0,0,5.708-2.1h0c2.441-2.387,2.228-6.405,2.218-6.575a.861.861,0,0,0-.791-.807c-.17-.014-4.191-.3-6.63,2.084a5.92,5.92,0,0,0-.5.559V19.05a6.821,6.821,0,0,0,4.348-1.665c1.838-1.8,1.792-4.735,1.774-5.175h0V4.556a.861.861,0,0,0-1.722,0V11.35a8.489,8.489,0,0,0-2.275.429,4.822,4.822,0,0,0,.083-.829,7.114,7.114,0,0,0-2.155-4.666V.9a.861.861,0,0,0-1.722,0V6.272a7.143,7.143,0,0,0-2.249,4.622,4.88,4.88,0,0,0,.074.878,8.5,8.5,0,0,0-2.266-.43V4.556a.861.861,0,0,0-1.722,0v7.6c-.013.219-.152,3.341,1.763,5.221a6.824,6.824,0,0,0,4.346,1.672v2.112a5.911,5.911,0,0,0-.5-.559c-2.436-2.39-6.457-2.108-6.627-2.1a.861.861,0,0,0-.793.806c-.01.17-.229,4.187,2.208,6.579A8.733,8.733,0,0,0,49.1,28v2.138a6,6,0,0,0-.5-.56c-2.435-2.39-6.457-2.108-6.627-2.1a.861.861,0,0,0-.793.806c-.011.17-.229,4.187,2.208,6.579a8.728,8.728,0,0,0,5.707,2.1L49.086,54.1H47.437a3.79,3.79,0,0,0-4.019-4.114,3.749,3.749,0,0,0-7.239-.241A3.79,3.79,0,0,0,32.014,54.1H30.221l.011-17.128a8.732,8.732,0,0,0,5.709-2.1h0c2.44-2.387,2.228-6.405,2.218-6.575a.861.861,0,0,0-.791-.807c-.17-.014-4.191-.3-6.63,2.084a5.923,5.923,0,0,0-.5.559V28a8.731,8.731,0,0,0,5.709-2.1c2.441-2.388,2.228-6.406,2.218-6.575a.861.861,0,0,0-.791-.807c-.17-.013-4.191-.3-6.63,2.084a6,6,0,0,0-.5.559V19.05a6.82,6.82,0,0,0,4.348-1.665c1.779-1.74,1.776-5.126,1.776-5.126,0,.576,0-5.147,0-7.7a.861.861,0,0,0-1.722,0v6.793a8.513,8.513,0,0,0-2.279.429,4.836,4.836,0,0,0,.083-.829,7.147,7.147,0,0,0-2.186-4.7V.9a.861.861,0,0,0-1.722,0V6.3a7.119,7.119,0,0,0-2.218,4.591,4.878,4.878,0,0,0,.073.878,8.514,8.514,0,0,0-2.272-.431V4.556a.861.861,0,0,0-1.722,0c0,2.556-.144,5.151,0,7.7a7.318,7.318,0,0,0,1.768,5.118,6.821,6.821,0,0,0,4.346,1.672v2.112a5.989,5.989,0,0,0-.5-.559c-2.435-2.39-6.457-2.108-6.627-2.1a.862.862,0,0,0-.793.806,11.169,11.169,0,0,0,.3,3,.861.861,0,0,0,1.674-.405,9.684,9.684,0,0,1-.247-1.683,7.016,7.016,0,0,1,4.484,1.608A6.967,6.967,0,0,1,28.5,26.269a7.845,7.845,0,0,1-3.8-1.061.862.862,0,0,0-.937,1.445A9.59,9.59,0,0,0,28.517,28v2.139a5.918,5.918,0,0,0-.5-.56c-2.435-2.39-6.457-2.108-6.627-2.1a.861.861,0,0,0-.793.806c-.011.17-.229,4.188,2.207,6.579a8.733,8.733,0,0,0,5.707,2.105L28.5,54.1H26.726c.009-.124.014-.249.014-.373a5.115,5.115,0,0,0-9.7-2.264A3.555,3.555,0,0,0,11.48,54.1H9.634L9.646,36.97a8.728,8.728,0,0,0,5.708-2.1c2.441-2.388,2.229-6.406,2.219-6.576a.862.862,0,0,0-.792-.807c-2.528-.2-5.508.6-7.13,2.643V28a8.731,8.731,0,0,0,5.709-2.1c2.441-2.388,2.228-6.405,2.218-6.575a.861.861,0,0,0-.791-.807c-2.527-.2-5.51.6-7.13,2.644V19.05a6.823,6.823,0,0,0,4.348-1.665c1.948-1.9,1.779-5.093,1.772-5.229,0-.007,0-.013,0-.02,0-.024,0-.049,0-.074V4.556a.861.861,0,0,0-1.722,0V11.35a8.477,8.477,0,0,0-2.274.429,6.5,6.5,0,0,0-2.074-5.5V.9A.861.861,0,0,0,7.988.9v5.37a6.489,6.489,0,0,0-2.174,5.5,8.512,8.512,0,0,0-2.267-.43V4.556a.861.861,0,0,0-1.722,0c0,2.517,0,7.589,0,7.589-.008.135-.182,3.323,1.762,5.232a6.824,6.824,0,0,0,4.347,1.672l0,2.113c-1.617-2.047-4.6-2.854-7.126-2.655a.86.86,0,0,0-.793.806c-.011.17-.229,4.187,2.207,6.579A8.737,8.737,0,0,0,7.93,28l0,2.138C6.309,28.084,3.334,27.285.8,27.479a.861.861,0,0,0-.793.806c-.011.17-.229,4.188,2.207,6.579a8.733,8.733,0,0,0,5.707,2.105L7.912,54.1H4.742A3.89,3.89,0,0,0,.855,57.982a.861.861,0,1,0,1.722,0A2.166,2.166,0,0,1,4.742,55.82h7.646a.861.861,0,0,0,.842-1.042,1.843,1.843,0,0,1,3.415-1.236.866.866,0,0,0,1.615-.284,3.4,3.4,0,1,1,6.612,1.451A.861.861,0,0,0,25.7,55.82h7.54a.862.862,0,0,0,.737-1.307,2.046,2.046,0,0,1,2.555-2.9.861.861,0,0,0,1.209-.784,2.028,2.028,0,0,1,4.055.009c0,.575.443,1.289,1.169,1A2.051,2.051,0,0,1,45.54,54.59a.861.861,0,0,0,.778,1.23h7.695a2.166,2.166,0,0,1,2.166,2.162.861.861,0,1,0,1.722,0A3.89,3.89,0,0,0,54.013,54.1h-3.2l.011-17.129a11.421,11.421,0,0,0,2.374-.328.862.862,0,0,0-.423-1.67,9.625,9.625,0,0,1-1.935.273,10.128,10.128,0,0,1,.136-1.143,6.167,6.167,0,0,1,1.555-3.292,7.015,7.015,0,0,1,4.486-1.6,7.759,7.759,0,0,1-1.146,3.782.862.862,0,0,0,.222,1.2m-5.111-9.059a6.165,6.165,0,0,1,1.555-3.292,7.015,7.015,0,0,1,4.486-1.6,6.966,6.966,0,0,1-1.69,4.435,7.018,7.018,0,0,1-4.488,1.6,10.1,10.1,0,0,1,.136-1.143M30.386,34.1a6.165,6.165,0,0,1,1.555-3.293,7.018,7.018,0,0,1,4.488-1.6,10.1,10.1,0,0,1-.136,1.142,6.169,6.169,0,0,1-1.555,3.293,7.019,7.019,0,0,1-4.488,1.6,9.984,9.984,0,0,1,.137-1.143m.006-8.973a6.167,6.167,0,0,1,1.555-3.292,7.021,7.021,0,0,1,4.487-1.6,9.817,9.817,0,0,1-.136,1.143,6.164,6.164,0,0,1-1.555,3.293,7.018,7.018,0,0,1-4.488,1.6,9.956,9.956,0,0,1,.136-1.143m3-8.974a5.043,5.043,0,0,1-3.114,1.169,5,5,0,0,1,1.23-3.076,5.042,5.042,0,0,1,3.114-1.168,5,5,0,0,1-1.23,3.075M29.422,7.888a5.028,5.028,0,0,1,1.31,3.043,5.03,5.03,0,0,1-1.374,3.023,5.024,5.024,0,0,1-1.309-3.043,5.03,5.03,0,0,1,1.373-3.023m-4.04,8.259a5,5,0,0,1-1.224-3.075,5.064,5.064,0,0,1,3.111,1.171,5,5,0,0,1,1.225,3.075,5.065,5.065,0,0,1-3.112-1.172m1.958,18.981a6.2,6.2,0,0,1-3.331-1.493A6.966,6.966,0,0,1,22.328,29.2,7.015,7.015,0,0,1,26.811,30.8a6.963,6.963,0,0,1,1.683,4.44,10.057,10.057,0,0,1-1.152-.116m-15.987-4.32a7.02,7.02,0,0,1,4.486-1.6,6.966,6.966,0,0,1-1.69,4.435,7.016,7.016,0,0,1-4.486,1.6,6.969,6.969,0,0,1,1.69-4.436m-1.549-5.68a6.171,6.171,0,0,1,1.555-3.293,7.019,7.019,0,0,1,4.486-1.6,6.965,6.965,0,0,1-1.69,4.435,7.015,7.015,0,0,1-4.487,1.6,9.921,9.921,0,0,1,.136-1.143m3-8.974a5.043,5.043,0,0,1-3.114,1.169,5,5,0,0,1,1.23-3.076,5.042,5.042,0,0,1,3.114-1.168,5,5,0,0,1-1.23,3.075M8.837,7.886a5.007,5.007,0,0,1,1.308,3.045A5.036,5.036,0,0,1,8.77,13.957a5.005,5.005,0,0,1-1.308-3.045A5.03,5.03,0,0,1,8.837,7.886M4.8,16.147a5,5,0,0,1-1.224-3.075,5.064,5.064,0,0,1,3.111,1.171,5,5,0,0,1,1.225,3.075A5.065,5.065,0,0,1,4.8,16.147M3.429,24.661a6.967,6.967,0,0,1-1.683-4.438A7.016,7.016,0,0,1,6.23,21.831a6.968,6.968,0,0,1,1.683,4.438,7.018,7.018,0,0,1-4.484-1.608M6.755,35.128a6.206,6.206,0,0,1-3.331-1.493A6.966,6.966,0,0,1,1.741,29.2,7.015,7.015,0,0,1,6.224,30.8a6.968,6.968,0,0,1,1.683,4.44,10.028,10.028,0,0,1-1.152-.116M53.976,16.153a5.043,5.043,0,0,1-3.114,1.169,5,5,0,0,1,1.23-3.076,5.042,5.042,0,0,1,3.114-1.168,5,5,0,0,1-1.23,3.075M50.009,7.888a5.028,5.028,0,0,1,1.31,3.043,5.03,5.03,0,0,1-1.374,3.023,5.028,5.028,0,0,1-1.309-3.043,5.03,5.03,0,0,1,1.373-3.023m-4.04,8.259a5,5,0,0,1-1.225-3.077,5.041,5.041,0,0,1,3.112,1.174,5,5,0,0,1,1.225,3.075,5.066,5.066,0,0,1-3.112-1.172M44.6,24.661a6.967,6.967,0,0,1-1.683-4.438A7.016,7.016,0,0,1,47.4,21.831a6.968,6.968,0,0,1,1.683,4.438A7.017,7.017,0,0,1,44.6,24.661m3.325,10.467A6.2,6.2,0,0,1,44.6,33.634,6.966,6.966,0,0,1,42.914,29.2,7.014,7.014,0,0,1,47.4,30.8a6.963,6.963,0,0,1,1.683,4.44,10.061,10.061,0,0,1-1.152-.116" transform="translate(0.219 -0.383)" fill="#060606"/>
        </g>
      </g>
      <g id="Grupo_1175629" data-name="Grupo 1175629" transform="translate(-0.224 0.387)">
        <g id="Grupo_1175628" data-name="Grupo 1175628" clip-path="url(#clip-path)">
          <path id="Trazado_1031054" data-name="Trazado 1031054" d="M273.637,349.055a.862.862,0,0,0,0,1.723.862.862,0,0,0,0-1.723" transform="translate(-230.841 -295.935)" fill="#060606"/>
          <path id="Trazado_1031055" data-name="Trazado 1031055" d="M237.634,358.18a.862.862,0,0,0,0,1.723.862.862,0,0,0,0-1.723" transform="translate(-200.348 -303.663)" fill="#060606"/>
          <path id="Trazado_1031056" data-name="Trazado 1031056" d="M132.624,349.055a.862.862,0,0,0,0,1.723.862.862,0,0,0,0-1.723" transform="translate(-111.407 -295.935)" fill="#060606"/>
        </g>
      </g>
    </g>
  </g>
</svg>
