<svg xmlns="http://www.w3.org/2000/svg" xmlns:xlink="http://www.w3.org/1999/xlink" width="96.438" height="98.193" viewBox="0 0 96.438 98.193">
  <defs>
    <filter id="Rect치ngulo_402509" x="0" y="0" width="96.438" height="98.193" filterUnits="userSpaceOnUse">
      <feOffset dy="3" input="SourceAlpha"/>
      <feGaussianBlur stdDeviation="3" result="blur"/>
      <feFlood flood-opacity="0.161"/>
      <feComposite operator="in" in2="blur"/>
      <feComposite in="SourceGraphic"/>
    </filter>
  </defs>
  <g id="Grupo_1174860" data-name="Grupo 1174860" transform="translate(9 6)">
    <g transform="matrix(1, 0, 0, 1, -9, -6)" filter="url(#Rect치ngulo_402509)">
      <g id="Rect치ngulo_402509-2" data-name="Rect치ngulo 402509" transform="translate(9 6)" fill="#ced9c1" stroke="#6a8051" stroke-width="3" opacity="0.859">
        <rect width="78.438" height="80.193" rx="39.219" stroke="none"/>
        <rect x="1.5" y="1.5" width="75.438" height="77.193" rx="37.719" fill="none"/>
      </g>
    </g>
    <g id="cow_5880287" transform="translate(11.456 17.82)">
      <path id="Trazado_898141" data-name="Trazado 898141" d="M63.14,56.551a12.723,12.723,0,0,0-5.523-6.078h0a10.308,10.308,0,0,0-2.535-9.362,1.583,1.583,0,0,0-2.708.875,10.017,10.017,0,0,1-3.448,5.956,10.422,10.422,0,0,0-7.258-2.9H29.718a10.422,10.422,0,0,0-7.258,2.9,10.017,10.017,0,0,1-3.448-5.956,1.583,1.583,0,0,0-2.708-.875,10.308,10.308,0,0,0-2.535,9.362,12.724,12.724,0,0,0-5.524,6.078,2.867,2.867,0,0,0,1.109,3.575,12.439,12.439,0,0,0,10.788,1.08c.041-.021-.017-.055.26.44,2.086,3.74,4.4,7.243,4.35,12.219a8.254,8.254,0,0,0-2.493,6.011c0,13.122,26.867,13.123,26.867,0a8.249,8.249,0,0,0-2.493-6.009,15.514,15.514,0,0,1,1-5.635A58.355,58.355,0,0,1,51.222,61.2l.021.011a12.439,12.439,0,0,0,10.788-1.08,2.867,2.867,0,0,0,1.109-3.575Z" transform="translate(-7.022 -39.634)" fill="#ffebd2"/>
      <path id="Trazado_898142" data-name="Trazado 898142" d="M116.64,76.543c0,.167-.114.441-.283,1.629a.981.981,0,0,1-.951.837,11.087,11.087,0,0,0-9.244,16.6,49.251,49.251,0,0,1,3.348,6.311.986.986,0,0,1-.512,1.255,11.855,11.855,0,0,0-3.274,2.191c.054-4.976-2.335-8.479-4.488-12.219a11.083,11.083,0,0,1,9.61-16.6h5.792Z" transform="translate(-87.975 -71.134)" fill="#fff3e4"/>
      <path id="Trazado_898143" data-name="Trazado 898143" d="M14.57,122.492a.616.616,0,0,1-.179.738,12.628,12.628,0,0,0-3.675,4.736,2.772,2.772,0,0,0-.163,1.815.615.615,0,0,1-.907.673q-.124-.071-.248-.144a2.82,2.82,0,0,1-1.144-3.575,12.878,12.878,0,0,1,5.7-6.078A10.7,10.7,0,0,0,14.57,122.492Z" transform="translate(-7.022 -109.816)" fill="#fff3e4"/>
      <path id="Trazado_898144" data-name="Trazado 898144" d="M249.88,92.7a57.709,57.709,0,0,0-3.7,7.036c-9.264-3.962-14.938-12.8-12.693-23.137v-.052h6.537A11.082,11.082,0,0,1,249.88,92.7Z" transform="translate(-205.539 -71.136)" fill="#6e6f80"/>
      <path id="Trazado_898145" data-name="Trazado 898145" d="M244.864,79c-1.763.007-4.456.035-8.946.014a.984.984,0,0,1-.971-1.131c.169-1.084.24-1.183.24-1.338h6.537a11.187,11.187,0,0,1,3.427.529A.985.985,0,0,1,244.864,79Z" transform="translate(-207.064 -71.136)" fill="#838599"/>
      <path id="Trazado_898146" data-name="Trazado 898146" d="M152.584,283.368h0c-6.876-6.65-25.146-4.642-25.146,6.01,0,13.122,27.718,13.123,27.718,0A8.126,8.126,0,0,0,152.584,283.368Z" transform="translate(-112.625 -249.136)" fill="#ffbfcb"/>
      <path id="Trazado_898147" data-name="Trazado 898147" d="M133.7,285.351a8.281,8.281,0,0,0-1.992,9.08.985.985,0,0,1-1.585,1.083,8.148,8.148,0,0,1-2.689-6.121c0-7.269,8.435-10.394,15.741-9.76a.985.985,0,0,1,.009,1.963C139.495,281.9,135.975,283.153,133.7,285.351Z" transform="translate(-112.397 -249.15)" fill="#ffd9e0"/>
      <path id="Trazado_898148" data-name="Trazado 898148" d="M260.008,333.2c0-4.854,6.21-4.853,6.21,0S260.008,338.049,260.008,333.2Z" transform="translate(-229.059 -292.998)" fill="#ffa4b8"/>
      <path id="Trazado_898149" data-name="Trazado 898149" d="M169.568,333.2c0-4.853,6.21-4.854,6.21,0S169.568,338.05,169.568,333.2Z" transform="translate(-149.384 -292.998)" fill="#ffa4b8"/>
      <path id="Trazado_898150" data-name="Trazado 898150" d="M357.248,41.111a10.01,10.01,0,0,1-2.772,16.046h-.011a11.178,11.178,0,0,0-3.567-9.213,9.956,9.956,0,0,0,3.557-5.956,1.647,1.647,0,0,1,2.793-.875Z" transform="translate(-309.451 -39.634)" fill="#cbe3fa"/>
      <path id="Trazado_898151" data-name="Trazado 898151" d="M357.255,41.119a.728.728,0,0,1-.149,1.132,2.018,2.018,0,0,0-.968,1.4,12.123,12.123,0,0,1-2.787,5.793.733.733,0,0,1-1.136-.048,11.2,11.2,0,0,0-1.318-1.449,9.956,9.956,0,0,0,3.557-5.956A1.647,1.647,0,0,1,357.255,41.119Z" transform="translate(-309.139 -39.633)" fill="#eef7ff"/>
      <path id="Trazado_898152" data-name="Trazado 898152" d="M59.833,41.987a9.956,9.956,0,0,0,3.557,5.956,11.178,11.178,0,0,0-3.567,9.213h-.011A10.009,10.009,0,0,1,57.04,41.111,1.647,1.647,0,0,1,59.833,41.987Z" transform="translate(-47.494 -39.634)" fill="#cbe3fa"/>
      <path id="Trazado_898153" data-name="Trazado 898153" d="M59.82,57.156a9.535,9.535,0,0,1-5.4-6.683,10.089,10.089,0,0,1,2.615-9.362,1.647,1.647,0,0,1,2.793.875q.057.314.134.619a.991.991,0,0,1-.162.83,10.107,10.107,0,0,0-.187,11.671C59.915,55.543,59.684,55.724,59.82,57.156Z" transform="translate(-47.49 -39.634)" fill="#eef7ff"/>
      <g id="Grupo_1109882" data-name="Grupo 1109882" transform="translate(0 0)">
        <path id="Trazado_898154" data-name="Trazado 898154" d="M23.8,62.581a.986.986,0,0,0-.713,1.182.952.952,0,0,0,1.143.738c7.057-1.688,16.8.928,16.8,8.355,0,11.8-24.9,11.811-24.9,0a7.257,7.257,0,0,1,2.2-5.3,1,1,0,0,0,.29-.7c.055-5.175-2.259-8.753-4.468-12.722a10.318,10.318,0,0,1,1.695-12.315.954.954,0,0,0,.367-.351,9.492,9.492,0,0,1,6.408-2.461H34.541a9.994,9.994,0,0,1,9.743,11.037.965.965,0,0,0,1.366.984c6.649-3.252,8-12.293,2.955-17.625a2.523,2.523,0,0,0-4.32,1.388,9.061,9.061,0,0,1-.535,1.858,1,1,0,0,0,.507,1.291.941.941,0,0,0,1.248-.524,11.078,11.078,0,0,0,.655-2.273.635.635,0,0,1,1.084-.362A9.255,9.255,0,0,1,46.21,48.409,11.86,11.86,0,0,0,34.541,37.037H22.616a11.337,11.337,0,0,0-7.233,2.578,8.935,8.935,0,0,1-2.511-4.825A2.523,2.523,0,0,0,8.552,33.4,11.268,11.268,0,0,0,5.64,42.946a13.816,13.816,0,0,0-5.317,6.18A3.869,3.869,0,0,0,1.81,53.952a13.063,13.063,0,0,0,6.237,1.955.985.985,0,0,0,.1-1.967,11.224,11.224,0,0,1-5.358-1.68,1.865,1.865,0,0,1-.726-2.324,11.7,11.7,0,0,1,4.082-4.988A10.993,10.993,0,0,0,6.819,46.5a.936.936,0,0,0,1.294.386,1,1,0,0,0,.374-1.338A9.4,9.4,0,0,1,9.914,34.78.635.635,0,0,1,11,35.142a11.065,11.065,0,0,0,3,5.819,12.322,12.322,0,0,0-1.5,14.156c2.063,3.708,4.14,6.873,4.213,11.324a9.3,9.3,0,0,0-2.486,6.415c0,14.433,28.712,14.433,28.712,0,0-8.832-10.779-12.274-19.138-10.275Z" transform="translate(0 -32.613)"/>
        <path id="Trazado_898155" data-name="Trazado 898155" d="M165.657,323.523c1.055,0,2.12.821,2.12,2.655a.985.985,0,0,0,1.97,0c0-3.037-2.057-4.625-4.089-4.625s-4.09,1.589-4.09,4.625c0,3.5,2.815,5.245,5.314,4.431a.985.985,0,0,0-.61-1.873c-1.267.413-2.734-.446-2.734-2.558C163.537,324.344,164.6,323.523,165.657,323.523Z" transform="translate(-142.361 -285.98)"/>
        <path id="Trazado_898156" data-name="Trazado 898156" d="M256.1,329.464c-1.055,0-2.12-.821-2.12-2.655a.985.985,0,0,0-1.97,0,4.755,4.755,0,0,0,1.245,3.412c2.359,2.458,6.935,1.114,6.935-3.412a4.365,4.365,0,0,0-3.129-4.507.985.985,0,0,0-.478,1.911,2.408,2.408,0,0,1,1.638,2.6C258.219,328.643,257.154,329.464,256.1,329.464Z" transform="translate(-222.052 -286.611)"/>
        <path id="Trazado_898157" data-name="Trazado 898157" d="M177.993,166.545a.985.985,0,0,0-.985.985v1.97a.985.985,0,1,0,1.97,0v-1.97A.985.985,0,0,0,177.993,166.545Z" transform="translate(-155.885 -150.056)"/>
        <path id="Trazado_898158" data-name="Trazado 898158" d="M287.008,167.53v1.97a.985.985,0,1,0,1.97,0v-1.97a.985.985,0,0,0-1.97,0Z" transform="translate(-252.758 -150.056)"/>
        <path id="Trazado_898159" data-name="Trazado 898159" d="M256.463,123.5a13.894,13.894,0,0,0-1.511-2.571.985.985,0,0,0-1.581,1.175,11.929,11.929,0,0,1,1.3,2.206,1.833,1.833,0,0,1-.751,2.324,12.155,12.155,0,0,1-10.266,1.008.985.985,0,0,0-1.255.454c-.651,1.255-2.223,3.595-3.351,6.17-6.779-3.23-11.1-9.118-11.621-15.926a.985.985,0,0,0-1.964.15c.6,7.861,5.738,14.593,13.738,18.008a.984.984,0,0,0,1.355-.727,44.985,44.985,0,0,1,3.19-6.041,14.017,14.017,0,0,0,11.183-1.4A3.8,3.8,0,0,0,256.463,123.5Z" transform="translate(-199.454 -106.992)"/>
      </g>
    </g>
  </g>
</svg>
