<svg xmlns="http://www.w3.org/2000/svg" xmlns:xlink="http://www.w3.org/1999/xlink" width="110.057" height="110.058" viewBox="0 0 110.057 110.058">
  <defs>
    <filter id="Trazado_874925" x="0" y="0" width="110.057" height="110.058" filterUnits="userSpaceOnUse">
      <feOffset dy="3" input="SourceAlpha"/>
      <feGaussianBlur stdDeviation="3" result="blur"/>
      <feFlood flood-opacity="0.161"/>
      <feComposite operator="in" in2="blur"/>
      <feComposite in="SourceGraphic"/>
    </filter>
    <clipPath id="clip-path">
      <rect id="Rectángulo_415545" data-name="Rectángulo 415545" width="53.738" height="56.719" fill="none"/>
    </clipPath>
  </defs>
  <g id="Grupo_1175162" data-name="Grupo 1175162" transform="translate(9 6)">
    <g id="Grupo_1109819" data-name="Grupo 1109819" transform="translate(0 0)">
      <g transform="matrix(1, 0, 0, 1, -9, -6)" filter="url(#Trazado_874925)">
        <g id="Trazado_874925-2" data-name="Trazado 874925" transform="translate(9 6)" fill="#efdb59" opacity="0.859">
          <path d="M 46.02833557128906 90.55719757080078 C 40.01638793945312 90.55719757080078 34.1850700378418 89.38008880615234 28.69636154174805 87.05855560302734 C 23.39413642883301 84.81590270996094 18.63193511962891 81.60504150390625 14.54205513000488 77.51514434814453 C 10.45216178894043 73.42526245117188 7.241295337677002 68.66306304931641 4.998642444610596 63.36083984375 C 2.677109003067017 57.87213134765625 1.500002264976501 52.04081344604492 1.500002264976501 46.02886581420898 C 1.500002264976501 40.01638412475586 2.677109003067017 34.18506622314453 4.998642444610596 28.69635963439941 C 7.241295337677002 23.39413261413574 10.45216178894043 18.63193130493164 14.54205513000488 14.54205226898193 C 18.63193511962891 10.45215892791748 23.39413642883301 7.241291999816895 28.69636154174805 4.99863862991333 C 34.1850700378418 2.67710542678833 40.01638793945312 1.499998807907104 46.02833557128906 1.499998807907104 C 52.040283203125 1.499998807907104 57.87160110473633 2.67710542678833 63.36030960083008 4.99863862991333 C 68.66253662109375 7.241291999816895 73.42473602294922 10.45215892791748 77.51461791992188 14.54205226898193 C 81.60450744628906 18.63193130493164 84.81537628173828 23.39413261413574 87.05802917480469 28.69635963439941 C 89.37956237792969 34.18506622314453 90.55667114257812 40.01638412475586 90.55667114257812 46.0283317565918 C 90.55667114257812 52.04081344604492 89.37956237792969 57.87213134765625 87.05802917480469 63.36083984375 C 84.81537628173828 68.66306304931641 81.60450744628906 73.42526245117188 77.51461791992188 77.51514434814453 C 73.42473602294922 81.60504150390625 68.66253662109375 84.81590270996094 63.36030960083008 87.05855560302734 C 57.87160110473633 89.38008880615234 52.040283203125 90.55719757080078 46.02833557128906 90.55719757080078 Z" stroke="none"/>
          <path d="M 46.02833557128906 3 C 40.21821975708008 3 34.5835075378418 4.137245178222656 29.28069305419922 6.380142211914062 C 24.15726470947266 8.547172546386719 19.55532073974609 11.65008544921875 15.60270690917969 15.60271453857422 C 11.65009307861328 19.55532836914062 8.547164916992188 24.15725708007812 6.380134582519531 29.28068542480469 C 4.137237548828125 34.58349990844727 2.999992370605469 40.21822738647461 2.999992370605469 46.02886962890625 C 2.999992370605469 51.83898544311523 4.137237548828125 57.47369766235352 6.380134582519531 62.77651214599609 C 8.547164916992188 67.89994049072266 11.65009307861328 72.50186920166016 15.60270690917969 76.45449829101562 C 19.55532073974609 80.40711212158203 24.15726470947266 83.51002502441406 29.28069305419922 85.67705535888672 C 34.5835075378418 87.91995239257812 40.21821975708008 89.05719757080078 46.02833557128906 89.05719757080078 C 51.83845138549805 89.05719757080078 57.47316360473633 87.91995239257812 62.77597808837891 85.67705535888672 C 67.89940643310547 83.51002502441406 72.50135040283203 80.40711212158203 76.45396423339844 76.45449829101562 C 80.40657806396484 72.50188446044922 83.50949096679688 67.89994049072266 85.67652130126953 62.77651214599609 C 87.91941833496094 57.47369766235352 89.05666351318359 51.83898544311523 89.05666351318359 46.02834320068359 C 89.05666351318359 40.21822738647461 87.91941833496094 34.58349990844727 85.67652130126953 29.28068542480469 C 83.50949096679688 24.15725708007812 80.40657806396484 19.55532836914062 76.45396423339844 15.60271453857422 C 72.50133514404297 11.65008544921875 67.89940643310547 8.547172546386719 62.77597808837891 6.380142211914062 C 57.47316360473633 4.137245178222656 51.83845138549805 3 46.02833557128906 3 M 46.02833557128906 0 C 71.44908142089844 0 92.05666351318359 20.60758209228516 92.05666351318359 46.02834320068359 L 92.05666351318359 46.02886962890625 C 92.05666351318359 71.44961547851562 71.44908142089844 92.05719757080078 46.02833557128906 92.05719757080078 C 20.60758972167969 92.05719757080078 -7.62939453125e-06 71.44961547851562 -7.62939453125e-06 46.02886962890625 L -7.62939453125e-06 46.02834320068359 C -7.62939453125e-06 20.60758209228516 20.60758972167969 0 46.02833557128906 0 Z" stroke="none" fill="#fff"/>
        </g>
      </g>
      <g id="Trazado_874923" data-name="Trazado 874923" transform="translate(0 0)" fill="none">
        <path d="M46.028,0A46.028,46.028,0,0,1,92.057,46.028h0A46.028,46.028,0,0,1,0,46.029H0A46.028,46.028,0,0,1,46.028,0Z" stroke="none"/>
        <path d="M 46.02833557128906 3 C 40.21821975708008 3 34.5835075378418 4.137245178222656 29.28069305419922 6.380142211914062 C 24.15726470947266 8.547172546386719 19.55532073974609 11.65008544921875 15.60270690917969 15.60271453857422 C 11.65009307861328 19.55532836914062 8.547164916992188 24.15725708007812 6.380134582519531 29.28068542480469 C 4.137237548828125 34.58349990844727 2.999992370605469 40.21822738647461 2.999992370605469 46.02886962890625 C 2.999992370605469 51.83898544311523 4.137237548828125 57.47369766235352 6.380134582519531 62.77651214599609 C 8.547164916992188 67.89994049072266 11.65009307861328 72.50186920166016 15.60270690917969 76.45449829101562 C 19.55532073974609 80.40711212158203 24.15726470947266 83.51002502441406 29.28069305419922 85.67705535888672 C 34.5835075378418 87.91995239257812 40.21821975708008 89.05719757080078 46.02833557128906 89.05719757080078 C 51.83845138549805 89.05719757080078 57.47316360473633 87.91995239257812 62.77597808837891 85.67705535888672 C 67.89940643310547 83.51002502441406 72.50135040283203 80.40711212158203 76.45396423339844 76.45449829101562 C 80.40657806396484 72.50188446044922 83.50949096679688 67.89994049072266 85.67652130126953 62.77651214599609 C 87.91941833496094 57.47369766235352 89.05666351318359 51.83898544311523 89.05666351318359 46.02834320068359 C 89.05666351318359 40.21822738647461 87.91941833496094 34.58349990844727 85.67652130126953 29.28068542480469 C 83.50949096679688 24.15725708007812 80.40657806396484 19.55532836914062 76.45396423339844 15.60271453857422 C 72.50133514404297 11.65008544921875 67.89940643310547 8.547172546386719 62.77597808837891 6.380142211914062 C 57.47316360473633 4.137245178222656 51.83845138549805 3 46.02833557128906 3 M 46.02833557128906 0 C 71.44908142089844 0 92.05666351318359 20.60758209228516 92.05666351318359 46.02834320068359 L 92.05666351318359 46.02886962890625 C 92.05666351318359 71.44961547851562 71.44908142089844 92.05719757080078 46.02833557128906 92.05719757080078 C 20.60758972167969 92.05719757080078 -7.62939453125e-06 71.44961547851562 -7.62939453125e-06 46.02886962890625 L -7.62939453125e-06 46.02834320068359 C -7.62939453125e-06 20.60758209228516 20.60758972167969 0 46.02833557128906 0 Z" stroke="none" fill="#fff"/>
      </g>
    </g>
    <g id="Grupo_1175640" data-name="Grupo 1175640" transform="translate(19.159 17.669)">
      <g id="Grupo_1175639" data-name="Grupo 1175639" clip-path="url(#clip-path)">
        <path id="Trazado_1031077" data-name="Trazado 1031077" d="M5.621,318.045v3.011a2.03,2.03,0,0,0,2.03,2.03H26.044a2.03,2.03,0,0,0,1.912-1.346l.073-.2a2.03,2.03,0,0,1,1.738-1.339l9.394-.807a2.031,2.031,0,0,1,2.033,1.209l.556,1.271a2.03,2.03,0,0,0,1.86,1.216h7.868a2.03,2.03,0,0,0,2.03-2.03V313.5H16.087Z" transform="translate(-4.791 -267.198)" fill="#6d788a"/>
        <path id="Trazado_1031078" data-name="Trazado 1031078" d="M127.006,353.315l-9.394.807a2.031,2.031,0,0,0-1.738,1.339l-.073.2a2.03,2.03,0,0,1-1.912,1.346h4.431a2.03,2.03,0,0,0,1.912-1.346l.073-.2a2.031,2.031,0,0,1,1.738-1.339l6.172-.53a2.026,2.026,0,0,0-1.209-.276" transform="translate(-97.068 -301.122)" fill="#636d7d"/>
        <path id="Trazado_1031079" data-name="Trazado 1031079" d="M288.1,313.5v7.552a2.03,2.03,0,0,1-2.03,2.03H290.5a2.03,2.03,0,0,0,2.03-2.03V313.5Z" transform="translate(-243.816 -267.198)" fill="#636d7d"/>
        <path id="Trazado_1031080" data-name="Trazado 1031080" d="M5.621,61.041a6.4,6.4,0,0,1,4.182-6l9.3-3.556a16.734,16.734,0,0,0,10.471-18.7L25.683,11.961H56.059a79.134,79.134,0,0,1-4.626,27.534c-1.442,3.753-.818,8.27.882,11.834a12.424,12.424,0,0,1,1.191,6.807l-7.257.1a67.727,67.727,0,0,0-12.817,1.4A67.739,67.739,0,0,1,19.7,61.041Z" transform="translate(-4.791 -10.194)" fill="#aad667"/>
        <path id="Trazado_1031081" data-name="Trazado 1031081" d="M285.576,39.494A79.126,79.126,0,0,0,290.2,11.961H285.77a79.129,79.129,0,0,1-4.626,27.533c-1.442,3.753-.819,8.271.882,11.835a12.422,12.422,0,0,1,1.191,6.807h4.431a12.423,12.423,0,0,0-1.191-6.807c-1.7-3.564-2.324-8.082-.882-11.835" transform="translate(-238.933 -10.194)" fill="#99c94f"/>
        <path id="Trazado_1031082" data-name="Trazado 1031082" d="M141.445,11.961l2.383,12.764a17.3,17.3,0,0,1,7.115,11.012l1.132,6.05a4.687,4.687,0,0,0,9.2.07l1.008-4.967A18.5,18.5,0,0,1,170.9,24.705a87.489,87.489,0,0,0,.925-12.744Z" transform="translate(-120.553 -10.194)" fill="#82b339"/>
        <path id="Trazado_1031083" data-name="Trazado 1031083" d="M310.412,24.705a87.466,87.466,0,0,0,.925-12.744h-4.431a86.29,86.29,0,0,1-1.766,17.5,18.5,18.5,0,0,1,5.272-4.752" transform="translate(-260.069 -10.194)" fill="#78a635"/>
        <path id="Trazado_1031084" data-name="Trazado 1031084" d="M161.841,9.566H132.1a1.97,1.97,0,0,1-1.97-1.97h0a1.97,1.97,0,0,1,1.97-1.97h29.746a1.97,1.97,0,0,1,1.97,1.97h0a1.97,1.97,0,0,1-1.97,1.97" transform="translate(-110.905 -4.794)" fill="#aad667"/>
        <path id="Trazado_1031085" data-name="Trazado 1031085" d="M233.6,192.9a2.329,2.329,0,1,1-2.329-2.329A2.329,2.329,0,0,1,233.6,192.9" transform="translate(-195.128 -162.425)" fill="#aad667"/>
        <path id="Trazado_1031086" data-name="Trazado 1031086" d="M52.026,5.382A2.8,2.8,0,0,0,50.937,0H21.191a2.8,2.8,0,0,0-.434,5.57L23.963,22.74a15.9,15.9,0,0,1-9.952,17.772L4.725,44.065A7.258,7.258,0,0,0,0,50.847v3.011a2.863,2.863,0,0,0,2.861,2.861H21.253a2.867,2.867,0,0,0,2.694-1.9,1.346,1.346,0,0,1,1.1-.994l9.393-.807a1.2,1.2,0,0,1,1.2.714c.549,1.467,1.368,2.984,3.177,2.984h7.868a2.864,2.864,0,0,0,2.861-2.861V47.988a13.268,13.268,0,0,0-1.272-7.211A14.542,14.542,0,0,1,47.418,29.6,78.062,78.062,0,0,0,52.026,5.382M20.051,2.8a1.141,1.141,0,0,1,1.14-1.14H50.937a1.14,1.14,0,0,1,0,2.28H29.33a.831.831,0,0,0,0,1.662H50.354c-.132,3.04-.411,5.851-.774,8.4a19.378,19.378,0,0,0-8.663,12.524L39.908,31.5a3.856,3.856,0,0,1-7.57-.058l-1.131-6.05a18.017,18.017,0,0,0-7.176-11.339L22.454,5.6h2.457a.831.831,0,0,0,0-1.662h-3.72a1.141,1.141,0,0,1-1.14-1.14M46.774,41.493a11.26,11.26,0,0,1,1.111,5.629l-3.709.05a.833.833,0,0,0,.022,1.662l3.686-.05v5.075a1.2,1.2,0,0,1-1.2,1.2H38.818c-.937,0-1.416-1.236-1.655-1.989a2.863,2.863,0,0,0-2.866-1.7l-9.394.807a2.988,2.988,0,0,0-2.521,2.09,1.2,1.2,0,0,1-1.129.8H2.861a1.2,1.2,0,0,1-1.2-1.2v-2.18H14.909a68.68,68.68,0,0,0,13.9-1.424,67.056,67.056,0,0,1,11.047-1.342.831.831,0,0,0-.062-1.661,68.729,68.729,0,0,0-11.322,1.376,67.042,67.042,0,0,1-13.564,1.39H1.724a5.6,5.6,0,0,1,3.585-4.4l9.3-3.556A17.56,17.56,0,0,0,25.6,22.435L24.5,16.572A16.356,16.356,0,0,1,29.573,25.7l1.132,6.05a5.518,5.518,0,0,0,10.832.082l1.007-4.967a17.717,17.717,0,0,1,6.682-10.595A68.116,68.116,0,0,1,45.867,29a16.222,16.222,0,0,0,.907,12.49" transform="translate(0)" fill="#060606"/>
        <path id="Trazado_1031087" data-name="Trazado 1031087" d="M182.178,57.635h17.8a.831.831,0,0,0,0-1.662h-17.8a.831.831,0,0,0,0,1.662" transform="translate(-154.583 -47.705)" fill="#060606"/>
        <path id="Trazado_1031088" data-name="Trazado 1031088" d="M221.164,80.051h-8.917a.831.831,0,0,0,0,1.662h8.917a.831.831,0,0,0,0-1.662" transform="translate(-180.211 -68.227)" fill="#060606"/>
        <path id="Trazado_1031089" data-name="Trazado 1031089" d="M226.48,184.949a3.159,3.159,0,1,0,3.159,3.16,3.163,3.163,0,0,0-3.159-3.16m0,4.657a1.5,1.5,0,1,1,1.5-1.5,1.5,1.5,0,0,1-1.5,1.5" transform="translate(-190.334 -157.631)" fill="#060606"/>
      </g>
    </g>
  </g>
</svg>
