<svg xmlns="http://www.w3.org/2000/svg" xmlns:xlink="http://www.w3.org/1999/xlink" width="110.057" height="110.058" viewBox="0 0 110.057 110.058">
  <defs>
    <filter id="Trazado_874925" x="0" y="0" width="110.057" height="110.058" filterUnits="userSpaceOnUse">
      <feOffset dy="3" input="SourceAlpha"/>
      <feGaussianBlur stdDeviation="3" result="blur"/>
      <feFlood flood-opacity="0.161"/>
      <feComposite operator="in" in2="blur"/>
      <feComposite in="SourceGraphic"/>
    </filter>
    <clipPath id="clip-path">
      <rect id="Rectángulo_415542" data-name="Rectángulo 415542" width="61" height="55" transform="translate(0.257 -0.143)" fill="none"/>
    </clipPath>
  </defs>
  <g id="Grupo_1175163" data-name="Grupo 1175163" transform="translate(9 6)">
    <g id="Grupo_1109819" data-name="Grupo 1109819" transform="translate(0 0)">
      <g transform="matrix(1, 0, 0, 1, -9, -6)" filter="url(#Trazado_874925)">
        <g id="Trazado_874925-2" data-name="Trazado 874925" transform="translate(9 6)" fill="#efdb59" opacity="0.859">
          <path d="M 46.02833557128906 90.55719757080078 C 40.01638793945312 90.55719757080078 34.1850700378418 89.38008880615234 28.69636154174805 87.05855560302734 C 23.39413642883301 84.81590270996094 18.63193511962891 81.60504150390625 14.54205513000488 77.51514434814453 C 10.45216178894043 73.42526245117188 7.241295337677002 68.66306304931641 4.998642444610596 63.36083984375 C 2.677109003067017 57.87213134765625 1.500002264976501 52.04081344604492 1.500002264976501 46.02886581420898 C 1.500002264976501 40.01638412475586 2.677109003067017 34.18506622314453 4.998642444610596 28.69635963439941 C 7.241295337677002 23.39413261413574 10.45216178894043 18.63193130493164 14.54205513000488 14.54205226898193 C 18.63193511962891 10.45215892791748 23.39413642883301 7.241291999816895 28.69636154174805 4.99863862991333 C 34.1850700378418 2.67710542678833 40.01638793945312 1.499998807907104 46.02833557128906 1.499998807907104 C 52.040283203125 1.499998807907104 57.87160110473633 2.67710542678833 63.36030960083008 4.99863862991333 C 68.66253662109375 7.241291999816895 73.42473602294922 10.45215892791748 77.51461791992188 14.54205226898193 C 81.60450744628906 18.63193130493164 84.81537628173828 23.39413261413574 87.05802917480469 28.69635963439941 C 89.37956237792969 34.18506622314453 90.55667114257812 40.01638412475586 90.55667114257812 46.0283317565918 C 90.55667114257812 52.04081344604492 89.37956237792969 57.87213134765625 87.05802917480469 63.36083984375 C 84.81537628173828 68.66306304931641 81.60450744628906 73.42526245117188 77.51461791992188 77.51514434814453 C 73.42473602294922 81.60504150390625 68.66253662109375 84.81590270996094 63.36030960083008 87.05855560302734 C 57.87160110473633 89.38008880615234 52.040283203125 90.55719757080078 46.02833557128906 90.55719757080078 Z" stroke="none"/>
          <path d="M 46.02833557128906 3 C 40.21821975708008 3 34.5835075378418 4.137245178222656 29.28069305419922 6.380142211914062 C 24.15726470947266 8.547172546386719 19.55532073974609 11.65008544921875 15.60270690917969 15.60271453857422 C 11.65009307861328 19.55532836914062 8.547164916992188 24.15725708007812 6.380134582519531 29.28068542480469 C 4.137237548828125 34.58349990844727 2.999992370605469 40.21822738647461 2.999992370605469 46.02886962890625 C 2.999992370605469 51.83898544311523 4.137237548828125 57.47369766235352 6.380134582519531 62.77651214599609 C 8.547164916992188 67.89994049072266 11.65009307861328 72.50186920166016 15.60270690917969 76.45449829101562 C 19.55532073974609 80.40711212158203 24.15726470947266 83.51002502441406 29.28069305419922 85.67705535888672 C 34.5835075378418 87.91995239257812 40.21821975708008 89.05719757080078 46.02833557128906 89.05719757080078 C 51.83845138549805 89.05719757080078 57.47316360473633 87.91995239257812 62.77597808837891 85.67705535888672 C 67.89940643310547 83.51002502441406 72.50135040283203 80.40711212158203 76.45396423339844 76.45449829101562 C 80.40657806396484 72.50188446044922 83.50949096679688 67.89994049072266 85.67652130126953 62.77651214599609 C 87.91941833496094 57.47369766235352 89.05666351318359 51.83898544311523 89.05666351318359 46.02834320068359 C 89.05666351318359 40.21822738647461 87.91941833496094 34.58349990844727 85.67652130126953 29.28068542480469 C 83.50949096679688 24.15725708007812 80.40657806396484 19.55532836914062 76.45396423339844 15.60271453857422 C 72.50133514404297 11.65008544921875 67.89940643310547 8.547172546386719 62.77597808837891 6.380142211914062 C 57.47316360473633 4.137245178222656 51.83845138549805 3 46.02833557128906 3 M 46.02833557128906 0 C 71.44908142089844 0 92.05666351318359 20.60758209228516 92.05666351318359 46.02834320068359 L 92.05666351318359 46.02886962890625 C 92.05666351318359 71.44961547851562 71.44908142089844 92.05719757080078 46.02833557128906 92.05719757080078 C 20.60758972167969 92.05719757080078 -7.62939453125e-06 71.44961547851562 -7.62939453125e-06 46.02886962890625 L -7.62939453125e-06 46.02834320068359 C -7.62939453125e-06 20.60758209228516 20.60758972167969 0 46.02833557128906 0 Z" stroke="none" fill="#fff"/>
        </g>
      </g>
      <g id="Trazado_874923" data-name="Trazado 874923" transform="translate(0 0)" fill="none">
        <path d="M46.028,0A46.028,46.028,0,0,1,92.057,46.028h0A46.028,46.028,0,0,1,0,46.029H0A46.028,46.028,0,0,1,46.028,0Z" stroke="none"/>
        <path d="M 46.02833557128906 3 C 40.21821975708008 3 34.5835075378418 4.137245178222656 29.28069305419922 6.380142211914062 C 24.15726470947266 8.547172546386719 19.55532073974609 11.65008544921875 15.60270690917969 15.60271453857422 C 11.65009307861328 19.55532836914062 8.547164916992188 24.15725708007812 6.380134582519531 29.28068542480469 C 4.137237548828125 34.58349990844727 2.999992370605469 40.21822738647461 2.999992370605469 46.02886962890625 C 2.999992370605469 51.83898544311523 4.137237548828125 57.47369766235352 6.380134582519531 62.77651214599609 C 8.547164916992188 67.89994049072266 11.65009307861328 72.50186920166016 15.60270690917969 76.45449829101562 C 19.55532073974609 80.40711212158203 24.15726470947266 83.51002502441406 29.28069305419922 85.67705535888672 C 34.5835075378418 87.91995239257812 40.21821975708008 89.05719757080078 46.02833557128906 89.05719757080078 C 51.83845138549805 89.05719757080078 57.47316360473633 87.91995239257812 62.77597808837891 85.67705535888672 C 67.89940643310547 83.51002502441406 72.50135040283203 80.40711212158203 76.45396423339844 76.45449829101562 C 80.40657806396484 72.50188446044922 83.50949096679688 67.89994049072266 85.67652130126953 62.77651214599609 C 87.91941833496094 57.47369766235352 89.05666351318359 51.83898544311523 89.05666351318359 46.02834320068359 C 89.05666351318359 40.21822738647461 87.91941833496094 34.58349990844727 85.67652130126953 29.28068542480469 C 83.50949096679688 24.15725708007812 80.40657806396484 19.55532836914062 76.45396423339844 15.60271453857422 C 72.50133514404297 11.65008544921875 67.89940643310547 8.547172546386719 62.77597808837891 6.380142211914062 C 57.47316360473633 4.137245178222656 51.83845138549805 3 46.02833557128906 3 M 46.02833557128906 0 C 71.44908142089844 0 92.05666351318359 20.60758209228516 92.05666351318359 46.02834320068359 L 92.05666351318359 46.02886962890625 C 92.05666351318359 71.44961547851562 71.44908142089844 92.05719757080078 46.02833557128906 92.05719757080078 C 20.60758972167969 92.05719757080078 -7.62939453125e-06 71.44961547851562 -7.62939453125e-06 46.02886962890625 L -7.62939453125e-06 46.02834320068359 C -7.62939453125e-06 20.60758209228516 20.60758972167969 0 46.02833557128906 0 Z" stroke="none" fill="#fff"/>
      </g>
    </g>
    <g id="Grupo_1175637" data-name="Grupo 1175637" transform="translate(15.094 17.867)">
      <g id="Grupo_1175632" data-name="Grupo 1175632" transform="translate(0.01 0.379)">
        <g id="Grupo_1175631" data-name="Grupo 1175631" clip-path="url(#clip-path)">
          <path id="Trazado_1031057" data-name="Trazado 1031057" d="M38.518,160.059h5.208v18.217H12.543V167.731a3.189,3.189,0,0,1,2.635-3.144Z" transform="translate(-10.551 -134.868)" fill="#aad667"/>
          <rect id="Rectángulo_415536" data-name="Rectángulo 415536" width="4.786" height="18.217" transform="translate(28.388 25.191)" fill="#99c94f"/>
          <path id="Trazado_1031058" data-name="Trazado 1031058" d="M20.048,252.872H6.658a1.034,1.034,0,0,1-1.033-1.034V249.85a1.034,1.034,0,0,1,1.033-1.034H20.048Z" transform="translate(-4.737 -209.464)" fill="#82b339"/>
          <path id="Trazado_1031059" data-name="Trazado 1031059" d="M199.1,103.493l-3-4.4V76.809h20.639v26.684Z" transform="translate(-164.82 -64.901)" fill="#73e3f0"/>
          <rect id="Rectángulo_415537" data-name="Rectángulo 415537" width="4.786" height="26.684" transform="translate(47.13 11.908)" fill="#57d7e6"/>
          <path id="Trazado_1031060" data-name="Trazado 1031060" d="M226.391,198.733a13.769,13.769,0,0,1,23.519-9.755l-9.969,9.943Z" transform="translate(-190.28 -155.771)" fill="#82b339"/>
          <path id="Trazado_1031061" data-name="Trazado 1031061" d="M268.079,216.126a10.469,10.469,0,1,1-10.469-10.5,10.485,10.485,0,0,1,10.469,10.5" transform="translate(-207.719 -173.164)" fill="#365e9e"/>
          <path id="Trazado_1031062" data-name="Trazado 1031062" d="M300.151,205.625a10.49,10.49,0,0,0-2.393.276,10.511,10.511,0,0,1,0,20.45,10.5,10.5,0,1,0,2.393-20.726" transform="translate(-250.26 -173.164)" fill="#254e8f"/>
          <path id="Trazado_1031063" data-name="Trazado 1031063" d="M284.593,248.554a5.363,5.363,0,1,1,5.347-5.363,5.361,5.361,0,0,1-5.347,5.363" transform="translate(-234.702 -200.229)" fill="#cad4e6"/>
          <path id="Trazado_1031064" data-name="Trazado 1031064" d="M12.543,210.934h2.348a1.947,1.947,0,0,1,1.634,3l-1.892,2.955H12.543Z" transform="translate(-10.551 -177.626)" fill="#fed23a"/>
          <path id="Trazado_1031065" data-name="Trazado 1031065" d="M52.228,247.591a7.919,7.919,0,1,1-7.919-7.943,7.931,7.931,0,0,1,7.919,7.943" transform="translate(-30.594 -201.759)" fill="#365e9e"/>
          <path id="Trazado_1031066" data-name="Trazado 1031066" d="M73.413,239.648a7.892,7.892,0,0,0-2.393.37,7.951,7.951,0,0,1,0,15.145,7.939,7.939,0,1,0,2.393-15.515" transform="translate(-59.698 -201.759)" fill="#254e8f"/>
          <path id="Trazado_1031067" data-name="Trazado 1031067" d="M64.716,272.117a4.056,4.056,0,1,1,4.044-4.056,4.055,4.055,0,0,1-4.044,4.056" transform="translate(-51.001 -222.229)" fill="#cad4e6"/>
          <path id="Trazado_1031068" data-name="Trazado 1031068" d="M205.065,58.056H183.35a1.78,1.78,0,1,1,0-3.56h21.715a1.78,1.78,0,0,1,0,3.56" transform="translate(-152.61 -46.148)" fill="#aad667"/>
          <rect id="Rectángulo_415538" data-name="Rectángulo 415538" width="7.251" height="14.155" transform="translate(32.116 34.191)" fill="#82b339"/>
          <rect id="Rectángulo_415539" data-name="Rectángulo 415539" width="3.59" height="14.155" transform="translate(35.777 34.191)" fill="#78a635"/>
          <rect id="Rectángulo_415540" data-name="Rectángulo 415540" width="7.251" height="7.077" transform="translate(32.116 34.191)" fill="#aad667"/>
          <rect id="Rectángulo_415541" data-name="Rectángulo 415541" width="3.625" height="7.077" transform="translate(35.741 34.191)" fill="#99c94f"/>
          <path id="Trazado_1031069" data-name="Trazado 1031069" d="M171.424,199.99h-.007a2.6,2.6,0,0,1-2.6-2.6v-6.284h5.208v6.284a2.6,2.6,0,0,1-2.6,2.6" transform="translate(-141.891 -160.961)" fill="#97a6bf"/>
          <path id="Trazado_1031070" data-name="Trazado 1031070" d="M156.636,97.441V84.793L151.49,79.66,149.145,82l3.926,3.916V97.441Z" transform="translate(-125.358 -67.297)" fill="#6d788a"/>
          <path id="Trazado_1031071" data-name="Trazado 1031071" d="M199.112,10.4h-4.159l.69-4.2h2.779Z" transform="translate(-163.858 -5.556)" fill="#fed23a"/>
        </g>
      </g>
      <g id="Grupo_1175634" data-name="Grupo 1175634" transform="translate(0.01 0.379)">
        <g id="Grupo_1175633" data-name="Grupo 1175633" clip-path="url(#clip-path)">
          <path id="Trazado_1031072" data-name="Trazado 1031072" d="M279.865,232.2a6.26,6.26,0,0,0,0,12.521,6.169,6.169,0,0,0,2.58-.56.9.9,0,0,0-.745-1.633,4.391,4.391,0,0,1-1.835.4,4.461,4.461,0,1,1,4.311-3.358.9.9,0,0,0,1.74.443,6.265,6.265,0,0,0-6.05-7.811" transform="translate(-229.975 -195.502)" fill="#060606"/>
          <path id="Trazado_1031073" data-name="Trazado 1031073" d="M60.369,53.8H55.335a11.406,11.406,0,0,0,3.2-17.411l1.734-1.715a.9.9,0,0,0,0-1.273,14.574,14.574,0,0,0-7.451-4.019V13.61a2.677,2.677,0,0,0-.359-5.33H34.081V6.566h1.182a.9.9,0,0,0,.885-1.043l-.69-4.2a.9.9,0,0,0-.886-.752H31.794a.9.9,0,0,0-.885.752l-.69,4.2A.9.9,0,0,0,31.1,6.566h1.182V8.28H30.749a2.677,2.677,0,0,0-.359,5.33v2.553l-3.616-3.606a.9.9,0,0,0-1.268,0L23.162,14.9a.9.9,0,0,0,0,1.271l3.662,3.652v5.511L17,27.234A.9.9,0,0,0,17.345,29l9.479-1.839v2.926a.9.9,0,0,0-.787.89v6.284a3.5,3.5,0,0,0,3.5,3.5h.007a3.48,3.48,0,0,0,1.686-.434v3.018H21.892A8.794,8.794,0,0,0,8.874,39.283h-3.2l1.065-1.665A2.879,2.879,0,0,0,4.35,33.239h-1.4a2.283,2.283,0,0,1,1.846-1.808l.017,0,7.284-1.413a.9.9,0,0,0-.342-1.762L4.473,29.665A4.079,4.079,0,0,0,1.1,33.692v5.78A1.933,1.933,0,0,0,0,41.215V43.2a1.933,1.933,0,0,0,1.931,1.931H5.043A8.832,8.832,0,0,0,8.533,53.8H.9a.9.9,0,0,0,0,1.795H60.369a.9.9,0,0,0,0-1.795M32.556,2.369h1.255l.4,2.4H32.162ZM49.9,53.394a9.6,9.6,0,1,1,9.572-9.6,9.6,9.6,0,0,1-9.572,9.6m7.367-18.276a11.332,11.332,0,0,0-16.994,2.619V35.225a12.845,12.845,0,0,1,18.072-1.172Zm-24.245.8h5.456V41.2H33.023Zm0,7.077h5.456v5.282H33.023ZM49.9,29.09a14.624,14.624,0,0,0-11.049,5.033H33.04v-3.15a.9.9,0,0,0-.856-.895V13.635H51.028v15.5q-.56-.043-1.128-.043M29.867,10.957a.883.883,0,0,1,.883-.882H52.464a.883.883,0,0,1,0,1.765H30.749a.883.883,0,0,1-.883-.883m-4.8,4.573L26.14,14.46,30.39,18.7V30.076H28.619V19.446a.9.9,0,0,0-.264-.636Zm4.476,23.43a1.731,1.731,0,0,1-1.71-1.7V31.87h3.413l-.017,5.615a1.7,1.7,0,0,1-1.686,1.475M5.264,35.578a1.039,1.039,0,0,1-.036,1.074L3.6,39.193H2.9V35.034H4.35a1.028,1.028,0,0,1,.914.543M1.931,43.339a.136.136,0,0,1-.136-.136V41.215a.136.136,0,0,1,.136-.137H6.894a8.855,8.855,0,0,0-1.337,2.261ZM6.7,46.661a7.021,7.021,0,1,1,7.021,7.045A7.041,7.041,0,0,1,6.7,46.661m15.837,0a8.861,8.861,0,0,0-.134-1.526h8.822v4.041a.9.9,0,0,0,.9.9h7.251a.9.9,0,0,0,.77-.437,11.467,11.467,0,0,0,4.32,4.164H18.915a8.84,8.84,0,0,0,3.625-7.139" transform="translate(-0.009 -0.829)" fill="#060606"/>
        </g>
      </g>
      <g id="Grupo_1175636" data-name="Grupo 1175636" transform="translate(0.01 0.379)">
        <g id="Grupo_1175635" data-name="Grupo 1175635" clip-path="url(#clip-path)">
          <path id="Trazado_1031074" data-name="Trazado 1031074" d="M59.989,268.287a4.954,4.954,0,1,0-4.942-4.954,4.953,4.953,0,0,0,4.942,4.954m0-8.113a3.159,3.159,0,1,1-3.147,3.159,3.157,3.157,0,0,1,3.147-3.159" transform="translate(-46.274 -217.501)" fill="#060606"/>
          <path id="Trazado_1031075" data-name="Trazado 1031075" d="M212.525,95.633a.9.9,0,0,0,.634-.262l2.129-2.124a.9.9,0,0,0-1.268-1.271L211.891,94.1a.919.919,0,0,0,.634,1.532" transform="translate(-177.891 -77.426)" fill="#060606"/>
          <path id="Trazado_1031076" data-name="Trazado 1031076" d="M218.152,91.977l-6.591,6.573a.9.9,0,0,0,1.268,1.271l6.591-6.574a.9.9,0,0,0-1.268-1.271" transform="translate(-177.593 -77.426)" fill="#060606"/>
        </g>
      </g>
    </g>
  </g>
</svg>
