<svg xmlns="http://www.w3.org/2000/svg" xmlns:xlink="http://www.w3.org/1999/xlink" width="104.825" height="104.825" viewBox="0 0 104.825 104.825">
  <defs>
    <filter id="Trazado_982547" x="0" y="0" width="104.825" height="104.825" filterUnits="userSpaceOnUse">
      <feOffset dy="3" input="SourceAlpha"/>
      <feGaussianBlur stdDeviation="3" result="blur"/>
      <feFlood flood-opacity="0.161"/>
      <feComposite operator="in" in2="blur"/>
      <feComposite in="SourceGraphic"/>
    </filter>
    <clipPath id="clip-path">
      <rect id="Rect치ngulo_415612" data-name="Rect치ngulo 415612" width="50" height="52" transform="translate(0.007 0)" fill="none"/>
    </clipPath>
  </defs>
  <g id="Grupo_1175572" data-name="Grupo 1175572" transform="translate(-586.25 -914.212)">
    <g id="Grupo_1175060" data-name="Grupo 1175060" transform="translate(595.25 920.212)">
      <g id="Grupo_1174859" data-name="Grupo 1174859" transform="translate(0)">
        <g id="Grupo_1167343" data-name="Grupo 1167343" transform="translate(0)">
          <g id="Grupo_1166777" data-name="Grupo 1166777">
            <g id="Grupo_1164305" data-name="Grupo 1164305">
              <g id="Grupo_1163948" data-name="Grupo 1163948">
                <g id="Grupo_1158168" data-name="Grupo 1158168">
                  <g id="Grupo_1152576" data-name="Grupo 1152576">
                    <g id="Grupo_1148633" data-name="Grupo 1148633">
                      <g id="Grupo_1148525" data-name="Grupo 1148525">
                        <g transform="matrix(1, 0, 0, 1, -9, -6)" filter="url(#Trazado_982547)">
                          <g id="Trazado_982547-2" data-name="Trazado 982547" transform="translate(9 6)" fill="#efdb59">
                            <path d="M 43.41258239746094 85.32517242431641 C 37.75375747680664 85.32517242431641 32.26500701904297 84.21721649169922 27.09878158569336 82.03209686279297 C 22.1080322265625 79.92118072509766 17.62558174133301 76.89891815185547 13.77591991424561 73.04925537109375 C 9.926257133483887 69.19959259033203 6.903995037078857 64.71714782714844 4.793095111846924 59.72639465332031 C 2.607957363128662 54.5601692199707 1.500007390975952 49.07140731811523 1.500007390975952 43.41258239746094 C 1.500007390975952 37.75375747680664 2.607957363128662 32.26500701904297 4.793095111846924 27.09878158569336 C 6.903995037078857 22.1080322265625 9.926257133483887 17.62558174133301 13.77591991424561 13.77591991424561 C 17.62558174133301 9.926257133483887 22.1080322265625 6.903995037078857 27.09878158569336 4.793095111846924 C 32.26500701904297 2.607957363128662 37.75375747680664 1.500007390975952 43.41258239746094 1.500007390975952 C 49.07140731811523 1.500007390975952 54.5601692199707 2.607957363128662 59.72639465332031 4.793095111846924 C 64.71714782714844 6.903995037078857 69.19959259033203 9.926257133483887 73.04925537109375 13.77591991424561 C 76.89891815185547 17.62558174133301 79.92118072509766 22.1080322265625 82.03209686279297 27.09878158569336 C 84.21721649169922 32.26500701904297 85.32517242431641 37.75375747680664 85.32517242431641 43.41258239746094 C 85.32517242431641 49.07140731811523 84.21721649169922 54.5601692199707 82.03209686279297 59.72639465332031 C 79.92118072509766 64.71714782714844 76.89891815185547 69.19959259033203 73.04925537109375 73.04925537109375 C 69.19959259033203 76.89891815185547 64.71714782714844 79.92118072509766 59.72639465332031 82.03209686279297 C 54.5601692199707 84.21721649169922 49.07140731811523 85.32517242431641 43.41258239746094 85.32517242431641 Z" stroke="none"/>
                            <path d="M 43.41258239746094 3 C 37.95559692382812 3 32.6634407043457 4.068084716796875 27.68310928344727 6.174583435058594 C 22.87116622924805 8.209869384765625 18.54896545410156 11.12418365478516 14.83657073974609 14.83657073974609 C 11.12418365478516 18.54896545410156 8.209869384765625 22.87116622924805 6.174583435058594 27.68310928344727 C 4.068084716796875 32.6634407043457 3 37.95559692382812 3 43.41258239746094 C 3 48.86956787109375 4.068084716796875 54.16172409057617 6.174583435058594 59.14206695556641 C 8.209869384765625 63.95401000976562 11.12418365478516 68.27621459960938 14.83657073974609 71.98859405517578 C 18.54896545410156 75.70098114013672 22.87115478515625 78.61529541015625 27.68310928344727 80.65058135986328 C 32.6634407043457 82.757080078125 37.95559692382812 83.82516479492188 43.41258239746094 83.82516479492188 C 48.86956787109375 83.82516479492188 54.16173934936523 82.757080078125 59.14206695556641 80.65058135986328 C 63.95401000976562 78.61529541015625 68.27621459960938 75.70098114013672 71.98859405517578 71.98859405517578 C 75.70098114013672 68.27621459960938 78.61529541015625 63.95401000976562 80.65058135986328 59.14206695556641 C 82.757080078125 54.16173934936523 83.82516479492188 48.86956787109375 83.82516479492188 43.41258239746094 C 83.82516479492188 37.95559692382812 82.757080078125 32.6634407043457 80.65058135986328 27.68310928344727 C 78.61529541015625 22.87115478515625 75.70098114013672 18.54896545410156 71.98859405517578 14.83657073974609 C 68.27621459960938 11.12418365478516 63.95401000976562 8.209869384765625 59.14206695556641 6.174583435058594 C 54.16172409057617 4.068084716796875 48.86956787109375 3 43.41258239746094 3 M 43.41258239746094 0 C 67.38869476318359 0 86.82516479492188 19.43648529052734 86.82516479492188 43.41258239746094 C 86.82516479492188 67.38869476318359 67.38869476318359 86.82516479492188 43.41258239746094 86.82516479492188 C 19.43648529052734 86.82516479492188 0 67.38869476318359 0 43.41258239746094 C 0 19.43648529052734 19.43648529052734 0 43.41258239746094 0 Z" stroke="none" fill="#fbfbf8"/>
                          </g>
                        </g>
                      </g>
                    </g>
                  </g>
                </g>
              </g>
            </g>
          </g>
        </g>
      </g>
    </g>
    <g id="Grupo_1175742" data-name="Grupo 1175742" transform="translate(607.661 937.407)">
      <g id="Grupo_1175741" data-name="Grupo 1175741" transform="translate(6.249 -0.737)" clip-path="url(#clip-path)">
        <path id="Trazado_1031520" data-name="Trazado 1031520" d="M48.183,43.777q0,.538,0,1.077a14.814,14.814,0,0,0-1.748.129,9.236,9.236,0,0,0-7.691,7.3A9.9,9.9,0,0,0,41.971,62.7a8.97,8.97,0,0,0,6.212,2.195q0,.542,0,1.083c-.559.125-.692.283-.7.883-.006,1.161,0,2.322,0,3.483,0,.8,0,.8-.725.8H17.227c-.718,0-.719,0-.719-.747q0-17.089,0-34.178v-.576c.141,0,.232,0,.323,0,1.743.02,3.487.043,5.23.059.91.008,1.386-.49,1.388-1.444,0-.724,0-1.447-.005-2.171,0-1.241,0-2.481,0-3.766H46.808c.678,0,.679,0,.679.73q0,6.866,0,13.732c0,.693.087.811.7,1M32.275,33.663c-2.25,0-4.5,0-6.751,0-.888,0-1.315.455-1.319,1.385q-.006,1.312,0,2.624c0,.939.423,1.423,1.293,1.425q6.775.013,13.55,0c.842,0,1.263-.486,1.271-1.4.008-.858.005-1.716,0-2.574-.005-1.044-.4-1.462-1.389-1.464q-3.328,0-6.656,0m-.253,30.7q-5.562,0-11.124,0c-.549,0-.863.259-.864.7s.321.711.857.722c.063,0,.127,0,.19,0q10.91,0,21.82,0c.218,0,.5.028.639-.1a1.012,1.012,0,0,0,.367-.711c-.028-.221-.317-.434-.532-.587-.111-.079-.308-.023-.467-.023H32.022M31.957,45.1H42.892c.127,0,.254,0,.38,0a.659.659,0,0,0,.674-.692.676.676,0,0,0-.694-.722c-.095-.006-.19,0-.285,0H21c-.142,0-.333-.052-.418.025a1.518,1.518,0,0,0-.526.675.6.6,0,0,0,.537.7,2.255,2.255,0,0,0,.474.015H31.957M29.394,59.186H21.123a4.641,4.641,0,0,0-.475.014.636.636,0,0,0-.606.654.655.655,0,0,0,.578.735,2.334,2.334,0,0,0,.426.022q8.318,0,16.637,0c.188,0,.432.036.552-.07a1.088,1.088,0,0,0,.42-.678c-.01-.223-.275-.47-.48-.632-.116-.092-.337-.043-.511-.043q-4.135,0-8.271,0m-.025-8.923h8.272c.174,0,.387.055.514-.031.206-.138.479-.36.5-.566a1.145,1.145,0,0,0-.351-.726c-.1-.112-.357-.093-.543-.093q-8.39-.006-16.781,0a1.523,1.523,0,0,0-.468.048.647.647,0,0,0-.463.728.639.639,0,0,0,.579.629,3.892,3.892,0,0,0,.475.013H29.37m-.723,5.166h7.6c.158,0,.359.052.465-.029.208-.161.486-.387.506-.609a1.093,1.093,0,0,0-.39-.7c-.113-.11-.361-.082-.548-.082q-7.627-.006-15.254,0c-.188,0-.433-.028-.55.08-.192.179-.425.469-.408.692s.3.452.508.616c.105.083.307.032.465.032h7.6" transform="translate(-14.252 -23.614)" fill="#f2f4f5"/>
        <path id="Trazado_1031521" data-name="Trazado 1031521" d="M39.009,34.656c-.609-.192-.7-.31-.7-1q0-6.866,0-13.732c0-.73,0-.73-.679-.73H14.27c0,1.285,0,2.525,0,3.766,0,.724.007,1.447.005,2.171,0,.954-.478,1.452-1.388,1.444-1.743-.016-3.487-.039-5.23-.059-.091,0-.183,0-.323,0v.576q0,17.089,0,34.178c0,.747,0,.748.719.748H37.588c.725,0,.725,0,.725-.8,0-1.161,0-2.322,0-3.484,0-.6.136-.757.7-.883a.756.756,0,0,1,.642.852c0,1.313.013,2.625,0,3.937a1.661,1.661,0,0,1-1.72,1.789q-15.1.005-30.2,0A1.663,1.663,0,0,1,6,61.606q0-17.794.013-35.588a1.427,1.427,0,0,1,.349-.874q3.27-3.525,6.59-7a1.263,1.263,0,0,1,.826-.363q12.055-.029,24.111-.014a1.66,1.66,0,0,1,1.763,1.885c0,4.661,0,9.322.007,13.983,0,.519-.144.886-.649,1.018M12.9,25.1V20.381L8.443,25.1Z" transform="translate(-5.078 -14.493)" fill="#040404"/>
        <path id="Trazado_1031522" data-name="Trazado 1031522" d="M198.345,170.962a8.968,8.968,0,0,1-6.212-2.2,9.9,9.9,0,0,1-3.226-10.412,9.236,9.236,0,0,1,7.691-7.3,14.807,14.807,0,0,1,1.748-.129,9.172,9.172,0,0,1,7.157,3.993,10.453,10.453,0,0,1-.124,12.216l-.257.349c.35.486.694.982,1.061,1.459a.519.519,0,0,0,.353.173,1.793,1.793,0,0,1,1.422.794c1.39,1.92,2.785,3.836,4.158,5.768a1.988,1.988,0,0,1-.344,2.774q-.74.632-1.51,1.224a1.717,1.717,0,0,1-2.545-.342c-1.432-1.948-2.838-3.918-4.246-5.887a1.935,1.935,0,0,1-.317-1.575.673.673,0,0,0-.085-.455c-.32-.479-.667-.936-1.035-1.443a10.052,10.052,0,0,1-3.69.986m-.368-18.6a8.6,8.6,0,0,0,.054,17.172c4.43-.006,8.037-3.88,8.03-8.623a8.316,8.316,0,0,0-8.084-8.549m11.108,26.322a1.109,1.109,0,0,0,.3-.1c.555-.445,1.127-.872,1.639-1.367a.772.772,0,0,0-.007-.7c-1.344-1.91-2.718-3.8-4.083-5.689a.5.5,0,0,0-.816-.141q-.72.576-1.431,1.164a.549.549,0,0,0-.1.832q2.048,2.839,4.1,5.674a1.858,1.858,0,0,0,.39.323m-5.881-9.408.917,1.26.958-.781-.909-1.26-.966.781" transform="translate(-164.414 -129.685)" fill="#040404"/>
        <path id="Trazado_1031523" data-name="Trazado 1031523" d="M85.112,67.97q3.328,0,6.656,0c.987,0,1.383.42,1.389,1.464,0,.858.007,1.716,0,2.574-.008.911-.429,1.395-1.271,1.4q-6.775.014-13.55,0c-.87,0-1.29-.486-1.293-1.425q0-1.312,0-2.624c0-.929.431-1.383,1.319-1.385,2.25,0,4.5,0,6.751,0m-6.723,3.988h13.4V69.424h-13.4Z" transform="translate(-67.09 -57.92)" fill="#040404"/>
        <path id="Trazado_1031524" data-name="Trazado 1031524" d="M56.238,295.411H67.124c.158,0,.356-.056.467.023.215.153.5.366.532.587a1.012,1.012,0,0,1-.366.711c-.142.125-.421.1-.639.1q-10.91.006-21.82,0c-.063,0-.127,0-.19,0-.536-.011-.858-.283-.857-.722s.315-.7.864-.7q5.562,0,11.124,0" transform="translate(-38.468 -254.663)" fill="#040404"/>
        <path id="Trazado_1031525" data-name="Trazado 1031525" d="M56.259,143.533H45.372a2.254,2.254,0,0,1-.474-.015.6.6,0,0,1-.537-.7,1.518,1.518,0,0,1,.526-.675c.084-.077.275-.025.418-.025H67.269c.1,0,.19,0,.285,0a.677.677,0,0,1,.694.722.659.659,0,0,1-.674.692c-.126.007-.253,0-.38,0H56.259" transform="translate(-38.554 -122.049)" fill="#040404"/>
        <path id="Trazado_1031526" data-name="Trazado 1031526" d="M53.664,257.084q4.135,0,8.271,0c.174,0,.395-.049.511.043.205.162.469.409.48.632a1.088,1.088,0,0,1-.42.678c-.12.106-.364.07-.552.07q-8.318,0-16.637,0a2.337,2.337,0,0,1-.426-.022.655.655,0,0,1-.578-.735.636.636,0,0,1,.606-.654,4.631,4.631,0,0,1,.475-.014h8.271" transform="translate(-38.521 -221.513)" fill="#040404"/>
        <path id="Trazado_1031527" data-name="Trazado 1031527" d="M53.622,181.91H45.35a3.9,3.9,0,0,1-.475-.013.639.639,0,0,1-.579-.629.647.647,0,0,1,.464-.728,1.522,1.522,0,0,1,.468-.048q8.39,0,16.781,0c.186,0,.439-.019.543.093a1.145,1.145,0,0,1,.351.726c-.017.207-.29.428-.5.566-.127.085-.339.031-.514.031H53.622" transform="translate(-38.504 -155.261)" fill="#040404"/>
        <path id="Trazado_1031528" data-name="Trazado 1031528" d="M53.115,220.176q-3.8,0-7.6,0c-.158,0-.36.051-.465-.032-.209-.164-.491-.393-.508-.616s.216-.514.408-.693c.116-.108.362-.08.55-.08q7.627-.005,15.254,0c.187,0,.435-.027.548.082a1.094,1.094,0,0,1,.39.7c-.019.222-.3.448-.506.609-.106.082-.307.029-.465.029h-7.6" transform="translate(-38.72 -188.362)" fill="#040404"/>
        <path id="Trazado_1031529" data-name="Trazado 1031529" d="M29.695,41.856h-4.46l4.46-4.721Z" transform="translate(-21.87 -31.247)" fill="#f2f4f5"/>
        <path id="Trazado_1031530" data-name="Trazado 1031530" d="M207.273,161.556a8.316,8.316,0,0,1,8.084,8.548c.007,4.744-3.6,8.617-8.03,8.623a8.6,8.6,0,0,1-.054-17.171m-.01,15.385a6.829,6.829,0,1,0-6.4-6.8,6.636,6.636,0,0,0,6.4,6.8" transform="translate(-173.709 -138.882)" fill="#a6adb8"/>
        <path id="Trazado_1031531" data-name="Trazado 1031531" d="M318.379,304.438a1.864,1.864,0,0,1-.39-.323q-2.059-2.83-4.1-5.674a.549.549,0,0,1,.1-.832q.711-.589,1.431-1.164a.5.5,0,0,1,.816.141c1.365,1.893,2.739,3.779,4.083,5.689a.772.772,0,0,1,.007.7c-.513.5-1.084.922-1.639,1.367a1.111,1.111,0,0,1-.3.1" transform="translate(-273.707 -255.442)" fill="#d2a687"/>
        <path id="Trazado_1031532" data-name="Trazado 1031532" d="M303.97,281.914l.966-.781.909,1.26-.958.781-.916-1.26" transform="translate(-265.179 -242.327)" fill="#a6adb8"/>
        <rect id="Rect치ngulo_415611" data-name="Rect치ngulo 415611" width="13.405" height="2.534" transform="translate(11.299 11.503)" fill="#c2e591"/>
        <path id="Trazado_1031533" data-name="Trazado 1031533" d="M218.81,188.174a6.83,6.83,0,0,1,.029-13.634,6.828,6.828,0,0,1-.029,13.634m-5.059-6.829a5.088,5.088,0,1,0,5.079-5.381,5.227,5.227,0,0,0-5.079,5.381" transform="translate(-185.257 -150.114)" fill="#040404"/>
        <path id="Trazado_1031534" data-name="Trazado 1031534" d="M222.955,190.471A5.089,5.089,0,1,1,228,195.878a5.251,5.251,0,0,1-5.041-5.407m4.31.817c-.479-.512-.9-.986-1.35-1.436a.608.608,0,0,0-.966-.007.7.7,0,0,0,.018.992q.89.979,1.812,1.925a.6.6,0,0,0,.938.027q1.714-1.779,3.392-3.6a.7.7,0,0,0-.018-.994.609.609,0,0,0-.9-.019,3.368,3.368,0,0,0-.274.279l-2.651,2.83" transform="translate(-194.46 -159.241)" fill="#f2f4f5"/>
        <path id="Trazado_1031535" data-name="Trazado 1031535" d="M239.585,209.877l2.651-2.83a3.365,3.365,0,0,1,.273-.279.61.61,0,0,1,.9.019.7.7,0,0,1,.018.994q-1.681,1.815-3.392,3.6a.6.6,0,0,1-.938-.027q-.921-.946-1.812-1.925a.7.7,0,0,1-.018-.992.608.608,0,0,1,.966.007c.445.451.871.924,1.35,1.436" transform="translate(-206.781 -177.831)" fill="#040404"/>
      </g>
    </g>
  </g>
</svg>
