<svg xmlns="http://www.w3.org/2000/svg" xmlns:xlink="http://www.w3.org/1999/xlink" width="84.236" height="84.236" viewBox="0 0 84.236 84.236">
  <defs>
    <filter id="Trazado_982547" x="0" y="0" width="84.236" height="84.236" filterUnits="userSpaceOnUse">
      <feOffset dy="3" input="SourceAlpha"/>
      <feGaussianBlur stdDeviation="3" result="blur"/>
      <feFlood flood-opacity="0.161"/>
      <feComposite operator="in" in2="blur"/>
      <feComposite in="SourceGraphic"/>
    </filter>
    <clipPath id="clip-path">
      <rect id="Rectángulo_415602" data-name="Rectángulo 415602" width="39.711" height="39.708" fill="none"/>
    </clipPath>
  </defs>
  <g id="Grupo_1175535" data-name="Grupo 1175535" transform="translate(-586.25 -914.212)">
    <g id="Grupo_1175060" data-name="Grupo 1175060" transform="translate(595.25 920.212)">
      <g id="Grupo_1174859" data-name="Grupo 1174859" transform="translate(0)">
        <g id="Grupo_1167343" data-name="Grupo 1167343">
          <g id="Grupo_1166777" data-name="Grupo 1166777" transform="translate(0)">
            <g id="Grupo_1164305" data-name="Grupo 1164305">
              <g id="Grupo_1163948" data-name="Grupo 1163948">
                <g id="Grupo_1158168" data-name="Grupo 1158168">
                  <g id="Grupo_1152576" data-name="Grupo 1152576">
                    <g id="Grupo_1148633" data-name="Grupo 1148633">
                      <g id="Grupo_1148525" data-name="Grupo 1148525">
                        <g transform="matrix(1, 0, 0, 1, -9, -6)" filter="url(#Trazado_982547)">
                          <g id="Trazado_982547-2" data-name="Trazado 982547" transform="translate(9 6)" fill="#f4f9ff">
                            <path d="M 33.1181640625 64.73633575439453 C 28.84908485412598 64.73633575439453 24.70849418640137 63.90056228637695 20.81141471862793 62.25223541259766 C 17.04652404785156 60.65982437133789 13.66499423980713 58.37983322143555 10.7607536315918 55.47559356689453 C 7.856503963470459 52.57134246826172 5.57651424407959 49.18981552124023 3.984104156494141 45.42492294311523 C 2.335773944854736 41.5278434753418 1.500004053115845 37.38725280761719 1.500004053115845 33.1181640625 C 1.500004053115845 28.84908485412598 2.335773944854736 24.70849418640137 3.984104156494141 20.81141471862793 C 5.57651424407959 17.04652404785156 7.856513977050781 13.66499423980713 10.7607536315918 10.7607536315918 C 13.66499423980713 7.856513977050781 17.04652404785156 5.57651424407959 20.81141471862793 3.984104156494141 C 24.70849418640137 2.335773944854736 28.84908485412598 1.500004053115845 33.1181640625 1.500004053115845 C 37.38725280761719 1.500004053115845 41.5278434753418 2.335773944854736 45.42492294311523 3.984104156494141 C 49.18981552124023 5.57651424407959 52.57134246826172 7.856503963470459 55.47559356689453 10.7607536315918 C 58.37983322143555 13.66499423980713 60.65982437133789 17.04652404785156 62.25223541259766 20.81141471862793 C 63.90056228637695 24.70849418640137 64.73633575439453 28.84908485412598 64.73633575439453 33.1181640625 C 64.73633575439453 37.38725280761719 63.90056228637695 41.5278434753418 62.25223541259766 45.42492294311523 C 60.65982437133789 49.18981552124023 58.37983322143555 52.57135391235352 55.47559356689453 55.47559356689453 C 52.57135391235352 58.37983322143555 49.18981552124023 60.65982437133789 45.42492294311523 62.25223541259766 C 41.5278434753418 63.90056228637695 37.38725280761719 64.73633575439453 33.1181640625 64.73633575439453 Z" stroke="none"/>
                            <path d="M 33.1181640625 2.999996185302734 C 29.05091857910156 2.999996185302734 25.10691833496094 3.7958984375 21.3957405090332 5.365596771240234 C 17.80964279174805 6.88238525390625 14.58837509155273 9.054443359375 11.82140731811523 11.82140731811523 C 9.054443359375 14.58837509155273 6.88238525390625 17.80964279174805 5.365596771240234 21.3957405090332 C 3.7958984375 25.10691833496094 2.999996185302734 29.05091857910156 2.999996185302734 33.1181640625 C 2.999996185302734 37.18541717529297 3.7958984375 41.12940979003906 5.365596771240234 44.84059906005859 C 6.88238525390625 48.42668533325195 9.054431915283203 51.64796447753906 11.82140731811523 54.41493225097656 C 14.58837509155273 57.1818962097168 17.80964279174805 59.35394287109375 21.39572906494141 60.87073135375977 C 25.10691833496094 62.4404296875 29.05091857910156 63.23633193969727 33.1181640625 63.23633193969727 C 37.18541717529297 63.23633193969727 41.12940979003906 62.4404296875 44.84059906005859 60.87073135375977 C 48.42668533325195 59.35394287109375 51.64796447753906 57.1818962097168 54.41493225097656 54.41493225097656 C 57.1818962097168 51.64796447753906 59.35394287109375 48.42668533325195 60.87073135375977 44.84059906005859 C 62.4404296875 41.12940979003906 63.23633193969727 37.18541717529297 63.23633193969727 33.1181640625 C 63.23633193969727 29.05091857910156 62.4404296875 25.10691833496094 60.87073135375977 21.39572906494141 C 59.35394287109375 17.80964279174805 57.1818962097168 14.58837509155273 54.41493225097656 11.82140731811523 C 51.64796447753906 9.054431915283203 48.42668533325195 6.88238525390625 44.84059906005859 5.365596771240234 C 41.12940979003906 3.7958984375 37.18541717529297 2.999996185302734 33.1181640625 2.999996185302734 M 33.1181640625 0 C 51.40882873535156 0 66.236328125 14.82750701904297 66.236328125 33.1181640625 C 66.236328125 51.40882873535156 51.40882873535156 66.236328125 33.1181640625 66.236328125 C 14.82750701904297 66.236328125 0 51.40882873535156 0 33.1181640625 C 0 14.82750701904297 14.82750701904297 0 33.1181640625 0 Z" stroke="none" fill="#719acc"/>
                          </g>
                        </g>
                      </g>
                    </g>
                  </g>
                </g>
              </g>
            </g>
          </g>
        </g>
      </g>
    </g>
    <g id="Grupo_1175731" data-name="Grupo 1175731" transform="translate(608.513 933.476)">
      <g id="Grupo_1175730" data-name="Grupo 1175730" clip-path="url(#clip-path)">
        <path id="Trazado_1031442" data-name="Trazado 1031442" d="M30.8,39.061c.9.007,1.808.017,2.712.02A3.806,3.806,0,0,1,37.488,42.6c.087.018.184.039.281.058a2.3,2.3,0,0,1,1.911,2.694A3.7,3.7,0,0,1,37.1,48.493a.345.345,0,0,0-.276.378q-.343,7.064-.7,14.127c-.054,1.1-.106,2.193-.167,3.29-.01.187.011.295.217.377a4.141,4.141,0,0,1-.657,7.989c-.028,0-.052.045-.077.069H18.146a4.834,4.834,0,0,1-2.252-1.2c-1.119.354-2.152.69-3.192,1a10.019,10.019,0,0,1-.992.2H9.461a4.018,4.018,0,0,0-.493-.143A10.708,10.708,0,0,1,.3,66.513C.2,66.1.1,65.68,0,65.264V62.783c.1-.43.207-.859.306-1.289a10.738,10.738,0,0,1,9.3-8.111,11.492,11.492,0,0,1,4.217.4c-.04-.875-.076-1.721-.117-2.567-.037-.748-.1-1.495-.114-2.243a.458.458,0,0,0-.366-.516,3.718,3.718,0,0,1-2.52-3.423,2.266,2.266,0,0,1,1.937-2.378c.087-.017.175-.031.156-.028a11.756,11.756,0,0,1,.711-1.76,3.645,3.645,0,0,1,3.274-1.786c.942-.012,1.884-.015,2.826-.022h1.552c1.91.007,3.819.017,5.729.02.787,0,1.573-.013,2.36-.02H30.8M15.289,51.69c.032.774.072,1.547.091,2.321a.643.643,0,0,0,.4.619,10.7,10.7,0,0,1,1.833,17.54c-.145.122-.291.242-.508.422a3.727,3.727,0,0,0,.913.432c.606.093,1.226.1,1.841.135H31.536c-.091-.141-.16-.245-.226-.35a3.955,3.955,0,0,1-.629-2.689,4.092,4.092,0,0,1,3.43-3.63c.181-.036.3-.078.307-.306.014-.7.05-1.39.078-2.085.03-.515.063-1.029.09-1.544q.183-3.572.361-7.144c.071-1.467.126-2.935.188-4.4l.153-2.3H15.11l.156,2.3q.011.341.023.681M19.824,64.3a9.141,9.141,0,1,0-9.6,8.866,9.179,9.179,0,0,0,9.6-8.866m5.4-20.118H20.848q-3.837,0-7.673,0c-.713,0-1.014.354-.907,1.055a2.2,2.2,0,0,0,2.172,1.888q10.754.007,21.509,0A2.17,2.17,0,0,0,38.1,45.362c.178-.818-.11-1.181-.938-1.181H25.227m10.681-1.569a2.374,2.374,0,0,0-.035-.282,2.253,2.253,0,0,0-2.34-1.7q-8.332,0-16.665,0c-.078,0-.155,0-.233,0a2.165,2.165,0,0,0-2.125,1.977Zm1.483,27.966a2.575,2.575,0,0,0-2.564-2.6,2.6,2.6,0,1,0,2.564,2.6" transform="translate(0 -35.015)" fill="#072c75"/>
        <path id="Trazado_1031444" data-name="Trazado 1031444" d="M113.063,372.986a10.063,10.063,0,0,0,.992-.2c1.04-.314,2.073-.65,3.193-1a4.832,4.832,0,0,0,2.252,1.2Z" transform="translate(-101.353 -333.279)" fill="#f9fafc"/>
        <path id="Trazado_1031445" data-name="Trazado 1031445" d="M200.477,4.046h-1.552c0-.439.006-.877,0-1.316a1.126,1.126,0,0,0-1.14-1.165q-2.9-.016-5.8,0a1.125,1.125,0,0,0-1.139,1.165c-.009.438,0,.877,0,1.315h-1.552c0-.49-.008-.981.008-1.471A2.659,2.659,0,0,1,191.862.021q3.019-.04,6.039,0a2.659,2.659,0,0,1,2.57,2.593c.014.477,0,.955.006,1.432" transform="translate(-169.68 -0.001)" fill="#fc8f03"/>
        <path id="Trazado_1031446" data-name="Trazado 1031446" d="M33.24,201.169a9.141,9.141,0,1,1-8.667-9.414,9.162,9.162,0,0,1,8.667,9.414m-4.635,2.9.214-.36a5.515,5.515,0,0,0-.672-6.541,5.446,5.446,0,0,0-6.381-1.239,3.281,3.281,0,0,1-1.335.312c-.529.022-1.059.047-1.584.113a.753.753,0,0,0-.668.814.764.764,0,0,0,.778.709c.163,0,.326,0,.532,0l-.176.33a5.391,5.391,0,0,0-.489,4.156,5.482,5.482,0,0,0,7.7,3.467,1.507,1.507,0,0,1,.551-.13c.683-.039,1.368-.05,2.052-.087a.773.773,0,1,0-.024-1.545c-.15-.005-.3,0-.5,0" transform="translate(-13.416 -171.885)" fill="#fdfdfd"/>
        <path id="Trazado_1031447" data-name="Trazado 1031447" d="M167.269,154.412c-.062,1.468-.118,2.935-.188,4.4q-.172,3.573-.361,7.144c-.026.515-.06,1.029-.09,1.544-.242.026-.487.04-.727.078a6.18,6.18,0,0,0-4.152,2.511,6.355,6.355,0,0,0-.773,6.471h-8.989c.04-.05.077-.1.122-.149a12.276,12.276,0,0,0,2.664-3.95c.292-.711.519-1.449.775-2.175a.82.82,0,0,0,.924.314c.385-.131.485-.447.556-.81.143-.733.306-1.463.495-2.186a.566.566,0,0,1,.354-.317c.484-.134.984-.207,1.471-.332a6.109,6.109,0,0,0,4.577-6.548,35.033,35.033,0,0,0-.816-3.776,1.444,1.444,0,0,0-2.176-1.025c-.9.426-1.794.851-2.683,1.293a5.859,5.859,0,0,0-2.915,3.033,16.411,16.411,0,0,0-.562,2,1.163,1.163,0,0,1-.108-.156,13.184,13.184,0,0,0-3.551-4.565,11.92,11.92,0,0,0-3.694-2.123q-.011-.341-.023-.681h19.869" transform="translate(-132.134 -138.42)" fill="#fbca4f"/>
        <path id="Trazado_1031448" data-name="Trazado 1031448" d="M131.227,88.491h11.936c.829,0,1.116.363.938,1.181a2.17,2.17,0,0,1-2.154,1.762q-10.754.006-21.509,0a2.2,2.2,0,0,1-2.172-1.888c-.107-.7.194-1.055.907-1.055q3.837,0,7.673,0h4.379" transform="translate(-106 -79.326)" fill="#fbc950"/>
        <path id="Trazado_1031449" data-name="Trazado 1031449" d="M147.621,161a11.919,11.919,0,0,1,3.694,2.123,13.185,13.185,0,0,1,3.55,4.565,1.177,1.177,0,0,0,.108.156c.042.589.049,1.183.134,1.766a9.559,9.559,0,0,0,1.106,2.7.952.952,0,0,1,.058.571c-.117.553-.306,1.091-.409,1.646a2.963,2.963,0,0,0-.114,1.668c-.256.726-.484,1.463-.776,2.175a12.273,12.273,0,0,1-2.664,3.95c-.045.046-.082.1-.122.149-.614-.04-1.235-.042-1.841-.135a3.722,3.722,0,0,1-.913-.432c.217-.18.364-.3.508-.422a10.7,10.7,0,0,0-1.833-17.54.644.644,0,0,1-.4-.619c-.019-.774-.059-1.547-.091-2.321" transform="translate(-132.332 -144.327)" fill="#fb8e02"/>
        <path id="Trazado_1031450" data-name="Trazado 1031450" d="M165.922,134.484H146.053l-.156-2.3h20.178l-.153,2.3" transform="translate(-130.787 -118.492)" fill="#fb8e02"/>
        <path id="Trazado_1031451" data-name="Trazado 1031451" d="M161.513,56.2h-21.4a2.165,2.165,0,0,1,2.125-1.977c.077,0,.155,0,.233,0q8.332,0,16.665,0a2.253,2.253,0,0,1,2.34,1.7,2.412,2.412,0,0,1,.035.282" transform="translate(-125.604 -48.608)" fill="#f88d03"/>
        <path id="Trazado_1031452" data-name="Trazado 1031452" d="M273.791,289.871a6.355,6.355,0,0,1,.773-6.471,6.181,6.181,0,0,1,4.152-2.511c.241-.038.485-.053.727-.078-.028.7-.064,1.39-.078,2.085,0,.228-.126.27-.307.306a4.093,4.093,0,0,0-3.43,3.631,3.955,3.955,0,0,0,.629,2.689c.066.106.135.209.226.35Z" transform="translate(-244.947 -251.727)" fill="#fb8e02"/>
        <path id="Trazado_1031453" data-name="Trazado 1031453" d="M316.045,320.854a2.589,2.589,0,0,1-2.577,2.593,2.6,2.6,0,1,1,.013-5.194,2.575,2.575,0,0,1,2.564,2.6m-2.574.749a.762.762,0,0,0,.768-.759.823.823,0,0,0-.773-.775.78.78,0,0,0-.774.8.737.737,0,0,0,.779.736" transform="translate(-278.654 -285.292)" fill="#66cad0"/>
        <path id="Trazado_1031454" data-name="Trazado 1031454" d="M56.388,235.67c.2,0,.348,0,.5,0a.773.773,0,1,1,.024,1.545c-.684.037-1.369.048-2.052.087a1.507,1.507,0,0,0-.551.13,5.482,5.482,0,0,1-7.7-3.467,5.391,5.391,0,0,1,.489-4.156l.176-.33c-.206,0-.369,0-.532,0a.764.764,0,0,1-.778-.709.753.753,0,0,1,.668-.815c.524-.066,1.055-.09,1.584-.113a3.283,3.283,0,0,0,1.335-.312,5.446,5.446,0,0,1,6.381,1.239,5.515,5.515,0,0,1,.672,6.541l-.214.36M55,234.825a1.82,1.82,0,0,0,.169-.162,3.936,3.936,0,0,0-4.84-5.791.446.446,0,0,0-.2.341c.019.606.078,1.21.112,1.816a.77.77,0,0,1-.7.861.747.747,0,0,1-.836-.719c-.034-.262-.052-.525-.077-.788-.079,0-.088.037-.108.069a3.945,3.945,0,0,0,4.757,5.735.342.342,0,0,0,.253-.4c-.037-.593-.064-1.186-.071-1.78A.772.772,0,1,1,55,233.984c.013.252,0,.505,0,.842" transform="translate(-41.198 -203.483)" fill="#92b709"/>
        <path id="Trazado_1031455" data-name="Trazado 1031455" d="M219.392,179a2.963,2.963,0,0,1,.114-1.668c.1-.555.292-1.093.409-1.646a.952.952,0,0,0-.058-.571,9.555,9.555,0,0,1-1.106-2.7c-.085-.583-.092-1.177-.134-1.766a16.388,16.388,0,0,1,.562-2,5.86,5.86,0,0,1,2.915-3.033c.889-.442,1.786-.867,2.683-1.293a1.444,1.444,0,0,1,2.176,1.025,35.064,35.064,0,0,1,.816,3.776,6.11,6.11,0,0,1-4.577,6.548c-.487.124-.987.2-1.471.332a.566.566,0,0,0-.354.317c-.189.723-.352,1.453-.5,2.186-.071.363-.171.679-.555.81a.82.82,0,0,1-.924-.314m1.348-5.607c.117-.253.2-.458.3-.647.493-.876.979-1.757,1.5-2.617a.758.758,0,0,1,1.128-.282.792.792,0,0,1,.158,1.133c-.226.361-.477.708-.678,1.082-.381.712-.735,1.438-1.124,2.207a2.311,2.311,0,0,0,.357,0,4.608,4.608,0,0,0,3.545-2.864,4.3,4.3,0,0,0,.232-2.693c-.231-.988-.466-1.975-.706-2.993l-2.521,1.214a4.6,4.6,0,0,0-2.724,3.7,4.383,4.383,0,0,0,.532,2.766" transform="translate(-195.975 -147.125)" fill="#082c74"/>
        <path id="Trazado_1031456" data-name="Trazado 1031456" d="M329.434,337.325a.737.737,0,0,1-.779-.736.78.78,0,0,1,.774-.8.823.823,0,0,1,.773.775.762.762,0,0,1-.768.759" transform="translate(-294.616 -301.014)" fill="#fbfdfd"/>
        <path id="Trazado_1031457" data-name="Trazado 1031457" d="M72.233,248.187c0-.336.01-.59,0-.842a.772.772,0,1,0-1.543.024c.007.593.034,1.187.071,1.78a.342.342,0,0,1-.253.4,3.945,3.945,0,0,1-4.757-5.735c.02-.031.029-.07.108-.069.025.263.044.526.077.788a.747.747,0,0,0,.836.719.77.77,0,0,0,.7-.861c-.035-.605-.093-1.21-.112-1.816a.446.446,0,0,1,.2-.341,3.936,3.936,0,0,1,4.84,5.791,1.821,1.821,0,0,1-.169.162" transform="translate(-58.428 -216.845)" fill="#fdfdfc"/>
        <path id="Trazado_1031458" data-name="Trazado 1031458" d="M234.133,187.154a4.383,4.383,0,0,1-.532-2.766,4.6,4.6,0,0,1,2.724-3.7l2.521-1.214c.24,1.018.475,2.005.706,2.993a4.305,4.305,0,0,1-.232,2.693,4.608,4.608,0,0,1-3.545,2.864,2.309,2.309,0,0,1-.357,0c.389-.769.743-1.5,1.124-2.207.2-.374.453-.721.678-1.082a.792.792,0,0,0-.158-1.132.758.758,0,0,0-1.128.282c-.52.86-1.006,1.741-1.5,2.617-.106.189-.185.394-.3.647" transform="translate(-209.369 -160.891)" fill="#afd652"/>
      </g>
    </g>
  </g>
</svg>
