<svg xmlns="http://www.w3.org/2000/svg" xmlns:xlink="http://www.w3.org/1999/xlink" width="122.299" height="122.299" viewBox="0 0 122.299 122.299">
  <defs>
    <filter id="Trazado_896985" x="0" y="0" width="122.299" height="122.299" filterUnits="userSpaceOnUse">
      <feOffset dy="3" input="SourceAlpha"/>
      <feGaussianBlur stdDeviation="3" result="blur"/>
      <feFlood flood-opacity="0.161"/>
      <feComposite operator="in" in2="blur"/>
      <feComposite in="SourceGraphic"/>
    </filter>
  </defs>
  <g id="Grupo_1175661" data-name="Grupo 1175661" transform="translate(-306.752 -7851.567)">
    <g id="Grupo_1175539" data-name="Grupo 1175539" transform="translate(315.752 7857.567)">
      <g id="Grupo_1175188" data-name="Grupo 1175188" transform="translate(0 0)">
        <g id="Grupo_1098742" data-name="Grupo 1098742" transform="translate(0 0)">
          <g transform="matrix(1, 0, 0, 1, -9, -6)" filter="url(#Trazado_896985)">
            <g id="Trazado_896985-2" data-name="Trazado 896985" transform="translate(9 6)" fill="#84a065" opacity="0.859">
              <path d="M 52.14946365356445 102.7990875244141 C 45.31116485595703 102.7990875244141 38.67822265625 101.4601287841797 32.43486404418945 98.81941223144531 C 26.40374946594238 96.26847076416016 20.98693466186523 92.61624145507812 16.33489227294922 87.96420288085938 C 11.68284893035889 83.31215667724609 8.030620574951172 77.89533996582031 5.479678153991699 71.86421203613281 C 2.838963747024536 65.62085723876953 1.500006556510925 58.9879150390625 1.500006556510925 52.14961624145508 C 1.500006556510925 45.31117248535156 2.838963747024536 38.67823028564453 5.479678153991699 32.43487167358398 C 8.030620574951172 26.40374374389648 11.68284893035889 20.98692893981934 16.33489227294922 16.33488655090332 C 20.98693466186523 11.6828441619873 26.40374946594238 8.030614852905273 32.43486404418945 5.479672431945801 C 38.67822265625 2.838958024978638 45.31116485595703 1.500000953674316 52.14946365356445 1.500000953674316 C 58.98776245117188 1.500000953674316 65.62070465087891 2.838958024978638 71.86406707763672 5.479672431945801 C 77.89519500732422 8.030614852905273 83.31200408935547 11.6828441619873 87.96405029296875 16.33488655090332 C 92.6160888671875 20.98692893981934 96.26831817626953 26.40374374389648 98.81926727294922 32.43487167358398 C 101.4599761962891 38.67823028564453 102.7989349365234 45.31117248535156 102.7989349365234 52.14947128295898 C 102.7989349365234 58.9879150390625 101.4599761962891 65.62085723876953 98.81926727294922 71.86421203613281 C 96.26831817626953 77.89533996582031 92.6160888671875 83.31215667724609 87.96405029296875 87.96420288085938 C 83.31200408935547 92.61624145507812 77.89519500732422 96.26847076416016 71.86406707763672 98.81941223144531 C 65.62070465087891 101.4601287841797 58.98776245117188 102.7990875244141 52.14946365356445 102.7990875244141 Z" stroke="none"/>
              <path d="M 52.14946365356445 2.999992370605469 C 45.51301193237305 2.999992370605469 39.07666015625 4.299079895019531 33.01919555664062 6.861175537109375 C 27.16686248779297 9.336494445800781 21.91031646728516 12.88077545166016 17.39554595947266 17.39554595947266 C 12.88078308105469 21.91030883789062 9.336494445800781 27.16687774658203 6.861183166503906 33.01919555664062 C 4.299079895019531 39.07666015625 3 45.51301193237305 3 52.14960861206055 C 3 58.78607559204102 4.299079895019531 65.22242736816406 6.861183166503906 71.27989196777344 C 9.336494445800781 77.13220977783203 12.88078308105469 82.38877868652344 17.39554595947266 86.90354156494141 C 21.91031646728516 91.41831207275391 27.16686248779297 94.96259307861328 33.01919555664062 97.43791198730469 C 39.07666015625 100.0000076293945 45.51301193237305 101.2990951538086 52.14946365356445 101.2990951538086 C 58.78591537475586 101.2990951538086 65.22225952148438 100.0000076293945 71.27973175048828 97.43791198730469 C 77.13206481933594 94.96259307861328 82.38861083984375 91.41831207275391 86.90338134765625 86.90354156494141 C 91.41814422607422 82.38877868652344 94.96243286132812 77.13220977783203 97.437744140625 71.27989196777344 C 99.99984741210938 65.22242736816406 101.2989273071289 58.78607559204102 101.2989273071289 52.14947891235352 C 101.2989273071289 45.51301193237305 99.99984741210938 39.07666015625 97.437744140625 33.01919555664062 C 94.96243286132812 27.16687774658203 91.41814422607422 21.91030883789062 86.90338134765625 17.39554595947266 C 82.38861083984375 12.88077545166016 77.13206481933594 9.336494445800781 71.27973175048828 6.861175537109375 C 65.22225952148438 4.299079895019531 58.78591537475586 2.999992370605469 52.14946365356445 2.999992370605469 M 52.14946365356445 -7.62939453125e-06 C 80.95081329345703 -7.62939453125e-06 104.2989273071289 23.34811401367188 104.2989273071289 52.14947891235352 L 104.2989273071289 52.14960861206055 C 104.2989273071289 80.95097351074219 80.95081329345703 104.2990951538086 52.14946365356445 104.2990951538086 C 23.34811401367188 104.2990951538086 0 80.95097351074219 0 52.14960861206055 L 0 52.14947891235352 C 0 23.34811401367188 23.34811401367188 -7.62939453125e-06 52.14946365356445 -7.62939453125e-06 Z" stroke="none" fill="#fff"/>
            </g>
          </g>
          <g id="Rectángulo_400907" data-name="Rectángulo 400907" transform="translate(0 0)" fill="none" stroke="#fff" stroke-width="3">
            <rect width="104.299" height="104.299" rx="52.149" stroke="none"/>
            <rect x="1.5" y="1.5" width="101.299" height="101.299" rx="50.649" fill="none"/>
          </g>
        </g>
      </g>
      <g id="Grupo_1175667" data-name="Grupo 1175667" transform="translate(22.592 22.703)">
        <g id="Grupo_1175668" data-name="Grupo 1175668">
          <path id="Trazado_1031133" data-name="Trazado 1031133" d="M59,53.364a3.279,3.279,0,0,0-.2.385A3.488,3.488,0,0,1,53,55.088c-2.184-2.125-4.319-4.3-6.472-6.458a2.756,2.756,0,0,1-.265-.364l-.143.069v.538c0,1.476.008,2.952,0,4.428a2.733,2.733,0,0,1-2.782,2.819q-15.612.012-31.225,0A2.74,2.74,0,0,1,9.317,53.31C9.3,52.1,9.3,50.9,9.294,49.689c.006-.229.016-.459.016-.689q0-18.831,0-37.662A2.785,2.785,0,0,1,12.383,8.28H35.077c0-.907.005-1.73,0-2.554-.005-.792-.329-1.124-1.113-1.124q-15.438,0-30.877,0c-.8,0-1.129.325-1.129,1.107q0,20.958,0,41.917c0,.817.326,1.129,1.164,1.132,1.073,0,2.147,0,3.22,0,.727,0,.97.2,1.149.929-.2.726-.433.912-1.166.914-1.131,0-2.261.009-3.392,0a2.744,2.744,0,0,1-2.819-2.84Q.111,26.693.117,5.626A2.74,2.74,0,0,1,2.969,2.762q15.549-.006,31.1,0A2.747,2.747,0,0,1,36.917,5.63c.006.9-.024,1.8.016,2.7a1.274,1.274,0,0,0,.331.776q4.164,4.208,8.368,8.378a1.5,1.5,0,0,1,.5,1.21c-.036,1.053-.008,2.108-.012,3.161,0,.733-.192.967-.919,1.162-.727-.193-.916-.427-.92-1.159,0-.836,0-1.672,0-2.539-2.2,0-4.346.032-6.487-.022a3.218,3.218,0,0,1-1.54-.49,2.472,2.472,0,0,1-1.175-2.225c.006-2.14,0-4.28,0-6.463H12.569c-1.183,0-1.413.228-1.413,1.4q0,20.059,0,40.12c0,.191.011.382.018.573-.006.172-.018.344-.018.516,0,1.372.178,1.555,1.543,1.555,9.877,0,19.754-.015,29.631.013,1.967,0,2.022-.277,1.928-2.083V48.908c-.046-.011-.067-.023-.083-.018-.11.03-.219.062-.327.1a12.846,12.846,0,0,1-10.384-.9,2.2,2.2,0,0,0-.969-.236c-2.146-.021-4.292-.011-6.438-.011-.326,0-.652.006-.977,0-.635-.015-1.033-.364-1.041-.907a.927.927,0,0,1,1.014-.931c.23-.007.46,0,.69,0H30.6c-.485-.587-.905-1.126-1.363-1.629a.811.811,0,0,0-.537-.2c-1.092-.019-2.184-.009-3.277-.009-.134,0-.268,0-.4,0a.925.925,0,0,1-.981-.908A.906.906,0,0,1,25,42.328c.984-.015,1.969,0,2.877,0-.4-1.55-.794-3.053-1.2-4.6-.471,0-1.026.006-1.58,0-.662-.009-1.075-.383-1.059-.944.015-.54.414-.884,1.053-.893.568-.008,1.137,0,1.714,0,.091-.636.175-1.218.264-1.841-.7,0-1.374.011-2.043,0a.92.92,0,1,1,.021-1.834,10.38,10.38,0,0,1,1.607.011,1.128,1.128,0,0,0,1.38-.859A11.753,11.753,0,0,1,30.641,27.6c-1.884,0-3.66,0-5.436,0-.737,0-1.15-.324-1.165-.9-.015-.594.414-.941,1.177-.942,2.357,0,4.714.017,7.07-.016a4.191,4.191,0,0,0,1.347-.331c.644-.236,1.251-.577,1.9-.8a12.8,12.8,0,0,1,16.35,8.116,12.588,12.588,0,0,1-.66,9.76c-.082.172-.169.342-.252.514a.514.514,0,0,0-.01.12c2.046,2.038,4.113,4.117,6.207,6.168A6,6,0,0,1,59,51.984Zm-2.069,0a1.587,1.587,0,0,0-.376-2.059q-3.2-3.2-6.4-6.4a3.506,3.506,0,0,0-.278-.222l-1.02,1.186-1.383,1.215c.6.566,1.186,1.086,1.739,1.635,1.671,1.658,3.324,3.332,4.995,4.989a1.628,1.628,0,0,0,2.722-.345M29.115,39.906a17.357,17.357,0,0,0,.8,2.014,10.917,10.917,0,0,0,13.865,5.105,10.541,10.541,0,0,0,6.464-7.119,10.546,10.546,0,0,0-.063-6.489,11.021,11.021,0,0,0-21.064,6.489m7.8-28.374c0,1.68-.008,3.325,0,4.97a.9.9,0,0,0,.968.975c.478.016.958,0,1.436,0H42.88l-5.961-5.949" fill="#010101"/>
          <path id="Trazado_1031134" data-name="Trazado 1031134" d="M11.176,52.213c-.007-.191-.02-.382-.02-.573V11.52c0-1.171.23-1.4,1.413-1.4H35.077c0,2.183,0,4.323,0,6.463a2.472,2.472,0,0,0,1.175,2.225,3.218,3.218,0,0,0,1.541.49c2.14.054,4.284.023,6.486.023,0,.867,0,1.7,0,2.539,0,.731.193.965.92,1.158q0,1.065,0,2.129a12.838,12.838,0,0,0-9.668-.529c-.649.219-1.255.56-1.9.8a4.243,4.243,0,0,1-1.347.331c-2.356.032-4.713.014-7.07.016-.762,0-1.192.347-1.177.941.014.573.429.9,1.165.9,1.776,0,3.551,0,5.436,0a11.753,11.753,0,0,0-2.605,3.755,1.128,1.128,0,0,1-1.38.859,10.506,10.506,0,0,0-1.607-.011.92.92,0,1,0-.021,1.834c.67.014,1.338,0,2.043,0-.09.623-.173,1.205-.264,1.841-.577,0-1.146-.007-1.713,0-.639.009-1.038.354-1.054.893-.016.561.4.935,1.059.944.554.008,1.109,0,1.58,0,.4,1.548.794,3.051,1.2,4.6-.907,0-1.893-.011-2.878,0a.906.906,0,0,0-.958.926.925.925,0,0,0,.981.908c.134.006.268,0,.4,0,1.091,0,2.184-.01,3.276.009a.809.809,0,0,1,.537.2c.458.5.878,1.042,1.364,1.63-1.658,0-3.257,0-4.858,0-.229,0-.46-.006-.689,0a.925.925,0,1,0,.026,1.838c.326.007.653,0,.979,0,2.146,0,4.292-.01,6.437.011a2.186,2.186,0,0,1,.969.237,12.842,12.842,0,0,0,10.384.9c.109-.036.217-.067.326-.1.017,0,.037.007.084.018v3.306a5.718,5.718,0,0,1-1.106.221q-15.437.018-30.872,0a5.711,5.711,0,0,1-1.105-.222M23.118,19.322q3.589,0,7.181,0c.751,0,1.091-.338,1.1-1.081q.012-1.665,0-3.331c0-.778-.338-1.106-1.129-1.106q-7.154,0-14.3,0c-.793,0-1.121.327-1.125,1.108-.006,1.073,0,2.145,0,3.217,0,.893.307,1.193,1.215,1.194q3.532,0,7.066,0m-4.6,10.12c.881,0,1.76.008,2.642,0a.924.924,0,0,0,1.034-1.025q.013-2.642,0-5.282a.933.933,0,0,0-1.068-1.049q-2.611-.01-5.225,0a.932.932,0,0,0-1.062,1.053q-.01,2.612,0,5.224c0,.743.343,1.074,1.1,1.08.861.007,1.722,0,2.584,0m-3.681,6.441c0,.88-.009,1.761,0,2.641a.923.923,0,0,0,1.022,1.036q2.641.015,5.282,0a.935.935,0,0,0,1.051-1.067q.01-2.613,0-5.225a.932.932,0,0,0-1.052-1.064q-2.613-.012-5.224,0c-.744,0-1.074.342-1.08,1.1-.006.861,0,1.723,0,2.584M22.2,46.062c0-.9.007-1.8,0-2.7a.923.923,0,0,0-1.021-1.037q-2.64-.013-5.282,0a.932.932,0,0,0-1.052,1.063q-.01,2.613,0,5.225a.933.933,0,0,0,1.048,1.067q2.613.013,5.225,0c.744,0,1.077-.343,1.083-1.094.007-.842,0-1.684,0-2.526m8.271-22.14c1.779,0,3.559,0,5.339,0,.683,0,1.092-.342,1.106-.9.015-.576-.407-.941-1.118-.941q-5.312,0-10.622,0c-.723,0-1.138.345-1.134.924s.418.913,1.146.914q2.643,0,5.283,0" fill="#e9f1fe"/>
          <path id="Trazado_1031135" data-name="Trazado 1031135" d="M7.495,49.689c-.18-.725-.422-.926-1.15-.929-1.073,0-2.146,0-3.22,0-.837,0-1.163-.315-1.164-1.132q0-20.958,0-41.917c0-.782.334-1.107,1.129-1.107q15.439,0,30.878,0c.784,0,1.107.333,1.113,1.124.005.824,0,1.647,0,2.554H12.384a2.785,2.785,0,0,0-3.068,3.058q0,18.831-.005,37.662c0,.23-.011.46-.016.689h-1.8" fill="#c0d0f6"/>
          <path id="Trazado_1031136" data-name="Trazado 1031136" d="M29.115,39.906a11.021,11.021,0,0,1,21.064-6.489,10.546,10.546,0,0,1,.063,6.489,2.62,2.62,0,0,0-.329.356,11.985,11.985,0,0,1-5.729,4.857,2.027,2.027,0,0,1-.609.047c.065-.039.127-.082.194-.118A9.211,9.211,0,1,0,33.6,43.669,25.9,25.9,0,0,0,36.292,45.4a2.653,2.653,0,0,1-.5-.069,11.521,11.521,0,0,1-5.552-3.947c-.381-.488-.75-.985-1.124-1.478" fill="#575e5e"/>
          <path id="Trazado_1031137" data-name="Trazado 1031137" d="M11.175,52.214a5.639,5.639,0,0,0,1.107.221q15.435.018,30.87,0a5.636,5.636,0,0,0,1.107-.22c.094,1.805.039,2.088-1.928,2.083-9.877-.028-19.754-.013-29.631-.013-1.365,0-1.547-.183-1.543-1.556,0-.171.012-.343.018-.515" fill="#c0d0f6"/>
          <path id="Trazado_1031138" data-name="Trazado 1031138" d="M43.575,45.167a2.069,2.069,0,0,0,.61-.047,11.983,11.983,0,0,0,5.728-4.857,2.563,2.563,0,0,1,.329-.356,10.539,10.539,0,0,1-6.464,7.119A10.915,10.915,0,0,1,29.914,41.92a17.527,17.527,0,0,1-.8-2.013c.375.492.743.99,1.124,1.477a11.528,11.528,0,0,0,5.552,3.948,2.748,2.748,0,0,0,.5.069c.983.2,1.958.475,2.952.578a9.134,9.134,0,0,0,4.331-.812" fill="#4b5556"/>
          <path id="Trazado_1031139" data-name="Trazado 1031139" d="M56.931,53.362a1.628,1.628,0,0,1-2.722.345c-1.671-1.657-3.324-3.331-4.994-4.988-.554-.55-1.136-1.07-1.74-1.635l1.383-1.216c.151.172.292.352.453.513,1.956,1.96,3.922,3.909,5.867,5.88a3.3,3.3,0,0,0,1.753,1.1" fill="#dd6118"/>
          <path id="Trazado_1031140" data-name="Trazado 1031140" d="M36.919,11.532l5.961,5.949H39.327c-.478,0-.958.012-1.436,0a.9.9,0,0,1-.968-.975c-.012-1.645,0-3.29,0-4.97" fill="#c0d0f6"/>
          <path id="Trazado_1031141" data-name="Trazado 1031141" d="M56.931,53.362a3.3,3.3,0,0,1-1.753-1.1c-1.945-1.971-3.911-3.92-5.867-5.88-.161-.161-.3-.341-.453-.513l1.02-1.186a3.506,3.506,0,0,1,.278.222q3.2,3.2,6.4,6.4a1.585,1.585,0,0,1,.376,2.058" fill="#e28243"/>
          <path id="Trazado_1031142" data-name="Trazado 1031142" d="M23.118,19.322q-3.532,0-7.066,0c-.908,0-1.213-.3-1.215-1.193,0-1.073-.005-2.145,0-3.217,0-.782.333-1.108,1.125-1.109q7.152,0,14.3,0c.792,0,1.125.328,1.129,1.106q.009,1.665,0,3.332c0,.743-.345,1.078-1.1,1.08q-3.591.008-7.181,0m6.415-3.641H16.722v1.771H29.533Z" fill="#010101"/>
          <path id="Trazado_1031143" data-name="Trazado 1031143" d="M18.518,29.443c-.861,0-1.722,0-2.584,0-.752-.006-1.093-.337-1.1-1.079q-.009-2.613,0-5.225A.931.931,0,0,1,15.9,22.084q2.611-.01,5.224,0a.933.933,0,0,1,1.068,1.049q.012,2.641,0,5.282a.925.925,0,0,1-1.035,1.025c-.88.011-1.761,0-2.641,0m1.808-5.49H16.707v3.629h3.619Z" fill="#010101"/>
          <path id="Trazado_1031144" data-name="Trazado 1031144" d="M14.836,35.883c0-.861-.005-1.722,0-2.584.005-.753.335-1.092,1.079-1.094q2.613-.01,5.225,0a.933.933,0,0,1,1.053,1.064q.01,2.613,0,5.225a.936.936,0,0,1-1.052,1.067q-2.64.012-5.282,0a.923.923,0,0,1-1.022-1.036c-.011-.88,0-1.76,0-2.641m5.5-1.8H16.719v3.6h3.615Z" fill="#010101"/>
          <path id="Trazado_1031145" data-name="Trazado 1031145" d="M22.2,46.062c0,.842,0,1.684,0,2.526-.006.751-.339,1.092-1.082,1.094q-2.613.01-5.225,0a.935.935,0,0,1-1.05-1.068q-.009-2.611,0-5.224a.932.932,0,0,1,1.053-1.064q2.64-.012,5.282,0a.922.922,0,0,1,1.021,1.037c.011.9,0,1.8,0,2.7m-1.884-1.854H16.721V47.82h3.592Z" fill="#010101"/>
          <path id="Trazado_1031146" data-name="Trazado 1031146" d="M30.469,23.922q-2.643,0-5.283,0c-.728,0-1.141-.337-1.146-.914s.411-.924,1.134-.924q5.312,0,10.622,0c.711,0,1.133.365,1.118.941-.014.555-.423.9-1.106.9-1.78,0-3.56,0-5.339,0" fill="#010101"/>
          <path id="Trazado_1031147" data-name="Trazado 1031147" d="M43.575,45.167a9.151,9.151,0,0,1-4.331.813c-.994-.1-1.97-.38-2.953-.579A25.986,25.986,0,0,1,33.6,43.67a9.168,9.168,0,1,1,10.166,1.379c-.067.035-.13.079-.194.118M32.564,35.083a4.992,4.992,0,0,0-.14.554,7.354,7.354,0,0,0,10.715,7.644,7.206,7.206,0,0,0,3.653-8.2,1.126,1.126,0,0,0-.014-.226,7.34,7.34,0,0,0-9.137-5.112,6.992,6.992,0,0,0-5.077,5.338" fill="#010101"/>
          <rect id="Rectángulo_415567" data-name="Rectángulo 415567" width="12.811" height="1.771" transform="translate(16.722 15.681)" fill="#e28243"/>
          <rect id="Rectángulo_415568" data-name="Rectángulo 415568" width="3.619" height="3.629" transform="translate(16.707 23.952)" fill="#b0d879"/>
          <rect id="Rectángulo_415569" data-name="Rectángulo 415569" width="3.615" height="3.595" transform="translate(16.719 34.086)" fill="#b0d879"/>
          <rect id="Rectángulo_415570" data-name="Rectángulo 415570" width="3.592" height="3.612" transform="translate(16.721 44.208)" fill="#b0d879"/>
          <path id="Trazado_1031148" data-name="Trazado 1031148" d="M46.792,35.083a7.206,7.206,0,0,1-3.653,8.2,7.354,7.354,0,0,1-10.715-7.644,4.992,4.992,0,0,1,.14-.554,5.6,5.6,0,0,0,.513-.509,8.1,8.1,0,0,1,6-3.268,7.859,7.859,0,0,1,6.394,2.378c.45.456.88.932,1.32,1.4m-7.135,3.211c-.673-.692-1.292-1.342-1.925-1.978-.514-.517-1.048-.568-1.458-.162s-.361.941.151,1.457q1.215,1.226,2.44,2.44a.967.967,0,0,0,1.624.005c.913-.9,1.818-1.815,2.726-2.723.569-.57,1.157-1.122,1.7-1.714a.889.889,0,0,0-.479-1.535,1.405,1.405,0,0,0-.947.389c-1.271,1.222-2.5,2.485-3.833,3.821" fill="#b0d879"/>
          <path id="Trazado_1031149" data-name="Trazado 1031149" d="M46.792,35.083c-.439-.467-.87-.943-1.32-1.4a7.864,7.864,0,0,0-6.394-2.378,8.1,8.1,0,0,0-6,3.269,5.6,5.6,0,0,1-.513.509,7,7,0,0,1,5.078-5.338,7.341,7.341,0,0,1,9.137,5.112,1.122,1.122,0,0,1,.013.226" fill="#93bc5a"/>
          <path id="Trazado_1031150" data-name="Trazado 1031150" d="M39.657,38.294c1.332-1.336,2.562-2.6,3.833-3.821a1.405,1.405,0,0,1,.947-.389.889.889,0,0,1,.479,1.535c-.544.592-1.132,1.144-1.7,1.714-.908.908-1.813,1.819-2.726,2.723a.967.967,0,0,1-1.624-.005q-1.226-1.213-2.44-2.44c-.512-.516-.562-1.05-.151-1.457s.944-.355,1.458.162c.633.636,1.252,1.286,1.925,1.978" fill="#010101"/>
        </g>
      </g>
    </g>
    <g id="Grupo_1175657" data-name="Grupo 1175657">
      <g id="Grupo_1175656" data-name="Grupo 1175656" transform="translate(-540.131 1820.631)">
        <rect id="Rectángulo_400898" data-name="Rectángulo 400898" width="35.406" height="35.406" rx="17.703" transform="translate(855.883 6115.006)" fill="#efdb59"/>
      </g>
      <path id="Trazado_1031548" data-name="Trazado 1031548" d="M2.373,0h-3.3V-10.508l-3.242.947v-2.5l6.24-2.158h.3Z" transform="translate(333.051 7961)" fill="#12263f"/>
    </g>
  </g>
</svg>
