<svg xmlns="http://www.w3.org/2000/svg" xmlns:xlink="http://www.w3.org/1999/xlink" width="110.057" height="110.057" viewBox="0 0 110.057 110.057">
  <defs>
    <filter id="Trazado_874925" x="0" y="0" width="110.057" height="110.057" filterUnits="userSpaceOnUse">
      <feOffset dy="3" input="SourceAlpha"/>
      <feGaussianBlur stdDeviation="3" result="blur"/>
      <feFlood flood-opacity="0.161"/>
      <feComposite operator="in" in2="blur"/>
      <feComposite in="SourceGraphic"/>
    </filter>
    <clipPath id="clip-path">
      <rect id="Rect치ngulo_415550" data-name="Rect치ngulo 415550" width="55.564" height="63.882" fill="none"/>
    </clipPath>
  </defs>
  <g id="Grupo_1175166" data-name="Grupo 1175166" transform="translate(9 6)">
    <g id="Grupo_1109819" data-name="Grupo 1109819" transform="translate(0 0)">
      <g transform="matrix(1, 0, 0, 1, -9, -6)" filter="url(#Trazado_874925)">
        <g id="Trazado_874925-2" data-name="Trazado 874925" transform="translate(9 6)" fill="#efdb59" opacity="0.859">
          <path d="M 46.02833557128906 90.55719757080078 C 40.01638793945312 90.55719757080078 34.1850700378418 89.38008880615234 28.69636154174805 87.05855560302734 C 23.39413642883301 84.81590270996094 18.63193511962891 81.60504150390625 14.54205513000488 77.51514434814453 C 10.45216178894043 73.42526245117188 7.241295337677002 68.66306304931641 4.998642444610596 63.36083984375 C 2.677109003067017 57.87213134765625 1.500002264976501 52.04081344604492 1.500002264976501 46.02886581420898 C 1.500002264976501 40.01638412475586 2.677109003067017 34.18506622314453 4.998642444610596 28.69635963439941 C 7.241295337677002 23.39413261413574 10.45216178894043 18.63193130493164 14.54205513000488 14.54205226898193 C 18.63193511962891 10.45215892791748 23.39413642883301 7.241291999816895 28.69636154174805 4.99863862991333 C 34.1850700378418 2.67710542678833 40.01638793945312 1.499998807907104 46.02833557128906 1.499998807907104 C 52.040283203125 1.499998807907104 57.87160110473633 2.67710542678833 63.36030960083008 4.99863862991333 C 68.66253662109375 7.241291999816895 73.42473602294922 10.45215892791748 77.51461791992188 14.54205226898193 C 81.60450744628906 18.63193130493164 84.81537628173828 23.39413261413574 87.05802917480469 28.69635963439941 C 89.37956237792969 34.18506622314453 90.55667114257812 40.01638412475586 90.55667114257812 46.0283317565918 C 90.55667114257812 52.04081344604492 89.37956237792969 57.87213134765625 87.05802917480469 63.36083984375 C 84.81537628173828 68.66306304931641 81.60450744628906 73.42526245117188 77.51461791992188 77.51514434814453 C 73.42473602294922 81.60504150390625 68.66253662109375 84.81590270996094 63.36030960083008 87.05855560302734 C 57.87160110473633 89.38008880615234 52.040283203125 90.55719757080078 46.02833557128906 90.55719757080078 Z" stroke="none"/>
          <path d="M 46.02833557128906 3 C 40.21821975708008 3 34.5835075378418 4.137245178222656 29.28069305419922 6.380142211914062 C 24.15726470947266 8.547172546386719 19.55532073974609 11.65008544921875 15.60270690917969 15.60271453857422 C 11.65009307861328 19.55532836914062 8.547164916992188 24.15725708007812 6.380134582519531 29.28068542480469 C 4.137237548828125 34.58349990844727 2.999992370605469 40.21822738647461 2.999992370605469 46.02886962890625 C 2.999992370605469 51.83898544311523 4.137237548828125 57.47369766235352 6.380134582519531 62.77651214599609 C 8.547164916992188 67.89994049072266 11.65009307861328 72.50186920166016 15.60270690917969 76.45449829101562 C 19.55532073974609 80.40711212158203 24.15726470947266 83.51002502441406 29.28069305419922 85.67705535888672 C 34.5835075378418 87.91995239257812 40.21821975708008 89.05719757080078 46.02833557128906 89.05719757080078 C 51.83845138549805 89.05719757080078 57.47316360473633 87.91995239257812 62.77597808837891 85.67705535888672 C 67.89940643310547 83.51002502441406 72.50135040283203 80.40711212158203 76.45396423339844 76.45449829101562 C 80.40657806396484 72.50188446044922 83.50949096679688 67.89994049072266 85.67652130126953 62.77651214599609 C 87.91941833496094 57.47369766235352 89.05666351318359 51.83898544311523 89.05666351318359 46.02834320068359 C 89.05666351318359 40.21822738647461 87.91941833496094 34.58349990844727 85.67652130126953 29.28068542480469 C 83.50949096679688 24.15725708007812 80.40657806396484 19.55532836914062 76.45396423339844 15.60271453857422 C 72.50133514404297 11.65008544921875 67.89940643310547 8.547172546386719 62.77597808837891 6.380142211914062 C 57.47316360473633 4.137245178222656 51.83845138549805 3 46.02833557128906 3 M 46.02833557128906 0 C 71.44908142089844 0 92.05666351318359 20.60758209228516 92.05666351318359 46.02834320068359 L 92.05666351318359 46.02886962890625 C 92.05666351318359 71.44961547851562 71.44908142089844 92.05719757080078 46.02833557128906 92.05719757080078 C 20.60758972167969 92.05719757080078 -7.62939453125e-06 71.44961547851562 -7.62939453125e-06 46.02886962890625 L -7.62939453125e-06 46.02834320068359 C -7.62939453125e-06 20.60758209228516 20.60758972167969 0 46.02833557128906 0 Z" stroke="none" fill="#fff"/>
        </g>
      </g>
      <g id="Trazado_874923" data-name="Trazado 874923" transform="translate(0 0)" fill="none">
        <path d="M46.028,0A46.028,46.028,0,0,1,92.057,46.028h0A46.028,46.028,0,0,1,0,46.029H0A46.028,46.028,0,0,1,46.028,0Z" stroke="none"/>
        <path d="M 46.02833557128906 3 C 40.21821975708008 3 34.5835075378418 4.137245178222656 29.28069305419922 6.380142211914062 C 24.15726470947266 8.547172546386719 19.55532073974609 11.65008544921875 15.60270690917969 15.60271453857422 C 11.65009307861328 19.55532836914062 8.547164916992188 24.15725708007812 6.380134582519531 29.28068542480469 C 4.137237548828125 34.58349990844727 2.999992370605469 40.21822738647461 2.999992370605469 46.02886962890625 C 2.999992370605469 51.83898544311523 4.137237548828125 57.47369766235352 6.380134582519531 62.77651214599609 C 8.547164916992188 67.89994049072266 11.65009307861328 72.50186920166016 15.60270690917969 76.45449829101562 C 19.55532073974609 80.40711212158203 24.15726470947266 83.51002502441406 29.28069305419922 85.67705535888672 C 34.5835075378418 87.91995239257812 40.21821975708008 89.05719757080078 46.02833557128906 89.05719757080078 C 51.83845138549805 89.05719757080078 57.47316360473633 87.91995239257812 62.77597808837891 85.67705535888672 C 67.89940643310547 83.51002502441406 72.50135040283203 80.40711212158203 76.45396423339844 76.45449829101562 C 80.40657806396484 72.50188446044922 83.50949096679688 67.89994049072266 85.67652130126953 62.77651214599609 C 87.91941833496094 57.47369766235352 89.05666351318359 51.83898544311523 89.05666351318359 46.02834320068359 C 89.05666351318359 40.21822738647461 87.91941833496094 34.58349990844727 85.67652130126953 29.28068542480469 C 83.50949096679688 24.15725708007812 80.40657806396484 19.55532836914062 76.45396423339844 15.60271453857422 C 72.50133514404297 11.65008544921875 67.89940643310547 8.547172546386719 62.77597808837891 6.380142211914062 C 57.47316360473633 4.137245178222656 51.83845138549805 3 46.02833557128906 3 M 46.02833557128906 0 C 71.44908142089844 0 92.05666351318359 20.60758209228516 92.05666351318359 46.02834320068359 L 92.05666351318359 46.02886962890625 C 92.05666351318359 71.44961547851562 71.44908142089844 92.05719757080078 46.02833557128906 92.05719757080078 C 20.60758972167969 92.05719757080078 -7.62939453125e-06 71.44961547851562 -7.62939453125e-06 46.02886962890625 L -7.62939453125e-06 46.02834320068359 C -7.62939453125e-06 20.60758209228516 20.60758972167969 0 46.02833557128906 0 Z" stroke="none" fill="#fff"/>
      </g>
    </g>
    <g id="Grupo_1175652" data-name="Grupo 1175652" transform="translate(18.246 14.088)">
      <g id="Grupo_1175649" data-name="Grupo 1175649">
        <g id="Grupo_1175648" data-name="Grupo 1175648" clip-path="url(#clip-path)">
          <path id="Trazado_1031105" data-name="Trazado 1031105" d="M22.242,56.117H37.149s4.289-.73,4.329-7.586l-.935-12.3c3-4.333,2.372-7.828-2-10.5-4.166-2.55-4.119-5.377-4.119-5.377H10.213s.047,2.827-4.119,5.377c-4.369,2.674-4.993,6.169-2,10.5,3.365,4.866-2.406,6.4-2.372,12.3.04,6.856,5.766,7.586,5.766,7.586H22.242Z" transform="translate(-0.757 -8.926)" fill="#8f5a46"/>
          <path id="Trazado_1031106" data-name="Trazado 1031106" d="M56.824,25.725c-4.167-2.55-4.119-5.377-4.119-5.377H43.392a6.7,6.7,0,0,1,5.42,2.716,10.368,10.368,0,0,0,3.02,2.661c3.828,2.343,4.781,5.317,2.942,8.932a6.892,6.892,0,0,0-.74,3.763l.908,9.724a6.722,6.722,0,0,1,.026.857,12.72,12.72,0,0,1-.124,1.385,6.74,6.74,0,0,1-6.685,5.73h7.27s4.289-.73,4.329-7.586l-.936-12.3c3-4.333,2.372-7.828-2-10.5" transform="translate(-19.035 -8.926)" fill="#7d4f3d"/>
          <path id="Trazado_1031107" data-name="Trazado 1031107" d="M12,93.926V78.142a7.6,7.6,0,0,1,7.6-7.586H34.207a7.6,7.6,0,0,1,7.6,7.586V93.926" transform="translate(-5.263 -30.952)" fill="#aad667"/>
          <path id="Trazado_1031108" data-name="Trazado 1031108" d="M47.662,70.555H42.67a7.6,7.6,0,0,1,7.6,7.586V93.925h4.993V78.141a7.6,7.6,0,0,0-7.6-7.586" transform="translate(-18.719 -30.951)" fill="#99c94f"/>
          <path id="Trazado_1031109" data-name="Trazado 1031109" d="M32.954,68.013c-6.44,0-7.411-2.686-7.411-2.686H28a2.173,2.173,0,0,0,2.063-2.056V58.635h5.573v4.636A2.192,2.192,0,0,0,37.7,65.326h2.454s-1.162,2.686-7.195,2.686" transform="translate(-11.205 -25.722)" fill="#fed5b7"/>
          <path id="Trazado_1031110" data-name="Trazado 1031110" d="M39.617,39.374H14.747a2.116,2.116,0,0,1-2.116-2.116v-1.41a2.116,2.116,0,0,1,2.116-2.116h24.87a2.116,2.116,0,0,1,2.116,2.116v1.41a2.117,2.117,0,0,1-2.116,2.116" transform="translate(-5.541 -14.798)" fill="#febc8c"/>
          <path id="Trazado_1031111" data-name="Trazado 1031111" d="M30.115,40.359a10.8,10.8,0,0,1-10.8-10.8V13.271H40.912V29.562a10.8,10.8,0,0,1-10.8,10.8" transform="translate(-8.475 -5.822)" fill="#fed5b7"/>
          <path id="Trazado_1031112" data-name="Trazado 1031112" d="M42.407,13.271V29.562a10.8,10.8,0,0,1-8.3,10.5A10.794,10.794,0,0,0,47.4,29.562V13.271Z" transform="translate(-14.962 -5.822)" fill="#fcc8a2"/>
          <path id="Trazado_1031113" data-name="Trazado 1031113" d="M45.832,78.874H41.811l2.788-9.7a1,1,0,0,1,.96-.722H47.5a1,1,0,0,1,.96,1.274Z" transform="translate(-18.342 -30.028)" fill="#8f5a46"/>
          <path id="Trazado_1031114" data-name="Trazado 1031114" d="M26.049,78.874h4.02l-2.788-9.7a1,1,0,0,0-.96-.722H24.379a1,1,0,0,0-.96,1.274Z" transform="translate(-10.256 -30.028)" fill="#8f5a46"/>
          <path id="Trazado_1031115" data-name="Trazado 1031115" d="M21.528,99.27V90.281l3.745-7.542H36.9l3.745,7.542V99.27Z" transform="translate(-9.444 -36.296)" fill="#fcd59f"/>
          <path id="Trazado_1031116" data-name="Trazado 1031116" d="M39.774,101.862H28.6V95.548L34.187,93.1l5.587,2.452Z" transform="translate(-12.546 -40.84)" fill="#8f5a46"/>
          <path id="Trazado_1031117" data-name="Trazado 1031117" d="M41.063,12.278H16.847V11.164a9.5,9.5,0,0,1,9.5-9.5h5.222a9.5,9.5,0,0,1,9.5,9.5Z" transform="translate(-7.391 -0.732)" fill="#6d788a"/>
          <path id="Trazado_1031118" data-name="Trazado 1031118" d="M39.168,1.668H34.175a9.5,9.5,0,0,1,9.5,9.5v1.114h4.993V11.164a9.5,9.5,0,0,0-9.5-9.5" transform="translate(-14.992 -0.732)" fill="#636d7d"/>
          <path id="Trazado_1031119" data-name="Trazado 1031119" d="M16.847,20.57H41.063l-1.737,2.278a7.552,7.552,0,0,1-6.007,2.974H24.452a7.551,7.551,0,0,1-6.193-3.23Z" transform="translate(-7.391 -9.024)" fill="#97a6bf"/>
          <rect id="Rect치ngulo_415549" data-name="Rect치ngulo 415549" width="3.495" height="8.512" transform="translate(44.335 54.463)" fill="#e8b266"/>
          <path id="Trazado_1031120" data-name="Trazado 1031120" d="M70.235,57.544v-14.8L68.6,40.421l-1.63,2.321V60.37A4.522,4.522,0,0,0,71.5,64.892a2.218,2.218,0,0,1,2.219,2.219v5.083h3.5V67.136a2.244,2.244,0,0,1,2.244-2.244,4.522,4.522,0,0,0,4.522-4.522V42.742l-1.63-2.321-1.63,2.321v14.8a1.8,1.8,0,0,1-1.8,1.8h-.026a1.8,1.8,0,0,1-1.8-1.8v-14.8l-1.63-2.321-1.631,2.321v14.8a1.8,1.8,0,1,1-3.6,0" transform="translate(-29.381 -17.732)" fill="#cad4e6"/>
          <path id="Trazado_1031121" data-name="Trazado 1031121" d="M86.258,40.422l-1.63,2.32v14.8a1.8,1.8,0,0,1-1.8,1.8H82.8a1.8,1.8,0,0,1-1.8-1.8l-.013,2.861a4.573,4.573,0,0,1-4.616,4.487,2.264,2.264,0,0,0-.485.054,2.218,2.218,0,0,1,1.736,2.164v5.083h3.495V67.137a2.244,2.244,0,0,1,2.244-2.244,4.523,4.523,0,0,0,4.523-4.523V42.742Z" transform="translate(-33.292 -17.732)" fill="#bac5d9"/>
          <path id="Trazado_1031122" data-name="Trazado 1031122" d="M37.73,47.239a2.766,2.766,0,0,1-3.9,0,.937.937,0,0,0-1.32,1.328,4.644,4.644,0,0,0,6.538,0,.937.937,0,0,0-1.32-1.328" transform="translate(-14.14 -20.602)" fill="#060606"/>
        </g>
      </g>
      <g id="Grupo_1175651" data-name="Grupo 1175651">
        <g id="Grupo_1175650" data-name="Grupo 1175650" clip-path="url(#clip-path)">
          <path id="Trazado_1031123" data-name="Trazado 1031123" d="M39.419,93.959l-5.587-2.452a.934.934,0,0,0-.753,0l-5.587,2.452a.935.935,0,0,0-.56.857v6.313a.937.937,0,0,0,.936.937H39.043a.936.936,0,0,0,.936-.937V94.816a.936.936,0,0,0-.56-.857m-1.312,6.234H28.8V95.427l4.652-2.041,4.651,2.041Z" transform="translate(-11.815 -40.108)" fill="#060606"/>
          <path id="Trazado_1031124" data-name="Trazado 1031124" d="M55.387,24.472l-1.63-2.321a.937.937,0,0,0-1.532,0l-1.63,2.321a.934.934,0,0,0-.171.538v8.4a.937.937,0,0,0,1.873,0V25.306l.694-.987.694.987V42.639A3.59,3.59,0,0,1,50.1,46.224a3.185,3.185,0,0,0-3.18,3.181v4.121H45.3V49.378a3.159,3.159,0,0,0-3.155-3.155,3.609,3.609,0,0,1-3.585-3.585V25.306l.693-.987.693.987V39.812c0,3.527,5.472,3.527,5.472,0V25.306l.694-.987.693.987V39.812c0,3.5,5.5,3.552,5.5,0V38.4a.937.937,0,0,0-1.873,0v1.409a.876.876,0,0,1-1.751,0v-14.8a.938.938,0,0,0-.171-.538l-1.63-2.321a.936.936,0,0,0-1.532,0l-1.63,2.321a.938.938,0,0,0-.17.538v14.8a.863.863,0,0,1-1.726,0V25.69c2.209-4.872-.676-7.955-3.512-9.691-1.944-1.189-3.943-3.094-3.669-5.568A10.444,10.444,0,0,0,24.2,0H18.978a10.423,10.423,0,0,0-5.261,1.425.936.936,0,0,0,.946,1.615,8.555,8.555,0,0,1,4.315-1.168H24.2a8.665,8.665,0,0,1,8.561,8.737H10.418a8.634,8.634,0,0,1,1.134-4.434.937.937,0,0,0-1.623-.933,11.776,11.776,0,0,0-1.383,6.181c0,.113-.1,2.388-3.673,4.576-2.349,1.438-3.75,3.161-4.165,5.119C.281,23.145.915,25.4,2.595,27.833c1.565,2.263.826,3.467-.4,5.461A11.316,11.316,0,0,0,.057,39.609c.024,3.934,1.8,6.042,3.285,7.117a8.179,8.179,0,0,0,2.48,1.208V62.974a.936.936,0,0,0,1.872,0V47.19A6.742,6.742,0,0,1,12.529,40.8l1.864,6.483L11.27,53.568a.932.932,0,0,0-.1.416v8.99a.937.937,0,0,0,1.873,0V54.2l3.389-6.826H26.9L30.287,54.2v8.77a.936.936,0,0,0,1.872,0V53.985a.94.94,0,0,0-.1-.417l-3.123-6.289L30.8,40.8a6.655,6.655,0,0,1,4.834,6.394V62.974a.937.937,0,0,0,1.873,0V47.822a6.174,6.174,0,0,0,1.375-.807A5.426,5.426,0,0,0,42.141,48.1a1.284,1.284,0,0,1,1.282,1.283v13.6a.937.937,0,0,0,1.873,0V55.4h1.623v7.576a.936.936,0,0,0,1.872,0V49.4A1.31,1.31,0,0,1,50.1,48.1a5.464,5.464,0,0,0,5.458-5.458V25.009a.942.942,0,0,0-.17-.538M19.852,45.506l-.7-2.447a18.6,18.6,0,0,0,5.032.01l-.7,2.437Zm5.189-5.43-.286.994a15.427,15.427,0,0,1-6.18-.006l-.282-.982a2.923,2.923,0,0,0,1.523-2.534V35.326a11.792,11.792,0,0,0,3.7,0v2.222a2.926,2.926,0,0,0,1.525,2.528M21.666,33.6A9.872,9.872,0,0,1,11.8,23.74V15.889a8.493,8.493,0,0,0,5.282,1.846h8.868a8.543,8.543,0,0,0,5.572-2.089v8.093A9.872,9.872,0,0,1,21.666,33.6M9.231,23.64a1.181,1.181,0,0,1-1.18-1.18V21.05a1.181,1.181,0,0,1,1.18-1.18h.7v3.77ZM33.4,19.871h.7a1.181,1.181,0,0,1,1.18,1.18V22.46a1.181,1.181,0,0,1-1.18,1.18h-.7Zm-1.592-7.388-.591.775a6.654,6.654,0,0,1-5.262,2.605H17.087a6.62,6.62,0,0,1-5.425-2.829l-.385-.551ZM1.929,39.6a9.491,9.491,0,0,1,1.859-5.324c1.281-2.084,2.607-4.238.346-7.506-1.376-1.989-1.912-3.759-1.595-5.261.3-1.435,1.417-2.752,3.311-3.91A10.4,10.4,0,0,0,9.795,13.63l.138.2V18h-.7a3.056,3.056,0,0,0-3.052,3.052V22.46A3.055,3.055,0,0,0,9.23,25.512h.835a11.772,11.772,0,0,0,7.878,9.355v2.68a.964.964,0,0,1-.309.712,1.943,1.943,0,0,0-1.545-.773H14.147a2.014,2.014,0,0,0-1.869,1.438A8.656,8.656,0,0,0,5.907,46c-1.438-.534-3.952-2.084-3.977-6.4m13.923,5.908h-.021l-1.738-6.049,0-.008,0-.012a.055.055,0,0,1,.01-.054.057.057,0,0,1,.05-.025h1.942a.062.062,0,0,1,.06.045l1.754,6.1Zm9.575,0,1.754-6.1a.063.063,0,0,1,.06-.045h1.942a.063.063,0,0,1,.061.08l0,.008,0,.014L27.5,45.508H25.428Zm10-3.888a8.555,8.555,0,0,0-4.379-2.695,2.013,2.013,0,0,0-1.869-1.438H27.241a1.942,1.942,0,0,0-1.541.77.957.957,0,0,1-.313-.707v-2.68a11.772,11.772,0,0,0,7.878-9.355H34.1a3.056,3.056,0,0,0,3.052-3.052V21.05A3.056,3.056,0,0,0,34.1,18h-.7V13.657a10.276,10.276,0,0,0,3.926,3.94c2.562,1.568,3.656,3.344,3.346,5.489l-.656-.935a.937.937,0,0,0-1.532,0l-1.63,2.321a.938.938,0,0,0-.17.538V42.638a5.486,5.486,0,0,0,.131,1.188,8.5,8.5,0,0,0-1.383-2.207m2.156,4.025c-.067.048-.134.093-.2.134-.044-.262-.1-.522-.168-.778a5.509,5.509,0,0,0,.367.644" transform="translate(-0.025)" fill="#060606"/>
        </g>
      </g>
    </g>
  </g>
</svg>
