<svg xmlns="http://www.w3.org/2000/svg" xmlns:xlink="http://www.w3.org/1999/xlink" width="94.702" height="94.702" viewBox="0 0 94.702 94.702">
  <defs>
    <filter id="Trazado_982547" x="0" y="0" width="94.702" height="94.702" filterUnits="userSpaceOnUse">
      <feOffset dy="3" input="SourceAlpha"/>
      <feGaussianBlur stdDeviation="3" result="blur"/>
      <feFlood flood-opacity="0.161"/>
      <feComposite operator="in" in2="blur"/>
      <feComposite in="SourceGraphic"/>
    </filter>
  </defs>
  <g id="Grupo_1175678" data-name="Grupo 1175678" transform="translate(-586.25 -914.212)" opacity="0.9">
    <g id="Grupo_1175060" data-name="Grupo 1175060" transform="translate(595.25 920.212)">
      <g id="Grupo_1174859" data-name="Grupo 1174859" transform="translate(0)">
        <g id="Grupo_1167343" data-name="Grupo 1167343" transform="translate(0)">
          <g id="Grupo_1166777" data-name="Grupo 1166777">
            <g id="Grupo_1164305" data-name="Grupo 1164305">
              <g id="Grupo_1163948" data-name="Grupo 1163948">
                <g id="Grupo_1158168" data-name="Grupo 1158168">
                  <g id="Grupo_1152576" data-name="Grupo 1152576">
                    <g id="Grupo_1148633" data-name="Grupo 1148633">
                      <g id="Grupo_1148525" data-name="Grupo 1148525">
                        <g transform="matrix(1, 0, 0, 1, -9, -6)" filter="url(#Trazado_982547)">
                          <g id="Trazado_982547-2" data-name="Trazado 982547" transform="translate(9 6)" fill="#f4f9ff">
                            <path d="M 38.35107421875 75.2021484375 C 33.37555313110352 75.2021484375 28.54965209960938 74.22802734375 24.0074291229248 72.30683135986328 C 19.61940765380859 70.45085144042969 15.67825222015381 67.79354858398438 12.29342937469482 64.40872955322266 C 8.908607482910156 61.02390670776367 6.251296520233154 57.08274078369141 4.395318508148193 52.69471740722656 C 2.474129676818848 48.15250778198242 1.499996423721313 43.32660675048828 1.499996423721313 38.35107421875 C 1.499996423721313 33.37555313110352 2.474129676818848 28.54965209960938 4.395318508148193 24.0074291229248 C 6.251296520233154 19.61940765380859 8.908607482910156 15.67825222015381 12.29342937469482 12.29342937469482 C 15.67825222015381 8.908607482910156 19.61940765380859 6.251296520233154 24.0074291229248 4.395318508148193 C 28.54965209960938 2.474129676818848 33.37555313110352 1.499996423721313 38.35107421875 1.499996423721313 C 43.32660675048828 1.499996423721313 48.15250778198242 2.474129676818848 52.69471740722656 4.395318508148193 C 57.08274078369141 6.251296520233154 61.02390670776367 8.908607482910156 64.40872955322266 12.29342937469482 C 67.79354858398438 15.67825222015381 70.45085144042969 19.61940765380859 72.30683135986328 24.0074291229248 C 74.22802734375 28.54965209960938 75.2021484375 33.37555313110352 75.2021484375 38.35107421875 C 75.2021484375 43.32660675048828 74.22802734375 48.15250778198242 72.30683135986328 52.69472885131836 C 70.45085144042969 57.08274078369141 67.79354858398438 61.02390670776367 64.40872955322266 64.40872955322266 C 61.02390670776367 67.79354858398438 57.08274078369141 70.45085144042969 52.69472885131836 72.30683135986328 C 48.15250778198242 74.22802734375 43.32660675048828 75.2021484375 38.35107421875 75.2021484375 Z" stroke="none"/>
                            <path d="M 38.35107421875 3 C 33.57738494873047 3 28.94808578491211 3.93426513671875 24.59176254272461 5.776824951171875 C 20.38253784179688 7.55718994140625 16.60163497924805 10.10653686523438 13.35408782958984 13.35408782958984 C 10.10653686523438 16.60163497924805 7.55718994140625 20.38253784179688 5.776824951171875 24.59176254272461 C 3.93426513671875 28.94808578491211 3 33.57738494873047 3 38.35107421875 C 3 43.12476348876953 3.93426513671875 47.75406265258789 5.776824951171875 52.11038589477539 C 7.55718994140625 56.31961059570312 10.10653686523438 60.10050964355469 13.35408782958984 63.34806060791016 C 16.60163497924805 66.59561157226562 20.38253784179688 69.14497375488281 24.59176254272461 70.92532348632812 C 28.94808578491211 72.76788330078125 33.57738494873047 73.7021484375 38.35107421875 73.7021484375 C 43.12476348876953 73.7021484375 47.75406265258789 72.76788330078125 52.11038589477539 70.92532348632812 C 56.31961059570312 69.14497375488281 60.10050964355469 66.59561157226562 63.34806060791016 63.34806060791016 C 66.59561157226562 60.10050964355469 69.14497375488281 56.31961059570312 70.92532348632812 52.11038589477539 C 72.76788330078125 47.75406265258789 73.7021484375 43.12476348876953 73.7021484375 38.35107421875 C 73.7021484375 33.57738494873047 72.76788330078125 28.94808578491211 70.92532348632812 24.59176254272461 C 69.14497375488281 20.38253784179688 66.59561157226562 16.60163497924805 63.34806060791016 13.35408782958984 C 60.10050964355469 10.10653686523438 56.31961059570312 7.55718994140625 52.11038589477539 5.776824951171875 C 47.75406265258789 3.93426513671875 43.12476348876953 3 38.35107421875 3 M 38.35107421875 0 C 59.53179931640625 0 76.7021484375 17.17036056518555 76.7021484375 38.35107421875 C 76.7021484375 59.53179931640625 59.53179931640625 76.7021484375 38.35107421875 76.7021484375 C 17.17036056518555 76.7021484375 0 59.53179931640625 0 38.35107421875 C 0 17.17036056518555 17.17036056518555 0 38.35107421875 0 Z" stroke="none" fill="#719acc"/>
                          </g>
                        </g>
                      </g>
                    </g>
                  </g>
                </g>
              </g>
            </g>
          </g>
        </g>
      </g>
    </g>
    <g id="Grupo_1175599" data-name="Grupo 1175599" transform="translate(610.269 934.032)">
      <g id="Grupo_1175600" data-name="Grupo 1175600" transform="translate(0 0)">
        <path id="Trazado_1030935" data-name="Trazado 1030935" d="M51.4,54.455h0ZM37.385,37.347c.292-.117.523-.217.76-.3.1-.035.245-.086.319-.039a4.057,4.057,0,0,1,1.673,1.315,6.32,6.32,0,0,0,.834,1.049.926.926,0,0,1,.211.748A1.786,1.786,0,0,0,41.4,41.2c1.245,1.629,2.527,3.228,3.828,4.808a1.635,1.635,0,0,0,2.352.209q.832-.677,1.613-1.42a1.865,1.865,0,0,0,.2-2.595c-1.213-1.544-2.448-3.068-3.676-4.6a1.379,1.379,0,0,0-1.187-.556.5.5,0,0,1-.386-.14c-.611-.967-1.7-1.587-1.85-2.9a1.089,1.089,0,0,1,.077-.794c3-5.1.79-11.9-4.551-13.99a.589.589,0,0,1-.444-.67c.017-2.234.027-4.466,0-6.7A5.112,5.112,0,0,0,33.618,6.88,6.716,6.716,0,0,0,32.083,6.7c-1.432-.022-2.863-.007-4.309-.007-.008-.113-.017-.179-.019-.247-.02-.868-.179-1.03-1.015-1.03H23.5c-1.384-2.977-6.55-2.954-7.911,0-1.143,0-2.294,0-3.446,0-.566,0-.79.238-.809.819,0,.137,0,.274,0,.456H10.81c-1.352,0-2.706-.014-4.058,0a5.116,5.116,0,0,0-5.046,5.368q-.008,17.143,0,34.287a5.1,5.1,0,0,0,5.121,5.385q12.7.005,25.4,0a5.1,5.1,0,0,0,5.153-5.408c.007-2.8,0-5.591,0-8.387v-.592" transform="translate(0 -3.191)" fill="#fefefe"/>
        <path id="Trazado_1030936" data-name="Trazado 1030936" d="M37.94,37.62v.6c0,2.818.005,5.636,0,8.454a5.143,5.143,0,0,1-5.188,5.451q-12.786,0-25.572,0a5.133,5.133,0,0,1-5.156-5.428q-.008-17.28,0-34.561A5.155,5.155,0,0,1,7.1,6.723c1.361-.017,2.724,0,4.086,0h.526c0-.184,0-.321,0-.459.019-.588.243-.824.814-.827,1.16-.006,2.319,0,3.468,0,1.37-2.977,6.571-3,7.964,0h3.261c.842,0,1,.164,1.023,1.039,0,.068.009.135.018.248,1.456,0,2.9-.015,4.339.008a6.689,6.689,0,0,1,1.545.181,5.154,5.154,0,0,1,3.784,5.011c.027,2.251.016,4.5,0,6.753a.594.594,0,0,0,.447.674c5.378,2.106,7.6,8.96,4.581,14.1a1.1,1.1,0,0,0-.076.8c.152,1.327,1.246,1.952,1.862,2.927a.493.493,0,0,0,.388.141,1.392,1.392,0,0,1,1.2.561c1.235,1.544,2.479,3.08,3.7,4.637a1.88,1.88,0,0,1-.2,2.615c-.523.5-1.066.977-1.624,1.432a1.645,1.645,0,0,1-2.367-.211c-1.31-1.593-2.6-3.2-3.854-4.847a1.808,1.808,0,0,1-.225-1.091.935.935,0,0,0-.213-.754A6.334,6.334,0,0,1,40.71,38.6a4.1,4.1,0,0,0-1.684-1.326c-.074-.046-.219,0-.321.04-.238.083-.471.184-.764.3m-11.491-6.05c-.146-.811-.355-1.615-.428-2.433a9.57,9.57,0,0,1,5.017-9.363,30.312,30.312,0,0,1,2.869-1.111c0-2.135,0-4.348,0-6.561a1,1,0,0,0-1.091-1.141c-1.344-.005-2.688,0-4.032,0h-.548c0,.226.012.386,0,.544-.042.474-.266.735-.746.735q-7.511-.007-15.021,0c-.482,0-.7-.27-.74-.742-.014-.168,0-.339,0-.535-1.616,0-3.177-.023-4.737.023-.255.007-.5.321-.753.493a2.979,2.979,0,0,0-.17.691q-.013,17.25-.007,34.5c0,.83.353,1.2,1.137,1.2q12.783,0,25.567,0c.787,0,1.143-.372,1.144-1.2q.005-4.2,0-8.4c0-.088-.008-.174-.013-.273-.307-.069-.6-.123-.891-.2a9.356,9.356,0,0,1-6.553-6.23M35.205,38.1c0,2.88,0,5.715,0,8.549a2.355,2.355,0,0,1-2.457,2.591q-12.763,0-25.524,0a2.351,2.351,0,0,1-2.467-2.581q0-17.229,0-34.458A2.28,2.28,0,0,1,7.17,9.659c1.344-.011,2.69,0,4.035,0h.5V8.079c-1.516,0-3.011.061-4.5-.016a3.951,3.951,0,0,0-3.9,4.082c.027,11.521.009,23.043.014,34.564a3.774,3.774,0,0,0,3.841,4.047q12.813.015,25.625,0a3.784,3.784,0,0,0,3.849-4.092c.006-2.73,0-5.46,0-8.19v-.517l-1.434.146M26.912,10.851V6.806c-1.118,0-2.208-.005-3.3,0a.857.857,0,0,1-.81-.575,2.942,2.942,0,0,0-.895-1.142,3.545,3.545,0,0,0-3.753-.064,2.429,2.429,0,0,0-.962,1.084.929.929,0,0,1-.977.7c-1.054-.021-2.107-.006-3.171-.006v4.044ZM41.786,34.784c-.764-.622-.5-1.169-.075-1.811a8.347,8.347,0,0,0,1.316-4.39,8.021,8.021,0,0,0-9.091-8.446,8.277,8.277,0,0,0-6.6,9.6c.823,5.346,6.334,8.486,11.024,6.253.874-.416.874-.415,1.587.289.02.02.062.013.13.026l1.713-1.52M36.644,18.83c0-2.348.019-4.632-.006-6.916a3.806,3.806,0,0,0-2.993-3.75,3.023,3.023,0,0,0-.6-.079c-1.591-.006-3.183,0-4.776,0V9.618c1.512,0,2.99-.009,4.468,0a2.351,2.351,0,0,1,2.456,2.59c.005,1.967,0,3.934,0,5.9v.577l1.447.14m6.3,21.823c1.278,1.6,2.52,3.157,3.765,4.712a.487.487,0,0,0,.792.057q.659-.577,1.314-1.159c.433-.387.451-.6.08-1.064q-1.309-1.649-2.627-3.293c-.333-.415-.67-.826-1.034-1.274l-2.29,2.021M41.172,37.1l1.577,1.961,1.057-.946-1.572-1.953-1.062.938" transform="translate(-0.484 -3.191)" fill="#030404"/>
        <path id="Trazado_1030937" data-name="Trazado 1030937" d="M25.056,29.551a8.211,8.211,0,0,0,5.872,5.3c.259.067.523.113.8.172,0,.084.011.158.011.232q0,3.572,0,7.143c0,.7-.32,1.017-1.026,1.017q-11.457,0-22.914,0c-.7,0-1.019-.317-1.019-1.023q0-14.671.005-29.342a2.381,2.381,0,0,1,.153-.587,2.647,2.647,0,0,1,.19.486A20.76,20.76,0,0,0,9.6,19.578a22,22,0,0,0,4.155,5.064,1.746,1.746,0,0,0,.431.221,7.021,7.021,0,0,0,1.084,3.116,10.61,10.61,0,0,0,3.071,3.01.655.655,0,0,1,.346.656c-.026.4-.006.812,0,1.219a.556.556,0,0,0,.555.633c.347.025.575-.227.585-.645.011-.451-.013-.9.012-1.354a.635.635,0,0,1,.2-.4c.753-.641,1.52-1.265,2.283-1.895.555.109,1.106.241,1.665.32a8.8,8.8,0,0,0,1.07.029m-4.619,9.684h-8c-.135,0-.312-.046-.4.02-.183.141-.433.337-.442.522s.214.411.387.563c.09.079.289.045.438.045q7.955,0,15.909,0c.164,0,.382.033.481-.055a.946.946,0,0,0,.363-.584c0-.169-.252-.358-.43-.487-.09-.066-.263-.022-.4-.022h-7.91m-.051-2.7H28.3a3.023,3.023,0,0,0,.362,0A.576.576,0,0,0,28.7,35.38a2.06,2.06,0,0,0-.406-.012q-7.912,0-15.823,0c-.165,0-.379-.043-.484.042-.177.143-.4.376-.392.563s.254.388.435.534c.084.068.262.022.4.022h7.957m-10.44,0a.587.587,0,1,0,.039-1.162.6.6,0,0,0-.677.565.578.578,0,0,0,.639.6M10.63,39.8a.588.588,0,0,0-.672-.562c-.408,0-.655.221-.65.578a.593.593,0,0,0,.667.572.594.594,0,0,0,.655-.588" transform="translate(-1.625 1.902)" fill="#e5e5e5"/>
        <path id="Trazado_1030938" data-name="Trazado 1030938" d="M25.105,29.41a8.78,8.78,0,0,1-1.07-.029c-.559-.079-1.111-.211-1.665-.319a1.943,1.943,0,0,1,.147-.223,7.073,7.073,0,0,0,1.4-7.351,19.325,19.325,0,0,0-4.163-6.571c-.311-.351-.633-.326-.95.065-.729.9-1.482,1.783-2.144,2.729a11.26,11.26,0,0,0-2.421,7.01,1.746,1.746,0,0,1-.431-.221,21.984,21.984,0,0,1-4.155-5.064,20.8,20.8,0,0,1-2.476-6.63,2.614,2.614,0,0,0-.19-.486c.225-.146.446-.413.675-.419,1.4-.04,2.8-.02,4.245-.02,0,.166-.011.311,0,.454a.6.6,0,0,0,.662.632q6.733,0,13.464,0a.6.6,0,0,0,.668-.625c.013-.134,0-.27,0-.462H27.2c1.2,0,2.409,0,3.614,0a.876.876,0,0,1,.978.969c0,1.882,0,3.765,0,5.581-.881.319-1.762.557-2.571.945a8.051,8.051,0,0,0-4.5,7.963c.066.7.252,1.381.384,2.07" transform="translate(-1.675 -3.445)" fill="#fefefe"/>
        <path id="Trazado_1030939" data-name="Trazado 1030939" d="M32.127,39.336l1.286-.149v.528q0,4.184,0,8.367c0,2.478-1.393,4.18-3.45,4.182q-11.483.015-22.967,0c-2.035,0-3.442-1.7-3.442-4.135,0-11.772.011-23.546-.013-35.318C3.534,10.2,5.417,8.545,7.032,8.641c1.334.079,2.675.016,4.033.016v1.613h-.449c-1.206,0-2.411-.008-3.616,0-1.366.012-2.164.972-2.164,2.6q0,17.605,0,35.21c0,1.618.855,2.636,2.211,2.637q11.438,0,22.876,0c1.349,0,2.2-1.024,2.2-2.647,0-2.9,0-5.793,0-8.735" transform="translate(-0.849 -4.497)" fill="#6cb1e2"/>
        <path id="Trazado_1030940" data-name="Trazado 1030940" d="M27.447,10.062H15.019V6.623c.953,0,1.9-.013,2.842.005a.83.83,0,0,0,.876-.6,2.115,2.115,0,0,1,.863-.922,3.321,3.321,0,0,1,3.364.056,2.517,2.517,0,0,1,.8.971.765.765,0,0,0,.726.488c.977-.007,1.954,0,2.956,0Z" transform="translate(-1.911 -3.548)" fill="#6cb1e2"/>
        <path id="Trazado_1030941" data-name="Trazado 1030941" d="M44.786,34.581,43.25,35.874c-.061-.011-.1-.006-.116-.022-.639-.6-.639-.6-1.422-.246a7.092,7.092,0,1,1,4.186-6.3,6.839,6.839,0,0,1-1.179,3.733c-.379.547-.617,1.011.068,1.541m-5.892.484A5.9,5.9,0,1,0,33,29.162a5.895,5.895,0,0,0,5.894,5.9" transform="translate(-3.845 -4.189)" fill="#eca623"/>
        <path id="Trazado_1030942" data-name="Trazado 1030942" d="M40.473,17.8l-1.3-.119v-.491c0-1.673,0-3.346,0-5.019a2.049,2.049,0,0,0-2.2-2.2c-1.325-.01-2.649,0-4,0V8.663c1.427,0,2.853,0,4.28,0a2.848,2.848,0,0,1,.536.067,3.281,3.281,0,0,1,2.682,3.189c.022,1.942.005,3.885.005,5.882" transform="translate(-4.664 -4.503)" fill="#6cb1e2"/>
        <path id="Trazado_1030943" data-name="Trazado 1030943" d="M50.272,44.559l2.053-1.719c.326.381.629.731.927,1.083q1.179,1.4,2.354,2.8c.333.4.317.575-.071.9s-.784.658-1.178.986a.45.45,0,0,1-.71-.049c-1.116-1.322-2.229-2.646-3.375-4.007" transform="translate(-7.028 -6.898)" fill="#eca623"/>
        <path id="Trazado_1030944" data-name="Trazado 1030944" d="M48.177,40.876l.952-.8,1.409,1.661-.947.8-1.413-1.668" transform="translate(-7.369 -7.09)" fill="#eca623"/>
        <path id="Trazado_1030945" data-name="Trazado 1030945" d="M16.523,25.6a11.257,11.257,0,0,1,2.421-7.01c.661-.946,1.415-1.831,2.143-2.729.318-.392.639-.417.95-.065A19.316,19.316,0,0,1,26.2,22.371a7.074,7.074,0,0,1-1.4,7.351,1.939,1.939,0,0,0-.147.222c-.763.629-1.53,1.254-2.283,1.895a.635.635,0,0,0-.2.4c-.025.45,0,.9-.012,1.353-.01.419-.237.671-.585.646a.557.557,0,0,1-.555-.633c0-.407-.021-.814,0-1.219a.655.655,0,0,0-.346-.655,10.607,10.607,0,0,1-3.071-3.009A7.038,7.038,0,0,1,16.523,25.6m5.62,4.885c2.076-1.242,3.516-3.768,3.214-5.652-.027.007-.062,0-.079.021-1,1-2,1.99-3,3a.566.566,0,0,0-.132.36c-.012.735-.006,1.47-.006,2.276M17.806,24.73c-.254,2.331,1.6,4.841,3.216,5.722a4.456,4.456,0,0,1,.007-.776,2.863,2.863,0,0,0-1.213-2.952,25.9,25.9,0,0,1-2.01-1.993m.842-3.442c-.218.62-.39,1.149-.592,1.663a.476.476,0,0,0,.16.587c.837.823,1.662,1.658,2.494,2.486a3.435,3.435,0,0,0,.319.244c0-.864,0-1.644,0-2.423a.441.441,0,0,0-.1-.283c-.725-.737-1.46-1.466-2.271-2.275M22.159,26.2l.116.04q1.4-1.4,2.8-2.812a.343.343,0,0,0,.1-.268c-.195-.6-.41-1.2-.644-1.872-.808.81-1.531,1.533-2.25,2.261a.383.383,0,0,0-.117.232c-.008.807-.005,1.613-.005,2.42M21,21.974V17.822a22.175,22.175,0,0,0-1.6,2.191c-.055.082-.085.268-.036.319.515.536,1.048,1.054,1.641,1.642m1.281-4.2-.1.068v4.145c.57-.566,1.094-1.077,1.6-1.6a.331.331,0,0,0,.042-.31c-.506-.773-1.029-1.535-1.549-2.3" transform="translate(-2.218 -3.433)" fill="#030404"/>
        <path id="Trazado_1030946" data-name="Trazado 1030946" d="M21.957,47.673h7.909c.135,0,.308-.044.4.021.178.129.426.319.43.488a.94.94,0,0,1-.363.583c-.1.088-.316.055-.48.056q-7.954,0-15.909,0c-.15,0-.347.034-.438-.045-.173-.151-.4-.378-.387-.563s.259-.38.442-.522c.087-.066.263-.019.4-.019h8" transform="translate(-1.405 -8.071)" fill="#030404"/>
        <path id="Trazado_1030947" data-name="Trazado 1030947" d="M21.905,43.751H13.948c-.135,0-.313.046-.4-.021-.181-.146-.427-.347-.435-.534s.214-.42.392-.563c.1-.084.318-.042.483-.042q7.912,0,15.824,0a2.062,2.062,0,0,1,.406.011.576.576,0,0,1-.042,1.147,3.175,3.175,0,0,1-.361,0H21.905" transform="translate(-1.403 -7.512)" fill="#030404"/>
        <path id="Trazado_1030948" data-name="Trazado 1030948" d="M10.744,43.754a.577.577,0,0,1-.639-.6.6.6,0,0,1,.677-.565.587.587,0,1,1-.039,1.162" transform="translate(-2.423 -7.516)" fill="#030404"/>
        <path id="Trazado_1030949" data-name="Trazado 1030949" d="M11.428,48.241a.594.594,0,0,1-.655.588.593.593,0,0,1-.667-.572c0-.357.242-.575.65-.578a.588.588,0,0,1,.672.562" transform="translate(-2.423 -8.076)" fill="#030404"/>
        <path id="Trazado_1030950" data-name="Trazado 1030950" d="M39.292,35.448a5.9,5.9,0,1,1,5.9-5.921,5.855,5.855,0,0,1-5.9,5.921m-3.776-3.017a4.646,4.646,0,0,0,4.534,1.807A4.7,4.7,0,0,0,44,29.9a2.866,2.866,0,0,0,.063-.484,4.772,4.772,0,1,0-8.551,3.014" transform="translate(-4.317 -4.556)" fill="#030404"/>
        <path id="Trazado_1030951" data-name="Trazado 1030951" d="M23.919,33.416c0-.805-.006-1.54.006-2.275a.561.561,0,0,1,.132-.36c.992-1.005,2-2,3-3,.017-.017.052-.014.079-.021.3,1.885-1.137,4.41-3.214,5.652" transform="translate(-3.615 -5.514)" fill="#59a542"/>
        <path id="Trazado_1030952" data-name="Trazado 1030952" d="M18.206,27.624a25.906,25.906,0,0,0,2.01,1.993,2.864,2.864,0,0,1,1.213,2.952,4.458,4.458,0,0,0-.007.776c-1.619-.88-3.47-3.391-3.216-5.722" transform="translate(-2.746 -5.494)" fill="#59a542"/>
        <path id="Trazado_1030953" data-name="Trazado 1030953" d="M19.12,23.1c.81.809,1.545,1.538,2.271,2.275a.441.441,0,0,1,.1.284c.008.778.005,1.558.005,2.423a3.706,3.706,0,0,1-.319-.245c-.832-.828-1.657-1.663-2.494-2.485a.478.478,0,0,1-.16-.587c.2-.515.374-1.043.593-1.664" transform="translate(-2.803 -5.122)" fill="#59a542"/>
        <path id="Trazado_1030954" data-name="Trazado 1030954" d="M23.939,28c0-.807,0-1.613.005-2.42a.385.385,0,0,1,.117-.232c.718-.728,1.441-1.45,2.25-2.26.234.672.449,1.268.644,1.871a.342.342,0,0,1-.1.268q-1.392,1.413-2.8,2.812L23.939,28" transform="translate(-3.63 -5.124)" fill="#59a542"/>
        <path id="Trazado_1030955" data-name="Trazado 1030955" d="M21.885,22.69c-.593-.588-1.126-1.106-1.641-1.643-.049-.05-.018-.236.036-.318a22.175,22.175,0,0,1,1.6-2.191Z" transform="translate(-3.12 -4.726)" fill="#59a542"/>
        <path id="Trazado_1030956" data-name="Trazado 1030956" d="M24.065,18.478c.519.765,1.042,1.527,1.549,2.3a.331.331,0,0,1-.042.31c-.508.525-1.032,1.036-1.6,1.6V18.546l.1-.068" transform="translate(-3.699 -4.717)" fill="#59a542"/>
        <path id="Trazado_1030957" data-name="Trazado 1030957" d="M35.864,32.783a4.772,4.772,0,1,1,8.551-3.014,2.866,2.866,0,0,1-.063.484c-.138.056-.281.1-.413.17a17.222,17.222,0,0,1-4.121,1.645c-1.305.293-2.635.48-3.954.715" transform="translate(-4.738 -5.086)" fill="#b7defd"/>
        <path id="Trazado_1030958" data-name="Trazado 1030958" d="M36.184,34.405c1.319-.234,2.649-.422,3.954-.715a17.222,17.222,0,0,0,4.121-1.645c.132-.068.274-.114.413-.17a4.7,4.7,0,0,1-3.954,4.337,4.646,4.646,0,0,1-4.534-1.807" transform="translate(-5.026 -6.035)" fill="#6cb1e2"/>
      </g>
    </g>
  </g>
</svg>
