<svg xmlns="http://www.w3.org/2000/svg" xmlns:xlink="http://www.w3.org/1999/xlink" width="110.057" height="110.057" viewBox="0 0 110.057 110.057">
  <defs>
    <filter id="Trazado_874925" x="0" y="0" width="110.057" height="110.057" filterUnits="userSpaceOnUse">
      <feOffset dy="3" input="SourceAlpha"/>
      <feGaussianBlur stdDeviation="3" result="blur"/>
      <feFlood flood-opacity="0.161"/>
      <feComposite operator="in" in2="blur"/>
      <feComposite in="SourceGraphic"/>
    </filter>
    <clipPath id="clip-path">
      <rect id="Rectángulo_415546" data-name="Rectángulo 415546" width="61.901" height="61.901" fill="none"/>
    </clipPath>
  </defs>
  <g id="Grupo_1175165" data-name="Grupo 1175165" transform="translate(9 6)">
    <g id="Grupo_1109818" data-name="Grupo 1109818" transform="translate(-0.001 0)">
      <g transform="matrix(1, 0, 0, 1, -9, -6)" filter="url(#Trazado_874925)">
        <g id="Trazado_874925-2" data-name="Trazado 874925" transform="translate(9 6)" fill="#efdb59" opacity="0.859">
          <path d="M 46.02833557128906 90.55719757080078 C 40.01638793945312 90.55719757080078 34.1850700378418 89.38008880615234 28.69636154174805 87.05855560302734 C 23.39413642883301 84.81590270996094 18.63193511962891 81.60504150390625 14.54205513000488 77.51514434814453 C 10.45216178894043 73.42526245117188 7.241295337677002 68.66306304931641 4.998642444610596 63.36083984375 C 2.677109003067017 57.87213134765625 1.500002264976501 52.04081344604492 1.500002264976501 46.02886581420898 C 1.500002264976501 40.01638412475586 2.677109003067017 34.18506622314453 4.998642444610596 28.69635963439941 C 7.241295337677002 23.39413261413574 10.45216178894043 18.63193130493164 14.54205513000488 14.54205226898193 C 18.63193511962891 10.45215892791748 23.39413642883301 7.241291999816895 28.69636154174805 4.99863862991333 C 34.1850700378418 2.67710542678833 40.01638793945312 1.499998807907104 46.02833557128906 1.499998807907104 C 52.040283203125 1.499998807907104 57.87160110473633 2.67710542678833 63.36030960083008 4.99863862991333 C 68.66253662109375 7.241291999816895 73.42473602294922 10.45215892791748 77.51461791992188 14.54205226898193 C 81.60450744628906 18.63193130493164 84.81537628173828 23.39413261413574 87.05802917480469 28.69635963439941 C 89.37956237792969 34.18506622314453 90.55667114257812 40.01638412475586 90.55667114257812 46.0283317565918 C 90.55667114257812 52.04081344604492 89.37956237792969 57.87213134765625 87.05802917480469 63.36083984375 C 84.81537628173828 68.66306304931641 81.60450744628906 73.42526245117188 77.51461791992188 77.51514434814453 C 73.42473602294922 81.60504150390625 68.66253662109375 84.81590270996094 63.36030960083008 87.05855560302734 C 57.87160110473633 89.38008880615234 52.040283203125 90.55719757080078 46.02833557128906 90.55719757080078 Z" stroke="none"/>
          <path d="M 46.02833557128906 3 C 40.21821975708008 3 34.5835075378418 4.137245178222656 29.28069305419922 6.380142211914062 C 24.15726470947266 8.547172546386719 19.55532073974609 11.65008544921875 15.60270690917969 15.60271453857422 C 11.65009307861328 19.55532836914062 8.547164916992188 24.15725708007812 6.380134582519531 29.28068542480469 C 4.137237548828125 34.58349990844727 2.999992370605469 40.21822738647461 2.999992370605469 46.02886962890625 C 2.999992370605469 51.83898544311523 4.137237548828125 57.47369766235352 6.380134582519531 62.77651214599609 C 8.547164916992188 67.89994049072266 11.65009307861328 72.50186920166016 15.60270690917969 76.45449829101562 C 19.55532073974609 80.40711212158203 24.15726470947266 83.51002502441406 29.28069305419922 85.67705535888672 C 34.5835075378418 87.91995239257812 40.21821975708008 89.05719757080078 46.02833557128906 89.05719757080078 C 51.83845138549805 89.05719757080078 57.47316360473633 87.91995239257812 62.77597808837891 85.67705535888672 C 67.89940643310547 83.51002502441406 72.50135040283203 80.40711212158203 76.45396423339844 76.45449829101562 C 80.40657806396484 72.50188446044922 83.50949096679688 67.89994049072266 85.67652130126953 62.77651214599609 C 87.91941833496094 57.47369766235352 89.05666351318359 51.83898544311523 89.05666351318359 46.02834320068359 C 89.05666351318359 40.21822738647461 87.91941833496094 34.58349990844727 85.67652130126953 29.28068542480469 C 83.50949096679688 24.15725708007812 80.40657806396484 19.55532836914062 76.45396423339844 15.60271453857422 C 72.50133514404297 11.65008544921875 67.89940643310547 8.547172546386719 62.77597808837891 6.380142211914062 C 57.47316360473633 4.137245178222656 51.83845138549805 3 46.02833557128906 3 M 46.02833557128906 0 C 71.44908142089844 0 92.05666351318359 20.60758209228516 92.05666351318359 46.02834320068359 L 92.05666351318359 46.02886962890625 C 92.05666351318359 71.44961547851562 71.44908142089844 92.05719757080078 46.02833557128906 92.05719757080078 C 20.60758972167969 92.05719757080078 -7.62939453125e-06 71.44961547851562 -7.62939453125e-06 46.02886962890625 L -7.62939453125e-06 46.02834320068359 C -7.62939453125e-06 20.60758209228516 20.60758972167969 0 46.02833557128906 0 Z" stroke="none" fill="#fff"/>
        </g>
      </g>
      <g id="Trazado_874923" data-name="Trazado 874923" transform="translate(0 0)" fill="none">
        <path d="M46.028,0A46.028,46.028,0,0,1,92.057,46.028h0A46.028,46.028,0,0,1,0,46.029H0A46.028,46.028,0,0,1,46.028,0Z" stroke="none"/>
        <path d="M 46.02833557128906 3 C 40.21821975708008 3 34.5835075378418 4.137245178222656 29.28069305419922 6.380142211914062 C 24.15726470947266 8.547172546386719 19.55532073974609 11.65008544921875 15.60270690917969 15.60271453857422 C 11.65009307861328 19.55532836914062 8.547164916992188 24.15725708007812 6.380134582519531 29.28068542480469 C 4.137237548828125 34.58349990844727 2.999992370605469 40.21822738647461 2.999992370605469 46.02886962890625 C 2.999992370605469 51.83898544311523 4.137237548828125 57.47369766235352 6.380134582519531 62.77651214599609 C 8.547164916992188 67.89994049072266 11.65009307861328 72.50186920166016 15.60270690917969 76.45449829101562 C 19.55532073974609 80.40711212158203 24.15726470947266 83.51002502441406 29.28069305419922 85.67705535888672 C 34.5835075378418 87.91995239257812 40.21821975708008 89.05719757080078 46.02833557128906 89.05719757080078 C 51.83845138549805 89.05719757080078 57.47316360473633 87.91995239257812 62.77597808837891 85.67705535888672 C 67.89940643310547 83.51002502441406 72.50135040283203 80.40711212158203 76.45396423339844 76.45449829101562 C 80.40657806396484 72.50188446044922 83.50949096679688 67.89994049072266 85.67652130126953 62.77651214599609 C 87.91941833496094 57.47369766235352 89.05666351318359 51.83898544311523 89.05666351318359 46.02834320068359 C 89.05666351318359 40.21822738647461 87.91941833496094 34.58349990844727 85.67652130126953 29.28068542480469 C 83.50949096679688 24.15725708007812 80.40657806396484 19.55532836914062 76.45396423339844 15.60271453857422 C 72.50133514404297 11.65008544921875 67.89940643310547 8.547172546386719 62.77597808837891 6.380142211914062 C 57.47316360473633 4.137245178222656 51.83845138549805 3 46.02833557128906 3 M 46.02833557128906 0 C 71.44908142089844 0 92.05666351318359 20.60758209228516 92.05666351318359 46.02834320068359 L 92.05666351318359 46.02886962890625 C 92.05666351318359 71.44961547851562 71.44908142089844 92.05719757080078 46.02833557128906 92.05719757080078 C 20.60758972167969 92.05719757080078 -7.62939453125e-06 71.44961547851562 -7.62939453125e-06 46.02886962890625 L -7.62939453125e-06 46.02834320068359 C -7.62939453125e-06 20.60758209228516 20.60758972167969 0 46.02833557128906 0 Z" stroke="none" fill="#fff"/>
      </g>
    </g>
    <g id="Grupo_1175647" data-name="Grupo 1175647" transform="translate(15.078 15.078)">
      <g id="Grupo_1175642" data-name="Grupo 1175642">
        <g id="Grupo_1175641" data-name="Grupo 1175641" clip-path="url(#clip-path)">
          <path id="Trazado_1031090" data-name="Trazado 1031090" d="M21.151,34.265S17.842,21.947,2.646,26.674c0,0,1.188,16.394,14.647,13.28Z" transform="translate(-1.739 -16.825)" fill="#fcd59f"/>
          <path id="Trazado_1031091" data-name="Trazado 1031091" d="M124.011,34.265s3.309-12.318,18.505-7.591c0,0-1.188,16.394-14.647,13.28Z" transform="translate(-81.522 -16.825)" fill="#fcd59f"/>
          <path id="Trazado_1031092" data-name="Trazado 1031092" d="M142.5,25.775a24.6,24.6,0,0,1,3.944.9s-.839,11.586-9.1,13.428c12.794,2.387,13.94-13.428,13.94-13.428a19.3,19.3,0,0,0-8.78-.9" transform="translate(-90.282 -16.826)" fill="#f7c783"/>
          <path id="Trazado_1031093" data-name="Trazado 1031093" d="M107.022,10.141s6.771-4.618,8.438-7.494c0,0,2.18,4.227-.3,10l-8.137,1.39-.127-3.207" transform="translate(-70.27 -1.74)" fill="#cad4e6"/>
          <path id="Trazado_1031094" data-name="Trazado 1031094" d="M57.2,10.141s-6.771-4.618-8.438-7.494c0,0-2.179,4.227.3,10l8.137,1.39.127-3.207" transform="translate(-31.47 -1.74)" fill="#cad4e6"/>
          <path id="Trazado_1031095" data-name="Trazado 1031095" d="M59.906,77.112H46.553a9.966,9.966,0,0,1-9.924-9.024L33.909,39.4A13.6,13.6,0,0,1,47.457,24.518H59A13.6,13.6,0,0,1,72.55,39.4l-2.72,28.686a9.966,9.966,0,0,1-9.923,9.024" transform="translate(-22.251 -16.118)" fill="#fff1ec"/>
          <path id="Trazado_1031096" data-name="Trazado 1031096" d="M97.987,24.519H93.151A13.6,13.6,0,0,1,106.7,39.4l-2.72,28.686a9.967,9.967,0,0,1-9.924,9.024h4.836a9.967,9.967,0,0,0,9.924-9.024l2.72-28.686A13.6,13.6,0,0,0,97.987,24.519" transform="translate(-61.235 -16.118)" fill="#fce2c5"/>
          <path id="Trazado_1031097" data-name="Trazado 1031097" d="M41.911,138.184a9.966,9.966,0,0,0,9.924,9.024H65.187a9.967,9.967,0,0,0,9.924-9.024,6.432,6.432,0,0,0-6.4-7.037H48.315a6.431,6.431,0,0,0-6.4,7.037" transform="translate(-27.532 -86.213)" fill="#ff8093"/>
          <path id="Trazado_1031098" data-name="Trazado 1031098" d="M79.9,32.263c.007,4.329,2.556,6.732,5.84,8.492,5.691,3.048,3.429,7.081,5.96,10.85,2.6,3.871,6.208,3.918,9.706,2.73L102.826,39.4A13.6,13.6,0,0,0,89.279,24.518H82.67A11.126,11.126,0,0,0,79.9,32.263" transform="translate(-52.527 -16.118)" fill="#8f5a46"/>
        </g>
      </g>
      <g id="Grupo_1175644" data-name="Grupo 1175644">
        <g id="Grupo_1175643" data-name="Grupo 1175643" clip-path="url(#clip-path)">
          <path id="Trazado_1031099" data-name="Trazado 1031099" d="M97.987,24.519H93.151A13.6,13.6,0,0,1,106.7,39.4l-1.416,14.933c-.366.124-.732.234-1.1.328a9.278,9.278,0,0,0,5.935-.328L111.535,39.4A13.6,13.6,0,0,0,97.987,24.519" transform="translate(-61.235 -16.118)" fill="#7d4f3d"/>
          <path id="Trazado_1031100" data-name="Trazado 1031100" d="M61.264,8.984C53.5,6.568,48.694,8.508,45.934,10.769l-.007-.006C48.219,4.925,46.091.675,46,.492a.907.907,0,0,0-1.59-.039c-1.232,2.125-5.942,5.658-7.936,7.042H26.007C24.013,6.111,19.3,2.578,18.071.453a.907.907,0,0,0-1.59.039,12.949,12.949,0,0,0-.052,9.954q-.221.168-.435.345C11.226,6.85,5.045,7.613.637,8.984A.906.906,0,0,0,0,9.915c.019.264.509,6.506,4.106,10.734A.907.907,0,0,0,5.49,19.474c-2.54-2.985-3.362-7.285-3.6-8.972,5.3-1.5,9.583-.978,12.76,1.538A14.369,14.369,0,0,0,10.7,22.485a8.529,8.529,0,0,1-1.976-.57.907.907,0,0,0-.716,1.666,10.451,10.451,0,0,0,2.84.758l2.629,27.719A10.976,10.976,0,0,0,24.3,61.9H37.655a10.974,10.974,0,0,0,10.826-9.844L51.11,24.333c4.028-.521,7.165-3.165,9.085-7.668a23.333,23.333,0,0,0,1.7-6.75.906.906,0,0,0-.635-.931M49.4,23.2,48.038,37.535c-5.126,1.522-8.508-1.511-9.464-6.482-.459-2.39-.98-5.1-4.929-7.215-3.753-2.01-5.356-4.311-5.362-7.693a10.747,10.747,0,0,1,2.261-6.837h6.208A12.7,12.7,0,0,1,49.4,23.2M44.88,2.819a10.68,10.68,0,0,1,.2,1.124A12.365,12.365,0,0,1,44.4,9.674,14.566,14.566,0,0,0,39.26,7.715a40.927,40.927,0,0,0,5.621-4.9M17.6,2.824a40.544,40.544,0,0,0,5.521,4.819,14.447,14.447,0,0,0-5.133,1.768A12.128,12.128,0,0,1,17.6,2.824m-1,9.838a12.659,12.659,0,0,1,8.6-3.354H28.32a12.864,12.864,0,0,0-1.85,6.839c.007,4.3,2.693,7.347,6.319,9.289,3.187,1.707,3.566,3.677,4,5.959.837,4.355,3.528,8.4,8.414,8.4a11.267,11.267,0,0,0,2.647-.341l-.723,7.622a7.438,7.438,0,0,0-5.958-3.054.907.907,0,0,0,0,1.814,5.58,5.58,0,0,1,5.5,6.045,9.156,9.156,0,0,1-9.021,8.2H24.3a9.157,9.157,0,0,1-9.022-8.2,5.581,5.581,0,0,1,5.5-6.045h15.6a.907.907,0,0,0,0-1.814h-15.6a7.44,7.44,0,0,0-5.958,3.054L12.561,23.2A12.6,12.6,0,0,1,16.6,12.662M58.51,15.995c-1.614,3.758-4.052,5.936-7.253,6.484a14.642,14.642,0,0,0-3.98-10.465c3.174-2.494,7.449-3,12.729-1.512a22.059,22.059,0,0,1-1.5,5.493" transform="translate(0 0)" fill="#060606"/>
        </g>
      </g>
      <g id="Grupo_1175646" data-name="Grupo 1175646">
        <g id="Grupo_1175645" data-name="Grupo 1175645" clip-path="url(#clip-path)">
          <path id="Trazado_1031101" data-name="Trazado 1031101" d="M65.506,142.826a4.034,4.034,0,0,0-4.03,4.029.907.907,0,0,0,1.813,0,2.217,2.217,0,1,1,2.216,2.215.907.907,0,0,0,0,1.813,4.029,4.029,0,1,0,0-8.058" transform="translate(-40.413 -93.891)" fill="#060606"/>
          <path id="Trazado_1031102" data-name="Trazado 1031102" d="M95.833,146.856a4.034,4.034,0,0,0,4.03,4.029.907.907,0,0,0,0-1.813,2.215,2.215,0,1,1,2.217-2.215.907.907,0,0,0,1.813,0,4.03,4.03,0,0,0-8.061,0" transform="translate(-62.998 -93.891)" fill="#060606"/>
          <path id="Trazado_1031103" data-name="Trazado 1031103" d="M54.39,64.811A.906.906,0,0,0,55.3,63.9a3.679,3.679,0,0,1,3.676-3.673.907.907,0,1,0,0-1.813A5.494,5.494,0,0,0,53.483,63.9a.906.906,0,0,0,.907.906" transform="translate(-35.159 -38.403)" fill="#060606"/>
          <path id="Trazado_1031104" data-name="Trazado 1031104" d="M110.367,58.418a.907.907,0,0,0,0,1.813,3.679,3.679,0,0,1,3.676,3.673.907.907,0,0,0,1.813,0,5.494,5.494,0,0,0-5.489-5.486" transform="translate(-71.975 -38.403)" fill="#060606"/>
        </g>
      </g>
    </g>
  </g>
</svg>
