<svg xmlns="http://www.w3.org/2000/svg" xmlns:xlink="http://www.w3.org/1999/xlink" width="104.825" height="104.825" viewBox="0 0 104.825 104.825">
  <defs>
    <filter id="Trazado_982547" x="0" y="0" width="104.825" height="104.825" filterUnits="userSpaceOnUse">
      <feOffset dy="3" input="SourceAlpha"/>
      <feGaussianBlur stdDeviation="3" result="blur"/>
      <feFlood flood-opacity="0.161"/>
      <feComposite operator="in" in2="blur"/>
      <feComposite in="SourceGraphic"/>
    </filter>
    <clipPath id="clip-path">
      <rect id="Rectángulo_415610" data-name="Rectángulo 415610" width="67" height="66" transform="translate(0 -0.001)" fill="none"/>
    </clipPath>
  </defs>
  <g id="Grupo_1175571" data-name="Grupo 1175571" transform="translate(-586.25 -914.212)">
    <g id="Grupo_1175060" data-name="Grupo 1175060" transform="translate(595.25 920.212)">
      <g id="Grupo_1174859" data-name="Grupo 1174859" transform="translate(0)">
        <g id="Grupo_1167343" data-name="Grupo 1167343" transform="translate(0)">
          <g id="Grupo_1166777" data-name="Grupo 1166777">
            <g id="Grupo_1164305" data-name="Grupo 1164305">
              <g id="Grupo_1163948" data-name="Grupo 1163948">
                <g id="Grupo_1158168" data-name="Grupo 1158168">
                  <g id="Grupo_1152576" data-name="Grupo 1152576">
                    <g id="Grupo_1148633" data-name="Grupo 1148633">
                      <g id="Grupo_1148525" data-name="Grupo 1148525">
                        <g transform="matrix(1, 0, 0, 1, -9, -6)" filter="url(#Trazado_982547)">
                          <g id="Trazado_982547-2" data-name="Trazado 982547" transform="translate(9 6)" fill="#efdb59">
                            <path d="M 43.41258239746094 85.32517242431641 C 37.75375747680664 85.32517242431641 32.26500701904297 84.21721649169922 27.09878158569336 82.03209686279297 C 22.1080322265625 79.92118072509766 17.62558174133301 76.89891815185547 13.77591991424561 73.04925537109375 C 9.926257133483887 69.19959259033203 6.903995037078857 64.71714782714844 4.793095111846924 59.72639465332031 C 2.607957363128662 54.5601692199707 1.500007390975952 49.07140731811523 1.500007390975952 43.41258239746094 C 1.500007390975952 37.75375747680664 2.607957363128662 32.26500701904297 4.793095111846924 27.09878158569336 C 6.903995037078857 22.1080322265625 9.926257133483887 17.62558174133301 13.77591991424561 13.77591991424561 C 17.62558174133301 9.926257133483887 22.1080322265625 6.903995037078857 27.09878158569336 4.793095111846924 C 32.26500701904297 2.607957363128662 37.75375747680664 1.500007390975952 43.41258239746094 1.500007390975952 C 49.07140731811523 1.500007390975952 54.5601692199707 2.607957363128662 59.72639465332031 4.793095111846924 C 64.71714782714844 6.903995037078857 69.19959259033203 9.926257133483887 73.04925537109375 13.77591991424561 C 76.89891815185547 17.62558174133301 79.92118072509766 22.1080322265625 82.03209686279297 27.09878158569336 C 84.21721649169922 32.26500701904297 85.32517242431641 37.75375747680664 85.32517242431641 43.41258239746094 C 85.32517242431641 49.07140731811523 84.21721649169922 54.5601692199707 82.03209686279297 59.72639465332031 C 79.92118072509766 64.71714782714844 76.89891815185547 69.19959259033203 73.04925537109375 73.04925537109375 C 69.19959259033203 76.89891815185547 64.71714782714844 79.92118072509766 59.72639465332031 82.03209686279297 C 54.5601692199707 84.21721649169922 49.07140731811523 85.32517242431641 43.41258239746094 85.32517242431641 Z" stroke="none"/>
                            <path d="M 43.41258239746094 3 C 37.95559692382812 3 32.6634407043457 4.068084716796875 27.68310928344727 6.174583435058594 C 22.87116622924805 8.209869384765625 18.54896545410156 11.12418365478516 14.83657073974609 14.83657073974609 C 11.12418365478516 18.54896545410156 8.209869384765625 22.87116622924805 6.174583435058594 27.68310928344727 C 4.068084716796875 32.6634407043457 3 37.95559692382812 3 43.41258239746094 C 3 48.86956787109375 4.068084716796875 54.16172409057617 6.174583435058594 59.14206695556641 C 8.209869384765625 63.95401000976562 11.12418365478516 68.27621459960938 14.83657073974609 71.98859405517578 C 18.54896545410156 75.70098114013672 22.87115478515625 78.61529541015625 27.68310928344727 80.65058135986328 C 32.6634407043457 82.757080078125 37.95559692382812 83.82516479492188 43.41258239746094 83.82516479492188 C 48.86956787109375 83.82516479492188 54.16173934936523 82.757080078125 59.14206695556641 80.65058135986328 C 63.95401000976562 78.61529541015625 68.27621459960938 75.70098114013672 71.98859405517578 71.98859405517578 C 75.70098114013672 68.27621459960938 78.61529541015625 63.95401000976562 80.65058135986328 59.14206695556641 C 82.757080078125 54.16173934936523 83.82516479492188 48.86956787109375 83.82516479492188 43.41258239746094 C 83.82516479492188 37.95559692382812 82.757080078125 32.6634407043457 80.65058135986328 27.68310928344727 C 78.61529541015625 22.87115478515625 75.70098114013672 18.54896545410156 71.98859405517578 14.83657073974609 C 68.27621459960938 11.12418365478516 63.95401000976562 8.209869384765625 59.14206695556641 6.174583435058594 C 54.16172409057617 4.068084716796875 48.86956787109375 3 43.41258239746094 3 M 43.41258239746094 0 C 67.38869476318359 0 86.82516479492188 19.43648529052734 86.82516479492188 43.41258239746094 C 86.82516479492188 67.38869476318359 67.38869476318359 86.82516479492188 43.41258239746094 86.82516479492188 C 19.43648529052734 86.82516479492188 0 67.38869476318359 0 43.41258239746094 C 0 19.43648529052734 19.43648529052734 0 43.41258239746094 0 Z" stroke="none" fill="#fbfbf8"/>
                          </g>
                        </g>
                      </g>
                    </g>
                  </g>
                </g>
              </g>
            </g>
          </g>
        </g>
      </g>
    </g>
    <g id="Grupo_1175740" data-name="Grupo 1175740" transform="translate(606.079 931.489)">
      <g id="Grupo_1175739" data-name="Grupo 1175739" transform="translate(-0.472 -0.472)" clip-path="url(#clip-path)">
        <path id="Trazado_1031481" data-name="Trazado 1031481" d="M0,65.3V0m1.04,32.7q0,2.036,0,4.072c0,1.38.464,1.876,1.854,1.832a12.785,12.785,0,0,1,4.946.712c2.984,1.1,6.02,2.07,9.034,3.1a1.985,1.985,0,0,0,2.161-.443,5.491,5.491,0,0,0,1.314-1.848A22.3,22.3,0,0,0,21.472,35.9a21.117,21.117,0,0,0-.706-9.62,5.9,5.9,0,0,0-1.589-2.725,2.176,2.176,0,0,0-2.266-.544c-2.69.909-5.394,1.781-8.06,2.753A14.611,14.611,0,0,1,2.67,26.835c-1.088-.082-1.622.527-1.627,1.6-.007,1.421,0,2.842,0,4.263M54.669,45.788a2.714,2.714,0,0,1,1,2.026,1.546,1.546,0,0,0,.391.913q1.924,2.518,3.9,5a2.016,2.016,0,0,0,2.877.362c.594-.423,1.177-.863,1.752-1.311a1.928,1.928,0,0,0,.384-2.865c-1.261-1.642-2.544-3.267-3.819-4.9a2.046,2.046,0,0,0-1.718-.86c-.717.01-.793-.688-1.143-1.069-.094-.1.046-.485.164-.69a8.561,8.561,0,0,0,.151-9.017A8.725,8.725,0,0,0,50.7,28.785a8.944,8.944,0,0,0-1.218,17.831,9.86,9.86,0,0,0,5.187-.828m-16.5-3.131c0-1.357.006-2.714,0-4.071a1.579,1.579,0,0,0-1.747-1.754q-4.185-.02-8.37,0a1.575,1.575,0,0,0-1.777,1.729q-.021,4.1,0,8.206a1.581,1.581,0,0,0,1.782,1.722q4.153.009,8.305,0a1.6,1.6,0,0,0,1.807-1.76c.007-1.357,0-2.714,0-4.071M32.232,16.938c-1.384,0-2.769-.007-4.153,0a1.6,1.6,0,0,0-1.808,1.766q-.017,4.071,0,8.143a1.6,1.6,0,0,0,1.818,1.758q4.12.013,8.241,0a1.611,1.611,0,0,0,1.836-1.8q.007-4.039,0-8.079A1.614,1.614,0,0,0,36.32,16.94c-1.363-.006-2.725,0-4.088,0M36.2,9.148a3.434,3.434,0,0,0-.751.779.715.715,0,0,0,.422,1,17.434,17.434,0,0,0,2.137.684.8.8,0,0,0,.975-.536.744.744,0,0,0-.337-1.037c-.735-.332-1.518-.559-2.446-.889M24.719,10.685c.735-.127,1.463-.219,2.172-.386a.8.8,0,0,0,.629-.969.809.809,0,0,0-.888-.752,13.352,13.352,0,0,0-2.222.374.8.8,0,0,0-.6.992.9.9,0,0,0,.905.74m27.36,11.228c-.556-.849-1.021-1.652-1.6-2.367a1.024,1.024,0,0,0-.969.041,1.074,1.074,0,0,0-.311.963,7.74,7.74,0,0,0,1.1,1.915,1.187,1.187,0,0,0,1.016.255c.274-.07.46-.47.759-.807m-7.845-8.638c-.069-.116-.144-.4-.33-.528A18.643,18.643,0,0,0,42,11.575a.8.8,0,0,0-1.1.365.786.786,0,0,0,.206,1.13A15.432,15.432,0,0,0,42.9,14.185a.924.924,0,0,0,1.338-.91M31.219,57.036c.5-.047,1.015-.068,1.522-.151a.834.834,0,0,0,.781-.979.81.81,0,0,0-.91-.785,19.032,19.032,0,0,0-2.056.155.823.823,0,0,0-.761.939.839.839,0,0,0,.89.821c.172.006.344,0,.534,0M10.482,45.705A.876.876,0,0,0,9.7,47.051a11.656,11.656,0,0,0,1.368,1.674.9.9,0,0,0,1.509-.451c.133-.591-1.47-2.556-2.1-2.569M31.146,8.392c-.232,0-.426,0-.62,0a.864.864,0,0,0-.909.807.876.876,0,0,0,.817.963c.662.072,1.328.123,1.994.136a.834.834,0,0,0,.935-.84.842.842,0,0,0-.842-.931c-.469-.059-.941-.093-1.374-.135m10.4,45.457a4.837,4.837,0,0,0,2.7-1.553,1.2,1.2,0,0,0-.2-.959,1.079,1.079,0,0,0-.966-.171,8.471,8.471,0,0,0-1.839,1.149,1.088,1.088,0,0,0-.265.939c.071.276.446.476.569.594M39.2,54.868c.031-.816-.561-1.268-1.18-1.089s-1.229.381-1.833.6a.9.9,0,1,0,.572,1.7,13.271,13.271,0,0,0,1.761-.6,2.655,2.655,0,0,0,.679-.609M21.887,11.06a.949.949,0,0,0-1.315-.974c-.581.215-1.146.474-1.7.743a.882.882,0,0,0-.508,1.2.933.933,0,0,0,1.257.424A13.776,13.776,0,0,0,21.31,11.7a2.378,2.378,0,0,0,.576-.637m-9.341,6.363c-.191-.231-.355-.618-.61-.688a1.278,1.278,0,0,0-1.035.179,9.613,9.613,0,0,0-1.29,1.57A.807.807,0,0,0,9.8,19.71a.867.867,0,0,0,1.258-.178c.412-.486.809-.984,1.195-1.49a3.649,3.649,0,0,0,.289-.618m14.005,39.46c.676.031,1.092-.272,1.141-.762a.842.842,0,0,0-.759-1c-.615-.114-1.235-.207-1.855-.294a.84.84,0,0,0-1.064.679.811.811,0,0,0,.687,1.045c.653.143,1.316.241,1.85.336m-9.8-43.21a.882.882,0,0,0-1.307-.821,10.159,10.159,0,0,0-1.771,1.358,1.053,1.053,0,0,0-.148.954,1.149,1.149,0,0,0,.791.493,5.044,5.044,0,0,0,2.416-1.828,1.081,1.081,0,0,0,.018-.157m.152,38.11c-.042-.089-.08-.333-.225-.452a20.138,20.138,0,0,0-1.79-1.34.813.813,0,0,0-1.1.189.764.764,0,0,0,0,1.14,12.122,12.122,0,0,0,1.9,1.4c.566.33,1.242-.167,1.227-.938m5.17,2.648a2.32,2.32,0,0,0-.581-.623,15.864,15.864,0,0,0-1.765-.765.846.846,0,0,0-1.179.449.78.78,0,0,0,.385,1.127,15.672,15.672,0,0,0,1.944.836c.577.2,1.166-.235,1.2-1.024m24.239-39.5a.866.866,0,0,0-.747,1.322A10.721,10.721,0,0,0,47.2,17.937a.865.865,0,0,0,1.375-.649c.049-.619-1.641-2.378-2.267-2.36M6.847,23.16c.258.291.436.665.712.756a1.093,1.093,0,0,0,.963-.182,3.209,3.209,0,0,0,.662-1.4,1.041,1.041,0,0,0-.5-.828.975.975,0,0,0-.916.108,9.481,9.481,0,0,0-.92,1.546M9.492,43.387a10.64,10.64,0,0,0-1.007-1.594,1,1,0,0,0-.924-.032.968.968,0,0,0-.429.806,3.362,3.362,0,0,0,.676,1.394,1.126,1.126,0,0,0,.971.173c.263-.078.439-.442.713-.747m44.29-16.9a6.038,6.038,0,0,0-.551-1.479,1.1,1.1,0,0,0-.957-.37,1.178,1.178,0,0,0-.657.855A2.961,2.961,0,0,0,52,26.807a.765.765,0,0,0,1.033.4c.3-.136.509-.478.748-.718M48.031,48.636c-.1-.127-.249-.474-.5-.567a1.272,1.272,0,0,0-.952.073,2.316,2.316,0,0,0-.849.842,1.158,1.158,0,0,0-.069.929,1.093,1.093,0,0,0,.755.469c.565.081,1.628-1.008,1.61-1.747" transform="translate(0.686 0.674)" fill="#fefefe"/>
        <path id="Trazado_1031482" data-name="Trazado 1031482" d="M5.99,144.414c0-1.421-.005-2.842,0-4.263.005-1.074.539-1.683,1.627-1.6a14.607,14.607,0,0,0,6.18-1.069c2.666-.972,5.371-1.844,8.06-2.753a2.176,2.176,0,0,1,2.266.544A5.9,5.9,0,0,1,25.715,138a21.118,21.118,0,0,1,.706,9.621,22.318,22.318,0,0,1-1.122,4.218,5.489,5.489,0,0,1-1.314,1.848,1.984,1.984,0,0,1-2.161.443c-3.014-1.026-6.05-1.993-9.034-3.1a12.785,12.785,0,0,0-4.946-.712c-1.39.044-1.854-.452-1.854-1.832q0-2.036,0-4.072m13.481-6.88a1.011,1.011,0,0,0-.218.014c-2.41.8-4.822,1.6-7.222,2.428a.712.712,0,0,0-.315.561c-.021,2.587-.006,5.174-.023,7.761a.588.588,0,0,0,.479.677c2.293.744,4.577,1.518,6.866,2.279.13.043.268.061.437.1a22.937,22.937,0,0,1,0-13.818m1.023,10.342a7.417,7.417,0,0,0,.169.893c.3.923.574,1.86.963,2.748.162.37.589.629.895.938a5.805,5.805,0,0,0,.914-.916,5.427,5.427,0,0,0,.6-1.4,20.107,20.107,0,0,0,.15-10.85,12.351,12.351,0,0,0-1.18-2.576.5.5,0,0,0-.9-.064,8.731,8.731,0,0,0-1.6,4.34,2.486,2.486,0,0,1,2.774,1.093,4.081,4.081,0,0,1,.115,4.51,2.5,2.5,0,0,1-2.9,1.279M9.85,148.51v-8.141H7.856v8.172c.581,0,1.119,0,1.657,0,.1,0,.206-.018.337-.029m10.266-4.053a9.739,9.739,0,0,0,.6,1.412c.25.4.633.39.97.028a2.513,2.513,0,0,0,.018-2.91c-.341-.384-.746-.406-1.012.038a9.568,9.568,0,0,0-.579,1.433" transform="translate(-4.262 -111.041)" fill="#030302"/>
        <path id="Trazado_1031483" data-name="Trazado 1031483" d="M252.532,186.271a9.864,9.864,0,0,1-5.187.828,8.944,8.944,0,0,1,1.218-17.831,8.725,8.725,0,0,1,7.909,4.593,8.561,8.561,0,0,1-.151,9.017c-.119.206-.258.588-.164.691.35.381.427,1.079,1.143,1.069a2.045,2.045,0,0,1,1.717.86c1.274,1.632,2.558,3.257,3.819,4.9a1.929,1.929,0,0,1-.384,2.865c-.575.448-1.157.888-1.752,1.311a2.016,2.016,0,0,1-2.877-.362q-1.974-2.48-3.9-5a1.544,1.544,0,0,1-.391-.913,2.714,2.714,0,0,0-1-2.026m3.272-8a7.3,7.3,0,1,0-7.338,7.113,7.222,7.222,0,0,0,7.338-7.113m-.57,9.68c1.356,1.739,2.649,3.405,3.962,5.056a.494.494,0,0,0,.47.068c.629-.435,1.23-.907,1.879-1.4l-4.168-5.332-2.143,1.6m-.495-3.208-.635.576.623.774.654-.523-.642-.826" transform="translate(-197.177 -139.809)" fill="#040404"/>
        <path id="Trazado_1031484" data-name="Trazado 1031484" d="M163.3,222.371c0,1.357.006,2.714,0,4.071a1.6,1.6,0,0,1-1.807,1.76q-4.153.007-8.305,0a1.581,1.581,0,0,1-1.782-1.722q-.023-4.1,0-8.206a1.575,1.575,0,0,1,1.777-1.729q4.185-.016,8.37,0A1.579,1.579,0,0,1,163.3,218.3c.007,1.357,0,2.714,0,4.071m-10.02,4.017h8.16v-8.034h-8.16Z" transform="translate(-124.445 -179.04)" fill="#050505"/>
        <path id="Trazado_1031485" data-name="Trazado 1031485" d="M157.369,99.594c1.363,0,2.725,0,4.088,0a1.614,1.614,0,0,1,1.846,1.789q.008,4.04,0,8.079a1.611,1.611,0,0,1-1.836,1.8q-4.12.011-8.241,0a1.6,1.6,0,0,1-1.818-1.758q-.018-4.071,0-8.143a1.6,1.6,0,0,1,1.808-1.766c1.384-.009,2.769,0,4.153,0m4.081,1.832h-8.166v8.014h8.166Z" transform="translate(-124.45 -81.982)" fill="#050505"/>
        <path id="Trazado_1031486" data-name="Trazado 1031486" d="M204.746,53.794c.928.329,1.711.557,2.446.889a.743.743,0,0,1,.337,1.037.8.8,0,0,1-.975.536,17.43,17.43,0,0,1-2.137-.684.715.715,0,0,1-.422-1,3.431,3.431,0,0,1,.751-.779" transform="translate(-167.86 -43.972)" fill="#050505"/>
        <path id="Trazado_1031487" data-name="Trazado 1031487" d="M138.082,52.532a.9.9,0,0,1-.905-.74.8.8,0,0,1,.6-.992,13.346,13.346,0,0,1,2.222-.374.809.809,0,0,1,.888.752.8.8,0,0,1-.629.969c-.71.167-1.437.259-2.172.386" transform="translate(-112.677 -41.173)" fill="#060606"/>
        <path id="Trazado_1031488" data-name="Trazado 1031488" d="M286.377,116.8c-.3.338-.485.738-.759.807a1.185,1.185,0,0,1-1.015-.255,7.731,7.731,0,0,1-1.1-1.915,1.074,1.074,0,0,1,.311-.963,1.025,1.025,0,0,1,.969-.041c.577.716,1.042,1.519,1.6,2.367" transform="translate(-233.612 -94.211)" fill="#060606"/>
        <path id="Trazado_1031489" data-name="Trazado 1031489" d="M238.369,69.269a.924.924,0,0,1-1.338.91,15.4,15.4,0,0,1-1.794-1.117.785.785,0,0,1-.207-1.129.8.8,0,0,1,1.1-.365,18.656,18.656,0,0,1,1.907,1.172c.186.129.261.412.33.528" transform="translate(-193.449 -55.32)" fill="#060606"/>
        <path id="Trazado_1031490" data-name="Trazado 1031490" d="M173.172,326.048c-.19,0-.362.005-.534,0a.839.839,0,0,1-.89-.821.824.824,0,0,1,.761-.939,19.032,19.032,0,0,1,2.056-.154.81.81,0,0,1,.91.785.834.834,0,0,1-.781.979c-.507.083-1.026.1-1.522.151" transform="translate(-141.266 -268.338)" fill="#060606"/>
        <path id="Trazado_1031491" data-name="Trazado 1031491" d="M56,268.767c.625.013,2.228,1.978,2.1,2.569a.9.9,0,0,1-1.509.451,11.656,11.656,0,0,1-1.368-1.674A.876.876,0,0,1,56,268.767" transform="translate(-44.832 -222.388)" fill="#060606"/>
        <path id="Trazado_1031492" data-name="Trazado 1031492" d="M172.231,49.338c.433.042.906.076,1.375.135a.887.887,0,1,1-.093,1.772c-.665-.012-1.332-.064-1.994-.136a.876.876,0,0,1-.817-.963.863.863,0,0,1,.909-.807c.193-.006.387,0,.62,0" transform="translate(-140.398 -40.272)" fill="#050505"/>
        <path id="Trazado_1031493" data-name="Trazado 1031493" d="M236.69,303.314c-.123-.118-.5-.318-.569-.594a1.088,1.088,0,0,1,.265-.939,8.48,8.48,0,0,1,1.839-1.149,1.079,1.079,0,0,1,.966.171,1.2,1.2,0,0,1,.2.959,4.836,4.836,0,0,1-2.7,1.554" transform="translate(-194.459 -248.791)" fill="#060606"/>
        <path id="Trazado_1031494" data-name="Trazado 1031494" d="M208.507,317.148a2.652,2.652,0,0,1-.679.609,13.247,13.247,0,0,1-1.761.6.9.9,0,1,1-.573-1.7c.6-.218,1.215-.421,1.833-.6s1.211.273,1.18,1.089" transform="translate(-168.622 -261.606)" fill="#060606"/>
        <path id="Trazado_1031495" data-name="Trazado 1031495" d="M108.958,59.931a2.378,2.378,0,0,1-.576.637,13.742,13.742,0,0,1-1.694.759.933.933,0,0,1-1.257-.424.882.882,0,0,1,.508-1.2c.557-.269,1.123-.528,1.7-.743a.949.949,0,0,1,1.315.974" transform="translate(-86.385 -48.197)" fill="#050505"/>
        <path id="Trazado_1031496" data-name="Trazado 1031496" d="M57.39,98.915a3.643,3.643,0,0,1-.289.618c-.386.506-.782,1-1.195,1.49a.866.866,0,0,1-1.258.178.806.806,0,0,1-.193-1.226,9.6,9.6,0,0,1,1.29-1.57,1.278,1.278,0,0,1,1.035-.179c.255.07.418.457.61.688" transform="translate(-44.159 -80.818)" fill="#060606"/>
        <path id="Trazado_1031497" data-name="Trazado 1031497" d="M140.849,324.369c-.535-.1-1.2-.194-1.85-.336a.81.81,0,0,1-.687-1.045.84.84,0,0,1,1.064-.679c.62.088,1.24.18,1.855.295a.842.842,0,0,1,.759,1c-.05.49-.465.792-1.141.762" transform="translate(-113.611 -266.812)" fill="#060606"/>
        <path id="Trazado_1031498" data-name="Trazado 1031498" d="M80.936,75.8a1.055,1.055,0,0,1-.018.157A5.043,5.043,0,0,1,78.5,77.787a1.149,1.149,0,0,1-.791-.493,1.053,1.053,0,0,1,.148-.954,10.157,10.157,0,0,1,1.771-1.358.882.882,0,0,1,1.307.821" transform="translate(-63.499 -61.455)" fill="#050505"/>
        <path id="Trazado_1031499" data-name="Trazado 1031499" d="M81.353,295.083c.015.771-.661,1.268-1.227.938a12.152,12.152,0,0,1-1.9-1.4.764.764,0,0,1,0-1.141.813.813,0,0,1,1.1-.189,20.17,20.17,0,0,1,1.79,1.34c.145.119.183.362.225.452" transform="translate(-63.764 -242.627)" fill="#060606"/>
        <path id="Trazado_1031500" data-name="Trazado 1031500" d="M109.93,312.873c-.03.79-.619,1.227-1.2,1.024a15.668,15.668,0,0,1-1.944-.836.78.78,0,0,1-.385-1.127.846.846,0,0,1,1.179-.449,15.884,15.884,0,0,1,1.765.765,2.323,2.323,0,0,1,.581.623" transform="translate(-87.17 -257.768)" fill="#060606"/>
        <path id="Trazado_1031501" data-name="Trazado 1031501" d="M262.708,87.786c.625-.019,2.316,1.741,2.267,2.36a.866.866,0,0,1-1.375.649,10.71,10.71,0,0,1-1.638-1.686.866.866,0,0,1,.746-1.322" transform="translate(-215.71 -72.184)" fill="#060606"/>
        <path id="Trazado_1031502" data-name="Trazado 1031502" d="M39.469,127.789a9.461,9.461,0,0,1,.92-1.546.974.974,0,0,1,.916-.108,1.04,1.04,0,0,1,.5.827,3.206,3.206,0,0,1-.661,1.4,1.093,1.093,0,0,1-.963.182c-.276-.091-.454-.465-.712-.756" transform="translate(-31.936 -103.955)" fill="#060606"/>
        <path id="Trazado_1031503" data-name="Trazado 1031503" d="M43.432,246.733c-.275.305-.45.669-.713.747a1.126,1.126,0,0,1-.971-.173,3.362,3.362,0,0,1-.676-1.394.968.968,0,0,1,.429-.806,1,1,0,0,1,.924.032,10.637,10.637,0,0,1,1.007,1.593" transform="translate(-33.254 -202.672)" fill="#060606"/>
        <path id="Trazado_1031504" data-name="Trazado 1031504" d="M299.728,146.625c-.239.24-.445.582-.747.718a.765.765,0,0,1-1.033-.4,2.962,2.962,0,0,1-.384-1.315,1.179,1.179,0,0,1,.657-.855,1.1,1.1,0,0,1,.957.37,6.046,6.046,0,0,1,.551,1.479" transform="translate(-245.26 -119.466)" fill="#060606"/>
        <path id="Trazado_1031505" data-name="Trazado 1031505" d="M265.307,282.942c.019.738-1.044,1.828-1.61,1.747a1.092,1.092,0,0,1-.754-.469,1.157,1.157,0,0,1,.069-.929,2.315,2.315,0,0,1,.849-.842,1.272,1.272,0,0,1,.952-.073c.246.093.392.44.5.567" transform="translate(-216.59 -233.632)" fill="#060606"/>
        <path id="Trazado_1031506" data-name="Trazado 1031506" d="M46.658,151.83a22.938,22.938,0,0,0,0,13.818c-.168-.037-.307-.056-.437-.1-2.288-.761-4.572-1.534-6.865-2.279a.587.587,0,0,1-.479-.677c.017-2.587,0-5.174.023-7.761a.712.712,0,0,1,.315-.561c2.4-.83,4.812-1.626,7.222-2.428a1.013,1.013,0,0,1,.218-.014" transform="translate(-31.449 -125.337)" fill="#facb55"/>
        <path id="Trazado_1031507" data-name="Trazado 1031507" d="M89.617,156.625a2.5,2.5,0,0,0,2.9-1.279,4.081,4.081,0,0,0-.115-4.51,2.486,2.486,0,0,0-2.774-1.093,8.731,8.731,0,0,1,1.6-4.34.5.5,0,0,1,.9.064,12.351,12.351,0,0,1,1.18,2.576,20.107,20.107,0,0,1-.15,10.85,5.43,5.43,0,0,1-.6,1.4,5.8,5.8,0,0,1-.914.915c-.306-.309-.732-.568-.895-.938-.389-.888-.662-1.825-.963-2.748a7.465,7.465,0,0,1-.169-.893" transform="translate(-73.385 -119.79)" fill="#c6ccd3"/>
        <path id="Trazado_1031508" data-name="Trazado 1031508" d="M18.747,176.638c-.131.012-.234.029-.337.03-.538,0-1.076,0-1.657,0V168.5h1.994Z" transform="translate(-13.16 -139.169)" fill="#f46b81"/>
        <path id="Trazado_1031509" data-name="Trazado 1031509" d="M87.434,183.942a9.57,9.57,0,0,1,.579-1.433c.266-.443.671-.422,1.012-.038a2.513,2.513,0,0,1-.018,2.91c-.337.362-.72.375-.97-.028a9.741,9.741,0,0,1-.6-1.412" transform="translate(-71.581 -150.526)" fill="#a4abb6"/>
        <path id="Trazado_1031510" data-name="Trazado 1031510" d="M264.5,186.937a7.3,7.3,0,1,1-7.217-7.232,7.235,7.235,0,0,1,7.217,7.232m-7.285-5.89a5.829,5.829,0,1,0,5.95,5.824,5.909,5.909,0,0,0-5.95-5.824" transform="translate(-205.876 -148.471)" fill="#a4abb6"/>
        <path id="Trazado_1031511" data-name="Trazado 1031511" d="M330.744,271.329l2.143-1.6,4.168,5.332c-.648.489-1.25.961-1.879,1.4a.494.494,0,0,1-.469-.067c-1.313-1.651-2.606-3.317-3.962-5.056" transform="translate(-272.686 -223.183)" fill="#d1a586"/>
        <path id="Trazado_1031512" data-name="Trazado 1031512" d="M324.868,260.293l.643.826-.654.523-.623-.774.635-.576" transform="translate(-267.305 -215.355)" fill="#c6ccd3"/>
        <path id="Trazado_1031513" data-name="Trazado 1031513" d="M162.27,227.224h8.159v8.034H162.27Zm3.377,4.372c-.349-.417-.625-.8-.954-1.13a.9.9,0,0,0-1.368-.12.914.914,0,0,0,.107,1.4q.745.753,1.515,1.484a.957.957,0,0,0,1.565-.021q1.366-1.316,2.709-2.654c.51-.506.561-.993.172-1.4s-.946-.366-1.469.149c-.717.706-1.419,1.426-2.276,2.29" transform="translate(-133.436 -187.91)" fill="#c0e38f"/>
        <path id="Trazado_1031514" data-name="Trazado 1031514" d="M170.431,118.394h-8.166V110.38h8.166Zm-2.949-4.091c.32-.223.56-.368.773-.545a6.545,6.545,0,0,0,.6-.583.873.873,0,0,0,.078-1.3.9.9,0,0,0-1.366.057c-.4.378-.766.789-1.235,1.278-.44-.471-.787-.874-1.169-1.243a.929.929,0,0,0-1.417-.087c-.382.4-.352.866.134,1.339.391.381.82.725,1.282,1.129-.527.49-.931.842-1.307,1.221a.862.862,0,0,0-.089,1.342.9.9,0,0,0,1.369-.095c.4-.384.751-.809,1.185-1.282.474.5.829.9,1.211,1.266.484.468.961.5,1.367.124s.386-.9-.1-1.391c-.373-.376-.773-.726-1.316-1.232" transform="translate(-133.432 -90.935)" fill="#ed687d"/>
        <path id="Trazado_1031515" data-name="Trazado 1031515" d="M263.566,187.6a5.829,5.829,0,1,1-5.974,5.8,5.9,5.9,0,0,1,5.974-5.8m-.038,9.87a4.041,4.041,0,1,0-4.113-4.053,4.091,4.091,0,0,0,4.113,4.053" transform="translate(-212.223 -155.021)" fill="#040404"/>
        <path id="Trazado_1031516" data-name="Trazado 1031516" d="M169.347,239.674c.857-.864,1.559-1.584,2.276-2.29.523-.515,1.071-.561,1.469-.149s.338.891-.172,1.4q-1.346,1.336-2.709,2.654a.957.957,0,0,1-1.565.021q-.77-.73-1.515-1.484a.914.914,0,0,1-.106-1.4.9.9,0,0,1,1.368.12c.33.331.606.713.954,1.13" transform="translate(-137.136 -195.988)" fill="#050505"/>
        <path id="Trazado_1031517" data-name="Trazado 1031517" d="M173.269,120.217c.543.506.943.855,1.316,1.232.482.487.507,1.01.1,1.391s-.883.344-1.367-.124c-.382-.37-.737-.768-1.211-1.266-.434.473-.789.9-1.185,1.282a.9.9,0,0,1-1.369.095.863.863,0,0,1,.089-1.342c.375-.379.779-.731,1.307-1.221-.462-.4-.891-.748-1.282-1.129-.486-.473-.517-.937-.134-1.339a.929.929,0,0,1,1.417.087c.382.369.73.773,1.169,1.243.47-.489.837-.9,1.235-1.278a.9.9,0,0,1,1.367-.057.873.873,0,0,1-.078,1.3,6.532,6.532,0,0,1-.6.583c-.213.177-.453.322-.773.545" transform="translate(-139.219 -96.85)" fill="#040202"/>
        <path id="Trazado_1031518" data-name="Trazado 1031518" d="M272.214,206.2a4.041,4.041,0,1,1,4.167-4,4.1,4.1,0,0,1-4.167,4" transform="translate(-220.909 -163.757)" fill="#e1e5e8"/>
      </g>
    </g>
  </g>
</svg>
