<svg xmlns="http://www.w3.org/2000/svg" xmlns:xlink="http://www.w3.org/1999/xlink" width="104.825" height="104.825" viewBox="0 0 104.825 104.825">
  <defs>
    <filter id="Trazado_982547" x="0" y="0" width="104.825" height="104.825" filterUnits="userSpaceOnUse">
      <feOffset dy="3" input="SourceAlpha"/>
      <feGaussianBlur stdDeviation="3" result="blur"/>
      <feFlood flood-opacity="0.161"/>
      <feComposite operator="in" in2="blur"/>
      <feComposite in="SourceGraphic"/>
    </filter>
    <clipPath id="clip-path">
      <rect id="Rectángulo_415609" data-name="Rectángulo 415609" width="58" height="58" transform="translate(0.475 0.475)" fill="none"/>
    </clipPath>
  </defs>
  <g id="Grupo_1175570" data-name="Grupo 1175570" transform="translate(-586.25 -914.212)">
    <g id="Grupo_1175060" data-name="Grupo 1175060" transform="translate(595.25 920.212)">
      <g id="Grupo_1174859" data-name="Grupo 1174859" transform="translate(0)">
        <g id="Grupo_1167343" data-name="Grupo 1167343" transform="translate(0)">
          <g id="Grupo_1166777" data-name="Grupo 1166777">
            <g id="Grupo_1164305" data-name="Grupo 1164305">
              <g id="Grupo_1163948" data-name="Grupo 1163948">
                <g id="Grupo_1158168" data-name="Grupo 1158168">
                  <g id="Grupo_1152576" data-name="Grupo 1152576">
                    <g id="Grupo_1148633" data-name="Grupo 1148633">
                      <g id="Grupo_1148525" data-name="Grupo 1148525">
                        <g transform="matrix(1, 0, 0, 1, -9, -6)" filter="url(#Trazado_982547)">
                          <g id="Trazado_982547-2" data-name="Trazado 982547" transform="translate(9 6)" fill="#efdb59">
                            <path d="M 43.41258239746094 85.32517242431641 C 37.75375747680664 85.32517242431641 32.26500701904297 84.21721649169922 27.09878158569336 82.03209686279297 C 22.1080322265625 79.92118072509766 17.62558174133301 76.89891815185547 13.77591991424561 73.04925537109375 C 9.926257133483887 69.19959259033203 6.903995037078857 64.71714782714844 4.793095111846924 59.72639465332031 C 2.607957363128662 54.5601692199707 1.500007390975952 49.07140731811523 1.500007390975952 43.41258239746094 C 1.500007390975952 37.75375747680664 2.607957363128662 32.26500701904297 4.793095111846924 27.09878158569336 C 6.903995037078857 22.1080322265625 9.926257133483887 17.62558174133301 13.77591991424561 13.77591991424561 C 17.62558174133301 9.926257133483887 22.1080322265625 6.903995037078857 27.09878158569336 4.793095111846924 C 32.26500701904297 2.607957363128662 37.75375747680664 1.500007390975952 43.41258239746094 1.500007390975952 C 49.07140731811523 1.500007390975952 54.5601692199707 2.607957363128662 59.72639465332031 4.793095111846924 C 64.71714782714844 6.903995037078857 69.19959259033203 9.926257133483887 73.04925537109375 13.77591991424561 C 76.89891815185547 17.62558174133301 79.92118072509766 22.1080322265625 82.03209686279297 27.09878158569336 C 84.21721649169922 32.26500701904297 85.32517242431641 37.75375747680664 85.32517242431641 43.41258239746094 C 85.32517242431641 49.07140731811523 84.21721649169922 54.5601692199707 82.03209686279297 59.72639465332031 C 79.92118072509766 64.71714782714844 76.89891815185547 69.19959259033203 73.04925537109375 73.04925537109375 C 69.19959259033203 76.89891815185547 64.71714782714844 79.92118072509766 59.72639465332031 82.03209686279297 C 54.5601692199707 84.21721649169922 49.07140731811523 85.32517242431641 43.41258239746094 85.32517242431641 Z" stroke="none"/>
                            <path d="M 43.41258239746094 3 C 37.95559692382812 3 32.6634407043457 4.068084716796875 27.68310928344727 6.174583435058594 C 22.87116622924805 8.209869384765625 18.54896545410156 11.12418365478516 14.83657073974609 14.83657073974609 C 11.12418365478516 18.54896545410156 8.209869384765625 22.87116622924805 6.174583435058594 27.68310928344727 C 4.068084716796875 32.6634407043457 3 37.95559692382812 3 43.41258239746094 C 3 48.86956787109375 4.068084716796875 54.16172409057617 6.174583435058594 59.14206695556641 C 8.209869384765625 63.95401000976562 11.12418365478516 68.27621459960938 14.83657073974609 71.98859405517578 C 18.54896545410156 75.70098114013672 22.87115478515625 78.61529541015625 27.68310928344727 80.65058135986328 C 32.6634407043457 82.757080078125 37.95559692382812 83.82516479492188 43.41258239746094 83.82516479492188 C 48.86956787109375 83.82516479492188 54.16173934936523 82.757080078125 59.14206695556641 80.65058135986328 C 63.95401000976562 78.61529541015625 68.27621459960938 75.70098114013672 71.98859405517578 71.98859405517578 C 75.70098114013672 68.27621459960938 78.61529541015625 63.95401000976562 80.65058135986328 59.14206695556641 C 82.757080078125 54.16173934936523 83.82516479492188 48.86956787109375 83.82516479492188 43.41258239746094 C 83.82516479492188 37.95559692382812 82.757080078125 32.6634407043457 80.65058135986328 27.68310928344727 C 78.61529541015625 22.87115478515625 75.70098114013672 18.54896545410156 71.98859405517578 14.83657073974609 C 68.27621459960938 11.12418365478516 63.95401000976562 8.209869384765625 59.14206695556641 6.174583435058594 C 54.16172409057617 4.068084716796875 48.86956787109375 3 43.41258239746094 3 M 43.41258239746094 0 C 67.38869476318359 0 86.82516479492188 19.43648529052734 86.82516479492188 43.41258239746094 C 86.82516479492188 67.38869476318359 67.38869476318359 86.82516479492188 43.41258239746094 86.82516479492188 C 19.43648529052734 86.82516479492188 0 67.38869476318359 0 43.41258239746094 C 0 19.43648529052734 19.43648529052734 0 43.41258239746094 0 Z" stroke="none" fill="#fbfbf8"/>
                          </g>
                        </g>
                      </g>
                    </g>
                  </g>
                </g>
              </g>
            </g>
          </g>
        </g>
      </g>
    </g>
    <g id="Grupo_1175738" data-name="Grupo 1175738" transform="translate(609.132 933.727)">
      <g id="Grupo_1175737" data-name="Grupo 1175737" transform="translate(0 0.468)" clip-path="url(#clip-path)">
        <path id="Trazado_1031459" data-name="Trazado 1031459" d="M0,0H0ZM29.451,43.163A16.99,16.99,0,1,0,12.433,26.2,17.009,17.009,0,0,0,29.451,43.163m5.341,8.92c-1.5.155-2.026.739-2.027,2.2,0,.594-.005,1.188,0,1.782a1.734,1.734,0,0,0,1.888,1.9q4.656.01,9.312,0a1.739,1.739,0,0,0,1.855-1.824c.018-.574-.018-1.151.012-1.724a1.96,1.96,0,0,0-1.606-2.318c.266-.227.449-.41.659-.556.989-.689,1.954-1.419,2.985-2.039a6.221,6.221,0,0,0,2.742-3.483q1.726-5.1,3.4-10.22a3.416,3.416,0,0,0,.132-1.189,3.188,3.188,0,0,0-2.09-2.89,2.738,2.738,0,0,0-3.028,1.246,10.438,10.438,0,0,0-1.073,1.886c-.687,1.533-1.323,3.089-1.971,4.64a.657.657,0,0,1-.6.471,4.336,4.336,0,0,0-1.589.565c-.893.553-1.709,1.229-2.582,1.815a5.822,5.822,0,0,1-1.356.7,5.529,5.529,0,0,0-3.867,4.168c-.391,1.615-.794,3.226-1.2,4.871m-20.156,0c-.926.267-1.535.747-1.571,1.681-.033.861-.042,1.726,0,2.585a1.669,1.669,0,0,0,1.7,1.61c3.2.015,6.4.01,9.6,0a1.668,1.668,0,0,0,1.416-.743,6.944,6.944,0,0,0,0-4.344,2,2,0,0,0-1.7-.783l-1.206-4.862A5.115,5.115,0,0,0,19.6,43.31a11.753,11.753,0,0,1-3.059-1.756,13.479,13.479,0,0,0-1.5-1.058,4.9,4.9,0,0,0-1.542-.539.658.658,0,0,1-.613-.455c-.69-1.657-1.383-3.313-2.1-4.958A5.506,5.506,0,0,0,8.943,32.1a2.394,2.394,0,0,0-3.273.333,3.364,3.364,0,0,0-.8,3.459c.2.657.424,1.308.642,1.96.914,2.735,1.816,5.474,2.751,8.2a6.122,6.122,0,0,0,2.669,3.4c1.047.632,2.028,1.373,3.032,2.073.213.148.4.33.669.552m-.275-36.832a.929.929,0,0,0-.733-.962,6.173,6.173,0,0,1-2.7-1.552.787.787,0,0,0-1.419.425,5.112,5.112,0,0,1-1.53,2.633c-.313.288-.506.682-.251,1.013a1.569,1.569,0,0,0,.948.5,2.954,2.954,0,0,1,2.3,1.4,1,1,0,0,0,.839.385,1.007,1.007,0,0,0,.637-.676,4.175,4.175,0,0,1,1.548-2.657,2.028,2.028,0,0,0,.355-.515m8.922-7.226c.337-.346.657-.546.789-.832A3.9,3.9,0,0,1,26.047,5.2c.371-.171.743-.4.667-.82a1.466,1.466,0,0,0-.579-.832,6.842,6.842,0,0,1-2.073-2.105C23.626.7,22.924.708,22.52,1.464a4.92,4.92,0,0,1-2.073,2.077.884.884,0,0,0-.589.89.867.867,0,0,0,.685.751,2.891,2.891,0,0,1,2,2.03c.072.268.414.465.741.809m22.776.76a4.415,4.415,0,0,0-.679-.75,6.66,6.66,0,0,1-2.2-2.217.8.8,0,0,0-1.488.052,5.578,5.578,0,0,1-2.148,2.167,1.072,1.072,0,0,0-.51.785,1.154,1.154,0,0,0,.63.763A3.045,3.045,0,0,1,41.7,11.657a.787.787,0,0,0,1.456.1,4.346,4.346,0,0,1,2.258-2.249c.236-.112.379-.42.641-.727m8.106,16.293a5.314,5.314,0,0,0-.428-.626,6.252,6.252,0,0,1-1.455-2.563.814.814,0,0,0-1.5-.366,4.911,4.911,0,0,1-2.539,1.466c-.4.094-.795.276-.773.708a1.341,1.341,0,0,0,.463.889,3.079,3.079,0,0,1,1.4,2.5.779.779,0,0,0,1.369.481,4.267,4.267,0,0,1,2.768-1.578c.437-.071.639-.379.7-.908" transform="translate(0 -0.634)" fill="#fdfdfd"/>
        <path id="Trazado_1031460" data-name="Trazado 1031460" d="M98.106,93.87a16.99,16.99,0,1,1,16.982-17,17.011,17.011,0,0,1-16.982,17m15.363-16.964A15.381,15.381,0,1,0,98.05,92.248a15.408,15.408,0,0,0,15.419-15.341" transform="translate(-68.655 -51.341)" fill="#050505"/>
        <path id="Trazado_1031461" data-name="Trazado 1031461" d="M215.7,226.625c.405-1.645.809-3.256,1.2-4.871a5.529,5.529,0,0,1,3.867-4.168,5.817,5.817,0,0,0,1.356-.7c.873-.587,1.689-1.262,2.582-1.815a4.336,4.336,0,0,1,1.589-.565.657.657,0,0,0,.6-.471c.648-1.551,1.284-3.107,1.971-4.64a10.425,10.425,0,0,1,1.074-1.886,2.738,2.738,0,0,1,3.028-1.246,3.188,3.188,0,0,1,2.09,2.89,3.415,3.415,0,0,1-.132,1.189q-1.678,5.118-3.4,10.22a6.222,6.222,0,0,1-2.742,3.483c-1.031.62-2,1.349-2.985,2.039-.209.146-.392.329-.659.556a1.96,1.96,0,0,1,1.606,2.318c-.03.573.006,1.15-.012,1.725a1.739,1.739,0,0,1-1.855,1.824q-4.656.011-9.312,0a1.733,1.733,0,0,1-1.888-1.9c0-.594,0-1.188,0-1.782,0-1.459.529-2.043,2.028-2.2m11.573-10a1.043,1.043,0,0,0-1.581-.292c-.65.44-1.286.9-1.915,1.371a9.069,9.069,0,0,1-2.832,1.581,2.913,2.913,0,0,0-2.089,1.829c-.576,1.807-1.029,3.653-1.544,5.519h6.092a3.642,3.642,0,0,1,1.557-1.954c1-.668,1.962-1.41,2.991-2.035a4.693,4.693,0,0,0,2.072-2.649q1.682-5.061,3.352-10.126a1.713,1.713,0,0,0-.307-1.625.864.864,0,0,0-1.462-.149,6.186,6.186,0,0,0-1.1,1.592c-.772,1.685-1.477,3.4-2.184,5.116a.687.687,0,0,0,.088.579,2.731,2.731,0,0,1-.5,4.088c-1.449,1.069-2.918,2.108-4.385,3.152-.589.419-.942.342-1.391-.27a.935.935,0,0,1,.474-1.06q2.142-1.521,4.265-3.067a1.069,1.069,0,0,0,.4-1.6m-2.2,11.7h-9.747v2.539h9.747Z" transform="translate(-180.911 -175.177)" fill="#040403"/>
        <path id="Trazado_1031462" data-name="Trazado 1031462" d="M40.581,226.584c-.266-.222-.456-.4-.669-.552-1-.7-1.986-1.441-3.032-2.073a6.122,6.122,0,0,1-2.669-3.4c-.935-2.728-1.837-5.467-2.751-8.2-.218-.652-.441-1.3-.642-1.96a3.364,3.364,0,0,1,.8-3.459,2.394,2.394,0,0,1,3.273-.334,5.506,5.506,0,0,1,1.84,2.446c.718,1.645,1.411,3.3,2.1,4.959a.658.658,0,0,0,.613.455,4.9,4.9,0,0,1,1.542.539,13.493,13.493,0,0,1,1.5,1.057,11.748,11.748,0,0,0,3.059,1.756,5.115,5.115,0,0,1,3.279,3.917l1.206,4.862a2,2,0,0,1,1.7.783,6.944,6.944,0,0,1,0,4.344,1.669,1.669,0,0,1-1.416.743c-3.2.005-6.4.01-9.6,0a1.669,1.669,0,0,1-1.7-1.61c-.045-.86-.036-1.725,0-2.585.036-.934.646-1.413,1.571-1.681m3-4.271c-.435.593-.8.689-1.343.3-1.514-1.076-3.035-2.144-4.52-3.259a2.664,2.664,0,0,1-.429-3.954.564.564,0,0,0,.094-.7c-.676-1.561-1.318-3.137-2.01-4.691a10.063,10.063,0,0,0-.937-1.636,1.121,1.121,0,0,0-1.148-.619,1.273,1.273,0,0,0-.935,1.064,1.907,1.907,0,0,0-.016.952q1.67,5.156,3.394,10.294a4.477,4.477,0,0,0,1.987,2.508c.917.551,1.766,1.216,2.663,1.8a4.088,4.088,0,0,1,1.933,2.211h6.033c-.362-1.488-.735-2.932-1.06-4.386a4.06,4.06,0,0,0-3.043-3.182,4.527,4.527,0,0,1-1.223-.594c-1-.678-1.958-1.409-2.947-2.1a1.05,1.05,0,0,0-1.628.262,1.066,1.066,0,0,0,.4,1.6q2.125,1.543,4.266,3.065a.938.938,0,0,1,.472,1.062m6.818,5.96H40.647v2.552H50.4Z" transform="translate(-25.943 -175.14)" fill="#040303"/>
        <path id="Trazado_1031463" data-name="Trazado 1031463" d="M56.395,83.8a2.03,2.03,0,0,1-.355.516,4.175,4.175,0,0,0-1.548,2.657.794.794,0,0,1-1.477.291,2.955,2.955,0,0,0-2.3-1.4,1.568,1.568,0,0,1-.948-.5c-.255-.331-.062-.725.251-1.013a5.112,5.112,0,0,0,1.531-2.633.787.787,0,0,1,1.419-.425,6.17,6.17,0,0,0,2.7,1.552.929.929,0,0,1,.733.962m-2.364.2-1.261-.723-.68,1.2,1.246.638.7-1.114" transform="translate(-42.033 -69.189)" fill="#040404"/>
        <path id="Trazado_1031464" data-name="Trazado 1031464" d="M132.918,12.942c-.327-.344-.669-.54-.741-.809a2.892,2.892,0,0,0-2-2.03.867.867,0,0,1-.685-.751.884.884,0,0,1,.589-.89,4.921,4.921,0,0,0,2.073-2.077c.4-.756,1.106-.763,1.542-.019a6.837,6.837,0,0,0,2.073,2.105,1.467,1.467,0,0,1,.579.832c.076.42-.3.649-.667.82a3.9,3.9,0,0,0-1.974,1.986c-.132.287-.452.487-.789.832m.1-2.844.907-.837L133,8.3l-.984.868,1.009.926" transform="translate(-109.633 -5.555)" fill="#040404"/>
        <path id="Trazado_1031465" data-name="Trazado 1031465" d="M261.614,38.19c-.262.307-.405.615-.641.727a4.346,4.346,0,0,0-2.257,2.249.787.787,0,0,1-1.457-.1,3.045,3.045,0,0,0-2.036-2.074,1.154,1.154,0,0,1-.63-.763,1.072,1.072,0,0,1,.51-.785,5.579,5.579,0,0,0,2.148-2.167.8.8,0,0,1,1.488-.052,6.654,6.654,0,0,0,2.2,2.217,4.433,4.433,0,0,1,.679.75m-3.523-1.05-1.039.923,1.057.954.932-.881-.95-1" transform="translate(-215.554 -30.043)" fill="#040404"/>
        <path id="Trazado_1031466" data-name="Trazado 1031466" d="M316.26,141.795c-.061.529-.263.837-.7.908a4.266,4.266,0,0,0-2.768,1.578.78.78,0,0,1-1.369-.481,3.079,3.079,0,0,0-1.4-2.5,1.342,1.342,0,0,1-.463-.889c-.021-.432.37-.613.773-.708a4.91,4.91,0,0,0,2.539-1.466.814.814,0,0,1,1.5.366,6.253,6.253,0,0,0,1.455,2.563,5.307,5.307,0,0,1,.428.626m-4.254-.919.758,1.174,1.162-.631-.742-1.243-1.178.7" transform="translate(-262.094 -117.355)" fill="#040404"/>
        <path id="Trazado_1031467" data-name="Trazado 1031467" d="M122.409,85.832a15.381,15.381,0,1,1-15.316-15.4,15.384,15.384,0,0,1,15.316,15.4m-5.081-3.3h.047c0-1.456.005-2.913,0-4.369,0-.607-.235-.847-.834-.962a6.931,6.931,0,0,1-1.338-.31c-2.486-1.026-4.966-2.066-7.43-3.143a1.518,1.518,0,0,0-1.457-.011c-1,.52-2.02,1-3.05,1.456a24.619,24.619,0,0,1-5.658,2c-.742.13-.925.341-.925,1.111,0,2.664-.047,5.329.023,7.991a9.383,9.383,0,0,0,.519,3.032c1.7,4.474,5.031,7.234,9.486,8.733a1.6,1.6,0,0,0,.938-.073,15.4,15.4,0,0,0,6.89-4.685,10.461,10.461,0,0,0,2.77-6.115c.11-1.544.021-3.1.021-4.653" transform="translate(-77.595 -60.267)" fill="#fcfcfc"/>
        <path id="Trazado_1031468" data-name="Trazado 1031468" d="M242.248,231.194c.45.611.8.689,1.391.27,1.467-1.044,2.936-2.083,4.385-3.152a2.731,2.731,0,0,0,.5-4.088.688.688,0,0,1-.088-.579c.707-1.714,1.412-3.43,2.184-5.116a6.183,6.183,0,0,1,1.1-1.592.863.863,0,0,1,1.461.149,1.713,1.713,0,0,1,.307,1.625q-1.676,5.063-3.352,10.126a4.7,4.7,0,0,1-2.072,2.649c-1.029.625-1.987,1.367-2.992,2.035a3.641,3.641,0,0,0-1.556,1.954h-6.092c.515-1.867.969-3.713,1.544-5.519a2.914,2.914,0,0,1,2.089-1.829,9.072,9.072,0,0,0,2.832-1.581c.63-.469,1.265-.931,1.915-1.371a1.043,1.043,0,0,1,1.581.292,3.723,3.723,0,0,0-.4.22q-2.466,1.765-4.927,3.538l-1.723,1.239a2.04,2.04,0,0,0,1.914.73" transform="translate(-201.019 -184.02)" fill="#ecc4a2"/>
        <rect id="Rectángulo_415607" data-name="Rectángulo 415607" width="9.747" height="2.539" transform="translate(34.421 53.144)" fill="#dfe3e6"/>
        <path id="Trazado_1031469" data-name="Trazado 1031469" d="M258.317,280.169a2.04,2.04,0,0,1-1.914-.73l1.723-1.239q2.463-1.77,4.927-3.538a3.728,3.728,0,0,1,.4-.22,1.069,1.069,0,0,1-.4,1.6q-2.125,1.544-4.265,3.067a.936.936,0,0,0-.474,1.06" transform="translate(-217.088 -232.994)" fill="#d2a687"/>
        <path id="Trazado_1031470" data-name="Trazado 1031470" d="M47.511,225.564a1.05,1.05,0,0,1,1.628-.262c.989.692,1.95,1.422,2.947,2.1a4.53,4.53,0,0,0,1.222.594,4.06,4.06,0,0,1,3.043,3.182c.325,1.454.7,2.9,1.06,4.386H51.378a4.087,4.087,0,0,0-1.933-2.21c-.9-.587-1.745-1.252-2.663-1.8a4.476,4.476,0,0,1-1.987-2.508q-1.723-5.138-3.394-10.294a1.907,1.907,0,0,1,.016-.952,1.273,1.273,0,0,1,.935-1.064,1.121,1.121,0,0,1,1.148.619,10.061,10.061,0,0,1,.937,1.636c.692,1.554,1.334,3.13,2.01,4.691a.564.564,0,0,1-.094.7,2.664,2.664,0,0,0,.429,3.954c1.485,1.115,3.006,2.183,4.52,3.259.544.387.909.29,1.343-.3a1.842,1.842,0,0,0,1.878-.734c-.108-.1-.186-.179-.276-.244-.913-.659-1.822-1.323-2.743-1.97-1.326-.932-2.662-1.852-3.993-2.778" transform="translate(-35.008 -184.116)" fill="#ecc4a2"/>
        <rect id="Rectángulo_415608" data-name="Rectángulo 415608" width="9.752" height="2.552" transform="translate(14.703 53.134)" fill="#dfe3e6"/>
        <path id="Trazado_1031471" data-name="Trazado 1031471" d="M80.383,274.449c1.331.925,2.667,1.845,3.993,2.778.921.647,1.83,1.311,2.743,1.97.09.065.168.148.276.244a1.841,1.841,0,0,1-1.878.734.937.937,0,0,0-.472-1.062q-2.14-1.522-4.266-3.065a1.067,1.067,0,0,1-.4-1.6" transform="translate(-67.88 -233.001)" fill="#d2a687"/>
        <path id="Trazado_1031472" data-name="Trazado 1031472" d="M67.53,96.723l-.7,1.114L65.589,97.2l.68-1.2,1.261.723" transform="translate(-55.532 -81.914)" fill="#f4c553"/>
        <path id="Trazado_1031473" data-name="Trazado 1031473" d="M146.956,23.859l-1.009-.926.984-.868.932.957-.907.837" transform="translate(-123.569 -19.315)" fill="#f4c553"/>
        <path id="Trazado_1031474" data-name="Trazado 1031474" d="M271.683,50.421l.95,1-.932.881-1.057-.954,1.039-.923" transform="translate(-229.146 -43.324)" fill="#f4c553"/>
        <path id="Trazado_1031475" data-name="Trazado 1031475" d="M325.514,153.663l1.178-.7.742,1.243-1.162.631-.758-1.174" transform="translate(-275.602 -130.143)" fill="#f4c553"/>
        <path id="Trazado_1031476" data-name="Trazado 1031476" d="M145.04,99.743c0,1.551.089,3.109-.021,4.653a10.461,10.461,0,0,1-2.77,6.115,15.4,15.4,0,0,1-6.89,4.685,1.605,1.605,0,0,1-.938.073c-4.456-1.5-7.79-4.259-9.486-8.733a9.383,9.383,0,0,1-.519-3.033c-.07-2.662-.025-5.327-.023-7.991,0-.77.183-.98.925-1.111a24.618,24.618,0,0,0,5.658-2c1.03-.456,2.051-.936,3.05-1.456a1.519,1.519,0,0,1,1.457.011c2.464,1.077,4.944,2.117,7.43,3.143a6.918,6.918,0,0,0,1.338.311c.6.115.83.355.834.962.008,1.456,0,2.913,0,4.369h-.047m-19.029-3.8c0,2.605-.018,5.172.013,7.738a6.339,6.339,0,0,0,.283,1.864c1.337,4.1,4.3,6.567,8.2,8.072a1.082,1.082,0,0,0,.659-.064,12.442,12.442,0,0,0,3.967-2.259,10.56,10.56,0,0,0,4.134-6.229,26.686,26.686,0,0,0,.2-4.177c.029-1.644.007-3.288.007-4.945a7.05,7.05,0,0,1-.694-.2c-2.526-1.033-5.048-2.078-7.579-3.1a1.118,1.118,0,0,0-.788-.048,52.685,52.685,0,0,1-8.4,3.349" transform="translate(-105.307 -77.483)" fill="#030404"/>
        <path id="Trazado_1031477" data-name="Trazado 1031477" d="M135,105.713a52.686,52.686,0,0,0,8.4-3.35,1.116,1.116,0,0,1,.787.048c2.531,1.021,5.053,2.066,7.579,3.1a7.056,7.056,0,0,0,.694.2c0,1.656.022,3.3-.007,4.945a26.687,26.687,0,0,1-.2,4.177,10.561,10.561,0,0,1-4.134,6.229,12.452,12.452,0,0,1-3.967,2.259,1.083,1.083,0,0,1-.659.064c-3.9-1.5-6.864-3.974-8.2-8.072a6.332,6.332,0,0,1-.284-1.864c-.031-2.566-.013-5.133-.013-7.738m12.72,6.073q1.207-1.228,2.413-2.457c.466-.477.518-.939.155-1.3s-.807-.322-1.3.156q-1.026,1-2.049,2.006l-.39-.466c.311-.714.207-1.008-.491-1.4a5.093,5.093,0,1,0,2.441,5.915c.2-.691.051-.981-.658-1.282l-.123-1.175" transform="translate(-114.295 -87.257)" fill="#65d2ee"/>
        <path id="Trazado_1031478" data-name="Trazado 1031478" d="M167.323,142.7c.709.3.859.592.658,1.282a5.092,5.092,0,1,1-2.441-5.915c.7.387.8.681.492,1.4a1.019,1.019,0,0,1-1.265.037,3.474,3.474,0,1,0,1.653,4.027,1.047,1.047,0,0,1,.9-.827" transform="translate(-133.775 -116.999)" fill="#030404"/>
        <path id="Trazado_1031479" data-name="Trazado 1031479" d="M176.246,151.713a1.047,1.047,0,0,0-.9.827,3.455,3.455,0,0,1-4.568,2.262,3.474,3.474,0,1,1,2.914-6.289,1.019,1.019,0,0,0,1.265-.037l.39.466-3.1,2.973c-.416-.432-.871-.92-1.344-1.39a.817.817,0,1,0-1.137,1.143c.588.6,1.187,1.193,1.784,1.786.644.64.975.634,1.636-.019q1.468-1.449,2.938-2.9l.123,1.175" transform="translate(-142.699 -126.009)" fill="#c2e591"/>
        <path id="Trazado_1031480" data-name="Trazado 1031480" d="M181.044,142q-1.469,1.448-2.938,2.9c-.661.653-.992.659-1.635.019-.6-.593-1.2-1.184-1.784-1.786a.817.817,0,1,1,1.137-1.143c.472.47.927.958,1.343,1.39l3.1-2.973q1.024-1,2.049-2.006c.49-.478.922-.529,1.3-.156s.311.824-.155,1.3q-1.2,1.231-2.413,2.457" transform="translate(-147.62 -117.469)" fill="#030504"/>
      </g>
    </g>
  </g>
</svg>
