<svg xmlns="http://www.w3.org/2000/svg" xmlns:xlink="http://www.w3.org/1999/xlink" width="108" height="108" viewBox="0 0 108 108">
  <defs>
    <filter id="Trazado_982547" x="0" y="0" width="108" height="108" filterUnits="userSpaceOnUse">
      <feOffset dy="3" input="SourceAlpha"/>
      <feGaussianBlur stdDeviation="3" result="blur"/>
      <feFlood flood-opacity="0.161"/>
      <feComposite operator="in" in2="blur"/>
      <feComposite in="SourceGraphic"/>
    </filter>
  </defs>
  <g id="Grupo_1175717" data-name="Grupo 1175717" transform="translate(-586.25 -914.212)">
    <g id="Grupo_1175060" data-name="Grupo 1175060" transform="translate(595.25 920.212)">
      <g id="Grupo_1174859" data-name="Grupo 1174859" transform="translate(0)">
        <g id="Grupo_1167343" data-name="Grupo 1167343" transform="translate(0)">
          <g id="Grupo_1166777" data-name="Grupo 1166777">
            <g id="Grupo_1164305" data-name="Grupo 1164305">
              <g id="Grupo_1163948" data-name="Grupo 1163948">
                <g id="Grupo_1158168" data-name="Grupo 1158168">
                  <g id="Grupo_1152576" data-name="Grupo 1152576">
                    <g id="Grupo_1148633" data-name="Grupo 1148633">
                      <g id="Grupo_1148525" data-name="Grupo 1148525">
                        <g transform="matrix(1, 0, 0, 1, -9, -6)" filter="url(#Trazado_982547)">
                          <g id="Trazado_982547-2" data-name="Trazado 982547" transform="translate(9 6)" fill="#f4f9ff">
                            <path d="M 45 88.5 C 39.12687683105469 88.5 33.43022537231445 87.35007476806641 28.06830024719238 85.08217620849609 C 22.88852500915527 82.89131164550781 18.23629951477051 79.75460052490234 14.2408504486084 75.75914764404297 C 10.24541282653809 71.76370239257812 7.108687400817871 67.11147308349609 4.917825222015381 61.93171310424805 C 2.649924993515015 56.56977462768555 1.5 50.87312316894531 1.5 45 C 1.5 39.12687683105469 2.649924993515015 33.43022537231445 4.917825222015381 28.06830024719238 C 7.108687400817871 22.88852500915527 10.24541282653809 18.23629951477051 14.2408504486084 14.2408504486084 C 18.23629951477051 10.24541282653809 22.88852500915527 7.108687400817871 28.06830024719238 4.917825222015381 C 33.43022537231445 2.649924993515015 39.12687683105469 1.5 45 1.5 C 50.87312316894531 1.5 56.56977462768555 2.649924993515015 61.93171310424805 4.917825222015381 C 67.11147308349609 7.108687400817871 71.76370239257812 10.24541282653809 75.75914764404297 14.2408504486084 C 79.75460052490234 18.23629951477051 82.89131164550781 22.88852500915527 85.08217620849609 28.06830024719238 C 87.35007476806641 33.43022537231445 88.5 39.12687683105469 88.5 45 C 88.5 50.87312316894531 87.35007476806641 56.56977462768555 85.08217620849609 61.93171310424805 C 82.89131164550781 67.11147308349609 79.75460052490234 71.76370239257812 75.75914764404297 75.75914764404297 C 71.76370239257812 79.75460052490234 67.11147308349609 82.89131164550781 61.93171310424805 85.08217620849609 C 56.56977462768555 87.35007476806641 50.87312316894531 88.5 45 88.5 Z" stroke="none"/>
                            <path d="M 45 3 C 39.32871246337891 3 33.82867050170898 4.110054016113281 28.65262985229492 6.299339294433594 C 23.65165710449219 8.414573669433594 19.15969848632812 11.44334411621094 15.301513671875 15.301513671875 C 11.44334411621094 19.15969848632812 8.414573669433594 23.65165710449219 6.299339294433594 28.65262985229492 C 4.110054016113281 33.82867050170898 3 39.32871246337891 3 45 C 3 50.67128753662109 4.110054016113281 56.17134475708008 6.299339294433594 61.34738540649414 C 8.414573669433594 66.34835815429688 11.44334411621094 70.84031677246094 15.301513671875 74.698486328125 C 19.15969848632812 78.55665588378906 23.65165710449219 81.58542633056641 28.65262985229492 83.70066833496094 C 33.82867050170898 85.88994598388672 39.32871246337891 87 45 87 C 50.67128753662109 87 56.17134475708008 85.88994598388672 61.34738540649414 83.70066833496094 C 66.34835815429688 81.58542633056641 70.84031677246094 78.55667114257812 74.698486328125 74.698486328125 C 78.55667114257812 70.84031677246094 81.58542633056641 66.34835815429688 83.70066833496094 61.34738540649414 C 85.88994598388672 56.17134475708008 87 50.67128753662109 87 45 C 87 39.32871246337891 85.88994598388672 33.82867050170898 83.70066833496094 28.65262985229492 C 81.58542633056641 23.65165710449219 78.55665588378906 19.15969848632812 74.698486328125 15.301513671875 C 70.84031677246094 11.44334411621094 66.34835815429688 8.414573669433594 61.34738540649414 6.299339294433594 C 56.17134475708008 4.110054016113281 50.67128753662109 3 45 3 M 45 0 C 69.85282897949219 0 90 20.14720153808594 90 45 C 90 69.85282897949219 69.85282897949219 90 45 90 C 20.14720153808594 90 0 69.85282897949219 0 45 C 0 20.14720153808594 20.14720153808594 0 45 0 Z" stroke="none" fill="#10233c"/>
                          </g>
                        </g>
                      </g>
                    </g>
                  </g>
                </g>
              </g>
            </g>
          </g>
        </g>
      </g>
    </g>
    <g id="Grupo_1175605" data-name="Grupo 1175605" transform="translate(612.628 937.093)">
      <g id="Grupo_1175606" data-name="Grupo 1175606">
        <path id="Trazado_1030979" data-name="Trazado 1030979" d="M0,56.238V0M55.24,42.982V32.439q0-.865,0-1.731V20.17H54.58c-4.293,0-8.586.019-12.878-.008a6.1,6.1,0,0,1-5.309-3c1.121-1.1,1.127-2.609,1.585-4.027H35.948c0-.491.018-.929,0-1.366A9.192,9.192,0,0,0,34.4,7.049,2.014,2.014,0,0,0,30.7,8.083a7.1,7.1,0,0,1-1.515,4.192,1.733,1.733,0,0,1-1.826.924c-.656-1.4-1.372-2.829-2.007-4.3A13.407,13.407,0,0,0,11.481.978,14.6,14.6,0,0,0,3.263,5.093l2.49,4.16c-.512.854-1.034,1.587-1.417,2.387-1.17,2.446-2.294,4.916-3.411,7.387a.858.858,0,0,0,.068.674c.946,1.621,1.918,3.228,2.884,4.836.07.117.157.226.24.344,2.394-1.5,4.754-2.983,7.132-4.441a4.964,4.964,0,0,1,1.112-.356c.215,1.94.412,3.731.608,5.5-.642.287-.642.287-1.261.063a3.5,3.5,0,0,0-4.658,3.737c.076.489.45.985.38,1.429a3.7,3.7,0,0,1-.8,1.341,1.016,1.016,0,0,1-.508.39,4.122,4.122,0,0,0-3.07,2.692c-.28.785-.446,1.61-.68,2.482H6.106v5.273H.909V55.221H55.24Z" fill="#fefefe"/>
        <path id="Trazado_1030980" data-name="Trazado 1030980" d="M55.24,30.7q0,.866,0,1.731c-1.224,0-2.447.021-3.672.005a4.361,4.361,0,0,1-4.091-3.007,2.792,2.792,0,0,0-1.006-1.556,3.815,3.815,0,0,1-2.131,3.836c-.379.219-.718.505-1.1.715a.614.614,0,0,1-.519.007c-.636-.393-1.264-.8-1.864-1.249a3.384,3.384,0,0,1-1.387-2.73c-.014-.415,0-.83,0-1.236a2.671,2.671,0,0,0-3.182,2.457c-.056.379-.132.755-.2,1.133A2.608,2.608,0,0,1,34.6,32.784c-.586.3-1.165.607-1.764.873a.588.588,0,0,0-.389.675,8.374,8.374,0,0,0,1.679,4.608.866.866,0,0,0,.964.39c1.132-.2,2.271-.36,3.406-.534.775-.12,1.553-.227,2.326-.36,2.42-.414,3.578-1.65,3.946-4.213h1.707a5.019,5.019,0,0,1-1.221,3.55,2.4,2.4,0,0,0-.651,2.451,16.883,16.883,0,0,1,.169,2.7c.026.016.041.034.055.034l10.412.019v12.24H.905V42.991H6.1V37.718H2.364c.234-.873.4-1.7.68-2.481a4.121,4.121,0,0,1,3.07-2.693,1.016,1.016,0,0,0,.508-.39,3.7,3.7,0,0,0,.8-1.341c.07-.444-.3-.94-.38-1.429A3.5,3.5,0,0,1,11.7,25.647c.62.224.62.224,1.261-.063-.2-1.771-.393-3.562-.608-5.5a4.964,4.964,0,0,0-1.112.356c-2.378,1.458-4.738,2.944-7.132,4.441-.083-.118-.17-.227-.24-.344C2.907,22.924,1.934,21.317.988,19.7a.857.857,0,0,1-.068-.674c1.118-2.471,2.241-4.941,3.411-7.387.383-.8.9-1.533,1.417-2.387-.786-1.315-1.634-2.732-2.49-4.16A14.6,14.6,0,0,1,11.477.974,13.407,13.407,0,0,1,25.351,8.9c.636,1.466,1.352,2.9,2.007,4.3a1.733,1.733,0,0,0,1.826-.924A7.1,7.1,0,0,0,30.7,8.079a2.014,2.014,0,0,1,3.693-1.034,9.205,9.205,0,0,1,1.549,4.721c.021.437,0,.875,0,1.366h2.029c-.458,1.418-.464,2.926-1.585,4.027a6.1,6.1,0,0,0,5.309,3c4.292.027,8.585.008,12.878.008h.664v1.741c-4.649,0-9.3.067-13.946-.02a7.465,7.465,0,0,1-6.085-3.361c-.2-.273-.338-.394-.7-.269a6.666,6.666,0,0,1-1.206.187v-.9c.013-.285.026-.571.039-.851,1.335-.141,2.146-.769,2.28-1.754-1.286-.109-2.534-.127-3.266,1.221l-.794-.353-.766-.43a4.088,4.088,0,0,1,3.373-2.225c-.036-.408-1.425-1.078-2.574-1.283-.554.765-1.132,1.5-1.632,2.278a1.356,1.356,0,0,1-1.507.772,1.7,1.7,0,0,0-.6.039A3.515,3.515,0,0,0,24.9,18.394a5.959,5.959,0,0,1-2.756,4.9,5.353,5.353,0,0,0-.7.527c-.144.131-.33.308-.34.474a7.483,7.483,0,0,0,.2,3.173L23.863,24.9l1.3,1.282c-.841.806-1.707,1.636-2.587,2.478a2.514,2.514,0,0,0,3.337-.972,6.356,6.356,0,0,1,3.938-2.907,2.979,2.979,0,0,0,2.621-2.824h1.74a4.635,4.635,0,0,1-2.715,4.12,7.274,7.274,0,0,1,.988,3.68,8.874,8.874,0,0,0,.463,1.826c.935-.257,1.519-.688,1.513-1.644a3.341,3.341,0,0,1,.084-.539,4.3,4.3,0,0,1,3.181-3.78,13.29,13.29,0,0,1,1.839-.2.935.935,0,0,0,.567-.283,3.479,3.479,0,0,1,5.825.23,1.038,1.038,0,0,0,.427.384,4.7,4.7,0,0,1,2.728,3.025,2.627,2.627,0,0,0,2.68,1.917l3.452.013M15.448,2.962l-.032-.039.041.032Q16.1,4.49,16.748,6.027l1.426-2.363-2.727-.7M31.494,32.433a6.863,6.863,0,0,1-.82-3.353,2.213,2.213,0,0,0-.176-.907c-.229-.5-.448-1.28-.82-1.378-.594-.156-1.16.395-1.568.915-.384.488-.725,1.013-1.142,1.469a4.182,4.182,0,0,1-4.413,1.35,4.135,4.135,0,0,1-3.164-3.412c-.117-.621-.047-1.274-.106-1.908a3.238,3.238,0,0,1,1.6-3.189,8.962,8.962,0,0,0,1.581-1.487.917.917,0,0,0,.1-.781q-1.32-3.535-2.7-7.047a8.962,8.962,0,0,0-4.424-4.873.825.825,0,0,1-.542-.86A5.244,5.244,0,0,0,13.525,3.4c-.445,1.341-.874,2.591-1.27,3.852a.811.811,0,0,1-.695.634,7.672,7.672,0,0,0-5.574,4.345c-1.062,2.2-2.06,4.431-3.079,6.652-.063.137-.14.346-.08.449C3.421,20.374,4.041,21.4,4.642,22.4a.9.9,0,0,0,.18-.046c1.255-.779,2.507-1.567,3.765-2.342,3.077-1.9,2.035-1.564,5.332-1.608a2.892,2.892,0,0,0,2.587-1.569c.079-.138.152-.279.24-.442l1.628.545a4.82,4.82,0,0,1-4.212,3.231,3.266,3.266,0,0,0,0,.346c.167,1.469.357,2.935.493,4.408a.7.7,0,0,0,.542.725A3.313,3.313,0,0,1,17.445,28.2a3.5,3.5,0,0,1-1.092,3.389c.255.7.5,1.362.744,2.026.234.631.474,1.26.713,1.89a.623.623,0,0,0,.912.406c.065-.143.133-.292.2-.44A5.242,5.242,0,0,1,27.5,34.113a5.439,5.439,0,0,1,1.44,3.957A5.265,5.265,0,0,0,31.388,42.7a1.636,1.636,0,0,0,.86.255c3.4.017,6.8.011,10.194.011h.569c-.054-1.094-.105-2.133-.16-3.218-.509.137-.871.267-1.243.326-2.432.387-4.866.769-7.3,1.118a1.014,1.014,0,0,1-.746-.277A9.783,9.783,0,0,1,30.684,33.7c.005-.586-.054-1.159.81-1.262M16.473,36.757a8.208,8.208,0,0,1-.4-.812c-.35-.957-.658-1.93-1.024-2.88a3.7,3.7,0,0,0-7.151,1.293c-.018,2.794-.005,5.589,0,8.383a1.172,1.172,0,0,0,.029.191h13.7a4.9,4.9,0,0,0-2.931-1.716c-1.329,0-2.657,0-4.059,0,.56-1.563.452-3.311,1.842-4.459m12.493,6.2a7.976,7.976,0,0,1-1.8-5.386,3.481,3.481,0,0,0-6.886-.614,22.075,22.075,0,0,0-.119,2.343.641.641,0,0,0,.47.73c1.364.582,2.568,1.342,2.928,2.926ZM11.44,53.464h1.678V44.742H11.44Zm-8.793-.012H4.355v-8.7H2.646ZM46.5,53.46h1.688V44.747H46.5Zm-8.76-.01h1.688v-8.7H37.745Zm-7.091-8.685H28.965v8.7h1.689ZM20.2,53.456h1.68V44.732H20.2ZM44.721,27.947c0-.382.009-.6,0-.818a1.752,1.752,0,0,0-3.5.006c-.013.29,0,.582,0,.874a2.329,2.329,0,0,0,1.61,2.4.442.442,0,0,0,.337-.032c1.024-.557,1.808-1.265,1.559-2.427m-32.455.176c-1.386-1.066-2.074-1.19-2.867-.532a1.63,1.63,0,0,0-.44,2.012,5.5,5.5,0,0,1,6.207.65,1.725,1.725,0,0,0,.2-2.435c-.758-.9-1.549-.822-3.1.306M50.029,48.206h3.44V44.748h-3.44ZM14.939,53.458h3.44V50h-3.44Zm12.225-3.443H23.706v3.448h3.459Zm5.314,3.444h3.441V50H32.479Zm8.771,0h3.44V50H41.25Zm8.77,0h3.44V50H50.02Zm-40.4-3.45H6.16v3.458H9.618Zm.01-5.252H6.169V48.2H9.628ZM14.92,48.2h3.459v-3.44H14.92Zm12.248-3.44H23.71V48.2h3.459Zm8.768,0H32.478V48.2h3.459Zm8.753,0H41.25v3.459h3.44ZM22.225,6.926l-2.56-2.343c-.555.926-1.04,1.716-1.5,2.521a.443.443,0,0,0,.024.414c.5.5,1.017.977,1.555,1.484l2.481-2.076M24.541,11.3c-.472-.987-.908-1.9-1.374-2.869L20.76,10.443l1.014,2.234,2.767-1.38M9.024,6.86C8.541,5.894,8.085,4.985,7.59,4L5.511,5.438c.556.923,1.058,1.758,1.579,2.621.35-.232.647-.439.953-.628s.625-.365.982-.571M23.379,16.939a5.53,5.53,0,0,1,2.356-3.054l-.461-.988c-.9.448-1.747.861-2.582,1.3a.469.469,0,0,0-.2.4c.259.752.558,1.489.887,2.339M11.93,2.632,9.2,3.274c.522,1.048.991,1.987,1.508,3.025.41-1.225.786-2.353,1.224-3.667m22.045,8.2.188-.115c-.379-.855-.749-1.712-1.147-2.558a.6.6,0,0,0-.376-.224c-.038-.01-.176.173-.189.276-.081.646-.14,1.294-.208,1.959l1.731.662M18.4,37.8a1.6,1.6,0,0,0-1.414,1.636H18.4ZM6.109,34.39a2.329,2.329,0,0,0-1.445,1.527H6.109Z" transform="translate(0.004 0.004)" fill="#020101"/>
        <path id="Trazado_1030981" data-name="Trazado 1030981" d="M33.219,17.493v.9a6.655,6.655,0,0,0,1.206-.186c.361-.126.5-.005.7.268a7.461,7.461,0,0,0,6.085,3.361c4.647.087,9.3.022,13.946.02v8.8L51.7,30.645a2.625,2.625,0,0,1-2.68-1.917A4.7,4.7,0,0,0,46.3,25.7a1.042,1.042,0,0,1-.427-.383,3.478,3.478,0,0,0-5.825-.231.929.929,0,0,1-.567.283,13.138,13.138,0,0,0-1.839.2,4.3,4.3,0,0,0-3.181,3.779,3.46,3.46,0,0,0-.085.539c.007.956-.577,1.388-1.512,1.645a8.819,8.819,0,0,1-.463-1.827,7.265,7.265,0,0,0-.989-3.68,4.634,4.634,0,0,0,2.716-4.12h-1.74a2.978,2.978,0,0,1-2.622,2.824,6.356,6.356,0,0,0-3.937,2.907,2.513,2.513,0,0,1-3.337.972c.88-.843,1.746-1.672,2.587-2.478l-1.3-1.282-2.564,2.573a7.5,7.5,0,0,1-.2-3.173c.011-.166.2-.343.341-.474a5.258,5.258,0,0,1,.7-.526,5.964,5.964,0,0,0,2.756-4.9,3.514,3.514,0,0,1,2.962-3.442,1.685,1.685,0,0,1,.6-.04,1.356,1.356,0,0,0,1.507-.772c.5-.78,1.078-1.511,1.631-2.278,1.15.206,2.539.876,2.574,1.283a4.09,4.09,0,0,0-3.373,2.225l.767.43a1.8,1.8,0,0,0,1.74,1.737m-5.266.875a.876.876,0,1,0,.9.841.879.879,0,0,0-.9-.841" transform="translate(0.089 0.05)" fill="#cacfd7"/>
        <path id="Trazado_1030982" data-name="Trazado 1030982" d="M55.1,42.868q-5.2-.009-10.411-.02c-.015,0-.029-.017-.055-.034a16.884,16.884,0,0,0-.17-2.7,2.4,2.4,0,0,1,.652-2.45,5.03,5.03,0,0,0,1.221-3.551H44.631c-.368,2.564-1.525,3.8-3.946,4.214-.773.133-1.551.24-2.326.36-1.136.175-2.275.334-3.405.534a.869.869,0,0,1-.965-.391A8.387,8.387,0,0,1,32.31,34.22a.588.588,0,0,1,.39-.674c.6-.266,1.178-.578,1.763-.873A2.607,2.607,0,0,0,35.95,30.7c.065-.378.14-.753.2-1.132A2.672,2.672,0,0,1,39.33,27.11c0,.408-.012.822,0,1.236a3.386,3.386,0,0,0,1.387,2.731c.6.446,1.228.856,1.864,1.248a.614.614,0,0,0,.519-.007c.383-.209.723-.5,1.1-.714a3.817,3.817,0,0,0,2.13-3.837,2.806,2.806,0,0,1,1.007,1.556,4.36,4.36,0,0,0,4.091,3.008c1.223.015,2.447,0,3.671-.005V42.868M39.327,31.437a.876.876,0,1,0-.843.9.882.882,0,0,0,.843-.9" transform="translate(0.137 0.115)" fill="#eac09b"/>
        <path id="Trazado_1030983" data-name="Trazado 1030983" d="M31.486,32.424c-.865.1-.805.676-.81,1.262a9.785,9.785,0,0,0,2.875,7.223,1.014,1.014,0,0,0,.746.277c2.437-.35,4.871-.731,7.3-1.118.373-.059.734-.192,1.243-.327.054,1.085.105,2.125.16,3.219h-.569c-3.4,0-6.8.006-10.194-.011a1.646,1.646,0,0,1-.86-.255,5.265,5.265,0,0,1-2.443-4.635A5.442,5.442,0,0,0,27.5,34.1a5.243,5.243,0,0,0-8.579,1.356c-.07.148-.138.3-.2.44a.622.622,0,0,1-.912-.4c-.239-.631-.479-1.259-.714-1.89-.246-.665-.488-1.329-.743-2.026a3.5,3.5,0,0,0,1.092-3.389,3.314,3.314,0,0,0-2.246-2.546.7.7,0,0,1-.542-.725c-.138-1.472-.326-2.938-.493-4.408a3.269,3.269,0,0,1,0-.346,4.822,4.822,0,0,0,4.212-3.231l-1.629-.546c-.087.164-.161.305-.24.443A2.889,2.889,0,0,1,13.91,18.4c-3.3.044-2.256-.289-5.332,1.608-1.258.775-2.51,1.562-3.765,2.342a.852.852,0,0,1-.18.045c-.6-1.006-1.221-2.029-1.815-3.066-.059-.1.017-.311.08-.449,1.019-2.22,2.017-4.452,3.079-6.651a7.672,7.672,0,0,1,5.574-4.345.811.811,0,0,0,.695-.634c.4-1.261.825-2.512,1.27-3.852a5.248,5.248,0,0,1,1.366,3.566.824.824,0,0,0,.542.861,8.962,8.962,0,0,1,4.424,4.873q1.374,3.514,2.7,7.047a.917.917,0,0,1-.1.781,8.954,8.954,0,0,1-1.581,1.486,3.239,3.239,0,0,0-1.6,3.19c.059.634-.011,1.287.106,1.907a4.135,4.135,0,0,0,3.164,3.413,4.185,4.185,0,0,0,4.413-1.35c.417-.456.758-.982,1.142-1.47.408-.519.974-1.07,1.568-.915.373.1.592.877.82,1.379a2.223,2.223,0,0,1,.176.907,6.852,6.852,0,0,0,.82,3.353M10.513,11.388a.876.876,0,1,0,.875.864.878.878,0,0,0-.875-.864" transform="translate(0.012 0.014)" fill="#cd9d75"/>
        <path id="Trazado_1030984" data-name="Trazado 1030984" d="M16.443,36.632c-1.389,1.147-1.281,2.9-1.842,4.458,1.4,0,2.732,0,4.06,0a4.9,4.9,0,0,1,2.931,1.716H7.891a1.2,1.2,0,0,1-.029-.192c0-2.794-.015-5.589,0-8.383a3.7,3.7,0,0,1,7.15-1.293c.368.951.675,1.924,1.024,2.881a8.552,8.552,0,0,0,.4.812m-5.091.985H9.65v3.438h1.7Zm-.873-5.3a.876.876,0,1,0,.886.852.879.879,0,0,0-.886-.852" transform="translate(0.033 0.13)" fill="#fde8a6"/>
        <path id="Trazado_1030985" data-name="Trazado 1030985" d="M28.884,42.816H23.475c-.36-1.584-1.565-2.343-2.928-2.925a.642.642,0,0,1-.469-.731,21.813,21.813,0,0,1,.117-2.343,3.482,3.482,0,0,1,6.887.614,7.972,7.972,0,0,0,1.8,5.386m-7.043-6.125a.875.875,0,1,0,.859-.878.881.881,0,0,0-.859.878" transform="translate(0.085 0.145)" fill="#e4e7eb"/>
        <rect id="Rectángulo_415506" data-name="Rectángulo 415506" width="1.678" height="8.723" transform="translate(11.443 44.746)" fill="#d29f6c"/>
        <rect id="Rectángulo_415507" data-name="Rectángulo 415507" width="1.708" height="8.698" transform="translate(2.65 44.758)" fill="#d29f6c"/>
        <rect id="Rectángulo_415508" data-name="Rectángulo 415508" width="1.688" height="8.714" transform="translate(46.509 44.75)" fill="#d29f6c"/>
        <rect id="Rectángulo_415509" data-name="Rectángulo 415509" width="1.688" height="8.704" transform="translate(37.749 44.75)" fill="#d29f6c"/>
        <rect id="Rectángulo_415510" data-name="Rectángulo 415510" width="1.689" height="8.704" transform="translate(28.968 44.77)" fill="#d29f6c"/>
        <rect id="Rectángulo_415511" data-name="Rectángulo 415511" width="1.68" height="8.724" transform="translate(20.203 44.736)" fill="#d29f6c"/>
        <path id="Trazado_1030986" data-name="Trazado 1030986" d="M44.552,27.845c.249,1.161-.534,1.87-1.559,2.427a.454.454,0,0,1-.338.032,2.331,2.331,0,0,1-1.61-2.4c0-.291-.009-.582,0-.874a1.752,1.752,0,0,1,3.5-.006c.011.218,0,.437,0,.819" transform="translate(0.174 0.108)" fill="#dcaf89"/>
        <path id="Trazado_1030987" data-name="Trazado 1030987" d="M12.233,28.012c1.553-1.13,2.343-1.2,3.1-.306a1.725,1.725,0,0,1-.2,2.435,5.5,5.5,0,0,0-6.207-.65,1.63,1.63,0,0,1,.44-2.012c.793-.658,1.481-.533,2.867.532" transform="translate(0.037 0.115)" fill="#f97f6b"/>
        <rect id="Rectángulo_415512" data-name="Rectángulo 415512" width="3.44" height="3.459" transform="translate(50.033 44.751)" fill="#deb18a"/>
        <rect id="Rectángulo_415513" data-name="Rectángulo 415513" width="3.44" height="3.459" transform="translate(14.943 50.004)" fill="#deb18a"/>
        <rect id="Rectángulo_415514" data-name="Rectángulo 415514" width="3.459" height="3.448" transform="translate(23.709 50.02)" fill="#deb18a"/>
        <rect id="Rectángulo_415515" data-name="Rectángulo 415515" width="3.441" height="3.459" transform="translate(32.482 50.004)" fill="#deb18a"/>
        <rect id="Rectángulo_415516" data-name="Rectángulo 415516" width="3.44" height="3.459" transform="translate(41.253 50.004)" fill="#deb18a"/>
        <rect id="Rectángulo_415517" data-name="Rectángulo 415517" width="3.44" height="3.459" transform="translate(50.024 50.004)" fill="#deb18a"/>
        <rect id="Rectángulo_415518" data-name="Rectángulo 415518" width="3.458" height="3.458" transform="translate(6.164 50.014)" fill="#deb18a"/>
        <rect id="Rectángulo_415519" data-name="Rectángulo 415519" width="3.459" height="3.44" transform="translate(6.173 44.761)" fill="#deb18a"/>
        <rect id="Rectángulo_415520" data-name="Rectángulo 415520" width="3.459" height="3.44" transform="translate(14.924 44.761)" fill="#deb18a"/>
        <rect id="Rectángulo_415521" data-name="Rectángulo 415521" width="3.459" height="3.44" transform="translate(23.713 44.761)" fill="#deb18a"/>
        <rect id="Rectángulo_415522" data-name="Rectángulo 415522" width="3.459" height="3.444" transform="translate(32.481 44.759)" fill="#deb18a"/>
        <rect id="Rectángulo_415523" data-name="Rectángulo 415523" width="3.44" height="3.459" transform="translate(41.253 44.761)" fill="#deb18a"/>
        <path id="Trazado_1030988" data-name="Trazado 1030988" d="M22.152,6.91l-2.48,2.077C19.134,8.479,18.611,8,18.117,7.5a.444.444,0,0,1-.025-.413c.46-.805.945-1.6,1.5-2.521l2.56,2.342" transform="translate(0.077 0.019)" fill="#ae7644"/>
        <path id="Trazado_1030989" data-name="Trazado 1030989" d="M24.457,11.266,21.69,12.647c-.345-.76-.668-1.471-1.015-2.234L23.083,8.4l1.374,2.869" transform="translate(0.088 0.036)" fill="#ae7644"/>
        <path id="Trazado_1030990" data-name="Trazado 1030990" d="M9,6.847c-.359.207-.676.381-.982.571s-.6.4-.953.628L5.49,5.425,7.571,3.982c.5.99.95,1.9,1.434,2.865" transform="translate(0.023 0.017)" fill="#ae7644"/>
        <path id="Trazado_1030991" data-name="Trazado 1030991" d="M33.175,17.48a1.8,1.8,0,0,1-1.741-1.737l.8.353c.731-1.348,1.979-1.331,3.265-1.221-.133.985-.944,1.614-2.279,1.754-.013.279-.027.565-.04.851" transform="translate(0.133 0.063)" fill="#a7afba"/>
        <path id="Trazado_1030992" data-name="Trazado 1030992" d="M23.288,16.889c-.328-.85-.627-1.588-.887-2.339a.47.47,0,0,1,.2-.4c.835-.443,1.685-.855,2.582-1.3.156.331.3.637.462.988a5.528,5.528,0,0,0-2.357,3.054" transform="translate(0.095 0.055)" fill="#ae7644"/>
        <path id="Trazado_1030993" data-name="Trazado 1030993" d="M11.9,2.625c-.44,1.314-.816,2.441-1.225,3.668L9.161,3.267,11.9,2.625" transform="translate(0.039 0.011)" fill="#ae7644"/>
        <path id="Trazado_1030994" data-name="Trazado 1030994" d="M15.386,2.953l2.728.7L16.688,6.018,15.4,2.946Z" transform="translate(0.065 0.013)" fill="#ae7644"/>
        <path id="Trazado_1030995" data-name="Trazado 1030995" d="M33.842,10.805l-1.73-.663c.067-.664.126-1.313.207-1.958.013-.1.151-.286.19-.276a.6.6,0,0,1,.375.224c.4.846.768,1.7,1.148,2.558l-.189.115" transform="translate(0.136 0.034)" fill="#c4c9d0"/>
        <path id="Trazado_1030996" data-name="Trazado 1030996" d="M18.327,37.64v1.636H16.913a1.6,1.6,0,0,1,1.414-1.636" transform="translate(0.072 0.16)" fill="#f97f6b"/>
        <path id="Trazado_1030997" data-name="Trazado 1030997" d="M6.093,34.248v1.527H4.648a2.329,2.329,0,0,1,1.445-1.527" transform="translate(0.02 0.145)" fill="#f97f6b"/>
        <path id="Trazado_1030998" data-name="Trazado 1030998" d="M15.4,2.946l-.041-.032.032.039.009-.007" transform="translate(0.065 0.012)" fill="#ae7644"/>
        <path id="Trazado_1030999" data-name="Trazado 1030999" d="M27.927,18.34a.876.876,0,1,1-.854.884.883.883,0,0,1,.854-.884" transform="translate(0.115 0.078)" fill="#0b0907"/>
        <path id="Trazado_1031000" data-name="Trazado 1031000" d="M39.3,31.423a.876.876,0,1,1-.882-.857.883.883,0,0,1,.882.857" transform="translate(0.159 0.13)" fill="#0b0907"/>
        <path id="Trazado_1031001" data-name="Trazado 1031001" d="M10.484,11.354a.876.876,0,1,1-.877.861.881.881,0,0,1,.877-.861" transform="translate(0.041 0.048)" fill="#0b0907"/>
        <rect id="Rectángulo_415524" data-name="Rectángulo 415524" width="1.703" height="3.438" transform="translate(9.682 37.747)" fill="#020101"/>
        <path id="Trazado_1031002" data-name="Trazado 1031002" d="M10.473,32.313a.876.876,0,1,1-.865.872.881.881,0,0,1,.865-.872" transform="translate(0.041 0.137)" fill="#0b0907"/>
        <path id="Trazado_1031003" data-name="Trazado 1031003" d="M21.834,36.684a.875.875,0,1,1,.864.874.879.879,0,0,1-.864-.874" transform="translate(0.093 0.152)" fill="#0b0907"/>
      </g>
    </g>
  </g>
</svg>
