<svg xmlns="http://www.w3.org/2000/svg" xmlns:xlink="http://www.w3.org/1999/xlink" width="108" height="108" viewBox="0 0 108 108">
  <defs>
    <filter id="Trazado_904820" x="0" y="0" width="108" height="108" filterUnits="userSpaceOnUse">
      <feOffset dy="3" input="SourceAlpha"/>
      <feGaussianBlur stdDeviation="3" result="blur"/>
      <feFlood flood-opacity="0.161"/>
      <feComposite operator="in" in2="blur"/>
      <feComposite in="SourceGraphic"/>
    </filter>
  </defs>
  <g id="Grupo_1175196" data-name="Grupo 1175196" transform="translate(9 6)">
    <g id="Grupo_1173585" data-name="Grupo 1173585" transform="translate(0 0)">
      <g id="Grupo_1173428" data-name="Grupo 1173428">
        <g id="Grupo_1171958" data-name="Grupo 1171958">
          <g id="Grupo_1167341" data-name="Grupo 1167341">
            <g id="Grupo_1166792" data-name="Grupo 1166792">
              <g transform="matrix(1, 0, 0, 1, -9, -6)" filter="url(#Trazado_904820)">
                <g id="Trazado_904820-2" data-name="Trazado 904820" transform="translate(9 6)" fill="#f0f6eb">
                  <path d="M 44.99999618530273 88.49999237060547 C 39.12687301635742 88.49999237060547 33.43022155761719 87.35006713867188 28.06829643249512 85.08216857910156 C 22.88852119445801 82.89130401611328 18.23629570007324 79.75457763671875 14.24084663391113 75.75914001464844 C 10.24540901184082 71.76369476318359 7.108683586120605 67.11146545410156 4.917821407318115 61.93169403076172 C 2.649921178817749 56.56976699829102 1.499996185302734 50.87311553955078 1.499996185302734 44.99999237060547 C 1.499996185302734 39.12686920166016 2.649921178817749 33.43021774291992 4.917821407318115 28.06829261779785 C 7.108683586120605 22.88851737976074 10.24540901184082 18.23630523681641 14.24084663391113 14.24085521697998 C 18.23629570007324 10.24540519714355 22.88852119445801 7.108692169189453 28.06829643249512 4.917829990386963 C 33.43022155761719 2.649929761886597 39.12687301635742 1.500004887580872 44.99999618530273 1.500004887580872 C 50.87311935424805 1.500004887580872 56.56977081298828 2.649929761886597 61.93169784545898 4.917829990386963 C 67.11147308349609 7.108692169189453 71.76369476318359 10.24540519714355 75.75914764404297 14.24085521697998 C 79.75458526611328 18.23630523681641 82.89131164550781 22.88851737976074 85.08216857910156 28.06829261779785 C 87.35007476806641 33.43021774291992 88.5 39.12686920166016 88.5 44.99999237060547 C 88.5 50.87311553955078 87.35007476806641 56.56976699829102 85.08216857910156 61.93169403076172 C 82.89131164550781 67.11146545410156 79.75458526611328 71.76369476318359 75.75914764404297 75.75914001464844 C 71.76369476318359 79.75457763671875 67.11147308349609 82.89130401611328 61.93169784545898 85.08216857910156 C 56.56977081298828 87.35006713867188 50.87311935424805 88.49999237060547 44.99999618530273 88.49999237060547 Z" stroke="none"/>
                  <path d="M 44.99999618530273 2.999992370605469 C 39.32870864868164 2.999992370605469 33.82865142822266 4.11004638671875 28.65262603759766 6.299331665039062 C 23.65165710449219 8.414566040039062 19.15968322753906 11.44333648681641 15.301513671875 15.30150604248047 C 11.44333648681641 19.15967559814453 8.414566040039062 23.65164947509766 6.299339294433594 28.65262222290039 C 4.110054016113281 33.82864761352539 2.999992370605469 39.32870483398438 2.999992370605469 44.99999237060547 C 2.999992370605469 50.67127990722656 4.110054016113281 56.17132186889648 6.299339294433594 61.34736633300781 C 8.414566040039062 66.34833526611328 11.44333648681641 70.84029388427734 15.301513671875 74.69846343994141 C 19.15968322753906 78.55663299560547 23.65165710449219 81.58540344238281 28.65262603759766 83.70063781738281 C 33.82865142822266 85.88992309570312 39.32870864868164 86.99997711181641 44.99999618530273 86.99997711181641 C 50.67128372192383 86.99997711181641 56.17134094238281 85.88992309570312 61.34736633300781 83.70063781738281 C 66.34834289550781 81.58540344238281 70.84030914306641 78.55663299560547 74.69847869873047 74.69846343994141 C 78.55665588378906 70.84029388427734 81.58542633056641 66.34833526611328 83.70065307617188 61.34736633300781 C 85.88993835449219 56.17132186889648 87 50.67127990722656 87 44.99999237060547 C 87 39.32870483398438 85.88993835449219 33.82864761352539 83.70065307617188 28.65262222290039 C 81.58542633056641 23.65164947509766 78.55665588378906 19.15967559814453 74.69847869873047 15.30150604248047 C 70.84030914306641 11.44333648681641 66.34834289550781 8.414566040039062 61.34736633300781 6.299331665039062 C 56.17134094238281 4.11004638671875 50.67128372192383 2.999992370605469 44.99999618530273 2.999992370605469 M 44.99999618530273 -7.62939453125e-06 C 69.85281372070312 -7.62939453125e-06 90 20.14717864990234 90 44.99999237060547 C 90 69.85279083251953 69.85281372070312 89.99997711181641 44.99999618530273 89.99997711181641 C 20.14717864990234 89.99997711181641 -7.62939453125e-06 69.85279083251953 -7.62939453125e-06 44.99999237060547 C -7.62939453125e-06 20.14717864990234 20.14717864990234 -7.62939453125e-06 44.99999618530273 -7.62939453125e-06 Z" stroke="none" fill="#65a532"/>
                </g>
              </g>
            </g>
          </g>
        </g>
      </g>
    </g>
    <g id="inspire-idea_14781822_1_" data-name="inspire-idea_14781822 (1)" transform="translate(18.189 18.162)">
      <g id="Grupo_1173811" data-name="Grupo 1173811" transform="translate(0)">
        <path id="Trazado_1030754" data-name="Trazado 1030754" d="M118.589,346.14v-3.927a2.388,2.388,0,0,0,1.941-2.346v-6.753h12.334v6.753a2.388,2.388,0,0,0,1.941,2.346l.336,3.383Z" transform="translate(-106.619 -297.948)" fill="#ca6e59"/>
        <path id="Trazado_1030755" data-name="Trazado 1030755" d="M61.637,18.129c0,7.771-4.182,17-14.827,13.948l-8.883-4.04A3.508,3.508,0,0,1,37.7,22.85l.9-.247.62-.617a3.706,3.706,0,0,1,.743-6.358.327.327,0,0,0,.191-.38,3.518,3.518,0,0,1-.1-.828,3.424,3.424,0,0,1,3.387-3.46,3.39,3.39,0,0,1,.659.066,1.608,1.608,0,0,1,.256-.259,1.368,1.368,0,0,0,.568-1.193A3.817,3.817,0,0,1,50.265,9.2a.322.322,0,0,0,.483-.078,3.351,3.351,0,0,1,5.735,0,.322.322,0,0,0,.484.077,3.8,3.8,0,0,1,.761-.505C61.637,9.874,61.637,15.326,61.637,18.129Z" transform="translate(-33.538 -7.5)" fill="#73788c"/>
        <path id="Trazado_1030756" data-name="Trazado 1030756" d="M154.4,31.762a3.481,3.481,0,0,1-1.267,2.7L142.977,39.98H133.9L130.64,38.5a15.958,15.958,0,0,0,10.919-23.388,3.78,3.78,0,0,1,1.719-.411,3.832,3.832,0,0,1,2.867,1.295l.178.872.646.581a3.388,3.388,0,0,1,.658-.066,3.425,3.425,0,0,1,3.388,3.46,3.537,3.537,0,0,1-.178,1.107,3.7,3.7,0,0,1,1.014,6.459A3.449,3.449,0,0,1,154.4,31.762Z" transform="translate(-117.368 -13.922)" fill="#5e6577"/>
        <path id="Trazado_1030757" data-name="Trazado 1030757" d="M69.565,200.643a5.913,5.913,0,0,0,4.5-5.742h0a2.351,2.351,0,0,0-2.351-2.351H69.565l-23.685,0H43.726a2.351,2.351,0,0,0-2.351,2.351h0a5.913,5.913,0,0,0,4.5,5.742Z" transform="translate(-37.744 -172.564)" fill="#ca6e59"/>
        <path id="Trazado_1030758" data-name="Trazado 1030758" d="M100.891,130.963a2.34,2.34,0,0,1,3.055,1.006,9.393,9.393,0,0,0,.783,1.19l.511.679c.216.631.7,3.576,1.365,3.576v8.971a7.483,7.483,0,0,1-2.556,5.633L99.4,156.085a4.988,4.988,0,0,1-3.284,1.233H93.362a4.988,4.988,0,0,1-3.284-1.233l-4.647-4.067a7.483,7.483,0,0,1-2.556-5.633v-8.971a1.588,1.588,0,0,0,1.476-1.085l1.023-3.993a2.339,2.339,0,0,1,3.222-1.352l.149.072,1.2.461a13.329,13.329,0,0,0,9.538,0l1.2-.461Z" transform="translate(-74.762 -117.43)" fill="#d78878"/>
        <path id="Trazado_1030759" data-name="Trazado 1030759" d="M170.8,300.289c-2.562,0-2.676-2.365-2.633-3.223a.323.323,0,0,1,.324-.306H173.1a.323.323,0,0,1,.324.314C173.449,297.939,173.279,300.289,170.8,300.289Z" transform="translate(-150.838 -265.52)" fill="#eaf6ff"/>
        <path id="Trazado_1030760" data-name="Trazado 1030760" d="M14.853,440.135l-6.779-.016a.324.324,0,0,1-.324-.324v-6.019a.325.325,0,0,1,.174-.288,10.474,10.474,0,0,1,2.824-.972l.781-.157,6.889,2.555Z" transform="translate(-7.75 -386.476)" fill="#9be69d"/>
        <path id="Trazado_1030761" data-name="Trazado 1030761" d="M298.68,435.424l-2.615,4.267-9.027.007-3.266-5.719c.036-.037,6.6-2.1,6.6-2.1l.446.085A10.477,10.477,0,0,1,293.772,433Z" transform="translate(-253.962 -386.047)" fill="#9be69d"/>
        <path id="Trazado_1030762" data-name="Trazado 1030762" d="M123.119,418.39l.986,4.955-3.565,4.316-10.827.012-4.107-4.527,1.532-4.732A11.089,11.089,0,0,0,123.119,418.39Z" transform="translate(-95.039 -374.014)" fill="#eaf6ff"/>
        <path id="Trazado_1030763" data-name="Trazado 1030763" d="M49.814,409.6l-2.949-10.6a1.187,1.187,0,0,0-1.489-.817l-6.556,2a.514.514,0,0,0-.321.7l1.383,3.131a.324.324,0,0,0,.224.185l3.369.773a.324.324,0,0,1,.193.5l-1.828,2.62a.324.324,0,0,0-.039.295l.44,1.217Z" transform="translate(-35.139 -355.937)" fill="#bbf49b"/>
        <path id="Trazado_1030764" data-name="Trazado 1030764" d="M243.879,409.38l2.953-10.616a1.186,1.186,0,0,1,1.489-.817l6.556,2a.515.515,0,0,1,.321.7l-1.383,3.132a.324.324,0,0,1-.224.185l-3.37.773a.324.324,0,0,0-.193.5l1.829,2.621a.324.324,0,0,1,.039.295l-.442,1.232Z" transform="translate(-218.377 -355.733)" fill="#bbf49b"/>
        <g id="Grupo_1173808" data-name="Grupo 1173808" transform="translate(39.979 29.297)">
          <path id="Trazado_1030765" data-name="Trazado 1030765" d="M390.766,387.922v4.153a12.65,12.65,0,0,1-.285,2.518,8.841,8.841,0,0,1-1.023,1.841c-.654,1.1-.368,2.236-.364,3.517l-.83.531h-8.185V398.7a4.466,4.466,0,0,0-1.175-3.019,3.7,3.7,0,0,1-.971-2.495V391.4a2.19,2.19,0,0,1,.935-1.795Z" transform="translate(-377.933 -376.134)" fill="#d78878"/>
          <g id="Grupo_1173807" data-name="Grupo 1173807" transform="translate(9.989 6.973)">
            <path id="Trazado_1030766" data-name="Trazado 1030766" d="M473.269,344.047v4.118a.864.864,0,0,1-.347.773c-.259.259-1.17-.137-1.565-.134l-.7-.753-.228-2.677.747-.577a1.448,1.448,0,0,1,1.41-1.446C473.058,343.527,473.269,343.771,473.269,344.047Z" transform="translate(-470.425 -343.35)" fill="#d78878"/>
            <path id="Trazado_1030767" data-name="Trazado 1030767" d="M481.768,344.787v3.254a1.449,1.449,0,0,1-2.621.851l-.093-.1a1.449,1.449,0,0,0,1.436-1.449v-3.251a1.44,1.44,0,0,0-.211-.753h.039A1.448,1.448,0,0,1,481.768,344.787Z" transform="translate(-478.122 -343.34)" fill="#ca6e59"/>
          </g>
          <path id="Trazado_1030768" data-name="Trazado 1030768" d="M476.862,386.87V391.2a7.062,7.062,0,0,1-.994,3.613,7.067,7.067,0,0,0-.992,3.64l0,.763a.324.324,0,0,1-.324.325h-1l0-1.089a7.078,7.078,0,0,1,.994-3.64,7.062,7.062,0,0,0,.994-3.612v-4.145Z" transform="translate(-463.227 -375.195)" fill="#ca6e59"/>
          <path id="Trazado_1030769" data-name="Trazado 1030769" d="M391.54,281.421v11.7c0,.84-1.375,1.527-2.215,1.527l.714-1.908-.988-.939V281.421a1.529,1.529,0,0,1,.9-1.391A1.412,1.412,0,0,1,391.54,281.421Z" transform="translate(-387.851 -279.894)" fill="#d78878"/>
          <path id="Trazado_1030770" data-name="Trazado 1030770" d="M417.824,332.242v3.838c0,.619-1,1.154-1.536,1.393a1.531,1.531,0,0,1-.9-1.393l-.373-.083v-3.624l.373-.132a1.53,1.53,0,0,1,.9-1.392C417.569,331.014,417.824,331.624,417.824,332.242Z" transform="translate(-411.007 -325.225)" fill="#d78878"/>
          <path id="Trazado_1030771" data-name="Trazado 1030771" d="M447.431,332.242v4.07c0,.618-1.117,1.153-1.649,1.392a1.529,1.529,0,0,1-.9-1.392l-.364-.232v-3.673l.364-.165a1.53,1.53,0,0,1,.9-1.392C447.23,331.047,447.431,331.624,447.431,332.242Z" transform="translate(-437.323 -325.225)" fill="#d78878"/>
          <path id="Trazado_1030772" data-name="Trazado 1030772" d="M399.67,280.3v11.076a.691.691,0,0,1-1.376,0V280.3a1.531,1.531,0,0,0-.9-1.391,1.5,1.5,0,0,1,.626-.136h.122A1.531,1.531,0,0,1,399.67,280.3Z" transform="translate(-395.292 -278.77)" fill="#ca6e59"/>
          <path id="Trazado_1030773" data-name="Trazado 1030773" d="M429.107,331.127v3.838a1.532,1.532,0,0,1-1.527,1.528h-.123a1.492,1.492,0,0,1-.623-.135,1.531,1.531,0,0,0,.9-1.393v-3.838a1.531,1.531,0,0,0-.9-1.392,1.492,1.492,0,0,1,.623-.135h.123A1.532,1.532,0,0,1,429.107,331.127Z" transform="translate(-421.553 -324.11)" fill="#ca6e59"/>
          <path id="Trazado_1030774" data-name="Trazado 1030774" d="M458.527,331.127v4.07A1.532,1.532,0,0,1,457,336.725h-.122a1.488,1.488,0,0,1-.623-.135,1.529,1.529,0,0,0,.9-1.392v-4.07a1.531,1.531,0,0,0-.9-1.392,1.489,1.489,0,0,1,.623-.135H457A1.533,1.533,0,0,1,458.527,331.127Z" transform="translate(-447.795 -324.11)" fill="#ca6e59"/>
          <path id="Trazado_1030775" data-name="Trazado 1030775" d="M399.774,367.156a3.284,3.284,0,0,1-.07.672c-.284,1.358-2.3,1.527-3.737,1.676a4.569,4.569,0,0,0-2.707-.369c-.856.265-1.394,1.64-1.407,1.631l-2.8-1.467v-1.381l2.707-1.946a3.033,3.033,0,0,1,1.733-.564l4.494-.042A1.792,1.792,0,0,1,399.774,367.156Z" transform="translate(-387.849 -356.014)" fill="#ca6e59"/>
          <path id="Trazado_1030776" data-name="Trazado 1030776" d="M390.712,381.188l1.279-1.721a.324.324,0,0,1,.221-.128l2.763-.335a2.193,2.193,0,0,0,1.512-2.1.738.738,0,0,0-.742-.722h-4.066a2.745,2.745,0,0,0-1.575.5l-3.509,2.456Z" transform="translate(-385.66 -365.659)" fill="#d78878"/>
        </g>
        <g id="Grupo_1173810" data-name="Grupo 1173810" transform="translate(29.674 1.527)">
          <path id="Trazado_1030777" data-name="Trazado 1030777" d="M304.179,30.288a12.581,12.581,0,0,1-12.492,12.775c-2.279,0-7.282-1.672-7.933-3.489l.123-.5a.321.321,0,0,0-.028-.226,11.793,11.793,0,0,1,18.26-14.276A11.194,11.194,0,0,1,304.179,30.288Z" transform="translate(-282.517 -21.635)" fill="#eaf6ff"/>
          <path id="Trazado_1030778" data-name="Trazado 1030778" d="M307.055,60.208a11.811,11.811,0,0,1-17.7,7.542.322.322,0,0,0-.229-.042l-4.863.927a.325.325,0,0,1-.376-.4l1.081-4.374a12.717,12.717,0,0,0,18.355-15A11.764,11.764,0,0,1,307.055,60.208Z" transform="translate(-283.73 -45.924)" fill="#d8ecfe"/>
          <g id="Grupo_1173809" data-name="Grupo 1173809" transform="translate(5.707 2.938)">
            <path id="Trazado_1030779" data-name="Trazado 1030779" d="M346.138,55.573c0,3.16-3.319,6.216-6.544,6.216-.489,0-1.018.332-1.872-.929a6.871,6.871,0,0,0-.845-1.486,5.853,5.853,0,0,1,3.3-9.692C344.611,49.682,346.138,52.763,346.138,55.573Z" transform="translate(-335.361 -49.591)" fill="#ffe177"/>
            <path id="Trazado_1030780" data-name="Trazado 1030780" d="M365.092,54.69a5.833,5.833,0,0,1-1.489,3.9,7.067,7.067,0,0,0-1.417,4.214v.366l-5.893.019v-.323a9.892,9.892,0,0,0-.724-3.22,5.927,5.927,0,0,0,1.418.17c3.225,0,6.018-2.1,6.018-5.26a5.755,5.755,0,0,0-4.8-5.629,5.858,5.858,0,0,1,6.887,5.762Z" transform="translate(-353.386 -48.837)" fill="#ffd15b"/>
            <path id="Trazado_1030781" data-name="Trazado 1030781" d="M366.924,179.51l.916,1.789c0,.971-.582,1.789-2.673,1.789h-.459a1.757,1.757,0,0,1-1.757-1.757V179.51h3.973Z" transform="translate(-359.971 -165.398)" fill="#5e6577"/>
            <path id="Trazado_1030782" data-name="Trazado 1030782" d="M387,179.511v1.821a1.757,1.757,0,0,1-1.757,1.757h-1.773a1.757,1.757,0,0,0,1.757-1.757v-1.821Z" transform="translate(-378.278 -165.398)" fill="#4d5263"/>
            <path id="Trazado_1030783" data-name="Trazado 1030783" d="M354.481,160.614c0,.389.236.83,0,1.085a7.077,7.077,0,0,1-2.349.557h-4.323a1.36,1.36,0,0,1-1.3-1.409,1.468,1.468,0,0,1,.382-1,1.258,1.258,0,0,1,.923-.412h4.323C352.852,159.439,354.481,159.836,354.481,160.614Z" transform="translate(-345.301 -147.494)" fill="#73788c"/>
            <path id="Trazado_1030784" data-name="Trazado 1030784" d="M402.283,160.849a1.466,1.466,0,0,1-.382,1,1.258,1.258,0,0,1-.923.412h-2.367a1.256,1.256,0,0,0,.923-.412,1.466,1.466,0,0,0,.382-1,1.36,1.36,0,0,0-1.3-1.41h2.367A1.36,1.36,0,0,1,402.283,160.849Z" transform="translate(-391.78 -147.494)" fill="#5e6577"/>
          </g>
        </g>
      </g>
      <g id="Grupo_1173820" data-name="Grupo 1173820">
        <g id="Grupo_1173812" data-name="Grupo 1173812" transform="translate(3.632 19.988)">
          <path id="Trazado_1030785" data-name="Trazado 1030785" d="M45.826,200.657a5.913,5.913,0,0,1-4.45-5.729h0a2.351,2.351,0,0,1,2.351-2.351H45.88" transform="translate(-41.376 -192.577)" fill="none" stroke="#000" stroke-linecap="round" stroke-linejoin="round" stroke-miterlimit="10" stroke-width="1.5"/>
          <path id="Trazado_1030786" data-name="Trazado 1030786" d="M307.173,232.041a5.923,5.923,0,0,1-4.116,3.811" transform="translate(-274.796 -227.779)" fill="none" stroke="#000" stroke-linecap="round" stroke-linejoin="round" stroke-miterlimit="10" stroke-width="1.5"/>
        </g>
        <path id="Trazado_1030787" data-name="Trazado 1030787" d="M209.872,132.269a13.326,13.326,0,0,0,2.9-.75l1.2-.461.2-.094a2.339,2.339,0,0,1,3.208,1.359" transform="translate(-188.043 -117.43)" fill="none" stroke="#000" stroke-linecap="round" stroke-linejoin="round" stroke-miterlimit="10" stroke-width="1.5"/>
        <path id="Trazado_1030788" data-name="Trazado 1030788" d="M106.6,141.905v4.612a7.483,7.483,0,0,1-2.556,5.633L99.4,156.217a4.988,4.988,0,0,1-3.284,1.233H93.362a4.988,4.988,0,0,1-3.284-1.233l-4.647-4.067a7.483,7.483,0,0,1-2.556-5.633v-8.97a1.588,1.588,0,0,0,1.476-1.085l1.023-3.993a2.339,2.339,0,0,1,3.222-1.352l.149.072,1.2.461a13.32,13.32,0,0,0,2.879.748" transform="translate(-74.762 -117.561)" fill="none" stroke="#000" stroke-linecap="round" stroke-linejoin="round" stroke-miterlimit="10" stroke-width="1.5"/>
        <g id="Grupo_1173814" data-name="Grupo 1173814" transform="translate(13.124 18.962)">
          <g id="Grupo_1173813" data-name="Grupo 1173813">
            <path id="Trazado_1030789" data-name="Trazado 1030789" d="M184.359,262.089a2.5,2.5,0,0,1-2.27,0" transform="translate(-176.384 -253.555)" fill="none" stroke="#000" stroke-linecap="round" stroke-linejoin="round" stroke-miterlimit="10" stroke-width="1.5"/>
            <path id="Trazado_1030790" data-name="Trazado 1030790" d="M133.419,183.605a4.319,4.319,0,0,0-4.153,0" transform="translate(-129.266 -183.073)" fill="none" stroke="#000" stroke-linecap="round" stroke-linejoin="round" stroke-miterlimit="10" stroke-width="1.5"/>
            <path id="Trazado_1030791" data-name="Trazado 1030791" d="M221.639,183.605a4.319,4.319,0,0,0-4.153,0" transform="translate(-207.958 -183.073)" fill="none" stroke="#000" stroke-linecap="round" stroke-linejoin="round" stroke-miterlimit="10" stroke-width="1.5"/>
            <line id="Línea_813" data-name="Línea 813" y1="1.84" transform="translate(11.604 3.118)" fill="none" stroke="#000" stroke-linecap="round" stroke-linejoin="round" stroke-miterlimit="10" stroke-width="1.5"/>
            <line id="Línea_814" data-name="Línea 814" y1="1.84" transform="translate(2.076 3.118)" fill="none" stroke="#000" stroke-linecap="round" stroke-linejoin="round" stroke-miterlimit="10" stroke-width="1.5"/>
          </g>
          <path id="Trazado_1030792" data-name="Trazado 1030792" d="M170.8,300.289c-3.13,0-2.606-3.529-2.606-3.529h5.213S173.838,300.289,170.8,300.289Z" transform="translate(-163.962 -284.482)" fill="none" stroke="#000" stroke-linecap="round" stroke-linejoin="round" stroke-miterlimit="10" stroke-width="1.5"/>
        </g>
        <path id="Trazado_1030793" data-name="Trazado 1030793" d="M66.375,12.171a3.339,3.339,0,0,0-3.233-1.145,3.887,3.887,0,0,0-3.691-2.748,3.825,3.825,0,0,0-2.773,1.194,3.358,3.358,0,0,0-6.117,0,3.825,3.825,0,0,0-2.773-1.194A3.887,3.887,0,0,0,44.1,11.026a3.337,3.337,0,0,0-.659-.066,3.424,3.424,0,0,0-3.387,3.46,3.521,3.521,0,0,0,.178,1.107,3.7,3.7,0,0,0-1.014,6.46,3.49,3.49,0,0,0-1.285,6.051" transform="translate(-33.541 -7.5)" fill="none" stroke="#000" stroke-linecap="round" stroke-linejoin="round" stroke-miterlimit="10" stroke-width="1.5"/>
        <path id="Trazado_1030794" data-name="Trazado 1030794" d="M61.855,142.26a3.39,3.39,0,0,1-1.528-.619" transform="translate(-54.649 -127.154)" fill="none" stroke="#000" stroke-linecap="round" stroke-linejoin="round" stroke-miterlimit="10" stroke-width="1.5"/>
        <path id="Trazado_1030795" data-name="Trazado 1030795" d="M105.6,40.2a3.214,3.214,0,0,1,2.037,1.353" transform="translate(-95.032 -36.668)" fill="none" stroke="#000" stroke-linecap="round" stroke-linejoin="round" stroke-miterlimit="10" stroke-width="1.5"/>
        <path id="Trazado_1030796" data-name="Trazado 1030796" d="M268.182,40.183a3.219,3.219,0,0,0-1.636,1.247" transform="translate(-238.596 -36.653)" fill="none" stroke="#000" stroke-linecap="round" stroke-linejoin="round" stroke-miterlimit="10" stroke-width="1.5"/>
        <path id="Trazado_1030797" data-name="Trazado 1030797" d="M303.437,33.851q-.054.342-.129.685a12.158,12.158,0,0,1-18.332,7.7l-5.644,1.076,1.393-5.642A12.127,12.127,0,0,1,289.4,20" transform="translate(-249.968 -18.652)" fill="none" stroke="#000" stroke-linecap="round" stroke-linejoin="round" stroke-miterlimit="10" stroke-width="1.5"/>
        <path id="Trazado_1030798" data-name="Trazado 1030798" d="M407.545,19.544q.436.062.873.157a12.141,12.141,0,0,1,9.421,9.962" transform="translate(-364.368 -18.243)" fill="none" stroke="#000" stroke-linecap="round" stroke-linejoin="round" stroke-miterlimit="10" stroke-width="1.5"/>
        <g id="Grupo_1173815" data-name="Grupo 1173815" transform="translate(35.381 4.467)">
          <path id="Trazado_1030799" data-name="Trazado 1030799" d="M337.9,60.606a6.9,6.9,0,0,0-1.03-1.982,5.847,5.847,0,1,1,8.692-.03,7.211,7.211,0,0,0-1.048,1.988" transform="translate(-335.355 -48.863)" fill="none" stroke="#000" stroke-linecap="round" stroke-linejoin="round" stroke-miterlimit="10" stroke-width="1.5"/>
          <line id="Línea_815" data-name="Línea 815" y1="4.299" transform="translate(5.847 7.421)" fill="none" stroke="#000" stroke-linecap="round" stroke-linejoin="round" stroke-miterlimit="10" stroke-width="1.5"/>
          <path id="Trazado_1030800" data-name="Trazado 1030800" d="M368.659,186.134v.665a2.16,2.16,0,0,1-2.16,2.16h-1.421a2.16,2.16,0,0,1-2.16-2.16v-.665" transform="translate(-359.941 -171.309)" fill="none" stroke="#000" stroke-linecap="round" stroke-linejoin="round" stroke-miterlimit="10" stroke-width="1.5"/>
          <path id="Trazado_1030801" data-name="Trazado 1030801" d="M356.164,160.639h-5.819a1.478,1.478,0,0,1-1.478-1.478v-.087a1.478,1.478,0,0,1,1.478-1.478h5.819a1.478,1.478,0,0,1,1.478,1.478v.087A1.478,1.478,0,0,1,356.164,160.639Z" transform="translate(-347.408 -145.852)" fill="none" stroke="#000" stroke-linecap="round" stroke-linejoin="round" stroke-miterlimit="10" stroke-width="1.5"/>
          <line id="Línea_816" data-name="Línea 816" x2="3.743" transform="translate(4.053 7.412)" fill="none" stroke="#000" stroke-linecap="round" stroke-linejoin="round" stroke-miterlimit="10" stroke-width="1.5"/>
        </g>
        <path id="Trazado_1030802" data-name="Trazado 1030802" d="M346.53,432.2l.271.052a10.459,10.459,0,0,1,2.951,1.039" transform="translate(-309.942 -386.328)" fill="none" stroke="#000" stroke-linecap="round" stroke-linejoin="round" stroke-miterlimit="10" stroke-width="1.5"/>
        <path id="Trazado_1030803" data-name="Trazado 1030803" d="M250.768,358.351v4.027a2.388,2.388,0,0,0,1.941,2.346" transform="translate(-224.522 -320.46)" fill="none" stroke="#000" stroke-linecap="round" stroke-linejoin="round" stroke-miterlimit="10" stroke-width="1.5"/>
        <path id="Trazado_1030804" data-name="Trazado 1030804" d="M118.589,417.362h0a11.092,11.092,0,0,0,16.216,0h0" transform="translate(-106.619 -373.097)" fill="none" stroke="#000" stroke-linecap="round" stroke-linejoin="round" stroke-miterlimit="10" stroke-width="1.5"/>
        <path id="Trazado_1030805" data-name="Trazado 1030805" d="M11.173,366.415l-.425.085a10.457,10.457,0,0,0-3,1.064m13.911-9.213v4.027a2.388,2.388,0,0,1-1.941,2.346l-.124.024" transform="translate(-7.75 -320.46)" fill="none" stroke="#000" stroke-linecap="round" stroke-linejoin="round" stroke-miterlimit="10" stroke-width="1.5"/>
        <g id="Grupo_1173816" data-name="Grupo 1173816" transform="translate(3.019 42.187)">
          <path id="Trazado_1030806" data-name="Trazado 1030806" d="M45.808,405.086l-1.695-6.094a1.187,1.187,0,0,0-1.489-.817l-6.556,2a.514.514,0,0,0-.321.7l1.449,3.28,4,.917-2.2,3.151.5,1.39" transform="translate(-35.703 -398.124)" fill="none" stroke="#000" stroke-linecap="round" stroke-linejoin="round" stroke-miterlimit="10" stroke-width="1.5"/>
          <line id="Línea_817" data-name="Línea 817" x1="0.246" y1="0.884" transform="translate(11.118 10.604)" fill="none" stroke="#000" stroke-linecap="round" stroke-linejoin="round" stroke-miterlimit="10" stroke-width="1.5"/>
          <path id="Trazado_1030807" data-name="Trazado 1030807" d="M244.868,409.613l2.954-10.62a1.186,1.186,0,0,1,1.489-.817l6.556,2a.515.515,0,0,1,.321.7l-1.449,3.28-4,.916,2.2,3.152-.5,1.39" transform="translate(-222.279 -398.125)" fill="none" stroke="#000" stroke-linecap="round" stroke-linejoin="round" stroke-miterlimit="10" stroke-width="1.5"/>
        </g>
        <g id="Grupo_1173819" data-name="Grupo 1173819" transform="translate(39.986 29.328)">
          <g id="Grupo_1173817" data-name="Grupo 1173817" transform="translate(10.736 6.973)">
            <path id="Trazado_1030808" data-name="Trazado 1030808" d="M480.31,345.073a1.447,1.447,0,0,0-1.447-1.447h0a1.449,1.449,0,0,0-1.449,1.449v3.251a1.449,1.449,0,0,0,1.449,1.449h0a1.449,1.449,0,0,0,1.449-1.449Z" transform="translate(-477.412 -343.626)" fill="none" stroke="#000" stroke-linecap="round" stroke-linejoin="round" stroke-miterlimit="10" stroke-width="1.5"/>
            <path id="Trazado_1030809" data-name="Trazado 1030809" d="M490.831,400.563" transform="translate(-489.382 -394.414)" fill="none" stroke="#000" stroke-linecap="round" stroke-linejoin="round" stroke-miterlimit="10" stroke-width="1.5"/>
          </g>
          <g id="Grupo_1173818" data-name="Grupo 1173818" transform="translate(11.649 11.715)">
            <path id="Trazado_1030810" data-name="Trazado 1030810" d="M487.844,387.53v4.331a7.035,7.035,0,0,1-.993,3.573h0a7.07,7.07,0,0,0-.993,3.639l0,1.089" transform="translate(-485.858 -387.53)" fill="none" stroke="#000" stroke-linecap="round" stroke-linejoin="round" stroke-miterlimit="10" stroke-width="1.5"/>
          </g>
          <path id="Trazado_1030811" data-name="Trazado 1030811" d="M433.859,414.75a5.925,5.925,0,0,1,1.265,5.417l-.045.173" transform="translate(-427.826 -400.095)" fill="none" stroke="#000" stroke-linecap="round" stroke-linejoin="round" stroke-miterlimit="10" stroke-width="1.5"/>
          <path id="Trazado_1030812" data-name="Trazado 1030812" d="M389.115,292.275V280.584a1.532,1.532,0,0,1,1.527-1.527h.122a1.532,1.532,0,0,1,1.527,1.527v9.5" transform="translate(-387.914 -279.057)" fill="none" stroke="#000" stroke-linecap="round" stroke-linejoin="round" stroke-miterlimit="10" stroke-width="1.5"/>
          <path id="Trazado_1030813" data-name="Trazado 1030813" d="M418.532,331.42a1.532,1.532,0,0,1,1.527-1.527h.122a1.532,1.532,0,0,1,1.527,1.527V334.9" transform="translate(-414.155 -324.403)" fill="none" stroke="#000" stroke-linecap="round" stroke-linejoin="round" stroke-miterlimit="10" stroke-width="1.5"/>
          <path id="Trazado_1030814" data-name="Trazado 1030814" d="M447.947,334.859V331.42a1.532,1.532,0,0,1,1.527-1.527h.123a1.532,1.532,0,0,1,1.527,1.527v1.458" transform="translate(-440.393 -324.403)" fill="none" stroke="#000" stroke-linecap="round" stroke-linejoin="round" stroke-miterlimit="10" stroke-width="1.5"/>
          <path id="Trazado_1030815" data-name="Trazado 1030815" d="M383.052,381.477l1.362-1.832,2.728-.352a2.193,2.193,0,0,0,1.512-2.083.742.742,0,0,0-.743-.742h-3.893a2.744,2.744,0,0,0-1.575.5l-3.509,2.456a2.192,2.192,0,0,0-.935,1.8V383a3.692,3.692,0,0,0,.971,2.495,4.468,4.468,0,0,1,1.175,3.019V390.3" transform="translate(-377.999 -365.948)" fill="none" stroke="#000" stroke-linecap="round" stroke-linejoin="round" stroke-miterlimit="10" stroke-width="1.5"/>
        </g>
      </g>
    </g>
  </g>
</svg>
