<svg xmlns="http://www.w3.org/2000/svg" xmlns:xlink="http://www.w3.org/1999/xlink" width="122.299" height="122.299" viewBox="0 0 122.299 122.299">
  <defs>
    <filter id="Trazado_896985" x="0" y="0" width="122.299" height="122.299" filterUnits="userSpaceOnUse">
      <feOffset dy="3" input="SourceAlpha"/>
      <feGaussianBlur stdDeviation="3" result="blur"/>
      <feFlood flood-opacity="0.161"/>
      <feComposite operator="in" in2="blur"/>
      <feComposite in="SourceGraphic"/>
    </filter>
  </defs>
  <g id="Grupo_1175663" data-name="Grupo 1175663" transform="translate(-738.851 -7851.567)">
    <g id="Grupo_1175660" data-name="Grupo 1175660" transform="translate(747.851 7857.567)">
      <g id="Grupo_1175188" data-name="Grupo 1175188" transform="translate(0 0)">
        <g id="Grupo_1098742" data-name="Grupo 1098742" transform="translate(0 0)">
          <g transform="matrix(1, 0, 0, 1, -9, -6)" filter="url(#Trazado_896985)">
            <g id="Trazado_896985-2" data-name="Trazado 896985" transform="translate(9 6)" fill="#84a065" opacity="0.859">
              <path d="M 52.14946365356445 102.7990875244141 C 45.31116485595703 102.7990875244141 38.67822265625 101.4601287841797 32.43486404418945 98.81941223144531 C 26.40374946594238 96.26847076416016 20.98693466186523 92.61624145507812 16.33489227294922 87.96420288085938 C 11.68284893035889 83.31215667724609 8.030620574951172 77.89533996582031 5.479678153991699 71.86421203613281 C 2.838963747024536 65.62085723876953 1.500006556510925 58.9879150390625 1.500006556510925 52.14961624145508 C 1.500006556510925 45.31117248535156 2.838963747024536 38.67823028564453 5.479678153991699 32.43487167358398 C 8.030620574951172 26.40374374389648 11.68284893035889 20.98692893981934 16.33489227294922 16.33488655090332 C 20.98693466186523 11.6828441619873 26.40374946594238 8.030614852905273 32.43486404418945 5.479672431945801 C 38.67822265625 2.838958024978638 45.31116485595703 1.500000953674316 52.14946365356445 1.500000953674316 C 58.98776245117188 1.500000953674316 65.62070465087891 2.838958024978638 71.86406707763672 5.479672431945801 C 77.89519500732422 8.030614852905273 83.31200408935547 11.6828441619873 87.96405029296875 16.33488655090332 C 92.6160888671875 20.98692893981934 96.26831817626953 26.40374374389648 98.81926727294922 32.43487167358398 C 101.4599761962891 38.67823028564453 102.7989349365234 45.31117248535156 102.7989349365234 52.14947128295898 C 102.7989349365234 58.9879150390625 101.4599761962891 65.62085723876953 98.81926727294922 71.86421203613281 C 96.26831817626953 77.89533996582031 92.6160888671875 83.31215667724609 87.96405029296875 87.96420288085938 C 83.31200408935547 92.61624145507812 77.89519500732422 96.26847076416016 71.86406707763672 98.81941223144531 C 65.62070465087891 101.4601287841797 58.98776245117188 102.7990875244141 52.14946365356445 102.7990875244141 Z" stroke="none"/>
              <path d="M 52.14946365356445 2.999992370605469 C 45.51301193237305 2.999992370605469 39.07666015625 4.299079895019531 33.01919555664062 6.861175537109375 C 27.16686248779297 9.336494445800781 21.91031646728516 12.88077545166016 17.39554595947266 17.39554595947266 C 12.88078308105469 21.91030883789062 9.336494445800781 27.16687774658203 6.861183166503906 33.01919555664062 C 4.299079895019531 39.07666015625 3 45.51301193237305 3 52.14960861206055 C 3 58.78607559204102 4.299079895019531 65.22242736816406 6.861183166503906 71.27989196777344 C 9.336494445800781 77.13220977783203 12.88078308105469 82.38877868652344 17.39554595947266 86.90354156494141 C 21.91031646728516 91.41831207275391 27.16686248779297 94.96259307861328 33.01919555664062 97.43791198730469 C 39.07666015625 100.0000076293945 45.51301193237305 101.2990951538086 52.14946365356445 101.2990951538086 C 58.78591537475586 101.2990951538086 65.22225952148438 100.0000076293945 71.27973175048828 97.43791198730469 C 77.13206481933594 94.96259307861328 82.38861083984375 91.41831207275391 86.90338134765625 86.90354156494141 C 91.41814422607422 82.38877868652344 94.96243286132812 77.13220977783203 97.437744140625 71.27989196777344 C 99.99984741210938 65.22242736816406 101.2989273071289 58.78607559204102 101.2989273071289 52.14947891235352 C 101.2989273071289 45.51301193237305 99.99984741210938 39.07666015625 97.437744140625 33.01919555664062 C 94.96243286132812 27.16687774658203 91.41814422607422 21.91030883789062 86.90338134765625 17.39554595947266 C 82.38861083984375 12.88077545166016 77.13206481933594 9.336494445800781 71.27973175048828 6.861175537109375 C 65.22225952148438 4.299079895019531 58.78591537475586 2.999992370605469 52.14946365356445 2.999992370605469 M 52.14946365356445 -7.62939453125e-06 C 80.95081329345703 -7.62939453125e-06 104.2989273071289 23.34811401367188 104.2989273071289 52.14947891235352 L 104.2989273071289 52.14960861206055 C 104.2989273071289 80.95097351074219 80.95081329345703 104.2990951538086 52.14946365356445 104.2990951538086 C 23.34811401367188 104.2990951538086 0 80.95097351074219 0 52.14960861206055 L 0 52.14947891235352 C 0 23.34811401367188 23.34811401367188 -7.62939453125e-06 52.14946365356445 -7.62939453125e-06 Z" stroke="none" fill="#fff"/>
            </g>
          </g>
          <g id="Rect치ngulo_400907" data-name="Rect치ngulo 400907" transform="translate(0 0)" fill="none" stroke="#fff" stroke-width="3">
            <rect width="104.299" height="104.299" rx="52.149" stroke="none"/>
            <rect x="1.5" y="1.5" width="101.299" height="101.299" rx="50.649" fill="none"/>
          </g>
        </g>
      </g>
      <g id="Grupo_1175670" data-name="Grupo 1175670" transform="translate(21 21.433)">
        <g id="Grupo_1175671" data-name="Grupo 1175671">
          <path id="Trazado_1031152" data-name="Trazado 1031152" d="M33,0c.763.107,1.526.208,2.288.322.576.086,1.151.185,1.726.282.95.159,1.435.709,1.3,1.474-.128.743-.793,1.1-1.75.9A26.879,26.879,0,0,0,30.2,2.434,28.11,28.11,0,0,0,8.856,12.942,27.181,27.181,0,0,0,2.584,27.967a28.235,28.235,0,0,0,5.709,20.29c.011.015.033.022.091.059a4.726,4.726,0,0,1,3.422-.214,4.579,4.579,0,1,1-4.824,7.4,4.492,4.492,0,0,1-.629-5.167.589.589,0,0,0-.079-.739,30.983,30.983,0,0,1-4.389-8.07A32.733,32.733,0,0,1,.136,33.843,1.514,1.514,0,0,0,0,33.486V28.408a1.572,1.572,0,0,0,.127-.357,28.057,28.057,0,0,1,1.712-7.628C6.317,9.154,14.5,2.4,26.491.328L28.4,0ZM10.426,50.29a2.172,2.172,0,1,0,2.144,2.224,2.18,2.18,0,0,0-2.144-2.224" fill="#030303"/>
          <path id="Trazado_1031154" data-name="Trazado 1031154" d="M36.72,19.728a11.124,11.124,0,0,1,5.782-.281A1.862,1.862,0,0,1,44.133,21.1a10.211,10.211,0,0,1-2.3,9.176c-.051.058-.091.125-.177.245.46.109.876.2,1.292.307A1.386,1.386,0,0,1,44,31.871a10.373,10.373,0,0,1-8.457,13.1,28.867,28.867,0,0,1-3.4.019V48.3c0,1.389,0,2.779,0,4.169,0,.985-.442,1.558-1.2,1.567s-1.217-.554-1.218-1.541q0-3.444,0-6.887v-.514c-.791,0-1.545.011-2.3,0a10.328,10.328,0,0,1-9.905-9.982,22.341,22.341,0,0,1,.276-2.935,1.589,1.589,0,0,1,1.467-1.445c.3-.049.592-.114.955-.185-.341-.453-.68-.865-.979-1.3a10.2,10.2,0,0,1-1.351-8.649,1.328,1.328,0,0,1,1.014-1,10.664,10.664,0,0,1,6.254.14c-.059-.4-.113-.746-.162-1.095a10.233,10.233,0,0,1,5.123-10.5,1.535,1.535,0,0,1,1.691.016A10.333,10.333,0,0,1,36.83,19.095c-.037.19-.067.381-.11.633m-5.807,4.091c4.725-2.754,4.9-10.146.353-13.161-.316-.21-.5-.1-.736.077a7.679,7.679,0,0,0-3.19,5.9,7.764,7.764,0,0,0,3.573,7.183M41.789,21.8a7.944,7.944,0,0,0-9.5,9.093.736.736,0,0,0,.511.414A7.921,7.921,0,0,0,41.789,21.8M20.078,33.054a7.994,7.994,0,0,0,9.067,9.52c.317-.048.481-.16.473-.483a17,17,0,0,0-.109-3.052,7.9,7.9,0,0,0-9.431-5.985m.013-11.247a7.951,7.951,0,0,0,9,9.524c.373-.06.487-.2.544-.558a8.266,8.266,0,0,0-.3-3.7,7.983,7.983,0,0,0-9.25-5.271m21.7,11.225a7.919,7.919,0,0,0-4.413.3,8.019,8.019,0,0,0-5.119,8.752c.054.353.2.446.53.5a7.981,7.981,0,0,0,9-9.55" fill="#030303"/>
          <path id="Trazado_1031155" data-name="Trazado 1031155" d="M53.555,13.559a4.538,4.538,0,0,1-5.192-.792,4.368,4.368,0,0,1-1.228-4.748,4.574,4.574,0,0,1,8.855.592,4.352,4.352,0,0,1-.444,2.923.618.618,0,0,0,.081.791,31.036,31.036,0,0,1,6.162,20.827A29.8,29.8,0,0,1,56,49.084,30.913,30.913,0,0,1,25.738,61.443c-.929-.154-1.353-.695-1.209-1.466.127-.683.731-1.042,1.586-.906a27.766,27.766,0,0,0,15.568-1.717c8.97-3.835,14.755-10.511,17.021-20.013a27.84,27.84,0,0,0-3.773-21.809c-.421-.679-.914-1.314-1.376-1.973M51.469,11.6a2.172,2.172,0,1,0-2.154-2.154A2.18,2.18,0,0,0,51.469,11.6" fill="#030303"/>
          <path id="Trazado_1031156" data-name="Trazado 1031156" d="M42.093,4.571A1.261,1.261,0,0,1,40.856,3.34a1.2,1.2,0,0,1,1.21-1.174,1.222,1.222,0,0,1,1.2,1.184,1.235,1.235,0,0,1-1.178,1.221" fill="#030303"/>
          <path id="Trazado_1031157" data-name="Trazado 1031157" d="M19.9,59.749a1.2,1.2,0,1,1,1.179-1.183A1.181,1.181,0,0,1,19.9,59.749" fill="#030303"/>
          <path id="Trazado_1031158" data-name="Trazado 1031158" d="M10.426,50.29a2.172,2.172,0,1,1-2.2,2.174,2.173,2.173,0,0,1,2.2-2.174" fill="#fa5b5b"/>
          <path id="Trazado_1031159" data-name="Trazado 1031159" d="M30.913,23.819a7.762,7.762,0,0,1-3.573-7.182,7.681,7.681,0,0,1,3.19-5.9c.236-.179.42-.287.736-.077,4.544,3.016,4.372,10.407-.353,13.161" fill="#fcc46b"/>
          <path id="Trazado_1031160" data-name="Trazado 1031160" d="M41.789,21.8A7.921,7.921,0,0,1,32.8,31.307a.731.731,0,0,1-.511-.414,7.944,7.944,0,0,1,9.5-9.093" fill="#fcc46b"/>
          <path id="Trazado_1031161" data-name="Trazado 1031161" d="M20.077,33.054a7.9,7.9,0,0,1,9.431,5.985,17,17,0,0,1,.109,3.052c.008.323-.156.435-.473.484a8,8,0,0,1-9.067-9.521" fill="#fcc46b"/>
          <path id="Trazado_1031162" data-name="Trazado 1031162" d="M20.091,21.807a7.981,7.981,0,0,1,9.249,5.27,8.258,8.258,0,0,1,.3,3.7c-.057.358-.171.5-.545.557a7.949,7.949,0,0,1-9-9.523" fill="#fcc46b"/>
          <path id="Trazado_1031163" data-name="Trazado 1031163" d="M41.79,33.032a7.981,7.981,0,0,1-9,9.55c-.327-.056-.476-.149-.53-.5a8.019,8.019,0,0,1,5.119-8.752,7.919,7.919,0,0,1,4.413-.3" fill="#fcc46b"/>
          <path id="Trazado_1031164" data-name="Trazado 1031164" d="M51.469,11.6a2.172,2.172,0,1,1,2.188-2.184A2.173,2.173,0,0,1,51.469,11.6" fill="#fa5b5b"/>
        </g>
      </g>
    </g>
    <g id="Grupo_1175659" data-name="Grupo 1175659" transform="translate(432.099)">
      <g id="Grupo_1175656" data-name="Grupo 1175656" transform="translate(-540.131 1820.631)">
        <rect id="Rect치ngulo_400898" data-name="Rect치ngulo 400898" width="35.406" height="35.406" rx="17.703" transform="translate(855.883 6115.006)" fill="#efdb59"/>
      </g>
      <path id="Trazado_1031550" data-name="Trazado 1031550" d="M-1.914-8.486H-.361a1.614,1.614,0,0,0,1.846-1.807,1.562,1.562,0,0,0-.439-1.147A1.666,1.666,0,0,0-.2-11.885a1.784,1.784,0,0,0-1.138.381,1.162,1.162,0,0,0-.483.947H-5.107a3.369,3.369,0,0,1,.625-2,4.127,4.127,0,0,1,1.733-1.372,5.926,5.926,0,0,1,2.437-.493,5.823,5.823,0,0,1,3.73,1.084,3.6,3.6,0,0,1,1.357,2.979,3,3,0,0,1-.562,1.733A4,4,0,0,1,2.578-7.3,3.823,3.823,0,0,1,4.355-6.06,3.279,3.279,0,0,1,5-3.994,3.669,3.669,0,0,1,3.535-.947,6.08,6.08,0,0,1-.312.2,6.306,6.306,0,0,1-2.905-.337,4.062,4.062,0,0,1-4.717-1.812a3.834,3.834,0,0,1-.615-2.144h3.311a1.482,1.482,0,0,0,.527,1.133,1.862,1.862,0,0,0,1.3.479,1.95,1.95,0,0,0,1.387-.483,1.616,1.616,0,0,0,.518-1.235,1.889,1.889,0,0,0-.537-1.523A2.245,2.245,0,0,0-.312-6.035h-1.6Z" transform="translate(333.051 7961)" fill="#12263f"/>
    </g>
  </g>
</svg>
