<svg xmlns="http://www.w3.org/2000/svg" xmlns:xlink="http://www.w3.org/1999/xlink" width="84.236" height="84.236" viewBox="0 0 84.236 84.236">
  <defs>
    <filter id="Trazado_982547" x="0" y="0" width="84.236" height="84.236" filterUnits="userSpaceOnUse">
      <feOffset dy="3" input="SourceAlpha"/>
      <feGaussianBlur stdDeviation="3" result="blur"/>
      <feFlood flood-opacity="0.161"/>
      <feComposite operator="in" in2="blur"/>
      <feComposite in="SourceGraphic"/>
    </filter>
    <clipPath id="clip-path">
      <rect id="Rectángulo_415599" data-name="Rectángulo 415599" width="40" height="40" transform="translate(0 0.419)" fill="none"/>
    </clipPath>
  </defs>
  <g id="Grupo_1175531" data-name="Grupo 1175531" transform="translate(-586.25 -914.212)">
    <g id="Grupo_1175060" data-name="Grupo 1175060" transform="translate(595.25 920.212)">
      <g id="Grupo_1174859" data-name="Grupo 1174859" transform="translate(0)">
        <g id="Grupo_1167343" data-name="Grupo 1167343">
          <g id="Grupo_1166777" data-name="Grupo 1166777" transform="translate(0)">
            <g id="Grupo_1164305" data-name="Grupo 1164305">
              <g id="Grupo_1163948" data-name="Grupo 1163948">
                <g id="Grupo_1158168" data-name="Grupo 1158168">
                  <g id="Grupo_1152576" data-name="Grupo 1152576">
                    <g id="Grupo_1148633" data-name="Grupo 1148633">
                      <g id="Grupo_1148525" data-name="Grupo 1148525">
                        <g transform="matrix(1, 0, 0, 1, -9, -6)" filter="url(#Trazado_982547)">
                          <g id="Trazado_982547-2" data-name="Trazado 982547" transform="translate(9 6)" fill="#f4f9ff">
                            <path d="M 33.1181640625 64.73633575439453 C 28.84908485412598 64.73633575439453 24.70849418640137 63.90056228637695 20.81141471862793 62.25223541259766 C 17.04652404785156 60.65982437133789 13.66499423980713 58.37983322143555 10.7607536315918 55.47559356689453 C 7.856503963470459 52.57134246826172 5.57651424407959 49.18981552124023 3.984104156494141 45.42492294311523 C 2.335773944854736 41.5278434753418 1.500004053115845 37.38725280761719 1.500004053115845 33.1181640625 C 1.500004053115845 28.84908485412598 2.335773944854736 24.70849418640137 3.984104156494141 20.81141471862793 C 5.57651424407959 17.04652404785156 7.856513977050781 13.66499423980713 10.7607536315918 10.7607536315918 C 13.66499423980713 7.856513977050781 17.04652404785156 5.57651424407959 20.81141471862793 3.984104156494141 C 24.70849418640137 2.335773944854736 28.84908485412598 1.500004053115845 33.1181640625 1.500004053115845 C 37.38725280761719 1.500004053115845 41.5278434753418 2.335773944854736 45.42492294311523 3.984104156494141 C 49.18981552124023 5.57651424407959 52.57134246826172 7.856503963470459 55.47559356689453 10.7607536315918 C 58.37983322143555 13.66499423980713 60.65982437133789 17.04652404785156 62.25223541259766 20.81141471862793 C 63.90056228637695 24.70849418640137 64.73633575439453 28.84908485412598 64.73633575439453 33.1181640625 C 64.73633575439453 37.38725280761719 63.90056228637695 41.5278434753418 62.25223541259766 45.42492294311523 C 60.65982437133789 49.18981552124023 58.37983322143555 52.57135391235352 55.47559356689453 55.47559356689453 C 52.57135391235352 58.37983322143555 49.18981552124023 60.65982437133789 45.42492294311523 62.25223541259766 C 41.5278434753418 63.90056228637695 37.38725280761719 64.73633575439453 33.1181640625 64.73633575439453 Z" stroke="none"/>
                            <path d="M 33.1181640625 2.999996185302734 C 29.05091857910156 2.999996185302734 25.10691833496094 3.7958984375 21.3957405090332 5.365596771240234 C 17.80964279174805 6.88238525390625 14.58837509155273 9.054443359375 11.82140731811523 11.82140731811523 C 9.054443359375 14.58837509155273 6.88238525390625 17.80964279174805 5.365596771240234 21.3957405090332 C 3.7958984375 25.10691833496094 2.999996185302734 29.05091857910156 2.999996185302734 33.1181640625 C 2.999996185302734 37.18541717529297 3.7958984375 41.12940979003906 5.365596771240234 44.84059906005859 C 6.88238525390625 48.42668533325195 9.054431915283203 51.64796447753906 11.82140731811523 54.41493225097656 C 14.58837509155273 57.1818962097168 17.80964279174805 59.35394287109375 21.39572906494141 60.87073135375977 C 25.10691833496094 62.4404296875 29.05091857910156 63.23633193969727 33.1181640625 63.23633193969727 C 37.18541717529297 63.23633193969727 41.12940979003906 62.4404296875 44.84059906005859 60.87073135375977 C 48.42668533325195 59.35394287109375 51.64796447753906 57.1818962097168 54.41493225097656 54.41493225097656 C 57.1818962097168 51.64796447753906 59.35394287109375 48.42668533325195 60.87073135375977 44.84059906005859 C 62.4404296875 41.12940979003906 63.23633193969727 37.18541717529297 63.23633193969727 33.1181640625 C 63.23633193969727 29.05091857910156 62.4404296875 25.10691833496094 60.87073135375977 21.39572906494141 C 59.35394287109375 17.80964279174805 57.1818962097168 14.58837509155273 54.41493225097656 11.82140731811523 C 51.64796447753906 9.054431915283203 48.42668533325195 6.88238525390625 44.84059906005859 5.365596771240234 C 41.12940979003906 3.7958984375 37.18541717529297 2.999996185302734 33.1181640625 2.999996185302734 M 33.1181640625 0 C 51.40882873535156 0 66.236328125 14.82750701904297 66.236328125 33.1181640625 C 66.236328125 51.40882873535156 51.40882873535156 66.236328125 33.1181640625 66.236328125 C 14.82750701904297 66.236328125 0 51.40882873535156 0 33.1181640625 C 0 14.82750701904297 14.82750701904297 0 33.1181640625 0 Z" stroke="none" fill="#efdb59"/>
                          </g>
                        </g>
                      </g>
                    </g>
                  </g>
                </g>
              </g>
            </g>
          </g>
        </g>
      </g>
    </g>
    <g id="Grupo_1175723" data-name="Grupo 1175723" transform="translate(607.034 931.761)">
      <g id="Grupo_1175722" data-name="Grupo 1175722" transform="translate(0.975 1.15)" clip-path="url(#clip-path)">
        <path id="Trazado_1031339" data-name="Trazado 1031339" d="M0,31.471V18.038a1.443,1.443,0,0,0,.105-.27,7.878,7.878,0,0,1,7.977-6.446c2.519.05,5.039.009,7.559.009h.433c0-.4-.023-.76.006-1.112s.111-.72.172-1.1c-.521,0-1.059,0-1.6,0a.8.8,0,0,1-.876-.764.809.809,0,0,1,.877-.813q4.057-.008,8.113,0a.793.793,0,1,1,0,1.577c-.5.006-.995,0-1.44,0l.175,2.212h8.347a3.107,3.107,0,0,1,.435.009q2.719.39,5.437.79a.807.807,0,0,1,.765.889c.006.527,0,1.053,0,1.58,0,.641-.241.9-.876.991q-1.233.172-2.463.361a26.16,26.16,0,0,1-4.952.431c-1.3-.049-2.612-.012-3.918-.008-.468,0-.871.276-.8.673a4.255,4.255,0,0,0,.544,1.369c.067.117.43.082.658.087a1.952,1.952,0,0,1,2.033,1.967c.02.552.012,1.106,0,1.659A1.936,1.936,0,0,1,25.652,23.9a.865.865,0,0,0-.132.121,8.107,8.107,0,0,1,3.035,4.624c.7-.122,1.34-.274,1.991-.343a8.977,8.977,0,0,1,9.683,6.681c.107.409.2.822.3,1.233v2.133a.849.849,0,0,0-.084.2,9.1,9.1,0,0,1-12.9,6.931c-.17-.079-.3-.147-.494.007a4.263,4.263,0,0,1-2.793.918c-1.267,0-2.533,0-3.8,0-2.52,0-5.04.008-7.56,0a4.189,4.189,0,0,1-4.3-3.886,30.24,30.24,0,0,1-.028-3.119c.006-.436.258-.651.76-.768.608.106.809.338.812.954,0,.843-.009,1.685,0,2.528a2.65,2.65,0,0,0,2.665,2.707q5.816.024,11.633-.007a7.432,7.432,0,0,0,1.416-.294,1.953,1.953,0,0,0-.153-.189,9.066,9.066,0,0,1-2.55-10.779.8.8,0,0,0,.038-.449c-.193-1.034-.4-2.065-.6-3.1-.161-.8.273-1.235,1.09-1.089.972.173,1.946.336,2.92.5.409.068.474,0,.4-.391a4.844,4.844,0,0,0-1.266-2.54c-.708-.745-1.442-1.465-2.177-2.183a.645.645,0,0,0-.41-.163q-4.53-.014-9.061,0a.648.648,0,0,0-.408.17c-.7.679-1.393,1.365-2.072,2.064A4.764,4.764,0,0,0,10.2,29.412c-.062.931-.041,1.867-.054,2.8-.009.619-.207.854-.812.953a.826.826,0,0,1-.771-.963c0-.671,0-1.343,0-2.014a6.85,6.85,0,0,1,2.141-5.166c.373-.363.74-.732,1.128-1.117a2,2,0,0,1-1.055-1.7c-.02-.6-.022-1.211,0-1.816A1.868,1.868,0,0,1,12.5,18.541.975.975,0,0,0,13.55,17.8a2.751,2.751,0,0,1,.146-.279.748.748,0,0,0-.7-1.146c-1.121-.007-2.242-.012-3.363,0a2.953,2.953,0,0,0-2.957,2.892,3.574,3.574,0,0,1-.807,2.327,1.285,1.285,0,0,0-.082,1.633,2.446,2.446,0,0,1,.055,2.626A1.48,1.48,0,0,0,6,27.79a2.685,2.685,0,0,1,.686,1.765c0,.513.016,1.028-.018,1.539A3.329,3.329,0,0,1,3.752,34.15a3.369,3.369,0,0,1-3.593-2.3C.117,31.722.053,31.6,0,31.471M29.416,12.911h-.391q-10.605,0-21.211,0a6,6,0,0,0-1.178.111,6.17,6.17,0,0,0-5.051,6.189q0,4.8,0,9.6c0,.7-.014,1.4.006,2.093a1.759,1.759,0,0,0,1.44,1.658,1.657,1.657,0,0,0,1.927-1.088,3.132,3.132,0,0,0-.328-2.9,2.731,2.731,0,0,1-.22-3.371,1.089,1.089,0,0,0,.012-1.2,2.757,2.757,0,0,1,.215-3.406,2.109,2.109,0,0,0,.452-1.346A4.589,4.589,0,0,1,9.573,14.8c1.174-.014,2.348-.018,3.522,0a2.334,2.334,0,0,1,2.083,3.3c-.055.123-.109.248-.173.394h7.244a1.968,1.968,0,0,0-.09-.238,2.377,2.377,0,0,1,2.273-3.473c1.514.072,3.033.015,4.55.015h.434ZM24.345,30.624c.159.826.287,1.589.46,2.342a1.624,1.624,0,0,1-.141,1.138,7.156,7.156,0,0,0-.651,4.188,7.438,7.438,0,0,0,8.552,6.372,7.085,7.085,0,0,0,6.093-5.411,7.1,7.1,0,0,0-2.5-7.787,7.463,7.463,0,0,0-8.479-.643,1.406,1.406,0,0,1-1.049.189c-.732-.152-1.475-.254-2.281-.387M18.766,20.087q-2.907,0-5.815,0c-.5,0-.593.1-.595.6,0,.447,0,.9,0,1.342,0,.341.146.509.5.509q5.894,0,11.788,0c.357,0,.5-.171.5-.509,0-.447,0-.895,0-1.342,0-.519-.083-.6-.593-.6q-2.888,0-5.775,0m1.1-8.77c0-.378.016-.766,0-1.153a1.1,1.1,0,0,0-2.192-.068c-.038.4-.007.805-.007,1.221ZM34.9,13.61l-3.861-.562v1.614l3.861-.568Z" transform="translate(0.028 -6.884)" fill="#020202"/>
        <path id="Trazado_1031342" data-name="Trazado 1031342" d="M88.452,179.142q0-.963.008-1.926c.541-.1.8-.354.8-.8s-.25-.7-.8-.8q0-.965-.008-1.93c.605-.1.8-.334.812-.953.013-.934-.008-1.87.054-2.8a4.765,4.765,0,0,1,1.414-3.051c.679-.7,1.373-1.385,2.072-2.064a.649.649,0,0,1,.408-.17q4.53-.014,9.061,0a.644.644,0,0,1,.41.163c.735.718,1.469,1.438,2.177,2.183a4.844,4.844,0,0,1,1.267,2.54c.069.391,0,.459-.4.391-.974-.162-1.948-.326-2.92-.5-.817-.145-1.251.286-1.09,1.089.207,1.031.411,2.062.6,3.1a.8.8,0,0,1-.038.449,9.066,9.066,0,0,0,2.55,10.779,1.945,1.945,0,0,1,.153.189,7.435,7.435,0,0,1-1.417.294q-5.816.034-11.633.007a2.65,2.65,0,0,1-2.665-2.707c-.013-.842,0-1.685,0-2.528,0-.616-.2-.848-.812-.954" transform="translate(-79.088 -147.406)" fill="#88de8e"/>
        <path id="Trazado_1031343" data-name="Trazado 1031343" d="M42.795,58.455v1.88h-.434c-1.517,0-3.037.057-4.55-.014a2.378,2.378,0,0,0-2.273,3.473,1.967,1.967,0,0,1,.09.238H28.384c.064-.146.117-.27.173-.394a2.334,2.334,0,0,0-2.083-3.3c-1.174-.019-2.348-.016-3.522,0A4.589,4.589,0,0,0,18.466,64.8a2.109,2.109,0,0,1-.452,1.346,2.757,2.757,0,0,0-.215,3.406,1.089,1.089,0,0,1-.012,1.2,2.731,2.731,0,0,0,.22,3.371,3.132,3.132,0,0,1,.328,2.9,1.656,1.656,0,0,1-1.927,1.088,1.759,1.759,0,0,1-1.44-1.658c-.02-.7-.006-1.4-.006-2.093q0-4.8,0-9.6a6.17,6.17,0,0,1,5.051-6.189,6,6,0,0,1,1.178-.111q10.605-.01,21.211,0Z" transform="translate(-13.351 -52.427)" fill="#848ead"/>
        <path id="Trazado_1031344" data-name="Trazado 1031344" d="M227.194,219.282c.807.134,1.549.236,2.281.388a1.406,1.406,0,0,0,1.049-.189,7.463,7.463,0,0,1,8.479.643,7.474,7.474,0,0,1-3.59,13.2,7.438,7.438,0,0,1-8.552-6.372,7.157,7.157,0,0,1,.651-4.188,1.624,1.624,0,0,0,.141-1.138c-.173-.753-.3-1.516-.46-2.342m9.656,4.317c-.177-1.948-.962-2.9-2.433-2.974a2.428,2.428,0,0,0-1.654.539,2.657,2.657,0,0,0-.957,2.436c-.73,0-1.413-.005-2.1,0a.767.767,0,0,0-.833.758.785.785,0,0,0,.823.817c.26.011.521,0,.792,0a6.07,6.07,0,0,1-.048,1.907c-.153.431-.742.707-1.138,1.052-.03.026-.061.051-.09.077a.794.794,0,1,0,1.022,1.205c.276-.223.544-.455.817-.683a4.006,4.006,0,0,0,6.511.075c.281.234.559.473.845.7a.791.791,0,1,0,1.021-1.2c-.365-.322-.749-.624-1.113-.948a.52.52,0,0,1-.187-.314c-.018-.614-.009-1.228-.009-1.872.241,0,.45,0,.659,0a.8.8,0,0,0,.884-.8c0-.477-.341-.774-.9-.778-.632,0-1.263,0-1.919,0" transform="translate(-202.821 -195.542)" fill="#fcfcfc"/>
        <path id="Trazado_1031345" data-name="Trazado 1031345" d="M123.451,126.429q2.888,0,5.775,0c.509,0,.59.083.593.6,0,.447,0,.9,0,1.342,0,.338-.139.51-.5.509q-5.894-.006-11.788,0c-.351,0-.5-.168-.5-.509.006-.447,0-.895,0-1.342,0-.5.1-.6.595-.6q2.907,0,5.815,0" transform="translate(-104.657 -113.226)" fill="#e5e7ed"/>
        <path id="Trazado_1031346" data-name="Trazado 1031346" d="M169.474,24.752h-2.2c0-.416-.031-.822.007-1.221a1.1,1.1,0,0,1,2.192.068c.02.387,0,.775,0,1.153" transform="translate(-149.577 -20.319)" fill="#e5e7ed"/>
        <path id="Trazado_1031347" data-name="Trazado 1031347" d="M297.912,60.309v.483l-3.861.568V59.747l3.861.562" transform="translate(-262.984 -53.583)" fill="#e5e7ed"/>
        <path id="Trazado_1031348" data-name="Trazado 1031348" d="M81.986,268.627c.548.1.8.354.8.8s-.257.7-.8.8q-.775-.2-.772-.8c0-.408.265-.679.772-.8" transform="translate(-72.614 -240.414)" fill="#020202"/>
        <path id="Trazado_1031349" data-name="Trazado 1031349" d="M254.5,241.931c.655,0,1.287,0,1.919,0,.555,0,.894.3.9.778a.8.8,0,0,1-.884.8c-.209.005-.418,0-.659,0,0,.643-.009,1.258.009,1.872a.52.52,0,0,0,.187.314c.364.324.747.626,1.113.948a.791.791,0,1,1-1.021,1.2c-.286-.228-.564-.467-.845-.7a4.006,4.006,0,0,1-6.511-.075c-.272.229-.541.46-.817.683a.794.794,0,1,1-1.022-1.205c.029-.026.06-.051.09-.077.4-.345.985-.621,1.138-1.052a6.07,6.07,0,0,0,.048-1.907c-.27,0-.531.009-.792,0a.785.785,0,0,1-.823-.817.767.767,0,0,1,.832-.758c.684-.007,1.368,0,2.1,0a2.657,2.657,0,0,1,.957-2.436,2.427,2.427,0,0,1,1.654-.538c1.471.072,2.257,1.026,2.433,2.974m-1.739,5.124a1.906,1.906,0,0,0,1.334-1.295,15.344,15.344,0,0,0,.128-2.219h-1.462Zm-1.61-3.545c-.4,0-.751.011-1.1,0-.246-.011-.322.094-.318.324.01.485-.009.971.006,1.456a1.874,1.874,0,0,0,1.415,1.687Zm-.081-1.611h1.8c.061-.512.027-.96-.449-1.237a.858.858,0,0,0-.969.037,1.1,1.1,0,0,0-.379,1.2" transform="translate(-220.476 -213.873)" fill="#020202"/>
        <path id="Trazado_1031350" data-name="Trazado 1031350" d="M305.634,285.934V282.42H307.1a15.377,15.377,0,0,1-.128,2.219,1.906,1.906,0,0,1-1.334,1.295" transform="translate(-273.345 -252.751)" fill="#bc837f"/>
        <path id="Trazado_1031351" data-name="Trazado 1031351" d="M278.334,282.086v3.463a1.874,1.874,0,0,1-1.415-1.687c-.016-.485,0-.97-.006-1.456,0-.231.072-.335.318-.324.352.015.706,0,1.1,0" transform="translate(-247.655 -252.448)" fill="#bc837f"/>
        <path id="Trazado_1031352" data-name="Trazado 1031352" d="M289.352,255.262a1.1,1.1,0,0,1,.379-1.2.858.858,0,0,1,.969-.037c.477.276.51.725.449,1.237Z" transform="translate(-258.754 -227.236)" fill="#848ead"/>
      </g>
    </g>
  </g>
</svg>
