<svg xmlns="http://www.w3.org/2000/svg" xmlns:xlink="http://www.w3.org/1999/xlink" width="108" height="108" viewBox="0 0 108 108">
  <defs>
    <filter id="Trazado_896985" x="0" y="0" width="108" height="108" filterUnits="userSpaceOnUse">
      <feOffset dy="3" input="SourceAlpha"/>
      <feGaussianBlur stdDeviation="3" result="blur"/>
      <feFlood flood-opacity="0.161"/>
      <feComposite operator="in" in2="blur"/>
      <feComposite in="SourceGraphic"/>
    </filter>
    <clipPath id="clip-path">
      <rect id="Rectángulo_415585" data-name="Rectángulo 415585" width="57" height="57" transform="translate(-0.44 0)" fill="none"/>
    </clipPath>
    <clipPath id="clip-path-2">
      <rect id="Rectángulo_415586" data-name="Rectángulo 415586" width="13.174" height="13.174" fill="none"/>
    </clipPath>
  </defs>
  <g id="Grupo_1175216" data-name="Grupo 1175216" transform="translate(-747.781 -3827)">
    <g id="Grupo_1098742" data-name="Grupo 1098742" transform="translate(-446.539 3444.258)">
      <g transform="matrix(1, 0, 0, 1, 1194.32, 382.74)" filter="url(#Trazado_896985)">
        <g id="Trazado_896985-2" data-name="Trazado 896985" transform="translate(9 6)" fill="#efdb59" opacity="0.859">
          <path d="M 44.99993896484375 88.5 C 39.12682723999023 88.5 33.4301872253418 87.35007476806641 28.06826400756836 85.08217620849609 C 22.88850212097168 82.89132690429688 18.23627662658691 79.75461578369141 14.2408390045166 75.75916290283203 C 10.24540138244629 71.76372528076172 7.108676433563232 67.11151123046875 4.917826652526855 61.9317512512207 C 2.649926424026489 56.56982421875 1.500001430511475 50.87317657470703 1.500001430511475 45.00006103515625 C 1.500001430511475 39.12682342529297 2.649926424026489 33.4301872253418 4.917826652526855 28.06826210021973 C 7.108676433563232 22.88850021362305 10.24540138244629 18.23628807067871 14.2408390045166 14.24083709716797 C 18.23628807067871 10.24540042877197 22.88850212097168 7.108675003051758 28.06826400756836 4.917825222015381 C 33.4301872253418 2.649924993515015 39.12682723999023 1.5 44.99993896484375 1.5 C 50.87305068969727 1.5 56.5697021484375 2.649924993515015 61.93162536621094 4.917825222015381 C 67.11138916015625 7.108675003051758 71.76360321044922 10.24540042877197 75.75904083251953 14.24083709716797 C 79.75448608398438 18.23627471923828 82.89120483398438 22.88850021362305 85.08205413818359 28.06826210021973 C 87.34995269775391 33.4301872253418 88.4998779296875 39.12682342529297 88.4998779296875 44.99993896484375 C 88.4998779296875 50.87317657470703 87.34995269775391 56.56982421875 85.08205413818359 61.9317512512207 C 82.89120483398438 67.11151123046875 79.75448608398438 71.76372528076172 75.75904083251953 75.75916290283203 C 71.76360321044922 79.75461578369141 67.11138916015625 82.89132690429688 61.93162536621094 85.08217620849609 C 56.5697021484375 87.35007476806641 50.87305068969727 88.5 44.99993896484375 88.5 Z" stroke="none"/>
          <path d="M 44.99993896484375 3 C 39.32865142822266 3 33.82860946655273 4.110054016113281 28.65258026123047 6.299331665039062 C 23.65162658691406 8.414558410644531 19.15966796875 11.44332885742188 15.30149841308594 15.30149841308594 C 11.44332122802734 19.15966796875 8.41455078125 23.65162658691406 6.299324035644531 28.65258407592773 C 4.110054016113281 33.82861328125 2.999992370605469 39.32865524291992 2.999992370605469 45.00005722045898 C 2.999992370605469 50.67134475708008 4.110054016113281 56.17138671875 6.299324035644531 61.347412109375 C 8.41455078125 66.34837341308594 11.44332122802734 70.84033203125 15.30149841308594 74.69850158691406 C 19.15966796875 78.55667114257812 23.65162658691406 81.58544158935547 28.65258026123047 83.70066833496094 C 33.82860946655273 85.88994598388672 39.32865142822266 87 44.99993896484375 87 C 50.67122650146484 87 56.17126846313477 85.88994598388672 61.34729766845703 83.70066833496094 C 66.34825134277344 81.58544158935547 70.8402099609375 78.55667114257812 74.69837951660156 74.69850158691406 C 78.55654907226562 70.84033203125 81.5853271484375 66.34837341308594 83.70055389404297 61.347412109375 C 85.88982391357422 56.17138671875 86.9998779296875 50.67134475708008 86.9998779296875 44.99994277954102 C 86.9998779296875 39.32865524291992 85.88982391357422 33.82861328125 83.70055389404297 28.65258407592773 C 81.5853271484375 23.65162658691406 78.55654907226562 19.15966796875 74.69837951660156 15.30149841308594 C 70.8402099609375 11.44332885742188 66.34825134277344 8.414558410644531 61.34729766845703 6.299331665039062 C 56.17126846313477 4.110054016113281 50.67122650146484 3 44.99993896484375 3 M 44.99993896484375 0 C 69.85272216796875 0 89.99988555908203 20.14715576171875 89.99988555908203 44.99994277954102 L 89.99988555908203 45.00005722045898 C 89.99988555908203 69.85284423828125 69.85272216796875 90 44.99993896484375 90 C 20.14715576171875 90 -7.62939453125e-06 69.85284423828125 -7.62939453125e-06 45.00005722045898 L -7.62939453125e-06 44.99994277954102 C -7.62939453125e-06 20.14715576171875 20.14715576171875 0 44.99993896484375 0 Z" stroke="none" fill="#fff"/>
        </g>
      </g>
      <g id="Rectángulo_400907" data-name="Rectángulo 400907" transform="translate(1203.32 388.742)" fill="none" stroke="#fff" stroke-width="3">
        <rect width="90" height="90" rx="45" stroke="none"/>
        <rect x="1.5" y="1.5" width="87" height="87" rx="43.5" fill="none"/>
      </g>
    </g>
    <g id="Grupo_1175692" data-name="Grupo 1175692" transform="translate(773.272 3849.33)">
      <g id="Grupo_1175687" data-name="Grupo 1175687" transform="translate(0 -0.256)">
        <g id="Grupo_1175686" data-name="Grupo 1175686" clip-path="url(#clip-path)">
          <path id="Trazado_1031183" data-name="Trazado 1031183" d="M187.747,102.2a2.637,2.637,0,0,0-2.638-2.638H171.263a2.638,2.638,0,0,0,0,5.275H185.11a2.637,2.637,0,0,0,2.638-2.638" transform="translate(-150.094 -88.372)" fill="#ffb954"/>
          <path id="Trazado_1031184" data-name="Trazado 1031184" d="M216.405,10h-.059a3.01,3.01,0,0,0-2.128.882,3.882,3.882,0,0,1-4.089.9v8.064h9.286V13.01a3.01,3.01,0,0,0-3.01-3.01" transform="translate(-187.036 -8.655)" fill="#ffc66c"/>
          <path id="Trazado_1031185" data-name="Trazado 1031185" d="M119.178,271.333l-10.784-2.24a2.9,2.9,0,0,1-2.31-2.84v-2.589h-2.42v2.588a2.9,2.9,0,0,1-2.312,2.84l-10.837,2.243a6.084,6.084,0,0,0-4.85,5.957v12.564h38.359V277.289a6.083,6.083,0,0,0-4.846-5.956" transform="translate(-76.25 -234.442)" fill="#ffc66c"/>
          <path id="Trazado_1031186" data-name="Trazado 1031186" d="M116.137,327.633V334.6a2.969,2.969,0,0,1-2.969,2.969H90.651a2.969,2.969,0,0,1-2.969-2.969v-6.965l-2.015.417V346.8h32.484V328.05Z" transform="translate(-76.253 -291.381)" fill="#4dbaf6"/>
          <path id="Trazado_1031187" data-name="Trazado 1031187" d="M215.1,162.987a8.572,8.572,0,0,0,4.972-7.78v-7.649h-9.945v7.649a8.572,8.572,0,0,0,4.973,7.78" transform="translate(-187.036 -131.097)" fill="#ffdfdf"/>
          <path id="Trazado_1031188" data-name="Trazado 1031188" d="M229.15,313.066h-9.121a1.95,1.95,0,0,0-1.95,1.95v18.813H227.2V315.016a1.95,1.95,0,0,1,1.95-1.95" transform="translate(-194.112 -278.415)" fill="#fff"/>
          <path id="Trazado_1031189" data-name="Trazado 1031189" d="M321.209,313.066h-18.18a1.95,1.95,0,0,0-1.95,1.95v18.813h22.081V315.016a1.95,1.95,0,0,0-1.95-1.95" transform="translate(-267.99 -278.415)" fill="#c9f3ff"/>
          <path id="Trazado_1031190" data-name="Trazado 1031190" d="M53.218,33.306H32.277a1.807,1.807,0,0,1-1.344-1.741V31.05a9.65,9.65,0,0,0,3.2-7.185v-6.55h.879a3.737,3.737,0,0,0,0-7.473H33.477V4.109A4.113,4.113,0,0,0,29.369,0H29.31A4.083,4.083,0,0,0,26.4,1.2a2.786,2.786,0,0,1-3.936,0,4.109,4.109,0,0,0-7.014,2.905V9.842H13.916a3.737,3.737,0,0,0,0,7.473h.879v6.55A9.65,9.65,0,0,0,18,31.05v.514a1.809,1.809,0,0,1-1.436,1.764l-5.351,1.108-.01,0-4.385.908-.013,0-1.079.224A7.21,7.21,0,0,0,0,42.6V55.168a1.1,1.1,0,0,0,1.1,1.1H55.168a1.1,1.1,0,0,0,1.1-1.1V36.355a3.052,3.052,0,0,0-3.049-3.049m-24.08,0H26.565a9.6,9.6,0,0,0,2.279-.819,3.98,3.98,0,0,0,.294.819M17.652,4.109a1.911,1.911,0,0,1,3.262-1.351,4.986,4.986,0,0,0,7.044,0A1.9,1.9,0,0,1,29.31,2.2h.059A1.913,1.913,0,0,1,31.28,4.109V9.842H17.653V4.109Zm-5.275,9.47a1.54,1.54,0,0,1,1.539-1.539h21.1a1.539,1.539,0,0,1,0,3.077h-21.1a1.54,1.54,0,0,1-1.539-1.539m4.616,10.286v-6.55H31.939v6.55a7.473,7.473,0,1,1-14.946,0m.016,11.615a4.018,4.018,0,0,0,3.078-2.993,9.609,9.609,0,0,0,4.378,1.05c.1,0,.2,0,.3-.005a3.053,3.053,0,0,0-1.9,2.824v8.486H14.4a1.872,1.872,0,0,1-1.87-1.869V36.408ZM2.2,42.6A5,5,0,0,1,5.934,37.78v8.542a1.1,1.1,0,0,0,2.2,0v-9l2.2-.455v6.109A4.072,4.072,0,0,0,14.4,47.039h8.469v7.03H2.2ZM54.069,54.069h-29V36.355a.852.852,0,0,1,.851-.851h27.3a.852.852,0,0,1,.851.851Z" transform="translate(0 0.246)"/>
          <path id="Trazado_1031191" data-name="Trazado 1031191" d="M55.1,450.5a1.1,1.1,0,1,0,.777.322,1.107,1.107,0,0,0-.777-.322" transform="translate(-48.066 -400.746)"/>
          <path id="Trazado_1031192" data-name="Trazado 1031192" d="M244.228,202.2a1.1,1.1,0,1,0-.778-.322,1.107,1.107,0,0,0,.778.322" transform="translate(-216.41 -177.775)"/>
          <path id="Trazado_1031193" data-name="Trazado 1031193" d="M183.228,202.2a1.1,1.1,0,1,0-.777-.322,1.106,1.106,0,0,0,.777.322" transform="translate(-162.114 -177.775)"/>
          <path id="Trazado_1031194" data-name="Trazado 1031194" d="M370.039,443.7" transform="translate(-329.373 -394.695)"/>
          <path id="Trazado_1031195" data-name="Trazado 1031195" d="M368.247,216.83a1.1,1.1,0,0,0,.777-1.876,5.307,5.307,0,0,0-7.5,0,1.1,1.1,0,1,0,1.554,1.554,3.108,3.108,0,0,1,4.391,0,1.1,1.1,0,0,0,.777.322" transform="translate(-321.508 -189.705)"/>
          <path id="Trazado_1031196" data-name="Trazado 1031196" d="M334.477,179.471a1.1,1.1,0,0,0,1.554,0,7.316,7.316,0,0,1,10.335,0,1.1,1.1,0,1,0,1.554-1.554,9.506,9.506,0,0,0-13.444,0,1.1,1.1,0,0,0,0,1.554" transform="translate(-297.433 -155.641)"/>
          <path id="Trazado_1031197" data-name="Trazado 1031197" d="M388.572,252.131a1.1,1.1,0,1,0,.777-.322,1.108,1.108,0,0,0-.777.322" transform="translate(-345.582 -223.89)"/>
          <path id="Trazado_1031198" data-name="Trazado 1031198" d="M411.325,420.541v.3a2.43,2.43,0,0,1-.712,1.719v1.75l.356.369h-1.335V420.7Z" transform="translate(-364.616 -374.079)" fill="#898998"/>
          <path id="Trazado_1031199" data-name="Trazado 1031199" d="M368.4,420.541v.3a2.43,2.43,0,0,1-.712,1.719v1.75l.356.369H366.71v-3.81Z" transform="translate(-326.41 -374.079)" fill="#898998"/>
          <path id="Trazado_1031200" data-name="Trazado 1031200" d="M352,385.579h3.944a2.027,2.027,0,0,1,2.027,2.028v1.318a1.594,1.594,0,0,1-1.594,1.594h-.108a2.428,2.428,0,0,1-.576.918v1.75l.356.369h-1.335v-3.036H354.5a1.148,1.148,0,0,1-.941.49h-2.043a2.422,2.422,0,0,1-.34.427v1.75l.356.369H350.2v-3.036h-.031c-1.139,0-.956-.923-.957-2.061v-.089A2.786,2.786,0,0,1,352,385.579" transform="translate(-310.825 -342.959)" fill="#d8d8e4"/>
          <path id="Trazado_1031201" data-name="Trazado 1031201" d="M373.478,424.538a1.149,1.149,0,0,1-1.149,1.149h-2.043l.452-1.149Z" transform="translate(-329.593 -377.637)" fill="#edf2fa"/>
          <path id="Trazado_1031202" data-name="Trazado 1031202" d="M346.692,382.781h.715A2.459,2.459,0,0,0,349.8,380.9h-.47a2.787,2.787,0,0,0-2.634,1.877" transform="translate(-308.591 -338.798)" fill="#898998"/>
          <path id="Trazado_1031203" data-name="Trazado 1031203" d="M372.64,396.906a.509.509,0,0,1,.509-.509h.021a.444.444,0,0,0,.444-.444.444.444,0,0,1,.369-.437.931.931,0,0,0-.113-.007h-1.136a.444.444,0,0,0-.444.444.445.445,0,0,1-.445.444h-.021a.509.509,0,0,0,0,1.019h1.325a.509.509,0,0,1-.509-.509" transform="translate(-330.508 -351.797)" fill="#fff"/>
          <path id="Trazado_1031204" data-name="Trazado 1031204" d="M385.551,396.519a.953.953,0,0,0-.841-.947.444.444,0,0,0-.369.437.444.444,0,0,1-.444.444h-.021a.509.509,0,1,0,0,1.019h.721a.954.954,0,0,0,.954-.954" transform="translate(-341.236 -351.854)" fill="#898998"/>
          <path id="Trazado_1031205" data-name="Trazado 1031205" d="M410.424,365.213a1.25,1.25,0,0,1-.563-1.044V364.1l1.317.584Z" transform="translate(-364.818 -323.845)" fill="#898998"/>
          <path id="Trazado_1031206" data-name="Trazado 1031206" d="M407.907,373.877V372.75h-.042l-.005-.017a1.044,1.044,0,0,1-.566-.228c-.038.027-.074.056-.109.086l-.061.1a.717.717,0,0,0-.551-.051.635.635,0,0,1-.387.011h0a.724.724,0,0,0,.68.845l0,.014h.033v.883a1.982,1.982,0,0,0,1.034,1.741.926.926,0,0,0,.886,0,1.941,1.941,0,0,0,.224-.142,2.529,2.529,0,0,1-1.136-2.11" transform="translate(-361.542 -331.322)" fill="#fff"/>
          <path id="Trazado_1031207" data-name="Trazado 1031207" d="M418.874,371.633v-.885a.725.725,0,0,0,.683-.845h0a.635.635,0,0,1-.387-.011.709.709,0,0,0-.531.041l-.122-.1a1.778,1.778,0,0,0-2.2-.086,1.045,1.045,0,0,0,.566.227l.005.017h.042v1.127a2.529,2.529,0,0,0,1.136,2.111,1.982,1.982,0,0,0,.811-1.6" transform="translate(-370.562 -328.566)" fill="#d8d8e4"/>
          <path id="Trazado_1031208" data-name="Trazado 1031208" d="M418.136,398.1a.985.985,0,0,1,1.764,0,1.986,1.986,0,0,1-.439.325.927.927,0,0,1-.886,0,1.983,1.983,0,0,1-.439-.325" transform="translate(-372.184 -353.616)" fill="#898998"/>
          <path id="Trazado_1031209" data-name="Trazado 1031209" d="M430.57,365.213a1.251,1.251,0,0,0,.563-1.044V364.1l-1.317.584Z" transform="translate(-382.58 -323.845)" fill="#898998"/>
        </g>
      </g>
      <g id="Grupo_1175689" data-name="Grupo 1175689" transform="translate(36.081 37.423)">
        <g id="Grupo_1175688" data-name="Grupo 1175688" clip-path="url(#clip-path-2)">
          <path id="Trazado_1031210" data-name="Trazado 1031210" d="M394.335,372.906a.257.257,0,1,1,.182.075.259.259,0,0,1-.182-.075" transform="translate(-387.013 -368.968)"/>
          <path id="Trazado_1031211" data-name="Trazado 1031211" d="M328.313,365.782v1.58a.257.257,0,1,0,.514,0v-1.58a2.333,2.333,0,0,1,1.623-2.219,3.115,3.115,0,0,0-.306.268,3.024,3.024,0,0,0-.89,2.154v1.154a2.444,2.444,0,0,0,2.094,2.413v2.8a.257.257,0,0,0,.257.257h2.255a.257.257,0,0,0,.185-.436l-.284-.294v-1.553l.219-.263h.987a1.4,1.4,0,0,0,.892-.32v2.608a.257.257,0,0,0,.257.257h2.433a.257.257,0,0,0,.185-.436l-.284-.294v-1.495a1.848,1.848,0,0,0,.64-1.341,1.819,1.819,0,0,0,.54-1.294v-.96a2.238,2.238,0,0,0,1.169-1.967v-.675a.977.977,0,0,0,.43-.263,1.044,1.044,0,0,0,.253-.808.256.256,0,0,0-.112-.2.248.248,0,0,0-.223-.029.382.382,0,0,1-.228-.008c-.024-.008-.048-.015-.072-.021a1.506,1.506,0,0,0,.193-.739v-.063a.257.257,0,0,0-.362-.235l-1.317.584-.008,0a2,2,0,0,0-.652,0l-.008,0-1.317-.584a.257.257,0,0,0-.362.235v.063a1.506,1.506,0,0,0,.193.738l-.032.01a.38.38,0,0,1-.228.008.248.248,0,0,0-.223.028.256.256,0,0,0-.112.2,1.044,1.044,0,0,0,.253.808.987.987,0,0,0,.463.272v.677a2.238,2.238,0,0,0,1.169,1.967,1.182,1.182,0,0,0,.566.145l.051,0v.817a1.311,1.311,0,0,1-1.1,1.293,2.717,2.717,0,0,0,.052-.527v-.3a.257.257,0,0,0-.515,0v.3a2.159,2.159,0,0,1-.637,1.537.257.257,0,0,0-.075.182v1.75a.256.256,0,0,0,.026.111h-.49v-3.714a.257.257,0,0,0-.515,0v.276a.893.893,0,0,1-.892.892h-1.62a2.685,2.685,0,0,0,.205-1.034v-.3a.257.257,0,0,0-.515,0v.3a2.158,2.158,0,0,1-.326,1.146l-.005.008a2.192,2.192,0,0,1-.3.382.257.257,0,0,0-.075.182v1.75a.258.258,0,0,0,.025.111h-.49v-2.585a.257.257,0,0,0-.169-.451,1.928,1.928,0,0,1-1.926-1.924V366h1.28a2.718,2.718,0,0,0,2.71-2.547h.876a.257.257,0,0,0,0-.515h-3.478a2.846,2.846,0,0,0-2.843,2.843m10.434.56a1.741,1.741,0,0,1-.223-.145l.028-.031a.728.728,0,0,1,1.029,0l.029.031a1.751,1.751,0,0,1-.223.145.667.667,0,0,1-.64,0M338,362.624a2.044,2.044,0,0,0-.2.137.986.986,0,0,1-.2-.315Zm2.457-.178a.987.987,0,0,1-.2.315,2.063,2.063,0,0,0-.2-.137Zm-.173,1.486v.895a1.724,1.724,0,0,1-.319,1l-.023-.024a1.244,1.244,0,0,0-1.757,0l-.023.024a1.723,1.723,0,0,1-.319-1v-.895a.257.257,0,0,0-.255-.257.551.551,0,0,1-.348-.151.407.407,0,0,1-.089-.162.9.9,0,0,0,.192-.044.642.642,0,0,1,.568.185l0,0a.257.257,0,0,0,.416-.295.334.334,0,0,0-.058-.074l.009.009-.011-.01c-.015-.015-.031-.03-.049-.045a1.52,1.52,0,0,1,1.64.02l-.039.036-.011.011.009-.009-.009.01h0a.3.3,0,0,0-.048.065.257.257,0,0,0,.416.295l0,0a.642.642,0,0,1,.568-.184.916.916,0,0,0,.192.044.409.409,0,0,1-.089.162.506.506,0,0,1-.279.142l-.034,0a.257.257,0,0,0-.257.257m-2.349,6.336v1.72a.257.257,0,0,0,.025.112h-.4l-.208-.215v-1.542a2.676,2.676,0,0,0,.5-.765,1.811,1.811,0,0,0,.649-.135,1.335,1.335,0,0,1-.409.58l-.058.048a.257.257,0,0,0-.094.2m-4.689-.03v1.75a.257.257,0,0,0,.025.112h-.223l-.208-.215v-1.542a2.724,2.724,0,0,0,.221-.274h.248l0,.005a.257.257,0,0,0-.06.165m-2.74-6.043a2.512,2.512,0,0,1,1.789-.742h.944a2.2,2.2,0,0,1-2.193,2.033h-1.231a2.51,2.51,0,0,1,.691-1.291" transform="translate(-328.313 -359.439)"/>
        </g>
      </g>
      <g id="Grupo_1175691" data-name="Grupo 1175691" transform="translate(0 -0.256)">
        <g id="Grupo_1175690" data-name="Grupo 1175690" clip-path="url(#clip-path)">
          <path id="Trazado_1031212" data-name="Trazado 1031212" d="M416.9,387h-.005a.257.257,0,0,1,0-.515h.005a.257.257,0,0,1,0,.515" transform="translate(-370.848 -343.765)"/>
          <path id="Trazado_1031213" data-name="Trazado 1031213" d="M430.5,387h-.005a.257.257,0,1,1,0-.515h.005a.257.257,0,0,1,0,.515" transform="translate(-382.952 -343.765)"/>
          <path id="Trazado_1031214" data-name="Trazado 1031214" d="M328.57,419.995a.257.257,0,1,1-.182.075.259.259,0,0,1,.182-.075" transform="translate(-292.232 -373.593)"/>
          <path id="Trazado_1031215" data-name="Trazado 1031215" d="M371.785,393.167h-1.136a.7.7,0,0,0-.7.7.187.187,0,0,1-.187.187h-.021a.767.767,0,1,0,0,1.533h2.046a1.211,1.211,0,1,0,0-2.422m.7,1.211a.7.7,0,0,1-.7.7H369.74a.252.252,0,1,1,0-.5h.021a.7.7,0,0,0,.7-.7.187.187,0,0,1,.187-.187h1.136a.7.7,0,0,1,.7.7" transform="translate(-328.424 -349.713)"/>
        </g>
      </g>
    </g>
  </g>
</svg>
