<svg xmlns="http://www.w3.org/2000/svg" xmlns:xlink="http://www.w3.org/1999/xlink" width="108" height="108" viewBox="0 0 108 108">
  <defs>
    <filter id="Trazado_896985" x="0" y="0" width="108" height="108" filterUnits="userSpaceOnUse">
      <feOffset dy="3" input="SourceAlpha"/>
      <feGaussianBlur stdDeviation="3" result="blur"/>
      <feFlood flood-opacity="0.161"/>
      <feComposite operator="in" in2="blur"/>
      <feComposite in="SourceGraphic"/>
    </filter>
  </defs>
  <g id="Grupo_1175217" data-name="Grupo 1175217" transform="translate(-747.781 -3827)">
    <g id="Grupo_1098742" data-name="Grupo 1098742" transform="translate(-446.539 3444.258)">
      <g transform="matrix(1, 0, 0, 1, 1194.32, 382.74)" filter="url(#Trazado_896985)">
        <g id="Trazado_896985-2" data-name="Trazado 896985" transform="translate(9 6)" fill="#efdb59" opacity="0.859">
          <path d="M 44.99993896484375 88.5 C 39.12682723999023 88.5 33.4301872253418 87.35007476806641 28.06826400756836 85.08217620849609 C 22.88850212097168 82.89132690429688 18.23627662658691 79.75461578369141 14.2408390045166 75.75916290283203 C 10.24540138244629 71.76372528076172 7.108676433563232 67.11151123046875 4.917826652526855 61.9317512512207 C 2.649926424026489 56.56982421875 1.500001430511475 50.87317657470703 1.500001430511475 45.00006103515625 C 1.500001430511475 39.12682342529297 2.649926424026489 33.4301872253418 4.917826652526855 28.06826210021973 C 7.108676433563232 22.88850021362305 10.24540138244629 18.23628807067871 14.2408390045166 14.24083709716797 C 18.23628807067871 10.24540042877197 22.88850212097168 7.108675003051758 28.06826400756836 4.917825222015381 C 33.4301872253418 2.649924993515015 39.12682723999023 1.5 44.99993896484375 1.5 C 50.87305068969727 1.5 56.5697021484375 2.649924993515015 61.93162536621094 4.917825222015381 C 67.11138916015625 7.108675003051758 71.76360321044922 10.24540042877197 75.75904083251953 14.24083709716797 C 79.75448608398438 18.23627471923828 82.89120483398438 22.88850021362305 85.08205413818359 28.06826210021973 C 87.34995269775391 33.4301872253418 88.4998779296875 39.12682342529297 88.4998779296875 44.99993896484375 C 88.4998779296875 50.87317657470703 87.34995269775391 56.56982421875 85.08205413818359 61.9317512512207 C 82.89120483398438 67.11151123046875 79.75448608398438 71.76372528076172 75.75904083251953 75.75916290283203 C 71.76360321044922 79.75461578369141 67.11138916015625 82.89132690429688 61.93162536621094 85.08217620849609 C 56.5697021484375 87.35007476806641 50.87305068969727 88.5 44.99993896484375 88.5 Z" stroke="none"/>
          <path d="M 44.99993896484375 3 C 39.32865142822266 3 33.82860946655273 4.110054016113281 28.65258026123047 6.299331665039062 C 23.65162658691406 8.414558410644531 19.15966796875 11.44332885742188 15.30149841308594 15.30149841308594 C 11.44332122802734 19.15966796875 8.41455078125 23.65162658691406 6.299324035644531 28.65258407592773 C 4.110054016113281 33.82861328125 2.999992370605469 39.32865524291992 2.999992370605469 45.00005722045898 C 2.999992370605469 50.67134475708008 4.110054016113281 56.17138671875 6.299324035644531 61.347412109375 C 8.41455078125 66.34837341308594 11.44332122802734 70.84033203125 15.30149841308594 74.69850158691406 C 19.15966796875 78.55667114257812 23.65162658691406 81.58544158935547 28.65258026123047 83.70066833496094 C 33.82860946655273 85.88994598388672 39.32865142822266 87 44.99993896484375 87 C 50.67122650146484 87 56.17126846313477 85.88994598388672 61.34729766845703 83.70066833496094 C 66.34825134277344 81.58544158935547 70.8402099609375 78.55667114257812 74.69837951660156 74.69850158691406 C 78.55654907226562 70.84033203125 81.5853271484375 66.34837341308594 83.70055389404297 61.347412109375 C 85.88982391357422 56.17138671875 86.9998779296875 50.67134475708008 86.9998779296875 44.99994277954102 C 86.9998779296875 39.32865524291992 85.88982391357422 33.82861328125 83.70055389404297 28.65258407592773 C 81.5853271484375 23.65162658691406 78.55654907226562 19.15966796875 74.69837951660156 15.30149841308594 C 70.8402099609375 11.44332885742188 66.34825134277344 8.414558410644531 61.34729766845703 6.299331665039062 C 56.17126846313477 4.110054016113281 50.67122650146484 3 44.99993896484375 3 M 44.99993896484375 0 C 69.85272216796875 0 89.99988555908203 20.14715576171875 89.99988555908203 44.99994277954102 L 89.99988555908203 45.00005722045898 C 89.99988555908203 69.85284423828125 69.85272216796875 90 44.99993896484375 90 C 20.14715576171875 90 -7.62939453125e-06 69.85284423828125 -7.62939453125e-06 45.00005722045898 L -7.62939453125e-06 44.99994277954102 C -7.62939453125e-06 20.14715576171875 20.14715576171875 0 44.99993896484375 0 Z" stroke="none" fill="#fff"/>
        </g>
      </g>
      <g id="Rectángulo_400907" data-name="Rectángulo 400907" transform="translate(1203.32 388.742)" fill="none" stroke="#fff" stroke-width="3">
        <rect width="90" height="90" rx="45" stroke="none"/>
        <rect x="1.5" y="1.5" width="87" height="87" rx="43.5" fill="none"/>
      </g>
    </g>
    <g id="meat_1046769" transform="translate(773.271 3853.758)">
      <path id="Trazado_897323" data-name="Trazado 897323" d="M44.731,77.626a9.055,9.055,0,0,1-6.954-3.289c-1.138-1.368-1.638-3.25-2.217-5.43-.8-3.032-1.807-6.805-4.949-10.28-3.115-3.444-6.967-4.944-10.365-6.268-5.017-1.953-7.053-2.923-7.053-7.371a4.31,4.31,0,0,1,.9-2.754c-3.984,2.63-6.535,5.944-6.474,9.587.16,9.48,9.988,7.734,15.851,14.218,6.2,6.857,1.335,13.526,13.9,18.4,6.6,2.562,17.656-.827,23.2-14.516-.137.173-8.511,7.879-15.835,7.7Zm0,0" transform="translate(-6.77 -37.587)" fill="#ea3942"/>
      <path id="Trazado_897324" data-name="Trazado 897324" d="M84.027,29.66c0,11.466-9.648,23.264-22.1,20.761C48.68,47.758,53.868,39.389,47.668,32.532,41.8,26.048,31.345,28.525,31.345,18.315c0-9.25,16.012-11.72,30.582-9.416,12.056,1.907,22.1,9.295,22.1,20.761Zm0,0" transform="translate(-27.854 -7.246)" fill="#f3e8d7"/>
      <path id="Trazado_897325" data-name="Trazado 897325" d="M245.963,65.477a17.681,17.681,0,0,1,3.37,10.51c0,11.465-9.648,23.263-22.1,20.761a19.523,19.523,0,0,1-4.611-1.458c1.24,2.726,3.513,4.967,9.279,6.126,12.452,2.5,22.1-9.3,22.1-20.761,0-6.42-3.15-11.561-8.038-15.178Zm0,0" transform="translate(-197.828 -58.24)" fill="#e5d6c1"/>
      <path id="Trazado_897326" data-name="Trazado 897326" d="M96.708,78.021a12.019,12.019,0,0,1-5.434-.994,7.276,7.276,0,0,1-2.994-2.274A11.185,11.185,0,0,1,86.8,70.917a24.827,24.827,0,0,0-3.314-8.105C81,59.256,77.044,57,72.975,55.5a17.024,17.024,0,0,1-4.16-1.875,4.535,4.535,0,0,1-2.092-3.845c.16-1.955,2-3.325,3.787-4.125,4.933-2.2,10.641-2.525,15.964-2.124,5.428.409,11.228,1.4,16.047,4.043,4.759,2.607,8.291,7.11,8.766,12.591a17.67,17.67,0,0,1-6.225,14.646,14.32,14.32,0,0,1-8.355,3.207Zm0,0" transform="translate(-59.283 -38.61)" fill="#fc4e51"/>
      <path id="Trazado_897327" data-name="Trazado 897327" d="M275.194,101.414A15.807,15.807,0,0,0,268.022,89.8a14.67,14.67,0,0,1,2.435,6.877,17.67,17.67,0,0,1-6.225,14.646,14.322,14.322,0,0,1-8.355,3.207,12.18,12.18,0,0,1-4.717-.705A7.554,7.554,0,0,0,252.186,116a7.276,7.276,0,0,0,2.994,2.274,12.017,12.017,0,0,0,5.434.995,14.321,14.321,0,0,0,8.355-3.207,17.669,17.669,0,0,0,6.225-14.646Zm0,0" transform="translate(-223.188 -79.855)" fill="#ea3942"/>
      <path id="Trazado_897328" data-name="Trazado 897328" d="M184.748,84.3a3.483,3.483,0,1,1-3.483-3.483A3.483,3.483,0,0,1,184.748,84.3Zm0,0" transform="translate(-157.982 -71.868)" fill="#f3e8d7"/>
      <path id="Trazado_897329" data-name="Trazado 897329" d="M50.2,8.311a32.064,32.064,0,0,0-16-7A61.631,61.631,0,0,0,17.943.832c-5.4.632-9.632,2.136-12.223,4.35-.137.117-.269.236-.4.357C1.787,8.3-.054,11.482,0,14.749a8.837,8.837,0,0,0,2.714,6.687A20.009,20.009,0,0,0,8.46,24.727c2.672,1.174,5.436,2.388,7.612,4.795a16.927,16.927,0,0,1,3.654,7.32A17.174,17.174,0,0,0,22.42,42.87c1.666,2.162,4.167,3.838,7.871,5.276A13,13,0,0,0,35,48.985a17.433,17.433,0,0,0,7.99-2.041c3.47-1.814,8.288-5.666,11.567-13.714a23.407,23.407,0,0,0,2.469-10.317A19.011,19.011,0,0,0,50.2,8.311Zm-8,37.129c-3.787,1.98-8.01,2.4-11.295,1.125-7.4-2.872-8.395-6.268-9.55-10.2a18.575,18.575,0,0,0-4.024-7.98c-2.42-2.676-5.484-4.022-8.188-5.21-4.11-1.806-7.356-3.232-7.444-8.453a7.427,7.427,0,0,1,.963-3.693c-.011.179-.018.358-.018.541a8.921,8.921,0,0,0,2.766,7.04,19.036,19.036,0,0,0,6.017,3.179c2.755,1.072,5.6,2.181,7.76,4.567s2.861,5.013,3.533,7.546c.609,2.291,1.183,4.456,2.75,6.339,1.751,2.106,4.433,3.462,8.438,4.266a17.659,17.659,0,0,0,3.482.35,17.425,17.425,0,0,0,9.457-2.818,19.881,19.881,0,0,1-4.645,3.4ZM53.085,32.378a.9.9,0,0,0-.075.144c-.01.024-.02.047-.03.071A20.965,20.965,0,0,1,47.6,39.4a15.937,15.937,0,0,1-10.137,3.774,16.353,16.353,0,0,1-3.223-.328c-7.809-1.57-8.723-5.015-9.882-9.378-.691-2.6-1.473-5.549-3.914-8.249-2.426-2.683-5.6-3.919-8.4-5.01-4.3-1.675-7.7-3-7.7-8.638a6.512,6.512,0,0,1,2.483-5.1C10.066,3.7,16.457,2.19,24.029,2.19a63.851,63.851,0,0,1,9.911.8,30.362,30.362,0,0,1,15.145,6.6,17.359,17.359,0,0,1,6.24,13.327,21.688,21.688,0,0,1-2.24,9.464Zm0,0" transform="translate(0 -0.5)"/>
      <path id="Trazado_897330" data-name="Trazado 897330" d="M104.591,55.172a.848.848,0,0,0-.917.774A17.173,17.173,0,0,1,98.23,66.965c-1.11-.88-1.546-2.3-2.215-4.484a43.578,43.578,0,0,0-2.6-6.852,18.913,18.913,0,0,0-6.164-6.644c1.874-1.093,6.4-3.15,13.545-2.829a14.158,14.158,0,0,1,2.712,6.034.848.848,0,0,0,.834.7.877.877,0,0,0,.154-.014.849.849,0,0,0,.682-.988,15.913,15.913,0,0,0-3.26-7.05c-.012-.017-.025-.033-.038-.049a19,19,0,0,0-5.715-4.738c-4.2-2.3-9.411-3.62-16.391-4.145-6.6-.5-11.954.221-16.374,2.2a7.177,7.177,0,0,0-4.011,3.645l-.013.034a4.208,4.208,0,0,0-.262,1.151,5.355,5.355,0,0,0,2.444,4.6A11.941,11.941,0,0,0,64.242,48.9a.848.848,0,0,0,.608-1.584,10.219,10.219,0,0,1-2.308-1.166A3.731,3.731,0,0,1,60.8,43.067c0-.056.012-.116.022-.179a54.037,54.037,0,0,1,10.648,1.141c0,.074-.006.149-.006.224a4.33,4.33,0,0,0,8,2.306c2.827,1.254,9.992,4.832,12.425,9.815a42.144,42.144,0,0,1,2.5,6.6c.67,2.185,1.188,3.875,2.476,5.06a13.583,13.583,0,0,1-6.965,2.35,11.093,11.093,0,0,1-5.05-.921,6.4,6.4,0,0,1-2.652-2A9.889,9.889,0,0,1,80.9,64.1l-.047-.184a25.614,25.614,0,0,0-3.439-8.378,20.623,20.623,0,0,0-8.84-6.784.848.848,0,1,0-.686,1.552,18.975,18.975,0,0,1,8.133,6.2,24.11,24.11,0,0,1,3.188,7.832l.047.183a11.28,11.28,0,0,0,1.569,3.936,8.057,8.057,0,0,0,3.336,2.553,12.639,12.639,0,0,0,5.2,1.081q.307,0,.619-.013a15.087,15.087,0,0,0,8.83-3.377l.006-.005.02-.016a18.581,18.581,0,0,0,6.532-12.6.848.848,0,0,0-.774-.917ZM78.425,44.445a2.4,2.4,0,0,1-.494,1.352,2.633,2.633,0,0,1-4.767-1.516,3.048,3.048,0,0,1,.379-1.389,2.634,2.634,0,0,1,4.89,1.361c0,.065,0,.129-.008.192Zm1.645.522a4.331,4.331,0,0,0-8.178-2.587,57.893,57.893,0,0,0-10.145-1.192,7.385,7.385,0,0,1,2.342-1.54c4.156-1.856,9.244-2.528,15.554-2.053,6.731.507,11.72,1.759,15.7,3.941a17.8,17.8,0,0,1,3.916,2.888c-7.617,0-12.108,2.538-13.562,3.521a43.127,43.127,0,0,0-5.629-2.979Zm0,0" transform="translate(-52.515 -31.825)"/>
    </g>
  </g>
</svg>
