<svg xmlns="http://www.w3.org/2000/svg" xmlns:xlink="http://www.w3.org/1999/xlink" width="84.236" height="84.236" viewBox="0 0 84.236 84.236">
  <defs>
    <filter id="Trazado_982547" x="0" y="0" width="84.236" height="84.236" filterUnits="userSpaceOnUse">
      <feOffset dy="3" input="SourceAlpha"/>
      <feGaussianBlur stdDeviation="3" result="blur"/>
      <feFlood flood-opacity="0.161"/>
      <feComposite operator="in" in2="blur"/>
      <feComposite in="SourceGraphic"/>
    </filter>
  </defs>
  <g id="Grupo_1175532" data-name="Grupo 1175532" transform="translate(-586.25 -914.212)">
    <g id="Grupo_1175060" data-name="Grupo 1175060" transform="translate(595.25 920.212)">
      <g id="Grupo_1174859" data-name="Grupo 1174859" transform="translate(0)">
        <g id="Grupo_1167343" data-name="Grupo 1167343">
          <g id="Grupo_1166777" data-name="Grupo 1166777" transform="translate(0)">
            <g id="Grupo_1164305" data-name="Grupo 1164305">
              <g id="Grupo_1163948" data-name="Grupo 1163948">
                <g id="Grupo_1158168" data-name="Grupo 1158168">
                  <g id="Grupo_1152576" data-name="Grupo 1152576">
                    <g id="Grupo_1148633" data-name="Grupo 1148633">
                      <g id="Grupo_1148525" data-name="Grupo 1148525">
                        <g transform="matrix(1, 0, 0, 1, -9, -6)" filter="url(#Trazado_982547)">
                          <g id="Trazado_982547-2" data-name="Trazado 982547" transform="translate(9 6)" fill="#f4f9ff">
                            <path d="M 33.1181640625 64.73633575439453 C 28.84908485412598 64.73633575439453 24.70849418640137 63.90056228637695 20.81141471862793 62.25223541259766 C 17.04652404785156 60.65982437133789 13.66499423980713 58.37983322143555 10.7607536315918 55.47559356689453 C 7.856503963470459 52.57134246826172 5.57651424407959 49.18981552124023 3.984104156494141 45.42492294311523 C 2.335773944854736 41.5278434753418 1.500004053115845 37.38725280761719 1.500004053115845 33.1181640625 C 1.500004053115845 28.84908485412598 2.335773944854736 24.70849418640137 3.984104156494141 20.81141471862793 C 5.57651424407959 17.04652404785156 7.856513977050781 13.66499423980713 10.7607536315918 10.7607536315918 C 13.66499423980713 7.856513977050781 17.04652404785156 5.57651424407959 20.81141471862793 3.984104156494141 C 24.70849418640137 2.335773944854736 28.84908485412598 1.500004053115845 33.1181640625 1.500004053115845 C 37.38725280761719 1.500004053115845 41.5278434753418 2.335773944854736 45.42492294311523 3.984104156494141 C 49.18981552124023 5.57651424407959 52.57134246826172 7.856503963470459 55.47559356689453 10.7607536315918 C 58.37983322143555 13.66499423980713 60.65982437133789 17.04652404785156 62.25223541259766 20.81141471862793 C 63.90056228637695 24.70849418640137 64.73633575439453 28.84908485412598 64.73633575439453 33.1181640625 C 64.73633575439453 37.38725280761719 63.90056228637695 41.5278434753418 62.25223541259766 45.42492294311523 C 60.65982437133789 49.18981552124023 58.37983322143555 52.57135391235352 55.47559356689453 55.47559356689453 C 52.57135391235352 58.37983322143555 49.18981552124023 60.65982437133789 45.42492294311523 62.25223541259766 C 41.5278434753418 63.90056228637695 37.38725280761719 64.73633575439453 33.1181640625 64.73633575439453 Z" stroke="none"/>
                            <path d="M 33.1181640625 2.999996185302734 C 29.05091857910156 2.999996185302734 25.10691833496094 3.7958984375 21.3957405090332 5.365596771240234 C 17.80964279174805 6.88238525390625 14.58837509155273 9.054443359375 11.82140731811523 11.82140731811523 C 9.054443359375 14.58837509155273 6.88238525390625 17.80964279174805 5.365596771240234 21.3957405090332 C 3.7958984375 25.10691833496094 2.999996185302734 29.05091857910156 2.999996185302734 33.1181640625 C 2.999996185302734 37.18541717529297 3.7958984375 41.12940979003906 5.365596771240234 44.84059906005859 C 6.88238525390625 48.42668533325195 9.054431915283203 51.64796447753906 11.82140731811523 54.41493225097656 C 14.58837509155273 57.1818962097168 17.80964279174805 59.35394287109375 21.39572906494141 60.87073135375977 C 25.10691833496094 62.4404296875 29.05091857910156 63.23633193969727 33.1181640625 63.23633193969727 C 37.18541717529297 63.23633193969727 41.12940979003906 62.4404296875 44.84059906005859 60.87073135375977 C 48.42668533325195 59.35394287109375 51.64796447753906 57.1818962097168 54.41493225097656 54.41493225097656 C 57.1818962097168 51.64796447753906 59.35394287109375 48.42668533325195 60.87073135375977 44.84059906005859 C 62.4404296875 41.12940979003906 63.23633193969727 37.18541717529297 63.23633193969727 33.1181640625 C 63.23633193969727 29.05091857910156 62.4404296875 25.10691833496094 60.87073135375977 21.39572906494141 C 59.35394287109375 17.80964279174805 57.1818962097168 14.58837509155273 54.41493225097656 11.82140731811523 C 51.64796447753906 9.054431915283203 48.42668533325195 6.88238525390625 44.84059906005859 5.365596771240234 C 41.12940979003906 3.7958984375 37.18541717529297 2.999996185302734 33.1181640625 2.999996185302734 M 33.1181640625 0 C 51.40882873535156 0 66.236328125 14.82750701904297 66.236328125 33.1181640625 C 66.236328125 51.40882873535156 51.40882873535156 66.236328125 33.1181640625 66.236328125 C 14.82750701904297 66.236328125 0 51.40882873535156 0 33.1181640625 C 0 14.82750701904297 14.82750701904297 0 33.1181640625 0 Z" stroke="none" fill="#719acc"/>
                          </g>
                        </g>
                      </g>
                    </g>
                  </g>
                </g>
              </g>
            </g>
          </g>
        </g>
      </g>
    </g>
    <g id="Grupo_1175720" data-name="Grupo 1175720" transform="translate(606.261 931.33)">
      <g id="Grupo_1175721" data-name="Grupo 1175721" transform="translate(-1 1)">
        <path id="Trazado_1031325" data-name="Trazado 1031325" d="M0,0H0ZM12.213,39.315c.675-.327,1.315-.632,1.952-.946a2.986,2.986,0,0,1,2.241-.2q1.94.569,3.885,1.123c1,.285,2,.621,3.02.814a7.364,7.364,0,0,0,3.971-.536q7.1-2.669,14.162-5.428a3.949,3.949,0,0,0,2.439-3.13A2.875,2.875,0,0,0,41.345,27.4a7.281,7.281,0,0,0-2.59.058c-1.988.463-3.942,1.072-5.908,1.63-1.111.315-2.217.647-3.31.967a3.594,3.594,0,0,0-2.607-1.86c-.6-.162-1.208-.311-1.808-.477a17.9,17.9,0,0,1-5.049-1.9,6.042,6.042,0,0,0-5.649-.423c-.768.3-1.518.651-2.265,1-1.48.7-2.952,1.412-4.441,2.126-.09-.215-.167-.4-.246-.587a1.923,1.923,0,0,0-2.7-1.113c-.938.385-1.876.771-2.81,1.168A1.885,1.885,0,0,0,.876,30.6c.311.765.634,1.525.952,2.288q2.047,4.915,4.1,9.831a1.891,1.891,0,0,0,2.449,1.219c1.1-.413,2.18-.87,3.249-1.355a1.837,1.837,0,0,0,.956-2.342c-.105-.3-.231-.589-.364-.925M40.5,9.836h.03c0-1.73,0-3.461,0-5.191,0-.6-.162-.766-.76-.832-.289-.031-.578-.068-.864-.117a15.217,15.217,0,0,1-6.155-2.609A1.712,1.712,0,0,0,31.7.765c-1.861.015-3.722.021-5.582,0a2.1,2.1,0,0,0-1.288.4,14.71,14.71,0,0,1-7,2.657c-.481.046-.653.257-.653.79q0,4.755,0,9.509a9.36,9.36,0,0,0,.692,3.657A16.718,16.718,0,0,0,28.581,27.4a1.377,1.377,0,0,0,.795-.069,17.446,17.446,0,0,0,8.591-6.187,11.322,11.322,0,0,0,2.519-6.469c.064-1.611.012-3.227.012-4.841M9.3,11.893q2.548,0,5.1,0c.159,0,.359.041.468-.037a1.17,1.17,0,0,0,.466-.542A.5.5,0,0,0,14.9,10.7a1.887,1.887,0,0,0-.474-.041q-5.117,0-10.234,0a1.83,1.83,0,0,0-.473.043.493.493,0,0,0-.411.614,1.185,1.185,0,0,0,.465.538c.109.078.309.035.468.035q2.526,0,5.052,0m1.82,2.19q-1.526,0-3.053,0a5.361,5.361,0,0,0-.609.019.548.548,0,0,0-.518.551.559.559,0,0,0,.476.631,2.05,2.05,0,0,0,.433.029q2.747,0,5.495,0c.465,0,.931.015,1.4-.009a.608.608,0,0,0,0-1.216c-.116-.009-.232-.008-.349-.008H11.116m.044-5.616c1.134,0,2.268,0,3.4,0,.51,0,.786-.22.784-.608s-.289-.617-.787-.618q-3.424,0-6.848,0c-.5,0-.785.233-.784.621s.279.6.787.605c1.149,0,2.3,0,3.446,0" fill="#fdfdfd"/>
        <path id="Trazado_1031326" data-name="Trazado 1031326" d="M17.5,228.056c.133.336.258.627.364.925a1.837,1.837,0,0,1-.956,2.342c-1.068.484-2.151.942-3.249,1.355a1.892,1.892,0,0,1-2.449-1.219q-2.05-4.914-4.1-9.831c-.318-.762-.641-1.522-.952-2.288a1.885,1.885,0,0,1,1.084-2.606c.934-.4,1.871-.783,2.809-1.168a1.923,1.923,0,0,1,2.7,1.113c.079.185.156.372.246.587,1.49-.714,2.962-1.429,4.441-2.126.747-.352,1.5-.7,2.265-1a6.042,6.042,0,0,1,5.649.423,17.9,17.9,0,0,0,5.049,1.9c.6.166,1.206.315,1.808.477a3.594,3.594,0,0,1,2.607,1.86c1.093-.32,2.2-.652,3.31-.967,1.965-.558,3.92-1.167,5.908-1.63a7.281,7.281,0,0,1,2.59-.058,2.875,2.875,0,0,1,2.538,3.613,3.949,3.949,0,0,1-2.439,3.13q-7.057,2.775-14.162,5.428a7.364,7.364,0,0,1-3.971.536c-1.022-.193-2.017-.53-3.02-.814q-1.945-.551-3.885-1.123a2.987,2.987,0,0,0-2.241.2c-.636.314-1.277.619-1.952.946m16.32-7.3a2.03,2.03,0,0,0-1.488-2.515c-.893-.251-1.8-.468-2.69-.72a14.325,14.325,0,0,1-4.445-1.661,5.463,5.463,0,0,0-5.754-.305q-2.589,1.24-5.181,2.476l-.787.378,3.545,8.511c.724-.348,1.4-.685,2.081-1a3.947,3.947,0,0,1,2.763-.23c1.1.306,2.2.624,3.3.942.836.241,1.684.45,2.5.745a6.32,6.32,0,0,0,4.512-.219q7.017-2.652,14.008-5.371a2.868,2.868,0,0,0,1.763-2.179,1.672,1.672,0,0,0-1.432-2.245,6.5,6.5,0,0,0-2.369.06c-1.86.442-3.689,1.016-5.528,1.544-1.166.335-2.328.682-3.495,1.025,0,.1,0,.155,0,.212a3.262,3.262,0,0,1-4.1,3.24c-2.533-.63-5.047-1.335-7.568-2.011a.652.652,0,0,1-.528-.817.723.723,0,0,1,.958-.347c2.491.672,4.982,1.346,7.479,1.994a1.993,1.993,0,0,0,2.453-1.509M13.1,231.567c.086-.029.213-.062.332-.111.911-.375,1.822-.748,2.73-1.13.584-.246.71-.549.466-1.135q-2.5-6.021-5.005-12.038c-.23-.553-.544-.673-1.11-.442q-1.348.55-2.691,1.111c-.621.259-.734.535-.476,1.157q1.341,3.231,2.685,6.461c.768,1.846,1.541,3.689,2.3,5.537a.8.8,0,0,0,.765.59" transform="translate(-5.285 -188.741)" fill="#040404"/>
        <path id="Trazado_1031327" data-name="Trazado 1031327" d="M170.7,15.612c0,1.614.052,3.229-.012,4.841a11.322,11.322,0,0,1-2.519,6.469,17.445,17.445,0,0,1-8.591,6.187,1.377,1.377,0,0,1-.795.069,16.718,16.718,0,0,1-10.715-9.621,9.357,9.357,0,0,1-.692-3.657q0-4.755,0-9.509c0-.534.172-.744.653-.79a14.71,14.71,0,0,0,7-2.657,2.1,2.1,0,0,1,1.288-.4c1.861.024,3.722.018,5.582,0a1.712,1.712,0,0,1,1.05.322A15.217,15.217,0,0,0,169.1,9.472c.286.049.575.086.864.117.6.065.759.229.76.832,0,1.73,0,3.461,0,5.191h-.03m-22.083-4.843c-.007.118-.018.217-.018.316q0,4.47,0,8.939a8.107,8.107,0,0,0,.651,3.225,15.7,15.7,0,0,0,9.54,8.666,1.011,1.011,0,0,0,.624-.041,16.238,16.238,0,0,0,8.357-6.528,9.273,9.273,0,0,0,1.694-5.008c.047-3.124.027-6.25.033-9.375a.837.837,0,0,0-.049-.2,16.6,16.6,0,0,1-7.008-2.745,1.562,1.562,0,0,0-.8-.237c-1.526-.022-3.053.019-4.577-.024a2.71,2.71,0,0,0-1.9.552,6.854,6.854,0,0,1-1.007.6,15.659,15.659,0,0,1-5.547,1.857" transform="translate(-130.201 -5.776)" fill="#040404"/>
        <path id="Trazado_1031328" data-name="Trazado 1031328" d="M34.227,92.715q-2.526,0-5.052,0c-.159,0-.359.043-.469-.035a1.185,1.185,0,0,1-.465-.538.493.493,0,0,1,.411-.614,1.835,1.835,0,0,1,.473-.043q5.117,0,10.234,0a1.884,1.884,0,0,1,.474.041.5.5,0,0,1,.423.61,1.167,1.167,0,0,1-.466.542c-.109.078-.309.037-.468.037q-2.548,0-5.1,0" transform="translate(-24.932 -80.821)" fill="#040404"/>
        <path id="Trazado_1031329" data-name="Trazado 1031329" d="M63.68,120.852h3.271c.116,0,.233,0,.349.008a.608.608,0,0,1,0,1.216c-.464.023-.93.008-1.4.008q-2.747,0-5.495,0a2.05,2.05,0,0,1-.433-.029.559.559,0,0,1-.476-.631.548.548,0,0,1,.518-.551,5.331,5.331,0,0,1,.609-.019q1.526,0,3.053,0" transform="translate(-52.564 -106.769)" fill="#040404"/>
        <path id="Trazado_1031330" data-name="Trazado 1031330" d="M63.673,63.347c-1.149,0-2.3,0-3.446,0-.508,0-.786-.22-.787-.605s.284-.62.784-.621q3.424,0,6.848,0c.5,0,.786.234.787.618s-.275.607-.784.608c-1.134,0-2.268,0-3.4,0" transform="translate(-52.513 -54.879)" fill="#040404"/>
        <path id="Trazado_1031331" data-name="Trazado 1031331" d="M79.716,230.07a.652.652,0,0,0,.528.817c2.521.676,5.035,1.381,7.568,2.011a3.262,3.262,0,0,0,4.1-3.24c0-.057,0-.115,0-.212,1.167-.343,2.329-.69,3.495-1.025,1.839-.528,3.668-1.1,5.528-1.544a6.5,6.5,0,0,1,2.369-.06,1.672,1.672,0,0,1,1.432,2.245,2.868,2.868,0,0,1-1.763,2.18q-6.994,2.712-14.008,5.371a6.32,6.32,0,0,1-4.512.219c-.817-.295-1.665-.5-2.5-.745-1.1-.318-2.2-.636-3.3-.942a3.947,3.947,0,0,0-2.763.23c-.684.312-1.357.649-2.081,1l-3.545-8.511.787-.378q2.591-1.238,5.181-2.476a5.463,5.463,0,0,1,5.754.305,14.325,14.325,0,0,0,4.445,1.661c.893.252,1.8.469,2.69.72a2.03,2.03,0,0,1,1.488,2.514,2.4,2.4,0,0,1-.256-.04l-9.167-2.445c-.915-.244-1.831-.485-2.8-.743a6.58,6.58,0,0,0-.039.946,2.846,2.846,0,0,0,1.376,2.144" transform="translate(-62.072 -198.194)" fill="#edc5a3"/>
        <path id="Trazado_1031332" data-name="Trazado 1031332" d="M22.459,254.03a.8.8,0,0,1-.765-.59c-.762-1.848-1.534-3.692-2.3-5.537q-1.344-3.23-2.685-6.461c-.258-.622-.145-.9.476-1.157q1.343-.561,2.691-1.111c.566-.231.879-.11,1.11.442q2.507,6.017,5.005,12.038c.243.586.118.888-.466,1.135-.908.382-1.819.756-2.73,1.13-.12.049-.246.083-.332.111" transform="translate(-14.645 -211.204)" fill="#e2e6e9"/>
        <path id="Trazado_1031333" data-name="Trazado 1031333" d="M140.9,250.109a2.846,2.846,0,0,1-1.376-2.144,6.581,6.581,0,0,1,.039-.946c.974.258,1.889.5,2.8.743l9.167,2.445a2.4,2.4,0,0,0,.256.04,1.993,1.993,0,0,1-2.453,1.509c-2.5-.648-4.988-1.322-7.479-1.994a.723.723,0,0,0-.958.347" transform="translate(-123.254 -218.233)" fill="#d3a788"/>
        <path id="Trazado_1031334" data-name="Trazado 1031334" d="M157.888,20a15.662,15.662,0,0,0,5.548-1.857,6.86,6.86,0,0,0,1.007-.6,2.71,2.71,0,0,1,1.9-.552c1.525.042,3.052,0,4.577.024a1.561,1.561,0,0,1,.8.237A16.6,16.6,0,0,0,178.723,20a.838.838,0,0,1,.049.2c-.005,3.125.014,6.25-.033,9.375a9.272,9.272,0,0,1-1.694,5.008,16.237,16.237,0,0,1-8.357,6.528,1.011,1.011,0,0,1-.624.041,15.7,15.7,0,0,1-9.54-8.665,8.109,8.109,0,0,1-.651-3.225q-.008-4.47,0-8.939c0-.1.011-.2.018-.316m20.506,5.391c0-1.468,0-2.936,0-4.4,0-.4-.135-.676-.554-.756a17.577,17.577,0,0,1-6.262-2.62,1.6,1.6,0,0,0-.81-.232c-1.627-.021-3.255-.024-4.883,0a1.779,1.779,0,0,0-.885.269,17.832,17.832,0,0,1-6.016,2.545c-.653.135-.756.271-.756.942,0,2.587,0,5.174,0,7.762a8.576,8.576,0,0,0,.685,3.523,15.177,15.177,0,0,0,9.164,8.332,1.079,1.079,0,0,0,.667-.051,15.765,15.765,0,0,0,7.357-5.431,10.249,10.249,0,0,0,2.3-6.785c-.042-1.03-.007-2.064-.007-3.1" transform="translate(-139.473 -15.01)" fill="#5fc6e1"/>
        <path id="Trazado_1031335" data-name="Trazado 1031335" d="M181.124,28.236c0,1.032-.035,2.065.007,3.1a10.249,10.249,0,0,1-2.3,6.785,15.766,15.766,0,0,1-7.357,5.431,1.079,1.079,0,0,1-.667.051,15.176,15.176,0,0,1-9.164-8.332,8.576,8.576,0,0,1-.685-3.523c.005-2.587,0-5.175,0-7.762,0-.671.1-.807.756-.942a17.832,17.832,0,0,0,6.015-2.545,1.776,1.776,0,0,1,.885-.269c1.627-.026,3.255-.023,4.883,0a1.6,1.6,0,0,1,.81.232,17.573,17.573,0,0,0,6.262,2.62c.419.08.556.353.554.756-.008,1.468,0,2.936,0,4.4m-1.224.3c0-1.323-.007-2.645.006-3.968,0-.275-.062-.4-.355-.471a18.565,18.565,0,0,1-5.643-2.442,1.461,1.461,0,0,0-.726-.2c-1.38-.019-2.761,0-4.141-.015a1.674,1.674,0,0,0-.974.279,17.636,17.636,0,0,1-5.481,2.377c-.325.077-.409.2-.407.516.013,2.413-.03,4.826.027,7.237a7.73,7.73,0,0,0,.436,2.556,13.715,13.715,0,0,0,8.2,7.919,1.006,1.006,0,0,0,.66-.079,14.681,14.681,0,0,0,6.51-5.07,8.992,8.992,0,0,0,1.9-5.889c-.046-.913-.008-1.831-.008-2.747" transform="translate(-142.203 -17.853)" fill="#040404"/>
        <path id="Trazado_1031336" data-name="Trazado 1031336" d="M189.108,37.824c0,.916-.039,1.833.008,2.747a8.992,8.992,0,0,1-1.9,5.889,14.68,14.68,0,0,1-6.51,5.07,1.006,1.006,0,0,1-.66.079,13.715,13.715,0,0,1-8.2-7.919,7.732,7.732,0,0,1-.436-2.556c-.057-2.411-.014-4.825-.027-7.237,0-.318.082-.439.407-.516A17.642,17.642,0,0,0,177.274,31a1.673,1.673,0,0,1,.974-.279c1.38.015,2.761,0,4.141.015a1.461,1.461,0,0,1,.726.2,18.566,18.566,0,0,0,5.643,2.442c.294.069.358.2.355.471-.012,1.322-.006,2.645-.006,3.968m-11.536,6.136c0,.822,0,1.591,0,2.359s.158.93.911.932q1.767,0,3.533,0c.774,0,.936-.169.937-.961,0-.765,0-1.53,0-2.33.864,0,1.675,0,2.487,0,.58,0,.786-.207.788-.787q.005-1.876,0-3.752c0-.665-.187-.848-.856-.85-.8,0-1.591,0-2.369,0a.65.65,0,0,1-.042-.13c0-.785,0-1.57-.009-2.356-.006-.591-.2-.8-.785-.8q-1.9-.012-3.795,0c-.611,0-.8.2-.8.822,0,.81,0,1.62,0,2.467-.87,0-1.695,0-2.52,0-.55,0-.775.22-.777.763q-.009,1.919,0,3.839c0,.569.223.783.8.786.813,0,1.626,0,2.5,0" transform="translate(-151.411 -27.143)" fill="#4ebee6"/>
        <path id="Trazado_1031337" data-name="Trazado 1031337" d="M199.459,78.48c-.872,0-1.685,0-2.5,0-.577,0-.8-.217-.8-.786q-.007-1.92,0-3.839c0-.543.227-.76.777-.763.825-.005,1.651,0,2.52,0,0-.847,0-1.657,0-2.467,0-.618.189-.819.8-.822q1.9-.01,3.795,0c.581,0,.779.212.785.8.008.785.006,1.57.009,2.355a.655.655,0,0,0,.042.13c.778,0,1.574,0,2.369,0,.669,0,.855.184.856.85q0,1.876,0,3.752c0,.58-.208.784-.788.787-.811,0-1.622,0-2.486,0,0,.8,0,1.565,0,2.33,0,.792-.163.96-.937.961q-1.767,0-3.533,0c-.752,0-.91-.165-.911-.932s0-1.536,0-2.359m4.146,2.029c0-.852,0-1.65,0-2.449,0-.619.193-.8.81-.807.81,0,1.619,0,2.438,0V74.313h-2.3c-.815,0-.95-.138-.95-.971,0-.751,0-1.5,0-2.279h-2.871c-.024.036-.038.048-.039.06,0,.8-.006,1.6-.011,2.4,0,.587-.2.79-.776.793-.523,0-1.046,0-1.569,0h-.93v2.939c.8,0,1.582,0,2.362,0,.75,0,.912.166.912.922,0,.78,0,1.56,0,2.334Z" transform="translate(-173.299 -61.662)" fill="#040404"/>
        <path id="Trazado_1031338" data-name="Trazado 1031338" d="M213.1,90.117h-2.921c0-.774,0-1.554,0-2.334,0-.757-.162-.921-.912-.922-.78,0-1.56,0-2.362,0V83.921h.93c.523,0,1.046,0,1.569,0,.574,0,.772-.206.776-.793.005-.8.007-1.6.011-2.4,0-.012.015-.024.039-.06H213.1c0,.776,0,1.528,0,2.279,0,.834.135.971.95.971h2.3V86.86c-.818,0-1.628,0-2.438,0-.617,0-.805.189-.81.807-.006.8,0,1.6,0,2.449" transform="translate(-182.797 -71.27)" fill="#c4e792"/>
      </g>
    </g>
  </g>
</svg>
