<svg xmlns="http://www.w3.org/2000/svg" xmlns:xlink="http://www.w3.org/1999/xlink" width="113" height="113" viewBox="0 0 113 113">
  <defs>
    <filter id="Trazado_982547" x="0" y="0" width="113" height="113" filterUnits="userSpaceOnUse">
      <feOffset dy="3" input="SourceAlpha"/>
      <feGaussianBlur stdDeviation="3" result="blur"/>
      <feFlood flood-opacity="0.161"/>
      <feComposite operator="in" in2="blur"/>
      <feComposite in="SourceGraphic"/>
    </filter>
  </defs>
  <g id="Grupo_1175130" data-name="Grupo 1175130" transform="translate(-272.301 -914.212)">
    <g id="Grupo_1175059" data-name="Grupo 1175059" transform="translate(0.301 -90.841)">
      <g id="Grupo_1174859" data-name="Grupo 1174859" transform="translate(281 1011.053)">
        <g id="Grupo_1167343" data-name="Grupo 1167343" transform="translate(0)">
          <g id="Grupo_1166777" data-name="Grupo 1166777" transform="translate(0)">
            <g id="Grupo_1164305" data-name="Grupo 1164305">
              <g id="Grupo_1163948" data-name="Grupo 1163948">
                <g id="Grupo_1158168" data-name="Grupo 1158168">
                  <g id="Grupo_1152576" data-name="Grupo 1152576">
                    <g id="Grupo_1148633" data-name="Grupo 1148633">
                      <g id="Grupo_1148525" data-name="Grupo 1148525">
                        <g transform="matrix(1, 0, 0, 1, -9, -6)" filter="url(#Trazado_982547)">
                          <g id="Trazado_982547-2" data-name="Trazado 982547" transform="translate(9 6)" fill="#f4f9ff">
                            <path d="M 47.5 93.5 C 41.28937149047852 93.5 35.26533508300781 92.28397369384766 29.59518623352051 89.88570404052734 C 24.11771965026855 87.56893157958984 19.19813346862793 84.25196075439453 14.97309303283691 80.02691650390625 C 10.74804019927979 75.80186462402344 7.431066513061523 70.88229370117188 5.114293098449707 65.40481567382812 C 2.716026782989502 59.73468017578125 1.5 53.71062850952148 1.5 47.5 C 1.5 41.28937149047852 2.716026782989502 35.26533508300781 5.114293098449707 29.59518623352051 C 7.431066513061523 24.11771965026855 10.74804019927979 19.19813346862793 14.97309303283691 14.97309303283691 C 19.19813346862793 10.74804019927979 24.11771965026855 7.431066513061523 29.59518623352051 5.114293098449707 C 35.26533508300781 2.716026782989502 41.28937149047852 1.5 47.5 1.5 C 53.71062850952148 1.5 59.73468017578125 2.716026782989502 65.40481567382812 5.114293098449707 C 70.88229370117188 7.431066513061523 75.80186462402344 10.74804019927979 80.02691650390625 14.97309303283691 C 84.25196075439453 19.19813346862793 87.56893157958984 24.11771965026855 89.88570404052734 29.59518623352051 C 92.28397369384766 35.26533508300781 93.5 41.28937149047852 93.5 47.5 C 93.5 53.71062850952148 92.28397369384766 59.73468017578125 89.88570404052734 65.40481567382812 C 87.56893157958984 70.88229370117188 84.25196075439453 75.80186462402344 80.02691650390625 80.02691650390625 C 75.80186462402344 84.25196075439453 70.88229370117188 87.56893157958984 65.40481567382812 89.88570404052734 C 59.73468017578125 92.28397369384766 53.71062850952148 93.5 47.5 93.5 Z" stroke="none"/>
                            <path d="M 47.5 3 C 41.49121475219727 3 35.66376876831055 4.176155090332031 30.17950439453125 6.495796203613281 C 24.88084411621094 8.736953735351562 20.12152099609375 11.94598388671875 16.03375244140625 16.03375244140625 C 11.94598388671875 20.12152099609375 8.736953735351562 24.88084411621094 6.495796203613281 30.17950439453125 C 4.176155090332031 35.66376876831055 3 41.49121475219727 3 47.5 C 3 53.50878524780273 4.176155090332031 59.33624649047852 6.495796203613281 64.82049560546875 C 8.736953735351562 70.11917114257812 11.94598388671875 74.87849426269531 16.03375244140625 78.96626281738281 C 20.12152099609375 83.05403137207031 24.88084411621094 86.2630615234375 30.17950439453125 88.50419616699219 C 35.66376876831055 90.82384490966797 41.49121475219727 92 47.5 92 C 53.50878524780273 92 59.33624649047852 90.82384490966797 64.82049560546875 88.50419616699219 C 70.11917114257812 86.2630615234375 74.87849426269531 83.05403137207031 78.96626281738281 78.96626281738281 C 83.05403137207031 74.87849426269531 86.2630615234375 70.11917114257812 88.50419616699219 64.82049560546875 C 90.82384490966797 59.33624649047852 92 53.50878524780273 92 47.5 C 92 41.49121475219727 90.82384490966797 35.66376876831055 88.50419616699219 30.17950439453125 C 86.2630615234375 24.88084411621094 83.05403137207031 20.12152099609375 78.96626281738281 16.03375244140625 C 74.87849426269531 11.94598388671875 70.11917114257812 8.736953735351562 64.82049560546875 6.495796203613281 C 59.33624649047852 4.176155090332031 53.50878524780273 3 47.5 3 M 47.5 0 C 73.73353576660156 0 95 21.2664794921875 95 47.5 C 95 73.73353576660156 73.73353576660156 95 47.5 95 C 21.2664794921875 95 0 73.73353576660156 0 47.5 C 0 21.2664794921875 21.2664794921875 0 47.5 0 Z" stroke="none" fill="#719acc"/>
                          </g>
                        </g>
                      </g>
                    </g>
                  </g>
                </g>
              </g>
            </g>
          </g>
        </g>
      </g>
    </g>
    <g id="Grupo_1175596" data-name="Grupo 1175596" transform="translate(297.094 935.356)">
      <g id="Grupo_1175597" data-name="Grupo 1175597" transform="translate(0.156)">
        <path id="Trazado_1030879" data-name="Trazado 1030879" d="M63.015,37.486c-.487-.015-.973-.044-1.459-.044q-30,0-60.008,0H.122V35.288h.952c1.8.01,3.6.032,5.4.013a1.127,1.127,0,0,0,.672-.36c1.028-1.021,2.029-2.07,3.05-3.1a4.592,4.592,0,0,1,.632-.452l-.168-.187H1.092l-.951-.045V29.19l.972-.359L6.907,24.94H.131V22.846h.947c2.842.008,5.684.022,8.526.01a1.418,1.418,0,0,0,.722-.28c1.708-1.15,3.407-2.314,5.106-3.477.124-.084.232-.191.44-.365H1.1a1.149,1.149,0,0,1-.981-.907c-.1-.56.247-.889.627-1.2q9.9-8.1,19.8-16.21c.183-.148.38-.279.57-.417h.614c1.079.914,2.164,1.822,3.237,2.744,2.112,1.813,4.219,3.635,6.346,5.467.247-.2.472-.374.693-.554Q36.694,3.828,41.387,0H42c.208.152.421.3.62.461Q52.448,8.5,62.266,16.553a8.034,8.034,0,0,1,.749.807v.629l-1,.747H47.354c1.864,1.413,3.746,2.7,5.636,3.98a.974.974,0,0,0,.518.148q4.263,0,8.524-.018l.982.048v2.013l-.987.032H56.207L62,28.827l1.016.231V31.2l-.992.014h-9.7c1.319,1.353,2.541,2.616,3.777,3.862a.839.839,0,0,0,.541.234c1.8.008,3.6-.008,5.4-.018l.978.061ZM56.5,16.6h2.581c-3.137-2.566-6.12-5.007-9.185-7.516-.049.761-.09,1.38-.129,2a4.147,4.147,0,0,1-4.021,3.471,4.1,4.1,0,0,1-3.914-3.2c-.1-.4-.1-.83-.2-1.235a.976.976,0,0,0-1.875-.046,3.348,3.348,0,0,0-.1.617,3.055,3.055,0,0,1-3.021,2.8,2.992,2.992,0,0,1-3.007-2.8c-.048-.492-.062-.986-.1-1.62-3.087,2.526-6.082,4.979-9.214,7.544h.864q11.82,0,23.642,0c2.559,0,5.118-.009,7.676-.014M28.6,10.425l1.079-.867c-.25-.228-.425-.4-.61-.558q-3.327-2.867-6.656-5.734c-1.111-.963-1.1-.972-2.167.107-.119.08-.245.151-.356.241Q12.173,9.927,4.461,16.247c-.1.083-.19.181-.33.314a1.864,1.864,0,0,0,.255.049q8.163,0,16.327-.006a1.038,1.038,0,0,0,.606-.216q3.65-2.97,7.281-5.963M41.7,2.386c-1.571,1.282-3.069,2.628-4.693,3.786a2.843,2.843,0,0,0-1.4,3.061,4.5,4.5,0,0,1,.01.691c.016.971.33,1.449.973,1.482.62.031.978-.43,1.087-1.4A3.028,3.028,0,0,1,41.489,7.4a3.1,3.1,0,0,1,2.242,3.02,2.022,2.022,0,1,0,4.04-.112c.013-.858.015-1.718-.006-2.576a.793.793,0,0,0-.207-.536c-1.938-1.609-3.891-3.2-5.858-4.808M21.782,31.2c-2.7,0-5.279-.006-7.856.014a.951.951,0,0,0-.557.314c-1.023,1.027-2.03,2.069-3.042,3.107-.193.2-.382.4-.658.688,3.446,0,6.737,0,10.027-.012a.623.623,0,0,0,.482-.271c.54-1.236,1.045-2.488,1.605-3.84m19.549,0c.518,1.251,1.016,2.392,1.459,3.556a.779.779,0,0,0,.866.577c3.049-.019,6.1-.01,9.147-.012.17,0,.34-.014.625-.028-1.34-1.372-2.594-2.66-3.857-3.938a.584.584,0,0,0-.381-.148c-2.577-.009-5.154-.006-7.86-.006m-8.775,0c0,1.234.021,2.363-.01,3.49-.014.489.121.651.617.645,2.372-.026,4.743-.01,7.115-.013.153,0,.305-.028.527-.049-.412-1-.8-1.942-1.185-2.881-.492-1.193-.492-1.193-1.787-1.193H32.556ZM30.5,35.282V31.194c-2.093,0-4.136,0-6.178.009a.5.5,0,0,0-.393.187c-.55,1.271-1.074,2.554-1.63,3.891ZM16.932,24.923c-2.189,0-4.187-.006-6.186.012a1.131,1.131,0,0,0-.547.249q-2.608,1.768-5.206,3.551a4.9,4.9,0,0,0-.371.324c2.756,0,5.391,0,8.026-.005a.581.581,0,0,0,.385-.139c1.262-1.279,2.514-2.568,3.9-3.991m29.347,0a1.845,1.845,0,0,0,.163.28c1.184,1.217,2.363,2.439,3.567,3.636a1.011,1.011,0,0,0,.659.214c2.455.014,4.911.01,7.367.008a4.6,4.6,0,0,0,.478-.065c-1.408-.959-2.778-1.773-4.011-2.767A5.7,5.7,0,0,0,50.2,24.9c-1.27.112-2.558.023-3.92.023M15.771,29.06h5.3c1.623,0,1.623,0,2.244-1.531.342-.84.687-1.679,1.067-2.6-1.541,0-2.968-.005-4.4.008a.605.605,0,0,0-.364.192c-1.248,1.266-2.489,2.541-3.849,3.935m31.573,0c-1.349-1.381-2.576-2.642-3.81-3.893a.7.7,0,0,0-.41-.232c-1.426-.017-2.852-.01-4.264-.01-.023.1-.05.147-.038.177.5,1.235,1,2.472,1.522,3.7a.485.485,0,0,0,.356.25c2.162.014,4.323.01,6.645.01m-9.126-.026c-.45-1.085-.874-2.123-1.31-3.153-.5-1.172-.217-.938-1.394-.956-.972-.014-1.945,0-2.914,0v4.112ZM24.9,29.025h5.6v-4.1c-1.215,0-2.38-.012-3.544.013a.616.616,0,0,0-.461.288c-.541,1.236-1.05,2.487-1.6,3.8m24.439-6.154c.01-.037.021-.076.032-.115-1.613-1.1-3.3-2.106-4.819-3.329-1.379-1.107-2.849-.529-4.3-.656,1.219,1.346,2.454,2.621,3.707,3.878a.848.848,0,0,0,.547.212c1.609.017,3.219.009,4.829.009m-35.547-.133.061.133c1.571,0,3.142.017,4.713-.015A1.206,1.206,0,0,0,19.3,22.5c1.13-1.12,2.235-2.268,3.346-3.41a3.35,3.35,0,0,0,.264-.369c-.965,0-1.843-.027-2.718.013a1.976,1.976,0,0,0-.959.3c-1.629,1.079-3.237,2.193-4.85,3.3-.2.134-.391.275-.586.413m8.018.134c.572,0,.961.006,1.349,0,.691-.015,1.531.2,2.03-.132.474-.311.6-1.187.866-1.82.3-.7.581-1.4.875-2.118a1.413,1.413,0,0,0-1.608.456c-1.106,1.2-2.264,2.339-3.513,3.616m19.446,0c-.208-.234-.333-.386-.47-.527-1.025-1.052-2.077-2.081-3.07-3.165A1.374,1.374,0,0,0,36.18,18.8c.541,1.3,1.06,2.574,1.6,3.831a.5.5,0,0,0,.374.232c.994.019,1.988.01,3.1.01m-5.608-.034c-.56-1.349-1.079-2.612-1.616-3.869a.445.445,0,0,0-.306-.234c-.374-.03-.753-.012-1.131-.012v4.115Zm-5.12-4.064c-1.321-.156-1.319-.156-1.78.972-.415,1.016-.833,2.029-1.261,3.069h3.041Z" transform="translate(-0.149)" fill="#020302"/>
        <path id="Trazado_1030881" data-name="Trazado 1030881" d="M53.782,44.573a2.5,2.5,0,0,0-.194.418,7.958,7.958,0,0,1-7.675,6.372c-.059,0-.119.013-.224.025v4.091H43.653V51.487a23.013,23.013,0,0,1-2.681-.549A8.11,8.11,0,0,1,35.5,43.116c-.038-2,.161-2.193,2.116-2.155a8.04,8.04,0,0,1,6,2.7c0-1.133.018-2.124-.016-3.116a1.12,1.12,0,0,0-.338-.563,6.1,6.1,0,0,1-1.3-6.235,6.5,6.5,0,0,1,2.058-2.909c.456-.392.924-.319,1.427.142a6.265,6.265,0,0,1,.551,9.045,1.541,1.541,0,0,0-.324.87c-.043.872-.015,1.748-.015,2.567.856-.577,1.674-1.222,2.572-1.714a7.83,7.83,0,0,1,4.48-.75c.369.028.71.443,1.063.68Zm-9.62-10.725a3.823,3.823,0,0,0-.01,3.855l.454.716a3.779,3.779,0,0,0-.03-5.254c-.14.231-.276.457-.414.683M46.9,49.109a5.4,5.4,0,0,0,3.991-2.8,4.953,4.953,0,0,0,.754-3.338l-1.922.459a5.356,5.356,0,0,0-3.214,2.6A5.765,5.765,0,0,0,45.7,49.3l1.2-.187m-5.435-.227,2.034.458a5.792,5.792,0,0,0-4.719-6.127l-1.175-.168a5.933,5.933,0,0,0,3.861,5.836" transform="translate(9.084 8.89)" fill="#020302"/>
        <rect id="Rectángulo_415500" data-name="Rectángulo 415500" width="4.02" height="2.012" transform="translate(58.847 39.501)" fill="#020302"/>
        <path id="Trazado_1030883" data-name="Trazado 1030883" d="M49.205,14.684l1-.746v4.9c-.327-.014-.654-.03-.981-.048q-.011-2.054-.021-4.111" transform="translate(12.659 4.051)" fill="#fdfdfd"/>
        <path id="Trazado_1030884" data-name="Trazado 1030884" d="M50.205,28.323l-.977-.059-.015-4.079.992-.013Z" transform="translate(12.661 7.026)" fill="#fdfdfd"/>
        <path id="Trazado_1030885" data-name="Trazado 1030885" d="M49.223,19.331l.987-.032V23.45l-1.016-.232q.015-1.942.029-3.886" transform="translate(12.656 5.61)" fill="#fdfdfd"/>
        <path id="Trazado_1030886" data-name="Trazado 1030886" d="M10.257,43.66a7.713,7.713,0,0,1,4.419-2.523,15.511,15.511,0,0,1,2.567-.159,1.022,1.022,0,0,1,1.121,1.073c.369,5.034-2.649,8.329-6.343,9.143-.554.123-1.13.145-1.751.221v4.068H8.232V51.5a24.658,24.658,0,0,1-2.786-.613A8.023,8.023,0,0,1,.1,43.435c-.009-.4-.01-.8,0-1.2.014-.871.378-1.24,1.242-1.278a8.282,8.282,0,0,1,6.866,2.705c0-1.15.014-2.181-.014-3.212,0-.148-.193-.3-.311-.438a6.06,6.06,0,0,1-.812-7.345,9.122,9.122,0,0,1,1.454-1.767.959.959,0,0,1,1.434,0,6.192,6.192,0,0,1,.832,8.822,2.1,2.1,0,0,0-.545,1.576c.048.729.011,1.464.011,2.357M8.713,33.887A3.836,3.836,0,0,0,8.7,37.653c.161.254.323.51.494.782a3.9,3.9,0,0,0-.026-5.279c-.156.248-.309.489-.46.731M6.122,48.91l1.985.422.166-.183c-.142-.7-.229-1.413-.435-2.091a5.721,5.721,0,0,0-4.55-3.849l-1.06-.165A5.829,5.829,0,0,0,6.122,48.91m8.11-5.471c-2.3.626-4.264,3.555-3.852,5.82l.886-.088a5.837,5.837,0,0,0,4.96-6.193l-1.995.461" transform="translate(-0.15 8.89)" fill="#020302"/>
        <path id="Trazado_1030887" data-name="Trazado 1030887" d="M27.94,43.549c.68-.516,1.282-1.042,1.947-1.465a8.436,8.436,0,0,1,5.139-1.106.954.954,0,0,1,1.007.9c.271,3.387-.75,6.2-3.571,8.157a7.869,7.869,0,0,1-4.509,1.34v4.111H25.939V51.447c-.688-.107-1.357-.163-2-.32a7.979,7.979,0,0,1-6.111-7.67c-.014-.44-.02-.882-.008-1.32.02-.72.34-1.116,1.025-1.158a8.256,8.256,0,0,1,6.477,2.1c.174.163.351.323.612.561,0-1.091.021-2.068-.016-3.041a1.244,1.244,0,0,0-.362-.617,6.05,6.05,0,0,1-.785-7.3,9.148,9.148,0,0,1,1.5-1.806.942.942,0,0,1,1.387.023,6.214,6.214,0,0,1,.842,8.82,2.178,2.178,0,0,0-.57,1.628c.039.721.009,1.448.009,2.2m-1.469-5.782.44.651c1.376-1.555,1.344-4.082-.043-5.244-.1.179-.207.354-.308.528a3.752,3.752,0,0,0-.09,4.066m5.5,5.671a5.345,5.345,0,0,0-3.163,2.577,4.834,4.834,0,0,0-.74,3.252l.939-.1a5.909,5.909,0,0,0,4.955-6.187l-1.991.459m-10.944-.226-1.183-.166a6,6,0,0,0,4.021,5.876,3.169,3.169,0,0,0,2.063.219,16.126,16.126,0,0,0-.358-1.972,5.7,5.7,0,0,0-4.543-3.957" transform="translate(4.47 8.889)" fill="#020302"/>
        <path id="Trazado_1030888" data-name="Trazado 1030888" d="M.9,14.516H15.671c-.209.174-.318.281-.44.365-1.7,1.163-3.4,2.328-5.106,3.477a1.436,1.436,0,0,1-.722.281c-2.842.012-5.684,0-8.526-.012q.009-2.056.02-4.112" transform="translate(0.053 4.219)" fill="#39b34a"/>
        <path id="Trazado_1030889" data-name="Trazado 1030889" d="M.891,24.177h9.566l.168.188a4.315,4.315,0,0,0-.632.452c-1.023,1.027-2.022,2.075-3.049,3.1a1.143,1.143,0,0,1-.672.359c-1.8.021-3.6,0-5.4-.012q.008-2.042.018-4.085" transform="translate(0.052 7.028)" fill="#39b34a"/>
        <path id="Trazado_1030890" data-name="Trazado 1030890" d="M12.2,50.793V48.782a3.011,3.011,0,0,1,.443-.025,2.3,2.3,0,0,0,1.953-.827,3.447,3.447,0,0,1,4.359-.755,2.153,2.153,0,0,1,.6.434,2.642,2.642,0,0,0,2.72,1.1v2.078A3.992,3.992,0,0,1,18.6,49.549c-.994-1.062-1.724-1.069-2.7-.014a4.023,4.023,0,0,1-3.7,1.258" transform="translate(3.006 13.577)" fill="#020302"/>
        <path id="Trazado_1030891" data-name="Trazado 1030891" d="M39.993,50.791a4.075,4.075,0,0,1-3.8-1.356,1.47,1.47,0,0,0-2.483,0,4.065,4.065,0,0,1-3.8,1.362V48.784a2.189,2.189,0,0,1,.358-.027,2.4,2.4,0,0,0,2.067-.858,3.437,3.437,0,0,1,4.365-.7,3.1,3.1,0,0,1,.814.657,2.306,2.306,0,0,0,2.106.9,1.942,1.942,0,0,1,.372.036Z" transform="translate(7.626 13.576)" fill="#020302"/>
        <path id="Trazado_1030892" data-name="Trazado 1030892" d="M.881,19.324H6.7L.911,23.215l-.03-3.891" transform="translate(0.054 5.617)" fill="#39b34a"/>
        <rect id="Rectángulo_415501" data-name="Rectángulo 415501" width="4.002" height="2.026" transform="translate(44.622 40.541)" fill="#020302"/>
        <rect id="Rectángulo_415502" data-name="Rectángulo 415502" width="3.998" height="2.038" transform="translate(14.196 40.537)" fill="#020302"/>
        <rect id="Rectángulo_415503" data-name="Rectángulo 415503" width="3.996" height="2.004" transform="translate(22.327 45.744)" fill="#020302"/>
        <rect id="Rectángulo_415504" data-name="Rectángulo 415504" width="3.987" height="2.035" transform="translate(36.506 45.739)" fill="#020302"/>
        <rect id="Rectángulo_415505" data-name="Rectángulo 415505" width="3.997" height="2.006" transform="translate(-0.023 39.51)" fill="#020302"/>
        <path id="Trazado_1030893" data-name="Trazado 1030893" d="M27.766,9.665q-3.639,2.985-7.281,5.964a1.037,1.037,0,0,1-.606.214q-8.165.017-16.327.006A1.789,1.789,0,0,1,3.3,15.8c.14-.134.229-.232.33-.315Q11.34,9.17,19.056,2.854c.111-.09.237-.161.356-.241Q22.859,5.457,26.3,8.3c.511.425.976.906,1.463,1.36" transform="translate(0.685 0.76)" fill="#8bc53f"/>
        <path id="Trazado_1030894" data-name="Trazado 1030894" d="M51.488,14.555c-2.558.005-5.116.014-7.676.014q-11.82,0-23.642,0h-.864c3.132-2.565,6.128-5.018,9.214-7.544.037.632.052,1.128.1,1.619a2.993,2.993,0,0,0,3.007,2.8,3.054,3.054,0,0,0,3.021-2.8,3.351,3.351,0,0,1,.1-.616.977.977,0,0,1,1.876.046c.092.405.1.832.2,1.235a4.1,4.1,0,0,0,3.914,3.2,4.148,4.148,0,0,0,4.021-3.471,1.474,1.474,0,0,1,.319.156c1.388,1.122,2.78,2.239,4.153,3.379.77.64,1.508,1.322,2.261,1.984" transform="translate(4.86 2.043)" fill="#8bc53f"/>
        <path id="Trazado_1030895" data-name="Trazado 1030895" d="M34.366,1.849c1.967,1.609,3.92,3.2,5.858,4.808a.8.8,0,0,1,.207.536c.021.858.019,1.718.006,2.577a2.022,2.022,0,1,1-4.04.111,3.093,3.093,0,0,0-2.242-3.019,3.027,3.027,0,0,0-3.81,2.607c-.108.969-.467,1.43-1.087,1.4-.642-.032-.957-.511-.972-1.482a4.5,4.5,0,0,0-.011-.691,2.842,2.842,0,0,1,1.4-3.06C31.3,4.477,32.8,3.131,34.366,1.849" transform="translate(7.185 0.537)" fill="#b1b1b1"/>
        <path id="Trazado_1030896" data-name="Trazado 1030896" d="M52.237,14.516q.011,2.056.021,4.111-4.263.014-8.524.018a.985.985,0,0,1-.518-.147c-1.89-1.278-3.772-2.568-5.636-3.982Z" transform="translate(9.627 4.219)" fill="#39b34a"/>
        <path id="Trazado_1030897" data-name="Trazado 1030897" d="M19.8,24.17c-.559,1.353-1.064,2.6-1.6,3.84a.627.627,0,0,1-.482.271c-3.291.015-6.583.012-10.029.012.276-.289.465-.49.658-.688,1.012-1.038,2.02-2.079,3.044-3.107a.944.944,0,0,1,.556-.314c2.577-.021,5.154-.014,7.856-.014" transform="translate(1.83 7.025)" fill="#39b34a"/>
        <path id="Trazado_1030898" data-name="Trazado 1030898" d="M32.8,24.17c2.706,0,5.283,0,7.86.006a.584.584,0,0,1,.381.148c1.263,1.278,2.517,2.566,3.857,3.938-.285.014-.455.028-.625.028-3.049,0-6.1-.008-9.147.012a.778.778,0,0,1-.866-.577c-.443-1.163-.941-2.305-1.459-3.556" transform="translate(8.38 7.025)" fill="#39b34a"/>
        <path id="Trazado_1030899" data-name="Trazado 1030899" d="M51.22,24.182l.015,4.079c-1.8.009-3.6.025-5.4.017a.839.839,0,0,1-.541-.234c-1.237-1.245-2.459-2.508-3.777-3.862Z" transform="translate(10.654 7.029)" fill="#39b34a"/>
        <path id="Trazado_1030900" data-name="Trazado 1030900" d="M25.844,24.17h5.277c1.295,0,1.295,0,1.787,1.193.386.938.773,1.877,1.186,2.881-.223.021-.376.048-.528.048-2.372,0-4.743-.012-7.115.013-.5.005-.63-.155-.617-.644.032-1.127.01-2.256.01-3.49" transform="translate(6.563 7.026)" fill="#39b34a"/>
        <path id="Trazado_1030901" data-name="Trazado 1030901" d="M25.912,28.257h-8.2c.556-1.337,1.081-2.62,1.63-3.891a.5.5,0,0,1,.393-.187c2.043-.012,4.085-.009,6.178-.009Z" transform="translate(4.444 7.025)" fill="#39b34a"/>
        <path id="Trazado_1030902" data-name="Trazado 1030902" d="M16,19.311c-1.384,1.421-2.636,2.712-3.9,3.991a.59.59,0,0,1-.386.138c-2.635.009-5.27.006-8.026.006.178-.157.267-.254.371-.325q2.6-1.779,5.206-3.551a1.134,1.134,0,0,1,.547-.248c2-.018,4-.012,6.186-.012" transform="translate(0.786 5.613)" fill="#39b34a"/>
        <path id="Trazado_1030903" data-name="Trazado 1030903" d="M36.726,19.319c1.362,0,2.65.09,3.92-.022a5.7,5.7,0,0,1,4.3,1.329c1.233.993,2.6,1.807,4.011,2.766a4.2,4.2,0,0,1-.478.065c-2.455,0-4.911.008-7.367-.008a1.009,1.009,0,0,1-.658-.213c-1.2-1.2-2.383-2.42-3.567-3.637a1.74,1.74,0,0,1-.163-.28" transform="translate(9.404 5.601)" fill="#39b34a"/>
        <path id="Trazado_1030904" data-name="Trazado 1030904" d="M12.529,23.448c1.36-1.394,2.6-2.669,3.849-3.937a.6.6,0,0,1,.364-.191c1.427-.013,2.853-.009,4.394-.009-.378.927-.724,1.766-1.065,2.606-.623,1.531-.622,1.531-2.244,1.531h-5.3" transform="translate(3.093 5.613)" fill="#39b34a"/>
        <path id="Trazado_1030905" data-name="Trazado 1030905" d="M39.334,23.445c-2.321,0-4.484,0-6.645-.009a.49.49,0,0,1-.357-.25c-.519-1.229-1.019-2.463-1.521-3.7-.013-.031.015-.079.037-.177,1.413,0,2.839-.006,4.265.01a.68.68,0,0,1,.409.232c1.236,1.251,2.462,2.51,3.811,3.891" transform="translate(7.86 5.613)" fill="#39b34a"/>
        <path id="Trazado_1030906" data-name="Trazado 1030906" d="M31.494,23.421H25.876V19.309c.97,0,1.942-.012,2.914,0,1.178.018.9-.216,1.4.956.436,1.031.859,2.068,1.309,3.153" transform="translate(6.574 5.611)" fill="#39b34a"/>
        <path id="Trazado_1030907" data-name="Trazado 1030907" d="M19.77,23.413c.547-1.315,1.057-2.567,1.6-3.8a.611.611,0,0,1,.461-.287c1.164-.025,2.329-.014,3.545-.014v4.1Z" transform="translate(4.981 5.612)" fill="#39b34a"/>
        <path id="Trazado_1030908" data-name="Trazado 1030908" d="M41.032,18.653c-1.61,0-3.219.006-4.829-.009a.855.855,0,0,1-.547-.212c-1.253-1.257-2.488-2.532-3.707-3.878,1.446.126,2.916-.452,4.3.656,1.521,1.222,3.206,2.229,4.82,3.329-.011.039-.021.076-.033.115" transform="translate(8.158 4.219)" fill="#39b34a"/>
        <path id="Trazado_1030909" data-name="Trazado 1030909" d="M10.96,18.524c.2-.138.39-.277.586-.413,1.615-1.1,3.223-2.215,4.85-3.294a1.957,1.957,0,0,1,.959-.3c.876-.041,1.755-.014,2.72-.014a3.548,3.548,0,0,1-.265.37c-1.11,1.141-2.215,2.288-3.345,3.409a1.2,1.2,0,0,1-.733.356c-1.571.032-3.142.017-4.713.017l-.061-.134" transform="translate(2.683 4.214)" fill="#39b34a"/>
        <path id="Trazado_1030910" data-name="Trazado 1030910" d="M46.224,14.553c-.753-.662-1.49-1.344-2.261-1.984C42.59,11.429,41.2,10.311,39.81,9.19a1.474,1.474,0,0,0-.319-.156c.039-.618.079-1.235.129-2L48.8,14.553Z" transform="translate(10.125 2.045)" fill="#68932e"/>
        <path id="Trazado_1030911" data-name="Trazado 1030911" d="M24.432,9.85c-.487-.454-.952-.936-1.463-1.36Q19.533,5.632,16.078,2.8c1.064-1.079,1.057-1.07,2.167-.107Q21.566,5.567,24.9,8.426c.185.159.361.329.61.558l-1.079.866" transform="translate(4.018 0.575)" fill="#68932e"/>
        <path id="Trazado_1030912" data-name="Trazado 1030912" d="M50.421,19.324q-.015,1.944-.029,3.886L44.6,19.324Z" transform="translate(11.458 5.617)" fill="#39b34a"/>
        <path id="Trazado_1030913" data-name="Trazado 1030913" d="M17.319,18.657c1.248-1.278,2.407-2.42,3.513-3.616a1.411,1.411,0,0,1,1.608-.454c-.3.712-.579,1.417-.875,2.118-.267.631-.392,1.509-.866,1.819-.5.328-1.339.116-2.03.133-.388.009-.777,0-1.349,0" transform="translate(4.342 4.216)" fill="#39b34a"/>
        <path id="Trazado_1030914" data-name="Trazado 1030914" d="M33.792,18.655c-1.111,0-2.106.009-3.1-.01a.5.5,0,0,1-.374-.232c-.542-1.257-1.062-2.526-1.6-3.831a1.374,1.374,0,0,1,1.536.382c.994,1.084,2.045,2.113,3.07,3.166.137.141.262.293.47.525" transform="translate(7.315 4.216)" fill="#39b34a"/>
        <path id="Trazado_1030915" data-name="Trazado 1030915" d="M28.926,18.623H25.872V14.508c.378,0,.756-.018,1.131.01a.451.451,0,0,1,.308.235c.536,1.257,1.055,2.521,1.615,3.869" transform="translate(6.573 4.216)" fill="#39b34a"/>
        <path id="Trazado_1030916" data-name="Trazado 1030916" d="M24.862,14.561V18.6H21.821c.427-1.04.846-2.053,1.261-3.069.461-1.128.459-1.128,1.78-.972" transform="translate(5.516 4.211)" fill="#39b34a"/>
        <path id="Trazado_1030917" data-name="Trazado 1030917" d="M41.034,46.075a5.933,5.933,0,0,1-3.861-5.836l1.175.168a1.8,1.8,0,0,0,.3.449,6.647,6.647,0,0,1,2.417,4.406,4.208,4.208,0,0,1-.034.813" transform="translate(9.517 11.696)" fill="#39b34a"/>
        <path id="Trazado_1030918" data-name="Trazado 1030918" d="M44.793,46.216l-1.2.187a5.751,5.751,0,0,1,.812-3.264,5.35,5.35,0,0,1,3.214-2.6,6.953,6.953,0,0,1-1.359,3.975c-.455.6-.975,1.137-1.465,1.7" transform="translate(11.194 11.783)" fill="#39b34a"/>
        <path id="Trazado_1030919" data-name="Trazado 1030919" d="M40.789,46.038a4.208,4.208,0,0,0,.034-.813,6.647,6.647,0,0,0-2.417-4.406,1.8,1.8,0,0,1-.3-.449A5.792,5.792,0,0,1,42.822,46.5l-2.034-.458" transform="translate(9.763 11.734)" fill="#2a8637"/>
        <path id="Trazado_1030920" data-name="Trazado 1030920" d="M44.544,46.319c.49-.567,1.01-1.109,1.465-1.7a6.953,6.953,0,0,0,1.359-3.975l1.922-.459a4.953,4.953,0,0,1-.755,3.338,5.392,5.392,0,0,1-3.991,2.8" transform="translate(11.443 11.68)" fill="#2a8637"/>
        <path id="Trazado_1030921" data-name="Trazado 1030921" d="M42.372,33.268c.137-.226.274-.453.414-.683a3.779,3.779,0,0,1,.03,5.254c-.156-.247-.305-.481-.455-.716a4.065,4.065,0,0,0,.011-3.855" transform="translate(10.874 9.472)" fill="#9f7565"/>
        <path id="Trazado_1030922" data-name="Trazado 1030922" d="M42.479,33.114a4.065,4.065,0,0,1-.011,3.855,3.826,3.826,0,0,1,.011-3.855" transform="translate(10.767 9.625)" fill="#d19a86"/>
        <path id="Trazado_1030923" data-name="Trazado 1030923" d="M9.151,46.276l-.888.089c-.414-2.265,1.551-5.195,3.852-5.82a5.056,5.056,0,0,1-.881,3.325,31,31,0,0,1-2.083,2.406" transform="translate(1.966 11.785)" fill="#39b34a"/>
        <path id="Trazado_1030924" data-name="Trazado 1030924" d="M5.686,46.1a5.825,5.825,0,0,1-3.893-5.866l1.059.165a3.189,3.189,0,0,0,.266.318A6.869,6.869,0,0,1,5.686,46.1" transform="translate(0.285 11.696)" fill="#39b34a"/>
        <path id="Trazado_1030925" data-name="Trazado 1030925" d="M5.461,46.067a6.869,6.869,0,0,0-2.568-5.383,3.188,3.188,0,0,1-.266-.318,5.719,5.719,0,0,1,4.549,3.849c.207.678.294,1.393.435,2.091l-.166.183-1.983-.422" transform="translate(0.51 11.733)" fill="#2a8637"/>
        <path id="Trazado_1030926" data-name="Trazado 1030926" d="M8.956,46.379a31,31,0,0,0,2.083-2.406,5.056,5.056,0,0,0,.881-3.325c.661-.155,1.323-.307,2-.461a5.837,5.837,0,0,1-4.96,6.191" transform="translate(2.161 11.682)" fill="#2a8637"/>
        <path id="Trazado_1030927" data-name="Trazado 1030927" d="M6.931,33.307l.46-.729a3.9,3.9,0,0,1,.026,5.278l-.494-.782c.1-.114.267-.222.276-.342.058-.875.117-1.753.1-2.628-.005-.267-.241-.53-.371-.8" transform="translate(1.63 9.47)" fill="#9f7565"/>
        <path id="Trazado_1030928" data-name="Trazado 1030928" d="M7.032,33.143c.13.266.366.529.371.8.015.875-.044,1.753-.1,2.628-.009.12-.18.228-.276.342a3.836,3.836,0,0,1,.008-3.766" transform="translate(1.529 9.634)" fill="#d19a86"/>
        <path id="Trazado_1030929" data-name="Trazado 1030929" d="M23.448,46.115a6,6,0,0,1-4.021-5.876l1.183.166a2.889,2.889,0,0,0,.265.318,7.178,7.178,0,0,1,2.573,5.392" transform="translate(4.892 11.696)" fill="#39b34a"/>
        <path id="Trazado_1030930" data-name="Trazado 1030930" d="M26.9,46.27l-.939.1a4.83,4.83,0,0,1,.74-3.251,5.352,5.352,0,0,1,3.163-2.579,25.479,25.479,0,0,1-.656,2.812A8.182,8.182,0,0,1,26.9,46.27" transform="translate(6.583 11.784)" fill="#39b34a"/>
        <path id="Trazado_1030931" data-name="Trazado 1030931" d="M26.694,46.373A8.181,8.181,0,0,0,29,43.458a25.48,25.48,0,0,0,.656-2.812l1.991-.458a5.908,5.908,0,0,1-4.955,6.186" transform="translate(6.787 11.681)" fill="#2a8637"/>
        <path id="Trazado_1030932" data-name="Trazado 1030932" d="M23.2,46.078a7.178,7.178,0,0,0-2.573-5.392,2.889,2.889,0,0,1-.265-.318,5.7,5.7,0,0,1,4.543,3.957,16.1,16.1,0,0,1,.358,1.973,3.178,3.178,0,0,1-2.063-.221" transform="translate(5.136 11.734)" fill="#2a8637"/>
        <path id="Trazado_1030933" data-name="Trazado 1030933" d="M24.77,33.118l.308-.528c1.387,1.162,1.418,3.689.043,5.244l-.44-.651a8.034,8.034,0,0,0,.327-.789,5.714,5.714,0,0,0-.237-3.277" transform="translate(6.262 9.473)" fill="#9f7565"/>
        <path id="Trazado_1030934" data-name="Trazado 1030934" d="M24.884,33a5.714,5.714,0,0,1,.237,3.277,8.033,8.033,0,0,1-.327.789A3.752,3.752,0,0,1,24.884,33" transform="translate(6.147 9.592)" fill="#d19a86"/>
      </g>
    </g>
  </g>
</svg>
