<svg xmlns="http://www.w3.org/2000/svg" xmlns:xlink="http://www.w3.org/1999/xlink" width="84.236" height="84.236" viewBox="0 0 84.236 84.236">
  <defs>
    <filter id="Trazado_982547" x="0" y="0" width="84.236" height="84.236" filterUnits="userSpaceOnUse">
      <feOffset dy="3" input="SourceAlpha"/>
      <feGaussianBlur stdDeviation="3" result="blur"/>
      <feFlood flood-opacity="0.161"/>
      <feComposite operator="in" in2="blur"/>
      <feComposite in="SourceGraphic"/>
    </filter>
    <clipPath id="clip-path">
      <rect id="Rectángulo_415600" data-name="Rectángulo 415600" width="43" height="43" transform="translate(0 -0.453)" fill="none"/>
    </clipPath>
  </defs>
  <g id="Grupo_1175533" data-name="Grupo 1175533" transform="translate(-586.25 -914.212)">
    <g id="Grupo_1175060" data-name="Grupo 1175060" transform="translate(595.25 920.212)">
      <g id="Grupo_1174859" data-name="Grupo 1174859" transform="translate(0)">
        <g id="Grupo_1167343" data-name="Grupo 1167343">
          <g id="Grupo_1166777" data-name="Grupo 1166777" transform="translate(0)">
            <g id="Grupo_1164305" data-name="Grupo 1164305">
              <g id="Grupo_1163948" data-name="Grupo 1163948">
                <g id="Grupo_1158168" data-name="Grupo 1158168">
                  <g id="Grupo_1152576" data-name="Grupo 1152576">
                    <g id="Grupo_1148633" data-name="Grupo 1148633">
                      <g id="Grupo_1148525" data-name="Grupo 1148525">
                        <g transform="matrix(1, 0, 0, 1, -9, -6)" filter="url(#Trazado_982547)">
                          <g id="Trazado_982547-2" data-name="Trazado 982547" transform="translate(9 6)" fill="#f4f9ff">
                            <path d="M 33.1181640625 64.73633575439453 C 28.84908485412598 64.73633575439453 24.70849418640137 63.90056228637695 20.81141471862793 62.25223541259766 C 17.04652404785156 60.65982437133789 13.66499423980713 58.37983322143555 10.7607536315918 55.47559356689453 C 7.856503963470459 52.57134246826172 5.57651424407959 49.18981552124023 3.984104156494141 45.42492294311523 C 2.335773944854736 41.5278434753418 1.500004053115845 37.38725280761719 1.500004053115845 33.1181640625 C 1.500004053115845 28.84908485412598 2.335773944854736 24.70849418640137 3.984104156494141 20.81141471862793 C 5.57651424407959 17.04652404785156 7.856513977050781 13.66499423980713 10.7607536315918 10.7607536315918 C 13.66499423980713 7.856513977050781 17.04652404785156 5.57651424407959 20.81141471862793 3.984104156494141 C 24.70849418640137 2.335773944854736 28.84908485412598 1.500004053115845 33.1181640625 1.500004053115845 C 37.38725280761719 1.500004053115845 41.5278434753418 2.335773944854736 45.42492294311523 3.984104156494141 C 49.18981552124023 5.57651424407959 52.57134246826172 7.856503963470459 55.47559356689453 10.7607536315918 C 58.37983322143555 13.66499423980713 60.65982437133789 17.04652404785156 62.25223541259766 20.81141471862793 C 63.90056228637695 24.70849418640137 64.73633575439453 28.84908485412598 64.73633575439453 33.1181640625 C 64.73633575439453 37.38725280761719 63.90056228637695 41.5278434753418 62.25223541259766 45.42492294311523 C 60.65982437133789 49.18981552124023 58.37983322143555 52.57135391235352 55.47559356689453 55.47559356689453 C 52.57135391235352 58.37983322143555 49.18981552124023 60.65982437133789 45.42492294311523 62.25223541259766 C 41.5278434753418 63.90056228637695 37.38725280761719 64.73633575439453 33.1181640625 64.73633575439453 Z" stroke="none"/>
                            <path d="M 33.1181640625 2.999996185302734 C 29.05091857910156 2.999996185302734 25.10691833496094 3.7958984375 21.3957405090332 5.365596771240234 C 17.80964279174805 6.88238525390625 14.58837509155273 9.054443359375 11.82140731811523 11.82140731811523 C 9.054443359375 14.58837509155273 6.88238525390625 17.80964279174805 5.365596771240234 21.3957405090332 C 3.7958984375 25.10691833496094 2.999996185302734 29.05091857910156 2.999996185302734 33.1181640625 C 2.999996185302734 37.18541717529297 3.7958984375 41.12940979003906 5.365596771240234 44.84059906005859 C 6.88238525390625 48.42668533325195 9.054431915283203 51.64796447753906 11.82140731811523 54.41493225097656 C 14.58837509155273 57.1818962097168 17.80964279174805 59.35394287109375 21.39572906494141 60.87073135375977 C 25.10691833496094 62.4404296875 29.05091857910156 63.23633193969727 33.1181640625 63.23633193969727 C 37.18541717529297 63.23633193969727 41.12940979003906 62.4404296875 44.84059906005859 60.87073135375977 C 48.42668533325195 59.35394287109375 51.64796447753906 57.1818962097168 54.41493225097656 54.41493225097656 C 57.1818962097168 51.64796447753906 59.35394287109375 48.42668533325195 60.87073135375977 44.84059906005859 C 62.4404296875 41.12940979003906 63.23633193969727 37.18541717529297 63.23633193969727 33.1181640625 C 63.23633193969727 29.05091857910156 62.4404296875 25.10691833496094 60.87073135375977 21.39572906494141 C 59.35394287109375 17.80964279174805 57.1818962097168 14.58837509155273 54.41493225097656 11.82140731811523 C 51.64796447753906 9.054431915283203 48.42668533325195 6.88238525390625 44.84059906005859 5.365596771240234 C 41.12940979003906 3.7958984375 37.18541717529297 2.999996185302734 33.1181640625 2.999996185302734 M 33.1181640625 0 C 51.40882873535156 0 66.236328125 14.82750701904297 66.236328125 33.1181640625 C 66.236328125 51.40882873535156 51.40882873535156 66.236328125 33.1181640625 66.236328125 C 14.82750701904297 66.236328125 0 51.40882873535156 0 33.1181640625 C 0 14.82750701904297 14.82750701904297 0 33.1181640625 0 Z" stroke="none" fill="#6a8051"/>
                          </g>
                        </g>
                      </g>
                    </g>
                  </g>
                </g>
              </g>
            </g>
          </g>
        </g>
      </g>
    </g>
    <g id="Grupo_1175725" data-name="Grupo 1175725" transform="translate(607 932.783)">
      <g id="Grupo_1175724" data-name="Grupo 1175724" clip-path="url(#clip-path)">
        <path id="Trazado_1031354" data-name="Trazado 1031354" d="M5.594,71.8c-.37-1.562-.725-3.129-1.12-4.685a.84.84,0,0,1,.364-1.09c.593.07.7.143.838.729.442,1.85.869,3.7,1.305,5.555A3.166,3.166,0,0,0,7.3,73.492a13.467,13.467,0,0,1,1.973,3.659c.056.226.1.456.175.675.028.085.121.206.19.209.4.02.809.01,1.268.01l-.195-.9a2.366,2.366,0,0,0-.021-.288A48.928,48.928,0,0,0,6.851,64.8a27.438,27.438,0,0,0-2.938-4.834,3.88,3.88,0,0,0-.347-.352c.408,1.487.856,2.9,1.318,4.313a.72.72,0,0,1-.334.951c-.582.011-.7-.088-.891-.643Q2.437,60.658,1.2,57.087c-.115-.332-.138-.628.17-.854.328-.24.613-.116.89.127a22.869,22.869,0,0,1,5.116,6.714c.611,1.167,1.147,2.374,1.766,3.666-.043-.5-.067-.913-.115-1.32A78.017,78.017,0,0,0,6.842,53.254a.6.6,0,0,1,.3-.775.627.627,0,0,1,.835.229,24.406,24.406,0,0,1,3.319,5.465,1.62,1.62,0,0,0,.735.838c.406.217.773.5,1.19.784.159-1.164.291-2.284.469-3.4.259-1.621.551-3.236.83-4.854a.62.62,0,0,1,.629-.6.608.608,0,0,1,.625.549c.576,2.668,1.2,5.326,1.715,8.006.409,2.126.683,4.278,1.025,6.417a.928.928,0,0,0,.251.475c.132-.712.251-1.428.4-2.137A29.753,29.753,0,0,1,23.389,53.52c.376-.56.818-1.076,1.238-1.605a.641.641,0,0,1,.869-.241c.345.184.348.5.284.828-.394,2.044-.849,4.079-1.162,6.136-.288,1.9-.427,3.813-.619,5.722a.435.435,0,0,0,.132.342,14.325,14.325,0,0,1,3.3,3.407.812.812,0,0,0,.123.1c.078-.756.147-1.481.228-2.2A57.838,57.838,0,0,1,30.763,52.93c.127-.356.34-.576.736-.509s.511.355.52.728q.163,6.32.34,12.639c.028,1.006.088,2.011.214,3.023.086-.594.156-1.191.262-1.782q.482-2.687.991-5.37c.105-.555.243-.655.8-.7a.749.749,0,0,1,.4,1,6.019,6.019,0,0,0-.192.889c-.441,2.89-.93,5.775-1.295,8.675-.234,1.86-.283,3.743-.414,5.615-.014.293-.028.586-.043.895h.69l.155-.886q.838-2.592,1.676-5.185a1.009,1.009,0,0,0,.049-.241c.142-2.2.244-4.413.434-6.613.221-2.557.518-5.108.787-7.661.067-.633.151-1.265.227-1.9l-.1-.023c-.063.145-.137.286-.187.435-.355,1.043-.712,2.086-1.054,3.134-.191.586-.276.669-.893.721a.9.9,0,0,1-.293-1.129,28.293,28.293,0,0,1,3.1-7.229c.045-.07.087-.141.136-.208a.592.592,0,0,1,.751-.261.615.615,0,0,1,.395.733c-.285,1.98-.61,3.956-.846,5.942-.3,2.522-.54,5.051-.785,7.58-.121,1.247-.194,2.5-.214,3.776.066-.09.138-.177.2-.271a14.584,14.584,0,0,1,3.547-3.9c.177-.131.364-.249.55-.368a.635.635,0,0,1,.9.056c.257.282.16.561-.008.87A28.358,28.358,0,0,0,40.9,68.121a31.605,31.605,0,0,0-1.835,7.321c-.128.845-.224,1.695-.344,2.607.591,0,1.15-.013,1.709,0a2.109,2.109,0,0,1,.552,4.123,2.751,2.751,0,0,1-.775.1q-12.393.008-24.786,0c-.547,0-.709-.131-.835-.653.175-.519.285-.594.888-.594h24.5a3.371,3.371,0,0,0,.455-.01.834.834,0,0,0,.727-1.067c-.152-.519-.384-.664-1.071-.664H2.375c-.1,0-.194-.006-.29,0a.773.773,0,0,0-.781.66c-.14.647.242,1.075.975,1.076q5.12,0,10.241,0c.448,0,.753.132.845.6-.119.507-.286.651-.793.652q-5.182,0-10.363,0A2.134,2.134,0,0,1,.094,80.8,1.262,1.262,0,0,0,0,80.627v-1a7.24,7.24,0,0,1,.646-.977,1.953,1.953,0,0,1,1.526-.611c.928.007,1.856,0,2.86,0-.25-.531-.445-1-.684-1.444A22.715,22.715,0,0,0,0,71.09v-.5a.925.925,0,0,1,.921-.365,10.213,10.213,0,0,1,4.61,1.635l.082.038-.018-.1M6,77.14l.32.884H8.221l-.316-.884c-.738-2.489-3.557-5.248-5.409-5.266A20.114,20.114,0,0,1,6,77.14m9.353,0v.88h1.673l-.117-.881a46,46,0,0,0-1.875-8.679c-.312-.972-.671-1.929-1.008-2.893l-.141.034c.029.238.046.478.088.713.263,1.48.6,2.95.782,4.439.259,2.122.4,4.258.6,6.388m22.212,0c.029-.177.064-.353.086-.531A39.846,39.846,0,0,1,39.477,68.3c.043-.121.074-.247.117-.4-.082.016-.117.013-.133.028a1.51,1.51,0,0,0-.171.179,22.55,22.55,0,0,0-4.036,9.028l-.211.88h2.44l.077-.881m-7.637,0c-.382-1.263-.712-2.546-1.16-3.786a18.461,18.461,0,0,0-2.829-5.162,2.354,2.354,0,0,0-.316-.283,39.667,39.667,0,0,1,1.414,5.562c.218,1.219.389,2.448.58,3.672l.065.871h2.456l-.211-.875m-9.728,0a24.423,24.423,0,0,0-1.728-8.264,18.4,18.4,0,0,0-4.735-6.9A45.155,45.155,0,0,1,18.185,77.14l.089.88h1.975c-.019-.315-.037-.6-.054-.883m11.035.023c.133.3-.089.812.557.909l-.106-.925c-.076-1.309-.171-2.617-.225-3.927q-.274-6.581-.52-13.163c-.037-1.017-.006-2.037-.006-3.055l-.132-.013c-.019.061-.041.121-.058.182A59.893,59.893,0,0,0,28.7,69.932a.791.791,0,0,0,.077.4,29.442,29.442,0,0,1,2.45,6.833m-9.75-.016v.877h1.277c-.02-.312-.038-.6-.056-.88-.048-1.076-.145-2.151-.134-3.226.031-3.133.011-6.272.192-9.4.148-2.557.552-5.1.855-7.646.066-.556.181-1.105.274-1.658l-.12-.038c-.4.8-.833,1.58-1.2,2.393a34.938,34.938,0,0,0-2.656,9.7,3.947,3.947,0,0,0,.14,2.343,10.6,10.6,0,0,1,.527,1.7,30.59,30.59,0,0,1,.9,5.838m-9.45,0c.029.231.043.465.094.691.018.082.124.2.193.2.586.016,1.172.009,1.794.009-.016-.337-.03-.623-.044-.909-.1-1.377-.163-2.756-.294-4.13a50.161,50.161,0,0,0-1.838-9.577,32.913,32.913,0,0,0-2.707-6.609,3.6,3.6,0,0,0-.251-.35.416.416,0,0,0-.011.276,103.565,103.565,0,0,1,1.651,12.3,27.012,27.012,0,0,0,.228,2.848c.335,1.759.784,3.5,1.185,5.244m11.852-9.862a87.489,87.489,0,0,0,.152,10.744h2.4a35.6,35.6,0,0,0-2.548-10.744M16.79,63.334l.13-.023-1.6-8.594-.152.011c-.243,1.825-.47,3.652-.742,5.473a1.07,1.07,0,0,0,.4,1.026c.683.676,1.317,1.4,1.97,2.107m22.8,4.463-.026.026.026.026.026-.039-.026-.012" transform="translate(0 -45.296)" fill="#030302"/>
        <path id="Trazado_1031355" data-name="Trazado 1031355" d="M0,232.795a22.713,22.713,0,0,1,4.348,5.513c.239.445.434.913.684,1.444-1,0-1.932.005-2.86,0a1.953,1.953,0,0,0-1.526.611,7.239,7.239,0,0,0-.646.977v-8.542" transform="translate(0 -207.002)" fill="#fcfcfc"/>
        <path id="Trazado_1031356" data-name="Trazado 1031356" d="M51.4,312.84a.834.834,0,0,1-.727,1.067,3.41,3.41,0,0,1-.455.01h-24.5c-.6,0-.713.075-.888.594H23.6c-.092-.468-.4-.6-.845-.6q-5.121.014-10.241,0c-.733,0-1.115-.429-.975-1.076.779.057,1.557.164,2.336.164q17.591.016,35.183,0c.779,0,1.557-.107,2.336-.164" transform="translate(-10.237 -278.178)" fill="#c68a54"/>
        <path id="Trazado_1031357" data-name="Trazado 1031357" d="M33.165,134.481a.72.72,0,0,0,.334-.951c-.462-1.411-.91-2.826-1.318-4.313a3.88,3.88,0,0,1,.347.352,27.426,27.426,0,0,1,2.938,4.834A48.933,48.933,0,0,1,39.3,146.458a2.369,2.369,0,0,1,.021.288l-1.437.009a13.466,13.466,0,0,0-1.973-3.659,3.166,3.166,0,0,1-.319-1.181c-.436-1.851-.863-3.7-1.305-5.555-.14-.587-.245-.66-.838-.73l-.289-1.149" transform="translate(-28.615 -114.9)" fill="#9bc33c"/>
        <path id="Trazado_1031358" data-name="Trazado 1031358" d="M300.713,96.626c.617-.053.7-.136.894-.721.342-1.048.7-2.091,1.054-3.134.051-.149.124-.29.187-.435l.1.023c-.076.632-.161,1.264-.227,1.9-.269,2.553-.565,5.1-.787,7.661-.19,2.2-.291,4.409-.434,6.613a1,1,0,0,1-.049.241q-.836,2.593-1.676,5.185l-.8-.008c.132-1.873.18-3.756.414-5.615.365-2.9.854-5.784,1.295-8.675a5.982,5.982,0,0,1,.192-.889.749.749,0,0,0-.4-1l.24-1.142" transform="translate(-265.847 -82.105)" fill="#b4e145"/>
        <path id="Trazado_1031359" data-name="Trazado 1031359" d="M83.834,121.536c-.4-1.747-.85-3.484-1.185-5.244a27.01,27.01,0,0,1-.228-2.847,103.567,103.567,0,0,0-1.651-12.3.416.416,0,0,1,.011-.276,3.585,3.585,0,0,1,.251.35,32.905,32.905,0,0,1,2.707,6.609,50.163,50.163,0,0,1,1.838,9.577c.13,1.373.2,2.753.294,4.13l-2.037,0" transform="translate(-71.804 -89.689)" fill="#b4e145"/>
        <path id="Trazado_1031360" data-name="Trazado 1031360" d="M180.417,111.131a30.59,30.59,0,0,0-.9-5.838,10.629,10.629,0,0,0-.527-1.7,3.946,3.946,0,0,1-.14-2.343,34.937,34.937,0,0,1,2.656-9.7c.367-.813.8-1.6,1.2-2.393l.12.038c-.093.552-.208,1.1-.274,1.658-.3,2.547-.706,5.09-.855,7.646-.181,3.126-.161,6.264-.192,9.4-.011,1.075.086,2.151.134,3.226l-1.222,0" transform="translate(-158.937 -79.283)" fill="#9bc33c"/>
        <path id="Trazado_1031361" data-name="Trazado 1031361" d="M51.626,307.5c-.779.057-1.557.164-2.336.164q-17.591.016-35.183,0c-.779,0-1.558-.107-2.336-.164a.773.773,0,0,1,.781-.66c.1-.009.193,0,.29,0H50.555c.687,0,.919.145,1.071.664" transform="translate(-10.467 -272.836)" fill="#e8a661"/>
        <path id="Trazado_1031362" data-name="Trazado 1031362" d="M261.572,125.676a29.441,29.441,0,0,0-2.45-6.833.792.792,0,0,1-.077-.4,59.887,59.887,0,0,1,2.038-12.764c.017-.061.038-.122.058-.182l.132.013c0,1.018-.032,2.038.006,3.055q.242,6.582.52,13.163c.055,1.31.149,2.618.225,3.927l-.451.016" transform="translate(-230.342 -93.813)" fill="#9bc33c"/>
        <path id="Trazado_1031363" data-name="Trazado 1031363" d="M128.386,165.717a45.154,45.154,0,0,0-4.453-15.163,18.4,18.4,0,0,1,4.735,6.9,24.421,24.421,0,0,1,1.728,8.265l-2.01,0" transform="translate(-110.201 -133.873)" fill="#b4e145"/>
        <path id="Trazado_1031364" data-name="Trazado 1031364" d="M214.79,198.423a35.6,35.6,0,0,1,2.548,10.744h-2.4a87.488,87.488,0,0,1-.152-10.744" transform="translate(-190.909 -176.438)" fill="#fcfcfc"/>
        <path id="Trazado_1031365" data-name="Trazado 1031365" d="M233.207,213.341c-.192-1.224-.362-2.452-.58-3.672a39.684,39.684,0,0,0-1.414-5.562,2.363,2.363,0,0,1,.316.283,18.463,18.463,0,0,1,2.829,5.162c.447,1.24.777,2.522,1.16,3.786l-2.31,0" transform="translate(-205.595 -181.492)" fill="#b4e145"/>
        <path id="Trazado_1031366" data-name="Trazado 1031366" d="M318.182,213.318a22.548,22.548,0,0,1,4.036-9.028,1.5,1.5,0,0,1,.171-.179c.017-.016.051-.012.133-.028-.044.149-.075.274-.117.4a39.855,39.855,0,0,0-1.831,8.307c-.022.178-.057.354-.086.531h-2.306" transform="translate(-282.928 -181.471)" fill="#9bc33c"/>
        <path id="Trazado_1031367" data-name="Trazado 1031367" d="M126.74,194.548c-.194-2.13-.34-4.266-.6-6.388-.182-1.489-.519-2.96-.782-4.439-.042-.236-.059-.475-.088-.713l.141-.033c.337.964.7,1.921,1.008,2.893a45.993,45.993,0,0,1,1.875,8.679H126.74" transform="translate(-111.392 -162.701)" fill="#9bc33c"/>
        <path id="Trazado_1031368" data-name="Trazado 1031368" d="M132.415,93.643c-.654-.705-1.288-1.431-1.97-2.107a1.07,1.07,0,0,1-.4-1.026c.273-1.821.5-3.648.742-5.473l.152-.011,1.6,8.594-.13.023" transform="translate(-115.625 -75.605)" fill="#9bc33c"/>
        <path id="Trazado_1031369" data-name="Trazado 1031369" d="M26.031,245.142a20.114,20.114,0,0,0-3.5-5.266c1.852.018,4.671,2.776,5.409,5.266h-1.91" transform="translate(-20.035 -213.298)" fill="#b4e145"/>
        <path id="Trazado_1031370" data-name="Trazado 1031370" d="M249.214,287.416l2.31,0,.21.875h-2.456l-.065-.871" transform="translate(-221.601 -255.567)" fill="#9bc33c"/>
        <path id="Trazado_1031371" data-name="Trazado 1031371" d="M316.491,287.426H318.8l-.077.881h-2.44l.211-.88" transform="translate(-281.237 -255.579)" fill="#8eac2f"/>
        <path id="Trazado_1031372" data-name="Trazado 1031372" d="M108.573,287.4l2.037,0c.014.286.028.571.044.909-.622,0-1.208.007-1.794-.009-.069,0-.175-.122-.193-.2-.051-.226-.065-.46-.094-.691" transform="translate(-96.543 -255.549)" fill="#9bc33c"/>
        <path id="Trazado_1031373" data-name="Trazado 1031373" d="M164.127,287.384l2.01,0c.018.284.035.568.054.883h-1.975l-.089-.881" transform="translate(-145.942 -255.54)" fill="#9bc33c"/>
        <path id="Trazado_1031374" data-name="Trazado 1031374" d="M54.11,287.4h1.91l.316.884H54.43l-.32-.884" transform="translate(-48.115 -255.557)" fill="#9bc33c"/>
        <path id="Trazado_1031375" data-name="Trazado 1031375" d="M138.524,287.42h1.556l.117.881h-1.673Z" transform="translate(-123.176 -255.573)" fill="#8eac2f"/>
        <path id="Trazado_1031376" data-name="Trazado 1031376" d="M83.694,287.431l1.437-.009.195.9c-.459,0-.864.01-1.268-.01-.068,0-.161-.125-.19-.209-.074-.22-.118-.45-.175-.676" transform="translate(-74.421 -255.576)" fill="#8eac2f"/>
        <path id="Trazado_1031377" data-name="Trazado 1031377" d="M193.866,287.413l1.222,0c.018.284.036.568.056.88h-1.277Z" transform="translate(-172.386 -255.565)" fill="#8eac2f"/>
        <path id="Trazado_1031378" data-name="Trazado 1031378" d="M298.632,287.391l.8.008-.155.886h-.69l.043-.895" transform="translate(-265.506 -255.548)" fill="#9bc33c"/>
        <path id="Trazado_1031379" data-name="Trazado 1031379" d="M281.867,287.454l.451-.016.106.925c-.646-.1-.424-.609-.557-.909" transform="translate(-250.637 -255.59)" fill="#8eac2f"/>
        <path id="Trazado_1031380" data-name="Trazado 1031380" d="M357.134,203.074l.026.013-.026.039-.026-.026.026-.026" transform="translate(-317.541 -180.574)" fill="#9bc33c"/>
        <path id="Trazado_1031381" data-name="Trazado 1031381" d="M49.981,239.214l.018.1-.081-.038.063-.061" transform="translate(-44.387 -212.709)" fill="#fdfdfd"/>
      </g>
    </g>
  </g>
</svg>
