<svg xmlns="http://www.w3.org/2000/svg" xmlns:xlink="http://www.w3.org/1999/xlink" width="113" height="113" viewBox="0 0 113 113">
  <defs>
    <filter id="Trazado_982547" x="0" y="0" width="113" height="113" filterUnits="userSpaceOnUse">
      <feOffset dy="3" input="SourceAlpha"/>
      <feGaussianBlur stdDeviation="3" result="blur"/>
      <feFlood flood-opacity="0.161"/>
      <feComposite operator="in" in2="blur"/>
      <feComposite in="SourceGraphic"/>
    </filter>
    <clipPath id="clip-path">
      <rect id="Rectángulo_415588" data-name="Rectángulo 415588" width="59.935" height="57.482" fill="none"/>
    </clipPath>
  </defs>
  <g id="Grupo_1175135" data-name="Grupo 1175135" transform="translate(-586.25 -914.212)">
    <g id="Grupo_1175060" data-name="Grupo 1175060" transform="translate(314.25 -90.841)">
      <g id="Grupo_1174859" data-name="Grupo 1174859" transform="translate(281 1011.053)">
        <g id="Grupo_1167343" data-name="Grupo 1167343" transform="translate(0)">
          <g id="Grupo_1166777" data-name="Grupo 1166777" transform="translate(0)">
            <g id="Grupo_1164305" data-name="Grupo 1164305">
              <g id="Grupo_1163948" data-name="Grupo 1163948">
                <g id="Grupo_1158168" data-name="Grupo 1158168">
                  <g id="Grupo_1152576" data-name="Grupo 1152576">
                    <g id="Grupo_1148633" data-name="Grupo 1148633">
                      <g id="Grupo_1148525" data-name="Grupo 1148525">
                        <g transform="matrix(1, 0, 0, 1, -9, -6)" filter="url(#Trazado_982547)">
                          <g id="Trazado_982547-2" data-name="Trazado 982547" transform="translate(9 6)" fill="#f4f9ff">
                            <path d="M 47.5 93.5 C 41.28937149047852 93.5 35.26533508300781 92.28397369384766 29.59518623352051 89.88570404052734 C 24.11771965026855 87.56893157958984 19.19813346862793 84.25196075439453 14.97309303283691 80.02691650390625 C 10.74804019927979 75.80186462402344 7.431066513061523 70.88229370117188 5.114293098449707 65.40481567382812 C 2.716026782989502 59.73468017578125 1.5 53.71062850952148 1.5 47.5 C 1.5 41.28937149047852 2.716026782989502 35.26533508300781 5.114293098449707 29.59518623352051 C 7.431066513061523 24.11771965026855 10.74804019927979 19.19813346862793 14.97309303283691 14.97309303283691 C 19.19813346862793 10.74804019927979 24.11771965026855 7.431066513061523 29.59518623352051 5.114293098449707 C 35.26533508300781 2.716026782989502 41.28937149047852 1.5 47.5 1.5 C 53.71062850952148 1.5 59.73468017578125 2.716026782989502 65.40481567382812 5.114293098449707 C 70.88229370117188 7.431066513061523 75.80186462402344 10.74804019927979 80.02691650390625 14.97309303283691 C 84.25196075439453 19.19813346862793 87.56893157958984 24.11771965026855 89.88570404052734 29.59518623352051 C 92.28397369384766 35.26533508300781 93.5 41.28937149047852 93.5 47.5 C 93.5 53.71062850952148 92.28397369384766 59.73468017578125 89.88570404052734 65.40481567382812 C 87.56893157958984 70.88229370117188 84.25196075439453 75.80186462402344 80.02691650390625 80.02691650390625 C 75.80186462402344 84.25196075439453 70.88229370117188 87.56893157958984 65.40481567382812 89.88570404052734 C 59.73468017578125 92.28397369384766 53.71062850952148 93.5 47.5 93.5 Z" stroke="none"/>
                            <path d="M 47.5 3 C 41.49121475219727 3 35.66376876831055 4.176155090332031 30.17950439453125 6.495796203613281 C 24.88084411621094 8.736953735351562 20.12152099609375 11.94598388671875 16.03375244140625 16.03375244140625 C 11.94598388671875 20.12152099609375 8.736953735351562 24.88084411621094 6.495796203613281 30.17950439453125 C 4.176155090332031 35.66376876831055 3 41.49121475219727 3 47.5 C 3 53.50878524780273 4.176155090332031 59.33624649047852 6.495796203613281 64.82049560546875 C 8.736953735351562 70.11917114257812 11.94598388671875 74.87849426269531 16.03375244140625 78.96626281738281 C 20.12152099609375 83.05403137207031 24.88084411621094 86.2630615234375 30.17950439453125 88.50419616699219 C 35.66376876831055 90.82384490966797 41.49121475219727 92 47.5 92 C 53.50878524780273 92 59.33624649047852 90.82384490966797 64.82049560546875 88.50419616699219 C 70.11917114257812 86.2630615234375 74.87849426269531 83.05403137207031 78.96626281738281 78.96626281738281 C 83.05403137207031 74.87849426269531 86.2630615234375 70.11917114257812 88.50419616699219 64.82049560546875 C 90.82384490966797 59.33624649047852 92 53.50878524780273 92 47.5 C 92 41.49121475219727 90.82384490966797 35.66376876831055 88.50419616699219 30.17950439453125 C 86.2630615234375 24.88084411621094 83.05403137207031 20.12152099609375 78.96626281738281 16.03375244140625 C 74.87849426269531 11.94598388671875 70.11917114257812 8.736953735351562 64.82049560546875 6.495796203613281 C 59.33624649047852 4.176155090332031 53.50878524780273 3 47.5 3 M 47.5 0 C 73.73353576660156 0 95 21.2664794921875 95 47.5 C 95 73.73353576660156 73.73353576660156 95 47.5 95 C 21.2664794921875 95 0 73.73353576660156 0 47.5 C 0 21.2664794921875 21.2664794921875 0 47.5 0 Z" stroke="none" fill="#719acc"/>
                          </g>
                        </g>
                      </g>
                    </g>
                  </g>
                </g>
              </g>
            </g>
          </g>
        </g>
      </g>
    </g>
    <g id="Grupo_1175695" data-name="Grupo 1175695" transform="translate(615.264 938.971)">
      <g id="Grupo_1175694" data-name="Grupo 1175694" transform="translate(0 0)" clip-path="url(#clip-path)">
        <path id="Trazado_1031216" data-name="Trazado 1031216" d="M0,50.969a6.2,6.2,0,0,0,6.49,6.513q15.727,0,31.453,0a6.2,6.2,0,0,0,6.5-6.509q0-4.932,0-9.863v-.65c.372-.143.678-.268.989-.378.108-.036.271-.086.34-.036.652.473,1.512.622,1.971,1.409.309.531.816.942,1.176,1.45a2.446,2.446,0,0,1,.229.818,3.766,3.766,0,0,0,.369,1.382c1.494,1.867,3.046,3.689,4.6,5.5a2.158,2.158,0,0,0,3.163.244q.9-.725,1.771-1.48a2.172,2.172,0,0,0,.277-3.252c-1.477-1.774-2.972-3.534-4.456-5.3a1.827,1.827,0,0,0-1.518-.718.716.716,0,0,1-.524-.2c-.939-1.213-2.319-2.16-2.373-4.012-.033.065-.009.006.024-.045a11.363,11.363,0,0,0-5.656-16.9c-.378-.139-.388-.339-.388-.646,0-2.683.032-5.367-.009-8.052A6.03,6.03,0,0,0,39.093,4.3c-1.98-.185-3.988-.086-5.983-.113-.218,0-.435,0-.649,0-.041-1.385-.169-1.512-1.451-1.512H27.157a5.928,5.928,0,0,0-9.908,0c-1.259,0-2.528.033-3.8-.009-1.216-.042-1.549.265-1.472,1.4,0,.029-.044.062-.086.117-1.769,0-3.556,0-5.343,0A6.224,6.224,0,0,0,0,10.71" transform="translate(0 0)" fill="#fefefe"/>
        <path id="Trazado_1031217" data-name="Trazado 1031217" d="M0,10.709A6.225,6.225,0,0,1,6.552,4.182H11.9c.042-.054.089-.086.086-.116-.077-1.14.256-1.445,1.472-1.4,1.268.042,2.537.009,3.8.009a5.928,5.928,0,0,1,9.908,0h3.854c1.281,0,1.409.126,1.45,1.51.214,0,.432,0,.649,0,2,.029,4-.072,5.983.114a6.028,6.028,0,0,1,5.336,5.944c.042,2.683.014,5.369.009,8.052,0,.306.011.506.388.644a11.363,11.363,0,0,1,5.656,16.9c-.033.051-.057.11-.024.045.054,1.852,1.433,2.8,2.373,4.012a.719.719,0,0,0,.524.2,1.831,1.831,0,0,1,1.518.718c1.484,1.768,2.98,3.528,4.456,5.3a2.172,2.172,0,0,1-.277,3.252q-.869.757-1.771,1.48a2.158,2.158,0,0,1-3.163-.244c-1.558-1.814-3.11-3.634-4.6-5.5a3.766,3.766,0,0,1-.369-1.382,2.446,2.446,0,0,0-.229-.818c-.36-.507-.867-.918-1.176-1.45-.459-.787-1.319-.936-1.969-1.408-.071-.051-.233,0-.34.036-.313.108-.619.233-.991.376v.65q0,4.932,0,9.863a6.2,6.2,0,0,1-6.5,6.509q-15.725,0-31.453,0A6.2,6.2,0,0,1,0,50.968" transform="translate(0 0)" fill="#030404"/>
        <path id="Trazado_1031218" data-name="Trazado 1031218" d="M40.137,21.463a5.591,5.591,0,0,0-.072-.676,9.889,9.889,0,0,0-8.3-7.549,9.718,9.718,0,0,0-10.122,5.6,9.275,9.275,0,0,0,.044,8.275c1.975,4.706,7.973,6.944,12.8,4.773,1.1-.494,1.1-.494,1.965.333.024.024.075.02.166.039l2.039-1.728c-.674-1.12-.667-1.114.036-2.224a9.509,9.509,0,0,0,1.445-6.844" transform="translate(10.462 6.66)" fill="#030404"/>
        <path id="Trazado_1031219" data-name="Trazado 1031219" d="M4.431,4.039a4.537,4.537,0,0,0-3.362,4.61q0,20.226,0,40.453a4.556,4.556,0,0,0,4.8,4.833q15.793.014,31.584,0a4.569,4.569,0,0,0,4.842-4.854q.007-4.774,0-9.551v-.623l-1.774.179V39.8q0,4.589,0,9.179a2.864,2.864,0,0,1-3.156,3.178q-15.666,0-31.334,0a2.867,2.867,0,0,1-3.187-3.207q0-20.038-.011-40.078A3.083,3.083,0,0,1,4.581,5.829c.595-.051,1.189-.14,1.786-.146,1.677-.021,3.354-.008,5.062-.008v-1.8a1.884,1.884,0,0,0-.244-.033c-1.951,0-3.9-.008-5.855.009a4.77,4.77,0,0,0-.9.185" transform="translate(0.539 1.943)" fill="#030404"/>
        <path id="Trazado_1031220" data-name="Trazado 1031220" d="M28.548,30.282c-.181-.952-.44-1.9-.53-2.858a11.11,11.11,0,0,1,6.207-10.991c1.117-.536,2.334-.864,3.55-1.3,0-2.507,0-5.105,0-7.7a1.208,1.208,0,0,0-1.349-1.338c-1.664-.008-3.326,0-4.989,0h-.679c0,.266.015.453,0,.638a.83.83,0,0,1-.924.863q-9.293-.007-18.586,0a.829.829,0,0,1-.914-.872c-.018-.2,0-.4,0-.628-2,0-3.931-.027-5.861.029-.316.008-.622.376-.932.578a3.346,3.346,0,0,0-.209.81Q3.308,27.754,3.315,48c0,.974.437,1.412,1.408,1.412q15.815,0,31.633,0c.974,0,1.414-.437,1.415-1.4q.007-4.93,0-9.86c0-.1-.009-.2-.015-.319-.381-.081-.745-.145-1.1-.236a11.337,11.337,0,0,1-8.107-7.314" transform="translate(1.676 3.074)" fill="#030404"/>
        <path id="Trazado_1031221" data-name="Trazado 1031221" d="M26.235,3.739c-1.385,0-2.731-.006-4.077.006a1.064,1.064,0,0,1-1.033-.718,3.152,3.152,0,0,0-1.078-1.289,4.665,4.665,0,0,0-4.7-.077,2.212,2.212,0,0,0-1.072,1.061c-.288.939-.87,1.076-1.7,1.03-.87-.051-1.746-.014-2.62-.014H9.06V8.488H26.235Z" transform="translate(4.58 0.538)" fill="#030404"/>
        <path id="Trazado_1031222" data-name="Trazado 1031222" d="M31.878,16.441a1.025,1.025,0,0,0,.044-.173c0-2.623.024-5.244,0-7.865A4.553,4.553,0,0,0,27.4,3.855c-1.81-.032-3.619-.009-5.431-.008a3.937,3.937,0,0,0-.4.041V5.578a.669.669,0,0,0,.148.045c1.789,0,3.577,0,5.367.011A2.85,2.85,0,0,1,30.15,8.724q.007,3.464,0,6.927v.64c.634.054,1.17.1,1.727.151" transform="translate(10.907 1.94)" fill="#030404"/>
        <path id="Trazado_1031223" data-name="Trazado 1031223" d="M33.636,30.024c1.582,1.88,3.109,3.692,4.634,5.5A.643.643,0,0,0,39.3,35.6c.542-.455,1.087-.9,1.625-1.363.5-.429.53-.688.1-1.2q-2.123-2.532-4.258-5.056a3.509,3.509,0,0,0-.334-.3c-.93.781-1.834,1.54-2.791,2.343" transform="translate(17.005 13.994)" fill="#030404"/>
        <path id="Trazado_1031224" data-name="Trazado 1031224" d="M35.435,28.03l-1.95-2.293c-.462.388-.869.73-1.311,1.1.667.786,1.3,1.534,1.951,2.3l1.31-1.108" transform="translate(16.266 13.011)" fill="#030404"/>
        <path id="Trazado_1031225" data-name="Trazado 1031225" d="M28.55,30.076a11.336,11.336,0,0,0,8.106,7.313c.358.093.723.157,1.1.238,0,.116.015.217.015.319q0,4.93,0,9.86c0,.968-.441,1.4-1.415,1.4q-15.817,0-31.635,0c-.97,0-1.406-.438-1.406-1.412q0-20.251.008-40.5a3.266,3.266,0,0,1,.211-.81c.2.748.4,1.5.59,2.246a27.443,27.443,0,0,0,4.782,10.1c1.21,1.569,2.65,2.96,4,4.417a2.4,2.4,0,0,0,.637.349,9.716,9.716,0,0,0,1.5,4.3,14.621,14.621,0,0,0,4.24,4.152.909.909,0,0,1,.479.906c-.038.559-.009,1.12-.008,1.682a.767.767,0,0,0,.765.873c.48.035.793-.313.807-.891.015-.622-.017-1.247.018-1.868a.867.867,0,0,1,.276-.551c1.04-.885,2.1-1.746,3.153-2.615.765.151,1.527.333,2.3.443a12.672,12.672,0,0,0,1.477.039M22.094,43.44H13.98c-1.081,0-2.163,0-3.244,0a.727.727,0,0,0-.807.76.749.749,0,0,0,.757.818,3.922,3.922,0,0,0,.5.011q10.921,0,21.843,0a1.44,1.44,0,0,0,.671-.063,1.166,1.166,0,0,0,.545-.6.83.83,0,0,0-.236-.708,1.356,1.356,0,0,0-.805-.214c-3.7-.012-7.406-.008-11.108-.008m.014-3.732q5.461,0,10.923,0a3.153,3.153,0,0,0,.56-.012.794.794,0,0,0,.045-1.566,2.021,2.021,0,0,0-.5-.026q-11.048,0-22.094,0c-.185,0-.44-.044-.544.056-.232.221-.545.528-.533.786s.354.533.605.733c.117.092.363.029.55.029q5.492,0,10.985,0m-14.4-1.6a.818.818,0,0,0-.9.816.8.8,0,0,0,.918.79.838.838,0,0,0,.914-.81.848.848,0,0,0-.932-.8m0,5.337c-.566,0-.906.3-.9.795a.821.821,0,0,0,.918.795.824.824,0,0,0,.909-.81.813.813,0,0,0-.926-.78" transform="translate(1.676 3.28)" fill="#e5e5e5"/>
        <path id="Trazado_1031226" data-name="Trazado 1031226" d="M13.473,23.811a2.334,2.334,0,0,1-.637-.349c-1.354-1.456-2.794-2.849-4-4.417a27.4,27.4,0,0,1-4.78-10.1c-.193-.751-.394-1.5-.59-2.248.31-.2.616-.571.93-.58,1.93-.054,3.862-.027,5.861-.027,0,.23-.014.431,0,.628a.83.83,0,0,0,.915.872q9.293-.007,18.586,0a.83.83,0,0,0,.923-.863c.017-.185,0-.373,0-.638h.678c1.664,0,3.326,0,4.989,0A1.209,1.209,0,0,1,37.7,7.426c0,2.6,0,5.2,0,7.7-1.216.44-2.433.768-3.55,1.3a11.112,11.112,0,0,0-6.207,10.991c.092.961.349,1.906.53,2.858A12.366,12.366,0,0,1,27,30.242c-.771-.11-1.533-.291-2.3-.443a2.854,2.854,0,0,1,.2-.307A9.757,9.757,0,0,0,26.83,19.348a26.637,26.637,0,0,0-5.745-9.069c-.429-.486-.873-.452-1.311.089-1.006,1.241-2.045,2.462-2.958,3.768-2.028,2.9-3.5,6.012-3.342,9.675" transform="translate(1.75 3.074)" fill="#fdfdfd"/>
        <path id="Trazado_1031227" data-name="Trazado 1031227" d="M4.581,5.763A3.087,3.087,0,0,0,2.832,8.807q.025,20.038.011,40.078A2.869,2.869,0,0,0,6.03,52.093H37.365a2.865,2.865,0,0,0,3.154-3.181q0-4.587,0-9.176V39.02l1.775-.179v.623q0,4.774,0,9.551a4.569,4.569,0,0,1-4.842,4.854q-15.79.011-31.584,0a4.554,4.554,0,0,1-4.8-4.831q0-20.226,0-40.453a4.535,4.535,0,0,1,3.362-4.61q.077.894.151,1.789" transform="translate(0.539 2.009)" fill="#6cb1e2"/>
        <path id="Trazado_1031228" data-name="Trazado 1031228" d="M26.235,3.739V8.488H9.06V3.739h.893c.873,0,1.749-.038,2.62.014.831.047,1.414-.09,1.7-1.03a2.212,2.212,0,0,1,1.072-1.061,4.665,4.665,0,0,1,4.7.077,3.152,3.152,0,0,1,1.078,1.289,1.064,1.064,0,0,0,1.033.718c1.346-.012,2.692-.006,4.077-.006" transform="translate(4.58 0.538)" fill="#5aa0d7"/>
        <path id="Trazado_1031229" data-name="Trazado 1031229" d="M21.69,27.113a9.272,9.272,0,0,1-.044-8.273,9.714,9.714,0,0,1,10.122-5.6,9.884,9.884,0,0,1,8.3,7.549,5.534,5.534,0,0,1,.072.674q-.693.443-1.385.884a8.167,8.167,0,0,0-16.281-.051,9.493,9.493,0,0,0,1.022,4.8l-1.8.021" transform="translate(10.462 6.66)" fill="#fac045"/>
        <path id="Trazado_1031230" data-name="Trazado 1031230" d="M21.356,24.329l1.8-.021c.12.167.244.333.361.5a8.15,8.15,0,0,0,11.513,2,8.06,8.06,0,0,0,3.384-7.246q.693-.44,1.385-.884a9.509,9.509,0,0,1-1.445,6.844c-.7,1.11-.711,1.1-.036,2.222l-2.039,1.73c-.089-.02-.142-.015-.166-.039-.864-.828-.864-.828-1.963-.331-4.824,2.17-10.82-.068-12.8-4.776" transform="translate(10.797 9.443)" fill="#eca623"/>
        <path id="Trazado_1031231" data-name="Trazado 1031231" d="M31.878,16.441c-.557-.048-1.093-.1-1.727-.151v-.64q0-3.462,0-6.927a2.85,2.85,0,0,0-3.061-3.089c-1.79-.012-3.579-.006-5.367-.011a.669.669,0,0,1-.148-.045V3.888a3.937,3.937,0,0,1,.4-.041c1.811,0,3.621-.024,5.431.008A4.553,4.553,0,0,1,31.919,8.4c.027,2.621,0,5.242,0,7.865a1.025,1.025,0,0,1-.044.173" transform="translate(10.907 1.94)" fill="#8bcafc"/>
        <path id="Trazado_1031232" data-name="Trazado 1031232" d="M33.636,30.024c.958-.8,1.861-1.561,2.791-2.343a3.509,3.509,0,0,1,.334.3q2.134,2.525,4.258,5.056c.432.516.407.775-.1,1.2-.537.458-1.083.908-1.625,1.363a.643.643,0,0,1-1.027-.077c-1.525-1.813-3.052-3.624-4.634-5.5" transform="translate(17.005 13.994)" fill="#eca623"/>
        <path id="Trazado_1031233" data-name="Trazado 1031233" d="M3.452,5.829Q3.377,4.935,3.3,4.041a4.443,4.443,0,0,1,.9-.187c1.951-.018,3.9-.011,5.855-.009a1.925,1.925,0,0,1,.245.032v1.8c-1.709,0-3.386-.012-5.063.008-.595.008-1.191.1-1.786.148" transform="translate(1.669 1.942)" fill="#8bcafc"/>
        <path id="Trazado_1031234" data-name="Trazado 1031234" d="M35.435,28.03l-1.31,1.108c-.649-.766-1.284-1.515-1.951-2.3.443-.37.849-.712,1.311-1.1l1.95,2.293" transform="translate(16.266 13.011)" fill="#eca623"/>
        <path id="Trazado_1031235" data-name="Trazado 1031235" d="M10.115,22.516c-.154-3.663,1.316-6.777,3.342-9.675.914-1.307,1.953-2.526,2.958-3.767.44-.542.882-.575,1.311-.092a26.721,26.721,0,0,1,5.747,9.07A9.762,9.762,0,0,1,21.543,28.2a2.4,2.4,0,0,0-.2.307c-1.054.867-2.112,1.728-3.153,2.614a.864.864,0,0,0-.276.551c-.035.622,0,1.245-.018,1.868-.014.578-.327.926-.807.891a.768.768,0,0,1-.765-.875c0-.56-.03-1.123.008-1.682a.907.907,0,0,0-.479-.9,14.654,14.654,0,0,1-4.24-4.151,9.722,9.722,0,0,1-1.5-4.3m2.272,2a10.418,10.418,0,0,0,3.931,4.83v-2.79a1.261,1.261,0,0,0-.491-1.3c-.848-.8-1.658-1.634-2.474-2.463-.459-.465-.9-.95-1.349-1.427l-.158.11a6.2,6.2,0,0,0,.54,3.041m5.522,2.867v2.026c.655-.583,1.18-1.049,1.707-1.516,1.876-1.7,3.073-4.63,2.665-6.509C21.1,22.564,20,23.782,18.77,24.854a2.455,2.455,0,0,0-.861,2.525M16.33,23.454c0-1.235,0-2.347,0-3.458a.427.427,0,0,0-.12-.276c-1.021-1.025-2.048-2.043-3.16-3.147-.3.842-.586,1.569-.795,2.32a.9.9,0,0,0,.2.733c1.123,1.17,2.279,2.305,3.427,3.449.11.11.238.2.458.378m4.842-6.924c-.507.518-.885.9-1.262,1.287-.665.685-1.585,1.265-1.921,2.084a8.08,8.08,0,0,0-.1,2.835c0,.208,0,.414,0,.78.254-.241.361-.334.462-.434,1.191-1.192,2.385-2.379,3.565-3.58a.525.525,0,0,0,.123-.429c-.254-.8-.54-1.6-.869-2.543m-4.878-4.735c-.044-.026-.089-.05-.134-.075-.7,1.027-1.4,2.049-2.087,3.082-.075.114-.114.37-.047.441.709.739,1.444,1.456,2.267,2.276Zm1.766-.083-.137.083V17.55c.808-.81,1.542-1.531,2.251-2.276a.46.46,0,0,0,0-.434c-.691-1.051-1.4-2.088-2.112-3.129" transform="translate(5.108 4.369)" fill="#020202"/>
        <path id="Trazado_1031236" data-name="Trazado 1031236" d="M19.873,31.032c3.7,0,7.406,0,11.108.009a1.335,1.335,0,0,1,.805.214.825.825,0,0,1,.236.706,1.16,1.16,0,0,1-.545.6,1.439,1.439,0,0,1-.671.065q-10.921,0-21.843,0a3.922,3.922,0,0,1-.5-.011.749.749,0,0,1-.757-.818.726.726,0,0,1,.807-.759c1.081-.009,2.163,0,3.244,0h8.113" transform="translate(3.897 15.688)" fill="#080808"/>
        <path id="Trazado_1031237" data-name="Trazado 1031237" d="M19.873,29.1H8.889c-.187,0-.432.063-.55-.03-.251-.2-.593-.474-.605-.732s.3-.565.533-.786c.1-.1.358-.056.544-.056q11.048,0,22.094,0a2.021,2.021,0,0,1,.5.026.794.794,0,0,1-.045,1.566,3.019,3.019,0,0,1-.56.014H19.873" transform="translate(3.91 13.894)" fill="#030404"/>
        <path id="Trazado_1031238" data-name="Trazado 1031238" d="M6.535,27.487a.848.848,0,0,1,.932.8.836.836,0,0,1-.914.81.8.8,0,0,1-.918-.79.818.818,0,0,1,.9-.816" transform="translate(2.849 13.896)" fill="#080808"/>
        <path id="Trazado_1031239" data-name="Trazado 1031239" d="M6.537,31.032a.813.813,0,0,1,.926.78.824.824,0,0,1-.909.81.821.821,0,0,1-.918-.795c0-.492.336-.792.9-.795" transform="translate(2.849 15.688)" fill="#080808"/>
        <path id="Trazado_1031240" data-name="Trazado 1031240" d="M38.159,21.792a8.053,8.053,0,0,1-3.385,7.245,8.147,8.147,0,0,1-11.512-2c-.117-.17-.241-.336-.361-.5a9.49,9.49,0,0,1-1.022-4.8,8.166,8.166,0,0,1,16.28.053m-1.647,1.125a2.8,2.8,0,0,0,.095-.6,6.458,6.458,0,0,0-3.555-5.735,6.286,6.286,0,0,0-6.712.358A6.517,6.517,0,0,0,24.8,26.411,6.41,6.41,0,0,0,31.06,28.9a6.484,6.484,0,0,0,5.452-5.986" transform="translate(11.053 7.214)" fill="#020202"/>
        <path id="Trazado_1031241" data-name="Trazado 1031241" d="M15.615,20.792c-.221-.181-.349-.269-.458-.378-1.149-1.144-2.305-2.281-3.428-3.449a.9.9,0,0,1-.194-.733c.208-.751.5-1.48.793-2.323,1.114,1.107,2.141,2.124,3.162,3.148a.433.433,0,0,1,.119.276c.009,1.113.006,2.225.006,3.46" transform="translate(5.823 7.032)" fill="#59a543"/>
        <path id="Trazado_1031242" data-name="Trazado 1031242" d="M18.584,13.88c.327.945.613,1.74.867,2.544a.513.513,0,0,1-.123.429c-1.179,1.2-2.373,2.389-3.564,3.579-.1.1-.208.2-.464.435,0-.366,0-.574,0-.778a8.123,8.123,0,0,1,.1-2.836c.337-.821,1.257-1.4,1.923-2.084.375-.385.754-.769,1.262-1.289" transform="translate(7.695 7.017)" fill="#59a543"/>
        <path id="Trazado_1031243" data-name="Trazado 1031243" d="M15.308,23.1a2.456,2.456,0,0,1,.863-2.525C17.4,19.5,18.5,18.286,19.681,17.1c.407,1.877-.79,4.812-2.666,6.509l-1.707-.51" transform="translate(7.708 8.646)" fill="#59a543"/>
        <path id="Trazado_1031244" data-name="Trazado 1031244" d="M11.8,20.24a6.2,6.2,0,0,1-.542-3.041l.158-.108c.45.477.891.961,1.35,1.427.816.83,1.626,1.665,2.474,2.462a1.263,1.263,0,0,1,.489,1.3c-.581-.257-1.179-.485-1.74-.78-.744-.393-1.46-.837-2.189-1.26" transform="translate(5.691 8.64)" fill="#59a543"/>
        <path id="Trazado_1031245" data-name="Trazado 1031245" d="M14.989,10.762v5.724c-.825-.819-1.56-1.536-2.269-2.278-.068-.071-.029-.325.047-.438.685-1.036,1.39-2.058,2.088-3.085l.134.077" transform="translate(6.413 5.402)" fill="#59a543"/>
        <path id="Trazado_1031246" data-name="Trazado 1031246" d="M15.434,10.681c.708,1.04,1.421,2.078,2.112,3.129a.46.46,0,0,1,0,.434c-.709.745-1.442,1.466-2.251,2.276V10.764l.137-.083" transform="translate(7.734 5.4)" fill="#59a543"/>
        <path id="Trazado_1031247" data-name="Trazado 1031247" d="M11.62,19.182c.729.423,1.445.867,2.189,1.26.562.3,1.159.522,1.74.78v2.791a10.427,10.427,0,0,1-3.93-4.831" transform="translate(5.875 9.698)" fill="#498c35"/>
        <path id="Trazado_1031248" data-name="Trazado 1031248" d="M15.287,21.087l1.707.51-1.707,1.518Z" transform="translate(7.729 10.661)" fill="#498c35"/>
        <path id="Trazado_1031249" data-name="Trazado 1031249" d="M24.289,25.9a6.518,6.518,0,0,1,1.539-9.473,6.283,6.283,0,0,1,6.71-.358,6.462,6.462,0,0,1,3.556,5.735,2.8,2.8,0,0,1-.1.6c-.209.084-.426.154-.626.257a23.449,23.449,0,0,1-5.628,2.243c-1.8.405-3.636.668-5.455.994" transform="translate(11.567 7.72)" fill="#b7defd"/>
        <path id="Trazado_1031250" data-name="Trazado 1031250" d="M23.816,23.507c1.819-.325,3.652-.589,5.455-.994A23.45,23.45,0,0,0,34.9,20.27c.2-.1.417-.173.626-.257A6.482,6.482,0,0,1,30.073,26a6.412,6.412,0,0,1-6.257-2.492" transform="translate(12.04 10.118)" fill="#94c7ef"/>
      </g>
    </g>
  </g>
</svg>
