<svg xmlns="http://www.w3.org/2000/svg" width="1240" height="735" viewBox="0 0 1240 735">
  <g id="Grupo_1175746" data-name="Grupo 1175746" transform="translate(-181.268 -6683.611)">
    <g id="Grupo_1175524" data-name="Grupo 1175524" transform="translate(1.217 -239.389)">
      <rect id="Rectángulo_415440" data-name="Rectángulo 415440" width="1240" height="735" transform="translate(180.051 6923)" fill="#f3f9ff"/>
      <g id="Rectángulo_415441" data-name="Rectángulo 415441" transform="translate(199.051 7041)" fill="#fff" stroke="#707070" stroke-width="1">
        <rect width="1202" height="572" stroke="none"/>
        <rect x="0.5" y="0.5" width="1201" height="571" fill="none"/>
      </g>
      <g id="Rectángulo_415442" data-name="Rectángulo 415442" transform="translate(199.051 7041)" fill="#ced9c1" stroke="#707070" stroke-width="1">
        <rect width="1202" height="61" stroke="none"/>
        <rect x="0.5" y="0.5" width="1201" height="60" fill="none"/>
      </g>
      <line id="Línea_837" data-name="Línea 837" y2="572" transform="translate(299.551 7041.5)" fill="none" stroke="#707070" stroke-width="1"/>
      <line id="Línea_838" data-name="Línea 838" y2="572" transform="translate(399.717 7041.5)" fill="none" stroke="#707070" stroke-width="1"/>
      <line id="Línea_839" data-name="Línea 839" y2="572" transform="translate(499.884 7041)" fill="none" stroke="#707070" stroke-width="1"/>
      <line id="Línea_840" data-name="Línea 840" y2="572" transform="translate(600 7041)" fill="none" stroke="#707070" stroke-width="1"/>
      <line id="Línea_841" data-name="Línea 841" y2="572" transform="translate(700.116 7041.5)" fill="none" stroke="#707070" stroke-width="1"/>
      <line id="Línea_842" data-name="Línea 842" y2="572" transform="translate(800.232 7041.5)" fill="none" stroke="#707070" stroke-width="1"/>
      <line id="Línea_843" data-name="Línea 843" y2="572" transform="translate(900.399 7041)" fill="none" stroke="#707070" stroke-width="1"/>
      <line id="Línea_844" data-name="Línea 844" y2="572" transform="translate(1000 7041.5)" fill="none" stroke="#707070" stroke-width="1"/>
      <line id="Línea_845" data-name="Línea 845" y2="572" transform="translate(1099.601 7041.5)" fill="none" stroke="#707070" stroke-width="1"/>
      <line id="Línea_846" data-name="Línea 846" y2="572" transform="translate(1199.717 7041)" fill="none" stroke="#707070" stroke-width="1"/>
      <line id="Línea_848" data-name="Línea 848" x2="1202" transform="translate(199.551 7172.5)" fill="none" stroke="#707070" stroke-width="1"/>
      <line id="Línea_850" data-name="Línea 850" x2="1202" transform="translate(199.551 7314)" fill="none" stroke="#707070" stroke-width="1"/>
      <line id="Línea_852" data-name="Línea 852" x2="1202" transform="translate(199.551 7455.5)" fill="none" stroke="#707070" stroke-width="1"/>
      <line id="Línea_849" data-name="Línea 849" x2="1202" transform="translate(199 7243.5)" fill="none" stroke="#707070" stroke-width="1"/>
      <line id="Línea_851" data-name="Línea 851" x2="1202" transform="translate(199.551 7384.5)" fill="none" stroke="#707070" stroke-width="1"/>
      <line id="Línea_853" data-name="Línea 853" x2="1202" transform="translate(199 7525)" fill="none" stroke="#707070" stroke-width="1"/>
    </g>
    <path id="Trazado_1031550" data-name="Trazado 1031550" d="M8.023,10.469H3.6V15H.859V3.625H8.469V5.742H3.6V8.359H8.023Zm5.391,4.688A4.345,4.345,0,0,1,10.266,14a4.006,4.006,0,0,1-1.2-3.02v-.219a5.191,5.191,0,0,1,.48-2.289,3.516,3.516,0,0,1,1.4-1.535,4.233,4.233,0,0,1,2.188-.543A3.659,3.659,0,0,1,15.945,7.5a4.344,4.344,0,0,1,1.031,3.082V11.6H11.742a1.9,1.9,0,0,0,.617,1.117,1.836,1.836,0,0,0,1.234.406,2.366,2.366,0,0,0,1.953-.875l1.2,1.422a3.363,3.363,0,0,1-1.395,1.082A4.713,4.713,0,0,1,13.414,15.156Zm-.3-6.734q-1.156,0-1.375,1.531H14.4v-.2a1.3,1.3,0,0,0-.32-.98A1.275,1.275,0,0,0,13.117,8.422Zm8.492,4.7a1.171,1.171,0,0,0,.859-.3,1.1,1.1,0,0,0,.3-.84h2.469a2.922,2.922,0,0,1-1,2.281,3.705,3.705,0,0,1-2.566.891A3.751,3.751,0,0,1,18.766,14,4.556,4.556,0,0,1,17.7,10.8v-.109a5.149,5.149,0,0,1,.473-2.262,3.441,3.441,0,0,1,1.363-1.508,4.065,4.065,0,0,1,2.109-.527,3.658,3.658,0,0,1,2.617.914,3.242,3.242,0,0,1,.969,2.477H22.766a1.445,1.445,0,0,0-.32-1.008,1.106,1.106,0,0,0-.859-.352q-1.023,0-1.2,1.3a9.206,9.206,0,0,0-.055,1.141,3.616,3.616,0,0,0,.3,1.766A1.055,1.055,0,0,0,21.609,13.125Zm7.313-5.672a2.89,2.89,0,0,1,4.266-.234,3.721,3.721,0,0,1,.727,2.445V15H31.273V9.727A1.488,1.488,0,0,0,31,8.738a1.175,1.175,0,0,0-.93-.316,1.266,1.266,0,0,0-1.148.516V15H26.289V3h2.633ZM40.141,15a2.973,2.973,0,0,1-.25-.758,2.448,2.448,0,0,1-2.031.914,3,3,0,0,1-2.031-.723,2.3,2.3,0,0,1-.836-1.816,2.364,2.364,0,0,1,1.016-2.078,5.174,5.174,0,0,1,2.953-.7h.813V9.388q0-1.17-1.008-1.17a.824.824,0,0,0-.937.926H35.2a2.36,2.36,0,0,1,1.043-1.99,4.383,4.383,0,0,1,2.66-.765,3.843,3.843,0,0,1,2.555.789,2.743,2.743,0,0,1,.961,2.164v3.742a3.832,3.832,0,0,0,.359,1.781V15Zm-1.648-1.719a1.469,1.469,0,0,0,.816-.211,1.322,1.322,0,0,0,.465-.477V11.242h-.766q-1.375,0-1.375,1.234a.754.754,0,0,0,.242.582A.876.876,0,0,0,38.492,13.281Z" transform="translate(228.268 6826.612)" fill="#12263f"/>
    <path id="Trazado_1031551" data-name="Trazado 1031551" d="M10.359,15H7.633L3.6,7.922V15H.859V3.625H3.6L7.625,10.7V3.625h2.734Zm1.852-9.336a2.1,2.1,0,0,1,.652-1.555,2.128,2.128,0,0,1,1.543-.641,2.059,2.059,0,0,1,1.512.641,2.123,2.123,0,0,1,.637,1.555,2.147,2.147,0,0,1-2.148,2.164A2.141,2.141,0,0,1,12.855,7.2,2.063,2.063,0,0,1,12.211,5.664Zm2.2.969a.894.894,0,0,0,.68-.281.964.964,0,0,0,.266-.687,1.02,1.02,0,0,0-.266-.7.871.871,0,0,0-.68-.3.938.938,0,0,0-.7.293.977.977,0,0,0-.285.707.913.913,0,0,0,.293.691A.972.972,0,0,0,14.406,6.633ZM27.07,15a2.973,2.973,0,0,1-.25-.758,2.448,2.448,0,0,1-2.031.914,3,3,0,0,1-2.031-.723,2.3,2.3,0,0,1-.836-1.816,2.364,2.364,0,0,1,1.016-2.078,5.174,5.174,0,0,1,2.953-.7H26.7V9.388q0-1.17-1.008-1.17a.824.824,0,0,0-.937.926H22.125a2.36,2.36,0,0,1,1.043-1.99,4.383,4.383,0,0,1,2.66-.765,3.843,3.843,0,0,1,2.555.789,2.743,2.743,0,0,1,.961,2.164v3.742a3.832,3.832,0,0,0,.359,1.781V15Zm-1.648-1.719a1.469,1.469,0,0,0,.816-.211,1.322,1.322,0,0,0,.465-.477V11.242h-.766q-1.375,0-1.375,1.234a.754.754,0,0,0,.242.582A.876.876,0,0,0,25.422,13.281Zm7.8-6.734.086.992a2.867,2.867,0,0,1,2.414-1.148,2.412,2.412,0,0,1,1.973.789,3.757,3.757,0,0,1,.676,2.375V15H35.727V9.664a1.426,1.426,0,0,0-.258-.941,1.193,1.193,0,0,0-.937-.3,1.256,1.256,0,0,0-1.148.609V15H30.75V6.547ZM42.6,15H39.961V6.547H42.6ZM39.8,4.359a1.186,1.186,0,0,1,.406-.927,1.719,1.719,0,0,1,2.109,0,1.186,1.186,0,0,1,.406.927,1.186,1.186,0,0,1-.406.927,1.719,1.719,0,0,1-2.109,0A1.186,1.186,0,0,1,39.8,4.359Zm6.906,2.188.086.992a2.906,2.906,0,0,1,2.414-1.148,2.14,2.14,0,0,1,2.164,1.273,2.813,2.813,0,0,1,2.484-1.273q2.57,0,2.641,3.109V15H53.859V9.664a1.611,1.611,0,0,0-.219-.945.931.931,0,0,0-.8-.3,1.247,1.247,0,0,0-1.164.7l.008.109V15H49.047V9.68a1.694,1.694,0,0,0-.211-.961.929.929,0,0,0-.8-.3,1.263,1.263,0,0,0-1.156.7V15H44.242V6.547ZM62.766,15a2.973,2.973,0,0,1-.25-.758,2.448,2.448,0,0,1-2.031.914,3,3,0,0,1-2.031-.723,2.3,2.3,0,0,1-.836-1.816,2.364,2.364,0,0,1,1.016-2.078,5.174,5.174,0,0,1,2.953-.7H62.4V9.388q0-1.17-1.008-1.17a.824.824,0,0,0-.937.926H57.82a2.36,2.36,0,0,1,1.043-1.99,4.383,4.383,0,0,1,2.66-.765,3.843,3.843,0,0,1,2.555.789,2.743,2.743,0,0,1,.961,2.164v3.742a3.832,3.832,0,0,0,.359,1.781V15Zm-1.648-1.719a1.469,1.469,0,0,0,.816-.211,1.322,1.322,0,0,0,.465-.477V11.242h-.766q-1.375,0-1.375,1.234a.754.754,0,0,0,.242.582A.876.876,0,0,0,61.117,13.281ZM69.273,15H66.633V3h2.641Z" transform="translate(317.268 6826.612)" fill="#12263f"/>
    <path id="Trazado_1031552" data-name="Trazado 1031552" d="M3.6,11.141V15H.859V3.625H5.4a5.287,5.287,0,0,1,2.309.48A3.621,3.621,0,0,1,9.262,5.473a3.734,3.734,0,0,1,.551,2.012,3.291,3.291,0,0,1-1.191,2.66,4.943,4.943,0,0,1-3.27,1Zm0-2.117H5.4a1.7,1.7,0,0,0,1.215-.4A1.48,1.48,0,0,0,7.031,7.5,1.83,1.83,0,0,0,6.6,6.227,1.522,1.522,0,0,0,5.43,5.742H3.6ZM16.266,8.93,15.4,8.867a1.558,1.558,0,0,0-1.594.781V15H11.172V6.547h2.469l.086,1.086a2.039,2.039,0,0,1,1.852-1.242,2.567,2.567,0,0,1,.734.094ZM16.6,10.7a4.989,4.989,0,0,1,.492-2.254,3.52,3.52,0,0,1,1.414-1.52,4.259,4.259,0,0,1,2.164-.531,3.887,3.887,0,0,1,2.992,1.176,4.512,4.512,0,0,1,1.094,3.2v.094A4.378,4.378,0,0,1,23.66,14a3.9,3.9,0,0,1-2.973,1.16,3.942,3.942,0,0,1-2.9-1.082,4.232,4.232,0,0,1-1.18-2.934Zm2.633.164a3.145,3.145,0,0,0,.367,1.719,1.223,1.223,0,0,0,1.086.547q1.406,0,1.438-2.164V10.7q0-2.273-1.453-2.273-1.32,0-1.43,1.961Zm6.352-.148a5.164,5.164,0,0,1,.867-3.164,2.854,2.854,0,0,1,2.422-1.156,2.428,2.428,0,0,1,1.906.891V3h2.641V15H31.055l-.133-.906a2.493,2.493,0,0,1-2.062,1.063A2.849,2.849,0,0,1,26.469,14,5.327,5.327,0,0,1,25.586,10.711Zm2.633.164q0,2.25,1.313,2.25a1.3,1.3,0,0,0,1.25-.734V9.172a1.261,1.261,0,0,0-1.234-.75q-1.219,0-1.32,1.969Zm11.734,3.211a2.714,2.714,0,0,1-2.258,1.07,2.662,2.662,0,0,1-2.105-.809,3.4,3.4,0,0,1-.715-2.324V6.547h2.633v5.492a.946.946,0,0,0,1.055,1.086,1.376,1.376,0,0,0,1.289-.648V6.547H42.5V15H40.031Zm7.563-.961a1.171,1.171,0,0,0,.859-.3,1.1,1.1,0,0,0,.3-.84h2.469a2.922,2.922,0,0,1-1,2.281,3.705,3.705,0,0,1-2.566.891A3.751,3.751,0,0,1,44.672,14a4.556,4.556,0,0,1-1.062-3.2v-.109a5.149,5.149,0,0,1,.473-2.262,3.441,3.441,0,0,1,1.363-1.508,4.065,4.065,0,0,1,2.109-.527,3.658,3.658,0,0,1,2.617.914,3.242,3.242,0,0,1,.969,2.477H48.672a1.445,1.445,0,0,0-.32-1.008,1.106,1.106,0,0,0-.859-.352q-1.023,0-1.2,1.3a9.206,9.206,0,0,0-.055,1.141,3.616,3.616,0,0,0,.3,1.766A1.055,1.055,0,0,0,47.516,13.125Zm7.8-8.68v2.1h1.391V8.375H55.32v3.867a.987.987,0,0,0,.172.664.922.922,0,0,0,.68.188,3.862,3.862,0,0,0,.656-.047V14.93a4.859,4.859,0,0,1-1.484.227,2.758,2.758,0,0,1-2.008-.641,2.626,2.626,0,0,1-.648-1.945v-4.2H51.609V6.547h1.078v-2.1ZM57.18,10.7a4.989,4.989,0,0,1,.492-2.254,3.52,3.52,0,0,1,1.414-1.52,4.259,4.259,0,0,1,2.164-.531,3.887,3.887,0,0,1,2.992,1.176,4.512,4.512,0,0,1,1.094,3.2v.094A4.378,4.378,0,0,1,64.238,14a3.9,3.9,0,0,1-2.973,1.16,3.942,3.942,0,0,1-2.9-1.082,4.232,4.232,0,0,1-1.18-2.934Zm2.633.164a3.145,3.145,0,0,0,.367,1.719,1.223,1.223,0,0,0,1.086.547q1.406,0,1.438-2.164V10.7q0-2.273-1.453-2.273-1.32,0-1.43,1.961Z" transform="translate(416.268 6826.612)" fill="#12263f"/>
    <path id="Trazado_1031553" data-name="Trazado 1031553" d="M3.6,12.891H8.375V15H.859V3.625H3.6ZM14.172,15a2.973,2.973,0,0,1-.25-.758,2.448,2.448,0,0,1-2.031.914,3,3,0,0,1-2.031-.723,2.3,2.3,0,0,1-.836-1.816,2.364,2.364,0,0,1,1.016-2.078,5.174,5.174,0,0,1,2.953-.7H13.8V9.388q0-1.17-1.008-1.17a.824.824,0,0,0-.937.926H9.227a2.36,2.36,0,0,1,1.043-1.99,4.383,4.383,0,0,1,2.66-.765,3.843,3.843,0,0,1,2.555.789,2.743,2.743,0,0,1,.961,2.164v3.742a3.832,3.832,0,0,0,.359,1.781V15Zm-1.648-1.719a1.469,1.469,0,0,0,.816-.211,1.322,1.322,0,0,0,.465-.477V11.242h-.766q-1.375,0-1.375,1.234a.754.754,0,0,0,.242.582A.876.876,0,0,0,12.523,13.281ZM25.75,10.844a5.152,5.152,0,0,1-.859,3.2,2.878,2.878,0,0,1-2.422,1.117,2.5,2.5,0,0,1-2.078-1.023L20.281,15H17.922V3h2.633V7.227a2.41,2.41,0,0,1,1.9-.836,2.879,2.879,0,0,1,2.438,1.133,5.179,5.179,0,0,1,.859,3.188Zm-2.641-.168a3.437,3.437,0,0,0-.324-1.735,1.093,1.093,0,0,0-1-.519,1.261,1.261,0,0,0-1.234.679v3.354a1.268,1.268,0,0,0,1.25.671,1.118,1.118,0,0,0,1.18-.9A6.5,6.5,0,0,0,23.109,10.676Zm3.469.019a4.989,4.989,0,0,1,.492-2.254,3.52,3.52,0,0,1,1.414-1.52,4.259,4.259,0,0,1,2.164-.531,3.887,3.887,0,0,1,2.992,1.176,4.512,4.512,0,0,1,1.094,3.2v.094A4.378,4.378,0,0,1,33.637,14a3.9,3.9,0,0,1-2.973,1.16,3.942,3.942,0,0,1-2.9-1.082,4.232,4.232,0,0,1-1.18-2.934Zm2.633.164a3.145,3.145,0,0,0,.367,1.719,1.223,1.223,0,0,0,1.086.547q1.406,0,1.438-2.164V10.7q0-2.273-1.453-2.273-1.32,0-1.43,1.961Zm11.8-1.93-.867-.062a1.558,1.558,0,0,0-1.594.781V15H35.914V6.547h2.469l.086,1.086A2.039,2.039,0,0,1,40.32,6.391a2.567,2.567,0,0,1,.734.094ZM46.484,15a2.973,2.973,0,0,1-.25-.758,2.448,2.448,0,0,1-2.031.914,3,3,0,0,1-2.031-.723,2.3,2.3,0,0,1-.836-1.816,2.364,2.364,0,0,1,1.016-2.078,5.174,5.174,0,0,1,2.953-.7h.813V9.388q0-1.17-1.008-1.17a.824.824,0,0,0-.937.926H41.539a2.36,2.36,0,0,1,1.043-1.99,4.383,4.383,0,0,1,2.66-.765A3.843,3.843,0,0,1,47.8,7.18a2.743,2.743,0,0,1,.961,2.164v3.742a3.832,3.832,0,0,0,.359,1.781V15Zm-1.648-1.719a1.469,1.469,0,0,0,.816-.211,1.322,1.322,0,0,0,.465-.477V11.242h-.766q-1.375,0-1.375,1.234a.754.754,0,0,0,.242.582A.876.876,0,0,0,44.836,13.281Zm8.445-8.836v2.1h1.391V8.375H53.281v3.867a.987.987,0,0,0,.172.664.922.922,0,0,0,.68.188,3.862,3.862,0,0,0,.656-.047V14.93a4.859,4.859,0,0,1-1.484.227,2.758,2.758,0,0,1-2.008-.641,2.626,2.626,0,0,1-.648-1.945v-4.2H49.57V6.547h1.078v-2.1Zm1.859,6.25a4.989,4.989,0,0,1,.492-2.254,3.52,3.52,0,0,1,1.414-1.52,4.259,4.259,0,0,1,2.164-.531A3.887,3.887,0,0,1,62.2,7.566a4.512,4.512,0,0,1,1.094,3.2v.094A4.378,4.378,0,0,1,62.2,14a3.9,3.9,0,0,1-2.973,1.16,3.942,3.942,0,0,1-2.9-1.082,4.232,4.232,0,0,1-1.18-2.934Zm2.633.164a3.145,3.145,0,0,0,.367,1.719,1.223,1.223,0,0,0,1.086.547q1.406,0,1.438-2.164V10.7q0-2.273-1.453-2.273-1.32,0-1.43,1.961Zm11.8-1.93L68.7,8.867a1.558,1.558,0,0,0-1.594.781V15H64.477V6.547h2.469l.086,1.086a2.039,2.039,0,0,1,1.852-1.242,2.567,2.567,0,0,1,.734.094ZM73.3,15H70.656V6.547H73.3ZM70.5,4.359a1.186,1.186,0,0,1,.406-.927,1.719,1.719,0,0,1,2.109,0,1.186,1.186,0,0,1,.406.927,1.186,1.186,0,0,1-.406.927,1.719,1.719,0,0,1-2.109,0A1.186,1.186,0,0,1,70.5,4.359ZM74.586,10.7a4.989,4.989,0,0,1,.492-2.254,3.52,3.52,0,0,1,1.414-1.52,4.259,4.259,0,0,1,2.164-.531,3.887,3.887,0,0,1,2.992,1.176,4.512,4.512,0,0,1,1.094,3.2v.094A4.378,4.378,0,0,1,81.645,14a3.9,3.9,0,0,1-2.973,1.16,3.942,3.942,0,0,1-2.9-1.082,4.232,4.232,0,0,1-1.18-2.934Zm2.633.164a3.145,3.145,0,0,0,.367,1.719,1.223,1.223,0,0,0,1.086.547q1.406,0,1.438-2.164V10.7q0-2.273-1.453-2.273-1.32,0-1.43,1.961Z" transform="translate(511.268 6826.612)" fill="#12263f"/>
    <path id="Trazado_1031555" data-name="Trazado 1031555" d="M17.984,10.977H16.5V15H13.758V3.625h4.477a5,5,0,0,1,3.164.9,3.041,3.041,0,0,1,1.141,2.536,3.693,3.693,0,0,1-.48,1.967,3.41,3.41,0,0,1-1.5,1.264l2.375,4.593V15H19.992ZM16.5,8.867h1.734a1.557,1.557,0,0,0,1.176-.411A1.59,1.59,0,0,0,19.8,7.309a1.608,1.608,0,0,0-.4-1.155,1.542,1.542,0,0,0-1.172-.419H16.5Zm11.664,6.289A4.345,4.345,0,0,1,25.016,14a4.006,4.006,0,0,1-1.2-3.02v-.219a5.191,5.191,0,0,1,.48-2.289,3.516,3.516,0,0,1,1.4-1.535,4.233,4.233,0,0,1,2.188-.543A3.659,3.659,0,0,1,30.7,7.5a4.344,4.344,0,0,1,1.031,3.082V11.6H26.492a1.9,1.9,0,0,0,.617,1.117,1.836,1.836,0,0,0,1.234.406A2.366,2.366,0,0,0,30.3,12.25l1.2,1.422a3.363,3.363,0,0,1-1.395,1.082A4.713,4.713,0,0,1,28.164,15.156Zm-.3-6.734q-1.156,0-1.375,1.531h2.656v-.2a1.3,1.3,0,0,0-.32-.98A1.275,1.275,0,0,0,27.867,8.422Zm4.609,2.289A5.708,5.708,0,0,1,32.9,8.445a3.4,3.4,0,0,1,1.211-1.52,3.192,3.192,0,0,1,1.836-.535,2.538,2.538,0,0,1,2.063.891l.094-.734h2.391V14.68a3.564,3.564,0,0,1-.52,1.941,3.334,3.334,0,0,1-1.5,1.266,5.528,5.528,0,0,1-2.281.441,4.769,4.769,0,0,1-1.8-.352,3.251,3.251,0,0,1-1.332-.914l1.1-1.547a2.414,2.414,0,0,0,1.938.867,1.568,1.568,0,0,0,1.75-1.8V14.32a2.472,2.472,0,0,1-1.914.836,3.055,3.055,0,0,1-2.5-1.184,4.9,4.9,0,0,1-.953-3.168Zm2.641.164a3.007,3.007,0,0,0,.391,1.645,1.232,1.232,0,0,0,1.094.605,1.4,1.4,0,0,0,1.242-.57V9a1.363,1.363,0,0,0-1.227-.578,1.241,1.241,0,0,0-1.1.629A3.429,3.429,0,0,0,35.117,10.875ZM44.766,15H42.125V6.547h2.641Zm-2.8-10.641a1.186,1.186,0,0,1,.406-.927,1.719,1.719,0,0,1,2.109,0,1.186,1.186,0,0,1,.406.927,1.186,1.186,0,0,1-.406.927,1.719,1.719,0,0,1-2.109,0A1.186,1.186,0,0,1,41.969,4.359Zm8.844,8.266a.608.608,0,0,0-.352-.539,5.348,5.348,0,0,0-1.336-.422A6.092,6.092,0,0,1,47.5,11.09a2.722,2.722,0,0,1-.977-.863,2.061,2.061,0,0,1-.336-1.164,2.336,2.336,0,0,1,.961-1.918,3.958,3.958,0,0,1,2.516-.754,4.386,4.386,0,0,1,2.688.758,2.37,2.37,0,0,1,1.016,1.992H50.727q0-1.016-1.07-1.016a1.061,1.061,0,0,0-.7.23.714.714,0,0,0-.281.574.655.655,0,0,0,.344.57,3.248,3.248,0,0,0,1.1.359,9.485,9.485,0,0,1,1.324.336,2.406,2.406,0,0,1,1.906,2.352,2.214,2.214,0,0,1-1.027,1.883,4.505,4.505,0,0,1-2.66.727,4.6,4.6,0,0,1-1.937-.391A3.24,3.24,0,0,1,46.4,13.7a2.406,2.406,0,0,1-.477-1.414h2.461a1.017,1.017,0,0,0,.391.855,1.607,1.607,0,0,0,.961.27,1.264,1.264,0,0,0,.809-.219A.7.7,0,0,0,50.813,12.625Zm6.836-8.18v2.1h1.391V8.375H57.648v3.867a.987.987,0,0,0,.172.664.922.922,0,0,0,.68.188,3.862,3.862,0,0,0,.656-.047V14.93a4.859,4.859,0,0,1-1.484.227,2.758,2.758,0,0,1-2.008-.641,2.626,2.626,0,0,1-.648-1.945v-4.2H53.938V6.547h1.078v-2.1ZM65.188,8.93l-.867-.062a1.558,1.558,0,0,0-1.594.781V15H60.094V6.547h2.469l.086,1.086A2.039,2.039,0,0,1,64.5,6.391a2.567,2.567,0,0,1,.734.094Zm.336,1.766a4.989,4.989,0,0,1,.492-2.254,3.52,3.52,0,0,1,1.414-1.52,4.259,4.259,0,0,1,2.164-.531,3.887,3.887,0,0,1,2.992,1.176,4.512,4.512,0,0,1,1.094,3.2v.094A4.378,4.378,0,0,1,72.582,14a3.9,3.9,0,0,1-2.973,1.16,3.942,3.942,0,0,1-2.9-1.082,4.232,4.232,0,0,1-1.18-2.934Zm2.633.164a3.145,3.145,0,0,0,.367,1.719,1.223,1.223,0,0,0,1.086.547q1.406,0,1.438-2.164V10.7q0-2.273-1.453-2.273-1.32,0-1.43,1.961ZM34.168,39H31.434V27.625h2.734Zm11.109-3.852a4.154,4.154,0,0,1-.641,2.1,3.866,3.866,0,0,1-1.645,1.41,5.6,5.6,0,0,1-2.418.5A4.467,4.467,0,0,1,37.043,37.7a6.032,6.032,0,0,1-1.289-4.125v-.562a6.885,6.885,0,0,1,.582-2.926,4.41,4.41,0,0,1,1.676-1.937,4.676,4.676,0,0,1,2.531-.684,4.9,4.9,0,0,1,3.328,1.09,4.306,4.306,0,0,1,1.43,3H42.566a2.037,2.037,0,0,0-.523-1.492,2.153,2.153,0,0,0-1.5-.453,1.638,1.638,0,0,0-1.5.766,4.921,4.921,0,0,0-.5,2.445v.8a5.445,5.445,0,0,0,.457,2.6,1.672,1.672,0,0,0,1.574.781,2.106,2.106,0,0,0,1.445-.445,1.89,1.89,0,0,0,.531-1.414Zm7.758,1.727H49.277L48.621,39h-2.93l4.172-11.375h2.578L56.645,39H53.7Zm-3.1-2.117h2.445l-1.227-3.945Z" transform="translate(707.268 6810.612)" fill="#12263f"/>
    <path id="Trazado_1031556" data-name="Trazado 1031556" d="M20.387,12.891H25.16V15H17.645V3.625h2.742Zm5.477-2.2a4.989,4.989,0,0,1,.492-2.254,3.52,3.52,0,0,1,1.414-1.52,4.259,4.259,0,0,1,2.164-.531,3.887,3.887,0,0,1,2.992,1.176,4.512,4.512,0,0,1,1.094,3.2v.094A4.378,4.378,0,0,1,32.922,14a3.9,3.9,0,0,1-2.973,1.16,3.942,3.942,0,0,1-2.9-1.082,4.232,4.232,0,0,1-1.18-2.934Zm2.633.164a3.145,3.145,0,0,0,.367,1.719,1.223,1.223,0,0,0,1.086.547q1.406,0,1.438-2.164V10.7q0-2.273-1.453-2.273-1.32,0-1.43,1.961Zm9.75-6.414v2.1h1.391V8.375H38.246v3.867a.987.987,0,0,0,.172.664.922.922,0,0,0,.68.188,3.862,3.862,0,0,0,.656-.047V14.93a4.859,4.859,0,0,1-1.484.227,2.758,2.758,0,0,1-2.008-.641,2.626,2.626,0,0,1-.648-1.945v-4.2H34.535V6.547h1.078v-2.1Zm6.516,10.711A4.345,4.345,0,0,1,41.613,14a4.006,4.006,0,0,1-1.2-3.02v-.219a5.191,5.191,0,0,1,.48-2.289,3.516,3.516,0,0,1,1.4-1.535,4.233,4.233,0,0,1,2.188-.543A3.659,3.659,0,0,1,47.293,7.5a4.344,4.344,0,0,1,1.031,3.082V11.6H43.09a1.9,1.9,0,0,0,.617,1.117,1.836,1.836,0,0,0,1.234.406,2.366,2.366,0,0,0,1.953-.875l1.2,1.422A3.363,3.363,0,0,1,46.7,14.754,4.713,4.713,0,0,1,44.762,15.156Zm-.3-6.734q-1.156,0-1.375,1.531h2.656v-.2a1.3,1.3,0,0,0-.32-.98A1.275,1.275,0,0,0,44.465,8.422ZM62.988,15H60.262L56.23,7.922V15H53.488V3.625H56.23L60.254,10.7V3.625h2.734ZM64.84,5.664a2.1,2.1,0,0,1,.652-1.555,2.128,2.128,0,0,1,1.543-.641,2.059,2.059,0,0,1,1.512.641,2.123,2.123,0,0,1,.637,1.555,2.147,2.147,0,0,1-2.148,2.164A2.141,2.141,0,0,1,65.484,7.2,2.063,2.063,0,0,1,64.84,5.664Zm2.2.969a.894.894,0,0,0,.68-.281.964.964,0,0,0,.266-.687,1.02,1.02,0,0,0-.266-.7.871.871,0,0,0-.68-.3.938.938,0,0,0-.7.293.977.977,0,0,0-.285.707.913.913,0,0,0,.293.691A.972.972,0,0,0,67.035,6.633Z" transform="translate(808.268 6825.612)" fill="#12263f"/>
    <path id="Trazado_1031557" data-name="Trazado 1031557" d="M19.109,10.469H14.688V15H11.945V3.625h7.609V5.742H14.688V8.359h4.422ZM24.5,15.156A4.345,4.345,0,0,1,21.352,14a4.006,4.006,0,0,1-1.2-3.02v-.219a5.191,5.191,0,0,1,.48-2.289,3.516,3.516,0,0,1,1.4-1.535,4.233,4.233,0,0,1,2.188-.543A3.659,3.659,0,0,1,27.031,7.5a4.344,4.344,0,0,1,1.031,3.082V11.6H22.828a1.9,1.9,0,0,0,.617,1.117,1.836,1.836,0,0,0,1.234.406,2.366,2.366,0,0,0,1.953-.875l1.2,1.422a3.363,3.363,0,0,1-1.395,1.082A4.713,4.713,0,0,1,24.5,15.156Zm-.3-6.734q-1.156,0-1.375,1.531h2.656v-.2a1.3,1.3,0,0,0-.32-.98A1.275,1.275,0,0,0,24.2,8.422Zm8.492,4.7a1.171,1.171,0,0,0,.859-.3,1.1,1.1,0,0,0,.3-.84H36.32a2.922,2.922,0,0,1-1,2.281,3.705,3.705,0,0,1-2.566.891A3.751,3.751,0,0,1,29.852,14a4.556,4.556,0,0,1-1.062-3.2v-.109a5.149,5.149,0,0,1,.473-2.262,3.441,3.441,0,0,1,1.363-1.508,4.065,4.065,0,0,1,2.109-.527,3.658,3.658,0,0,1,2.617.914,3.242,3.242,0,0,1,.969,2.477H33.852a1.445,1.445,0,0,0-.32-1.008,1.106,1.106,0,0,0-.859-.352q-1.023,0-1.2,1.3a9.206,9.206,0,0,0-.055,1.141,3.616,3.616,0,0,0,.3,1.766A1.055,1.055,0,0,0,32.7,13.125Zm7.313-5.672a2.89,2.89,0,0,1,4.266-.234A3.721,3.721,0,0,1,45,9.664V15H42.359V9.727a1.488,1.488,0,0,0-.273-.988,1.175,1.175,0,0,0-.93-.316,1.266,1.266,0,0,0-1.148.516V15H37.375V3h2.633ZM51.227,15a2.973,2.973,0,0,1-.25-.758,2.448,2.448,0,0,1-2.031.914,3,3,0,0,1-2.031-.723,2.3,2.3,0,0,1-.836-1.816,2.364,2.364,0,0,1,1.016-2.078,5.174,5.174,0,0,1,2.953-.7h.813V9.388q0-1.17-1.008-1.17a.824.824,0,0,0-.937.926H46.281a2.36,2.36,0,0,1,1.043-1.99,4.383,4.383,0,0,1,2.66-.765,3.843,3.843,0,0,1,2.555.789A2.743,2.743,0,0,1,53.5,9.344v3.742a3.832,3.832,0,0,0,.359,1.781V15Zm-1.648-1.719a1.469,1.469,0,0,0,.816-.211,1.322,1.322,0,0,0,.465-.477V11.242h-.766q-1.375,0-1.375,1.234a.754.754,0,0,0,.242.582A.876.876,0,0,0,49.578,13.281Zm9.031-2.57a5.164,5.164,0,0,1,.867-3.164A2.854,2.854,0,0,1,61.9,6.391a2.428,2.428,0,0,1,1.906.891V3h2.641V15H64.078l-.133-.906a2.493,2.493,0,0,1-2.062,1.063A2.849,2.849,0,0,1,59.492,14,5.327,5.327,0,0,1,58.609,10.711Zm2.633.164q0,2.25,1.313,2.25a1.3,1.3,0,0,0,1.25-.734V9.172a1.261,1.261,0,0,0-1.234-.75q-1.219,0-1.32,1.969Zm10.789,4.281A4.345,4.345,0,0,1,68.883,14a4.006,4.006,0,0,1-1.2-3.02v-.219a5.191,5.191,0,0,1,.48-2.289,3.516,3.516,0,0,1,1.4-1.535,4.233,4.233,0,0,1,2.188-.543A3.659,3.659,0,0,1,74.563,7.5a4.344,4.344,0,0,1,1.031,3.082V11.6H70.359a1.9,1.9,0,0,0,.617,1.117,1.836,1.836,0,0,0,1.234.406,2.366,2.366,0,0,0,1.953-.875l1.2,1.422a3.363,3.363,0,0,1-1.395,1.082A4.713,4.713,0,0,1,72.031,15.156Zm-.3-6.734q-1.156,0-1.375,1.531h2.656v-.2a1.3,1.3,0,0,0-.32-.98A1.275,1.275,0,0,0,71.734,8.422Zm-38.7,27.484L35.3,27.625h3.063L34.531,39h-3l-3.8-11.375h3.039Zm15.086-6.164H44.7V39H41.961V29.742H38.609V27.625h9.508Zm10.57,3.8a6.708,6.708,0,0,1-.617,2.945,4.561,4.561,0,0,1-1.754,1.973,4.884,4.884,0,0,1-2.59.691,4.953,4.953,0,0,1-2.578-.668,4.554,4.554,0,0,1-1.754-1.91,6.515,6.515,0,0,1-.66-2.852v-.641a6.737,6.737,0,0,1,.613-2.949,4.55,4.55,0,0,1,1.758-1.973,5.2,5.2,0,0,1,5.184-.008,4.632,4.632,0,0,1,1.762,1.957,6.544,6.544,0,0,1,.637,2.91ZM55.9,33.07a4.783,4.783,0,0,0-.566-2.574,1.817,1.817,0,0,0-1.621-.879q-2.062,0-2.18,3.094l-.008.836a4.92,4.92,0,0,0,.555,2.57,1.814,1.814,0,0,0,1.648.9,1.792,1.792,0,0,0,1.6-.883,4.785,4.785,0,0,0,.57-2.539Z" transform="translate(909.268 6810.612)" fill="#12263f"/>
    <path id="Trazado_1031558" data-name="Trazado 1031558" d="M25.8,5.742H22.391V15H19.648V5.742H16.3V3.625H25.8ZM29.617,15H26.977V6.547h2.641ZM26.82,4.359a1.186,1.186,0,0,1,.406-.927,1.719,1.719,0,0,1,2.109,0,1.186,1.186,0,0,1,.406.927,1.186,1.186,0,0,1-.406.927,1.719,1.719,0,0,1-2.109,0A1.186,1.186,0,0,1,26.82,4.359Zm8.508,10.8A4.345,4.345,0,0,1,32.18,14a4.006,4.006,0,0,1-1.2-3.02v-.219a5.191,5.191,0,0,1,.48-2.289,3.516,3.516,0,0,1,1.4-1.535,4.233,4.233,0,0,1,2.188-.543A3.659,3.659,0,0,1,37.859,7.5a4.344,4.344,0,0,1,1.031,3.082V11.6H33.656a1.9,1.9,0,0,0,.617,1.117,1.836,1.836,0,0,0,1.234.406,2.366,2.366,0,0,0,1.953-.875l1.2,1.422a3.363,3.363,0,0,1-1.395,1.082A4.713,4.713,0,0,1,35.328,15.156Zm-.3-6.734q-1.156,0-1.375,1.531h2.656v-.2a1.3,1.3,0,0,0-.32-.98A1.275,1.275,0,0,0,35.031,8.422Zm7.406-1.875.086.992a2.906,2.906,0,0,1,2.414-1.148A2.14,2.14,0,0,1,47.1,7.664a2.813,2.813,0,0,1,2.484-1.273q2.57,0,2.641,3.109V15H49.586V9.664a1.611,1.611,0,0,0-.219-.945.931.931,0,0,0-.8-.3,1.247,1.247,0,0,0-1.164.7l.008.109V15H44.773V9.68a1.694,1.694,0,0,0-.211-.961.929.929,0,0,0-.8-.3,1.263,1.263,0,0,0-1.156.7V15H39.969V6.547Zm19.141,4.289a5.1,5.1,0,0,1-.887,3.145A2.843,2.843,0,0,1,58.3,15.156a2.437,2.437,0,0,1-1.914-.852V18.25H53.75V6.547h2.461l.078.781a2.437,2.437,0,0,1,1.992-.937,2.866,2.866,0,0,1,2.43,1.152,5.16,5.16,0,0,1,.867,3.168Zm-2.633-.164q0-2.25-1.312-2.25a1.239,1.239,0,0,0-1.25.672v3.328a1.279,1.279,0,0,0,1.266.7q1.258,0,1.3-2.172Zm3.461.023A4.989,4.989,0,0,1,62.9,8.441a3.52,3.52,0,0,1,1.414-1.52,4.259,4.259,0,0,1,2.164-.531,3.887,3.887,0,0,1,2.992,1.176,4.512,4.512,0,0,1,1.094,3.2v.094A4.378,4.378,0,0,1,69.465,14a3.9,3.9,0,0,1-2.973,1.16,3.942,3.942,0,0,1-2.9-1.082,4.232,4.232,0,0,1-1.18-2.934Zm2.633.164a3.145,3.145,0,0,0,.367,1.719,1.223,1.223,0,0,0,1.086.547q1.406,0,1.438-2.164V10.7q0-2.273-1.453-2.273-1.32,0-1.43,1.961ZM20.965,32.93l-.867-.062a1.558,1.558,0,0,0-1.594.781V39H15.871V30.547H18.34l.086,1.086a2.039,2.039,0,0,1,1.852-1.242,2.567,2.567,0,0,1,.734.094Zm4.891,6.227A4.345,4.345,0,0,1,22.707,38a4.006,4.006,0,0,1-1.2-3.02v-.219a5.191,5.191,0,0,1,.48-2.289,3.516,3.516,0,0,1,1.4-1.535,4.233,4.233,0,0,1,2.188-.543A3.659,3.659,0,0,1,28.387,31.5a4.344,4.344,0,0,1,1.031,3.082V35.6H24.184a1.9,1.9,0,0,0,.617,1.117,1.836,1.836,0,0,0,1.234.406,2.366,2.366,0,0,0,1.953-.875l1.2,1.422A3.363,3.363,0,0,1,27.8,38.754,4.713,4.713,0,0,1,25.855,39.156Zm-.3-6.734q-1.156,0-1.375,1.531H26.84v-.2a1.3,1.3,0,0,0-.32-.98A1.275,1.275,0,0,0,25.559,32.422Zm7.984-3.977v2.1h1.391v1.828H33.543v3.867a.987.987,0,0,0,.172.664.922.922,0,0,0,.68.188,3.862,3.862,0,0,0,.656-.047V38.93a4.859,4.859,0,0,1-1.484.227,2.758,2.758,0,0,1-2.008-.641,2.626,2.626,0,0,1-.648-1.945v-4.2H29.832V30.547H30.91v-2.1ZM38.746,39H36.105V30.547h2.641Zm-2.8-10.641a1.186,1.186,0,0,1,.406-.927,1.719,1.719,0,0,1,2.109,0,1.262,1.262,0,0,1,0,1.855,1.719,1.719,0,0,1-2.109,0A1.186,1.186,0,0,1,35.949,28.359Zm9.531,4.57-.867-.062a1.558,1.558,0,0,0-1.594.781V39H40.387V30.547h2.469l.086,1.086a2.039,2.039,0,0,1,1.852-1.242,2.567,2.567,0,0,1,.734.094Zm.336,1.766a4.989,4.989,0,0,1,.492-2.254,3.52,3.52,0,0,1,1.414-1.52,4.259,4.259,0,0,1,2.164-.531,3.887,3.887,0,0,1,2.992,1.176,4.512,4.512,0,0,1,1.094,3.2v.094A4.378,4.378,0,0,1,52.875,38a3.9,3.9,0,0,1-2.973,1.16A3.942,3.942,0,0,1,47,38.074a4.232,4.232,0,0,1-1.18-2.934Zm2.633.164a3.145,3.145,0,0,0,.367,1.719,1.223,1.223,0,0,0,1.086.547q1.406,0,1.438-2.164V34.7q0-2.273-1.453-2.273-1.32,0-1.43,1.961Zm6.352-.148a5.164,5.164,0,0,1,.867-3.164,2.854,2.854,0,0,1,2.422-1.156A2.428,2.428,0,0,1,60,31.281V27h2.641V39H60.27l-.133-.906a2.493,2.493,0,0,1-2.062,1.063A2.849,2.849,0,0,1,55.684,38,5.327,5.327,0,0,1,54.8,34.711Zm2.633.164q0,2.25,1.313,2.25A1.3,1.3,0,0,0,60,36.391V33.172a1.261,1.261,0,0,0-1.234-.75q-1.219,0-1.32,1.969ZM68.895,39a2.973,2.973,0,0,1-.25-.758,2.448,2.448,0,0,1-2.031.914,3,3,0,0,1-2.031-.723,2.3,2.3,0,0,1-.836-1.816,2.364,2.364,0,0,1,1.016-2.078,5.174,5.174,0,0,1,2.953-.7h.813v-.448q0-1.17-1.008-1.17a.824.824,0,0,0-.937.926H63.949a2.36,2.36,0,0,1,1.043-1.99,4.383,4.383,0,0,1,2.66-.765,3.843,3.843,0,0,1,2.555.789,2.743,2.743,0,0,1,.961,2.164v3.742a3.832,3.832,0,0,0,.359,1.781V39Zm-1.648-1.719a1.469,1.469,0,0,0,.816-.211,1.322,1.322,0,0,0,.465-.477V35.242h-.766q-1.375,0-1.375,1.234a.754.754,0,0,0,.242.582A.876.876,0,0,0,67.246,37.281Z" transform="translate(1007.268 6810.612)" fill="#12263f"/>
    <path id="Trazado_1031559" data-name="Trazado 1031559" d="M24.3,15V3.625h3.664a5.39,5.39,0,0,1,2.711.684,4.805,4.805,0,0,1,1.879,1.93,5.826,5.826,0,0,1,.684,2.793v.523a5.86,5.86,0,0,1-.66,2.8,4.826,4.826,0,0,1-1.859,1.938A5.271,5.271,0,0,1,28.043,15Zm2.742-9.258v7.148H28a2.133,2.133,0,0,0,1.813-.84,4.116,4.116,0,0,0,.633-2.5V9.063a4.082,4.082,0,0,0-.633-2.484,2.17,2.17,0,0,0-1.844-.836ZM34.191,10.7a4.989,4.989,0,0,1,.492-2.254A3.52,3.52,0,0,1,36.1,6.922a4.259,4.259,0,0,1,2.164-.531,3.887,3.887,0,0,1,2.992,1.176,4.512,4.512,0,0,1,1.094,3.2v.094A4.378,4.378,0,0,1,41.25,14a3.9,3.9,0,0,1-2.973,1.16,3.942,3.942,0,0,1-2.9-1.082,4.232,4.232,0,0,1-1.18-2.934Zm2.633.164a3.145,3.145,0,0,0,.367,1.719,1.223,1.223,0,0,0,1.086.547q1.406,0,1.438-2.164V10.7q0-2.273-1.453-2.273-1.32,0-1.43,1.961Zm11.109,1.766a.608.608,0,0,0-.352-.539,5.348,5.348,0,0,0-1.336-.422,6.092,6.092,0,0,1-1.625-.574,2.722,2.722,0,0,1-.977-.863,2.061,2.061,0,0,1-.336-1.164,2.336,2.336,0,0,1,.961-1.918,3.958,3.958,0,0,1,2.516-.754,4.386,4.386,0,0,1,2.688.758,2.37,2.37,0,0,1,1.016,1.992H47.848q0-1.016-1.07-1.016a1.061,1.061,0,0,0-.7.23.714.714,0,0,0-.281.574.655.655,0,0,0,.344.57,3.248,3.248,0,0,0,1.1.359,9.485,9.485,0,0,1,1.324.336,2.406,2.406,0,0,1,1.906,2.352,2.214,2.214,0,0,1-1.027,1.883,4.505,4.505,0,0,1-2.66.727,4.6,4.6,0,0,1-1.937-.391A3.24,3.24,0,0,1,43.52,13.7a2.406,2.406,0,0,1-.477-1.414H45.5a1.017,1.017,0,0,0,.391.855,1.607,1.607,0,0,0,.961.27,1.264,1.264,0,0,0,.809-.219A.7.7,0,0,0,47.934,12.625ZM54.48,15H51.84V6.547H54.48Zm-2.8-10.641a1.186,1.186,0,0,1,.406-.927,1.719,1.719,0,0,1,2.109,0,1.186,1.186,0,0,1,.406.927,1.186,1.186,0,0,1-.406.927,1.719,1.719,0,0,1-2.109,0A1.186,1.186,0,0,1,51.684,4.359Zm8.844,8.266a.608.608,0,0,0-.352-.539,5.348,5.348,0,0,0-1.336-.422,6.092,6.092,0,0,1-1.625-.574,2.722,2.722,0,0,1-.977-.863A2.061,2.061,0,0,1,55.9,9.063a2.336,2.336,0,0,1,.961-1.918,3.958,3.958,0,0,1,2.516-.754,4.386,4.386,0,0,1,2.688.758,2.37,2.37,0,0,1,1.016,1.992H60.441q0-1.016-1.07-1.016a1.061,1.061,0,0,0-.7.23.714.714,0,0,0-.281.574.655.655,0,0,0,.344.57,3.248,3.248,0,0,0,1.1.359,9.485,9.485,0,0,1,1.324.336,2.406,2.406,0,0,1,1.906,2.352,2.214,2.214,0,0,1-1.027,1.883,4.505,4.505,0,0,1-2.66.727,4.6,4.6,0,0,1-1.937-.391A3.24,3.24,0,0,1,56.113,13.7a2.406,2.406,0,0,1-.477-1.414H58.1a1.017,1.017,0,0,0,.391.855,1.607,1.607,0,0,0,.961.27,1.264,1.264,0,0,0,.809-.219A.7.7,0,0,0,60.527,12.625Z" transform="translate(1106.268 6824.612)" fill="#12263f"/>
    <path id="Trazado_1031560" data-name="Trazado 1031560" d="M19.277,9.547a6.708,6.708,0,0,1-.617,2.945,4.561,4.561,0,0,1-1.754,1.973,4.884,4.884,0,0,1-2.59.691,4.953,4.953,0,0,1-2.578-.668,4.554,4.554,0,0,1-1.754-1.91,6.515,6.515,0,0,1-.66-2.852V9.086a6.737,6.737,0,0,1,.613-2.949A4.55,4.55,0,0,1,11.7,4.164a4.918,4.918,0,0,1,2.605-.7,4.87,4.87,0,0,1,2.578.688,4.632,4.632,0,0,1,1.762,1.957,6.544,6.544,0,0,1,.637,2.91ZM16.488,9.07A4.783,4.783,0,0,0,15.922,6.5,1.817,1.817,0,0,0,14.3,5.617q-2.062,0-2.18,3.094l-.008.836a4.92,4.92,0,0,0,.555,2.57,1.814,1.814,0,0,0,1.648.9,1.792,1.792,0,0,0,1.6-.883,4.785,4.785,0,0,0,.57-2.539Zm11.93,1.773a5.152,5.152,0,0,1-.859,3.2,2.878,2.878,0,0,1-2.422,1.117,2.5,2.5,0,0,1-2.078-1.023L22.949,15H20.59V3h2.633V7.227a2.41,2.41,0,0,1,1.9-.836,2.879,2.879,0,0,1,2.438,1.133,5.179,5.179,0,0,1,.859,3.188Zm-2.641-.168a3.437,3.437,0,0,0-.324-1.735,1.093,1.093,0,0,0-1-.519,1.261,1.261,0,0,0-1.234.679v3.354a1.268,1.268,0,0,0,1.25.671,1.118,1.118,0,0,0,1.18-.9A6.5,6.5,0,0,0,25.777,10.676ZM34,12.625a.608.608,0,0,0-.352-.539,5.348,5.348,0,0,0-1.336-.422,6.092,6.092,0,0,1-1.625-.574,2.722,2.722,0,0,1-.977-.863,2.061,2.061,0,0,1-.336-1.164,2.336,2.336,0,0,1,.961-1.918,3.958,3.958,0,0,1,2.516-.754,4.386,4.386,0,0,1,2.688.758,2.37,2.37,0,0,1,1.016,1.992H33.918q0-1.016-1.07-1.016a1.061,1.061,0,0,0-.7.23.714.714,0,0,0-.281.574.655.655,0,0,0,.344.57,3.248,3.248,0,0,0,1.1.359,9.485,9.485,0,0,1,1.324.336,2.406,2.406,0,0,1,1.906,2.352,2.214,2.214,0,0,1-1.027,1.883,4.505,4.505,0,0,1-2.66.727,4.6,4.6,0,0,1-1.937-.391A3.24,3.24,0,0,1,29.59,13.7a2.406,2.406,0,0,1-.477-1.414h2.461a1.017,1.017,0,0,0,.391.855,1.607,1.607,0,0,0,.961.27,1.264,1.264,0,0,0,.809-.219A.7.7,0,0,0,34,12.625Zm7.859,2.531A4.345,4.345,0,0,1,38.715,14a4.006,4.006,0,0,1-1.2-3.02v-.219a5.191,5.191,0,0,1,.48-2.289,3.516,3.516,0,0,1,1.4-1.535,4.233,4.233,0,0,1,2.188-.543A3.659,3.659,0,0,1,44.395,7.5a4.344,4.344,0,0,1,1.031,3.082V11.6H40.191a1.9,1.9,0,0,0,.617,1.117,1.836,1.836,0,0,0,1.234.406A2.366,2.366,0,0,0,44,12.25l1.2,1.422A3.363,3.363,0,0,1,43.8,14.754,4.713,4.713,0,0,1,41.863,15.156Zm-.3-6.734q-1.156,0-1.375,1.531h2.656v-.2a1.3,1.3,0,0,0-.32-.98A1.275,1.275,0,0,0,41.566,8.422ZM51.6,8.93l-.867-.062a1.558,1.558,0,0,0-1.594.781V15H46.5V6.547h2.469l.086,1.086A2.039,2.039,0,0,1,50.91,6.391a2.567,2.567,0,0,1,.734.094Zm4.461,2.938,1.336-5.32h2.773L57.41,15H54.723L51.965,6.547h2.781ZM65.6,15a2.973,2.973,0,0,1-.25-.758,2.448,2.448,0,0,1-2.031.914,3,3,0,0,1-2.031-.723,2.3,2.3,0,0,1-.836-1.816,2.364,2.364,0,0,1,1.016-2.078,5.174,5.174,0,0,1,2.953-.7h.813V9.388q0-1.17-1.008-1.17a.824.824,0,0,0-.937.926H60.652A2.36,2.36,0,0,1,61.7,7.155a4.383,4.383,0,0,1,2.66-.765,3.843,3.843,0,0,1,2.555.789,2.743,2.743,0,0,1,.961,2.164v3.742a3.832,3.832,0,0,0,.359,1.781V15Zm-1.648-1.719a1.469,1.469,0,0,0,.816-.211,1.322,1.322,0,0,0,.465-.477V11.242h-.766q-1.375,0-1.375,1.234a.754.754,0,0,0,.242.582A.876.876,0,0,0,63.949,13.281Zm8.953-.156a1.171,1.171,0,0,0,.859-.3,1.1,1.1,0,0,0,.3-.84h2.469a2.922,2.922,0,0,1-1,2.281,3.705,3.705,0,0,1-2.566.891A3.751,3.751,0,0,1,70.059,14,4.556,4.556,0,0,1,69,10.8v-.109a5.149,5.149,0,0,1,.473-2.262,3.441,3.441,0,0,1,1.363-1.508,4.065,4.065,0,0,1,2.109-.527,3.658,3.658,0,0,1,2.617.914,3.242,3.242,0,0,1,.969,2.477H74.059a1.445,1.445,0,0,0-.32-1.008,1.106,1.106,0,0,0-.859-.352q-1.023,0-1.2,1.3a9.206,9.206,0,0,0-.055,1.141,3.616,3.616,0,0,0,.3,1.766A1.055,1.055,0,0,0,72.9,13.125ZM80.418,15H77.777V6.547h2.641Zm-2.8-10.641a1.186,1.186,0,0,1,.406-.927,1.719,1.719,0,0,1,2.109,0,1.186,1.186,0,0,1,.406.927,1.186,1.186,0,0,1-.406.927,1.719,1.719,0,0,1-2.109,0A1.186,1.186,0,0,1,77.621,4.359ZM81.707,10.7A4.989,4.989,0,0,1,82.2,8.441a3.52,3.52,0,0,1,1.414-1.52,4.259,4.259,0,0,1,2.164-.531A3.887,3.887,0,0,1,88.77,7.566a4.512,4.512,0,0,1,1.094,3.2v.094A4.378,4.378,0,0,1,88.766,14a3.9,3.9,0,0,1-2.973,1.16,3.942,3.942,0,0,1-2.9-1.082,4.232,4.232,0,0,1-1.18-2.934Zm2.633.164a3.145,3.145,0,0,0,.367,1.719,1.223,1.223,0,0,0,1.086.547q1.406,0,1.438-2.164V10.7q0-2.273-1.453-2.273-1.32,0-1.43,1.961Zm9.1-4.312.086.992a2.867,2.867,0,0,1,2.414-1.148,2.412,2.412,0,0,1,1.973.789,3.757,3.757,0,0,1,.676,2.375V15H95.949V9.664a1.426,1.426,0,0,0-.258-.941,1.193,1.193,0,0,0-.937-.3,1.256,1.256,0,0,0-1.148.609V15H90.973V6.547Zm10.7,8.609A4.345,4.345,0,0,1,100.988,14a4.006,4.006,0,0,1-1.2-3.02v-.219a5.191,5.191,0,0,1,.48-2.289,3.516,3.516,0,0,1,1.4-1.535,4.233,4.233,0,0,1,2.188-.543A3.659,3.659,0,0,1,106.668,7.5a4.344,4.344,0,0,1,1.031,3.082V11.6h-5.234a1.9,1.9,0,0,0,.617,1.117,1.836,1.836,0,0,0,1.234.406,2.366,2.366,0,0,0,1.953-.875l1.2,1.422a3.363,3.363,0,0,1-1.395,1.082A4.713,4.713,0,0,1,104.137,15.156Zm-.3-6.734q-1.156,0-1.375,1.531h2.656v-.2a1.3,1.3,0,0,0-.32-.98A1.275,1.275,0,0,0,103.84,8.422Zm9.344,4.2a.608.608,0,0,0-.352-.539,5.348,5.348,0,0,0-1.336-.422,6.092,6.092,0,0,1-1.625-.574,2.722,2.722,0,0,1-.977-.863,2.061,2.061,0,0,1-.336-1.164,2.336,2.336,0,0,1,.961-1.918,3.958,3.958,0,0,1,2.516-.754,4.386,4.386,0,0,1,2.688.758,2.37,2.37,0,0,1,1.016,1.992H113.1q0-1.016-1.07-1.016a1.061,1.061,0,0,0-.7.23.714.714,0,0,0-.281.574.655.655,0,0,0,.344.57,3.248,3.248,0,0,0,1.1.359,9.486,9.486,0,0,1,1.324.336,2.406,2.406,0,0,1,1.906,2.352A2.214,2.214,0,0,1,114.7,14.43a4.505,4.505,0,0,1-2.66.727,4.6,4.6,0,0,1-1.937-.391A3.24,3.24,0,0,1,108.77,13.7a2.406,2.406,0,0,1-.477-1.414h2.461a1.017,1.017,0,0,0,.391.855,1.607,1.607,0,0,0,.961.27,1.264,1.264,0,0,0,.809-.219A.7.7,0,0,0,113.184,12.625Z" transform="translate(1234.268 6824.612)" fill="#12263f"/>
    <path id="Trazado_1031562" data-name="Trazado 1031562" d="M30.883,15H29.375V9.742H23.641V15h-1.5V3.625h1.5V8.516h5.734V3.625h1.508Zm7.656-.836a3.07,3.07,0,0,1-2.477.992A2.628,2.628,0,0,1,34,14.371a3.4,3.4,0,0,1-.715-2.324v-5.5h1.445v5.461q0,1.922,1.563,1.922A2.163,2.163,0,0,0,38.5,12.7V6.547h1.445V15H38.57Zm7.109.992a3.693,3.693,0,0,1-2.8-1.129,4.19,4.19,0,0,1-1.078-3.02v-.266a5.073,5.073,0,0,1,.48-2.246A3.748,3.748,0,0,1,43.6,6.949a3.378,3.378,0,0,1,1.871-.559,3.166,3.166,0,0,1,2.563,1.086,4.7,4.7,0,0,1,.914,3.109v.6H43.219a3,3,0,0,0,.73,2.02,2.3,2.3,0,0,0,1.777.77,2.517,2.517,0,0,0,1.3-.312,3.259,3.259,0,0,0,.93-.828l.883.688A3.55,3.55,0,0,1,45.648,15.156Zm-.18-7.578A1.928,1.928,0,0,0,44,8.215,3.1,3.1,0,0,0,43.266,10H47.5V9.891a2.753,2.753,0,0,0-.594-1.707A1.815,1.815,0,0,0,45.469,7.578ZM53.3,13.039,55.4,6.547h1.477L53.844,15h-1.1L49.68,6.547h1.477ZM57.766,10.7a4.993,4.993,0,0,1,.488-2.234A3.643,3.643,0,0,1,59.613,6.93,3.7,3.7,0,0,1,61.6,6.391a3.565,3.565,0,0,1,2.793,1.2,4.6,4.6,0,0,1,1.066,3.18v.1a5.036,5.036,0,0,1-.473,2.215,3.589,3.589,0,0,1-1.352,1.527,3.743,3.743,0,0,1-2.02.547,3.556,3.556,0,0,1-2.785-1.2A4.575,4.575,0,0,1,57.766,10.8Zm1.453.172a3.616,3.616,0,0,0,.652,2.258,2.211,2.211,0,0,0,3.5-.012,3.955,3.955,0,0,0,.648-2.418,3.61,3.61,0,0,0-.66-2.254A2.1,2.1,0,0,0,61.6,7.578a2.075,2.075,0,0,0-1.727.852A3.925,3.925,0,0,0,59.219,10.867Z" transform="translate(1007.268 6888.612)" fill="#12263f"/>
    <path id="Trazado_1031561" data-name="Trazado 1031561" d="M32.27,11.391a4.185,4.185,0,0,1-1.332,2.785,4.365,4.365,0,0,1-2.98.98,4.008,4.008,0,0,1-3.23-1.445,5.815,5.815,0,0,1-1.215-3.867V8.75a6.481,6.481,0,0,1,.566-2.789,4.231,4.231,0,0,1,1.605-1.848,4.47,4.47,0,0,1,2.406-.645A4.11,4.11,0,0,1,31,4.48a4.235,4.235,0,0,1,1.273,2.8H30.762a3.268,3.268,0,0,0-.848-1.975A2.565,2.565,0,0,0,28.09,4.7a2.684,2.684,0,0,0-2.254,1.063,4.882,4.882,0,0,0-.816,3.026v1.1a5.018,5.018,0,0,0,.773,2.948,2.5,2.5,0,0,0,2.164,1.095,2.886,2.886,0,0,0,1.918-.566,3.143,3.143,0,0,0,.887-1.973ZM39.309,15a3.036,3.036,0,0,1-.2-.891A3.225,3.225,0,0,1,36.7,15.156a2.984,2.984,0,0,1-2.051-.707,2.287,2.287,0,0,1-.8-1.793,2.39,2.39,0,0,1,1-2.051,4.733,4.733,0,0,1,2.824-.73h1.406V9.211A1.623,1.623,0,0,0,38.629,8a1.821,1.821,0,0,0-1.336-.449,2.107,2.107,0,0,0-1.3.391,1.151,1.151,0,0,0-.523.945H34.02a2,2,0,0,1,.449-1.223,3.066,3.066,0,0,1,1.219-.934,4.1,4.1,0,0,1,1.691-.344,3.342,3.342,0,0,1,2.289.73,2.635,2.635,0,0,1,.859,2.012v3.891a4.757,4.757,0,0,0,.3,1.852V15Zm-2.4-1.1a2.54,2.54,0,0,0,1.289-.352,2.127,2.127,0,0,0,.883-.914V10.9H37.949q-2.656,0-2.656,1.555a1.316,1.316,0,0,0,.453,1.063A1.742,1.742,0,0,0,36.91,13.9Zm9.969-6.055a4.331,4.331,0,0,0-.711-.055A1.9,1.9,0,0,0,44.238,9v6H42.793V6.547H44.2l.023.977a2.251,2.251,0,0,1,2.016-1.133,1.477,1.477,0,0,1,.641.109Zm2.7-1.3.047,1.063a3.08,3.08,0,0,1,2.531-1.219q2.68,0,2.7,3.023V15H53.41V9.406a1.946,1.946,0,0,0-.418-1.352,1.675,1.675,0,0,0-1.277-.437,2.086,2.086,0,0,0-1.234.375,2.546,2.546,0,0,0-.828.984V15H48.207V6.547Zm10.969,8.609a3.693,3.693,0,0,1-2.8-1.129,4.19,4.19,0,0,1-1.078-3.02v-.266a5.073,5.073,0,0,1,.48-2.246,3.748,3.748,0,0,1,1.344-1.547,3.378,3.378,0,0,1,1.871-.559,3.166,3.166,0,0,1,2.563,1.086,4.7,4.7,0,0,1,.914,3.109v.6H58.113a3,3,0,0,0,.73,2.02,2.3,2.3,0,0,0,1.777.77,2.517,2.517,0,0,0,1.3-.312,3.259,3.259,0,0,0,.93-.828l.883.688A3.55,3.55,0,0,1,60.543,15.156Zm-.18-7.578a1.928,1.928,0,0,0-1.469.637A3.1,3.1,0,0,0,58.16,10h4.234V9.891A2.753,2.753,0,0,0,61.8,8.184,1.815,1.815,0,0,0,60.363,7.578Z" transform="translate(1106.268 6888.612)" fill="#12263f"/>
    <path id="Trazado_1031554" data-name="Trazado 1031554" d="M36.961,11.906l2.266-8.281h3.063L38.461,15h-3l-3.8-11.375H34.7ZM45.867,15H43.219V6.547h2.648ZM44.883,3.156h2.781L45.492,5.609l-2.148,0ZM52.32,15a2.973,2.973,0,0,1-.25-.758,2.448,2.448,0,0,1-2.031.914,3,3,0,0,1-2.031-.723,2.3,2.3,0,0,1-.836-1.816,2.364,2.364,0,0,1,1.016-2.078,5.174,5.174,0,0,1,2.953-.7h.813V9.388q0-1.17-1.008-1.17a.824.824,0,0,0-.937.926H47.375a2.36,2.36,0,0,1,1.043-1.99,4.383,4.383,0,0,1,2.66-.765,3.843,3.843,0,0,1,2.555.789,2.743,2.743,0,0,1,.961,2.164v3.742a3.832,3.832,0,0,0,.359,1.781V15Zm-1.648-1.719a1.469,1.469,0,0,0,.816-.211,1.322,1.322,0,0,0,.465-.477V11.242h-.766q-1.375,0-1.375,1.234a.754.754,0,0,0,.242.582A.876.876,0,0,0,50.672,13.281ZM6.852,35a2.973,2.973,0,0,1-.25-.758,2.448,2.448,0,0,1-2.031.914,3,3,0,0,1-2.031-.723A2.3,2.3,0,0,1,1.7,32.617a2.364,2.364,0,0,1,1.016-2.078,5.174,5.174,0,0,1,2.953-.7h.813v-.448q0-1.17-1.008-1.17a.824.824,0,0,0-.937.926H1.906a2.36,2.36,0,0,1,1.043-1.99,4.383,4.383,0,0,1,2.66-.765,3.843,3.843,0,0,1,2.555.789,2.743,2.743,0,0,1,.961,2.164v3.742a3.832,3.832,0,0,0,.359,1.781V35ZM5.2,33.281a1.469,1.469,0,0,0,.816-.211,1.322,1.322,0,0,0,.465-.477V31.242H5.719q-1.375,0-1.375,1.234a.754.754,0,0,0,.242.582A.876.876,0,0,0,5.2,33.281Zm5.047-2.57a5.164,5.164,0,0,1,.867-3.164,2.854,2.854,0,0,1,2.422-1.156,2.428,2.428,0,0,1,1.906.891V23h2.641V35H15.719l-.133-.906a2.493,2.493,0,0,1-2.062,1.063A2.849,2.849,0,0,1,11.133,34,5.327,5.327,0,0,1,10.25,30.711Zm2.633.164q0,2.25,1.313,2.25a1.3,1.3,0,0,0,1.25-.734V29.172a1.261,1.261,0,0,0-1.234-.75q-1.219,0-1.32,1.969Zm9.188-4.328.086.992a2.906,2.906,0,0,1,2.414-1.148,2.14,2.14,0,0,1,2.164,1.273,2.813,2.813,0,0,1,2.484-1.273q2.57,0,2.641,3.109V35H29.219V29.664A1.611,1.611,0,0,0,29,28.719a.931.931,0,0,0-.8-.3,1.247,1.247,0,0,0-1.164.7l.008.109V35H24.406V29.68a1.694,1.694,0,0,0-.211-.961.929.929,0,0,0-.8-.3,1.263,1.263,0,0,0-1.156.7V35H19.6V26.547ZM36.141,35H33.5V26.547h2.641Zm-2.8-10.641a1.186,1.186,0,0,1,.406-.927,1.719,1.719,0,0,1,2.109,0,1.262,1.262,0,0,1,0,1.855,1.719,1.719,0,0,1-2.109,0A1.186,1.186,0,0,1,33.344,24.359Zm6.836,2.188.086.992a2.867,2.867,0,0,1,2.414-1.148,2.412,2.412,0,0,1,1.973.789,3.757,3.757,0,0,1,.676,2.375V35H42.688V29.664a1.426,1.426,0,0,0-.258-.941,1.193,1.193,0,0,0-.937-.3,1.256,1.256,0,0,0-1.148.609V35H37.711V26.547ZM49.563,35H46.922V26.547h2.641Zm-2.8-10.641a1.186,1.186,0,0,1,.406-.927,1.719,1.719,0,0,1,2.109,0,1.262,1.262,0,0,1,0,1.855,1.719,1.719,0,0,1-2.109,0A1.186,1.186,0,0,1,46.766,24.359Zm8.844,8.266a.608.608,0,0,0-.352-.539,5.348,5.348,0,0,0-1.336-.422A6.092,6.092,0,0,1,52.3,31.09a2.722,2.722,0,0,1-.977-.863,2.061,2.061,0,0,1-.336-1.164,2.336,2.336,0,0,1,.961-1.918,3.958,3.958,0,0,1,2.516-.754,4.386,4.386,0,0,1,2.688.758,2.37,2.37,0,0,1,1.016,1.992H55.523q0-1.016-1.07-1.016a1.061,1.061,0,0,0-.7.23.714.714,0,0,0-.281.574.655.655,0,0,0,.344.57,3.248,3.248,0,0,0,1.1.359,9.485,9.485,0,0,1,1.324.336,2.406,2.406,0,0,1,1.906,2.352,2.214,2.214,0,0,1-1.027,1.883,4.505,4.505,0,0,1-2.66.727,4.6,4.6,0,0,1-1.937-.391A3.24,3.24,0,0,1,51.2,33.7a2.406,2.406,0,0,1-.477-1.414H53.18a1.017,1.017,0,0,0,.391.855,1.607,1.607,0,0,0,.961.27,1.264,1.264,0,0,0,.809-.219A.7.7,0,0,0,55.609,32.625Zm6.836-8.18v2.1h1.391v1.828H62.445v3.867a.987.987,0,0,0,.172.664.922.922,0,0,0,.68.188,3.862,3.862,0,0,0,.656-.047V34.93a4.859,4.859,0,0,1-1.484.227,2.758,2.758,0,0,1-2.008-.641,2.626,2.626,0,0,1-.648-1.945v-4.2H58.734V26.547h1.078v-2.1Zm7.539,4.484-.867-.062a1.558,1.558,0,0,0-1.594.781V35H64.891V26.547h2.469l.086,1.086A2.039,2.039,0,0,1,69.3,26.391a2.567,2.567,0,0,1,.734.094ZM75.461,35a2.973,2.973,0,0,1-.25-.758,2.448,2.448,0,0,1-2.031.914,3,3,0,0,1-2.031-.723,2.3,2.3,0,0,1-.836-1.816,2.364,2.364,0,0,1,1.016-2.078,5.174,5.174,0,0,1,2.953-.7h.813v-.448q0-1.17-1.008-1.17a.824.824,0,0,0-.937.926H70.516a2.36,2.36,0,0,1,1.043-1.99,4.383,4.383,0,0,1,2.66-.765,3.843,3.843,0,0,1,2.555.789,2.743,2.743,0,0,1,.961,2.164v3.742a3.832,3.832,0,0,0,.359,1.781V35Zm-1.648-1.719a1.469,1.469,0,0,0,.816-.211,1.322,1.322,0,0,0,.465-.477V31.242h-.766q-1.375,0-1.375,1.234a.754.754,0,0,0,.242.582A.876.876,0,0,0,73.813,33.281Zm10.523-2.172h-4.7V29.078h4.7ZM32.453,53.125a1.171,1.171,0,0,0,.859-.3,1.1,1.1,0,0,0,.3-.84h2.469a2.923,2.923,0,0,1-1,2.281,3.705,3.705,0,0,1-2.566.891A3.751,3.751,0,0,1,29.609,54a4.556,4.556,0,0,1-1.062-3.2v-.109a5.149,5.149,0,0,1,.473-2.262,3.441,3.441,0,0,1,1.363-1.508,4.065,4.065,0,0,1,2.109-.527,3.658,3.658,0,0,1,2.617.914,3.242,3.242,0,0,1,.969,2.477H33.609a1.445,1.445,0,0,0-.32-1.008,1.106,1.106,0,0,0-.859-.352q-1.023,0-1.2,1.3a9.206,9.206,0,0,0-.055,1.141,3.616,3.616,0,0,0,.3,1.766A1.055,1.055,0,0,0,32.453,53.125ZM39.969,55H37.328V46.547h2.641Zm-2.8-10.641a1.186,1.186,0,0,1,.406-.927,1.719,1.719,0,0,1,2.109,0,1.262,1.262,0,0,1,0,1.855,1.719,1.719,0,0,1-2.109,0A1.186,1.186,0,0,1,37.172,44.359ZM41.258,50.7a4.989,4.989,0,0,1,.492-2.254,3.52,3.52,0,0,1,1.414-1.52,4.259,4.259,0,0,1,2.164-.531,3.887,3.887,0,0,1,2.992,1.176,4.512,4.512,0,0,1,1.094,3.2v.094A4.378,4.378,0,0,1,48.316,54a3.9,3.9,0,0,1-2.973,1.16,3.942,3.942,0,0,1-2.9-1.082,4.232,4.232,0,0,1-1.18-2.934Zm2.633.164a3.145,3.145,0,0,0,.367,1.719,1.223,1.223,0,0,0,1.086.547q1.406,0,1.438-2.164V50.7q0-2.273-1.453-2.273-1.32,0-1.43,1.961ZM45.688,43h2.781L46.3,45.453l-2.148,0Zm7.3,3.547.086.992a2.867,2.867,0,0,1,2.414-1.148,2.412,2.412,0,0,1,1.973.789,3.757,3.757,0,0,1,.676,2.375V55H55.5V49.664a1.426,1.426,0,0,0-.258-.941,1.193,1.193,0,0,0-.937-.3,1.256,1.256,0,0,0-1.148.609V55H50.523V46.547Z" transform="translate(609.268 6803.612)" fill="#12263f"/>
    <path id="Trazado_1031548" data-name="Trazado 1031548" d="M136.469,12.891h4.773V15h-7.516V3.625h2.742Zm15.063-3.344a6.708,6.708,0,0,1-.617,2.945,4.561,4.561,0,0,1-1.754,1.973,4.884,4.884,0,0,1-2.59.691,4.953,4.953,0,0,1-2.578-.668,4.554,4.554,0,0,1-1.754-1.91,6.515,6.515,0,0,1-.66-2.852V9.086a6.737,6.737,0,0,1,.613-2.949,4.55,4.55,0,0,1,1.758-1.973,5.2,5.2,0,0,1,5.184-.008,4.632,4.632,0,0,1,1.762,1.957,6.544,6.544,0,0,1,.637,2.91Zm-2.789-.477a4.783,4.783,0,0,0-.566-2.574,1.817,1.817,0,0,0-1.621-.879q-2.062,0-2.18,3.094l-.008.836a4.92,4.92,0,0,0,.555,2.57,1.814,1.814,0,0,0,1.648.9,1.792,1.792,0,0,0,1.6-.883,4.785,4.785,0,0,0,.57-2.539Zm13.516,4.523a4.409,4.409,0,0,1-1.852,1.133,7.986,7.986,0,0,1-2.672.43,4.764,4.764,0,0,1-3.57-1.367,5.534,5.534,0,0,1-1.43-3.8L152.727,9a6.788,6.788,0,0,1,.594-2.934,4.409,4.409,0,0,1,1.7-1.93,4.807,4.807,0,0,1,2.559-.676,5.039,5.039,0,0,1,3.3.973,4.121,4.121,0,0,1,1.371,2.9h-2.641A2.157,2.157,0,0,0,159,5.977a1.966,1.966,0,0,0-1.328-.406,1.789,1.789,0,0,0-1.594.875,4.672,4.672,0,0,0-.57,2.5v.688a4.574,4.574,0,0,0,.582,2.559,2.059,2.059,0,0,0,1.832.855,2.3,2.3,0,0,0,1.594-.477V10.8h-1.906V8.922h4.648Zm11.227-4.047a6.708,6.708,0,0,1-.617,2.945,4.561,4.561,0,0,1-1.754,1.973,4.884,4.884,0,0,1-2.59.691,4.953,4.953,0,0,1-2.578-.668,4.554,4.554,0,0,1-1.754-1.91,6.515,6.515,0,0,1-.66-2.852V9.086a6.737,6.737,0,0,1,.613-2.949A4.55,4.55,0,0,1,165.9,4.164a5.2,5.2,0,0,1,5.184-.008,4.632,4.632,0,0,1,1.762,1.957,6.544,6.544,0,0,1,.637,2.91ZM170.7,9.07a4.783,4.783,0,0,0-.566-2.574,1.817,1.817,0,0,0-1.621-.879q-2.062,0-2.18,3.094l-.008.836a4.92,4.92,0,0,0,.555,2.57,1.814,1.814,0,0,0,1.648.9,1.792,1.792,0,0,0,1.6-.883,4.785,4.785,0,0,0,.57-2.539Zm17.82.477a6.708,6.708,0,0,1-.617,2.945,4.561,4.561,0,0,1-1.754,1.973,4.884,4.884,0,0,1-2.59.691,4.953,4.953,0,0,1-2.578-.668,4.554,4.554,0,0,1-1.754-1.91,6.515,6.515,0,0,1-.66-2.852V9.086a6.737,6.737,0,0,1,.613-2.949,4.55,4.55,0,0,1,1.758-1.973,5.2,5.2,0,0,1,5.184-.008,4.632,4.632,0,0,1,1.762,1.957,6.544,6.544,0,0,1,.637,2.91Zm-2.789-.477A4.783,4.783,0,0,0,185.16,6.5a1.817,1.817,0,0,0-1.621-.879q-2.062,0-2.18,3.094l-.008.836a4.92,4.92,0,0,0,.555,2.57,1.814,1.814,0,0,0,1.648.9,1.792,1.792,0,0,0,1.6-.883,4.785,4.785,0,0,0,.57-2.539Zm11.789-5.445,2.539,7.914,2.531-7.914H206.2V15h-2.75V12.344l.266-5.437L200.961,15h-1.812l-2.758-8.1.266,5.445V15h-2.742V3.625Zm17.023,9.25h-3.758L210.125,15H207.2l4.172-11.375h2.578L218.148,15H215.2Zm-3.1-2.117h2.445l-1.227-3.945Zm11.766.219h-1.484V15h-2.742V3.625h4.477a5,5,0,0,1,3.164.9,3.041,3.041,0,0,1,1.141,2.536,3.693,3.693,0,0,1-.48,1.967,3.41,3.41,0,0,1-1.5,1.264l2.375,4.593V15h-2.937Zm-1.484-2.109h1.734a1.557,1.557,0,0,0,1.176-.411,1.59,1.59,0,0,0,.395-1.147,1.608,1.608,0,0,0-.4-1.155,1.542,1.542,0,0,0-1.172-.419h-1.734Zm16.9,2.281a4.154,4.154,0,0,1-.641,2.1,3.866,3.866,0,0,1-1.645,1.41,5.6,5.6,0,0,1-2.418.5,4.467,4.467,0,0,1-3.531-1.461,6.032,6.032,0,0,1-1.289-4.125V9.008a6.885,6.885,0,0,1,.582-2.926,4.41,4.41,0,0,1,1.676-1.937,4.676,4.676,0,0,1,2.531-.684,4.9,4.9,0,0,1,3.328,1.09,4.306,4.306,0,0,1,1.43,3h-2.734a2.037,2.037,0,0,0-.523-1.492,2.153,2.153,0,0,0-1.5-.453,1.638,1.638,0,0,0-1.5.766,4.921,4.921,0,0,0-.5,2.445v.8a5.445,5.445,0,0,0,.457,2.6,1.672,1.672,0,0,0,1.574.781,2.106,2.106,0,0,0,1.445-.445,1.89,1.89,0,0,0,.531-1.414Zm7.758,1.727h-3.758L241.961,15h-2.93L243.2,3.625h2.578L249.984,15h-2.945Zm-3.1-2.117h2.445l-1.227-3.945ZM254.8,15V3.625h3.664a5.39,5.39,0,0,1,2.711.684,4.805,4.805,0,0,1,1.879,1.93,5.826,5.826,0,0,1,.684,2.793v.523a5.86,5.86,0,0,1-.66,2.8,4.826,4.826,0,0,1-1.859,1.938,5.271,5.271,0,0,1-2.676.707Zm2.742-9.258v7.148h.953a2.133,2.133,0,0,0,1.813-.84,4.116,4.116,0,0,0,.633-2.5V9.063a4.082,4.082,0,0,0-.633-2.484,2.17,2.17,0,0,0-1.844-.836Zm14.656,4.43h-4.312v2.719h5.094V15h-7.836V3.625h7.852V5.742h-5.109v2.4H272.2Zm8.625,2.719h4.773V15h-7.516V3.625h2.742Zm12.539-.016H289.6L288.945,15h-2.93l4.172-11.375h2.578L296.969,15h-2.945Zm-3.1-2.117H292.7l-1.227-3.945Zm18.688-.289h-4.422V15h-2.742V3.625h7.609V5.742h-4.867V8.359h4.422ZM313.453,15h-2.734V3.625h2.734Zm11.406,0h-2.727L318.1,7.922V15h-2.742V3.625H318.1l4.023,7.078V3.625h2.734ZM335.8,11.148a4.154,4.154,0,0,1-.641,2.1,3.866,3.866,0,0,1-1.645,1.41,5.6,5.6,0,0,1-2.418.5,4.467,4.467,0,0,1-3.531-1.461,6.032,6.032,0,0,1-1.289-4.125V9.008a6.885,6.885,0,0,1,.582-2.926,4.41,4.41,0,0,1,1.676-1.937,4.676,4.676,0,0,1,2.531-.684,4.9,4.9,0,0,1,3.328,1.09,4.306,4.306,0,0,1,1.43,3h-2.734a2.037,2.037,0,0,0-.523-1.492,2.153,2.153,0,0,0-1.5-.453,1.638,1.638,0,0,0-1.5.766,4.921,4.921,0,0,0-.5,2.445v.8a5.445,5.445,0,0,0,.457,2.6,1.672,1.672,0,0,0,1.574.781,2.106,2.106,0,0,0,1.445-.445,1.89,1.89,0,0,0,.531-1.414Zm7.758,1.727H339.8L339.141,15h-2.93l4.172-11.375h2.578L347.164,15h-2.945Zm-3.1-2.117H342.9l-1.227-3.945ZM28.7,36.875H24.945L24.289,39h-2.93l4.172-11.375h2.578L32.313,39H29.367Zm-3.1-2.117h2.445L26.82,30.813Zm10.281.383V39H33.141V27.625H37.68a5.287,5.287,0,0,1,2.309.48,3.621,3.621,0,0,1,1.555,1.367,3.734,3.734,0,0,1,.551,2.012,3.291,3.291,0,0,1-1.191,2.66,4.943,4.943,0,0,1-3.27,1Zm0-2.117h1.8a1.7,1.7,0,0,0,1.215-.4,1.48,1.48,0,0,0,.418-1.125,1.83,1.83,0,0,0-.43-1.273,1.522,1.522,0,0,0-1.172-.484H35.883ZM46.3,36.891H51.07V39H43.555V27.625H46.3ZM55.148,39H52.414V27.625h2.734Zm11.109-3.852a4.154,4.154,0,0,1-.641,2.1,3.866,3.866,0,0,1-1.645,1.41,5.6,5.6,0,0,1-2.418.5A4.467,4.467,0,0,1,58.023,37.7a6.032,6.032,0,0,1-1.289-4.125v-.562a6.885,6.885,0,0,1,.582-2.926,4.41,4.41,0,0,1,1.676-1.937,4.676,4.676,0,0,1,2.531-.684,4.9,4.9,0,0,1,3.328,1.09,4.306,4.306,0,0,1,1.43,3H63.547a2.037,2.037,0,0,0-.523-1.492,2.153,2.153,0,0,0-1.5-.453,1.638,1.638,0,0,0-1.5.766,4.921,4.921,0,0,0-.5,2.445v.8a5.445,5.445,0,0,0,.457,2.6,1.672,1.672,0,0,0,1.574.781A2.106,2.106,0,0,0,63,36.563a1.89,1.89,0,0,0,.531-1.414Zm7.758,1.727H70.258L69.6,39h-2.93l4.172-11.375h2.578L77.625,39H74.68Zm-3.1-2.117h2.445l-1.227-3.945Zm16.578.391a4.154,4.154,0,0,1-.641,2.1,3.866,3.866,0,0,1-1.645,1.41,5.6,5.6,0,0,1-2.418.5A4.467,4.467,0,0,1,79.258,37.7a6.032,6.032,0,0,1-1.289-4.125v-.562a6.885,6.885,0,0,1,.582-2.926,4.41,4.41,0,0,1,1.676-1.937,4.676,4.676,0,0,1,2.531-.684,4.9,4.9,0,0,1,3.328,1.09,4.306,4.306,0,0,1,1.43,3H84.781a2.037,2.037,0,0,0-.523-1.492,2.153,2.153,0,0,0-1.5-.453,1.638,1.638,0,0,0-1.5.766,4.921,4.921,0,0,0-.5,2.445v.8a5.445,5.445,0,0,0,.457,2.6,1.672,1.672,0,0,0,1.574.781,2.106,2.106,0,0,0,1.445-.445,1.89,1.89,0,0,0,.531-1.414ZM91.711,39H88.977V27.625h2.734Zm11.539-5.453a6.708,6.708,0,0,1-.617,2.945,4.561,4.561,0,0,1-1.754,1.973,4.884,4.884,0,0,1-2.59.691,4.953,4.953,0,0,1-2.578-.668,4.554,4.554,0,0,1-1.754-1.91,6.515,6.515,0,0,1-.66-2.852v-.641a6.738,6.738,0,0,1,.613-2.949,4.55,4.55,0,0,1,1.758-1.973,5.2,5.2,0,0,1,5.184-.008,4.632,4.632,0,0,1,1.762,1.957,6.544,6.544,0,0,1,.637,2.91Zm-2.789-.477a4.783,4.783,0,0,0-.566-2.574,1.817,1.817,0,0,0-1.621-.879q-2.062,0-2.18,3.094l-.008.836a4.92,4.92,0,0,0,.555,2.57,1.814,1.814,0,0,0,1.648.9,1.792,1.792,0,0,0,1.6-.883,4.785,4.785,0,0,0,.57-2.539Zm-1.867-8.492h2.781L99.2,27.031l-2.148,0ZM114.164,39h-2.727l-4.031-7.078V39h-2.742V27.625h2.742L111.43,34.7V27.625h2.734Zm5.719,0V27.625h3.664a5.39,5.39,0,0,1,2.711.684,4.805,4.805,0,0,1,1.879,1.93,5.826,5.826,0,0,1,.684,2.793v.523a5.86,5.86,0,0,1-.66,2.8,4.826,4.826,0,0,1-1.859,1.938,5.271,5.271,0,0,1-2.676.707Zm2.742-9.258v7.148h.953a2.133,2.133,0,0,0,1.813-.84,4.116,4.116,0,0,0,.633-2.5v-.492a4.082,4.082,0,0,0-.633-2.484,2.17,2.17,0,0,0-1.844-.836Zm14.656,4.43h-4.312v2.719h5.094V39h-7.836V27.625h7.852v2.117h-5.109v2.4h4.313Zm9.484-6.547,2.539,7.914,2.531-7.914h3.609V39H152.7V36.344l.266-5.437L150.211,39H148.4l-2.758-8.1.266,5.445V39h-2.742V27.625Zm17.477,6.547H159.93v2.719h5.094V39h-7.836V27.625h7.852v2.117H159.93v2.4h4.313Zm1.9,4.828V27.625H169.8a5.39,5.39,0,0,1,2.711.684,4.805,4.805,0,0,1,1.879,1.93,5.826,5.826,0,0,1,.684,2.793v.523a5.86,5.86,0,0,1-.66,2.8,4.826,4.826,0,0,1-1.859,1.938,5.271,5.271,0,0,1-2.676.707Zm2.742-9.258v7.148h.953a2.133,2.133,0,0,0,1.813-.84,4.116,4.116,0,0,0,.633-2.5v-.492a4.082,4.082,0,0,0-.633-2.484,2.17,2.17,0,0,0-1.844-.836ZM179.406,39h-2.734V27.625h2.734Zm11.109-3.852a4.154,4.154,0,0,1-.641,2.1,3.866,3.866,0,0,1-1.645,1.41,5.6,5.6,0,0,1-2.418.5,4.467,4.467,0,0,1-3.531-1.461,6.032,6.032,0,0,1-1.289-4.125v-.562a6.885,6.885,0,0,1,.582-2.926,4.41,4.41,0,0,1,1.676-1.937,4.676,4.676,0,0,1,2.531-.684,4.9,4.9,0,0,1,3.328,1.09,4.306,4.306,0,0,1,1.43,3H187.8a2.037,2.037,0,0,0-.523-1.492,2.153,2.153,0,0,0-1.5-.453,1.638,1.638,0,0,0-1.5.766,4.921,4.921,0,0,0-.5,2.445v.8a5.445,5.445,0,0,0,.457,2.6,1.672,1.672,0,0,0,1.574.781,2.106,2.106,0,0,0,1.445-.445,1.89,1.89,0,0,0,.531-1.414Zm7.758,1.727h-3.758L193.859,39h-2.93L195.1,27.625h2.578L201.883,39h-2.945Zm-3.1-2.117h2.445l-1.227-3.945Zm11.141-7.133,2.539,7.914,2.531-7.914h3.609V39h-2.75V36.344l.266-5.437L209.758,39h-1.812l-2.758-8.1.266,5.445V39h-2.742V27.625Zm17.477,6.547h-4.312v2.719h5.094V39h-7.836V27.625h7.852v2.117h-5.109v2.4h4.313ZM235.188,39h-2.727l-4.031-7.078V39h-2.742V27.625h2.742l4.023,7.078V27.625h2.734Zm10.438-9.258h-3.414V39h-2.742V29.742h-3.352V27.625h9.508Zm10.57,3.8a6.708,6.708,0,0,1-.617,2.945,4.561,4.561,0,0,1-1.754,1.973,4.884,4.884,0,0,1-2.59.691,4.953,4.953,0,0,1-2.578-.668,4.554,4.554,0,0,1-1.754-1.91,6.515,6.515,0,0,1-.66-2.852v-.641a6.737,6.737,0,0,1,.613-2.949,4.55,4.55,0,0,1,1.758-1.973,5.2,5.2,0,0,1,5.184-.008,4.632,4.632,0,0,1,1.762,1.957,6.544,6.544,0,0,1,.637,2.91Zm-2.789-.477a4.783,4.783,0,0,0-.566-2.574,1.817,1.817,0,0,0-1.621-.879q-2.062,0-2.18,3.094l-.008.836a4.92,4.92,0,0,0,.555,2.57,1.814,1.814,0,0,0,1.648.9,1.792,1.792,0,0,0,1.6-.883,4.785,4.785,0,0,0,.57-2.539Zm4.055,8.992-1.328-.625.266-.531a4.333,4.333,0,0,0,.57-1.937V37.016h2.109l-.008,1.7a4.238,4.238,0,0,1-.461,1.828A4.645,4.645,0,0,1,257.461,42.063Zm11.906-6.156,2.266-8.281H274.7L270.867,39h-3l-3.8-11.375h3.039ZM278.445,39h-2.734V27.625h2.734Zm10.609-9.258h-3.414V39H282.9V29.742h-3.352V27.625h9.508Zm6.68,7.133h-3.758L291.32,39h-2.93l4.172-11.375h2.578L299.344,39H296.4Zm-3.1-2.117h2.445l-1.227-3.945Zm11.141-7.133,2.539,7.914,2.531-7.914h3.609V39H309.7V36.344l.266-5.437L307.219,39h-1.812l-2.758-8.1.266,5.445V39h-2.742V27.625ZM317.117,39h-2.734V27.625h2.734Zm11.406,0H325.8l-4.031-7.078V39h-2.742V27.625h2.742l4.023,7.078V27.625h2.734Zm8.336-2.125H333.1L332.445,39h-2.93l4.172-11.375h2.578L340.469,39h-2.945Zm-3.1-2.117H336.2l-1.227-3.945Zm13.406,1.219a1.127,1.127,0,0,0-.426-.937,5.292,5.292,0,0,0-1.5-.7,14.354,14.354,0,0,1-1.75-.7,3.314,3.314,0,0,1-2.211-2.984A2.676,2.676,0,0,1,341.832,29a3.562,3.562,0,0,1,1.559-1.125,6.065,6.065,0,0,1,2.266-.4,5.305,5.305,0,0,1,2.2.438,3.482,3.482,0,0,1,1.512,1.246A3.254,3.254,0,0,1,349.906,31h-2.734a1.375,1.375,0,0,0-.426-1.078,1.66,1.66,0,0,0-1.152-.383,1.872,1.872,0,0,0-1.16.324.955.955,0,0,0,.043,1.617,5.911,5.911,0,0,0,1.648.734,10.1,10.1,0,0,1,1.938.816,3.256,3.256,0,0,1,1.844,2.93,2.778,2.778,0,0,1-1.125,2.344,5,5,0,0,1-3.086.852,6.122,6.122,0,0,1-2.5-.5A3.775,3.775,0,0,1,341.5,37.3a3.542,3.542,0,0,1-.566-1.988h2.75a1.745,1.745,0,0,0,.473,1.348,2.234,2.234,0,0,0,1.535.434,1.765,1.765,0,0,0,1.074-.293A.967.967,0,0,0,347.164,35.977Zm12.3-3.414,2.094-4.937h2.961l-3.664,7.289V39H358.07V34.914l-3.656-7.289h2.945Zm14.281,3.344,2.266-8.281h3.063L375.242,39h-3l-3.8-11.375h3.039Zm13.211-1.734h-4.312v2.719h5.094V39H379.9V27.625h7.852v2.117h-5.109v2.4h4.313Zm6.125.8h-1.484V39h-2.742V27.625h4.477a5,5,0,0,1,3.164.9,3.041,3.041,0,0,1,1.141,2.536,3.693,3.693,0,0,1-.48,1.967,3.41,3.41,0,0,1-1.5,1.264l2.375,4.593V39h-2.937Zm-1.484-2.109h1.734a1.557,1.557,0,0,0,1.176-.411,1.59,1.59,0,0,0,.395-1.147,1.608,1.608,0,0,0-.4-1.155,1.542,1.542,0,0,0-1.172-.419h-1.734Zm11.3-5.242,2.539,7.914,2.531-7.914h3.609V39h-2.75V36.344l.266-5.437L406.336,39h-1.812l-2.758-8.1.266,5.445V39h-2.742V27.625ZM416.234,39H413.5V27.625h2.734ZM415.2,24.578h2.781L415.8,27.031l-2.148,0ZM425.3,34.469h-4.422V39h-2.742V27.625h7.609v2.117h-4.867v2.617H425.3Zm10.508-6.844V35.07a4.279,4.279,0,0,1-.539,2.191,3.492,3.492,0,0,1-1.547,1.41,5.449,5.449,0,0,1-2.383.484,4.708,4.708,0,0,1-3.273-1.078,3.845,3.845,0,0,1-1.219-2.953v-7.5h2.758V35.18q.047,1.867,1.734,1.867a1.679,1.679,0,0,0,1.289-.469,2.191,2.191,0,0,0,.438-1.523v-7.43Zm11.023,9.969a4.409,4.409,0,0,1-1.852,1.133,7.986,7.986,0,0,1-2.672.43,4.764,4.764,0,0,1-3.57-1.367,5.534,5.534,0,0,1-1.43-3.8L437.3,33a6.788,6.788,0,0,1,.594-2.934,4.409,4.409,0,0,1,1.7-1.93,4.806,4.806,0,0,1,2.559-.676,5.039,5.039,0,0,1,3.3.973,4.121,4.121,0,0,1,1.371,2.9h-2.641a2.157,2.157,0,0,0-.609-1.359,1.966,1.966,0,0,0-1.328-.406,1.789,1.789,0,0,0-1.594.875,4.672,4.672,0,0,0-.57,2.5v.688a4.574,4.574,0,0,0,.582,2.559,2.059,2.059,0,0,0,1.832.855,2.3,2.3,0,0,0,1.594-.477V34.8h-1.906V32.922h4.648Zm11.227-4.047a6.708,6.708,0,0,1-.617,2.945,4.562,4.562,0,0,1-1.754,1.973,4.884,4.884,0,0,1-2.59.691,4.953,4.953,0,0,1-2.578-.668,4.554,4.554,0,0,1-1.754-1.91,6.515,6.515,0,0,1-.66-2.852v-.641a6.738,6.738,0,0,1,.613-2.949,4.55,4.55,0,0,1,1.758-1.973,5.2,5.2,0,0,1,5.184-.008,4.632,4.632,0,0,1,1.762,1.957,6.544,6.544,0,0,1,.637,2.91Zm-2.789-.477a4.783,4.783,0,0,0-.566-2.574,1.817,1.817,0,0,0-1.621-.879q-2.062,0-2.18,3.094l-.008.836a4.92,4.92,0,0,0,.555,2.57,1.814,1.814,0,0,0,1.648.9,1.792,1.792,0,0,0,1.6-.883,4.785,4.785,0,0,0,.57-2.539Z" transform="translate(561.268 6714.437)" fill="#12263f"/>
    <path id="Trazado_1031563" data-name="Trazado 1031563" d="M7.914,10.172H3.6v2.719H8.7V15H.859V3.625H8.711V5.742H3.6v2.4H7.914Zm4.641,2.719h4.773V15H9.813V3.625h2.742Zm12.539-.016H21.336L20.68,15H17.75L21.922,3.625H24.5L28.7,15H25.758Zm-3.1-2.117h2.445L23.211,6.813ZM29.531,15V3.625h4.086a5.786,5.786,0,0,1,3.34.8A2.677,2.677,0,0,1,38.1,6.766,2.707,2.707,0,0,1,37.7,8.273a2.367,2.367,0,0,1-1.2.922,2.4,2.4,0,0,1,1.367.875,2.544,2.544,0,0,1,.477,1.563,3.012,3.012,0,0,1-1.059,2.512A5.038,5.038,0,0,1,34.148,15Zm2.742-4.836v2.727h1.8a1.709,1.709,0,0,0,1.141-.34,1.189,1.189,0,0,0,.4-.957,1.261,1.261,0,0,0-1.414-1.43Zm0-1.8H33.7a2.031,2.031,0,0,0,1.281-.329,1.168,1.168,0,0,0,.383-.948,1.226,1.226,0,0,0-.414-1.038,2.216,2.216,0,0,0-1.336-.317H32.273Zm17.211,1.18a6.708,6.708,0,0,1-.617,2.945,4.561,4.561,0,0,1-1.754,1.973,4.884,4.884,0,0,1-2.59.691,4.953,4.953,0,0,1-2.578-.668,4.554,4.554,0,0,1-1.754-1.91,6.515,6.515,0,0,1-.66-2.852V9.086a6.737,6.737,0,0,1,.613-2.949A4.55,4.55,0,0,1,41.9,4.164a5.2,5.2,0,0,1,5.184-.008,4.632,4.632,0,0,1,1.762,1.957,6.544,6.544,0,0,1,.637,2.91ZM46.7,9.07A4.783,4.783,0,0,0,46.129,6.5a1.817,1.817,0,0,0-1.621-.879q-2.062,0-2.18,3.094l-.008.836a4.92,4.92,0,0,0,.555,2.57,1.814,1.814,0,0,0,1.648.9,1.792,1.792,0,0,0,1.6-.883,4.785,4.785,0,0,0,.57-2.539Zm8.43,1.906H53.641V15H50.9V3.625h4.477a5,5,0,0,1,3.164.9A3.041,3.041,0,0,1,59.68,7.059a3.693,3.693,0,0,1-.48,1.967,3.41,3.41,0,0,1-1.5,1.264l2.375,4.593V15H57.133ZM53.641,8.867h1.734a1.557,1.557,0,0,0,1.176-.411,1.59,1.59,0,0,0,.395-1.147,1.608,1.608,0,0,0-.4-1.155,1.542,1.542,0,0,0-1.172-.419H53.641ZM67.8,12.875H64.039L63.383,15h-2.93L64.625,3.625H67.2L71.406,15H68.461Zm-3.1-2.117h2.445L65.914,6.813ZM72.234,15V3.625H75.9a5.39,5.39,0,0,1,2.711.684,4.805,4.805,0,0,1,1.879,1.93,5.826,5.826,0,0,1,.684,2.793v.523a5.86,5.86,0,0,1-.66,2.8,4.826,4.826,0,0,1-1.859,1.938A5.271,5.271,0,0,1,75.977,15Zm2.742-9.258v7.148h.953a2.133,2.133,0,0,0,1.813-.84,4.116,4.116,0,0,0,.633-2.5V9.063a4.082,4.082,0,0,0-.633-2.484A2.17,2.17,0,0,0,75.9,5.742Zm17.234,3.8a6.708,6.708,0,0,1-.617,2.945,4.561,4.561,0,0,1-1.754,1.973,4.884,4.884,0,0,1-2.59.691,4.953,4.953,0,0,1-2.578-.668,4.554,4.554,0,0,1-1.754-1.91,6.515,6.515,0,0,1-.66-2.852V9.086a6.738,6.738,0,0,1,.613-2.949,4.55,4.55,0,0,1,1.758-1.973,5.2,5.2,0,0,1,5.184-.008,4.632,4.632,0,0,1,1.762,1.957,6.544,6.544,0,0,1,.637,2.91ZM89.422,9.07A4.783,4.783,0,0,0,88.855,6.5a1.817,1.817,0,0,0-1.621-.879q-2.062,0-2.18,3.094l-.008.836a4.92,4.92,0,0,0,.555,2.57,1.814,1.814,0,0,0,1.648.9,1.792,1.792,0,0,0,1.6-.883,4.785,4.785,0,0,0,.57-2.539Zm12.352-.508,2.094-4.937h2.961l-3.664,7.289V15h-2.781V10.914L96.727,3.625h2.945Zm14.094,2.414h-1.484V15h-2.742V3.625h4.477a5,5,0,0,1,3.164.9,3.041,3.041,0,0,1,1.141,2.536,3.693,3.693,0,0,1-.48,1.967,3.41,3.41,0,0,1-1.5,1.264l2.375,4.593V15h-2.937Zm-1.484-2.109h1.734a1.557,1.557,0,0,0,1.176-.411,1.59,1.59,0,0,0,.395-1.147,1.608,1.608,0,0,0-.4-1.155,1.542,1.542,0,0,0-1.172-.419h-1.734Zm14.75,1.3H124.82v2.719h5.094V15h-7.836V3.625h7.852V5.742H124.82v2.4h4.313Zm6.313,1.734,2.266-8.281h3.063L136.945,15h-3l-3.8-11.375h3.039ZM144.523,15h-2.734V3.625h2.734Zm7.773-3.023a1.127,1.127,0,0,0-.426-.937,5.292,5.292,0,0,0-1.5-.7,14.353,14.353,0,0,1-1.75-.7,3.314,3.314,0,0,1-2.211-2.984A2.676,2.676,0,0,1,146.965,5a3.562,3.562,0,0,1,1.559-1.125,6.065,6.065,0,0,1,2.266-.4,5.305,5.305,0,0,1,2.2.438A3.482,3.482,0,0,1,154.5,5.152,3.254,3.254,0,0,1,155.039,7H152.3a1.375,1.375,0,0,0-.426-1.078,1.66,1.66,0,0,0-1.152-.383,1.872,1.872,0,0,0-1.16.324.955.955,0,0,0,.043,1.617,5.911,5.911,0,0,0,1.648.734,10.1,10.1,0,0,1,1.938.816,3.256,3.256,0,0,1,1.844,2.93,2.778,2.778,0,0,1-1.125,2.344,5,5,0,0,1-3.086.852,6.122,6.122,0,0,1-2.5-.5,3.775,3.775,0,0,1-1.687-1.359,3.542,3.542,0,0,1-.566-1.988h2.75a1.744,1.744,0,0,0,.473,1.348,2.234,2.234,0,0,0,1.535.434A1.765,1.765,0,0,0,151.9,12.8.967.967,0,0,0,152.3,11.977Zm10.609.9h-3.758L158.492,15h-2.93l4.172-11.375h2.578L166.516,15H163.57Zm-3.1-2.117h2.445l-1.227-3.945ZM167.344,15V3.625h3.664a5.39,5.39,0,0,1,2.711.684,4.805,4.805,0,0,1,1.879,1.93,5.826,5.826,0,0,1,.684,2.793v.523a5.86,5.86,0,0,1-.66,2.8,4.826,4.826,0,0,1-1.859,1.938,5.271,5.271,0,0,1-2.676.707Zm2.742-9.258v7.148h.953a2.133,2.133,0,0,0,1.813-.84,4.116,4.116,0,0,0,.633-2.5V9.063a4.082,4.082,0,0,0-.633-2.484,2.17,2.17,0,0,0-1.844-.836Zm17.234,3.8a6.708,6.708,0,0,1-.617,2.945,4.561,4.561,0,0,1-1.754,1.973,4.884,4.884,0,0,1-2.59.691,4.953,4.953,0,0,1-2.578-.668,4.554,4.554,0,0,1-1.754-1.91,6.515,6.515,0,0,1-.66-2.852V9.086a6.737,6.737,0,0,1,.613-2.949,4.55,4.55,0,0,1,1.758-1.973,5.2,5.2,0,0,1,5.184-.008,4.632,4.632,0,0,1,1.762,1.957,6.544,6.544,0,0,1,.637,2.91Zm-2.789-.477a4.783,4.783,0,0,0-.566-2.574,1.817,1.817,0,0,0-1.621-.879q-2.062,0-2.18,3.094l-.008.836a4.92,4.92,0,0,0,.555,2.57,1.814,1.814,0,0,0,1.648.9,1.792,1.792,0,0,0,1.6-.883,4.785,4.785,0,0,0,.57-2.539Z" transform="translate(201.242 7388.612)" fill="#12263f"/>
    <path id="Trazado_1031549" data-name="Trazado 1031549" d="M8.023,10.469H3.6V15H.859V3.625H8.469V5.742H3.6V8.359H8.023ZM12.531,15H9.8V3.625h2.734Zm11.406,0H21.211L17.18,7.922V15H14.438V3.625H17.18L21.2,10.7V3.625h2.734Zm10.938-3.852a4.154,4.154,0,0,1-.641,2.1,3.866,3.866,0,0,1-1.645,1.41,5.6,5.6,0,0,1-2.418.5A4.467,4.467,0,0,1,26.641,13.7,6.032,6.032,0,0,1,25.352,9.57V9.008a6.885,6.885,0,0,1,.582-2.926,4.41,4.41,0,0,1,1.676-1.937,4.676,4.676,0,0,1,2.531-.684,4.9,4.9,0,0,1,3.328,1.09,4.306,4.306,0,0,1,1.43,3H32.164a2.037,2.037,0,0,0-.523-1.492,2.153,2.153,0,0,0-1.5-.453,1.638,1.638,0,0,0-1.5.766,4.921,4.921,0,0,0-.5,2.445v.8a5.445,5.445,0,0,0,.457,2.6,1.672,1.672,0,0,0,1.574.781,2.106,2.106,0,0,0,1.445-.445,1.89,1.89,0,0,0,.531-1.414Zm7.758,1.727H38.875L38.219,15h-2.93L39.461,3.625h2.578L46.242,15H43.3Zm-3.1-2.117h2.445L40.75,6.813Zm9.055,1.688a1.5,1.5,0,0,1,1.039.371,1.3,1.3,0,0,1,0,1.9,1.639,1.639,0,0,1-2.082,0,1.294,1.294,0,0,1,0-1.891A1.486,1.486,0,0,1,48.586,12.445Zm0-6.234a1.5,1.5,0,0,1,1.039.371,1.3,1.3,0,0,1,0,1.9,1.639,1.639,0,0,1-2.082,0,1.294,1.294,0,0,1,0-1.891A1.486,1.486,0,0,1,48.586,6.211Zm13.469,10.75H55V15h7.055Zm7.063,0H62.063V15h7.055Zm7.063,0H69.125V15H76.18Zm7.063,0H76.188V15h7.055Zm7.063,0H83.25V15H90.3Zm7.063,0H90.313V15h7.055Zm7.063,0H97.375V15h7.055Zm7.063,0h-7.055V15h7.055Zm7.063,0H111.5V15h7.055Zm7.063,0h-7.055V15h7.055Zm7.063,0h-7.055V15h7.055Zm7.063,0h-7.055V15h7.055Zm7.063,0H139.75V15H146.8Zm7.063,0h-7.055V15h7.055Zm7.063,0h-7.055V15h7.055Zm7.063,0h-7.055V15h7.055Zm7.063,0H168V15h7.055Zm7.063,0h-7.055V15h7.055Zm7.063,0h-7.055V15h7.055Zm7.063,0h-7.055V15h7.055Zm7.063,0H196.25V15H203.3Zm7.063,0h-7.055V15h7.055Zm7.063,0h-7.055V15h7.055Zm7.063,0h-7.055V15h7.055Zm7.063,0H224.5V15h7.055Zm7.063,0h-7.055V15h7.055Zm7.063,0h-7.055V15h7.055Zm7.063,0h-7.055V15h7.055Zm7.063,0H252.75V15H259.8Zm7.063,0h-7.055V15h7.055Zm7.063,0h-7.055V15h7.055Zm7.063,0h-7.055V15h7.055Zm7.063,0H281V15h7.055Zm13.25-5.055,2.266-8.281h3.063L302.8,15h-3l-3.8-11.375h3.039Zm13.211-1.734H310.2v2.719H315.3V15h-7.836V3.625h7.852V5.742H310.2v2.4h4.313Zm6.125.8h-1.484V15h-2.742V3.625h4.477a5,5,0,0,1,3.164.9A3.041,3.041,0,0,1,325.2,7.059a3.693,3.693,0,0,1-.48,1.967,3.41,3.41,0,0,1-1.5,1.264l2.375,4.593V15h-2.937Zm-1.484-2.109h1.734a1.557,1.557,0,0,0,1.176-.411,1.59,1.59,0,0,0,.395-1.147,1.608,1.608,0,0,0-.4-1.155,1.542,1.542,0,0,0-1.172-.419h-1.734Zm14.75,1.3h-4.312v2.719h5.094V15h-7.836V3.625H334.7V5.742h-5.109v2.4h4.313ZM335.8,15V3.625h3.664a5.39,5.39,0,0,1,2.711.684,4.805,4.805,0,0,1,1.879,1.93,5.826,5.826,0,0,1,.684,2.793v.523a5.86,5.86,0,0,1-.66,2.8,4.826,4.826,0,0,1-1.859,1.938,5.271,5.271,0,0,1-2.676.707Zm2.742-9.258v7.148h.953a2.133,2.133,0,0,0,1.813-.84,4.116,4.116,0,0,0,.633-2.5V9.063a4.082,4.082,0,0,0-.633-2.484,2.17,2.17,0,0,0-1.844-.836Zm13.9,7.133h-3.758L348.031,15H345.1l4.172-11.375h2.578L356.055,15h-2.945Zm-3.1-2.117h2.445l-1.227-3.945Zm9.055,1.688a1.5,1.5,0,0,1,1.039.371,1.3,1.3,0,0,1,0,1.9,1.639,1.639,0,0,1-2.082,0,1.294,1.294,0,0,1,0-1.891A1.486,1.486,0,0,1,358.4,12.445Zm0-6.234a1.5,1.5,0,0,1,1.039.371,1.3,1.3,0,0,1,0,1.9,1.639,1.639,0,0,1-2.082,0,1.294,1.294,0,0,1,0-1.891A1.486,1.486,0,0,1,358.4,6.211Zm13.469,10.75h-7.055V15h7.055Zm7.063,0h-7.055V15h7.055Zm7.063,0h-7.055V15h7.055Zm7.063,0H386V15h7.055Zm7.063,0h-7.055V15h7.055Zm7.063,0h-7.055V15h7.055Zm7.063,0h-7.055V15h7.055Zm7.063,0H414.25V15H421.3Zm7.063,0h-7.055V15h7.055Zm7.063,0h-7.055V15h7.055Zm7.063,0h-7.055V15h7.055Zm7.063,0H442.5V15h7.055Zm7.063,0h-7.055V15h7.055Zm7.063,0h-7.055V15h7.055Zm7.063,0h-7.055V15h7.055Zm7.063,0H470.75V15H477.8Zm7.063,0h-7.055V15h7.055Zm7.063,0h-7.055V15h7.055Zm7.063,0h-7.055V15h7.055Zm7.063,0H499V15h7.055Zm7.063,0h-7.055V15h7.055Zm7.063,0h-7.055V15h7.055Zm7.063,0h-7.055V15h7.055Zm7.063,0H527.25V15H534.3Zm7.063,0h-7.055V15h7.055Zm7.063,0h-7.055V15h7.055Zm7.063,0h-7.055V15h7.055Zm7.063,0H555.5V15h7.055Zm7.063,0h-7.055V15h7.055Zm7.063,0h-7.055V15h7.055Zm7.063,0h-7.055V15h7.055Zm7.063,0H583.75V15H590.8Zm7.063,0h-7.055V15h7.055Zm19.875-6.789H613.43v2.719h5.094V15h-7.836V3.625h7.852V5.742H613.43v2.4h4.313ZM629.141,15h-2.727l-4.031-7.078V15h-2.742V3.625h2.742l4.023,7.078V3.625h2.734Zm10.938-3.852a4.154,4.154,0,0,1-.641,2.1,3.866,3.866,0,0,1-1.645,1.41,5.6,5.6,0,0,1-2.418.5,4.467,4.467,0,0,1-3.531-1.461,6.032,6.032,0,0,1-1.289-4.125V9.008a6.886,6.886,0,0,1,.582-2.926,4.41,4.41,0,0,1,1.676-1.937,4.676,4.676,0,0,1,2.531-.684,4.9,4.9,0,0,1,3.328,1.09,4.306,4.306,0,0,1,1.43,3h-2.734a2.037,2.037,0,0,0-.523-1.492,2.153,2.153,0,0,0-1.5-.453,1.638,1.638,0,0,0-1.5.766,4.921,4.921,0,0,0-.5,2.445v.8a5.445,5.445,0,0,0,.457,2.6,1.672,1.672,0,0,0,1.574.781,2.106,2.106,0,0,0,1.445-.445,1.89,1.89,0,0,0,.531-1.414Zm7.758,1.727h-3.758L643.422,15h-2.93l4.172-11.375h2.578L651.445,15H648.5Zm-3.1-2.117h2.445l-1.227-3.945Zm11.766.219h-1.484V15h-2.742V3.625h4.477a5,5,0,0,1,3.164.9,3.041,3.041,0,0,1,1.141,2.536,3.693,3.693,0,0,1-.48,1.967,3.41,3.41,0,0,1-1.5,1.264l2.375,4.593V15h-2.937Zm-1.484-2.109h1.734a1.557,1.557,0,0,0,1.176-.411,1.59,1.59,0,0,0,.395-1.147,1.608,1.608,0,0,0-.4-1.155,1.542,1.542,0,0,0-1.172-.419h-1.734Zm17.008,4.727a4.409,4.409,0,0,1-1.852,1.133,7.986,7.986,0,0,1-2.672.43,4.764,4.764,0,0,1-3.57-1.367,5.534,5.534,0,0,1-1.43-3.8L662.492,9a6.789,6.789,0,0,1,.594-2.934,4.409,4.409,0,0,1,1.7-1.93,4.807,4.807,0,0,1,2.559-.676,5.039,5.039,0,0,1,3.3.973,4.121,4.121,0,0,1,1.371,2.9h-2.641a2.157,2.157,0,0,0-.609-1.359,1.966,1.966,0,0,0-1.328-.406,1.789,1.789,0,0,0-1.594.875,4.672,4.672,0,0,0-.57,2.5v.688a4.574,4.574,0,0,0,.582,2.559,2.059,2.059,0,0,0,1.832.855,2.3,2.3,0,0,0,1.594-.477V10.8h-1.906V8.922h4.648Zm8.055-.719H676.32L675.664,15h-2.93l4.172-11.375h2.578L683.688,15h-2.945Zm-3.1-2.117h2.445L678.2,6.813ZM684.516,15V3.625h3.664a5.39,5.39,0,0,1,2.711.684,4.805,4.805,0,0,1,1.879,1.93,5.826,5.826,0,0,1,.684,2.793v.523a5.86,5.86,0,0,1-.66,2.8,4.826,4.826,0,0,1-1.859,1.938,5.271,5.271,0,0,1-2.676.707Zm2.742-9.258v7.148h.953a2.133,2.133,0,0,0,1.813-.84,4.116,4.116,0,0,0,.633-2.5V9.063a4.082,4.082,0,0,0-.633-2.484,2.17,2.17,0,0,0-1.844-.836Zm17.234,3.8a6.708,6.708,0,0,1-.617,2.945,4.561,4.561,0,0,1-1.754,1.973,4.884,4.884,0,0,1-2.59.691,4.953,4.953,0,0,1-2.578-.668,4.554,4.554,0,0,1-1.754-1.91,6.515,6.515,0,0,1-.66-2.852V9.086a6.737,6.737,0,0,1,.613-2.949,4.55,4.55,0,0,1,1.758-1.973,5.2,5.2,0,0,1,5.184-.008,4.632,4.632,0,0,1,1.762,1.957,6.544,6.544,0,0,1,.637,2.91ZM701.7,9.07a4.783,4.783,0,0,0-.566-2.574,1.817,1.817,0,0,0-1.621-.879q-2.062,0-2.18,3.094l-.008.836a4.919,4.919,0,0,0,.555,2.57,1.814,1.814,0,0,0,1.648.9,1.792,1.792,0,0,0,1.6-.883,4.785,4.785,0,0,0,.57-2.539Zm5.719,3.375a1.5,1.5,0,0,1,1.039.371,1.3,1.3,0,0,1,0,1.9,1.639,1.639,0,0,1-2.082,0,1.294,1.294,0,0,1,0-1.891A1.486,1.486,0,0,1,707.422,12.445Zm0-6.234a1.5,1.5,0,0,1,1.039.371,1.3,1.3,0,0,1,0,1.9,1.639,1.639,0,0,1-2.082,0,1.294,1.294,0,0,1,0-1.891A1.486,1.486,0,0,1,707.422,6.211Zm13.469,10.75h-7.055V15h7.055Zm7.063,0H720.9V15h7.055Zm7.063,0h-7.055V15h7.055Zm7.063,0h-7.055V15h7.055Zm7.063,0h-7.055V15h7.055Zm7.063,0h-7.055V15H756.2Zm7.063,0h-7.055V15h7.055Zm7.063,0h-7.055V15h7.055Zm7.063,0h-7.055V15h7.055Zm7.063,0H777.4V15h7.055Zm7.063,0h-7.055V15h7.055Zm7.063,0h-7.055V15h7.055Zm7.063,0h-7.055V15h7.055Zm7.063,0h-7.055V15H812.7Zm7.063,0h-7.055V15h7.055Zm7.063,0h-7.055V15h7.055Zm7.063,0h-7.055V15h7.055Zm7.063,0H833.9V15h7.055Zm7.063,0h-7.055V15h7.055Zm7.063,0h-7.055V15h7.055Zm7.063,0h-7.055V15h7.055Zm7.063,0h-7.055V15H869.2Zm7.063,0h-7.055V15h7.055Zm7.063,0h-7.055V15h7.055Zm7.063,0h-7.055V15h7.055Zm7.063,0H890.4V15h7.055Zm7.063,0h-7.055V15h7.055Zm7.063,0h-7.055V15h7.055Zm7.063,0h-7.055V15h7.055Zm7.063,0h-7.055V15H925.7Zm7.063,0h-7.055V15h7.055Zm7.063,0h-7.055V15h7.055Z" transform="translate(205.242 6765.437)" fill="#12263f"/>
  </g>
</svg>
