<svg xmlns="http://www.w3.org/2000/svg" xmlns:xlink="http://www.w3.org/1999/xlink" width="113" height="113" viewBox="0 0 113 113">
  <defs>
    <filter id="Trazado_982547" x="0" y="0" width="113" height="113" filterUnits="userSpaceOnUse">
      <feOffset dy="3" input="SourceAlpha"/>
      <feGaussianBlur stdDeviation="3" result="blur"/>
      <feFlood flood-opacity="0.161"/>
      <feComposite operator="in" in2="blur"/>
      <feComposite in="SourceGraphic"/>
    </filter>
  </defs>
  <g id="Grupo_1175138" data-name="Grupo 1175138" transform="translate(-901.75 -914.212)">
    <g id="Grupo_1175061" data-name="Grupo 1175061" transform="translate(629.75 -90.841)">
      <g id="Grupo_1174859" data-name="Grupo 1174859" transform="translate(281 1011.053)">
        <g id="Grupo_1167343" data-name="Grupo 1167343" transform="translate(0)">
          <g id="Grupo_1166777" data-name="Grupo 1166777" transform="translate(0)">
            <g id="Grupo_1164305" data-name="Grupo 1164305">
              <g id="Grupo_1163948" data-name="Grupo 1163948">
                <g id="Grupo_1158168" data-name="Grupo 1158168">
                  <g id="Grupo_1152576" data-name="Grupo 1152576">
                    <g id="Grupo_1148633" data-name="Grupo 1148633">
                      <g id="Grupo_1148525" data-name="Grupo 1148525">
                        <g transform="matrix(1, 0, 0, 1, -9, -6)" filter="url(#Trazado_982547)">
                          <g id="Trazado_982547-2" data-name="Trazado 982547" transform="translate(9 6)" fill="#f4f9ff">
                            <path d="M 47.5 93.5 C 41.28937149047852 93.5 35.26533508300781 92.28397369384766 29.59518623352051 89.88570404052734 C 24.11771965026855 87.56893157958984 19.19813346862793 84.25196075439453 14.97309303283691 80.02691650390625 C 10.74804019927979 75.80186462402344 7.431066513061523 70.88229370117188 5.114293098449707 65.40481567382812 C 2.716026782989502 59.73468017578125 1.5 53.71062850952148 1.5 47.5 C 1.5 41.28937149047852 2.716026782989502 35.26533508300781 5.114293098449707 29.59518623352051 C 7.431066513061523 24.11771965026855 10.74804019927979 19.19813346862793 14.97309303283691 14.97309303283691 C 19.19813346862793 10.74804019927979 24.11771965026855 7.431066513061523 29.59518623352051 5.114293098449707 C 35.26533508300781 2.716026782989502 41.28937149047852 1.5 47.5 1.5 C 53.71062850952148 1.5 59.73468017578125 2.716026782989502 65.40481567382812 5.114293098449707 C 70.88229370117188 7.431066513061523 75.80186462402344 10.74804019927979 80.02691650390625 14.97309303283691 C 84.25196075439453 19.19813346862793 87.56893157958984 24.11771965026855 89.88570404052734 29.59518623352051 C 92.28397369384766 35.26533508300781 93.5 41.28937149047852 93.5 47.5 C 93.5 53.71062850952148 92.28397369384766 59.73468017578125 89.88570404052734 65.40481567382812 C 87.56893157958984 70.88229370117188 84.25196075439453 75.80186462402344 80.02691650390625 80.02691650390625 C 75.80186462402344 84.25196075439453 70.88229370117188 87.56893157958984 65.40481567382812 89.88570404052734 C 59.73468017578125 92.28397369384766 53.71062850952148 93.5 47.5 93.5 Z" stroke="none"/>
                            <path d="M 47.5 3 C 41.49121475219727 3 35.66376876831055 4.176155090332031 30.17950439453125 6.495796203613281 C 24.88084411621094 8.736953735351562 20.12152099609375 11.94598388671875 16.03375244140625 16.03375244140625 C 11.94598388671875 20.12152099609375 8.736953735351562 24.88084411621094 6.495796203613281 30.17950439453125 C 4.176155090332031 35.66376876831055 3 41.49121475219727 3 47.5 C 3 53.50878524780273 4.176155090332031 59.33624649047852 6.495796203613281 64.82049560546875 C 8.736953735351562 70.11917114257812 11.94598388671875 74.87849426269531 16.03375244140625 78.96626281738281 C 20.12152099609375 83.05403137207031 24.88084411621094 86.2630615234375 30.17950439453125 88.50419616699219 C 35.66376876831055 90.82384490966797 41.49121475219727 92 47.5 92 C 53.50878524780273 92 59.33624649047852 90.82384490966797 64.82049560546875 88.50419616699219 C 70.11917114257812 86.2630615234375 74.87849426269531 83.05403137207031 78.96626281738281 78.96626281738281 C 83.05403137207031 74.87849426269531 86.2630615234375 70.11917114257812 88.50419616699219 64.82049560546875 C 90.82384490966797 59.33624649047852 92 53.50878524780273 92 47.5 C 92 41.49121475219727 90.82384490966797 35.66376876831055 88.50419616699219 30.17950439453125 C 86.2630615234375 24.88084411621094 83.05403137207031 20.12152099609375 78.96626281738281 16.03375244140625 C 74.87849426269531 11.94598388671875 70.11917114257812 8.736953735351562 64.82049560546875 6.495796203613281 C 59.33624649047852 4.176155090332031 53.50878524780273 3 47.5 3 M 47.5 0 C 73.73353576660156 0 95 21.2664794921875 95 47.5 C 95 73.73353576660156 73.73353576660156 95 47.5 95 C 21.2664794921875 95 0 73.73353576660156 0 47.5 C 0 21.2664794921875 21.2664794921875 0 47.5 0 Z" stroke="none" fill="#719acc"/>
                          </g>
                        </g>
                      </g>
                    </g>
                  </g>
                </g>
              </g>
            </g>
          </g>
        </g>
      </g>
    </g>
    <g id="Grupo_1175602" data-name="Grupo 1175602" transform="translate(927.57 937.156)">
      <g id="Grupo_1175603" data-name="Grupo 1175603" transform="translate(0 1.205)">
        <path id="Trazado_1030960" data-name="Trazado 1030960" d="M0,6.593c.094-.271.2-.539.283-.813A6.536,6.536,0,0,1,6.255,1.213c.04,0,.08,0,.12,0q19.142,0,38.283.01a6.346,6.346,0,0,1,6.2,4.948,8.375,8.375,0,0,1,.194,1.954q.018,14.23.009,28.458v.685c.577.115,1.144.2,1.7.343a11.309,11.309,0,0,1-.94,22.154,11.01,11.01,0,0,1-10.663-4.185,1.027,1.027,0,0,0-.9-.424q-13.869.013-27.739.007c-1.258,0-1.481-.227-1.481-1.508V15.982h-.693c-3.016,0-6.032-.011-9.046.009A1.322,1.322,0,0,1,0,15.342V6.593M46.859,57.4a8.126,8.126,0,0,0,4.813.446,9.055,9.055,0,0,0,7.446-6.928A9.364,9.364,0,0,0,46.856,39.785a3.244,3.244,0,0,0-.34.093,9.355,9.355,0,0,0-5.2,12.179A8.916,8.916,0,0,0,46.859,57.4M11.079,3.127a7.138,7.138,0,0,1,1.888,5.207q-.036,22.078-.013,44.158v.715H39.676a11.4,11.4,0,0,1,9.462-15.932v-.449q0-14.47,0-28.94a4.557,4.557,0,0,0-4.8-4.758q-16.328,0-32.655,0ZM1.929,14.015h9.093c0-2.181.023-4.317-.007-6.451a4.541,4.541,0,0,0-9.068-.225c-.088,2.211-.019,4.428-.019,6.676" transform="translate(0 -1.205)" fill="#020302"/>
        <path id="Trazado_1030961" data-name="Trazado 1030961" d="M10.092,2.957h.6q16.328,0,32.655,0a4.558,4.558,0,0,1,4.8,4.759q.008,14.47,0,28.94V37.1a11.4,11.4,0,0,0-9.462,15.933H11.967v-.715q0-22.08.013-44.159a7.136,7.136,0,0,0-1.888-5.206m18.815,19.13c-.449-.753-.86-1.388-1.207-2.052a2.232,2.232,0,0,1-.289-1.042,9.113,9.113,0,0,0-9.318-9.481,1.082,1.082,0,0,0-1.067.513,1.04,1.04,0,0,0,.214,1.213,5.444,5.444,0,0,1,1.09,2.618c.177,1.1.348,2.207.593,3.295A4.368,4.368,0,0,0,22.7,20.667c.9.128,1.831.072,2.743.146a.968.968,0,0,1,.657.333,14.342,14.342,0,0,1,2.04,4.429c.18.709.263,1.447.379,2.173a1.012,1.012,0,0,0,1.031.955.965.965,0,0,0,.884-1.077c0-.7-.036-1.4-.009-2.1a17.121,17.121,0,0,1,1.787-7.137.761.761,0,0,1,.767-.486A10.645,10.645,0,0,0,43.145,6.068a1.073,1.073,0,0,0-.669-1.032,1.05,1.05,0,0,0-1.133.35A6.906,6.906,0,0,1,38.2,7.021c-1.332.34-2.678.64-3.976,1.078a4.878,4.878,0,0,0-3.36,3.659,11.676,11.676,0,0,0-.033,4.224,1.892,1.892,0,0,1-.06,1.033,19.784,19.784,0,0,0-1.861,5.071m-9.134,18.84c-1.278,0-2.556,0-3.833,0-.914,0-1.233.314-1.234,1.211q0,3.863,0,7.725c0,.844.314,1.187,1.136,1.19q3.923.015,7.845,0c.819,0,1.148-.344,1.151-1.182q.012-3.893,0-7.786c0-.829-.345-1.154-1.174-1.157-1.3-.007-2.6,0-3.893,0m-5.067-7.46c0,1.317-.007,2.635,0,3.953a.972.972,0,0,0,1.1,1.113q3.952.012,7.907,0c.752,0,1.122-.345,1.126-1.089q.02-3.983,0-7.967a.961.961,0,0,0-1.071-1.088q-3.984-.025-7.967,0c-.747,0-1.087.377-1.091,1.124-.007,1.319,0,2.636,0,3.954M36.1,32.318q4.1,0,8.2,0c.773,0,1.214-.48,1.09-1.147-.094-.506-.487-.767-1.18-.767q-8.084,0-16.168,0c-.744,0-1.2.363-1.211.947-.01.609.445.968,1.242.969q4.011,0,8.023,0M31.994,42.944c-1.336,0-2.672,0-4.008,0-.712,0-1.143.361-1.152.933a1.007,1.007,0,0,0,1.123.981q4.01.013,8.019,0a1.006,1.006,0,0,0,1.122-.983c-.01-.571-.442-.929-1.155-.932-1.316-.005-2.633,0-3.949,0m-.055-6.426c1.316,0,2.633,0,3.949,0,.756,0,1.2-.354,1.208-.943s-.453-.977-1.183-.978q-3.951-.007-7.9,0c-.727,0-1.19.4-1.177.985s.446.932,1.153.935c1.316.007,2.633,0,3.95,0M30.53,47.146c-.878,0-1.757-.008-2.635,0a.962.962,0,0,0-1.059.9.982.982,0,0,0,1.033,1.007q2.664.025,5.329,0a.98.98,0,0,0,1.031-.951.962.962,0,0,0-1.064-.96c-.878-.01-1.757,0-2.635,0" transform="translate(0.987 -1.033)" fill="#d8e8f8"/>
        <path id="Trazado_1030962" data-name="Trazado 1030962" d="M43.092,36.4a8.84,8.84,0,0,1,9.183,1.608,8.845,8.845,0,0,1,3.077,9.519,9.051,9.051,0,0,1-7.446,6.927,8.126,8.126,0,0,1-4.813-.445,4.759,4.759,0,0,0-.319-.391,20.937,20.937,0,0,1-2.259-2.275,10.146,10.146,0,0,1-1.367-9.783,9.979,9.979,0,0,1,3.687-4.8,1.445,1.445,0,0,0,.257-.364M44.9,47.17c-.938-.941-1.821-1.829-2.706-2.716-.155-.155-.3-.317-.467-.463a.987.987,0,0,0-1.4-.035.967.967,0,0,0,.043,1.393c1.187,1.21,2.392,2.4,3.592,3.6.73.729,1.134.73,1.862,0q3.07-3.065,6.134-6.135a2.206,2.206,0,0,0,.324-.349.917.917,0,0,0-.1-1.25.891.891,0,0,0-1.2-.1,3.055,3.055,0,0,0-.484.441c-1.845,1.848-3.689,3.7-5.6,5.617" transform="translate(3.764 2.178)" fill="#6fd840"/>
        <path id="Trazado_1030963" data-name="Trazado 1030963" d="M1.759,13.843c0-2.248-.069-4.465.019-6.676a4.541,4.541,0,0,1,9.068.225c.03,2.134.007,4.269.007,6.451Z" transform="translate(0.17 -1.033)" fill="#8ad6f9"/>
        <path id="Trazado_1030964" data-name="Trazado 1030964" d="M43.235,36.347a1.443,1.443,0,0,1-.256.364,9.97,9.97,0,0,0-3.687,4.8,10.141,10.141,0,0,0,1.367,9.783,20.829,20.829,0,0,0,2.259,2.274,5,5,0,0,1,.319.391,8.914,8.914,0,0,1-5.547-5.338,9.354,9.354,0,0,1,5.2-12.179,3.266,3.266,0,0,1,.341-.093" transform="translate(3.622 2.233)" fill="#63c139"/>
        <path id="Trazado_1030965" data-name="Trazado 1030965" d="M28.3,21.908a19.767,19.767,0,0,1,1.86-5.073,1.882,1.882,0,0,0,.06-1.033,11.669,11.669,0,0,1,.033-4.223,4.876,4.876,0,0,1,3.36-3.659c1.3-.439,2.646-.739,3.976-1.079a6.9,6.9,0,0,0,3.146-1.635,1.054,1.054,0,0,1,1.132-.35,1.072,1.072,0,0,1,.669,1.032A10.647,10.647,0,0,1,32.368,17.726a.758.758,0,0,0-.767.485,17.125,17.125,0,0,0-1.787,7.137c-.027.7.009,1.4.01,2.1a.966.966,0,0,1-.884,1.076,1.01,1.01,0,0,1-1.032-.954c-.114-.727-.2-1.462-.379-2.174a14.325,14.325,0,0,0-2.04-4.428.963.963,0,0,0-.655-.334c-.913-.072-1.841-.018-2.743-.146a4.369,4.369,0,0,1-3.774-3.515c-.245-1.088-.416-2.193-.592-3.3a5.448,5.448,0,0,0-1.091-2.617,1.04,1.04,0,0,1-.213-1.213,1.082,1.082,0,0,1,1.066-.514,9.114,9.114,0,0,1,9.32,9.481,2.206,2.206,0,0,0,.289,1.042c.347.665.758,1.3,1.207,2.054m5.046-6.481.122.158c3.1.232,7.693-4.813,7.08-7.711-1.014.323-2.028.67-3.054.968s-2.095.5-3.112.835A3.584,3.584,0,0,0,32.1,14.232a2.7,2.7,0,0,1,.366-.463c.857-.68,1.7-1.381,2.6-2a.94.94,0,0,1,1.455.223c.315.518.1,1.014-.512,1.443-.907.636-1.776,1.327-2.661,1.995m-14.13-3.992c.188.976.37,1.929.554,2.882.15.782.255,1.575.463,2.341a2.833,2.833,0,0,0,3.512,1.935c-.449-.42-.867-.809-1.283-1.2a.965.965,0,1,1,1.267-1.441c.3.244.573.507.9.8a6.976,6.976,0,0,0-5.418-5.319" transform="translate(1.595 -0.853)" fill="#020302"/>
        <path id="Trazado_1030966" data-name="Trazado 1030966" d="M19.362,37.542c1.3,0,2.6,0,3.893,0,.829,0,1.17.329,1.174,1.158q.015,3.893,0,7.786c0,.838-.333,1.179-1.151,1.182q-3.923.013-7.846,0c-.822,0-1.135-.346-1.136-1.19q0-3.863,0-7.727c0-.9.318-1.208,1.233-1.211,1.278,0,2.555,0,3.833,0m3.11,1.957H16.265v6.194h6.207Z" transform="translate(1.398 2.35)" fill="#040504"/>
        <path id="Trazado_1030967" data-name="Trazado 1030967" d="M14.3,31.2c0-1.317-.005-2.636,0-3.953,0-.748.344-1.121,1.09-1.125q3.984-.021,7.967,0a.962.962,0,0,1,1.071,1.089q.02,3.984,0,7.966c0,.744-.374,1.088-1.126,1.09q-3.954.01-7.907,0a.972.972,0,0,1-1.1-1.113c-.008-1.317,0-2.636,0-3.953m1.967,3.106h6.2V28.08h-6.2Z" transform="translate(1.398 1.232)" fill="#040504"/>
        <path id="Trazado_1030968" data-name="Trazado 1030968" d="M34.61,29.872q-4.013,0-8.024,0c-.8,0-1.253-.359-1.242-.968.011-.584.465-.947,1.212-.947q8.084,0,16.167,0c.694,0,1.086.261,1.181.767.123.667-.318,1.145-1.091,1.147q-4.1.008-8.2,0" transform="translate(2.48 1.412)" fill="#020302"/>
        <path id="Trazado_1030969" data-name="Trazado 1030969" d="M30.5,39.379c1.316,0,2.633,0,3.949,0,.712,0,1.145.36,1.155.931a1.006,1.006,0,0,1-1.123.983q-4.008.015-8.018,0a1.006,1.006,0,0,1-1.123-.98c.008-.572.439-.93,1.151-.933,1.337-.007,2.673,0,4.009,0" transform="translate(2.479 2.53)" fill="#040504"/>
        <path id="Trazado_1030970" data-name="Trazado 1030970" d="M30.447,33.7c-1.316,0-2.633,0-3.949,0-.708,0-1.142-.363-1.154-.935s.45-.984,1.177-.985q3.951-.007,7.9,0c.73,0,1.193.394,1.183.978s-.45.941-1.208.943c-1.316,0-2.633,0-3.949,0" transform="translate(2.48 1.786)" fill="#020302"/>
        <path id="Trazado_1030971" data-name="Trazado 1030971" d="M29.038,43.208c.878,0,1.757-.008,2.635,0a.962.962,0,0,1,1.064.96.98.98,0,0,1-1.031.951q-2.664.025-5.329,0a.982.982,0,0,1-1.033-1.007.962.962,0,0,1,1.059-.9c.878-.01,1.757,0,2.635,0" transform="translate(2.479 2.904)" fill="#040504"/>
        <path id="Trazado_1030972" data-name="Trazado 1030972" d="M44.763,46.711c1.914-1.919,3.757-3.769,5.6-5.617a3.055,3.055,0,0,1,.484-.441.891.891,0,0,1,1.2.1.917.917,0,0,1,.1,1.25,2.206,2.206,0,0,1-.324.349q-3.066,3.068-6.134,6.135c-.728.728-1.132.727-1.862,0-1.2-1.2-2.405-2.389-3.592-3.6a.967.967,0,0,1-.043-1.393.987.987,0,0,1,1.4.035c.162.146.312.308.467.463.885.887,1.769,1.775,2.706,2.716" transform="translate(3.905 2.637)" fill="#020302"/>
        <path id="Trazado_1030973" data-name="Trazado 1030973" d="M31.952,15.153c.885-.667,1.754-1.359,2.661-1.995.61-.429.827-.924.512-1.444a.941.941,0,0,0-1.455-.222c-.9.62-1.741,1.322-2.6,2a2.76,2.76,0,0,0-.366.464A3.583,3.583,0,0,1,32.987,9.4c1.018-.338,2.08-.537,3.112-.837s2.04-.644,3.054-.968c.611,2.9-3.975,7.944-7.08,7.712l-.122-.158" transform="translate(2.989 -0.579)" fill="#6fd840"/>
        <path id="Trazado_1030974" data-name="Trazado 1030974" d="M18.956,10.844a6.976,6.976,0,0,1,5.418,5.319c-.332-.3-.609-.56-.9-.8A.965.965,0,1,0,22.2,16.8c.416.392.834.781,1.283,1.2a2.833,2.833,0,0,1-3.512-1.935c-.209-.765-.313-1.559-.463-2.341-.184-.953-.367-1.906-.554-2.882" transform="translate(1.855 -0.262)" fill="#6fd840"/>
        <path id="Trazado_1030975" data-name="Trazado 1030975" d="M22.3,45.52H16.088V39.326H22.3Zm-3.5-3.3c-.255-.306-.4-.523-.59-.7a.967.967,0,0,0-1.432-.053.951.951,0,0,0,.059,1.389q.594.631,1.23,1.224a.96.96,0,0,0,1.521,0c.644-.625,1.278-1.261,1.9-1.9a.968.968,0,1,0-1.358-1.355c-.425.417-.823.862-1.334,1.4" transform="translate(1.574 2.525)" fill="#6fd840"/>
        <path id="Trazado_1030976" data-name="Trazado 1030976" d="M16.087,27.905h6.2v6.226h-6.2Zm2.68,2.953a6.485,6.485,0,0,0-.632-.822.929.929,0,0,0-1.34-.018.953.953,0,0,0,.015,1.389c.408.435.833.856,1.268,1.267a.955.955,0,0,0,1.475,0c.66-.636,1.305-1.287,1.945-1.942a.968.968,0,0,0,.076-1.432.946.946,0,0,0-1.424.087c-.425.419-.82.867-1.383,1.467" transform="translate(1.574 1.407)" fill="#6fd840"/>
        <path id="Trazado_1030977" data-name="Trazado 1030977" d="M18.757,42.118c.51-.539.909-.984,1.334-1.4a.968.968,0,1,1,1.358,1.355c-.626.642-1.259,1.279-1.9,1.9a.96.96,0,0,1-1.521,0q-.634-.593-1.23-1.224a.951.951,0,0,1-.059-1.389.967.967,0,0,1,1.432.053c.186.179.335.4.59.7" transform="translate(1.611 2.623)" fill="#020302"/>
        <path id="Trazado_1030978" data-name="Trazado 1030978" d="M18.73,30.759c.563-.6.958-1.047,1.383-1.467a.946.946,0,0,1,1.424-.087.968.968,0,0,1-.076,1.432c-.64.655-1.286,1.306-1.945,1.942a.955.955,0,0,1-1.475,0c-.435-.411-.86-.832-1.268-1.267a.953.953,0,0,1-.015-1.389.929.929,0,0,1,1.34.018,6.485,6.485,0,0,1,.632.822" transform="translate(1.611 1.507)" fill="#020302"/>
      </g>
    </g>
  </g>
</svg>
