<svg xmlns="http://www.w3.org/2000/svg" xmlns:xlink="http://www.w3.org/1999/xlink" width="113" height="113" viewBox="0 0 113 113">
  <defs>
    <filter id="Trazado_982547" x="0" y="0" width="113" height="113" filterUnits="userSpaceOnUse">
      <feOffset dy="3" input="SourceAlpha"/>
      <feGaussianBlur stdDeviation="3" result="blur"/>
      <feFlood flood-opacity="0.161"/>
      <feComposite operator="in" in2="blur"/>
      <feComposite in="SourceGraphic"/>
    </filter>
  </defs>
  <g id="Grupo_1175140" data-name="Grupo 1175140" transform="translate(-1216.75 -914.212)">
    <g id="Grupo_1175062" data-name="Grupo 1175062" transform="translate(944.75 -90.841)">
      <g id="Grupo_1174859" data-name="Grupo 1174859" transform="translate(281 1011.053)">
        <g id="Grupo_1167343" data-name="Grupo 1167343" transform="translate(0)">
          <g id="Grupo_1166777" data-name="Grupo 1166777" transform="translate(0)">
            <g id="Grupo_1164305" data-name="Grupo 1164305">
              <g id="Grupo_1163948" data-name="Grupo 1163948">
                <g id="Grupo_1158168" data-name="Grupo 1158168">
                  <g id="Grupo_1152576" data-name="Grupo 1152576">
                    <g id="Grupo_1148633" data-name="Grupo 1148633">
                      <g id="Grupo_1148525" data-name="Grupo 1148525">
                        <g transform="matrix(1, 0, 0, 1, -9, -6)" filter="url(#Trazado_982547)">
                          <g id="Trazado_982547-2" data-name="Trazado 982547" transform="translate(9 6)" fill="#f4f9ff">
                            <path d="M 47.5 93.5 C 41.28937149047852 93.5 35.26533508300781 92.28397369384766 29.59518623352051 89.88570404052734 C 24.11771965026855 87.56893157958984 19.19813346862793 84.25196075439453 14.97309303283691 80.02691650390625 C 10.74804019927979 75.80186462402344 7.431066513061523 70.88229370117188 5.114293098449707 65.40481567382812 C 2.716026782989502 59.73468017578125 1.5 53.71062850952148 1.5 47.5 C 1.5 41.28937149047852 2.716026782989502 35.26533508300781 5.114293098449707 29.59518623352051 C 7.431066513061523 24.11771965026855 10.74804019927979 19.19813346862793 14.97309303283691 14.97309303283691 C 19.19813346862793 10.74804019927979 24.11771965026855 7.431066513061523 29.59518623352051 5.114293098449707 C 35.26533508300781 2.716026782989502 41.28937149047852 1.5 47.5 1.5 C 53.71062850952148 1.5 59.73468017578125 2.716026782989502 65.40481567382812 5.114293098449707 C 70.88229370117188 7.431066513061523 75.80186462402344 10.74804019927979 80.02691650390625 14.97309303283691 C 84.25196075439453 19.19813346862793 87.56893157958984 24.11771965026855 89.88570404052734 29.59518623352051 C 92.28397369384766 35.26533508300781 93.5 41.28937149047852 93.5 47.5 C 93.5 53.71062850952148 92.28397369384766 59.73468017578125 89.88570404052734 65.40481567382812 C 87.56893157958984 70.88229370117188 84.25196075439453 75.80186462402344 80.02691650390625 80.02691650390625 C 75.80186462402344 84.25196075439453 70.88229370117188 87.56893157958984 65.40481567382812 89.88570404052734 C 59.73468017578125 92.28397369384766 53.71062850952148 93.5 47.5 93.5 Z" stroke="none"/>
                            <path d="M 47.5 3 C 41.49121475219727 3 35.66376876831055 4.176155090332031 30.17950439453125 6.495796203613281 C 24.88084411621094 8.736953735351562 20.12152099609375 11.94598388671875 16.03375244140625 16.03375244140625 C 11.94598388671875 20.12152099609375 8.736953735351562 24.88084411621094 6.495796203613281 30.17950439453125 C 4.176155090332031 35.66376876831055 3 41.49121475219727 3 47.5 C 3 53.50878524780273 4.176155090332031 59.33624649047852 6.495796203613281 64.82049560546875 C 8.736953735351562 70.11917114257812 11.94598388671875 74.87849426269531 16.03375244140625 78.96626281738281 C 20.12152099609375 83.05403137207031 24.88084411621094 86.2630615234375 30.17950439453125 88.50419616699219 C 35.66376876831055 90.82384490966797 41.49121475219727 92 47.5 92 C 53.50878524780273 92 59.33624649047852 90.82384490966797 64.82049560546875 88.50419616699219 C 70.11917114257812 86.2630615234375 74.87849426269531 83.05403137207031 78.96626281738281 78.96626281738281 C 83.05403137207031 74.87849426269531 86.2630615234375 70.11917114257812 88.50419616699219 64.82049560546875 C 90.82384490966797 59.33624649047852 92 53.50878524780273 92 47.5 C 92 41.49121475219727 90.82384490966797 35.66376876831055 88.50419616699219 30.17950439453125 C 86.2630615234375 24.88084411621094 83.05403137207031 20.12152099609375 78.96626281738281 16.03375244140625 C 74.87849426269531 11.94598388671875 70.11917114257812 8.736953735351562 64.82049560546875 6.495796203613281 C 59.33624649047852 4.176155090332031 53.50878524780273 3 47.5 3 M 47.5 0 C 73.73353576660156 0 95 21.2664794921875 95 47.5 C 95 73.73353576660156 73.73353576660156 95 47.5 95 C 21.2664794921875 95 0 73.73353576660156 0 47.5 C 0 21.2664794921875 21.2664794921875 0 47.5 0 Z" stroke="none" fill="#719acc"/>
                          </g>
                        </g>
                      </g>
                    </g>
                  </g>
                </g>
              </g>
            </g>
          </g>
        </g>
      </g>
    </g>
    <g id="Grupo_1175605" data-name="Grupo 1175605" transform="translate(1242.544 936.453)">
      <g id="Grupo_1175606" data-name="Grupo 1175606">
        <path id="Trazado_1030979" data-name="Trazado 1030979" d="M0,62.518V0M61.408,47.782V36.062q0-.961,0-1.925V22.423h-.738c-4.773,0-9.545.021-14.317-.009a6.775,6.775,0,0,1-5.9-3.335c1.246-1.224,1.253-2.9,1.762-4.477H39.962c0-.546.02-1.033,0-1.518a10.218,10.218,0,0,0-1.72-5.248,2.239,2.239,0,0,0-4.1,1.15,7.9,7.9,0,0,1-1.685,4.66,1.926,1.926,0,0,1-2.03,1.027c-.729-1.553-1.525-3.145-2.232-4.775A14.9,14.9,0,0,0,12.763,1.087,16.225,16.225,0,0,0,3.627,5.661l2.768,4.624c-.569.949-1.15,1.764-1.575,2.654-1.3,2.72-2.55,5.465-3.792,8.212A.954.954,0,0,0,1.1,21.9c1.052,1.8,2.132,3.588,3.206,5.377.078.131.174.251.267.383C7.238,26,9.861,24.344,12.5,22.723a5.518,5.518,0,0,1,1.236-.4c.239,2.157.458,4.147.675,6.117-.713.319-.713.319-1.4.07a3.885,3.885,0,0,0-5.178,4.154c.085.544.5,1.1.422,1.589a4.111,4.111,0,0,1-.892,1.49,1.129,1.129,0,0,1-.565.433,4.582,4.582,0,0,0-3.413,2.993c-.311.873-.5,1.79-.756,2.76H6.788V47.8H1.01V61.388h60.4Z" fill="#fefefe"/>
        <path id="Trazado_1030980" data-name="Trazado 1030980" d="M61.311,34.036q0,.963,0,1.925c-1.361,0-2.721.023-4.082.006a4.848,4.848,0,0,1-4.548-3.342,3.1,3.1,0,0,0-1.119-1.729,4.241,4.241,0,0,1-2.369,4.265c-.421.243-.8.562-1.224.795a.683.683,0,0,1-.577.008c-.707-.437-1.406-.892-2.072-1.389a3.762,3.762,0,0,1-1.542-3.034c-.016-.461,0-.922,0-1.374A2.97,2.97,0,0,0,40.233,32.9c-.063.421-.146.84-.219,1.259a2.9,2.9,0,0,1-1.652,2.193c-.652.328-1.3.674-1.962.97a.654.654,0,0,0-.432.75,9.31,9.31,0,0,0,1.867,5.123.962.962,0,0,0,1.072.433c1.258-.222,2.524-.4,3.787-.594.862-.133,1.726-.252,2.586-.4,2.691-.46,3.978-1.834,4.386-4.683h1.9a5.579,5.579,0,0,1-1.358,3.946,2.668,2.668,0,0,0-.723,2.725,18.768,18.768,0,0,1,.188,3c.029.018.046.038.061.038l11.575.021V61.287H.908V47.695H6.685V41.833H2.53c.26-.97.444-1.887.756-2.759A4.582,4.582,0,0,1,6.7,36.08a1.129,1.129,0,0,0,.565-.433,4.111,4.111,0,0,0,.892-1.49c.078-.493-.337-1.045-.422-1.589a3.885,3.885,0,0,1,5.178-4.154c.689.249.689.249,1.4-.07-.218-1.969-.437-3.96-.675-6.117a5.518,5.518,0,0,0-1.236.4C9.759,24.243,7.135,25.9,4.474,27.558c-.093-.132-.189-.252-.267-.383C3.133,25.387,2.052,23.6,1,21.8a.953.953,0,0,1-.076-.749c1.243-2.747,2.492-5.493,3.792-8.212.425-.89,1.006-1.7,1.575-2.654C5.418,8.723,4.476,7.147,3.525,5.56A16.225,16.225,0,0,1,12.66.986,14.9,14.9,0,0,1,28.085,9.8c.707,1.63,1.5,3.222,2.232,4.775a1.926,1.926,0,0,0,2.03-1.027,7.9,7.9,0,0,0,1.685-4.66,2.239,2.239,0,0,1,4.1-1.15,10.233,10.233,0,0,1,1.721,5.248c.023.486,0,.972,0,1.518h2.255c-.509,1.576-.516,3.253-1.762,4.477a6.775,6.775,0,0,0,5.9,3.335c4.771.03,9.544.009,14.317.009h.738v1.936c-5.168,0-10.338.075-15.5-.022A8.3,8.3,0,0,1,39.043,20.5c-.218-.3-.376-.438-.776-.3a7.411,7.411,0,0,1-1.341.208V19.4c.015-.317.029-.635.044-.946,1.484-.156,2.386-.855,2.534-1.95-1.43-.122-2.817-.141-3.631,1.358l-.883-.393-.852-.478a4.544,4.544,0,0,1,3.75-2.474c-.04-.453-1.584-1.2-2.861-1.427-.616.851-1.258,1.663-1.814,2.532a1.508,1.508,0,0,1-1.676.859,1.891,1.891,0,0,0-.664.044,3.907,3.907,0,0,0-3.293,3.826A6.624,6.624,0,0,1,24.517,25.8a5.951,5.951,0,0,0-.777.586c-.16.145-.367.343-.378.527a8.319,8.319,0,0,0,.219,3.528l2.85-2.86,1.44,1.426c-.934.9-1.9,1.819-2.876,2.755A2.8,2.8,0,0,0,28.7,30.68a7.065,7.065,0,0,1,4.377-3.232A3.312,3.312,0,0,0,36,24.309H37.93a5.152,5.152,0,0,1-3.019,4.581,8.086,8.086,0,0,1,1.1,4.09,9.865,9.865,0,0,0,.515,2.03c1.039-.286,1.689-.765,1.682-1.828a3.715,3.715,0,0,1,.094-.6,4.782,4.782,0,0,1,3.537-4.2,14.774,14.774,0,0,1,2.044-.22,1.039,1.039,0,0,0,.631-.315,3.867,3.867,0,0,1,6.475.256,1.154,1.154,0,0,0,.474.426,5.227,5.227,0,0,1,3.032,3.363,2.92,2.92,0,0,0,2.98,2.131l3.837.015M17.075,3.2l-.036-.044.046.036Q17.8,4.894,18.52,6.6l1.585-2.627L17.075,3.2M34.913,35.958A7.63,7.63,0,0,1,34,32.231a2.46,2.46,0,0,0-.2-1.008c-.255-.556-.5-1.423-.912-1.532-.66-.173-1.289.439-1.743,1.017-.426.543-.806,1.126-1.269,1.633a4.649,4.649,0,0,1-4.905,1.5,4.6,4.6,0,0,1-3.518-3.794c-.131-.69-.052-1.417-.118-2.121a3.6,3.6,0,0,1,1.775-3.546,9.963,9.963,0,0,0,1.757-1.653,1.019,1.019,0,0,0,.107-.869q-1.467-3.93-3-7.834a9.963,9.963,0,0,0-4.918-5.417.917.917,0,0,1-.6-.956,5.83,5.83,0,0,0-1.518-3.965c-.495,1.49-.971,2.88-1.412,4.282a.9.9,0,0,1-.773.7,8.529,8.529,0,0,0-6.2,4.831C5.376,15.95,4.267,18.431,3.134,20.9c-.07.152-.155.385-.089.5.66,1.153,1.35,2.289,2.017,3.408a.994.994,0,0,0,.2-.051c1.4-.866,2.787-1.742,4.185-2.6,3.421-2.109,2.262-1.738,5.927-1.787a3.215,3.215,0,0,0,2.876-1.744c.088-.153.169-.31.267-.491l1.81.606a5.358,5.358,0,0,1-4.682,3.591,3.631,3.631,0,0,0,0,.385c.185,1.633.4,3.263.548,4.9a.78.78,0,0,0,.6.806,3.683,3.683,0,0,1,2.5,2.83,3.886,3.886,0,0,1-1.214,3.768c.284.775.553,1.514.827,2.252.26.7.527,1.4.793,2.1a.693.693,0,0,0,1.014.451c.073-.159.147-.325.227-.489a5.827,5.827,0,0,1,9.536-1.507,6.046,6.046,0,0,1,1.6,4.4A5.853,5.853,0,0,0,34.8,47.374a1.819,1.819,0,0,0,.956.284c3.777.019,7.555.012,11.333.012h.633c-.06-1.216-.117-2.371-.178-3.577-.566.152-.968.3-1.382.363-2.7.43-5.409.855-8.118,1.243a1.127,1.127,0,0,1-.829-.308,10.876,10.876,0,0,1-3.2-8.029c.006-.652-.06-1.288.9-1.4m-16.7,4.806a9.125,9.125,0,0,1-.448-.9c-.39-1.064-.731-2.146-1.139-3.2A4.112,4.112,0,0,0,8.678,38.1c-.02,3.106-.006,6.213,0,9.32a1.3,1.3,0,0,0,.032.212H23.938a5.443,5.443,0,0,0-3.259-1.908c-1.477,0-2.954,0-4.512,0,.623-1.737.5-3.681,2.047-4.957M32.1,47.657a8.866,8.866,0,0,1-2-5.987,3.87,3.87,0,0,0-7.655-.682,24.54,24.54,0,0,0-.132,2.6.712.712,0,0,0,.522.812c1.516.648,2.855,1.492,3.255,3.253ZM12.619,59.338h1.865v-9.7H12.619Zm-9.775-.013h1.9V49.655h-1.9Zm48.756.009h1.877V49.646H51.6Zm-9.738-.011h1.877V49.646H41.862Zm-7.883-9.655H32.1v9.676h1.878ZM22.357,59.329h1.868v-9.7H22.357Zm27.26-28.358c0-.424.01-.668,0-.91a1.947,1.947,0,0,0-3.893.007c-.015.323,0,.648,0,.971a2.589,2.589,0,0,0,1.79,2.666.491.491,0,0,0,.375-.036c1.139-.62,2.01-1.407,1.733-2.7m-36.08.2c-1.541-1.184-2.305-1.323-3.187-.592a1.812,1.812,0,0,0-.489,2.236,6.111,6.111,0,0,1,6.9.722,1.918,1.918,0,0,0,.223-2.707c-.843-1-1.721-.914-3.447.34m41.98,22.326h3.824V49.647H55.518ZM16.51,59.331h3.824V55.486H16.51ZM30.1,55.5H26.255v3.833H30.1Zm5.908,3.828h3.825V55.487H36.008Zm9.751,0h3.824V55.486H45.758Zm9.749,0h3.824V55.487H55.508ZM10.594,55.5H6.75v3.844h3.844Zm.011-5.839H6.76v3.824h3.845Zm5.883,3.824h3.845V49.659H16.489ZM30.1,49.659H26.259v3.824H30.1Zm9.747,0H36.006v3.828h3.845Zm9.73,0H45.758V53.5h3.824ZM24.609,7.6,21.763,5c-.617,1.029-1.157,1.908-1.668,2.8a.493.493,0,0,0,.027.46c.55.558,1.131,1.086,1.728,1.65L24.609,7.6m2.574,4.861c-.525-1.1-1.009-2.108-1.527-3.19L22.98,11.513c.385.85.745,1.64,1.128,2.484l3.076-1.534M9.934,7.529C9.4,6.455,8.89,5.445,8.34,4.344l-2.312,1.6C6.646,6.974,7.2,7.9,7.783,8.862c.39-.258.719-.488,1.059-.7s.694-.405,1.092-.635m15.958,11.2a6.147,6.147,0,0,1,2.619-3.395L28,14.24c-1,.5-1.943.957-2.87,1.448a.521.521,0,0,0-.222.445c.288.836.621,1.656.986,2.6M13.164,2.829l-3.038.713c.581,1.166,1.1,2.209,1.677,3.363.455-1.362.874-2.616,1.361-4.076m24.507,9.119.209-.128c-.421-.95-.833-1.9-1.275-2.843a.664.664,0,0,0-.418-.249c-.042-.011-.2.192-.21.307-.09.718-.155,1.439-.231,2.178l1.925.736M20.351,41.92a1.778,1.778,0,0,0-1.572,1.819h1.572ZM6.693,38.133a2.589,2.589,0,0,0-1.606,1.7H6.693Z" transform="translate(0.102 0.101)" fill="#020101"/>
        <path id="Trazado_1030981" data-name="Trazado 1030981" d="M34.59,18.127v1.006a7.4,7.4,0,0,0,1.341-.207c.4-.14.559-.006.777.3a8.294,8.294,0,0,0,6.764,3.737c5.166.1,10.336.025,15.5.022v9.78l-3.837-.016a2.918,2.918,0,0,1-2.98-2.131,5.229,5.229,0,0,0-3.032-3.363,1.159,1.159,0,0,1-.474-.425,3.867,3.867,0,0,0-6.475-.257,1.033,1.033,0,0,1-.631.315,14.605,14.605,0,0,0-2.044.221,4.781,4.781,0,0,0-3.537,4.2,3.846,3.846,0,0,0-.095.6c.008,1.063-.642,1.543-1.681,1.829a9.8,9.8,0,0,1-.515-2.031,8.076,8.076,0,0,0-1.1-4.09,5.151,5.151,0,0,0,3.02-4.581H33.66a3.311,3.311,0,0,1-2.915,3.139,7.066,7.066,0,0,0-4.376,3.232,2.794,2.794,0,0,1-3.71,1.081c.978-.937,1.941-1.859,2.876-2.755l-1.44-1.426-2.85,2.86a8.338,8.338,0,0,1-.22-3.528c.012-.184.22-.382.38-.527a5.845,5.845,0,0,1,.777-.585,6.63,6.63,0,0,0,3.063-5.448,3.906,3.906,0,0,1,3.292-3.826,1.873,1.873,0,0,1,.665-.045,1.508,1.508,0,0,0,1.676-.859c.556-.867,1.2-1.68,1.813-2.532,1.278.229,2.822.973,2.861,1.427a4.547,4.547,0,0,0-3.75,2.474l.853.478a2,2,0,0,0,1.935,1.931m-5.854.972a.974.974,0,1,0,1,.934.977.977,0,0,0-1-.934" transform="translate(2.438 1.375)" fill="#cacfd7"/>
        <path id="Trazado_1030982" data-name="Trazado 1030982" d="M57.648,44.629q-5.786-.01-11.574-.022c-.017,0-.032-.019-.061-.038a18.769,18.769,0,0,0-.189-3,2.664,2.664,0,0,1,.725-2.724A5.592,5.592,0,0,0,47.906,34.9h-1.9c-.409,2.85-1.7,4.223-4.386,4.684-.86.147-1.724.267-2.586.4-1.263.194-2.529.372-3.786.594a.966.966,0,0,1-1.073-.434,9.324,9.324,0,0,1-1.867-5.123.654.654,0,0,1,.433-.749c.665-.3,1.31-.643,1.96-.97A2.9,2.9,0,0,0,36.357,31.1c.073-.42.155-.837.218-1.258a2.971,2.971,0,0,1,3.539-2.733c0,.453-.013.914,0,1.374a3.765,3.765,0,0,0,1.542,3.035c.666.5,1.365.951,2.072,1.388a.683.683,0,0,0,.577-.008c.425-.232.8-.551,1.225-.794A4.243,4.243,0,0,0,47.9,27.842a3.12,3.12,0,0,1,1.12,1.729,4.846,4.846,0,0,0,4.548,3.344c1.36.017,2.721,0,4.08-.006v11.72M40.111,31.923a.974.974,0,1,0-.937,1,.98.98,0,0,0,.937-1" transform="translate(3.76 3.153)" fill="#eac09b"/>
        <path id="Trazado_1030983" data-name="Trazado 1030983" d="M34.69,35.665c-.961.114-.9.751-.9,1.4a10.878,10.878,0,0,0,3.2,8.029,1.127,1.127,0,0,0,.829.308c2.709-.39,5.415-.813,8.118-1.243.414-.066.816-.213,1.382-.364.06,1.206.117,2.362.178,3.578H46.86c-3.778,0-7.556.007-11.333-.012a1.829,1.829,0,0,1-.956-.284,5.853,5.853,0,0,1-2.716-5.152,6.049,6.049,0,0,0-1.6-4.4,5.828,5.828,0,0,0-9.537,1.507c-.078.164-.153.33-.226.489a.692.692,0,0,1-1.014-.45c-.266-.7-.533-1.4-.794-2.1-.274-.739-.543-1.477-.826-2.252a3.886,3.886,0,0,0,1.214-3.768,3.685,3.685,0,0,0-2.5-2.83.78.78,0,0,1-.6-.806c-.153-1.637-.363-3.267-.548-4.9a3.634,3.634,0,0,1,0-.385A5.36,5.36,0,0,0,20.1,18.444l-1.811-.607c-.1.182-.179.339-.267.492a3.212,3.212,0,0,1-2.875,1.744c-3.665.049-2.507-.322-5.927,1.787-1.4.862-2.79,1.736-4.185,2.6a.947.947,0,0,1-.2.05c-.668-1.119-1.358-2.255-2.017-3.408-.066-.114.019-.346.089-.5,1.133-2.468,2.242-4.949,3.423-7.394a8.529,8.529,0,0,1,6.2-4.831.9.9,0,0,0,.773-.7c.441-1.4.918-2.792,1.412-4.282a5.834,5.834,0,0,1,1.518,3.964.916.916,0,0,0,.6.957,9.963,9.963,0,0,1,4.918,5.417q1.527,3.907,3,7.834a1.02,1.02,0,0,1-.107.869,9.953,9.953,0,0,1-1.757,1.652,3.6,3.6,0,0,0-1.775,3.547c.066.7-.012,1.431.118,2.12a4.6,4.6,0,0,0,3.518,3.795,4.653,4.653,0,0,0,4.905-1.5c.463-.507.843-1.092,1.269-1.634.453-.577,1.083-1.189,1.743-1.017.414.108.658.975.912,1.533a2.471,2.471,0,0,1,.2,1.008,7.617,7.617,0,0,0,.912,3.728M11.374,12.28a.974.974,0,1,0,.972.96.976.976,0,0,0-.972-.96" transform="translate(0.326 0.395)" fill="#cd9d75"/>
        <path id="Trazado_1030984" data-name="Trazado 1030984" d="M17.4,37.31c-1.544,1.275-1.425,3.219-2.047,4.956,1.56,0,3.037,0,4.514,0a5.444,5.444,0,0,1,3.259,1.908H7.9a1.336,1.336,0,0,1-.032-.213c0-3.106-.017-6.213,0-9.32A4.112,4.112,0,0,1,15.816,33.2c.409,1.057.75,2.139,1.139,3.2a9.507,9.507,0,0,0,.448.9m-5.659,1.1H9.85v3.821h1.893Zm-.97-5.888a.974.974,0,1,0,.985.947.977.977,0,0,0-.985-.947" transform="translate(0.914 3.557)" fill="#fde8a6"/>
        <path id="Trazado_1030985" data-name="Trazado 1030985" d="M29.868,43.795H23.855c-.4-1.761-1.739-2.6-3.255-3.252a.713.713,0,0,1-.521-.813,24.249,24.249,0,0,1,.131-2.6,3.871,3.871,0,0,1,7.656.682,8.862,8.862,0,0,0,2,5.987m-7.829-6.809a.973.973,0,1,0,.955-.976.979.979,0,0,0-.955.976" transform="translate(2.337 3.964)" fill="#e4e7eb"/>
        <rect id="Rectángulo_415506" data-name="Rectángulo 415506" width="1.865" height="9.697" transform="translate(12.721 49.743)" fill="#d29f6c"/>
        <rect id="Rectángulo_415507" data-name="Rectángulo 415507" width="1.899" height="9.669" transform="translate(2.946 49.757)" fill="#d29f6c"/>
        <rect id="Rectángulo_415508" data-name="Rectángulo 415508" width="1.877" height="9.687" transform="translate(51.702 49.748)" fill="#d29f6c"/>
        <rect id="Rectángulo_415509" data-name="Rectángulo 415509" width="1.877" height="9.676" transform="translate(41.964 49.748)" fill="#d29f6c"/>
        <rect id="Rectángulo_415510" data-name="Rectángulo 415510" width="1.878" height="9.676" transform="translate(32.204 49.77)" fill="#d29f6c"/>
        <rect id="Rectángulo_415511" data-name="Rectángulo 415511" width="1.868" height="9.698" transform="translate(22.46 49.732)" fill="#d29f6c"/>
        <path id="Trazado_1030986" data-name="Trazado 1030986" d="M44.944,28.126c.277,1.291-.594,2.079-1.733,2.7a.5.5,0,0,1-.376.036,2.591,2.591,0,0,1-1.79-2.667c0-.324-.01-.648,0-.971a1.947,1.947,0,0,1,3.893-.007c.012.242,0,.486,0,.911" transform="translate(4.777 2.948)" fill="#dcaf89"/>
        <path id="Trazado_1030987" data-name="Trazado 1030987" d="M12.622,28.116c1.726-1.256,2.6-1.337,3.447-.341a1.918,1.918,0,0,1-.223,2.707,6.111,6.111,0,0,0-6.9-.722,1.812,1.812,0,0,1,.489-2.236c.882-.731,1.647-.593,3.187.592" transform="translate(1.018 3.151)" fill="#f97f6b"/>
        <rect id="Rectángulo_415512" data-name="Rectángulo 415512" width="3.824" height="3.845" transform="translate(55.62 49.749)" fill="#deb18a"/>
        <rect id="Rectángulo_415513" data-name="Rectángulo 415513" width="3.824" height="3.845" transform="translate(16.612 55.589)" fill="#deb18a"/>
        <rect id="Rectángulo_415514" data-name="Rectángulo 415514" width="3.845" height="3.833" transform="translate(26.357 55.605)" fill="#deb18a"/>
        <rect id="Rectángulo_415515" data-name="Rectángulo 415515" width="3.825" height="3.845" transform="translate(36.11 55.589)" fill="#deb18a"/>
        <rect id="Rectángulo_415516" data-name="Rectángulo 415516" width="3.824" height="3.845" transform="translate(45.86 55.589)" fill="#deb18a"/>
        <rect id="Rectángulo_415517" data-name="Rectángulo 415517" width="3.824" height="3.845" transform="translate(55.61 55.589)" fill="#deb18a"/>
        <rect id="Rectángulo_415518" data-name="Rectángulo 415518" width="3.844" height="3.844" transform="translate(6.852 55.6)" fill="#deb18a"/>
        <rect id="Rectángulo_415519" data-name="Rectángulo 415519" width="3.845" height="3.824" transform="translate(6.862 49.76)" fill="#deb18a"/>
        <rect id="Rectángulo_415520" data-name="Rectángulo 415520" width="3.845" height="3.824" transform="translate(16.591 49.76)" fill="#deb18a"/>
        <rect id="Rectángulo_415521" data-name="Rectángulo 415521" width="3.845" height="3.824" transform="translate(26.361 49.76)" fill="#deb18a"/>
        <rect id="Rectángulo_415522" data-name="Rectángulo 415522" width="3.845" height="3.828" transform="translate(36.109 49.758)" fill="#deb18a"/>
        <rect id="Rectángulo_415523" data-name="Rectángulo 415523" width="3.824" height="3.845" transform="translate(45.86 49.76)" fill="#deb18a"/>
        <path id="Trazado_1030988" data-name="Trazado 1030988" d="M22.61,7.171,19.853,9.48c-.6-.565-1.179-1.093-1.728-1.651A.494.494,0,0,1,18.1,7.37c.511-.9,1.051-1.774,1.668-2.8l2.846,2.6" transform="translate(2.101 0.532)" fill="#ae7644"/>
        <path id="Trazado_1030989" data-name="Trazado 1030989" d="M24.879,11.587,21.8,13.122c-.384-.845-.742-1.636-1.129-2.484L23.352,8.4c.518,1.083,1,2.092,1.527,3.19" transform="translate(2.406 0.977)" fill="#ae7644"/>
        <path id="Trazado_1030990" data-name="Trazado 1030990" d="M9.4,7.167c-.4.23-.751.423-1.092.635s-.67.44-1.059.7L5.49,5.586,7.8,3.982c.55,1.1,1.056,2.111,1.594,3.185" transform="translate(0.639 0.463)" fill="#ae7644"/>
        <path id="Trazado_1030991" data-name="Trazado 1030991" d="M33.37,17.776a2.005,2.005,0,0,1-1.936-1.931l.884.393c.813-1.5,2.2-1.479,3.629-1.358-.147,1.1-1.049,1.794-2.533,1.95-.015.31-.03.629-.045.946" transform="translate(3.659 1.726)" fill="#a7afba"/>
        <path id="Trazado_1030992" data-name="Trazado 1030992" d="M23.387,17.34c-.365-.944-.7-1.765-.986-2.6a.523.523,0,0,1,.222-.445c.928-.492,1.873-.95,2.87-1.448.173.368.33.708.514,1.1a6.145,6.145,0,0,0-2.62,3.395" transform="translate(2.607 1.495)" fill="#ae7644"/>
        <path id="Trazado_1030993" data-name="Trazado 1030993" d="M12.2,2.625c-.489,1.46-.908,2.714-1.362,4.077L9.161,3.338l3.04-.713" transform="translate(1.066 0.306)" fill="#ae7644"/>
        <path id="Trazado_1030994" data-name="Trazado 1030994" d="M15.386,2.954l3.032.779L16.833,6.361,15.4,2.946Z" transform="translate(1.791 0.343)" fill="#ae7644"/>
        <path id="Trazado_1030995" data-name="Trazado 1030995" d="M34.036,11.129c-.64-.244-1.279-.489-1.924-.737.075-.738.14-1.459.23-2.177.015-.115.167-.318.211-.307a.665.665,0,0,1,.416.249c.442.94.854,1.893,1.276,2.843l-.21.128" transform="translate(3.738 0.92)" fill="#c4c9d0"/>
        <path id="Trazado_1030996" data-name="Trazado 1030996" d="M18.485,37.64v1.819H16.913a1.778,1.778,0,0,1,1.572-1.819" transform="translate(1.969 4.381)" fill="#f97f6b"/>
        <path id="Trazado_1030997" data-name="Trazado 1030997" d="M6.254,34.248v1.7H4.648a2.589,2.589,0,0,1,1.606-1.7" transform="translate(0.541 3.986)" fill="#f97f6b"/>
        <path id="Trazado_1030998" data-name="Trazado 1030998" d="M15.4,2.95l-.046-.036.036.044.01-.008" transform="translate(1.787 0.339)" fill="#ae7644"/>
        <path id="Trazado_1030999" data-name="Trazado 1030999" d="M28.022,18.34a.974.974,0,1,1-.949.982.982.982,0,0,1,.949-.982" transform="translate(3.151 2.135)" fill="#0b0907"/>
        <path id="Trazado_1031000" data-name="Trazado 1031000" d="M39.5,31.518a.974.974,0,1,1-.98-.952.982.982,0,0,1,.98.952" transform="translate(4.371 3.558)" fill="#0b0907"/>
        <path id="Trazado_1031001" data-name="Trazado 1031001" d="M10.582,11.354a.974.974,0,1,1-.975.957.979.979,0,0,1,.975-.957" transform="translate(1.118 1.322)" fill="#0b0907"/>
        <rect id="Rectángulo_415524" data-name="Rectángulo 415524" width="1.893" height="3.821" transform="translate(10.763 41.962)" fill="#020101"/>
        <path id="Trazado_1031002" data-name="Trazado 1031002" d="M10.569,32.313a.974.974,0,1,1-.961.969.979.979,0,0,1,.961-.969" transform="translate(1.118 3.761)" fill="#0b0907"/>
        <path id="Trazado_1031003" data-name="Trazado 1031003" d="M21.834,36.782a.973.973,0,1,1,.96.971.978.978,0,0,1-.96-.971" transform="translate(2.541 4.168)" fill="#0b0907"/>
      </g>
    </g>
  </g>
</svg>
