<svg xmlns="http://www.w3.org/2000/svg" xmlns:xlink="http://www.w3.org/1999/xlink" width="84.236" height="84.236" viewBox="0 0 84.236 84.236">
  <defs>
    <filter id="Trazado_982547" x="0" y="0" width="84.236" height="84.236" filterUnits="userSpaceOnUse">
      <feOffset dy="3" input="SourceAlpha"/>
      <feGaussianBlur stdDeviation="3" result="blur"/>
      <feFlood flood-opacity="0.161"/>
      <feComposite operator="in" in2="blur"/>
      <feComposite in="SourceGraphic"/>
    </filter>
    <clipPath id="clip-path">
      <rect id="Rectángulo_415588" data-name="Rectángulo 415588" width="41.119" height="39.436" fill="none"/>
    </clipPath>
  </defs>
  <g id="Grupo_1175538" data-name="Grupo 1175538" transform="translate(-586.25 -914.212)">
    <g id="Grupo_1175060" data-name="Grupo 1175060" transform="translate(595.25 920.212)">
      <g id="Grupo_1174859" data-name="Grupo 1174859" transform="translate(0)">
        <g id="Grupo_1167343" data-name="Grupo 1167343">
          <g id="Grupo_1166777" data-name="Grupo 1166777" transform="translate(0)">
            <g id="Grupo_1164305" data-name="Grupo 1164305">
              <g id="Grupo_1163948" data-name="Grupo 1163948">
                <g id="Grupo_1158168" data-name="Grupo 1158168">
                  <g id="Grupo_1152576" data-name="Grupo 1152576">
                    <g id="Grupo_1148633" data-name="Grupo 1148633">
                      <g id="Grupo_1148525" data-name="Grupo 1148525">
                        <g transform="matrix(1, 0, 0, 1, -9, -6)" filter="url(#Trazado_982547)">
                          <g id="Trazado_982547-2" data-name="Trazado 982547" transform="translate(9 6)" fill="#f4f9ff">
                            <path d="M 33.1181640625 64.73633575439453 C 28.84908485412598 64.73633575439453 24.70849418640137 63.90056228637695 20.81141471862793 62.25223541259766 C 17.04652404785156 60.65982437133789 13.66499423980713 58.37983322143555 10.7607536315918 55.47559356689453 C 7.856503963470459 52.57134246826172 5.57651424407959 49.18981552124023 3.984104156494141 45.42492294311523 C 2.335773944854736 41.5278434753418 1.500004053115845 37.38725280761719 1.500004053115845 33.1181640625 C 1.500004053115845 28.84908485412598 2.335773944854736 24.70849418640137 3.984104156494141 20.81141471862793 C 5.57651424407959 17.04652404785156 7.856513977050781 13.66499423980713 10.7607536315918 10.7607536315918 C 13.66499423980713 7.856513977050781 17.04652404785156 5.57651424407959 20.81141471862793 3.984104156494141 C 24.70849418640137 2.335773944854736 28.84908485412598 1.500004053115845 33.1181640625 1.500004053115845 C 37.38725280761719 1.500004053115845 41.5278434753418 2.335773944854736 45.42492294311523 3.984104156494141 C 49.18981552124023 5.57651424407959 52.57134246826172 7.856503963470459 55.47559356689453 10.7607536315918 C 58.37983322143555 13.66499423980713 60.65982437133789 17.04652404785156 62.25223541259766 20.81141471862793 C 63.90056228637695 24.70849418640137 64.73633575439453 28.84908485412598 64.73633575439453 33.1181640625 C 64.73633575439453 37.38725280761719 63.90056228637695 41.5278434753418 62.25223541259766 45.42492294311523 C 60.65982437133789 49.18981552124023 58.37983322143555 52.57135391235352 55.47559356689453 55.47559356689453 C 52.57135391235352 58.37983322143555 49.18981552124023 60.65982437133789 45.42492294311523 62.25223541259766 C 41.5278434753418 63.90056228637695 37.38725280761719 64.73633575439453 33.1181640625 64.73633575439453 Z" stroke="none"/>
                            <path d="M 33.1181640625 2.999996185302734 C 29.05091857910156 2.999996185302734 25.10691833496094 3.7958984375 21.3957405090332 5.365596771240234 C 17.80964279174805 6.88238525390625 14.58837509155273 9.054443359375 11.82140731811523 11.82140731811523 C 9.054443359375 14.58837509155273 6.88238525390625 17.80964279174805 5.365596771240234 21.3957405090332 C 3.7958984375 25.10691833496094 2.999996185302734 29.05091857910156 2.999996185302734 33.1181640625 C 2.999996185302734 37.18541717529297 3.7958984375 41.12940979003906 5.365596771240234 44.84059906005859 C 6.88238525390625 48.42668533325195 9.054431915283203 51.64796447753906 11.82140731811523 54.41493225097656 C 14.58837509155273 57.1818962097168 17.80964279174805 59.35394287109375 21.39572906494141 60.87073135375977 C 25.10691833496094 62.4404296875 29.05091857910156 63.23633193969727 33.1181640625 63.23633193969727 C 37.18541717529297 63.23633193969727 41.12940979003906 62.4404296875 44.84059906005859 60.87073135375977 C 48.42668533325195 59.35394287109375 51.64796447753906 57.1818962097168 54.41493225097656 54.41493225097656 C 57.1818962097168 51.64796447753906 59.35394287109375 48.42668533325195 60.87073135375977 44.84059906005859 C 62.4404296875 41.12940979003906 63.23633193969727 37.18541717529297 63.23633193969727 33.1181640625 C 63.23633193969727 29.05091857910156 62.4404296875 25.10691833496094 60.87073135375977 21.39572906494141 C 59.35394287109375 17.80964279174805 57.1818962097168 14.58837509155273 54.41493225097656 11.82140731811523 C 51.64796447753906 9.054431915283203 48.42668533325195 6.88238525390625 44.84059906005859 5.365596771240234 C 41.12940979003906 3.7958984375 37.18541717529297 2.999996185302734 33.1181640625 2.999996185302734 M 33.1181640625 0 C 51.40882873535156 0 66.236328125 14.82750701904297 66.236328125 33.1181640625 C 66.236328125 51.40882873535156 51.40882873535156 66.236328125 33.1181640625 66.236328125 C 14.82750701904297 66.236328125 0 51.40882873535156 0 33.1181640625 C 0 14.82750701904297 14.82750701904297 0 33.1181640625 0 Z" stroke="none" fill="#b0ac95"/>
                          </g>
                        </g>
                      </g>
                    </g>
                  </g>
                </g>
              </g>
            </g>
          </g>
        </g>
      </g>
    </g>
    <g id="Grupo_1175695" data-name="Grupo 1175695" transform="translate(611.023 933.612)">
      <g id="Grupo_1175694" data-name="Grupo 1175694" transform="translate(0 0)" clip-path="url(#clip-path)">
        <path id="Trazado_1031216" data-name="Trazado 1031216" d="M0,34.968a4.253,4.253,0,0,0,4.453,4.468q10.79,0,21.578,0a4.256,4.256,0,0,0,4.458-4.465q0-3.384,0-6.767v-.446c.255-.1.465-.184.679-.259.074-.025.186-.059.233-.025.447.324,1.037.427,1.352.967.212.365.56.647.807.995a1.678,1.678,0,0,1,.157.561,2.584,2.584,0,0,0,.253.948c1.025,1.281,2.09,2.531,3.159,3.775a1.481,1.481,0,0,0,2.17.167q.617-.5,1.215-1.015a1.49,1.49,0,0,0,.19-2.231C39.69,30.424,38.664,29.217,37.646,28a1.254,1.254,0,0,0-1.041-.493.491.491,0,0,1-.359-.138c-.645-.833-1.591-1.482-1.628-2.753-.023.044-.006,0,.017-.031a7.8,7.8,0,0,0-3.881-11.6c-.259-.1-.266-.232-.266-.443,0-1.841.022-3.682-.006-5.524A4.137,4.137,0,0,0,26.82,2.948c-1.358-.127-2.736-.059-4.1-.077-.15,0-.3,0-.445,0-.028-.95-.116-1.037-1-1.037H18.631a4.067,4.067,0,0,0-6.8,0c-.864,0-1.734.023-2.6-.006C8.4,1.8,8.167,2.009,8.22,2.79c0,.02-.03.042-.059.081-1.214,0-2.44,0-3.666,0A4.27,4.27,0,0,0,0,7.348" transform="translate(0 0)" fill="#fefefe"/>
        <path id="Trazado_1031217" data-name="Trazado 1031217" d="M0,7.347A4.271,4.271,0,0,1,4.5,2.869H8.161c.029-.037.061-.059.059-.08-.053-.782.176-.992,1.01-.963.87.029,1.74.006,2.6.006a4.067,4.067,0,0,1,6.8,0h2.644c.879,0,.967.087.995,1.036.147,0,.3,0,.445,0,1.37.02,2.746-.05,4.1.078a4.136,4.136,0,0,1,3.661,4.078c.029,1.841.009,3.683.006,5.524,0,.21.007.347.266.442a7.8,7.8,0,0,1,3.881,11.6c-.023.035-.039.075-.017.031.037,1.27.983,1.92,1.628,2.753a.493.493,0,0,0,.359.138A1.256,1.256,0,0,1,37.646,28c1.018,1.213,2.044,2.42,3.057,3.637a1.49,1.49,0,0,1-.19,2.231q-.6.519-1.215,1.015a1.481,1.481,0,0,1-2.17-.167c-1.069-1.245-2.134-2.493-3.159-3.775A2.584,2.584,0,0,1,33.717,30a1.678,1.678,0,0,0-.157-.561c-.247-.348-.595-.63-.807-.995-.315-.54-.9-.642-1.351-.966-.049-.035-.16,0-.233.025-.215.074-.425.16-.68.258V28.2q0,3.384,0,6.767a4.256,4.256,0,0,1-4.458,4.465q-10.788,0-21.578,0A4.253,4.253,0,0,1,0,34.967" transform="translate(0 0)" fill="#030404"/>
        <path id="Trazado_1031218" data-name="Trazado 1031218" d="M34.033,18.86a3.836,3.836,0,0,0-.05-.464,6.785,6.785,0,0,0-5.691-5.179,6.667,6.667,0,0,0-6.944,3.843,6.363,6.363,0,0,0,.03,5.677,6.69,6.69,0,0,0,8.779,3.274c.755-.339.754-.339,1.348.228.017.017.052.013.114.027l1.4-1.186c-.463-.768-.458-.764.025-1.526a6.524,6.524,0,0,0,.992-4.7" transform="translate(0.681 0.433)" fill="#030404"/>
        <path id="Trazado_1031219" data-name="Trazado 1031219" d="M3.375,3.977A3.113,3.113,0,0,0,1.068,7.14q0,13.876,0,27.753A3.126,3.126,0,0,0,4.36,38.209q10.835.009,21.668,0a3.135,3.135,0,0,0,3.322-3.33q0-3.275,0-6.553V27.9l-1.217.123v.491q0,3.148,0,6.3a1.965,1.965,0,0,1-2.165,2.18q-10.748,0-21.5,0a1.967,1.967,0,0,1-2.187-2.2q0-13.747-.007-27.5a2.115,2.115,0,0,1,1.2-2.089c.408-.035.816-.1,1.225-.1C5.853,5.091,7,5.1,8.175,5.1V3.867a1.293,1.293,0,0,0-.167-.023c-1.339,0-2.678-.005-4.017.006a3.272,3.272,0,0,0-.617.127" transform="translate(0.035 0.126)" fill="#030404"/>
        <path id="Trazado_1031220" data-name="Trazado 1031220" d="M20.626,22.684c-.124-.653-.3-1.3-.364-1.96a7.622,7.622,0,0,1,4.259-7.54c.766-.368,1.6-.593,2.436-.894,0-1.72,0-3.5,0-5.284a.829.829,0,0,0-.925-.918c-1.141-.005-2.282,0-3.423,0h-.466c0,.183.01.311,0,.438a.569.569,0,0,1-.634.592q-6.376,0-12.751,0a.569.569,0,0,1-.627-.6c-.012-.135,0-.273,0-.431-1.372,0-2.7-.019-4.021.02-.217.005-.427.258-.639.4a2.3,2.3,0,0,0-.144.556Q3.31,20.95,3.315,34.842c0,.668.3.969.966.969q10.85,0,21.7,0c.668,0,.97-.3.971-.964q0-3.382,0-6.764c0-.069-.006-.139-.01-.219-.261-.056-.511-.1-.756-.162a7.778,7.778,0,0,1-5.562-5.018" transform="translate(0.109 0.2)" fill="#030404"/>
        <path id="Trazado_1031221" data-name="Trazado 1031221" d="M20.843,2.9c-.95,0-1.874,0-2.8,0a.73.73,0,0,1-.709-.493,2.163,2.163,0,0,0-.74-.884,3.2,3.2,0,0,0-3.226-.053,1.517,1.517,0,0,0-.735.728c-.2.645-.6.739-1.167.707-.6-.035-1.2-.009-1.8-.009H9.06V6.157H20.843Z" transform="translate(0.298 0.035)" fill="#030404"/>
        <path id="Trazado_1031222" data-name="Trazado 1031222" d="M28.643,12.484a.7.7,0,0,0,.03-.119c0-1.8.017-3.6,0-5.4a3.124,3.124,0,0,0-3.1-3.12c-1.242-.022-2.483-.006-3.726-.005a2.7,2.7,0,0,0-.273.028v1.16a.459.459,0,0,0,.1.031c1.227,0,2.454,0,3.682.007a1.955,1.955,0,0,1,2.1,2.12q0,2.377,0,4.752v.439l1.185.1" transform="translate(0.71 0.126)" fill="#030404"/>
        <path id="Trazado_1031223" data-name="Trazado 1031223" d="M33.636,29.288l3.179,3.776a.441.441,0,0,0,.7.053c.372-.312.746-.621,1.114-.935.346-.294.364-.472.067-.826q-1.456-1.737-2.921-3.468a2.408,2.408,0,0,0-.229-.207l-1.915,1.607" transform="translate(1.107 0.911)" fill="#030404"/>
        <path id="Trazado_1031224" data-name="Trazado 1031224" d="M34.411,27.31l-1.338-1.573-.9.755,1.339,1.578.9-.76" transform="translate(1.058 0.847)" fill="#030404"/>
        <path id="Trazado_1031225" data-name="Trazado 1031225" d="M20.627,22.67a7.777,7.777,0,0,0,5.561,5.017c.246.064.5.107.757.163,0,.08.01.149.01.219q0,3.382,0,6.764c0,.664-.3.963-.971.964q-10.852,0-21.7,0c-.665,0-.965-.3-.965-.969q0-13.893.005-27.785a2.241,2.241,0,0,1,.145-.556c.135.513.274,1.027.4,1.541a18.827,18.827,0,0,0,3.28,6.932c.83,1.076,1.818,2.031,2.746,3.031a1.645,1.645,0,0,0,.437.24,6.666,6.666,0,0,0,1.028,2.951,10.031,10.031,0,0,0,2.909,2.849.624.624,0,0,1,.328.622c-.026.383-.006.768-.005,1.154a.526.526,0,0,0,.525.6c.329.024.544-.215.554-.611.01-.427-.011-.855.012-1.282a.6.6,0,0,1,.189-.378c.714-.607,1.44-1.2,2.163-1.794.525.1,1.047.228,1.577.3a8.693,8.693,0,0,0,1.013.027M16.2,31.839H10.632c-.742,0-1.484,0-2.226,0a.5.5,0,0,0-.554.522.514.514,0,0,0,.52.561,2.691,2.691,0,0,0,.342.007q7.493,0,14.985,0a.988.988,0,0,0,.461-.043.8.8,0,0,0,.374-.409.569.569,0,0,0-.162-.485.931.931,0,0,0-.553-.147c-2.54-.008-5.081-.005-7.621-.005m.009-2.561q3.746,0,7.494,0a2.163,2.163,0,0,0,.384-.008.545.545,0,0,0,.031-1.074,1.386,1.386,0,0,0-.341-.018q-7.579,0-15.158,0c-.127,0-.3-.03-.373.038-.159.152-.374.363-.366.539s.243.366.415.5c.081.063.249.02.377.02q3.768,0,7.536,0m-9.879-1.1a.561.561,0,0,0-.618.56.552.552,0,0,0,.63.542.575.575,0,0,0,.627-.556.582.582,0,0,0-.639-.546m0,3.662c-.388,0-.622.208-.619.545a.563.563,0,0,0,.63.545.565.565,0,0,0,.624-.556.558.558,0,0,0-.635-.535" transform="translate(0.109 0.213)" fill="#e5e5e5"/>
        <path id="Trazado_1031226" data-name="Trazado 1031226" d="M10.33,18.244A1.6,1.6,0,0,1,9.893,18c-.929-1-1.917-1.954-2.748-3.031A18.8,18.8,0,0,1,3.866,8.044c-.132-.515-.271-1.029-.4-1.542.213-.138.422-.391.638-.4,1.324-.037,2.649-.019,4.021-.019,0,.158-.009.3,0,.431a.569.569,0,0,0,.628.6q6.376,0,12.751,0a.569.569,0,0,0,.633-.592c.011-.127,0-.256,0-.438H22.6c1.141,0,2.282,0,3.423,0A.829.829,0,0,1,26.951,7c0,1.783,0,3.566,0,5.285-.835.3-1.669.527-2.436.894a7.624,7.624,0,0,0-4.259,7.54c.063.659.24,1.308.364,1.96a8.484,8.484,0,0,1-1.013-.027c-.529-.075-1.051-.2-1.577-.3a1.958,1.958,0,0,1,.139-.211,6.694,6.694,0,0,0,1.323-6.96,18.274,18.274,0,0,0-3.942-6.222c-.294-.334-.6-.31-.9.061-.69.851-1.4,1.689-2.03,2.585a10.656,10.656,0,0,0-2.293,6.637" transform="translate(0.114 0.2)" fill="#fdfdfd"/>
        <path id="Trazado_1031227" data-name="Trazado 1031227" d="M3.478,5.2a2.118,2.118,0,0,0-1.2,2.089q.017,13.747.007,27.5a1.968,1.968,0,0,0,2.187,2.2h21.5A1.966,1.966,0,0,0,28.133,34.8q0-3.147,0-6.3v-.491l1.218-.123v.428q0,3.275,0,6.553a3.135,3.135,0,0,1-3.322,3.33q-10.833.008-21.668,0A3.124,3.124,0,0,1,1.068,34.89q0-13.876,0-27.753A3.111,3.111,0,0,1,3.375,3.974q.053.614.1,1.227" transform="translate(0.035 0.131)" fill="#6cb1e2"/>
        <path id="Trazado_1031228" data-name="Trazado 1031228" d="M20.843,2.9V6.157H9.06V2.9h.613c.6,0,1.2-.026,1.8.009.57.032.97-.062,1.167-.707a1.517,1.517,0,0,1,.735-.728,3.2,3.2,0,0,1,3.226.053,2.163,2.163,0,0,1,.74.884.73.73,0,0,0,.709.493c.923-.008,1.847,0,2.8,0" transform="translate(0.298 0.035)" fill="#5aa0d7"/>
        <path id="Trazado_1031229" data-name="Trazado 1031229" d="M21.378,22.737a6.361,6.361,0,0,1-.03-5.676,6.664,6.664,0,0,1,6.944-3.842A6.781,6.781,0,0,1,33.983,18.4a3.8,3.8,0,0,1,.05.463l-.95.606a5.6,5.6,0,0,0-11.17-.035,6.513,6.513,0,0,0,.7,3.291l-1.236.014" transform="translate(0.681 0.433)" fill="#fac045"/>
        <path id="Trazado_1031230" data-name="Trazado 1031230" d="M21.356,22.555l1.236-.014c.083.115.167.228.248.345a5.591,5.591,0,0,0,7.9,1.371,5.53,5.53,0,0,0,2.322-4.971l.95-.606a6.524,6.524,0,0,1-.992,4.7c-.482.761-.488.757-.025,1.525l-1.4,1.187c-.061-.013-.1-.01-.114-.027-.593-.568-.593-.568-1.347-.227a6.692,6.692,0,0,1-8.78-3.276" transform="translate(0.703 0.614)" fill="#eca623"/>
        <path id="Trazado_1031231" data-name="Trazado 1031231" d="M28.643,12.484l-1.185-.1v-.439q0-2.375,0-4.752a1.955,1.955,0,0,0-2.1-2.12c-1.228-.008-2.455,0-3.682-.007a.459.459,0,0,1-.1-.031V3.872a2.7,2.7,0,0,1,.273-.028c1.243,0,2.484-.017,3.726.005a3.124,3.124,0,0,1,3.1,3.12c.019,1.8,0,3.6,0,5.4a.7.7,0,0,1-.03.119" transform="translate(0.71 0.126)" fill="#8bcafc"/>
        <path id="Trazado_1031232" data-name="Trazado 1031232" d="M33.636,29.288l1.915-1.607a2.408,2.408,0,0,1,.229.207q1.464,1.732,2.921,3.468c.3.354.279.532-.067.826-.369.314-.743.623-1.114.935a.441.441,0,0,1-.7-.053l-3.179-3.776" transform="translate(1.107 0.911)" fill="#eca623"/>
        <path id="Trazado_1031233" data-name="Trazado 1031233" d="M3.4,5.205q-.051-.614-.1-1.227a3.048,3.048,0,0,1,.617-.128c1.339-.012,2.678-.007,4.017-.006a1.321,1.321,0,0,1,.168.022V5.1c-1.172,0-2.323-.008-3.474.005-.408.005-.817.066-1.225.1" transform="translate(0.109 0.126)" fill="#8bcafc"/>
        <path id="Trazado_1031234" data-name="Trazado 1031234" d="M34.411,27.31l-.9.76-1.339-1.578.9-.755,1.338,1.573" transform="translate(1.058 0.847)" fill="#eca623"/>
        <path id="Trazado_1031235" data-name="Trazado 1031235" d="M10.111,18.16A10.668,10.668,0,0,1,12.4,11.523c.627-.9,1.34-1.733,2.03-2.584.3-.372.605-.395.9-.063A18.332,18.332,0,0,1,19.276,15.1a6.7,6.7,0,0,1-1.324,6.962,1.648,1.648,0,0,0-.138.211c-.723.595-1.449,1.186-2.163,1.793a.592.592,0,0,0-.189.378c-.024.427,0,.854-.012,1.282-.009.4-.224.635-.554.611a.527.527,0,0,1-.525-.6c0-.384-.021-.771.005-1.154a.622.622,0,0,0-.328-.621,10.053,10.053,0,0,1-2.909-2.848,6.67,6.67,0,0,1-1.028-2.952m1.559,1.37a7.147,7.147,0,0,0,2.7,3.314V20.929a.865.865,0,0,0-.337-.892c-.582-.546-1.137-1.121-1.7-1.69-.315-.319-.618-.652-.925-.979l-.108.075a4.256,4.256,0,0,0,.371,2.086M15.459,21.5v1.39l1.171-1.04a5.437,5.437,0,0,0,1.828-4.465c-.811.812-1.567,1.647-2.409,2.383a1.684,1.684,0,0,0-.591,1.732M14.375,18.8c0-.847,0-1.61,0-2.373a.293.293,0,0,0-.083-.189c-.7-.7-1.4-1.4-2.168-2.159-.2.577-.4,1.076-.545,1.592a.619.619,0,0,0,.134.5c.771.8,1.564,1.581,2.351,2.366.075.075.163.136.314.259m3.322-4.75c-.348.355-.607.618-.866.883-.457.47-1.088.868-1.318,1.43a5.544,5.544,0,0,0-.068,1.945c0,.143,0,.284,0,.535.175-.165.248-.229.317-.3.817-.818,1.636-1.632,2.446-2.456a.36.36,0,0,0,.085-.294c-.175-.551-.371-1.1-.6-1.745M14.35,10.8l-.092-.052c-.479.7-.962,1.406-1.432,2.114-.052.078-.078.254-.032.3.486.507.991,1,1.556,1.562Zm1.212-.057-.094.057v3.949c.555-.556,1.058-1.05,1.544-1.562a.316.316,0,0,0,0-.3c-.474-.721-.964-1.433-1.449-2.146" transform="translate(0.332 0.284)" fill="#020202"/>
        <path id="Trazado_1031236" data-name="Trazado 1031236" d="M16.054,31.032c2.54,0,5.081,0,7.621.006a.916.916,0,0,1,.553.147.566.566,0,0,1,.162.484.8.8,0,0,1-.374.409.987.987,0,0,1-.461.044H8.569a2.691,2.691,0,0,1-.342-.007.514.514,0,0,1-.52-.561.5.5,0,0,1,.554-.521c.742-.006,1.484,0,2.226,0h5.566" transform="translate(0.254 1.021)" fill="#080808"/>
        <path id="Trazado_1031237" data-name="Trazado 1031237" d="M16.062,28.589H8.526c-.128,0-.3.043-.377-.021-.172-.136-.407-.325-.415-.5s.207-.387.366-.539c.071-.068.246-.038.373-.038H23.63a1.386,1.386,0,0,1,.341.018.545.545,0,0,1-.031,1.074,2.071,2.071,0,0,1-.384.009H16.062" transform="translate(0.254 0.904)" fill="#030404"/>
        <path id="Trazado_1031238" data-name="Trazado 1031238" d="M6.253,27.487a.582.582,0,0,1,.639.546.574.574,0,0,1-.627.556.552.552,0,0,1-.63-.542.561.561,0,0,1,.618-.56" transform="translate(0.185 0.904)" fill="#080808"/>
        <path id="Trazado_1031239" data-name="Trazado 1031239" d="M6.254,31.032a.558.558,0,0,1,.635.535.565.565,0,0,1-.624.556.563.563,0,0,1-.63-.545c0-.338.23-.543.619-.545" transform="translate(0.185 1.021)" fill="#080808"/>
        <path id="Trazado_1031240" data-name="Trazado 1031240" d="M33.043,19.43a5.525,5.525,0,0,1-2.322,4.97,5.589,5.589,0,0,1-7.9-1.37c-.081-.117-.165-.23-.248-.346a6.51,6.51,0,0,1-.7-3.291,5.6,5.6,0,0,1,11.169.036m-1.13.772a1.921,1.921,0,0,0,.065-.413,4.431,4.431,0,0,0-2.439-3.934,4.312,4.312,0,0,0-4.6.246,4.471,4.471,0,0,0-1.055,6.5,4.4,4.4,0,0,0,4.293,1.709,4.448,4.448,0,0,0,3.74-4.107" transform="translate(0.719 0.469)" fill="#020202"/>
        <path id="Trazado_1031241" data-name="Trazado 1031241" d="M14.329,18.631c-.152-.124-.24-.185-.314-.259-.788-.785-1.581-1.565-2.352-2.366a.619.619,0,0,1-.133-.5c.143-.515.342-1.015.544-1.594.764.759,1.469,1.457,2.169,2.16a.3.3,0,0,1,.082.189c.006.763,0,1.527,0,2.374" transform="translate(0.379 0.457)" fill="#59a543"/>
        <path id="Trazado_1031242" data-name="Trazado 1031242" d="M17.528,13.88c.224.649.42,1.194.595,1.746a.352.352,0,0,1-.085.294c-.809.824-1.628,1.639-2.445,2.455-.069.069-.143.134-.318.3,0-.251,0-.394,0-.534a5.573,5.573,0,0,1,.068-1.946c.231-.563.862-.961,1.319-1.43.257-.264.517-.528.866-.884" transform="translate(0.501 0.457)" fill="#59a543"/>
        <path id="Trazado_1031243" data-name="Trazado 1031243" d="M15.288,21.218a1.685,1.685,0,0,1,.592-1.732c.842-.735,1.6-1.571,2.409-2.383a5.443,5.443,0,0,1-1.829,4.465l-1.171-.35" transform="translate(0.502 0.563)" fill="#59a543"/>
        <path id="Trazado_1031244" data-name="Trazado 1031244" d="M11.632,19.251a4.254,4.254,0,0,1-.372-2.086l.108-.074c.309.327.611.659.927.979.56.569,1.116,1.142,1.7,1.689a.866.866,0,0,1,.336.892c-.4-.177-.809-.333-1.194-.535-.51-.27-1-.574-1.5-.865" transform="translate(0.37 0.562)" fill="#59a543"/>
        <path id="Trazado_1031245" data-name="Trazado 1031245" d="M14.265,10.738v3.927C13.7,14.1,13.2,13.611,12.709,13.1c-.046-.049-.02-.223.032-.3.47-.711.953-1.412,1.433-2.116l.092.053" transform="translate(0.417 0.351)" fill="#59a543"/>
        <path id="Trazado_1031246" data-name="Trazado 1031246" d="M15.391,10.681c.485.714.975,1.425,1.449,2.146a.316.316,0,0,1,0,.3c-.486.511-.99,1.006-1.544,1.562V10.738l.094-.057" transform="translate(0.503 0.351)" fill="#59a543"/>
        <path id="Trazado_1031247" data-name="Trazado 1031247" d="M11.62,19.182c.5.29.992.595,1.5.865.385.2.8.358,1.194.535V22.5a7.154,7.154,0,0,1-2.7-3.315" transform="translate(0.382 0.631)" fill="#498c35"/>
        <path id="Trazado_1031248" data-name="Trazado 1031248" d="M15.287,21.087l1.171.35-1.171,1.041Z" transform="translate(0.503 0.694)" fill="#498c35"/>
        <path id="Trazado_1031249" data-name="Trazado 1031249" d="M23.847,22.566a4.471,4.471,0,0,1,1.056-6.5,4.31,4.31,0,0,1,4.6-.246,4.434,4.434,0,0,1,2.44,3.934,1.923,1.923,0,0,1-.066.413c-.144.058-.292.105-.43.177a16.088,16.088,0,0,1-3.861,1.539c-1.236.278-2.494.459-3.742.682" transform="translate(0.753 0.502)" fill="#b7defd"/>
        <path id="Trazado_1031250" data-name="Trazado 1031250" d="M23.816,22.41c1.248-.223,2.506-.4,3.742-.682a16.088,16.088,0,0,0,3.861-1.539c.137-.071.286-.119.43-.177a4.447,4.447,0,0,1-3.74,4.107,4.4,4.4,0,0,1-4.293-1.709" transform="translate(0.784 0.658)" fill="#94c7ef"/>
      </g>
    </g>
  </g>
</svg>
