<svg xmlns="http://www.w3.org/2000/svg" xmlns:xlink="http://www.w3.org/1999/xlink" width="84.236" height="84.236" viewBox="0 0 84.236 84.236">
  <defs>
    <filter id="Trazado_982547" x="0" y="0" width="84.236" height="84.236" filterUnits="userSpaceOnUse">
      <feOffset dy="3" input="SourceAlpha"/>
      <feGaussianBlur stdDeviation="3" result="blur"/>
      <feFlood flood-opacity="0.161"/>
      <feComposite operator="in" in2="blur"/>
      <feComposite in="SourceGraphic"/>
    </filter>
    <clipPath id="clip-path">
      <rect id="Rectángulo_415601" data-name="Rectángulo 415601" width="40.822" height="40.822" fill="none"/>
    </clipPath>
  </defs>
  <g id="Grupo_1175537" data-name="Grupo 1175537" transform="translate(-586.25 -914.212)">
    <g id="Grupo_1175060" data-name="Grupo 1175060" transform="translate(595.25 920.212)">
      <g id="Grupo_1174859" data-name="Grupo 1174859" transform="translate(0)">
        <g id="Grupo_1167343" data-name="Grupo 1167343">
          <g id="Grupo_1166777" data-name="Grupo 1166777" transform="translate(0)">
            <g id="Grupo_1164305" data-name="Grupo 1164305">
              <g id="Grupo_1163948" data-name="Grupo 1163948">
                <g id="Grupo_1158168" data-name="Grupo 1158168">
                  <g id="Grupo_1152576" data-name="Grupo 1152576">
                    <g id="Grupo_1148633" data-name="Grupo 1148633">
                      <g id="Grupo_1148525" data-name="Grupo 1148525">
                        <g transform="matrix(1, 0, 0, 1, -9, -6)" filter="url(#Trazado_982547)">
                          <g id="Trazado_982547-2" data-name="Trazado 982547" transform="translate(9 6)" fill="#f4f9ff">
                            <path d="M 33.1181640625 64.73633575439453 C 28.84908485412598 64.73633575439453 24.70849418640137 63.90056228637695 20.81141471862793 62.25223541259766 C 17.04652404785156 60.65982437133789 13.66499423980713 58.37983322143555 10.7607536315918 55.47559356689453 C 7.856503963470459 52.57134246826172 5.57651424407959 49.18981552124023 3.984104156494141 45.42492294311523 C 2.335773944854736 41.5278434753418 1.500004053115845 37.38725280761719 1.500004053115845 33.1181640625 C 1.500004053115845 28.84908485412598 2.335773944854736 24.70849418640137 3.984104156494141 20.81141471862793 C 5.57651424407959 17.04652404785156 7.856513977050781 13.66499423980713 10.7607536315918 10.7607536315918 C 13.66499423980713 7.856513977050781 17.04652404785156 5.57651424407959 20.81141471862793 3.984104156494141 C 24.70849418640137 2.335773944854736 28.84908485412598 1.500004053115845 33.1181640625 1.500004053115845 C 37.38725280761719 1.500004053115845 41.5278434753418 2.335773944854736 45.42492294311523 3.984104156494141 C 49.18981552124023 5.57651424407959 52.57134246826172 7.856503963470459 55.47559356689453 10.7607536315918 C 58.37983322143555 13.66499423980713 60.65982437133789 17.04652404785156 62.25223541259766 20.81141471862793 C 63.90056228637695 24.70849418640137 64.73633575439453 28.84908485412598 64.73633575439453 33.1181640625 C 64.73633575439453 37.38725280761719 63.90056228637695 41.5278434753418 62.25223541259766 45.42492294311523 C 60.65982437133789 49.18981552124023 58.37983322143555 52.57135391235352 55.47559356689453 55.47559356689453 C 52.57135391235352 58.37983322143555 49.18981552124023 60.65982437133789 45.42492294311523 62.25223541259766 C 41.5278434753418 63.90056228637695 37.38725280761719 64.73633575439453 33.1181640625 64.73633575439453 Z" stroke="none"/>
                            <path d="M 33.1181640625 2.999996185302734 C 29.05091857910156 2.999996185302734 25.10691833496094 3.7958984375 21.3957405090332 5.365596771240234 C 17.80964279174805 6.88238525390625 14.58837509155273 9.054443359375 11.82140731811523 11.82140731811523 C 9.054443359375 14.58837509155273 6.88238525390625 17.80964279174805 5.365596771240234 21.3957405090332 C 3.7958984375 25.10691833496094 2.999996185302734 29.05091857910156 2.999996185302734 33.1181640625 C 2.999996185302734 37.18541717529297 3.7958984375 41.12940979003906 5.365596771240234 44.84059906005859 C 6.88238525390625 48.42668533325195 9.054431915283203 51.64796447753906 11.82140731811523 54.41493225097656 C 14.58837509155273 57.1818962097168 17.80964279174805 59.35394287109375 21.39572906494141 60.87073135375977 C 25.10691833496094 62.4404296875 29.05091857910156 63.23633193969727 33.1181640625 63.23633193969727 C 37.18541717529297 63.23633193969727 41.12940979003906 62.4404296875 44.84059906005859 60.87073135375977 C 48.42668533325195 59.35394287109375 51.64796447753906 57.1818962097168 54.41493225097656 54.41493225097656 C 57.1818962097168 51.64796447753906 59.35394287109375 48.42668533325195 60.87073135375977 44.84059906005859 C 62.4404296875 41.12940979003906 63.23633193969727 37.18541717529297 63.23633193969727 33.1181640625 C 63.23633193969727 29.05091857910156 62.4404296875 25.10691833496094 60.87073135375977 21.39572906494141 C 59.35394287109375 17.80964279174805 57.1818962097168 14.58837509155273 54.41493225097656 11.82140731811523 C 51.64796447753906 9.054431915283203 48.42668533325195 6.88238525390625 44.84059906005859 5.365596771240234 C 41.12940979003906 3.7958984375 37.18541717529297 2.999996185302734 33.1181640625 2.999996185302734 M 33.1181640625 0 C 51.40882873535156 0 66.236328125 14.82750701904297 66.236328125 33.1181640625 C 66.236328125 51.40882873535156 51.40882873535156 66.236328125 33.1181640625 66.236328125 C 14.82750701904297 66.236328125 0 51.40882873535156 0 33.1181640625 C 0 14.82750701904297 14.82750701904297 0 33.1181640625 0 Z" stroke="none" fill="#bf908c"/>
                          </g>
                        </g>
                      </g>
                    </g>
                  </g>
                </g>
              </g>
            </g>
          </g>
        </g>
      </g>
    </g>
    <g id="Grupo_1175727" data-name="Grupo 1175727" transform="translate(607.957 932.919)">
      <g id="Grupo_1175726" data-name="Grupo 1175726" transform="translate(0 0)" clip-path="url(#clip-path)">
        <path id="Trazado_1031382" data-name="Trazado 1031382" d="M0,40.772V16.263c.053.115.113.227.157.345a2.5,2.5,0,0,0,1.685,1.669.793.793,0,0,1,.7.848.419.419,0,0,0,.009.079A8.012,8.012,0,0,0,4.31,23.1a3.145,3.145,0,0,1,.461.714,1.688,1.688,0,0,0,1.177,1.037,7.427,7.427,0,0,0,1.342.016c.257.595.519,1.259.825,1.9A12.862,12.862,0,0,0,12.8,32.553a.386.386,0,0,1,.16.277c.011,1.392.007,2.784.007,4.183-.126.043-.241.076-.35.121a2.257,2.257,0,0,0-1.48,1.906c-.067.578.071.717.649.717q3.024,0,6.047,0c.571,0,.693-.125.693-.7q0-3.063,0-6.126v-.407c.047-.028.058-.04.067-.039,1.306.111,2.612.221,3.917.34a.349.349,0,0,1,.218.126c.347.445.683.9,1.06,1.395-.144.134-.339.292-.506.477a.459.459,0,0,0,.648.649c.189-.166.353-.36.544-.524a.422.422,0,0,1,.3-.126c.384.091.759.215,1.163.336,0,.295,0,.6,0,.9a.454.454,0,0,0,.908.026,5.355,5.355,0,0,0,.007-.676c-.014-.21.072-.28.269-.352.673-.245,1.27-.326,1.73.4a.388.388,0,0,0,.629.015.436.436,0,0,0,0-.67c-.17-.176-.365-.329-.565-.507a4.4,4.4,0,0,0,1.557-2.444c.077-.317.363-.342.6-.273.451.134.885.326,1.323.493v4.954c-.118.041-.232.075-.341.12a2.307,2.307,0,0,0-1.475,1.874c-.085.54.092.743.63.743q3.063,0,6.127,0c.5,0,.631-.129.631-.636,0-2.957.006-5.915-.009-8.872a1.17,1.17,0,0,0-.224-.643c-.441-.6-.93-1.157-1.372-1.753a1.193,1.193,0,0,1-.227-.636c-.026-.914.007-1.83-.019-2.744a8.349,8.349,0,0,0-1.919-5.192c-.261-.318-.55-.612-.827-.918a.641.641,0,0,1,.346.085A11.118,11.118,0,0,1,38.222,22.7c.6,1.038,1.059,2.16,1.578,3.245.134.28.313.471.651.349.283-.1.356-.379.2-.734-.274-.616-.541-1.237-.836-1.843-2.387-4.9-6.282-7.485-11.764-7.535-4.3-.04-8.593-.017-12.889-.022-.115,0-.23-.011-.35-.018,0-.084-.009-.136-.008-.188.01-.628-.091-.728-.735-.729H13.4a5.442,5.442,0,0,0,.98-3.482c-.012-.26-.02-.553-.345-.651s-.5.128-.664.373a6.161,6.161,0,0,1-2.075,1.991.556.556,0,0,1-.429.068,4.983,4.983,0,0,0-2.726-.308,5.557,5.557,0,0,1-1.291.015,5.036,5.036,0,0,0-2.734.241.642.642,0,0,1-.69-.064,6.534,6.534,0,0,1-2.016-2c-.148-.23-.345-.443-.605-.3a.773.773,0,0,0-.333.55A4.708,4.708,0,0,0,.54,13.077c.184.729.478,1.431.725,2.147C.894,15.3.384,15.067,0,15.467M21.305,4.06c0-.358-.02-.717,0-1.073a.684.684,0,0,0-.555-.786c-1.246-.4-2.482-.828-3.73-1.221a1.2,1.2,0,0,0-.685,0c-1.284.407-2.558.85-3.841,1.263a.589.589,0,0,0-.472.635c.008.7-.015,1.4.012,2.106a6.492,6.492,0,0,0,4.295,5.971,1.077,1.077,0,0,0,.675,0,6.306,6.306,0,0,0,3.143-2.441A7.016,7.016,0,0,0,21.305,4.06m6.959,7.012c-1.034,0-2.069-.013-3.1.011a.968.968,0,0,0-.589.235c-.572.532-1.111,1.1-1.668,1.651-.228.226-.329.473-.076.723s.5.158.729-.069c.448-.451.909-.891,1.345-1.355a.851.851,0,0,1,.69-.293c1.91.014,3.819,0,5.728.009.328,0,.592-.069.612-.456.015-.3-.192-.454-.606-.455-1.021,0-2.042,0-3.063,0m4.606.432a1.856,1.856,0,1,0,1.864-1.835A1.873,1.873,0,0,0,32.87,11.5M4.15,31.45c.716,0,1.432,0,2.147,0a.7.7,0,0,0,.66-.354c.251-.4.52-.8.791-1.192a.444.444,0,0,0-.084-.692c-.277-.2-.5-.082-.675.163-.2.282-.393.566-.569.862a.519.519,0,0,1-.516.273c-1.286-.012-2.572-.007-3.858-.006-.441,0-.656.154-.659.459,0,.288.249.48.655.483.7,0,1.406,0,2.108,0M30.079,9.668c.437,0,.875,0,1.312,0,.309,0,.529-.115.539-.445s-.2-.471-.511-.472q-1.332,0-2.664,0c-.289,0-.5.134-.5.443,0,.326.2.47.513.471h1.312M2.787,32.816c-.291,0-.582,0-.872,0-.313,0-.522.156-.52.471a.461.461,0,0,0,.5.466c.594.016,1.19.019,1.784,0a.434.434,0,0,0,.472-.475.442.442,0,0,0-.487-.459c-.29-.009-.581,0-.872,0" transform="translate(0 0.05)" fill="#fdfdfd"/>
        <path id="Trazado_1031383" data-name="Trazado 1031383" d="M0,22.356c.383-.4.894-.168,1.265-.244C1.018,21.4.724,20.7.539,19.966A4.708,4.708,0,0,1,.47,18.547.773.773,0,0,1,.8,18c.26-.141.457.072.605.3a6.534,6.534,0,0,0,2.016,2,.64.64,0,0,0,.69.064,5.048,5.048,0,0,1,2.734-.241,5.523,5.523,0,0,0,1.291-.014,4.983,4.983,0,0,1,2.726.308.559.559,0,0,0,.429-.068,6.161,6.161,0,0,0,2.075-1.991c.159-.245.323-.474.664-.373s.333.391.345.651a5.441,5.441,0,0,1-.979,3.482h.669c.644,0,.745.1.735.728,0,.053,0,.1.008.188.12.007.235.018.35.018,4.3.006,8.593-.018,12.89.022,5.482.051,9.377,2.631,11.764,7.535.3.606.562,1.226.836,1.843.158.355.084.632-.2.734-.337.122-.517-.069-.651-.349-.519-1.085-.977-2.207-1.579-3.245a11.106,11.106,0,0,0-4.511-4.255.635.635,0,0,0-.345-.085c.276.305.566.6.827.918a8.351,8.351,0,0,1,1.919,5.192c.025.914-.007,1.83.019,2.744a1.193,1.193,0,0,0,.227.636c.442.6.932,1.156,1.372,1.753a1.165,1.165,0,0,1,.223.643c.014,2.957.011,5.914.009,8.872,0,.507-.127.636-.632.636q-3.063,0-6.126,0c-.539,0-.716-.2-.63-.743a2.307,2.307,0,0,1,1.475-1.874c.109-.045.222-.079.341-.121V38.955c-.439-.167-.872-.359-1.323-.493-.235-.07-.522-.044-.6.273a4.41,4.41,0,0,1-1.557,2.444c.2.178.395.331.565.507a.436.436,0,0,1,0,.67.388.388,0,0,1-.629-.015c-.459-.724-1.057-.643-1.73-.4-.2.072-.283.142-.269.352a5.355,5.355,0,0,1-.007.676.455.455,0,0,1-.909-.026c0-.3,0-.608,0-.9-.4-.121-.78-.245-1.163-.336a.421.421,0,0,0-.3.126c-.191.164-.355.358-.544.524a.459.459,0,0,1-.648-.649c.167-.184.363-.343.506-.477-.376-.5-.714-.95-1.06-1.395a.351.351,0,0,0-.219-.126c-1.3-.119-2.611-.229-3.917-.34-.01,0-.02.011-.067.039v.407q0,3.063,0,6.126c0,.579-.123.7-.693.7q-3.023,0-6.047,0c-.579,0-.717-.14-.65-.717a2.257,2.257,0,0,1,1.481-1.906c.109-.046.223-.078.349-.121,0-1.4,0-2.791-.007-4.183a.386.386,0,0,0-.16-.277,12.857,12.857,0,0,1-4.684-5.785c-.306-.643-.568-1.307-.826-1.9a7.421,7.421,0,0,1-1.341-.016A1.687,1.687,0,0,1,4.771,30.7a3.131,3.131,0,0,0-.461-.714,8.019,8.019,0,0,1-1.762-3.9.567.567,0,0,1-.009-.079.793.793,0,0,0-.7-.848A2.5,2.5,0,0,1,.157,23.5c-.044-.118-.1-.23-.157-.345v-.8m1.512-2.385a.148.148,0,0,0-.016-.025s-.012,0-.018,0l.039.022a3.2,3.2,0,0,0,1.018,2.011l.456-.806-1.479-1.2M29.845,37.785a5.907,5.907,0,0,1-2.411-3.861,19.624,19.624,0,0,1-.129-2.886c-.007-.4.2-.594.5-.576s.452.254.425.677c-.03.462-.066.927-.054,1.389a5.39,5.39,0,0,0,3.632,5.227,9.424,9.424,0,0,0,3.19.576c.534.014.647.128.647.664q0,2.566,0,5.132c0,.524-.076.607-.6.683a1.233,1.233,0,0,0-1.1.9H37a1.721,1.721,0,0,0,.028-.214q0-4.1-.006-8.195a.763.763,0,0,0-.168-.422c-.452-.588-.91-1.173-1.387-1.741a1.217,1.217,0,0,1-.3-.83c-.011-1.3.006-2.6-.092-3.892a6.321,6.321,0,0,0-1.163-3.05,3.922,3.922,0,0,1-2.3,1.538,9.375,9.375,0,0,1-1.933.136,3.651,3.651,0,0,1-3.153-1.634,2.1,2.1,0,0,0-1.607-1.01c-.026,0-.051-.017-.077-.022a2.955,2.955,0,0,1-2.593-2.39H19.434c0,.34.012.656,0,.971a3.09,3.09,0,0,1-1.8,2.83,2,2,0,0,0-1.063,1.119,2.327,2.327,0,0,1-.125.248,3.144,3.144,0,0,1-2.6,1.722c-1.017.066-2.04.032-3.061.041-.138,0-.276,0-.427,0a18.7,18.7,0,0,0,2.667,5.311,8.339,8.339,0,0,0,2.743,2.493.779.779,0,0,1,.459.792c-.013,1.512,0,3.023-.006,4.535,0,.6-.058.664-.653.764a1.152,1.152,0,0,0-1.04.9h3.07v-.459c0-1.923.012-3.845-.008-5.768a2.557,2.557,0,0,1,.389-1.455,6.408,6.408,0,0,0,1-3.226c.01-.332.085-.625.485-.646.3-.016.467.228.441.662a5.206,5.206,0,0,1-.142,1.139c-.241.833-.535,1.651-.815,2.5a24.616,24.616,0,0,0,10.908-.671M6.95,21.007c-.631,0-1.2-.039-1.763.009a1.867,1.867,0,0,0-1.842,1.673,9.069,9.069,0,0,0,1.322,6.269,1.493,1.493,0,0,0,.15.166,1.882,1.882,0,0,1,2.461-.807.406.406,0,0,0,.26,0,1.9,1.9,0,0,1,2.46.819,6.287,6.287,0,0,0,1.161-2.422,4.832,4.832,0,0,1-3.27-1.906,5.477,5.477,0,0,1-.939-3.8m3.584,8.974c1.132,0,2.178.054,3.213-.026a2.284,2.284,0,0,0,1.273-.562,4.824,4.824,0,0,0,.923-1.36c.241-.467.474-.882,1.054-.956a.846.846,0,0,0,.285-.132,2.644,2.644,0,0,0,1.257-2.6c-.006-.288-.081-.4-.383-.391-1.125.014-2.251,0-3.377.017a.711.711,0,0,0-.485.244,3.007,3.007,0,0,1-1.657,1.093.461.461,0,0,0-.285.294,8.642,8.642,0,0,1-1.817,4.382m12.675-6.048A1.836,1.836,0,0,0,24.466,25.3a7.967,7.967,0,0,0,1.112.29,1.981,1.981,0,0,1,1.588,1.1,2.992,2.992,0,0,0,2.748,1.453,3.558,3.558,0,0,0,3.239-1.319.285.285,0,0,0-.014-.44A7.261,7.261,0,0,0,29.7,24.27c-2.111-.569-4.27-.2-6.488-.337M8.287,31.939c.6,1.131,1.162,2.3,1.824,3.406a8.882,8.882,0,0,0,3.273,3.34.9.9,0,0,1,.521.919c-.018,1.457-.006,2.915-.007,4.372,0,.686-.023.713-.7.845a1.111,1.111,0,0,0-.987.917c.345,0,.689.008,1.033-.006.089,0,.233-.061.252-.123a2.426,2.426,0,0,1,1.78-1.708c0-1.4.006-2.773-.01-4.151a.584.584,0,0,0-.232-.357c-.482-.391-1.018-.724-1.464-1.151a16.6,16.6,0,0,1-3.788-6.087c-.091-.228-.18-.458-.262-.667l-1.236.45m3.068-6.2a9.074,9.074,0,0,0,.156-2.9,1.878,1.878,0,0,0-1.175-1.625,4.052,4.052,0,0,0-2.43-.094c-.269,2.529,1.5,4.9,3.449,4.619m21.983,13.4v.447q0,2.264,0,4.528c0,.527-.083.622-.591.693a1.255,1.255,0,0,0-1.12.905h1.288a2.3,2.3,0,0,1,1.5-1.694.39.39,0,0,0,.3-.457c-.011-1.165,0-2.331,0-3.5v-.8l-1.376-.126M23.8,39.8a3.238,3.238,0,0,0,5.63-.831L23.8,39.8M8.244,30.9a.96.96,0,0,0,.955-.6.941.941,0,0,0-.264-1.015.843.843,0,0,0-1.066-.079.686.686,0,0,1-.929,0A.975.975,0,0,0,6.3,29.1a.826.826,0,0,0-.719.7.86.86,0,0,0,.373.939.831.831,0,0,0,1.007.019.639.639,0,0,1,.891,0,1.081,1.081,0,0,0,.39.142m4.038-8.922a3.685,3.685,0,0,0,1.048-2l-1.507,1.187.459.816m.226,1.093v1.247a1.442,1.442,0,0,0,1.225-1.247ZM2.292,24.321V23.057c-.342,0-.656,0-.969,0-.089,0-.178.015-.268.024a1.554,1.554,0,0,0,1.237,1.239" transform="translate(0 -6.839)" fill="#3c414f"/>
        <path id="Trazado_1031384" data-name="Trazado 1031384" d="M28.707,4.712a7.016,7.016,0,0,1-1.152,4.452,6.308,6.308,0,0,1-3.144,2.441,1.079,1.079,0,0,1-.675,0,6.492,6.492,0,0,1-4.295-5.971c-.027-.7,0-1.4-.012-2.107a.59.59,0,0,1,.472-.635c1.283-.413,2.557-.855,3.842-1.263a1.21,1.21,0,0,1,.685,0c1.247.394,2.484.824,3.73,1.221a.684.684,0,0,1,.555.786c-.025.356,0,.715,0,1.073m-8.337.2h0c0,.238-.012.477,0,.715a5.525,5.525,0,0,0,3.365,4.982.812.812,0,0,0,.594.022,5.485,5.485,0,0,0,3.2-3.57,10.135,10.135,0,0,0,.223-3.153c0-.1-.167-.246-.285-.288-1.023-.357-2.05-.7-3.085-1.028a1.143,1.143,0,0,0-.643,0c-1,.311-1.98.668-2.978.974a.475.475,0,0,0-.4.587,7.3,7.3,0,0,1,0,.755" transform="translate(-7.402 -0.603)" fill="#3d414f"/>
        <path id="Trazado_1031385" data-name="Trazado 1031385" d="M42.223,17.964c1.021,0,2.042,0,3.063,0,.414,0,.621.153.605.456-.02.387-.283.456-.611.455-1.91,0-3.819,0-5.728-.009a.852.852,0,0,0-.69.293c-.436.464-.9.9-1.345,1.356-.226.227-.48.315-.729.069s-.152-.5.076-.724c.556-.55,1.1-1.118,1.668-1.651a.975.975,0,0,1,.589-.235c1.034-.023,2.068-.011,3.1-.011" transform="translate(-13.959 -6.843)" fill="#3a3f4c"/>
        <path id="Trazado_1031386" data-name="Trazado 1031386" d="M53.1,17.534a1.856,1.856,0,1,1,1.824,1.878A1.871,1.871,0,0,1,53.1,17.534m1.888-.894a.9.9,0,0,0-.945.862.906.906,0,0,0,.879.971.917.917,0,1,0,.066-1.833" transform="translate(-20.23 -5.981)" fill="#3c414f"/>
        <path id="Trazado_1031387" data-name="Trazado 1031387" d="M5,49.447c-.7,0-1.405,0-2.108,0-.406,0-.659-.195-.656-.483,0-.306.219-.459.659-.459,1.286,0,2.572-.007,3.858,0a.519.519,0,0,0,.516-.272c.176-.3.371-.581.569-.862.173-.246.4-.367.675-.164A.445.445,0,0,1,8.6,47.9c-.271.392-.539.787-.791,1.192a.7.7,0,0,1-.659.355c-.716-.007-1.432,0-2.148,0" transform="translate(-0.853 -17.947)" fill="#68c5fe"/>
        <path id="Trazado_1031388" data-name="Trazado 1031388" d="M47.467,15.133c-.438,0-.875,0-1.312,0-.314,0-.517-.144-.513-.47,0-.31.212-.442.5-.443q1.332-.007,2.664,0c.31,0,.522.141.511.472s-.23.448-.539.445c-.438,0-.875,0-1.312,0" transform="translate(-17.389 -5.416)" fill="#3a3f4c"/>
        <path id="Trazado_1031389" data-name="Trazado 1031389" d="M3.645,53.092c.291,0,.582-.007.872,0A.442.442,0,0,1,5,53.553a.434.434,0,0,1-.472.475c-.594.02-1.19.017-1.784,0a.461.461,0,0,1-.5-.466c0-.315.207-.469.52-.471.29,0,.581,0,.872,0" transform="translate(-0.858 -20.226)" fill="#68c5fe"/>
        <path id="Trazado_1031390" data-name="Trazado 1031390" d="M36.215,41.5a24.616,24.616,0,0,1-10.908.671c.28-.847.574-1.665.815-2.5a5.244,5.244,0,0,0,.142-1.139c.025-.434-.142-.678-.441-.662-.4.021-.475.313-.485.646a6.4,6.4,0,0,1-1,3.226,2.557,2.557,0,0,0-.389,1.455c.02,1.923.008,3.845.008,5.768v.459H20.89a1.153,1.153,0,0,1,1.04-.9c.6-.1.652-.165.653-.764,0-1.512-.007-3.023.006-4.535a.781.781,0,0,0-.458-.792,8.335,8.335,0,0,1-2.743-2.493,18.7,18.7,0,0,1-2.667-5.311c.151,0,.289,0,.428,0,1.02-.01,2.044.025,3.06-.041a3.143,3.143,0,0,0,2.6-1.722,2.327,2.327,0,0,0,.125-.248A2,2,0,0,1,24,31.5a3.09,3.09,0,0,0,1.8-2.83c.014-.315,0-.631,0-.971h2.825a2.953,2.953,0,0,0,2.592,2.39c.026,0,.051.019.077.022a2.1,2.1,0,0,1,1.607,1.01,3.65,3.65,0,0,0,3.153,1.634,9.333,9.333,0,0,0,1.933-.136,3.919,3.919,0,0,0,2.3-1.538,6.324,6.324,0,0,1,1.163,3.05c.1,1.293.081,2.594.092,3.892a1.219,1.219,0,0,0,.3.83c.477.568.935,1.153,1.387,1.742a.759.759,0,0,1,.168.421q.014,4.1.006,8.2a1.84,1.84,0,0,1-.027.213H40.317a1.232,1.232,0,0,1,1.1-.9c.526-.076.6-.159.6-.683q0-2.566,0-5.132c0-.537-.113-.651-.647-.664a9.421,9.421,0,0,1-3.19-.576,5.39,5.39,0,0,1-3.633-5.227c-.012-.462.024-.927.054-1.389.027-.422-.11-.657-.424-.677s-.511.179-.5.576a19.539,19.539,0,0,0,.129,2.886,5.9,5.9,0,0,0,2.41,3.861m-8.986-9.188a3.043,3.043,0,0,0-2.129.813,1.98,1.98,0,0,0,.031,3.013,7.569,7.569,0,0,0,1.419.747.652.652,0,0,1,.3.24,1.828,1.828,0,0,0,1.637,1.2,1.737,1.737,0,0,0,1.733-.971,1.811,1.811,0,0,0-.166-2.019.594.594,0,0,1-.1-.391,1.979,1.979,0,0,0-.523-1.684,2.927,2.927,0,0,0-2.2-.945" transform="translate(-6.37 -10.555)" fill="#d7eafd"/>
        <path id="Trazado_1031391" data-name="Trazado 1031391" d="M8.956,22.879a5.477,5.477,0,0,0,.939,3.8,4.832,4.832,0,0,0,3.27,1.906A6.286,6.286,0,0,1,12,31.008a1.9,1.9,0,0,0-2.46-.819.408.408,0,0,1-.261,0A1.881,1.881,0,0,0,6.824,31a1.492,1.492,0,0,1-.15-.167,9.069,9.069,0,0,1-1.322-6.269,1.867,1.867,0,0,1,1.842-1.673c.562-.048,1.132-.009,1.763-.009" transform="translate(-2.006 -8.711)" fill="#d7eafd"/>
        <path id="Trazado_1031392" data-name="Trazado 1031392" d="M17.017,33.674a8.64,8.64,0,0,0,1.817-4.382A.461.461,0,0,1,19.12,29a3.008,3.008,0,0,0,1.657-1.093.71.71,0,0,1,.485-.245c1.125-.021,2.251,0,3.377-.017.3,0,.376.1.383.391a2.644,2.644,0,0,1-1.257,2.6.834.834,0,0,1-.285.132c-.581.074-.813.49-1.054.956a4.809,4.809,0,0,1-.922,1.36,2.275,2.275,0,0,1-1.273.562c-1.035.081-2.081.026-3.213.026" transform="translate(-6.483 -10.532)" fill="#9196a3"/>
        <path id="Trazado_1031393" data-name="Trazado 1031393" d="M37.493,27.615c2.218.133,4.377-.232,6.488.337a7.262,7.262,0,0,1,3.442,2.116.284.284,0,0,1,.014.44,3.558,3.558,0,0,1-3.239,1.32,3,3,0,0,1-2.748-1.453,1.979,1.979,0,0,0-1.588-1.1,8.032,8.032,0,0,1-1.112-.29,1.836,1.836,0,0,1-1.257-1.37" transform="translate(-14.284 -10.521)" fill="#9196a3"/>
        <path id="Trazado_1031394" data-name="Trazado 1031394" d="M13.388,40.271l1.236-.45c.082.209.171.438.262.667a16.6,16.6,0,0,0,3.788,6.087c.446.427.982.76,1.464,1.151a.584.584,0,0,1,.232.357c.016,1.377.01,2.755.01,4.151A2.426,2.426,0,0,0,18.6,53.94c-.019.062-.163.119-.252.123-.344.014-.688.006-1.033.006a1.11,1.11,0,0,1,.987-.916c.674-.132.7-.16.7-.845,0-1.458-.011-2.915.007-4.373a.9.9,0,0,0-.521-.918,8.876,8.876,0,0,1-3.272-3.34c-.662-1.107-1.224-2.276-1.824-3.406" transform="translate(-5.101 -15.171)" fill="#b6d5f5"/>
        <path id="Trazado_1031395" data-name="Trazado 1031395" d="M16.2,27.6c-1.945.281-3.718-2.089-3.449-4.619a4.048,4.048,0,0,1,2.43.095A1.877,1.877,0,0,1,16.361,24.7a9.109,9.109,0,0,1-.156,2.9" transform="translate(-4.849 -8.701)" fill="#6d7488"/>
        <path id="Trazado_1031396" data-name="Trazado 1031396" d="M52.8,52.18l1.376.126v.8c0,1.165-.006,2.331,0,3.5a.39.39,0,0,1-.3.457,2.3,2.3,0,0,0-1.5,1.694H51.093a1.254,1.254,0,0,1,1.119-.905c.508-.071.591-.166.591-.693q0-2.264,0-4.528Z" transform="translate(-19.465 -19.88)" fill="#b6d5f5"/>
        <path id="Trazado_1031397" data-name="Trazado 1031397" d="M38.455,52.729l5.63-.831a3.238,3.238,0,0,1-5.63.831" transform="translate(-14.651 -19.772)" fill="#ebccc2"/>
        <path id="Trazado_1031398" data-name="Trazado 1031398" d="M11.665,37.735a1.09,1.09,0,0,1-.39-.141.639.639,0,0,0-.891,0,.831.831,0,0,1-1.007-.019A.86.86,0,0,1,9,36.634a.826.826,0,0,1,.719-.7.975.975,0,0,1,.637.117.686.686,0,0,0,.929,0,.843.843,0,0,1,1.066.079.941.941,0,0,1,.264,1.015.959.959,0,0,1-.955.6" transform="translate(-3.422 -13.674)" fill="#f8a2be"/>
        <path id="Trazado_1031399" data-name="Trazado 1031399" d="M2.442,21.21l1.479,1.2-.456.806A3.2,3.2,0,0,1,2.447,21.2Z" transform="translate(-0.93 -8.078)" fill="#bacbe2"/>
        <path id="Trazado_1031400" data-name="Trazado 1031400" d="M19.558,23.225,19.1,22.41l1.507-1.187a3.686,3.686,0,0,1-1.048,2" transform="translate(-7.276 -8.086)" fill="#bacbe2"/>
        <path id="Trazado_1031401" data-name="Trazado 1031401" d="M20.2,26.222h1.224A1.441,1.441,0,0,1,20.2,27.47Z" transform="translate(-7.698 -9.99)" fill="#aabbd5"/>
        <path id="Trazado_1031402" data-name="Trazado 1031402" d="M2.941,27.463A1.554,1.554,0,0,1,1.7,26.223c.09-.009.179-.023.268-.024.313,0,.627,0,.969,0Z" transform="translate(-0.649 -9.981)" fill="#aabbd5"/>
        <path id="Trazado_1031403" data-name="Trazado 1031403" d="M2.426,21.19l-.039-.022c.006,0,.015,0,.018,0a.148.148,0,0,1,.016.025l0-.006" transform="translate(-0.909 -8.065)" fill="#bacbe2"/>
        <path id="Trazado_1031404" data-name="Trazado 1031404" d="M20.942,5.515a7.289,7.289,0,0,0,0-.754.477.477,0,0,1,.4-.587c1-.306,1.981-.662,2.977-.974a1.148,1.148,0,0,1,.643,0c1.034.324,2.061.672,3.085,1.028.118.041.284.189.284.288a10.153,10.153,0,0,1-.222,3.153,5.488,5.488,0,0,1-3.2,3.571.814.814,0,0,1-.595-.023A5.526,5.526,0,0,1,20.947,6.23c-.014-.237,0-.477,0-.715h0m3.264,3.14a3.485,3.485,0,0,0,.453-.32c.689-.677,1.37-1.361,2.05-2.046.3-.3.329-.568.091-.784-.288-.262-.522-.128-.751.1-.53.537-1.076,1.057-1.593,1.605-.222.236-.371.224-.574-.008-.217-.248-.472-.464-.7-.706a.46.46,0,0,0-.727-.06c-.25.235-.149.474.064.686.44.439.876.883,1.322,1.315a1.932,1.932,0,0,0,.36.214" transform="translate(-7.974 -1.201)" fill="#f27390"/>
        <path id="Trazado_1031405" data-name="Trazado 1031405" d="M55.567,17.22a.917.917,0,1,1-.066,1.833.906.906,0,0,1-.879-.971.9.9,0,0,1,.945-.862" transform="translate(-20.809 -6.56)" fill="#68c5fe"/>
        <path id="Trazado_1031406" data-name="Trazado 1031406" d="M31.968,35.149a2.926,2.926,0,0,1,2.2.945,1.978,1.978,0,0,1,.524,1.684.59.59,0,0,0,.1.391,1.81,1.81,0,0,1,.166,2.019,1.736,1.736,0,0,1-1.733.971,1.826,1.826,0,0,1-1.637-1.2.654.654,0,0,0-.3-.24,7.552,7.552,0,0,1-1.419-.747,1.98,1.98,0,0,1-.031-3.013,3.044,3.044,0,0,1,2.13-.813m0,.812a7.761,7.761,0,0,0-1.356.57,1.113,1.113,0,0,0-.092,1.808,2.037,2.037,0,0,0,1.343.511.527.527,0,0,1,.565.491.912.912,0,0,0,1.723.392.874.874,0,0,0-.29-1.161.57.57,0,0,1-.157-.706,1.046,1.046,0,0,0-.443-1.345,10.276,10.276,0,0,0-1.293-.559" transform="translate(-11.109 -13.391)" fill="#3c414f"/>
        <path id="Trazado_1031407" data-name="Trazado 1031407" d="M25.056,10.014A1.932,1.932,0,0,1,24.7,9.8c-.446-.433-.882-.877-1.322-1.315-.213-.212-.314-.452-.064-.686a.46.46,0,0,1,.727.06c.224.242.479.458.7.706.2.232.352.244.574.008C25.823,8.025,26.37,7.5,26.9,6.968c.228-.232.462-.366.751-.1.238.217.209.483-.091.784-.68.685-1.361,1.37-2.05,2.046a3.485,3.485,0,0,1-.453.32" transform="translate(-8.825 -2.56)" fill="#fed598"/>
        <path id="Trazado_1031408" data-name="Trazado 1031408" d="M32.543,36.461a10.277,10.277,0,0,1,1.293.559,1.046,1.046,0,0,1,.443,1.345.57.57,0,0,0,.157.706.874.874,0,0,1,.29,1.161A.912.912,0,0,1,33,39.841a.527.527,0,0,0-.565-.491,2.037,2.037,0,0,1-1.343-.511,1.113,1.113,0,0,1,.092-1.808,7.761,7.761,0,0,1,1.356-.57" transform="translate(-11.687 -13.891)" fill="#9196a3"/>
      </g>
    </g>
  </g>
</svg>
