<svg xmlns="http://www.w3.org/2000/svg" xmlns:xlink="http://www.w3.org/1999/xlink" width="110.057" height="110.057" viewBox="0 0 110.057 110.057">
  <defs>
    <filter id="Trazado_874925" x="0" y="0" width="110.057" height="110.057" filterUnits="userSpaceOnUse">
      <feOffset dy="3" input="SourceAlpha"/>
      <feGaussianBlur stdDeviation="3" result="blur"/>
      <feFlood flood-opacity="0.161"/>
      <feComposite operator="in" in2="blur"/>
      <feComposite in="SourceGraphic"/>
    </filter>
    <clipPath id="clip-path">
      <rect id="Rectángulo_415527" data-name="Rectángulo 415527" width="57" height="67" fill="none"/>
    </clipPath>
  </defs>
  <g id="Grupo_1175155" data-name="Grupo 1175155" transform="translate(9 6)">
    <g id="Grupo_1109818" data-name="Grupo 1109818" transform="translate(-0.001 0)">
      <g transform="matrix(1, 0, 0, 1, -9, -6)" filter="url(#Trazado_874925)">
        <g id="Trazado_874925-2" data-name="Trazado 874925" transform="translate(9 6)" fill="#efdb59" opacity="0.859">
          <path d="M 46.02833557128906 90.55719757080078 C 40.01638793945312 90.55719757080078 34.1850700378418 89.38008880615234 28.69636154174805 87.05855560302734 C 23.39413642883301 84.81590270996094 18.63193511962891 81.60504150390625 14.54205513000488 77.51514434814453 C 10.45216178894043 73.42526245117188 7.241295337677002 68.66306304931641 4.998642444610596 63.36083984375 C 2.677109003067017 57.87213134765625 1.500002264976501 52.04081344604492 1.500002264976501 46.02886581420898 C 1.500002264976501 40.01638412475586 2.677109003067017 34.18506622314453 4.998642444610596 28.69635963439941 C 7.241295337677002 23.39413261413574 10.45216178894043 18.63193130493164 14.54205513000488 14.54205226898193 C 18.63193511962891 10.45215892791748 23.39413642883301 7.241291999816895 28.69636154174805 4.99863862991333 C 34.1850700378418 2.67710542678833 40.01638793945312 1.499998807907104 46.02833557128906 1.499998807907104 C 52.040283203125 1.499998807907104 57.87160110473633 2.67710542678833 63.36030960083008 4.99863862991333 C 68.66253662109375 7.241291999816895 73.42473602294922 10.45215892791748 77.51461791992188 14.54205226898193 C 81.60450744628906 18.63193130493164 84.81537628173828 23.39413261413574 87.05802917480469 28.69635963439941 C 89.37956237792969 34.18506622314453 90.55667114257812 40.01638412475586 90.55667114257812 46.0283317565918 C 90.55667114257812 52.04081344604492 89.37956237792969 57.87213134765625 87.05802917480469 63.36083984375 C 84.81537628173828 68.66306304931641 81.60450744628906 73.42526245117188 77.51461791992188 77.51514434814453 C 73.42473602294922 81.60504150390625 68.66253662109375 84.81590270996094 63.36030960083008 87.05855560302734 C 57.87160110473633 89.38008880615234 52.040283203125 90.55719757080078 46.02833557128906 90.55719757080078 Z" stroke="none"/>
          <path d="M 46.02833557128906 3 C 40.21821975708008 3 34.5835075378418 4.137245178222656 29.28069305419922 6.380142211914062 C 24.15726470947266 8.547172546386719 19.55532073974609 11.65008544921875 15.60270690917969 15.60271453857422 C 11.65009307861328 19.55532836914062 8.547164916992188 24.15725708007812 6.380134582519531 29.28068542480469 C 4.137237548828125 34.58349990844727 2.999992370605469 40.21822738647461 2.999992370605469 46.02886962890625 C 2.999992370605469 51.83898544311523 4.137237548828125 57.47369766235352 6.380134582519531 62.77651214599609 C 8.547164916992188 67.89994049072266 11.65009307861328 72.50186920166016 15.60270690917969 76.45449829101562 C 19.55532073974609 80.40711212158203 24.15726470947266 83.51002502441406 29.28069305419922 85.67705535888672 C 34.5835075378418 87.91995239257812 40.21821975708008 89.05719757080078 46.02833557128906 89.05719757080078 C 51.83845138549805 89.05719757080078 57.47316360473633 87.91995239257812 62.77597808837891 85.67705535888672 C 67.89940643310547 83.51002502441406 72.50135040283203 80.40711212158203 76.45396423339844 76.45449829101562 C 80.40657806396484 72.50188446044922 83.50949096679688 67.89994049072266 85.67652130126953 62.77651214599609 C 87.91941833496094 57.47369766235352 89.05666351318359 51.83898544311523 89.05666351318359 46.02834320068359 C 89.05666351318359 40.21822738647461 87.91941833496094 34.58349990844727 85.67652130126953 29.28068542480469 C 83.50949096679688 24.15725708007812 80.40657806396484 19.55532836914062 76.45396423339844 15.60271453857422 C 72.50133514404297 11.65008544921875 67.89940643310547 8.547172546386719 62.77597808837891 6.380142211914062 C 57.47316360473633 4.137245178222656 51.83845138549805 3 46.02833557128906 3 M 46.02833557128906 0 C 71.44908142089844 0 92.05666351318359 20.60758209228516 92.05666351318359 46.02834320068359 L 92.05666351318359 46.02886962890625 C 92.05666351318359 71.44961547851562 71.44908142089844 92.05719757080078 46.02833557128906 92.05719757080078 C 20.60758972167969 92.05719757080078 -7.62939453125e-06 71.44961547851562 -7.62939453125e-06 46.02886962890625 L -7.62939453125e-06 46.02834320068359 C -7.62939453125e-06 20.60758209228516 20.60758972167969 0 46.02833557128906 0 Z" stroke="none" fill="#fff"/>
        </g>
      </g>
      <g id="Trazado_874923" data-name="Trazado 874923" transform="translate(0 0)" fill="none">
        <path d="M46.028,0A46.028,46.028,0,0,1,92.057,46.028h0A46.028,46.028,0,0,1,0,46.029H0A46.028,46.028,0,0,1,46.028,0Z" stroke="none"/>
        <path d="M 46.02833557128906 3 C 40.21821975708008 3 34.5835075378418 4.137245178222656 29.28069305419922 6.380142211914062 C 24.15726470947266 8.547172546386719 19.55532073974609 11.65008544921875 15.60270690917969 15.60271453857422 C 11.65009307861328 19.55532836914062 8.547164916992188 24.15725708007812 6.380134582519531 29.28068542480469 C 4.137237548828125 34.58349990844727 2.999992370605469 40.21822738647461 2.999992370605469 46.02886962890625 C 2.999992370605469 51.83898544311523 4.137237548828125 57.47369766235352 6.380134582519531 62.77651214599609 C 8.547164916992188 67.89994049072266 11.65009307861328 72.50186920166016 15.60270690917969 76.45449829101562 C 19.55532073974609 80.40711212158203 24.15726470947266 83.51002502441406 29.28069305419922 85.67705535888672 C 34.5835075378418 87.91995239257812 40.21821975708008 89.05719757080078 46.02833557128906 89.05719757080078 C 51.83845138549805 89.05719757080078 57.47316360473633 87.91995239257812 62.77597808837891 85.67705535888672 C 67.89940643310547 83.51002502441406 72.50135040283203 80.40711212158203 76.45396423339844 76.45449829101562 C 80.40657806396484 72.50188446044922 83.50949096679688 67.89994049072266 85.67652130126953 62.77651214599609 C 87.91941833496094 57.47369766235352 89.05666351318359 51.83898544311523 89.05666351318359 46.02834320068359 C 89.05666351318359 40.21822738647461 87.91941833496094 34.58349990844727 85.67652130126953 29.28068542480469 C 83.50949096679688 24.15725708007812 80.40657806396484 19.55532836914062 76.45396423339844 15.60271453857422 C 72.50133514404297 11.65008544921875 67.89940643310547 8.547172546386719 62.77597808837891 6.380142211914062 C 57.47316360473633 4.137245178222656 51.83845138549805 3 46.02833557128906 3 M 46.02833557128906 0 C 71.44908142089844 0 92.05666351318359 20.60758209228516 92.05666351318359 46.02834320068359 L 92.05666351318359 46.02886962890625 C 92.05666351318359 71.44961547851562 71.44908142089844 92.05719757080078 46.02833557128906 92.05719757080078 C 20.60758972167969 92.05719757080078 -7.62939453125e-06 71.44961547851562 -7.62939453125e-06 46.02886962890625 L -7.62939453125e-06 46.02834320068359 C -7.62939453125e-06 20.60758209228516 20.60758972167969 0 46.02833557128906 0 Z" stroke="none" fill="#fff"/>
      </g>
    </g>
    <g id="Grupo_1175622" data-name="Grupo 1175622" transform="translate(17.802 12.539)">
      <g id="Grupo_1175613" data-name="Grupo 1175613">
        <g id="Grupo_1175612" data-name="Grupo 1175612" clip-path="url(#clip-path)">
          <path id="Trazado_1031004" data-name="Trazado 1031004" d="M37.574,262.253V245.839a8.137,8.137,0,0,1,8.364-7.89H62.006a8.137,8.137,0,0,1,8.364,7.89v16.414H59.306l-5.452-2.6-5.216,2.6Z" transform="translate(-30.695 -196.766)" fill="#4dc5d4"/>
          <path id="Trazado_1031005" data-name="Trazado 1031005" d="M146.516,237.949h-5.493a8.137,8.137,0,0,1,8.364,7.89v16.414h5.492V245.839a8.137,8.137,0,0,0-8.364-7.89" transform="translate(-115.205 -196.766)" fill="#27bacc"/>
          <rect id="Rectángulo_415526" data-name="Rectángulo 415526" width="10.668" height="24.304" transform="translate(17.942 41.183)" fill="#fff"/>
          <path id="Trazado_1031006" data-name="Trazado 1031006" d="M103.458,210.55c-1.944,0-4.492-.83-5.454-1.99V204.7a2.327,2.327,0,0,0,2.269-2.138v-4.821H106.4v4.821a2.348,2.348,0,0,0,2.268,2.138v3.859a7.682,7.682,0,0,1-5.215,1.99" transform="translate(-80.062 -163.518)" fill="#fed5b7"/>
          <path id="Trazado_1031007" data-name="Trazado 1031007" d="M49.637,73.735a2.147,2.147,0,0,1-.462,3.776,53.85,53.85,0,0,1-20.728,3.783A53.847,53.847,0,0,1,7.72,77.511a2.147,2.147,0,0,1-.462-3.776C10.39,71.5,16.8,68.449,28.447,68.449s18.058,3.05,21.19,5.286" transform="translate(-5.17 -56.602)" fill="#e8b266"/>
          <path id="Trazado_1031008" data-name="Trazado 1031008" d="M69.4,119.621H42.039a2.267,2.267,0,0,1-2.328-2.2v-1.466a2.267,2.267,0,0,1,2.328-2.2H69.4a2.267,2.267,0,0,1,2.328,2.2v1.466a2.266,2.266,0,0,1-2.328,2.2" transform="translate(-32.441 -94.066)" fill="#febc8c"/>
          <path id="Trazado_1031009" data-name="Trazado 1031009" d="M74.143,79.114c-6.559,0-11.877-5.027-11.877-11.228V60.932a8.951,8.951,0,0,1,9.192-8.69h5.371a8.951,8.951,0,0,1,9.192,8.69v6.954c0,6.2-5.318,11.228-11.878,11.228" transform="translate(-50.866 -43.2)" fill="#fed5b7"/>
        </g>
      </g>
      <g id="Grupo_1175615" data-name="Grupo 1175615">
        <g id="Grupo_1175614" data-name="Grupo 1175614" clip-path="url(#clip-path)">
          <path id="Trazado_1031010" data-name="Trazado 1031010" d="M117.573,52.242h-5.432a8.946,8.946,0,0,1,9.132,8.688v6.953a11.382,11.382,0,0,1-9.132,10.924,12.554,12.554,0,0,0,2.746.3c6.56,0,11.878-5.027,11.878-11.229V60.932a8.951,8.951,0,0,0-9.192-8.69" transform="translate(-91.611 -43.2)" fill="#fcc8a2"/>
          <path id="Trazado_1031011" data-name="Trazado 1031011" d="M86.167,16.1S83.279,7.53,80.354,6.073s-4.3.971-6.023,1.133c-1.721-.162-3.1-2.591-6.022-1.133S62.5,16.1,62.5,16.1Z" transform="translate(-51.054 -4.638)" fill="#ffdeb0"/>
        </g>
      </g>
      <g id="Grupo_1175617" data-name="Grupo 1175617">
        <g id="Grupo_1175616" data-name="Grupo 1175616" clip-path="url(#clip-path)">
          <path id="Trazado_1031012" data-name="Trazado 1031012" d="M139.323,6.07c-2.122-1.057-3.428-.07-4.643.614,2.61,2.431,4.962,9.414,4.962,9.414h5.493s-2.888-8.57-5.813-10.028" transform="translate(-110.023 -4.636)" fill="#fcd59f"/>
          <path id="Trazado_1031013" data-name="Trazado 1031013" d="M134.562,68.53s3.265,2.424,10.519,2.424V64.989A3.091,3.091,0,0,0,141.9,62h-7.338Z" transform="translate(-109.927 -51.266)" fill="#8f5a46"/>
          <path id="Trazado_1031014" data-name="Trazado 1031014" d="M150.137,62h-5.492a3.092,3.092,0,0,1,3.181,2.993v5.436a26.925,26.925,0,0,0,5.492.529V64.989A3.091,3.091,0,0,0,150.137,62" transform="translate(-118.164 -51.266)" fill="#824d39"/>
          <path id="Trazado_1031015" data-name="Trazado 1031015" d="M62.266,70.954s12.594.072,18.91-5.87V62h-13a5.739,5.739,0,0,0-5.906,5.558Z" transform="translate(-50.866 -51.266)" fill="#8f5a46"/>
          <path id="Trazado_1031016" data-name="Trazado 1031016" d="M30.431,52.562c16.5,0,21.673,8.5,21.673,8.5-11.171-5.175-32.175-5.175-43.346,0,0,0,5.173-8.5,21.673-8.5" transform="translate(-7.155 -43.465)" fill="#fcd59f"/>
          <path id="Trazado_1031017" data-name="Trazado 1031017" d="M128.79,58.568a37.511,37.511,0,0,1,7.771,2.493s-5.172-8.5-21.672-8.5c-.953,0-1.867.03-2.747.083,8.88.541,14.022,3.641,16.649,5.923" transform="translate(-91.611 -43.465)" fill="#f7c783"/>
          <path id="Trazado_1031018" data-name="Trazado 1031018" d="M70.959,226.975,67.1,221.654l4.095-3.037,4.1,4.622Z" transform="translate(-54.814 -180.78)" fill="#73e3f0"/>
          <path id="Trazado_1031019" data-name="Trazado 1031019" d="M146.778,226.975l3.862-5.321-4.1-3.037-4.095,4.622Z" transform="translate(-116.37 -180.78)" fill="#73e3f0"/>
          <path id="Trazado_1031020" data-name="Trazado 1031020" d="M216.048,166.029h4.778a1.231,1.231,0,0,0,1.264-1.195v-8.591c0-6.867-3.47-10.724-9.337-14.77h-.029c-5.868,4.046-9.337,7.9-9.337,14.77v8.591a1.231,1.231,0,0,0,1.264,1.195Z" transform="translate(-166.151 -116.988)" fill="#cad4e6"/>
          <path id="Trazado_1031021" data-name="Trazado 1031021" d="M242.225,141.473H242.2c-.98.675-1.891,1.346-2.732,2.026,4.2,3.392,6.605,7.024,6.605,12.744v8.591a1.231,1.231,0,0,1-1.264,1.195H250.3a1.231,1.231,0,0,0,1.264-1.195v-8.591c0-6.867-3.47-10.724-9.337-14.77" transform="translate(-195.624 -116.988)" fill="#bac5d9"/>
          <rect id="Rectángulo_415529" data-name="Rectángulo 415529" width="3.845" height="10.513" transform="translate(44.65 54.974)" fill="#e8b266"/>
          <path id="Trazado_1031022" data-name="Trazado 1031022" d="M241.6,247.533H237.76v-5.258l-1.373-2.337,3.3-9.086,3.3,9.086-1.373,2.337Z" transform="translate(-193.11 -190.897)" fill="#6d788a"/>
          <path id="Trazado_1031023" data-name="Trazado 1031023" d="M65.12,292.539a1,1,0,0,0-1.03.974V307.4a1.032,1.032,0,0,0,2.06,0V293.513a1,1,0,0,0-1.031-.974" transform="translate(-52.357 -241.908)" fill="#060606"/>
          <path id="Trazado_1031024" data-name="Trazado 1031024" d="M179.971,292.539a1,1,0,0,0-1.03.974V307.4a1.031,1.031,0,0,0,2.06,0V293.513a1,1,0,0,0-1.03-.974" transform="translate(-146.181 -241.908)" fill="#060606"/>
        </g>
      </g>
      <g id="Grupo_1175619" data-name="Grupo 1175619">
        <g id="Grupo_1175618" data-name="Grupo 1175618" clip-path="url(#clip-path)">
          <path id="Trazado_1031025" data-name="Trazado 1031025" d="M113.338,160.061a.936.936,0,0,0,0-1.376,1.072,1.072,0,0,0-1.456,0,3.172,3.172,0,0,1-4.287,0,1.072,1.072,0,0,0-1.456,0,.936.936,0,0,0,0,1.376,5.321,5.321,0,0,0,7.193,0" transform="translate(-86.464 -130.983)" fill="#060606"/>
          <path id="Trazado_1031026" data-name="Trazado 1031026" d="M56.617,42.081a1,1,0,0,0,1.03-.974V39.255a15.311,15.311,0,0,0-2.635-8.973A26.536,26.536,0,0,0,47.886,23.7a1.124,1.124,0,0,0-1.242,0c-6.026,4.156-9.76,8.208-9.76,15.557v2.253a9.5,9.5,0,0,0-.922-.468.947.947,0,0,0-.378-.933l-4.095-3.037a1.072,1.072,0,0,0-1.425.141L28.121,39.4c-.359-.866-.07-2.239-.07-3.147a12.45,12.45,0,0,0,8.665-9.729h.919a3.273,3.273,0,0,0,3.358-3.174V23.27A43.13,43.13,0,0,0,45.1,21.8a3.153,3.153,0,0,0,1.387-4.741c-2.162-3.355-6.321-5.658-10.1-6.989-.661-1.859-3.047-8.061-5.929-9.5a5.062,5.062,0,0,0-5.331.456,1.512,1.512,0,0,1-2.342,0A5.063,5.063,0,0,0,17.452.572c-2.881,1.436-5.268,7.638-5.929,9.5C7.731,11.4,3.58,13.7,1.417,17.065A3.152,3.152,0,0,0,2.811,21.8a43.063,43.063,0,0,0,4.108,1.473v.083a3.274,3.274,0,0,0,3.358,3.174h.918a12.452,12.452,0,0,0,8.665,9.729c0,.938.289,2.26-.069,3.149l-1.944-2.195a1.071,1.071,0,0,0-1.425-.141l-4.095,3.037a.945.945,0,0,0-.378.93,8.8,8.8,0,0,0-5.422,8.034V65.487a1.031,1.031,0,0,0,2.06,0V49.072a6.884,6.884,0,0,1,4.458-6.364l2.93,4.037a1.074,1.074,0,0,0,1.616.105V65.487a1.031,1.031,0,0,0,2.06,0V46.981a10.858,10.858,0,0,0,4.424,1.024A9.831,9.831,0,0,0,28.26,47V65.487a1.031,1.031,0,0,0,2.06,0V46.851a1.074,1.074,0,0,0,1.616-.105l2.929-4.035a7.46,7.46,0,0,1,2.02,1.214v3.921a2.276,2.276,0,0,0,2.44,2.168V65.487a1.031,1.031,0,0,0,2.06,0V50.014h1.966l.95,1.616V65.487a1.031,1.031,0,0,0,2.06,0V57.609h1.785v7.878a1.031,1.031,0,0,0,2.06,0V51.63l.95-1.616h4.2a2.236,2.236,0,0,0,2.293-2.168v-1.81a1.034,1.034,0,0,0-2.06,0v1.81a.228.228,0,0,1-.234.221H51.282l-3.057-8.429a1.058,1.058,0,0,0-1.948,0L43.22,48.067H39.177a.228.228,0,0,1-.234-.221V39.255c0-6.321,3.041-9.835,8.322-13.57,5.281,3.735,8.321,7.249,8.321,13.57v1.852a1,1,0,0,0,1.03.974M34.8,15.523V18.7A21.259,21.259,0,0,1,27.6,17.324a17.968,17.968,0,0,0,3.514-2.283c1.263.128,2.5.289,3.694.482m4.129,7.831a1.265,1.265,0,0,1-1.3,1.227h-.771v-3.92h.771a1.265,1.265,0,0,1,1.3,1.227Zm6.1-4.322a1.218,1.218,0,0,1-.769.986c-1.048.44-2.17.85-3.343,1.224a3.322,3.322,0,0,0-3.288-2.528h-.771v-2.82a38.187,38.187,0,0,1,8.05,2.458,1.16,1.16,0,0,1,.122.68M18.413,2.3c1.411-.7,2.2-.244,3.293.392a3.708,3.708,0,0,0,4.5,0C27.3,2.052,28.088,1.593,29.5,2.3c1.513.754,3.284,4.195,4.418,7.022a39.387,39.387,0,0,0-9.961-1.193,39.389,39.389,0,0,0-9.961,1.193c1.133-2.826,2.9-6.267,4.418-7.022M7.617,14.084c5.316-3.317,11.819-4.014,16.338-4.014,8.188,0,13.4,2.183,16.338,4.014.551.344,1.044.689,1.484,1.024a65.423,65.423,0,0,0-20.666-2.313.974.974,0,1,0,.082,1.946c2.32-.087,4.623-.064,6.864.061-5.085,3.157-12.3,3.766-14.95,3.884V15.51c.868-.139,1.83-.262,2.74-.366a.975.975,0,1,0-.249-1.933A53.763,53.763,0,0,0,6.141,15.1c.438-.333.928-.676,1.476-1.018M2.876,19.033A1.146,1.146,0,0,1,3,18.353a38.1,38.1,0,0,1,8.063-2.463c-.06.937-.014,1.886-.014,2.824h-.772a3.324,3.324,0,0,0-3.288,2.528c-1.172-.373-2.292-.783-3.342-1.224a1.218,1.218,0,0,1-.77-.986m6.1,4.322V21.888a1.265,1.265,0,0,1,1.3-1.227h.772v3.92h-.772a1.265,1.265,0,0,1-1.3-1.227m4.129,1.33V20.638a45.286,45.286,0,0,0,6-.654,34.789,34.789,0,0,0,6.1-1.621c1.16.668,4.264,2.113,9.6,2.281v4.042c0,5.655-4.866,10.255-10.848,10.255s-10.847-4.6-10.847-10.255M17,44.721l-2.645-3.645,2.55-1.891,2.821,3.184Zm2.9.135,1.945-1.678a.936.936,0,0,0,.1-1.344l-.77-.87a2.821,2.821,0,0,0,.747-1.92v-2.31a13.7,13.7,0,0,0,4.071,0v2.31a2.809,2.809,0,0,0,.752,1.915l-.774.874a.936.936,0,0,0,.1,1.344l1.947,1.68a7.522,7.522,0,0,1-3.936,1.2,8.242,8.242,0,0,1-4.172-1.2m11-.135-2.726-2.352L31,39.185l2.55,1.891Zm16.344-1.765,2.173,5.991L48.273,50.9a.939.939,0,0,0-.129.473v4.284H46.359V51.377a.931.931,0,0,0-.129-.473l-1.151-1.958Z" transform="translate(-0.679 0)" fill="#060606"/>
        </g>
      </g>
      <g id="Grupo_1175621" data-name="Grupo 1175621">
        <g id="Grupo_1175620" data-name="Grupo 1175620" clip-path="url(#clip-path)">
          <path id="Trazado_1031027" data-name="Trazado 1031027" d="M267.218,183.758a.942.942,0,0,0-.272,1.353,9.46,9.46,0,0,1,1.771,5.958,1.032,1.032,0,0,0,2.06,0,11.346,11.346,0,0,0-2.128-7.054,1.067,1.067,0,0,0-1.431-.257" transform="translate(-217.929 -151.814)" fill="#060606"/>
        </g>
      </g>
    </g>
  </g>
</svg>
