<svg xmlns="http://www.w3.org/2000/svg" xmlns:xlink="http://www.w3.org/1999/xlink" width="110.057" height="110.057" viewBox="0 0 110.057 110.057">
  <defs>
    <filter id="Trazado_874925" x="0" y="0" width="110.057" height="110.057" filterUnits="userSpaceOnUse">
      <feOffset dy="3" input="SourceAlpha"/>
      <feGaussianBlur stdDeviation="3" result="blur"/>
      <feFlood flood-opacity="0.161"/>
      <feComposite operator="in" in2="blur"/>
      <feComposite in="SourceGraphic"/>
    </filter>
    <clipPath id="clip-path">
      <rect id="Rectángulo_415589" data-name="Rectángulo 415589" width="60.724" height="59.274" fill="none"/>
    </clipPath>
  </defs>
  <g id="Grupo_1175156" data-name="Grupo 1175156" transform="translate(9 6)">
    <g id="Grupo_1109819" data-name="Grupo 1109819" transform="translate(0 0)">
      <g transform="matrix(1, 0, 0, 1, -9, -6)" filter="url(#Trazado_874925)">
        <g id="Trazado_874925-2" data-name="Trazado 874925" transform="translate(9 6)" fill="#efdb59" opacity="0.859">
          <path d="M 46.02833557128906 90.55719757080078 C 40.01638793945312 90.55719757080078 34.1850700378418 89.38008880615234 28.69636154174805 87.05855560302734 C 23.39413642883301 84.81590270996094 18.63193511962891 81.60504150390625 14.54205513000488 77.51514434814453 C 10.45216178894043 73.42526245117188 7.241295337677002 68.66306304931641 4.998642444610596 63.36083984375 C 2.677109003067017 57.87213134765625 1.500002264976501 52.04081344604492 1.500002264976501 46.02886581420898 C 1.500002264976501 40.01638412475586 2.677109003067017 34.18506622314453 4.998642444610596 28.69635963439941 C 7.241295337677002 23.39413261413574 10.45216178894043 18.63193130493164 14.54205513000488 14.54205226898193 C 18.63193511962891 10.45215892791748 23.39413642883301 7.241291999816895 28.69636154174805 4.99863862991333 C 34.1850700378418 2.67710542678833 40.01638793945312 1.499998807907104 46.02833557128906 1.499998807907104 C 52.040283203125 1.499998807907104 57.87160110473633 2.67710542678833 63.36030960083008 4.99863862991333 C 68.66253662109375 7.241291999816895 73.42473602294922 10.45215892791748 77.51461791992188 14.54205226898193 C 81.60450744628906 18.63193130493164 84.81537628173828 23.39413261413574 87.05802917480469 28.69635963439941 C 89.37956237792969 34.18506622314453 90.55667114257812 40.01638412475586 90.55667114257812 46.0283317565918 C 90.55667114257812 52.04081344604492 89.37956237792969 57.87213134765625 87.05802917480469 63.36083984375 C 84.81537628173828 68.66306304931641 81.60450744628906 73.42526245117188 77.51461791992188 77.51514434814453 C 73.42473602294922 81.60504150390625 68.66253662109375 84.81590270996094 63.36030960083008 87.05855560302734 C 57.87160110473633 89.38008880615234 52.040283203125 90.55719757080078 46.02833557128906 90.55719757080078 Z" stroke="none"/>
          <path d="M 46.02833557128906 3 C 40.21821975708008 3 34.5835075378418 4.137245178222656 29.28069305419922 6.380142211914062 C 24.15726470947266 8.547172546386719 19.55532073974609 11.65008544921875 15.60270690917969 15.60271453857422 C 11.65009307861328 19.55532836914062 8.547164916992188 24.15725708007812 6.380134582519531 29.28068542480469 C 4.137237548828125 34.58349990844727 2.999992370605469 40.21822738647461 2.999992370605469 46.02886962890625 C 2.999992370605469 51.83898544311523 4.137237548828125 57.47369766235352 6.380134582519531 62.77651214599609 C 8.547164916992188 67.89994049072266 11.65009307861328 72.50186920166016 15.60270690917969 76.45449829101562 C 19.55532073974609 80.40711212158203 24.15726470947266 83.51002502441406 29.28069305419922 85.67705535888672 C 34.5835075378418 87.91995239257812 40.21821975708008 89.05719757080078 46.02833557128906 89.05719757080078 C 51.83845138549805 89.05719757080078 57.47316360473633 87.91995239257812 62.77597808837891 85.67705535888672 C 67.89940643310547 83.51002502441406 72.50135040283203 80.40711212158203 76.45396423339844 76.45449829101562 C 80.40657806396484 72.50188446044922 83.50949096679688 67.89994049072266 85.67652130126953 62.77651214599609 C 87.91941833496094 57.47369766235352 89.05666351318359 51.83898544311523 89.05666351318359 46.02834320068359 C 89.05666351318359 40.21822738647461 87.91941833496094 34.58349990844727 85.67652130126953 29.28068542480469 C 83.50949096679688 24.15725708007812 80.40657806396484 19.55532836914062 76.45396423339844 15.60271453857422 C 72.50133514404297 11.65008544921875 67.89940643310547 8.547172546386719 62.77597808837891 6.380142211914062 C 57.47316360473633 4.137245178222656 51.83845138549805 3 46.02833557128906 3 M 46.02833557128906 0 C 71.44908142089844 0 92.05666351318359 20.60758209228516 92.05666351318359 46.02834320068359 L 92.05666351318359 46.02886962890625 C 92.05666351318359 71.44961547851562 71.44908142089844 92.05719757080078 46.02833557128906 92.05719757080078 C 20.60758972167969 92.05719757080078 -7.62939453125e-06 71.44961547851562 -7.62939453125e-06 46.02886962890625 L -7.62939453125e-06 46.02834320068359 C -7.62939453125e-06 20.60758209228516 20.60758972167969 0 46.02833557128906 0 Z" stroke="none" fill="#fff"/>
        </g>
      </g>
      <g id="Trazado_874923" data-name="Trazado 874923" transform="translate(0 0)" fill="none">
        <path d="M46.028,0A46.028,46.028,0,0,1,92.057,46.028h0A46.028,46.028,0,0,1,0,46.029H0A46.028,46.028,0,0,1,46.028,0Z" stroke="none"/>
        <path d="M 46.02833557128906 3 C 40.21821975708008 3 34.5835075378418 4.137245178222656 29.28069305419922 6.380142211914062 C 24.15726470947266 8.547172546386719 19.55532073974609 11.65008544921875 15.60270690917969 15.60271453857422 C 11.65009307861328 19.55532836914062 8.547164916992188 24.15725708007812 6.380134582519531 29.28068542480469 C 4.137237548828125 34.58349990844727 2.999992370605469 40.21822738647461 2.999992370605469 46.02886962890625 C 2.999992370605469 51.83898544311523 4.137237548828125 57.47369766235352 6.380134582519531 62.77651214599609 C 8.547164916992188 67.89994049072266 11.65009307861328 72.50186920166016 15.60270690917969 76.45449829101562 C 19.55532073974609 80.40711212158203 24.15726470947266 83.51002502441406 29.28069305419922 85.67705535888672 C 34.5835075378418 87.91995239257812 40.21821975708008 89.05719757080078 46.02833557128906 89.05719757080078 C 51.83845138549805 89.05719757080078 57.47316360473633 87.91995239257812 62.77597808837891 85.67705535888672 C 67.89940643310547 83.51002502441406 72.50135040283203 80.40711212158203 76.45396423339844 76.45449829101562 C 80.40657806396484 72.50188446044922 83.50949096679688 67.89994049072266 85.67652130126953 62.77651214599609 C 87.91941833496094 57.47369766235352 89.05666351318359 51.83898544311523 89.05666351318359 46.02834320068359 C 89.05666351318359 40.21822738647461 87.91941833496094 34.58349990844727 85.67652130126953 29.28068542480469 C 83.50949096679688 24.15725708007812 80.40657806396484 19.55532836914062 76.45396423339844 15.60271453857422 C 72.50133514404297 11.65008544921875 67.89940643310547 8.547172546386719 62.77597808837891 6.380142211914062 C 57.47316360473633 4.137245178222656 51.83845138549805 3 46.02833557128906 3 M 46.02833557128906 0 C 71.44908142089844 0 92.05666351318359 20.60758209228516 92.05666351318359 46.02834320068359 L 92.05666351318359 46.02886962890625 C 92.05666351318359 71.44961547851562 71.44908142089844 92.05719757080078 46.02833557128906 92.05719757080078 C 20.60758972167969 92.05719757080078 -7.62939453125e-06 71.44961547851562 -7.62939453125e-06 46.02886962890625 L -7.62939453125e-06 46.02834320068359 C -7.62939453125e-06 20.60758209228516 20.60758972167969 0 46.02833557128906 0 Z" stroke="none" fill="#fff"/>
      </g>
    </g>
    <g id="Grupo_1175697" data-name="Grupo 1175697" transform="translate(15.666 16.392)">
      <g id="Grupo_1175696" data-name="Grupo 1175696" transform="translate(3 0)" clip-path="url(#clip-path)">
        <path id="Trazado_1031251" data-name="Trazado 1031251" d="M0,52.558a6.337,6.337,0,0,0,6.576,6.716q15.934,0,31.867,0a6.341,6.341,0,0,0,6.584-6.711q0-5.086,0-10.17v-.671c.377-.147.686-.276,1-.39.11-.037.275-.088.345-.037.66.487,1.531.641,2,1.453.313.548.827.972,1.191,1.5a2.557,2.557,0,0,1,.232.843,3.937,3.937,0,0,0,.374,1.425c1.513,1.925,3.086,3.8,4.665,5.674a2.161,2.161,0,0,0,3.2.252q.911-.748,1.794-1.526a2.266,2.266,0,0,0,.281-3.353c-1.5-1.829-3.011-3.644-4.515-5.466a1.839,1.839,0,0,0-1.538-.741.719.719,0,0,1-.531-.208c-.952-1.251-2.349-2.228-2.4-4.137-.034.067-.009.006.024-.047a11.8,11.8,0,0,0-5.731-17.43c-.383-.143-.394-.349-.394-.666,0-2.767.032-5.535-.009-8.3a6.179,6.179,0,0,0-5.406-6.129c-2.006-.191-4.041-.088-6.062-.116-.221,0-.441,0-.657,0-.041-1.428-.171-1.559-1.47-1.559h-3.9c-2.3-3.675-7.439-3.672-10.039,0-1.275,0-2.561.034-3.845-.009-1.233-.043-1.57.273-1.492,1.447,0,.029-.044.064-.087.121-1.792,0-3.6,0-5.414,0A6.362,6.362,0,0,0,0,11.044" transform="translate(0 0)" fill="#fefefe"/>
        <path id="Trazado_1031252" data-name="Trazado 1031252" d="M0,11.043a6.364,6.364,0,0,1,6.638-6.73h5.414c.043-.056.09-.088.087-.12-.078-1.175.259-1.49,1.492-1.447,1.284.043,2.57.009,3.845.009,2.6-3.672,7.74-3.675,10.039,0h3.9c1.3,0,1.428.13,1.469,1.557.217,0,.438,0,.657,0,2.023.029,4.056-.075,6.062.118a6.177,6.177,0,0,1,5.406,6.129c.043,2.767.014,5.536.009,8.3,0,.315.011.522.394.664a11.8,11.8,0,0,1,5.731,17.43c-.034.053-.058.113-.024.047.055,1.91,1.452,2.886,2.4,4.137a.721.721,0,0,0,.531.208,1.843,1.843,0,0,1,1.538.741c1.5,1.823,3.019,3.637,4.515,5.466a2.266,2.266,0,0,1-.281,3.353q-.881.78-1.794,1.526a2.161,2.161,0,0,1-3.2-.252c-1.579-1.871-3.151-3.748-4.665-5.674a3.937,3.937,0,0,1-.374-1.425,2.557,2.557,0,0,0-.232-.843c-.365-.523-.879-.947-1.191-1.5-.465-.812-1.336-.966-2-1.452-.072-.053-.236,0-.345.037-.317.112-.627.241-1,.388v.671q0,5.086,0,10.17a6.341,6.341,0,0,1-6.584,6.711q-15.932,0-31.867,0A6.337,6.337,0,0,1,0,52.556" transform="translate(0 0)" fill="#030404"/>
        <path id="Trazado_1031253" data-name="Trazado 1031253" d="M40.392,21.721a5.865,5.865,0,0,0-.073-.7,10.087,10.087,0,0,0-8.4-7.784,9.818,9.818,0,0,0-10.255,5.777,9.717,9.717,0,0,0,.044,8.532,9.809,9.809,0,0,0,12.964,4.921c1.115-.509,1.114-.509,1.991.343.024.025.076.02.168.04l2.065-1.782c-.683-1.155-.676-1.149.037-2.293a9.947,9.947,0,0,0,1.464-7.058" transform="translate(10.873 7.278)" fill="#030404"/>
        <path id="Trazado_1031254" data-name="Trazado 1031254" d="M4.475,4.045A4.67,4.67,0,0,0,1.069,8.8q0,20.856,0,41.714A4.658,4.658,0,0,0,5.93,55.5q16,.014,32,0a4.671,4.671,0,0,0,4.906-5.005q.007-4.923,0-9.849V40l-1.8.185v.737q0,4.732,0,9.466a2.928,2.928,0,0,1-3.2,3.277q-15.872,0-31.746,0c-2.1,0-3.229-1.155-3.229-3.307q0-20.663-.011-41.327A3.189,3.189,0,0,1,4.628,5.891c.6-.053,1.205-.144,1.809-.151,1.7-.022,3.4-.008,5.128-.008V3.879a1.877,1.877,0,0,0-.247-.034c-1.977,0-3.955-.008-5.932.009a4.759,4.759,0,0,0-.911.191" transform="translate(0.56 2.123)" fill="#030404"/>
        <path id="Trazado_1031255" data-name="Trazado 1031255" d="M28.881,31.036c-.183-.981-.445-1.956-.537-2.947a11.5,11.5,0,0,1,6.289-11.333,38.32,38.32,0,0,1,3.6-1.344c0-2.585,0-5.265,0-7.943a1.235,1.235,0,0,0-1.367-1.38c-1.686-.008-3.37,0-5.055,0h-.688c0,.275.015.467,0,.658a.847.847,0,0,1-.937.89q-9.415-.007-18.831,0a.847.847,0,0,1-.926-.9c-.018-.2,0-.41,0-.647-2.026,0-3.983-.028-5.938.029-.32.008-.63.388-.944.6a3.5,3.5,0,0,0-.212.835Q3.308,28.43,3.315,49.31c0,1,.442,1.456,1.426,1.456q16.023,0,32.05,0c.987,0,1.432-.45,1.434-1.448q.007-5.084,0-10.167c0-.1-.009-.21-.015-.329-.386-.084-.755-.149-1.117-.244a11.561,11.561,0,0,1-8.214-7.542" transform="translate(1.741 3.359)" fill="#030404"/>
        <path id="Trazado_1031256" data-name="Trazado 1031256" d="M26.462,3.823c-1.4,0-2.767-.006-4.131.006a1.079,1.079,0,0,1-1.046-.741A3.237,3.237,0,0,0,20.192,1.76a4.655,4.655,0,0,0-4.764-.079,2.261,2.261,0,0,0-1.086,1.095c-.291.969-.882,1.11-1.724,1.062-.882-.053-1.769-.014-2.654-.014h-.9v4.9h17.4Z" transform="translate(4.76 0.588)" fill="#030404"/>
        <path id="Trazado_1031257" data-name="Trazado 1031257" d="M32.014,16.834a1.072,1.072,0,0,0,.044-.179c0-2.7.024-5.407,0-8.11a4.655,4.655,0,0,0-4.576-4.69c-1.834-.033-3.667-.009-5.5-.008a3.922,3.922,0,0,0-.4.042V5.633a.669.669,0,0,0,.149.047c1.812,0,3.624,0,5.438.011a2.914,2.914,0,0,1,3.1,3.186q.007,3.572,0,7.143v.66c.642.056,1.185.106,1.75.155" transform="translate(11.335 2.12)" fill="#030404"/>
        <path id="Trazado_1031258" data-name="Trazado 1031258" d="M33.636,30.1c1.6,1.939,3.15,3.807,4.7,5.676a.645.645,0,0,0,1.04.079c.549-.469,1.1-.933,1.646-1.405.511-.442.537-.709.1-1.242q-2.151-2.611-4.314-5.213a3.578,3.578,0,0,0-.339-.31c-.943.806-1.858,1.588-2.828,2.416" transform="translate(17.672 15.293)" fill="#030404"/>
        <path id="Trazado_1031259" data-name="Trazado 1031259" d="M35.478,28.1,33.5,25.737c-.468.4-.88.753-1.329,1.135.676.81,1.319,1.582,1.977,2.372.471-.407.885-.761,1.327-1.143" transform="translate(16.904 14.219)" fill="#030404"/>
        <path id="Trazado_1031260" data-name="Trazado 1031260" d="M28.882,30.811a11.56,11.56,0,0,0,8.213,7.54c.363.1.732.161,1.118.245,0,.12.015.224.015.329q0,5.084,0,10.167c0,1-.447,1.447-1.434,1.448q-16.026,0-32.051,0c-.982,0-1.425-.452-1.425-1.456q0-20.882.008-41.762a3.416,3.416,0,0,1,.214-.835c.2.772.4,1.543.6,2.316A28.521,28.521,0,0,0,8.98,19.223c1.226,1.618,2.685,3.052,4.056,4.555a2.417,2.417,0,0,0,.645.36A10.136,10.136,0,0,0,15.2,28.574a14.94,14.94,0,0,0,4.3,4.282.942.942,0,0,1,.485.935c-.038.576-.009,1.155-.008,1.734a.786.786,0,0,0,.775.9c.487.036.8-.323.818-.919.015-.641-.017-1.285.018-1.927a.9.9,0,0,1,.279-.568c1.054-.913,2.126-1.8,3.194-2.7.775.155,1.547.343,2.329.456a12.616,12.616,0,0,0,1.5.04M22.341,44.592h-8.22c-1.1,0-2.192,0-3.287,0a.742.742,0,0,0-.818.784.767.767,0,0,0,.767.843,3.905,3.905,0,0,0,.5.011q11.065,0,22.13,0a1.435,1.435,0,0,0,.68-.065,1.2,1.2,0,0,0,.552-.615.865.865,0,0,0-.239-.73,1.356,1.356,0,0,0-.816-.22c-3.751-.012-7.5-.008-11.254-.008m.014-3.849q5.533,0,11.067,0a3.139,3.139,0,0,0,.567-.012.821.821,0,0,0,.046-1.615,2.012,2.012,0,0,0-.5-.026q-11.193,0-22.385,0c-.188,0-.445-.045-.551.057-.235.228-.552.545-.54.81s.358.55.613.756c.119.095.368.03.557.03q5.565,0,11.129,0M7.766,39.089a.835.835,0,0,0-.912.841.821.821,0,0,0,.93.815.855.855,0,0,0,.926-.835.865.865,0,0,0-.944-.821m0,5.5c-.574,0-.918.312-.914.82a.837.837,0,0,0,.93.82.84.84,0,0,0,.921-.835.829.829,0,0,0-.938-.8" transform="translate(1.742 3.584)" fill="#e5e5e5"/>
        <path id="Trazado_1031261" data-name="Trazado 1031261" d="M13.6,24.363A2.353,2.353,0,0,1,12.96,24c-1.371-1.5-2.831-2.937-4.058-4.555A28.475,28.475,0,0,1,4.059,9.031c-.2-.775-.4-1.546-.6-2.318.314-.208.624-.588.943-.6,1.956-.056,3.913-.028,5.938-.028,0,.238-.014.444,0,.647a.847.847,0,0,0,.927.9q9.415-.007,18.831,0a.847.847,0,0,0,.935-.89c.017-.191,0-.385,0-.658h.686c1.686,0,3.37,0,5.055,0a1.236,1.236,0,0,1,1.368,1.379c0,2.68,0,5.359,0,7.944a38.321,38.321,0,0,0-3.6,1.344,11.5,11.5,0,0,0-6.289,11.333c.093.99.354,1.965.537,2.947a12.311,12.311,0,0,1-1.5-.04c-.781-.113-1.553-.3-2.329-.456a2.948,2.948,0,0,1,.206-.317,10.2,10.2,0,0,0,1.954-10.461,27.536,27.536,0,0,0-5.821-9.352c-.435-.5-.885-.466-1.329.092-1.019,1.279-2.071,2.538-3,3.886-2.055,2.989-3.543,6.2-3.386,9.976" transform="translate(1.818 3.359)" fill="#fdfdfd"/>
        <path id="Trazado_1031262" data-name="Trazado 1031262" d="M4.628,5.818A3.193,3.193,0,0,0,2.855,8.957q.025,20.663.011,41.327c0,2.152,1.129,3.308,3.229,3.308H37.843a2.929,2.929,0,0,0,3.2-3.28q0-4.73,0-9.462v-.737l1.8-.185v.643q0,4.923,0,9.849a4.671,4.671,0,0,1-4.906,5.005q-16,.012-32,0a4.656,4.656,0,0,1-4.861-4.982q0-20.856,0-41.714A4.667,4.667,0,0,1,4.475,3.974q.078.922.153,1.844" transform="translate(0.56 2.195)" fill="#6cb1e2"/>
        <path id="Trazado_1031263" data-name="Trazado 1031263" d="M26.462,3.823v4.9H9.06v-4.9h.9c.885,0,1.772-.039,2.654.014.842.048,1.432-.093,1.724-1.062A2.261,2.261,0,0,1,15.428,1.68a4.655,4.655,0,0,1,4.764.079,3.237,3.237,0,0,1,1.092,1.329,1.079,1.079,0,0,0,1.046.741c1.364-.012,2.727-.006,4.131-.006" transform="translate(4.76 0.588)" fill="#5aa0d7"/>
        <path id="Trazado_1031264" data-name="Trazado 1031264" d="M21.7,27.547a9.713,9.713,0,0,1-.044-8.531,9.814,9.814,0,0,1,10.255-5.775,10.081,10.081,0,0,1,8.4,7.784,5.805,5.805,0,0,1,.073.7q-.7.456-1.4.911a8.341,8.341,0,0,0-9.9-7.606,8.451,8.451,0,0,0-6.591,7.553,9.935,9.935,0,0,0,1.036,4.946l-1.826.022" transform="translate(10.873 7.278)" fill="#fac045"/>
        <path id="Trazado_1031265" data-name="Trazado 1031265" d="M21.356,24.506l1.826-.022c.122.172.247.343.366.519a8.167,8.167,0,0,0,11.665,2.06,8.368,8.368,0,0,0,3.429-7.472q.7-.454,1.4-.911a9.947,9.947,0,0,1-1.464,7.058c-.712,1.144-.72,1.138-.037,2.291l-2.065,1.784c-.09-.02-.143-.016-.168-.04-.876-.854-.876-.854-1.989-.342a9.812,9.812,0,0,1-12.966-4.925" transform="translate(11.22 10.32)" fill="#eca623"/>
        <path id="Trazado_1031266" data-name="Trazado 1031266" d="M32.014,16.834c-.564-.05-1.107-.1-1.75-.155v-.66q0-3.57,0-7.143a2.914,2.914,0,0,0-3.1-3.186c-1.814-.012-3.626-.006-5.438-.011a.669.669,0,0,1-.149-.047V3.889a3.922,3.922,0,0,1,.4-.042c1.835,0,3.669-.025,5.5.008a4.655,4.655,0,0,1,4.576,4.69c.027,2.7,0,5.406,0,8.11a1.072,1.072,0,0,1-.044.179" transform="translate(11.335 2.12)" fill="#8bcafc"/>
        <path id="Trazado_1031267" data-name="Trazado 1031267" d="M33.636,30.1c.97-.827,1.885-1.61,2.828-2.416a3.578,3.578,0,0,1,.339.31q2.162,2.6,4.314,5.213c.438.533.412.8-.1,1.242-.545.472-1.1.936-1.646,1.405a.645.645,0,0,1-1.04-.079c-1.545-1.869-3.092-3.737-4.7-5.676" transform="translate(17.672 15.293)" fill="#eca623"/>
        <path id="Trazado_1031268" data-name="Trazado 1031268" d="M3.454,5.891Q3.378,4.969,3.3,4.047a4.433,4.433,0,0,1,.911-.193c1.977-.019,3.955-.011,5.932-.009a1.918,1.918,0,0,1,.249.033V5.731c-1.731,0-3.431-.012-5.13.008-.6.008-1.207.1-1.809.152" transform="translate(1.734 2.123)" fill="#8bcafc"/>
        <path id="Trazado_1031269" data-name="Trazado 1031269" d="M35.478,28.1c-.442.382-.856.736-1.327,1.143-.657-.79-1.3-1.562-1.977-2.372.448-.382.86-.734,1.329-1.135L35.478,28.1" transform="translate(16.904 14.219)" fill="#eca623"/>
        <path id="Trazado_1031270" data-name="Trazado 1031270" d="M10.115,22.948c-.156-3.777,1.333-6.988,3.386-9.976.926-1.348,1.978-2.605,3-3.884.445-.559.894-.593,1.329-.095a27.623,27.623,0,0,1,5.822,9.352,10.2,10.2,0,0,1-1.956,10.464,2.481,2.481,0,0,0-.2.317c-1.068.894-2.14,1.782-3.194,2.7a.9.9,0,0,0-.279.568c-.035.641,0,1.284-.018,1.927-.014.6-.331.955-.818.919a.787.787,0,0,1-.775-.9c0-.578-.031-1.158.008-1.734a.939.939,0,0,0-.485-.933,14.973,14.973,0,0,1-4.3-4.28,10.142,10.142,0,0,1-1.518-4.437m2.3,2.059a10.707,10.707,0,0,0,3.983,4.98V27.11a1.312,1.312,0,0,0-.5-1.341c-.859-.821-1.679-1.684-2.506-2.54-.465-.48-.912-.98-1.367-1.472l-.16.113a6.5,6.5,0,0,0,.548,3.136m5.6,2.956v2.09c.664-.6,1.2-1.082,1.73-1.563,1.9-1.75,3.113-4.774,2.7-6.711-1.2,1.22-2.314,2.476-3.557,3.582a2.557,2.557,0,0,0-.873,2.6m-1.6-4.047c0-1.273,0-2.42,0-3.566a.444.444,0,0,0-.122-.284c-1.034-1.057-2.075-2.107-3.2-3.245-.3.868-.593,1.618-.805,2.392a.943.943,0,0,0,.2.756c1.138,1.206,2.309,2.377,3.472,3.557.111.113.241.2.464.39m4.906-7.14c-.514.534-.9.928-1.278,1.327-.674.706-1.606,1.3-1.946,2.149a8.477,8.477,0,0,0-.1,2.923c0,.214,0,.427,0,.8.258-.248.366-.345.468-.447,1.207-1.23,2.416-2.453,3.612-3.692A.548.548,0,0,0,22.2,19.4c-.258-.827-.548-1.647-.88-2.622m-4.942-4.883c-.044-.026-.09-.051-.136-.078-.708,1.059-1.42,2.113-2.114,3.178-.076.118-.116.382-.047.455.718.762,1.463,1.5,2.3,2.347Zm1.789-.085-.139.085v5.935c.819-.835,1.562-1.579,2.28-2.347a.482.482,0,0,0,0-.447c-.7-1.084-1.423-2.153-2.14-3.226" transform="translate(5.308 4.775)" fill="#020202"/>
        <path id="Trazado_1031271" data-name="Trazado 1031271" d="M20.033,31.032c3.751,0,7.5,0,11.254.009a1.335,1.335,0,0,1,.816.22.861.861,0,0,1,.239.728,1.189,1.189,0,0,1-.552.615,1.434,1.434,0,0,1-.68.067q-11.065,0-22.13,0a3.9,3.9,0,0,1-.5-.011.767.767,0,0,1-.767-.843.741.741,0,0,1,.818-.782c1.1-.009,2.192,0,3.287,0h8.22" transform="translate(4.049 17.144)" fill="#080808"/>
        <path id="Trazado_1031272" data-name="Trazado 1031272" d="M20.033,29.146H8.9c-.189,0-.438.065-.557-.031-.255-.2-.6-.489-.613-.755s.305-.582.54-.81c.105-.1.363-.057.551-.057q11.193,0,22.385,0a2.012,2.012,0,0,1,.5.026.783.783,0,0,1,.65.829.774.774,0,0,1-.7.786,3.006,3.006,0,0,1-.567.014H20.033" transform="translate(4.063 15.184)" fill="#030404"/>
        <path id="Trazado_1031273" data-name="Trazado 1031273" d="M6.547,27.487a.865.865,0,0,1,.944.821.853.853,0,0,1-.926.835.82.82,0,0,1-.93-.815.835.835,0,0,1,.912-.841" transform="translate(2.96 15.186)" fill="#080808"/>
        <path id="Trazado_1031274" data-name="Trazado 1031274" d="M6.549,31.032a.829.829,0,0,1,.938.8.84.84,0,0,1-.921.835.837.837,0,0,1-.93-.82c0-.508.34-.817.914-.82" transform="translate(2.961 17.145)" fill="#080808"/>
        <path id="Trazado_1031275" data-name="Trazado 1031275" d="M38.374,22.027A8.36,8.36,0,0,1,34.945,29.5a8.164,8.164,0,0,1-11.663-2.059c-.119-.175-.244-.346-.366-.52a9.931,9.931,0,0,1-1.036-4.946,8.449,8.449,0,0,1,6.591-7.551,8.338,8.338,0,0,1,9.9,7.606M36.7,23.186a2.934,2.934,0,0,0,.1-.621,6.673,6.673,0,0,0-3.6-5.913,6.275,6.275,0,0,0-6.8.369,6.8,6.8,0,0,0-1.557,9.768,6.441,6.441,0,0,0,6.339,2.569A6.643,6.643,0,0,0,36.7,23.186" transform="translate(11.486 7.884)" fill="#020202"/>
        <path id="Trazado_1031276" data-name="Trazado 1031276" d="M15.669,21.007c-.224-.186-.354-.278-.464-.39-1.164-1.18-2.335-2.352-3.473-3.557a.943.943,0,0,1-.2-.756c.211-.775.5-1.526.8-2.4,1.129,1.141,2.169,2.191,3.2,3.246a.45.45,0,0,1,.121.284c.009,1.147.006,2.295.006,3.568" transform="translate(6.051 7.684)" fill="#59a543"/>
        <path id="Trazado_1031277" data-name="Trazado 1031277" d="M18.628,13.88c.331.975.621,1.795.879,2.624a.536.536,0,0,1-.125.442c-1.194,1.239-2.4,2.464-3.611,3.69-.1.1-.211.2-.47.449,0-.377,0-.591,0-.8a8.523,8.523,0,0,1,.1-2.925c.342-.846,1.274-1.444,1.948-2.149.38-.4.764-.793,1.278-1.329" transform="translate(7.997 7.668)" fill="#59a543"/>
        <path id="Trazado_1031278" data-name="Trazado 1031278" d="M15.308,23.288a2.558,2.558,0,0,1,.874-2.6c1.243-1.105,2.358-2.361,3.557-3.582.412,1.936-.8,4.962-2.7,6.711l-1.73-.526" transform="translate(8.01 9.449)" fill="#59a543"/>
        <path id="Trazado_1031279" data-name="Trazado 1031279" d="M11.811,20.338a6.494,6.494,0,0,1-.549-3.136l.16-.112c.456.492.9.99,1.368,1.472.827.855,1.647,1.717,2.506,2.538a1.314,1.314,0,0,1,.5,1.341c-.589-.265-1.194-.5-1.763-.8-.754-.405-1.48-.863-2.218-1.3" transform="translate(5.914 9.442)" fill="#59a543"/>
        <path id="Trazado_1031280" data-name="Trazado 1031280" d="M15.019,10.764v5.9c-.836-.845-1.58-1.584-2.3-2.349-.069-.073-.029-.335.047-.452.694-1.068,1.408-2.122,2.116-3.181l.136.079" transform="translate(6.664 5.903)" fill="#59a543"/>
        <path id="Trazado_1031281" data-name="Trazado 1031281" d="M15.436,10.681c.717,1.073,1.44,2.142,2.14,3.226a.482.482,0,0,1,0,.447c-.718.768-1.461,1.512-2.28,2.347V10.766l.139-.085" transform="translate(8.037 5.901)" fill="#59a543"/>
        <path id="Trazado_1031282" data-name="Trazado 1031282" d="M11.62,19.182c.738.436,1.464.894,2.218,1.3.569.3,1.175.539,1.763.8v2.878a10.717,10.717,0,0,1-3.981-4.982" transform="translate(6.105 10.598)" fill="#498c35"/>
        <path id="Trazado_1031283" data-name="Trazado 1031283" d="M15.287,21.087l1.73.526-1.73,1.565Z" transform="translate(8.031 11.65)" fill="#498c35"/>
        <path id="Trazado_1031284" data-name="Trazado 1031284" d="M24.308,26.236a6.8,6.8,0,0,1,1.559-9.768,6.273,6.273,0,0,1,6.8-.369,6.677,6.677,0,0,1,3.6,5.913,2.938,2.938,0,0,1-.1.621c-.212.087-.432.158-.635.265a23.518,23.518,0,0,1-5.7,2.313c-1.826.418-3.684.689-5.526,1.025" transform="translate(12.02 8.437)" fill="#b7defd"/>
        <path id="Trazado_1031285" data-name="Trazado 1031285" d="M23.816,23.616c1.843-.335,3.7-.607,5.526-1.025a23.518,23.518,0,0,0,5.7-2.313c.2-.107.423-.179.635-.265a6.641,6.641,0,0,1-5.523,6.173,6.442,6.442,0,0,1-6.339-2.569" transform="translate(12.512 11.057)" fill="#94c7ef"/>
      </g>
    </g>
  </g>
</svg>
