<svg xmlns="http://www.w3.org/2000/svg" xmlns:xlink="http://www.w3.org/1999/xlink" width="84.236" height="84.236" viewBox="0 0 84.236 84.236">
  <defs>
    <filter id="Trazado_982547" x="0" y="0" width="84.236" height="84.236" filterUnits="userSpaceOnUse">
      <feOffset dy="3" input="SourceAlpha"/>
      <feGaussianBlur stdDeviation="3" result="blur"/>
      <feFlood flood-opacity="0.161"/>
      <feComposite operator="in" in2="blur"/>
      <feComposite in="SourceGraphic"/>
    </filter>
    <clipPath id="clip-path">
      <path id="Trazado_1031441" data-name="Trazado 1031441" d="M0,0H41V41H0Z" transform="translate(0 0.366)" fill="none"/>
    </clipPath>
  </defs>
  <g id="Grupo_1175536" data-name="Grupo 1175536" transform="translate(-586.25 -914.212)">
    <g id="Grupo_1175060" data-name="Grupo 1175060" transform="translate(595.25 920.212)">
      <g id="Grupo_1174859" data-name="Grupo 1174859" transform="translate(0)">
        <g id="Grupo_1167343" data-name="Grupo 1167343">
          <g id="Grupo_1166777" data-name="Grupo 1166777" transform="translate(0)">
            <g id="Grupo_1164305" data-name="Grupo 1164305">
              <g id="Grupo_1163948" data-name="Grupo 1163948">
                <g id="Grupo_1158168" data-name="Grupo 1158168">
                  <g id="Grupo_1152576" data-name="Grupo 1152576">
                    <g id="Grupo_1148633" data-name="Grupo 1148633">
                      <g id="Grupo_1148525" data-name="Grupo 1148525">
                        <g transform="matrix(1, 0, 0, 1, -9, -6)" filter="url(#Trazado_982547)">
                          <g id="Trazado_982547-2" data-name="Trazado 982547" transform="translate(9 6)" fill="#f4f9ff">
                            <path d="M 33.1181640625 64.73633575439453 C 28.84908485412598 64.73633575439453 24.70849418640137 63.90056228637695 20.81141471862793 62.25223541259766 C 17.04652404785156 60.65982437133789 13.66499423980713 58.37983322143555 10.7607536315918 55.47559356689453 C 7.856503963470459 52.57134246826172 5.57651424407959 49.18981552124023 3.984104156494141 45.42492294311523 C 2.335773944854736 41.5278434753418 1.500004053115845 37.38725280761719 1.500004053115845 33.1181640625 C 1.500004053115845 28.84908485412598 2.335773944854736 24.70849418640137 3.984104156494141 20.81141471862793 C 5.57651424407959 17.04652404785156 7.856513977050781 13.66499423980713 10.7607536315918 10.7607536315918 C 13.66499423980713 7.856513977050781 17.04652404785156 5.57651424407959 20.81141471862793 3.984104156494141 C 24.70849418640137 2.335773944854736 28.84908485412598 1.500004053115845 33.1181640625 1.500004053115845 C 37.38725280761719 1.500004053115845 41.5278434753418 2.335773944854736 45.42492294311523 3.984104156494141 C 49.18981552124023 5.57651424407959 52.57134246826172 7.856503963470459 55.47559356689453 10.7607536315918 C 58.37983322143555 13.66499423980713 60.65982437133789 17.04652404785156 62.25223541259766 20.81141471862793 C 63.90056228637695 24.70849418640137 64.73633575439453 28.84908485412598 64.73633575439453 33.1181640625 C 64.73633575439453 37.38725280761719 63.90056228637695 41.5278434753418 62.25223541259766 45.42492294311523 C 60.65982437133789 49.18981552124023 58.37983322143555 52.57135391235352 55.47559356689453 55.47559356689453 C 52.57135391235352 58.37983322143555 49.18981552124023 60.65982437133789 45.42492294311523 62.25223541259766 C 41.5278434753418 63.90056228637695 37.38725280761719 64.73633575439453 33.1181640625 64.73633575439453 Z" stroke="none"/>
                            <path d="M 33.1181640625 2.999996185302734 C 29.05091857910156 2.999996185302734 25.10691833496094 3.7958984375 21.3957405090332 5.365596771240234 C 17.80964279174805 6.88238525390625 14.58837509155273 9.054443359375 11.82140731811523 11.82140731811523 C 9.054443359375 14.58837509155273 6.88238525390625 17.80964279174805 5.365596771240234 21.3957405090332 C 3.7958984375 25.10691833496094 2.999996185302734 29.05091857910156 2.999996185302734 33.1181640625 C 2.999996185302734 37.18541717529297 3.7958984375 41.12940979003906 5.365596771240234 44.84059906005859 C 6.88238525390625 48.42668533325195 9.054431915283203 51.64796447753906 11.82140731811523 54.41493225097656 C 14.58837509155273 57.1818962097168 17.80964279174805 59.35394287109375 21.39572906494141 60.87073135375977 C 25.10691833496094 62.4404296875 29.05091857910156 63.23633193969727 33.1181640625 63.23633193969727 C 37.18541717529297 63.23633193969727 41.12940979003906 62.4404296875 44.84059906005859 60.87073135375977 C 48.42668533325195 59.35394287109375 51.64796447753906 57.1818962097168 54.41493225097656 54.41493225097656 C 57.1818962097168 51.64796447753906 59.35394287109375 48.42668533325195 60.87073135375977 44.84059906005859 C 62.4404296875 41.12940979003906 63.23633193969727 37.18541717529297 63.23633193969727 33.1181640625 C 63.23633193969727 29.05091857910156 62.4404296875 25.10691833496094 60.87073135375977 21.39572906494141 C 59.35394287109375 17.80964279174805 57.1818962097168 14.58837509155273 54.41493225097656 11.82140731811523 C 51.64796447753906 9.054431915283203 48.42668533325195 6.88238525390625 44.84059906005859 5.365596771240234 C 41.12940979003906 3.7958984375 37.18541717529297 2.999996185302734 33.1181640625 2.999996185302734 M 33.1181640625 0 C 51.40882873535156 0 66.236328125 14.82750701904297 66.236328125 33.1181640625 C 66.236328125 51.40882873535156 51.40882873535156 66.236328125 33.1181640625 66.236328125 C 14.82750701904297 66.236328125 0 51.40882873535156 0 33.1181640625 C 0 14.82750701904297 14.82750701904297 0 33.1181640625 0 Z" stroke="none" fill="#efdb59"/>
                          </g>
                        </g>
                      </g>
                    </g>
                  </g>
                </g>
              </g>
            </g>
          </g>
        </g>
      </g>
    </g>
    <g id="Grupo_1175729" data-name="Grupo 1175729" transform="translate(607.931 932.464)">
      <g id="Enmascarar_grupo_1109816" data-name="Enmascarar grupo 1109816" transform="translate(0.069)" clip-path="url(#clip-path)">
        <path id="Trazado_1031409" data-name="Trazado 1031409" d="M41.676,41.676H36a.957.957,0,0,0,.413-.77c-.014-2.206.014-4.413-.014-6.618a8.462,8.462,0,0,0-5.411-7.648.69.69,0,0,0-1.018.335l-1.353-.236a1.957,1.957,0,0,0-3.723-.848.383.383,0,0,1-.258.176c-.4.019-.8.008-1.219.008V24.349c3.814-1.636,5.427-4.591,5.178-8.662a2.671,2.671,0,0,0,2.463-1.723l1.512-.409c.186.306.438.5.807.369a6.213,6.213,0,0,0,2.395-1.4,1.8,1.8,0,0,0,0-2.761A6.305,6.305,0,0,0,34.214,8.7a20.073,20.073,0,0,0-6-1.612.514.514,0,0,1-.5-.449c-.372-1.353-.76-2.7-1.147-4.052A3.269,3.269,0,0,0,23.25.074q-2.438,0-4.875,0a3.27,3.27,0,0,0-3.339,2.532c-.388,1.363-.778,2.726-1.16,4.091a.455.455,0,0,1-.423.384c-1.209.217-2.422.431-3.614.728A9.432,9.432,0,0,0,6.164,9.44a1.945,1.945,0,0,0,.025,3.387,11.511,11.511,0,0,0,1.87,1.035c.474.231.709.132,1.028-.31l1.395.338,0,0,.067.075A2.694,2.694,0,0,0,13,15.7c0,.1,0,.169,0,.236a9.747,9.747,0,0,0,.4,3.481,7.766,7.766,0,0,0,4.515,4.8.48.48,0,0,1,.274.307c.029.508.013,1.019.013,1.557-.437,0-.84.011-1.241-.009a.385.385,0,0,1-.254-.183,1.956,1.956,0,0,0-3.718.855l-1.354.239a.691.691,0,0,0-1.017-.338,8.469,8.469,0,0,0-5.413,7.689c-.022,2.138,0,4.277-.014,6.416a1.006,1.006,0,0,0,.414.932" transform="translate(-0.31)" fill="#fefefe"/>
        <path id="Trazado_1031410" data-name="Trazado 1031410" d="M48.254,111.657a1.007,1.007,0,0,1-.414-.932c.017-2.138-.008-4.277.014-6.416a8.469,8.469,0,0,1,5.413-7.689.691.691,0,0,1,1.017.338c.023.548-.056.674-.571.885a6.672,6.672,0,0,0-2.869,2.088,6.323,6.323,0,0,0-1.374,2.488c-.534,1.73-.259,3.509-.309,5.269,0,.019.034.039.022.027l3.868.127.014.018.022,0,.125.058.726.526q.848-2.326,1.688-4.637a.6.6,0,0,0,.022-.2q0-3.442-.011-6.885a1.956,1.956,0,0,1,3.718-.855.385.385,0,0,0,.254.183c.4.02.8.009,1.241.009,0-.539.016-1.049-.013-1.557a.48.48,0,0,0-.274-.307,7.766,7.766,0,0,1-4.515-4.8,9.747,9.747,0,0,1-.4-3.481c0-.067,0-.134,0-.236a2.694,2.694,0,0,1-2.455-1.734l-.067-.075,0,0a2.857,2.857,0,0,1,.84-2.83L55.65,80.3c0-.092,0-.281,0-.469a.627.627,0,0,1,.577-.67c1.5-.2,3-.441,4.5-.556a38.616,38.616,0,0,1,9.376.456c1.089.183,1.1.183,1.146,1.25a.858.858,0,0,0,.028.133,2.732,2.732,0,0,1,2.244,1.311,2.8,2.8,0,0,1,.18,2.188,2.671,2.671,0,0,1-2.463,1.723c.249,4.071-1.364,7.026-5.178,8.662v1.726c.415,0,.817.011,1.219-.008a.383.383,0,0,0,.258-.176,1.957,1.957,0,0,1,3.723.848q-.006,3.429-.011,6.857a.716.716,0,0,0,.027.24c.56,1.547,1.125,3.092,1.7,4.68a2.237,2.237,0,0,1,1.956-.747c.928.026,1.858.006,2.813.006,0-1.055.011-2.067-.005-3.079a7.84,7.84,0,0,0-.114-1.411,7.064,7.064,0,0,0-4.45-5.423c-.511-.213-.6-.343-.568-.887a.69.69,0,0,1,1.018-.336,8.462,8.462,0,0,1,5.411,7.648c.029,2.206,0,4.412.015,6.618a.958.958,0,0,1-.413.77ZM62.163,95.325c0,.472-.022.945-.008,1.417a1.3,1.3,0,0,0,2.591,0c.015-.472,0-.944-.007-1.417v-.614H62.163Zm-6.95,13.482-.578,1.525H72.263l-.479-1.276c-.5-1.4-1.011-2.791-1.5-4.193a.454.454,0,0,0-.514-.364c-2.583.013-5.166.008-7.748.008-1.65,0-3.3,0-4.949.008-.128,0-.335.087-.371.183-.51,1.365-1,2.738-1.489,4.11M67.339,80.62v-.584a33.272,33.272,0,0,0-7.776.023v.561a2.208,2.208,0,0,1-.735,1.485c-.207.191-.391.406-.586.61-.358.348-.73.683-1.066,1.05a.869.869,0,0,0-.217.518c-.021.905-.016,1.812-.009,2.718a6.5,6.5,0,0,0,8.341,6.185,5.036,5.036,0,0,0,2.382-1.358,2.38,2.38,0,0,0,.319-.228,5.93,5.93,0,0,0,1.864-3.69c.115-1.249.075-2.513.085-3.771a.619.619,0,0,0-.2-.365c-.557-.572-1.119-1.141-1.694-1.7a2.223,2.223,0,0,1-.71-1.459M59.576,97.366v5.812h7.745V97.366H65.988a2.635,2.635,0,0,1-5.078,0Zm10.376,5.821v-1.75c0-1.541,0-3.082,0-4.622,0-.568-.433-.9-.893-.7a.689.689,0,0,0-.407.723c0,2.027,0,4.055,0,6.082a2.384,2.384,0,0,0,.031.27Zm-11.7.01v-2.7c0-1.23,0-2.46,0-3.69,0-.59-.543-.96-.965-.638a.975.975,0,0,0-.319.681c-.025,2.014-.015,4.027-.013,6.041a3.111,3.111,0,0,0,.031.31Zm15.605,7.136h3.875v-1.276c-1.091,0-2.157-.008-3.224,0a.625.625,0,0,0-.649.639c-.013.2,0,.4,0,.633m-20.806.011c0-.2,0-.361,0-.522-.01-.527-.242-.758-.774-.766-.27,0-.541,0-.811,0H49.174v1.288ZM71.27,84.339a1.284,1.284,0,0,0,0-2.568Zm-15.643,0V81.77a1.284,1.284,0,0,0,0,2.569M69.948,80.35l-1.3-.181c-.094,1.033.808,1.306,1.3,2.011ZM56.967,82.041c.453-.605,1.426-.851,1.263-1.875l-1.263.185Z" transform="translate(-42.957 -69.981)" fill="#020101"/>
        <path id="Trazado_1031411" data-name="Trazado 1031411" d="M51.7,14.149c-.318.441-.554.541-1.028.31a11.526,11.526,0,0,1-1.87-1.035,1.946,1.946,0,0,1-.025-3.387,9.436,9.436,0,0,1,3.676-1.631c1.191-.3,2.4-.511,3.614-.728a.455.455,0,0,0,.423-.384c.381-1.365.771-2.728,1.16-4.091A3.27,3.27,0,0,1,60.993.671q2.438,0,4.875,0a3.269,3.269,0,0,1,3.316,2.51c.386,1.35.775,2.7,1.147,4.052a.514.514,0,0,0,.5.449,20.075,20.075,0,0,1,6,1.612,6.306,6.306,0,0,1,1.562,1.066,1.8,1.8,0,0,1,0,2.761A6.213,6.213,0,0,1,76,14.521c-.369.134-.621-.063-.807-.369-.076-.5.048-.667.513-.91a16.98,16.98,0,0,0,1.728-1.02.525.525,0,0,0,.154-.833,3.512,3.512,0,0,0-.648-.588,11.512,11.512,0,0,0-1.692-.771A32.018,32.018,0,0,0,66.714,8.57a50.406,50.406,0,0,0-10.974.473A21.745,21.745,0,0,0,51.15,10.2,15.5,15.5,0,0,0,49.5,11.1c-.528.374-.534.8-.013,1.188a11.484,11.484,0,0,0,1.669.957c.478.242.576.357.547.9M68.84,6.761,68.4,5.268l-.5-1.747a1.867,1.867,0,0,0-1.777-1.54c-1.711-.021-3.423,0-5.135,0a1.823,1.823,0,0,0-1.565.608,1.661,1.661,0,0,0-.387.609c-.423,1.39-.82,2.789-1.247,4.257a56.716,56.716,0,0,1,11.26-.011l-.206-.687" transform="translate(-42.927 -0.597)" fill="#030302"/>
        <path id="Trazado_1031412" data-name="Trazado 1031412" d="M264.942,246.607c-.028.544.057.674.568.887a7.063,7.063,0,0,1,4.45,5.423,7.839,7.839,0,0,1,.114,1.411c.016,1.012.005,2.024.005,3.079-.956,0-1.885.02-2.813-.006a2.236,2.236,0,0,0-1.956.747c-.579-1.588-1.143-3.134-1.7-4.68a.713.713,0,0,1-.027-.24q0-3.429.01-6.857l1.353.236" transform="translate(-235.282 -219.631)" fill="#faaa67"/>
        <path id="Trazado_1031413" data-name="Trazado 1031413" d="M72.206,249.578a6.672,6.672,0,0,1,2.869-2.088c.515-.211.594-.337.571-.885L77,246.366q.006,3.443.011,6.885a.592.592,0,0,1-.022.2q-.84,2.316-1.688,4.637l-.726-.526-.125-.058-.022,0-.014-.018c-.088-.1-.177-.2-.264-.3a15.5,15.5,0,0,1-1.443-1.719,5.807,5.807,0,0,1-.829-4.069c.094-.609.217-1.213.327-1.819" transform="translate(-64.32 -219.628)" fill="#faaa67"/>
        <path id="Trazado_1031414" data-name="Trazado 1031414" d="M62.339,92.4c.028-.544-.069-.659-.547-.9a11.494,11.494,0,0,1-1.669-.957c-.521-.386-.515-.813.013-1.188a15.5,15.5,0,0,1,1.649-.907c.091.107.16.26.276.315.833.393,1.675.766,2.514,1.146a2.856,2.856,0,0,0-.84,2.83L62.339,92.4" transform="translate(-53.562 -78.851)" fill="#e88d49"/>
        <path id="Trazado_1031415" data-name="Trazado 1031415" d="M288.605,99.44a.525.525,0,0,1-.154.833,16.962,16.962,0,0,1-1.728,1.02c-.465.243-.589.407-.513.91l-1.512.409a2.8,2.8,0,0,0-.18-2.188,3.513,3.513,0,0,0,.436-.055c1.218-.306,2.435-.618,3.652-.929" transform="translate(-253.948 -88.648)" fill="#e78c48"/>
        <path id="Trazado_1031416" data-name="Trazado 1031416" d="M96.562,127.96l.067.075-.067-.075" transform="translate(-86.392 -114.072)" fill="#e88d49"/>
        <path id="Trazado_1031417" data-name="Trazado 1031417" d="M143.655,98.866c.194-.2.379-.419.586-.61a2.207,2.207,0,0,0,.735-1.485c1.141-.055,2.282-.158,3.422-.153,1.451.006,2.9.1,4.354.153a2.223,2.223,0,0,0,.71,1.459c.575.554,1.136,1.123,1.693,1.7a.618.618,0,0,1,.2.365c-.01,1.258.03,2.522-.085,3.771a5.931,5.931,0,0,1-1.864,3.69,2.384,2.384,0,0,1-.319.228,15.434,15.434,0,0,1-1.821.314,6.871,6.871,0,0,1-4.093-.994,7.012,7.012,0,0,1-3.506-6.043c-.029-.8-.009-1.594-.012-2.391m2.609,1.96c0-.094,0-.189,0-.283a.651.651,0,1,0-1.3-.01c-.005.094,0,.189,0,.283,0,.682.214,1,.666.989s.637-.315.636-.979m6.5.042h0c0-.108,0-.216,0-.323a.654.654,0,0,0-.644-.687.647.647,0,0,0-.655.674,5.044,5.044,0,0,0,.005.687.646.646,0,0,0,1.286.013,2.125,2.125,0,0,0,0-.363" transform="translate(-128.369 -86.132)" fill="#fed2b5"/>
        <path id="Trazado_1031418" data-name="Trazado 1031418" d="M115.778,322.36c.492-1.372.979-2.745,1.489-4.11.036-.1.243-.182.371-.183,1.65-.012,3.3-.008,4.949-.008,2.583,0,5.166.005,7.748-.008a.454.454,0,0,1,.514.364c.488,1.4,1,2.8,1.5,4.193-5.008,0-10.015.007-15.023-.011a10.2,10.2,0,0,1-1.548-.238" transform="translate(-103.522 -283.533)" fill="#79828a"/>
        <path id="Trazado_1031419" data-name="Trazado 1031419" d="M155.983,252.322h1.334a2.635,2.635,0,0,0,5.078,0h1.333v5.813h-7.745Z" transform="translate(-139.364 -224.936)" fill="#fbaa67"/>
        <path id="Trazado_1031420" data-name="Trazado 1031420" d="M105.053,75.421c-1.217.31-2.434.623-3.652.929a3.516,3.516,0,0,1-.436.055,2.732,2.732,0,0,0-2.244-1.311.9.9,0,0,1-.028-.133c-.043-1.068-.058-1.067-1.146-1.25a38.616,38.616,0,0,0-9.376-.456c-1.507.115-3,.358-4.5.556a.627.627,0,0,0-.577.67c-.006.188,0,.377,0,.469l-1.681.739c-.839-.38-1.681-.753-2.514-1.146-.116-.055-.185-.207-.276-.315a21.739,21.739,0,0,1,4.59-1.154A50.4,50.4,0,0,1,94.182,72.6a32.013,32.013,0,0,1,8.531,1.461,11.512,11.512,0,0,1,1.692.771,3.512,3.512,0,0,1,.648.588" transform="translate(-70.396 -64.628)" fill="#f7a866"/>
        <path id="Trazado_1031421" data-name="Trazado 1031421" d="M133.031,117.336c0,.8-.017,1.595.012,2.391a7.012,7.012,0,0,0,3.506,6.043,6.872,6.872,0,0,0,4.093.994,15.447,15.447,0,0,0,1.821-.314,5.035,5.035,0,0,1-2.382,1.358,6.5,6.5,0,0,1-8.341-6.185c-.007-.906-.013-1.812.009-2.718a.869.869,0,0,1,.217-.518c.336-.368.708-.7,1.066-1.05" transform="translate(-117.746 -104.601)" fill="#f7b794"/>
        <path id="Trazado_1031422" data-name="Trazado 1031422" d="M111.026,357.749a10.21,10.21,0,0,0,1.548.238c5.007.018,10.015.011,15.023.011l.479,1.276H110.448l.578-1.525" transform="translate(-98.771 -318.922)" fill="#5d6871"/>
        <path id="Trazado_1031423" data-name="Trazado 1031423" d="M61.466,275.957c-.11.606-.233,1.21-.327,1.819a5.807,5.807,0,0,0,.829,4.069,15.489,15.489,0,0,0,1.443,1.719c.087.1.176.2.264.3l-3.868-.127c.011.012-.023-.008-.022-.027.049-1.759-.225-3.539.309-5.269a6.322,6.322,0,0,1,1.374-2.488" transform="translate(-53.58 -246.007)" fill="#e88d49"/>
        <path id="Trazado_1031424" data-name="Trazado 1031424" d="M240.892,247.372h-1.268a2.36,2.36,0,0,1-.03-.27c0-2.027,0-4.055,0-6.082A.689.689,0,0,1,240,240.3c.46-.2.891.136.893.7.005,1.541,0,3.082,0,4.622v1.75" transform="translate(-213.897 -214.166)" fill="#79828a"/>
        <path id="Trazado_1031425" data-name="Trazado 1031425" d="M133.065,247.317H131.8a3.087,3.087,0,0,1-.031-.31c0-2.014-.012-4.028.013-6.041a.974.974,0,0,1,.319-.681c.422-.322.961.048.965.638.007,1.23,0,2.46,0,3.69v2.7" transform="translate(-117.772 -214.1)" fill="#79828a"/>
        <path id="Trazado_1031426" data-name="Trazado 1031426" d="M182.285,233.522c0,.472.022.945.008,1.417a1.3,1.3,0,0,1-2.591,0c-.014-.472,0-.944.008-1.417h2.576" transform="translate(-160.503 -208.178)" fill="#fed2b5"/>
        <path id="Trazado_1031427" data-name="Trazado 1031427" d="M163.635,91.466c-1.451-.055-2.9-.148-4.354-.153-1.141,0-2.281.1-3.422.154v-.561a33.273,33.273,0,0,1,7.776-.023Z" transform="translate(-139.253 -80.826)" fill="#f3b591"/>
        <path id="Trazado_1031428" data-name="Trazado 1031428" d="M287.51,361.308c0-.23-.01-.432,0-.633a.625.625,0,0,1,.649-.639c1.066-.012,2.133,0,3.224,0v1.276Z" transform="translate(-256.612 -320.956)" fill="#f7b794"/>
        <path id="Trazado_1031429" data-name="Trazado 1031429" d="M64.012,361.322H60.137v-1.288h2.289c.27,0,.541,0,.811,0,.531.007.764.238.774.766,0,.161,0,.322,0,.522" transform="translate(-53.92 -320.958)" fill="#f7b794"/>
        <path id="Trazado_1031430" data-name="Trazado 1031430" d="M263.727,111.2v-2.568a1.284,1.284,0,0,1,0,2.568" transform="translate(-235.414 -96.839)" fill="#f3b591"/>
        <path id="Trazado_1031431" data-name="Trazado 1031431" d="M109.071,111.194a1.284,1.284,0,0,1,0-2.569Z" transform="translate(-96.401 -96.836)" fill="#f3b591"/>
        <path id="Trazado_1031432" data-name="Trazado 1031432" d="M182.393,228.476h-2.576v-.614h2.576Z" transform="translate(-160.611 -203.132)" fill="#f7b794"/>
        <path id="Trazado_1031433" data-name="Trazado 1031433" d="M240.853,94.05V95.88c-.487-.7-1.389-.977-1.3-2.011l1.3.181" transform="translate(-213.862 -83.681)" fill="#cacaca"/>
        <path id="Trazado_1031434" data-name="Trazado 1031434" d="M131.938,95.717v-1.69l1.263-.185c.164,1.024-.81,1.27-1.263,1.875" transform="translate(-117.928 -83.657)" fill="#cacaca"/>
        <path id="Trazado_1031435" data-name="Trazado 1031435" d="M96.189,348.985l.125.058-.125-.058" transform="translate(-86.059 -311.109)" fill="#e88d49"/>
        <path id="Trazado_1031436" data-name="Trazado 1031436" d="M162.529,12.689c1.712,0,3.424-.026,5.135,0a1.867,1.867,0,0,1,1.777,1.54.681.681,0,0,0-.883-.121c-.343.235-.31.568-.216.908.086.311.194.617.267.932.081.352.254.607.635.625.4.02.608-.231.7-.6l.442,1.493c-.176,0-.352.009-.528,0-1.439-.078-2.878-.164-4.317-.235-.432-.021-.867.018-1.3-.008a2.472,2.472,0,0,1-2.191-1.357,2.628,2.628,0,0,1,.479-3.174" transform="translate(-144.471 -11.3)" fill="#fbaa67"/>
        <path id="Trazado_1031437" data-name="Trazado 1031437" d="M142.963,12.729a2.628,2.628,0,0,0-.48,3.174,2.472,2.472,0,0,0,2.191,1.357c.432.025.867-.014,1.3.008,1.439.071,2.878.158,4.317.235.176.009.352,0,.528,0l.206.687a56.716,56.716,0,0,0-11.26.011c.427-1.468.824-2.866,1.247-4.257a1.663,1.663,0,0,1,.387-.609,1.824,1.824,0,0,1,1.565-.608" transform="translate(-124.906 -11.339)" fill="#e78c48"/>
        <path id="Trazado_1031438" data-name="Trazado 1031438" d="M223.872,26.734c-.091.366-.3.617-.7.6-.381-.019-.553-.274-.634-.625-.073-.314-.181-.62-.267-.932-.094-.34-.127-.673.216-.908a.681.681,0,0,1,.883.121l.5,1.747" transform="translate(-198.401 -22.063)" fill="#fefefe"/>
        <path id="Trazado_1031439" data-name="Trazado 1031439" d="M157.023,127.438c0,.664-.2.968-.636.979s-.666-.307-.666-.989c0-.094,0-.189,0-.283a.65.65,0,1,1,1.3.011c0,.094,0,.189,0,.283" transform="translate(-139.129 -112.744)" fill="#070605"/>
        <path id="Trazado_1031440" data-name="Trazado 1031440" d="M216.879,127.481a2.123,2.123,0,0,1,0,.363.646.646,0,0,1-1.286-.013,5.039,5.039,0,0,1-.005-.687.647.647,0,0,1,.655-.674.653.653,0,0,1,.644.687c.005.108,0,.216,0,.323h0" transform="translate(-192.489 -112.745)" fill="#070605"/>
      </g>
    </g>
  </g>
</svg>
